<?xml version="1.0" encoding="UTF-8" standalone="no"?>
<svg xmlns="http://www.w3.org/2000/svg" width="580" height="580" version="1.0">
 <metadata id="metadata7"/>
 <path d="m 336.49805,-0.5 -1,1 L 290.75,45.249995 245.50195,0 H 143.67773 L 168.63477,24.95507 239.83789,96.162104 0.75,335.25586 l -1,1 v 100.82617 l 1,1 141.41992,141.41797 1,1 h 100.82227 l 0.5,-0.5 -0.5,-0.5 L 219.03516,554.54492 51.16211,386.66992 290.75,147.07421 529.83789,386.16992 361.96484,554.04492 337.00781,579 H 438.83008 L 580.25,437.58203 V 334.75586 L 341.66211,96.162104 412.36523,25.45507 437.32227,0.5 l 0.5,-0.5 -0.5,-0.5 z" id="path880-3" shape-rendering="auto" mix-blend-mode="normal" isolation="auto" color-interpolation-filters="linearRGB" white-space="normal" fill="#dd0000" solid-opacity="1" image-rendering="auto" solid-color="#000000" stroke="#ffffff" color="#000000" stroke-linecap="square" stroke-width="96" color-rendering="auto" vector-effect="none" shape-padding="0" color-interpolation="sRGB"/>
 <path d="M 336.24805 -0.5 L 335.24805 0.5 L 290.5 45.25 L 245.25195 0 L 143.42773 0 L 168.38477 24.955078 L 239.58789 96.162109 L 0.5 335.25586 L -0.5 336.25586 L -0.5 437.08203 L 0.5 438.08203 L 141.91992 579.5 L 142.91992 580.5 L 243.74219 580.5 L 244.24219 580 L 243.74219 579.5 L 218.78516 554.54492 L 50.912109 386.66992 L 290.5 147.07422 L 529.58789 386.16992 L 361.71484 554.04492 L 336.75781 579 L 438.58008 579 L 580 437.58203 L 580 334.75586 L 341.41211 96.162109 L 412.11523 25.455078 L 437.07227 0.5 L 437.57227 0 L 437.07227 -0.5 L 336.24805 -0.5 z " id="path880" shape-rendering="auto" mix-blend-mode="normal" isolation="auto" color-interpolation-filters="linearRGB" white-space="normal" fill="#dd0000" solid-opacity="1" image-rendering="auto" solid-color="#000000" color="#000000" color-rendering="auto" vector-effect="none" shape-padding="0" color-interpolation="sRGB"/>
 <path d="m 336.24805,-0.499998 -1,1 L 290.5,45.250002 245.25195,2e-6 H 143.42773 l 24.95704,24.95508 71.20312,71.207027 -239.087892,239.093751 -1,1 v 100.82617 l 1,1 L 141.91992,579.5 l 1,1 h 100.82227 l 0.5,-0.5 -0.5,-0.5 L 218.78516,554.54492 50.912107,386.66992 290.5,147.07422 529.58789,386.16992 361.71484,554.04492 336.75781,579 H 438.58008 L 580,437.58203 V 334.75586 L 341.41211,96.162109 l 70.70312,-70.707027 24.95704,-24.95508 0.5,-0.5 -0.5,-0.5 z" id="path880-0" shape-rendering="auto" mix-blend-mode="normal" isolation="auto" color-interpolation-filters="linearRGB" white-space="normal" fill="#dd0000" solid-opacity="1" image-rendering="auto" solid-color="#000000" color="#000000" color-rendering="auto" vector-effect="none" shape-padding="0" color-interpolation="sRGB"/>
</svg>
