<?xml version="1.0" encoding="UTF-8" standalone="no"?>
<svg xmlns="http://www.w3.org/2000/svg" version="1.0" width="580" height="580">
 <metadata id="metadata2975"/>
 <path d="m 129.48704,474.94777 c -1e-4,2.49164 -1.20262,3.73743 -3.60757,3.7374 l -12.76219,0 c -2.40774,3e-5 -3.61157,-1.24576 -3.6115,-3.7374 l 0,-6.05849 c -7e-5,-2.40761 1.20376,-3.61144 3.6115,-3.6115 l 12.76219,0 c 2.40495,6e-5 3.60747,1.20389 3.60757,3.6115 l 0,6.05849 z m -36.351015,0.12982 c -5e-5,2.40508 -1.24716,3.6076 -3.741315,3.60756 l -27.585847,0 c -2.407692,4e-5 -3.61152,-1.20248 -3.611494,-3.60756 l 0,-6.18832 c -2.6e-5,-2.40761 1.203802,-3.61144 3.611494,-3.6115 l 27.585847,0 c 2.494155,6e-5 3.741265,1.20389 3.741315,3.6115 l 0,6.18832 z m 56.591915,29.00606 -9.28446,0 0,-32.22808 c -1.1e-4,-4.98575 -1.74029,-9.19719 -5.22054,-12.63433 -3.48045,-3.43702 -7.67026,-5.15556 -12.56942,-5.15563 l -60.329292,0 c -4.985828,7e-5 -9.197269,1.71861 -12.634333,5.15563 -3.437098,3.43714 -5.155638,7.64858 -5.155624,12.63433 l 0,22.81773 c -1.4e-5,3.60889 1.289055,6.7024 3.86721,9.28052 2.578124,2.57816 5.671626,3.86723 9.280521,3.86721 l 20.756268,0 c 0.256985,-3.6954 1.717835,-6.83218 4.382575,-9.41035 2.664635,-2.57811 5.88797,-3.86718 9.67,-3.8672 3.69535,2e-5 6.896395,1.28909 9.603115,3.8672 2.70658,2.57817 4.14646,5.67167 4.31963,9.28052 l 46.9219,0 c -1.2e-4,-2.40501 -1.20264,-3.60754 -3.60755,-3.60755 l 0,0 z m -57.237095,9.02087 c -1.203895,0 -2.235285,-0.42947 -3.094165,-1.28842 -0.859,-0.85893 -1.28847,-1.89032 -1.28842,-3.09417 -5e-5,-1.28773 0.42942,-2.3401 1.28842,-3.1571 0.85888,-0.81696 1.89027,-1.22545 3.094165,-1.22547 1.20114,2e-5 2.23187,0.40851 3.09219,1.22547 0.86019,0.817 1.29032,1.86937 1.29038,3.1571 -6e-5,1.20385 -0.43019,2.23524 -1.29038,3.09417 -0.86032,0.85895 -1.89105,1.28842 -3.09219,1.28842 l 0,0 z m 0,-14.56401 c -2.837855,3e-5 -5.244855,0.98813 -7.22103,2.96434 -1.976275,1.97624 -2.964385,4.38194 -2.96433,7.21708 -5.5e-5,2.75126 0.988055,5.11499 2.96433,7.09121 1.976175,1.97623 4.383175,2.96434 7.22103,2.96433 2.74855,10e-6 5.11163,-0.9881 7.089225,-2.96433 1.97747,-1.97622 2.96624,-4.33995 2.96631,-7.09121 -7e-5,-2.83514 -0.98884,-5.24084 -2.96631,-7.21708 -1.977595,-1.97621 -4.340675,-2.96431 -7.089225,-2.96434 l 0,0 z" id="flowRoot3192" fill="#888888" fill-opacity="0.53"/>
</svg>
