<?xml version="1.0" encoding="UTF-8" standalone="no"?>
<svg xmlns="http://www.w3.org/2000/svg" version="1.0" width="580" height="580">
 <metadata id="metadata2975"/>
 <path d="m 214.4398,431.11807 c -2e-4,4.98327 -2.40524,7.47486 -7.21513,7.47479 l -25.52438,0 c -4.81549,7e-5 -7.22315,-2.49152 -7.223,-7.47479 l 0,-12.11699 c -1.5e-4,-4.81522 2.40751,-7.22288 7.223,-7.223 l 25.52438,0 c 4.80989,1.2e-4 7.21493,2.40778 7.21513,7.223 l 0,12.11699 z m -72.70202,0.25963 c -10e-5,4.81017 -2.49432,7.21521 -7.48263,7.21513 l -55.171695,0 c -4.815383,8e-5 -7.223039,-2.40496 -7.222987,-7.21513 l 0,-12.37664 c -5.2e-5,-4.81522 2.407604,-7.22287 7.222987,-7.22299 l 55.171695,0 c 4.98831,1.2e-4 7.48253,2.40777 7.48263,7.22299 l 0,12.37664 z m 113.18382,58.01212 -18.56892,0 0,-64.45615 c -2.1e-4,-9.9715 -3.48057,-18.39438 -10.44107,-25.26866 -6.96091,-6.87405 -15.34053,-10.31113 -25.13885,-10.31126 l -120.658575,0 c -9.971655,1.3e-4 -18.394538,3.43721 -25.268665,10.31126 -6.874196,6.87428 -10.311276,15.29716 -10.311249,25.26866 l 0,45.63545 c -2.7e-5,7.21779 2.578111,13.4048 7.734421,18.56104 5.156248,5.15632 11.343252,7.73446 18.561042,7.73443 l 41.512536,0 c 0.51397,-7.39081 3.43567,-13.66437 8.76515,-18.8207 5.32927,-5.15622 11.77594,-7.73436 19.34,-7.73441 7.3907,5e-5 13.79279,2.57819 19.20622,7.73441 5.41317,5.15633 8.29293,11.34333 8.63927,18.56104 l 93.8438,0 c -2.4e-4,-4.81003 -2.40528,-7.21509 -7.21511,-7.21511 l 0,0 z m -114.47418,18.04174 c -2.40779,1e-5 -4.47057,-0.85893 -6.18833,-2.57684 -1.718,-1.71786 -2.57694,-3.78063 -2.57684,-6.18833 -1e-4,-2.57547 0.85884,-4.68021 2.57684,-6.3142 1.71776,-1.63393 3.78054,-2.45091 6.18833,-2.45095 2.40228,4e-5 4.46374,0.81702 6.18438,2.45095 1.72038,1.63399 2.58064,3.73873 2.58076,6.3142 -1.2e-4,2.4077 -0.86038,4.47047 -2.58076,6.18833 -1.72064,1.71791 -3.7821,2.57685 -6.18438,2.57684 l 0,0 z m 0,-29.12801 c -5.67571,5e-5 -10.48971,1.97626 -14.44206,5.92867 -3.95255,3.95248 -5.92877,8.76388 -5.92866,14.43417 -1.1e-4,5.50252 1.97611,10.22998 5.92866,14.18241 3.95235,3.95246 8.76635,5.92868 14.44206,5.92867 5.4971,10e-6 10.22326,-1.97621 14.17845,-5.92867 3.95494,-3.95243 5.93248,-8.67989 5.93261,-14.18241 -1.3e-4,-5.67029 -1.97767,-10.48169 -5.93261,-14.43417 -3.95519,-3.95241 -8.68135,-5.92862 -14.17845,-5.92867 l 0,0 z" id="flowRoot3192" fill="#888888" fill-opacity="0.53"/>
</svg>
