<?xml version="1.0" encoding="UTF-8" standalone="no"?>
<svg xmlns="http://www.w3.org/2000/svg" width="580" height="580" version="1.0">
 <metadata id="metadata7"/>
 <rect id="rect4858" width="580" height="580" mix-blend-mode="normal" solid-color="#000000" opacity="0.8" color-interpolation-filters="linearRGB" color="#000000" image-rendering="auto" color-rendering="auto" fill-rule="evenodd" isolation="auto" color-interpolation="sRGB" solid-opacity="1" fill="#f1f7f0" shape-rendering="auto"/>
 <path d="m 68.936452,54.484442 c -11.0646,0.355472 -19.632927,12.796825 -23.977897,22.978817 -4.051981,9.495401 -4.907744,21.888762 0,30.971451 5.488737,10.15792 18.955627,24.72324 28.973292,18.9825 5.786107,-3.31579 -4.184707,-14.1228 -0.999079,-19.98158 3.49258,-6.4233 15.824187,-4.39578 18.982501,-10.98987 C 95.699563,88.544719 92.209232,78.107823 87.918953,70.469706 83.867834,63.257372 77.204389,54.218818 68.936452,54.484442 Z" id="path4837" mix-blend-mode="normal" solid-color="#000000" opacity="0.8" color-interpolation-filters="linearRGB" filter-gaussianBlur-deviation="0" color="#000000" image-rendering="auto" color-rendering="auto" fill-rule="evenodd" isolation="auto" color-interpolation="sRGB" solid-opacity="1" fill="#afcfa9" filter-blend-mode="normal" shape-rendering="auto"/>
 <path d="m 146.86461,63.476153 c 0.79689,5.950596 4.03205,14.252631 9.99079,14.986185 9.8274,1.209808 21.54638,-10.089483 21.97974,-19.98158 0.25787,-5.886192 -6.38517,-11.168295 -11.98895,-12.988028 -4.84525,-1.573415 -11.16708,-0.374198 -14.98618,2.997237 -3.94751,3.484793 -5.69432,9.767168 -4.9954,14.986186 z" id="path4839" mix-blend-mode="normal" solid-color="#000000" opacity="0.8" color-interpolation-filters="linearRGB" filter-gaussianBlur-deviation="0" color="#000000" image-rendering="auto" color-rendering="auto" fill-rule="evenodd" isolation="auto" color-interpolation="sRGB" solid-opacity="1" fill="#afcfa9" filter-blend-mode="normal" shape-rendering="auto"/>
 <path d="m 21.979738,188.36103 c -8.22814,6.31483 -6.499779,21.20869 -2.997237,30.97145 3.021802,8.42278 10.035228,19.12677 18.982501,18.9825 7.30289,-0.11776 11.802557,-9.41179 14.986185,-15.98527 2.935698,-6.06156 5.680712,-13.80422 2.997237,-19.98158 -2.576359,-5.93078 -9.989291,-8.5691 -15.985264,-10.98986 -5.635224,-2.27511 -13.162413,-6.69721 -17.983422,-2.99724 z" id="path4841" mix-blend-mode="normal" solid-color="#000000" opacity="0.8" color-interpolation-filters="linearRGB" filter-gaussianBlur-deviation="0" color="#000000" image-rendering="auto" color-rendering="auto" fill-rule="evenodd" isolation="auto" color-interpolation="sRGB" solid-opacity="1" fill="#afcfa9" filter-blend-mode="normal" shape-rendering="auto"/>
 <path d="m 153.85817,157.38958 c 0.54322,-11.17669 10.1315,-21.66576 19.98158,-26.97513 5.28487,-2.84864 12.65358,-3.76268 17.98342,-0.99908 2.78912,1.4462 4.06525,4.99171 4.99539,7.99263 4.63817,14.96407 9.3294,33.11153 1.99816,46.95671 -3.84904,7.26897 -12.98744,14.92746 -20.98066,12.98803 -15.09685,-3.66302 -24.73204,-24.44659 -23.97789,-39.96316 z" id="path4845" mix-blend-mode="normal" solid-color="#000000" opacity="0.8" color-interpolation-filters="linearRGB" filter-gaussianBlur-deviation="0" color="#000000" image-rendering="auto" color-rendering="auto" fill-rule="evenodd" isolation="auto" color-interpolation="sRGB" solid-opacity="1" fill="#afcfa9" filter-blend-mode="normal" shape-rendering="auto"/>
 <path d="m 272.74857,70.469706 c -7.28378,6.846416 -8.3574,23.206136 -0.99908,29.972374 4.19614,3.8585 12.08723,0.91969 16.98434,-1.998162 9.44539,-5.627861 23.90808,-17.145241 18.9825,-26.975133 -5.22383,-10.425111 -26.47127,-8.985386 -34.96776,-0.999079 z" id="path4847" mix-blend-mode="normal" solid-color="#000000" opacity="0.8" color-interpolation-filters="linearRGB" filter-gaussianBlur-deviation="0" color="#000000" image-rendering="auto" color-rendering="auto" fill-rule="evenodd" isolation="auto" color-interpolation="sRGB" solid-opacity="1" fill="#afcfa9" filter-blend-mode="normal" shape-rendering="auto"/>
 <path d="m 362.66568,47.490888 c -5.79754,6.012382 -4.13875,19.311415 1.99816,24.976976 2.44695,2.259007 6.82581,1.036122 9.99079,0 5.8872,-1.927297 13.03888,-5.109252 14.98618,-10.989869 1.42391,-4.300023 -0.41203,-10.218437 -3.99631,-12.988028 -6.06672,-4.687786 -17.65705,-6.518064 -22.97882,-0.999079 z" id="path4849" mix-blend-mode="normal" solid-color="#000000" opacity="0.8" color-interpolation-filters="linearRGB" filter-gaussianBlur-deviation="0" color="#000000" image-rendering="auto" color-rendering="auto" fill-rule="evenodd" isolation="auto" color-interpolation="sRGB" solid-opacity="1" fill="#afcfa9" filter-blend-mode="normal" shape-rendering="auto"/>
 <path d="m 388.64173,107.43563 c 2.59073,-11.246639 13.44205,-24.357699 24.97698,-23.977897 10.36643,0.341327 15.92508,13.922304 20.98066,22.978817 2.36349,4.23392 4.9111,9.22525 3.99631,13.98711 -1.74679,9.09282 -9.01788,17.26102 -16.98434,21.97973 -5.51159,3.26463 -13.4574,6.23896 -18.9825,2.99724 -11.63217,-6.8249 -17.01453,-24.82265 -13.98711,-37.965 z" id="path4851" mix-blend-mode="normal" solid-color="#000000" opacity="0.8" color-interpolation-filters="linearRGB" filter-gaussianBlur-deviation="0" color="#000000" image-rendering="auto" color-rendering="auto" fill-rule="evenodd" isolation="auto" color-interpolation="sRGB" solid-opacity="1" fill="#afcfa9" filter-blend-mode="normal" shape-rendering="auto"/>
 <path d="m 507.53214,81.459575 c 1.17604,-12.445248 12.47721,-28.126471 24.97697,-27.974212 8.7409,0.106472 13.96844,11.776768 16.98434,19.98158 1.37876,3.750942 1.04296,8.131127 0,11.988948 -1.20744,4.466213 -3.19468,9.348203 -6.99355,11.988948 -6.38373,4.437581 -15.90906,7.230901 -22.97882,3.996311 -7.06327,-3.231615 -12.71969,-12.248586 -11.98894,-19.981575 z" id="path4853" mix-blend-mode="normal" solid-color="#000000" opacity="0.8" color-interpolation-filters="linearRGB" filter-gaussianBlur-deviation="0" color="#000000" image-rendering="auto" color-rendering="auto" fill-rule="evenodd" isolation="auto" color-interpolation="sRGB" solid-opacity="1" fill="#afcfa9" filter-blend-mode="normal" shape-rendering="auto"/>
 <path d="m 493.54503,209.34169 c 1.85383,-6.67726 10.11131,-12.87437 16.98434,-11.98895 8.2044,1.05694 16.75007,10.74573 15.98527,18.9825 -0.87521,9.42584 -12.77416,20.19018 -21.97974,17.98342 -8.84535,-2.1204 -13.42317,-16.21254 -10.98987,-24.97697 z" id="path4855" mix-blend-mode="normal" solid-color="#000000" opacity="0.8" color-interpolation-filters="linearRGB" filter-gaussianBlur-deviation="0" color="#000000" image-rendering="auto" color-rendering="auto" fill-rule="evenodd" isolation="auto" color-interpolation="sRGB" solid-opacity="1" fill="#afcfa9" filter-blend-mode="normal" shape-rendering="auto"/>
 <path d="m 315.70897,194.3555 c 0.80241,-10.37308 13.57558,-19.7899 23.97789,-19.98158 9.25752,-0.17059 19.38824,8.09532 21.97974,16.98435 2.47664,8.49507 -2.28878,19.20023 -8.99171,24.97697 -3.85896,3.32574 -10.15997,4.62812 -14.98619,2.99724 -10.50666,-3.55041 -22.83507,-13.91969 -21.97973,-24.97698 z" id="path4857" mix-blend-mode="normal" solid-color="#000000" opacity="0.8" color-interpolation-filters="linearRGB" filter-gaussianBlur-deviation="0" color="#000000" image-rendering="auto" color-rendering="auto" fill-rule="evenodd" isolation="auto" color-interpolation="sRGB" solid-opacity="1" fill="#afcfa9" filter-blend-mode="normal" shape-rendering="auto"/>
 <path d="m 131.87843,242.3113 c -12.86286,1.33931 -23.62043,19.14261 -21.97974,31.97052 0.83864,6.55697 8.37598,13.03683 14.98619,12.98803 12.50035,-0.0923 27.77322,-12.4779 27.97421,-24.97697 0.15528,-9.65652 -11.37483,-20.98176 -20.98066,-19.98158 z" id="path4859" mix-blend-mode="normal" solid-color="#000000" opacity="0.8" color-interpolation-filters="linearRGB" filter-gaussianBlur-deviation="0" color="#000000" image-rendering="auto" color-rendering="auto" fill-rule="evenodd" isolation="auto" color-interpolation="sRGB" solid-opacity="1" fill="#afcfa9" filter-blend-mode="normal" shape-rendering="auto"/>
 <path d="m 272.74857,241.31222 c -3.77867,3.77155 -2.88725,10.99149 -0.99908,15.98526 1.83224,4.84585 5.92205,9.91441 10.98987,10.98987 9.07494,1.92583 21.33824,-1.95623 25.97605,-9.99079 3.20245,-5.54795 1.99655,-14.97033 -2.99723,-18.9825 -8.583,-6.89587 -25.177,-5.77976 -32.96961,1.99816 z" id="path4861" mix-blend-mode="normal" solid-color="#000000" opacity="0.8" color-interpolation-filters="linearRGB" filter-gaussianBlur-deviation="0" color="#000000" image-rendering="auto" color-rendering="auto" fill-rule="evenodd" isolation="auto" color-interpolation="sRGB" solid-opacity="1" fill="#afcfa9" filter-blend-mode="normal" shape-rendering="auto"/>
 <path d="m 392.63805,261.2938 c -6.3581,6.3581 -3.71552,18.78698 0,26.97513 1.46283,3.22375 4.67872,5.7484 7.99263,6.99355 4.6762,1.75701 11.50622,3.58383 14.98619,0 7.89134,-8.12685 7.12777,-26.07734 -0.99908,-33.96868 -5.25628,-5.10395 -16.79907,-5.18067 -21.97974,0 z" id="path4863" mix-blend-mode="normal" solid-color="#000000" opacity="0.8" color-interpolation-filters="linearRGB" filter-gaussianBlur-deviation="0" color="#000000" image-rendering="auto" color-rendering="auto" fill-rule="evenodd" isolation="auto" color-interpolation="sRGB" solid-opacity="1" fill="#afcfa9" filter-blend-mode="normal" shape-rendering="auto"/>
 <path d="m 76.929084,315.24406 c -10.366418,2.21037 -22.861068,11.38094 -22.978818,21.97974 -0.115105,10.36071 12.560197,17.66352 21.979739,21.97974 8.196795,3.75594 21.954717,9.48748 26.975135,1.99816 4.56106,-6.80406 -8.898953,-14.05973 -10.989871,-21.97974 -1.617386,-6.12636 2.785808,-13.90089 -0.999079,-18.9825 -2.957296,-3.97048 -9.145158,-6.02782 -13.987106,-4.9954 z" id="path4865" mix-blend-mode="normal" solid-color="#000000" opacity="0.8" color-interpolation-filters="linearRGB" filter-gaussianBlur-deviation="0" color="#000000" image-rendering="auto" color-rendering="auto" fill-rule="evenodd" isolation="auto" color-interpolation="sRGB" solid-opacity="1" fill="#afcfa9" filter-blend-mode="normal" shape-rendering="auto"/>
 <path d="m 156.8554,387.17775 c -1.39178,-12.17499 12.728,-26.61461 24.97698,-26.97513 11.53618,-0.33954 24.85922,12.43732 24.97697,23.97789 0.10571,10.36081 -11.66471,21.00102 -21.97973,21.97974 -11.21851,1.06444 -26.69435,-7.78652 -27.97422,-18.9825 z" id="path4867" mix-blend-mode="normal" solid-color="#000000" opacity="0.8" color-interpolation-filters="linearRGB" filter-gaussianBlur-deviation="0" color="#000000" image-rendering="auto" color-rendering="auto" fill-rule="evenodd" isolation="auto" color-interpolation="sRGB" solid-opacity="1" fill="#afcfa9" filter-blend-mode="normal" shape-rendering="auto"/>
 <path d="m 287.73475,343.21827 c -2.00763,4.94696 -4.48968,11.94564 -0.99907,15.98527 2.62192,3.0343 8.07972,1.89319 11.98894,0.99908 14.69884,-3.3619 37.68837,-7.95447 38.96408,-22.97882 0.95963,-11.3018 -14.66982,-22.88568 -25.97605,-21.97974 -12.24217,0.98093 -19.35956,16.59423 -23.9779,27.97421 z" id="path4869" mix-blend-mode="normal" solid-color="#000000" opacity="0.8" color-interpolation-filters="linearRGB" filter-gaussianBlur-deviation="0" color="#000000" image-rendering="auto" color-rendering="auto" fill-rule="evenodd" isolation="auto" color-interpolation="sRGB" solid-opacity="1" fill="#afcfa9" filter-blend-mode="normal" shape-rendering="auto"/>
 <path d="m 46.956713,452.11789 c -6.396597,8.12388 -0.982481,24.83805 7.992632,29.97237 5.400254,3.08928 12.944877,-1.34582 17.983423,-4.9954 7.779543,-5.63497 20.416781,-15.45522 15.985264,-23.97789 -6.454508,-12.41327 -33.306004,-11.9916 -41.961319,-0.99908 z" id="path4871" mix-blend-mode="normal" solid-color="#000000" opacity="0.8" color-interpolation-filters="linearRGB" filter-gaussianBlur-deviation="0" color="#000000" image-rendering="auto" color-rendering="auto" fill-rule="evenodd" isolation="auto" color-interpolation="sRGB" solid-opacity="1" fill="#afcfa9" filter-blend-mode="normal" shape-rendering="auto"/>
 <path d="m 262.75778,447.12249 c -4.80817,-12.21145 10.0803,-29.54855 22.97882,-31.97053 7.80747,-1.46603 18.59488,5.16608 19.98158,12.98803 1.744,9.8374 -8.65061,20.41216 -17.98343,23.9779 -7.93137,3.03029 -21.86632,2.9048 -24.97697,-4.9954 z" id="path4873" mix-blend-mode="normal" solid-color="#000000" opacity="0.8" color-interpolation-filters="linearRGB" filter-gaussianBlur-deviation="0" color="#000000" image-rendering="auto" color-rendering="auto" fill-rule="evenodd" isolation="auto" color-interpolation="sRGB" solid-opacity="1" fill="#afcfa9" filter-blend-mode="normal" shape-rendering="auto"/>
 <path d="m 166.84619,489.08381 c -5.36438,5.55798 -5.8134,15.78598 -2.99723,22.97882 2.84481,7.266 10.18432,15.23443 17.98342,14.98618 8.71172,-0.2773 17.17565,-9.45662 18.9825,-17.98342 1.79494,-8.4706 -2.41472,-19.78552 -9.99079,-23.9779 -7.08976,-3.92327 -18.35074,-1.83393 -23.9779,3.99632 z" id="path4875" mix-blend-mode="normal" solid-color="#000000" opacity="0.8" color-interpolation-filters="linearRGB" filter-gaussianBlur-deviation="0" color="#000000" image-rendering="auto" color-rendering="auto" fill-rule="evenodd" isolation="auto" color-interpolation="sRGB" solid-opacity="1" fill="#afcfa9" filter-blend-mode="normal" shape-rendering="auto"/>
 <path d="m 45.957634,547.03039 c 4.728574,-8.80094 14.08752,-19.39633 23.977897,-17.98342 9.890378,1.41291 19.670206,14.13053 17.983422,23.9779 -1.419083,8.28454 -12.789643,12.10171 -20.980659,13.9871 -7.205955,1.65865 -17.282888,2.71386 -21.979739,-2.99723 -3.602322,-4.38021 -1.685079,-11.98853 0.999079,-16.98435 z" id="path4877" mix-blend-mode="normal" solid-color="#000000" opacity="0.8" color-interpolation-filters="linearRGB" filter-gaussianBlur-deviation="0" color="#000000" image-rendering="auto" color-rendering="auto" fill-rule="evenodd" isolation="auto" color-interpolation="sRGB" solid-opacity="1" fill="#afcfa9" filter-blend-mode="normal" shape-rendering="auto"/>
 <path d="m 305.71818,541.03592 c 0.67267,7.83086 6.12959,18.79667 13.9871,18.9825 6.86359,0.16232 10.87137,-9.45418 12.98803,-15.98526 1.85097,-5.71127 3.4693,-13.97366 -0.99908,-17.98343 -4.71588,-4.23186 -13.68199,-2.47263 -18.9825,0.99908 -4.3606,2.85609 -7.43968,8.79355 -6.99355,13.98711 z" id="path4879" mix-blend-mode="normal" solid-color="#000000" opacity="0.8" color-interpolation-filters="linearRGB" filter-gaussianBlur-deviation="0" color="#000000" image-rendering="auto" color-rendering="auto" fill-rule="evenodd" isolation="auto" color-interpolation="sRGB" solid-opacity="1" fill="#afcfa9" filter-blend-mode="normal" shape-rendering="auto"/>
 <path d="m 414.61779,507.06723 c 0.10262,-10.37154 12.63834,-21.78928 22.97882,-20.98066 8.50367,0.66498 16.34775,11.45965 15.98526,19.98158 -0.39043,9.17864 -9.79858,19.74609 -18.9825,19.98158 -9.18392,0.23549 -20.07247,-9.79601 -19.98158,-18.9825 z" id="path4881" mix-blend-mode="normal" solid-color="#000000" opacity="0.8" color-interpolation-filters="linearRGB" filter-gaussianBlur-deviation="0" color="#000000" image-rendering="auto" color-rendering="auto" fill-rule="evenodd" isolation="auto" color-interpolation="sRGB" solid-opacity="1" fill="#afcfa9" filter-blend-mode="normal" shape-rendering="auto"/>
 <path d="m 527.51372,539.03776 c 1.26277,-8.64986 11.51952,-14.7916 19.98158,-16.98434 4.93145,-1.27787 11.91622,-1.06817 14.98618,2.99723 5.03327,6.66531 2.81315,18.14971 -1.99816,24.97698 -4.20736,5.97027 -12.97398,11.05073 -19.98158,8.99171 -7.62172,-2.23947 -14.13557,-12.12099 -12.98802,-19.98158 z" id="path4883" mix-blend-mode="normal" solid-color="#000000" opacity="0.8" color-interpolation-filters="linearRGB" filter-gaussianBlur-deviation="0" color="#000000" image-rendering="auto" color-rendering="auto" fill-rule="evenodd" isolation="auto" color-interpolation="sRGB" solid-opacity="1" fill="#afcfa9" filter-blend-mode="normal" shape-rendering="auto"/>
 <path d="m 526.51464,342.2192 c -3.43637,-3.64091 -2.75999,-10.29961 -0.99908,-14.98619 1.98783,-5.29052 6.93397,-9.46146 11.98895,-11.98895 4.21249,-2.10624 10.2867,-4.91163 13.9871,-1.99816 5.51968,4.34587 4.53213,14.42838 1.99816,20.98066 -1.78573,4.61752 -6.27015,8.49593 -10.98987,9.99079 -5.11925,1.6214 -12.29946,1.90704 -15.98526,-1.99815 z" id="path4885" mix-blend-mode="normal" solid-color="#000000" opacity="0.8" color-interpolation-filters="linearRGB" filter-gaussianBlur-deviation="0" color="#000000" image-rendering="auto" color-rendering="auto" fill-rule="evenodd" isolation="auto" color-interpolation="sRGB" solid-opacity="1" fill="#afcfa9" filter-blend-mode="normal" shape-rendering="auto"/>
 <path d="m 415.61687,381.18328 c -4.50947,6.61578 3.01229,16.03233 6.99355,22.97881 2.92974,5.11179 6.14762,12.21823 11.98895,12.98803 7.41968,0.97781 15.37002,-5.43473 18.9825,-11.98895 4.34034,-7.87479 6.60356,-20.87236 0,-26.97513 -9.32282,-8.61581 -30.81519,-7.49215 -37.965,2.99724 z" id="path4887" mix-blend-mode="normal" solid-color="#000000" opacity="0.8" color-interpolation-filters="linearRGB" filter-gaussianBlur-deviation="0" color="#000000" image-rendering="auto" color-rendering="auto" fill-rule="evenodd" isolation="auto" color-interpolation="sRGB" solid-opacity="1" fill="#afcfa9" filter-blend-mode="normal" shape-rendering="auto"/>
</svg>
