<?xml version="1.0" encoding="UTF-8" standalone="no"?>
<svg xmlns="http://www.w3.org/2000/svg" version="1.0" width="580" height="580">
 <metadata id="metadata2975"/>
 <path white-space="normal" isolation="auto" mix-blend-mode="normal" d="m 93.737176,459.18898 c -0.76563,1.07252 -0.59719,1.99184 0.535945,2.75793 1.071885,0.65884 1.990645,0.47498 2.75627,-0.53626 l 1.822205,-2.65069 27.715874,18.26368 -22.6627,4.13691 c -0.82688,0.18387 -1.50064,0.61288 -1.99064,1.28704 -0.50532,0.68948 -0.64313,1.40962 -0.39813,2.19103 l 4.90004,19.15235 -16.078269,23.90214 c -0.290935,0.53626 -0.444065,1.10317 -0.444065,1.6854 0,0.94996 0.33688,1.76202 1.025945,2.4515 0.68907,0.68949 1.50064,1.02657 2.45002,1.02657 1.240325,0 2.25096,-0.59755 3.031905,-1.77733 l 16.690774,-25.28111 0.88813,3.47806 -2.49596,18.84592 c -0.1225,0.94996 0.0919,1.79266 0.62782,2.54343 0.53594,0.75077 1.27095,1.21043 2.22033,1.37898 0.94939,0.18385 1.82221,-0.0154 2.63378,-0.58224 0.79625,-0.56691 1.25563,-1.31769 1.37813,-2.26764 l 2.58784,-19.30557 c 0.0613,-0.65884 0,-1.333 -0.16844,-2.05313 l -5.66568,-22.67639 14.85326,-2.666 c 0.76563,-0.12258 1.39345,-0.52094 1.86814,-1.19511 0.4747,-0.68949 0.65845,-1.40961 0.53594,-2.19103 -0.18375,-0.76609 -0.62781,-1.42494 -1.33219,-1.9612 L 96.860956,454.6537 Z m -34.69843,72.10477 5.007232,0 0,-53.62659 24.699278,-9.98986 -24.65334,-9.34635 0,-1.91524 -5.030201,0.0153 c -0.05355,24.95378 -0.02297,49.90863 -0.02297,74.86272 z m 39.705665,-61.80847 c -1.133135,1.10317 -1.68439,2.4515 -1.68439,4.0603 0,1.60879 0.566565,2.95712 1.68439,4.04497 1.133135,1.10318 2.495959,1.65477 4.088469,1.65477 1.60783,0 2.98597,-0.55159 4.13442,-1.65477 1.16376,-1.10317 1.73032,-2.4515 1.73032,-4.04497 0,-1.6088 -0.58188,-2.95713 -1.73032,-4.0603 -1.16376,-1.10317 -2.5419,-1.65477 -4.13442,-1.65477 -1.60782,0 -2.970649,0.5516 -4.088469,1.65477 z" id="rect2996" fill="#888888" color-rendering="auto" solid-opacity="1" color-interpolation-filters="linearRGB" shape-rendering="auto" image-rendering="auto" fill-opacity="0.53" color-interpolation="sRGB" color="#000000" solid-color="#000000"/>
</svg>
