<?xml version="1.0" encoding="UTF-8" standalone="no"?>
<svg xmlns="http://www.w3.org/2000/svg" version="1.0" width="580" height="580">
 <metadata id="metadata2975"/>
 <path white-space="normal" isolation="auto" mix-blend-mode="normal" d="m 128.4443,385.52137 c -1.53126,2.14506 -1.19438,3.98369 1.07189,5.51588 2.14377,1.31768 3.98129,0.94995 5.51254,-1.07253 l 3.64441,-5.30137 55.43175,36.52736 -45.32541,8.27382 c -1.65376,0.36772 -3.00127,1.22575 -3.98128,2.57407 -1.01064,1.37897 -1.28626,2.81923 -0.79626,4.38206 l 9.80009,38.3047 -32.15654,47.80427 c -0.58187,1.07254 -0.88813,2.20636 -0.88813,3.37082 0,1.89991 0.67376,3.52403 2.05189,4.903 1.37814,1.37897 3.00128,2.05313 4.90004,2.05313 2.48065,0 4.50192,-1.1951 6.06381,-3.55467 l 33.38154,-50.56221 1.77627,6.95613 -4.99192,37.69183 c -0.245,1.89991 0.18375,3.58532 1.25564,5.08686 1.07188,1.50155 2.5419,2.42086 4.44066,2.75795 1.89877,0.36772 3.64441,-0.0307 5.26755,-1.16447 1.59251,-1.13382 2.51127,-2.63537 2.75627,-4.53527 l 5.17568,-38.61115 c 0.1225,-1.31768 0,-2.66601 -0.33688,-4.10626 l -11.33136,-45.35277 29.70652,-5.33202 c 1.53126,-0.24515 2.7869,-1.04188 3.73628,-2.3902 0.94939,-1.37898 1.31689,-2.81923 1.07188,-4.38207 -0.3675,-1.53218 -1.25563,-2.84987 -2.66439,-3.9224 l -68.32498,-44.98504 z m -69.39686,144.20955 10.014463,0 0,-107.25317 49.398557,-19.97973 -49.306681,-18.6927 0,-3.83047 -10.060401,0.0306 c -0.107099,49.90756 -0.04594,99.81725 -0.04594,149.72543 z m 79.41133,-123.61694 c -2.26627,2.20635 -3.36878,4.903 -3.36878,8.1206 0,3.21759 1.13313,5.91424 3.36878,8.08995 2.26627,2.20635 4.99191,3.30953 8.17694,3.30953 3.21565,0 5.97193,-1.10318 8.26883,-3.30953 2.32752,-2.20635 3.46065,-4.903 3.46065,-8.08995 0,-3.2176 -1.16376,-5.91425 -3.46065,-8.1206 -2.32752,-2.20635 -5.0838,-3.30953 -8.26883,-3.30953 -3.21565,0 -5.9413,1.10318 -8.17694,3.30953 z" id="rect2996" fill="#888888" color-rendering="auto" solid-opacity="1" color-interpolation-filters="linearRGB" shape-rendering="auto" image-rendering="auto" fill-opacity="0.53" color-interpolation="sRGB" color="#000000" solid-color="#000000"/>
</svg>
