<?xml version="1.0" encoding="UTF-8" standalone="no"?>
<svg xmlns="http://www.w3.org/2000/svg" width="580" height="580" version="1.0">
 <metadata id="metadata7"/>
 <rect id="rect4858" width="580" height="580" mix-blend-mode="normal" solid-color="#000000" opacity="0.8" color-interpolation-filters="linearRGB" color="#000000" image-rendering="auto" color-rendering="auto" fill-rule="evenodd" isolation="auto" color-interpolation="sRGB" solid-opacity="1" fill="#ebf7e4" shape-rendering="auto"/>
 <path d="m 497.54134,43.494572 c 10.24407,-0.838869 27.13907,-9.073234 26.97514,-19.98158 C 524.35255,12.604646 513.12152,10.720915 504.5349,6.9935531 495.94828,3.2661915 482.77581,-1.6401245 476.56069,4.995395 c -6.21512,6.63552 -0.50071,16.771787 3.99631,25.51115 4.49702,8.739363 6.74028,13.826896 16.98434,12.988027 z" id="path4916" mix-blend-mode="normal" solid-color="#000000" color-interpolation-filters="linearRGB" filter-gaussianBlur-deviation="0" color="#000000" image-rendering="auto" color-rendering="auto" fill-rule="evenodd" isolation="auto" color-interpolation="sRGB" solid-opacity="1" fill="#dae9a1" filter-blend-mode="normal" shape-rendering="auto"/>
 <path d="M 64.940136,78.462338 C 45.951973,86.44608 42.786166,93.351056 39.96316,102.44023 c -2.823006,9.08918 -5.064323,4.62939 2.997237,17.98343 8.06156,13.35404 31.146522,27.51944 48.954872,30.97145 17.808351,3.45201 32.217061,6.05839 43.959481,-1.99816 11.74242,-8.05655 15.71623,-19.73325 18.9825,-33.96869 3.26626,-14.23544 7.00813,-19.438251 -10.98987,-33.968685 C 125.86937,66.929141 83.928299,70.478596 64.940136,78.462338 Z" id="path4918" mix-blend-mode="normal" solid-color="#000000" color-interpolation-filters="linearRGB" filter-gaussianBlur-deviation="0" color="#000000" image-rendering="auto" color-rendering="auto" fill-rule="evenodd" isolation="auto" color-interpolation="sRGB" solid-opacity="1" fill="#dae9a1" filter-blend-mode="normal" shape-rendering="auto"/>
 <path d="m 245.77344,73.466943 c -5.50908,6.028601 -3.04707,23.671812 0.99908,31.970527 4.04615,8.29872 6.44862,9.82255 15.98526,8.99172 9.53664,-0.83084 24.67954,-8.91129 23.9779,-19.981588 -0.70164,-11.070298 -16.19808,-19.213753 -23.9779,-21.979738 -7.77982,-2.765985 -11.47526,-5.029522 -16.98434,0.999079 z" id="path4920" mix-blend-mode="normal" solid-color="#000000" color-interpolation-filters="linearRGB" filter-gaussianBlur-deviation="0" color="#000000" image-rendering="auto" color-rendering="auto" fill-rule="evenodd" isolation="auto" color-interpolation="sRGB" solid-opacity="1" fill="#dae9a1" filter-blend-mode="normal" shape-rendering="auto"/>
 <path d="m 179.83422,193.35642 c -7.53785,3.08784 -20.38138,12.57409 -23.97789,20.98066 -3.59651,8.40657 -5.26645,13.4198 0.99907,22.97882 6.26552,9.55902 29.57639,22.23223 40.96224,19.98158 11.38585,-2.25065 13.65871,-5.87237 15.98527,-17.98342 2.32656,-12.11105 -7.6664,-40.81868 -16.98435,-46.95672 -9.31795,-6.13804 -9.44649,-2.08876 -16.98434,0.99908 z" id="path4922" mix-blend-mode="normal" solid-color="#000000" color-interpolation-filters="linearRGB" filter-gaussianBlur-deviation="0" color="#000000" image-rendering="auto" color-rendering="auto" fill-rule="evenodd" isolation="auto" color-interpolation="sRGB" solid-opacity="1" fill="#dae9a1" filter-blend-mode="normal" shape-rendering="auto"/>
 <path d="m 39.96316,281.27538 c -3.914451,4.14708 -4.940021,12.80029 -1.998158,20.98066 2.941863,8.18037 11.970928,22.10177 21.979739,21.97973 10.008811,-0.12204 20.432248,-10.1459 19.98158,-20.98066 C 79.475653,292.42035 60.820964,281.59994 52.951187,279.27722 45.08141,276.9545 43.877611,277.1283 39.96316,281.27538 Z" id="path4924" mix-blend-mode="normal" solid-color="#000000" color-interpolation-filters="linearRGB" filter-gaussianBlur-deviation="0" color="#000000" image-rendering="auto" color-rendering="auto" fill-rule="evenodd" isolation="auto" color-interpolation="sRGB" solid-opacity="1" fill="#dae9a1" filter-blend-mode="normal" shape-rendering="auto"/>
 <path d="m 320.70436,240.31314 c -4.18196,5.10677 -5.82932,17.72298 -1.99816,24.97697 3.83116,7.25399 12.88806,12.95526 20.98066,11.98895 8.0926,-0.96631 17.74279,-7.32951 17.98343,-16.98434 0.24064,-9.65483 -15.29535,-21.89946 -22.97882,-23.9779 -7.68347,-2.07844 -9.80515,-1.11045 -13.98711,3.99632 z" id="path4926" mix-blend-mode="normal" solid-color="#000000" color-interpolation-filters="linearRGB" filter-gaussianBlur-deviation="0" color="#000000" image-rendering="auto" color-rendering="auto" fill-rule="evenodd" isolation="auto" color-interpolation="sRGB" solid-opacity="1" fill="#dae9a1" filter-blend-mode="normal" shape-rendering="auto"/>
 <path d="m 376.65279,162.38497 c 1.18878,16.72747 32.53377,55.186 47.95579,53.95027 15.42202,-1.23573 6.09749,-13.76845 12.98803,-17.98342 6.89054,-4.21497 16.05552,0.47794 25.97605,-3.99632 9.92053,-4.47426 17.81579,-8.14182 22.97882,-21.97973 5.16302,-13.83791 4.74894,-31.00265 -6.99355,-46.95671 -11.7425,-15.95407 -30.45297,-31.424105 -47.9558,-31.970537 -17.50283,-0.546432 -29.35096,5.413169 -35.96684,15.985257 -6.61589,10.5721 0.35812,16.97675 -2.99724,27.97421 -3.35536,10.99747 -17.17405,8.24952 -15.98526,24.97698 z" id="path4928" mix-blend-mode="normal" solid-color="#000000" color-interpolation-filters="linearRGB" filter-gaussianBlur-deviation="0" color="#000000" image-rendering="auto" color-rendering="auto" fill-rule="evenodd" isolation="auto" color-interpolation="sRGB" solid-opacity="1" fill="#dae9a1" filter-blend-mode="normal" shape-rendering="auto"/>
 <path d="m 325.69976,315.24406 c -6.49626,3.69414 -17.52164,10.01671 -21.97974,18.9825 -4.4581,8.96579 -7.32237,22.47443 -1.99816,30.97145 5.32421,8.49702 15.7065,10.43783 26.97513,10.98987 11.26863,0.55204 23.00077,-0.24367 29.97238,-10.98987 6.97161,-10.7462 7.13978,-28.52113 1.99815,-37.965 -5.14163,-9.44387 -13.10586,-15.65222 -19.98158,-16.98434 -6.87572,-1.33212 -8.48992,1.30125 -14.98618,4.99539 z" id="path4930" mix-blend-mode="normal" solid-color="#000000" color-interpolation-filters="linearRGB" filter-gaussianBlur-deviation="0" color="#000000" image-rendering="auto" color-rendering="auto" fill-rule="evenodd" isolation="auto" color-interpolation="sRGB" solid-opacity="1" fill="#dae9a1" filter-blend-mode="normal" shape-rendering="auto"/>
 <path d="m 461.5745,311.24775 c -3.51402,-21.34968 6.48849,-34.68203 19.98159,-39.96316 13.49309,-5.28113 23.07188,-10.36468 30.97144,-4.9954 7.89956,5.36928 14.53974,15.44059 18.9825,24.97698 4.44276,9.53639 10.2369,18.6739 6.99356,30.97145 -3.24334,12.29755 -11.12244,31.64698 -29.97237,32.9696 -18.84993,1.32262 -43.4427,-22.60979 -46.95672,-43.95947 z" id="path4932" mix-blend-mode="normal" solid-color="#000000" color-interpolation-filters="linearRGB" filter-gaussianBlur-deviation="0" color="#000000" image-rendering="auto" color-rendering="auto" fill-rule="evenodd" isolation="auto" color-interpolation="sRGB" solid-opacity="1" fill="#dae9a1" filter-blend-mode="normal" shape-rendering="auto"/>
 <path d="m 163.84896,376.18788 c 10.48355,5.39502 15.82034,6.8064 14.98618,20.98066 -0.83416,14.17426 -19.71145,43.01703 -39.96316,43.95948 -20.25171,0.94245 -40.090152,-25.80958 -39.963158,-41.96132 0.126994,-16.15174 11.565438,-15.27936 23.977898,-19.98158 12.41246,-4.70223 30.47869,-8.39226 40.96224,-2.99724 z" id="path4934" mix-blend-mode="normal" solid-color="#000000" color-interpolation-filters="linearRGB" filter-gaussianBlur-deviation="0" color="#000000" image-rendering="auto" color-rendering="auto" fill-rule="evenodd" isolation="auto" color-interpolation="sRGB" solid-opacity="1" fill="#dae9a1" filter-blend-mode="normal" shape-rendering="auto"/>
 <path d="m 54.949345,444.12525 c -6.057997,5.02769 -4.935147,22.25504 0,30.97145 4.935147,8.71641 16.262609,17.60695 24.976976,14.98619 8.714367,-2.62076 12.501771,-14.1524 10.989869,-22.97882 -1.511902,-8.82642 -13.418281,-16.51971 -19.98158,-19.98158 -6.563299,-3.46187 -9.927268,-8.02493 -15.985265,-2.99724 z" id="path4936" mix-blend-mode="normal" solid-color="#000000" color-interpolation-filters="linearRGB" filter-gaussianBlur-deviation="0" color="#000000" image-rendering="auto" color-rendering="auto" fill-rule="evenodd" isolation="auto" color-interpolation="sRGB" solid-opacity="1" fill="#dae9a1" filter-blend-mode="normal" shape-rendering="auto"/>
 <path d="m 211.80475,416.15104 c -0.006,10.01435 17.7685,29.63803 26.97513,28.97329 9.20663,-0.66474 7.06299,-5.94011 8.99171,-12.98802 1.92872,-7.04791 3.46343,-22.07158 -1.99815,-27.97422 -5.46158,-5.90264 -13.57571,-5.23076 -19.98158,-2.99723 -6.40587,2.23353 -13.98095,4.97183 -13.98711,14.98618 z" id="path4938" mix-blend-mode="normal" solid-color="#000000" color-interpolation-filters="linearRGB" filter-gaussianBlur-deviation="0" color="#000000" image-rendering="auto" color-rendering="auto" fill-rule="evenodd" isolation="auto" color-interpolation="sRGB" solid-opacity="1" fill="#dae9a1" filter-blend-mode="normal" shape-rendering="auto"/>
 <path d="m 279.74212,480.0921 c -10.6009,10.57968 -25.88421,29.73501 -23.97789,43.95948 1.90632,14.22447 13.25015,18.40466 24.97697,25.97605 11.72682,7.57139 30.41989,18.74311 44.95856,15.98526 14.53867,-2.75785 24.68367,-13.53343 30.97145,-26.97513 6.28778,-13.4417 3.5841,-32.04845 -3.99632,-46.95671 -7.58041,-14.90826 -22.62724,-30.11302 -37.965,-30.97145 -15.33776,-0.85843 -24.36687,8.40282 -34.96777,18.9825 z" id="path4940" mix-blend-mode="normal" solid-color="#000000" color-interpolation-filters="linearRGB" filter-gaussianBlur-deviation="0" color="#000000" image-rendering="auto" color-rendering="auto" fill-rule="evenodd" isolation="auto" color-interpolation="sRGB" solid-opacity="1" fill="#dae9a1" filter-blend-mode="normal" shape-rendering="auto"/>
 <path d="m 497.54135,445.12433 c -11.95615,6.30466 -23.81128,20.57604 -20.98066,32.96961 2.83061,12.39358 4.62358,22.07982 15.98526,24.97698 11.36168,2.89716 27.12831,9.05037 36.96593,-3.99632 9.83761,-13.04669 8.36098,-42.79862 -1.99816,-51.95211 -10.35914,-9.15349 -18.01622,-8.30282 -29.97237,-1.99816 z" id="path4942" mix-blend-mode="normal" solid-color="#000000" color-interpolation-filters="linearRGB" filter-gaussianBlur-deviation="0" color="#000000" image-rendering="auto" color-rendering="auto" fill-rule="evenodd" isolation="auto" color-interpolation="sRGB" solid-opacity="1" fill="#dae9a1" filter-blend-mode="normal" shape-rendering="auto"/>
</svg>
