<?xml version="1.0" encoding="UTF-8" standalone="no"?>
<svg xmlns="http://www.w3.org/2000/svg" width="580" height="580" version="1.0">
 <metadata id="metadata7"/>
 <rect id="rect4858" width="580" height="580" mix-blend-mode="normal" solid-color="#000000" opacity="0.5" color-interpolation-filters="linearRGB" color="#000000" image-rendering="auto" color-rendering="auto" fill-rule="evenodd" isolation="auto" color-interpolation="sRGB" solid-opacity="1" fill="#d0d9bf" shape-rendering="auto"/>
 <path d="m 0.5,70.766763 c 0,0 128.01891,0.202477 175.20097,1.412911 34.38015,-1.210434 38.87521,-7.672668 40.97443,-21.193666 2.09922,-13.520998 -8.00752,-21.962585 -25.4324,-25.4324 -40.56041,-0.330573 -190.743,0 -190.743,0 z" id="path4231" mix-blend-mode="normal" solid-color="#000000" color-interpolation-filters="linearRGB" color="#000000" image-rendering="auto" color-rendering="auto" fill-rule="evenodd" isolation="auto" color-interpolation="sRGB" solid-opacity="1" fill="#b3ddff" shape-rendering="auto"/>
 <path d="m 392.37545,49.159265 c -0.66605,-9.990791 11.66891,-20.950912 25.77523,-23.106118 60.0513,-0.297511 162.34886,-0.08571 162.34886,-0.08571 l 0,46.469356 c 0,0 -94.32202,-1.467557 -156.95434,-0.49954 -7.56542,-2.252067 -9.57266,-5.630806 -15.87014,-10.389917 -3.9942,-3.018483 -14.46704,-3.895903 -15.29961,-12.388075 z" id="path4233" mix-blend-mode="normal" solid-color="#000000" color-interpolation-filters="linearRGB" color="#000000" image-rendering="auto" color-rendering="auto" fill-rule="evenodd" isolation="auto" color-interpolation="sRGB" solid-opacity="1" fill="#b3ddff" shape-rendering="auto"/>
 <path d="m 241.6078,187.21072 c -8.43179,-0.27801 -15.74406,8.1922 -19.78076,15.54202 -2.27855,4.14866 -3.00415,9.67141 -1.41291,14.12911 4.25444,11.91842 15.15361,22.00245 26.84531,26.84531 4.3512,1.80233 9.67433,1.52847 14.12911,0 5.07923,-1.74272 5.12737,-9.1818 12.7162,-9.89038 48.267,0.76036 190.38579,2.99533 204.87211,2.82583 14.95084,-1.41837 13.93091,-13.2864 22.60657,-16.95494 8.34398,-3.52829 24.15444,4.41171 26.84532,-4.23873 3.8591,-12.40593 -16.20538,-26.49054 -28.25823,-26.84531 -17.51428,-0.20776 -240.47298,-0.88863 -258.56272,-1.41291 z" id="path4235" mix-blend-mode="normal" solid-color="#000000" color-interpolation-filters="linearRGB" color="#000000" image-rendering="auto" color-rendering="auto" fill-rule="evenodd" isolation="auto" color-interpolation="sRGB" solid-opacity="1" fill="#b3ddff" shape-rendering="auto"/>
 <path d="m 70.645554,331.32765 c 19.206667,0.62093 192.451006,0.0665 207.697926,4.23873 7.96536,3.39498 19.28581,9.75796 18.36785,18.36785 -2.01565,18.14511 -28.12505,28.6527 -43.80025,28.25822 -54.4474,-1.23064 -127.00729,-3.42451 -160.72903,-2.82582 0,0 -5.396615,6.4369 -7.407385,8.47746 -3.695872,3.75062 -10.588723,4.61229 -15.542022,2.82582 -14.464989,-5.21697 -29.247097,-19.9516 -29.671133,-35.32277 -0.129874,-4.70791 4.936195,-8.19834 8.477467,-11.30329 6.500911,-5.69993 10.224668,-11.11031 22.606577,-12.7162 z" id="path4237" mix-blend-mode="normal" solid-color="#000000" color-interpolation-filters="linearRGB" color="#000000" image-rendering="auto" color-rendering="auto" fill-rule="evenodd" isolation="auto" color-interpolation="sRGB" solid-opacity="1" fill="#b3ddff" shape-rendering="auto"/>
 <path d="m 87.600487,461.31547 c -6.205032,1.59154 -5.677756,12.47791 -11.303289,15.54202 -7.456234,4.06126 -17.618518,-1.90861 -25.432399,1.41291 -8.280787,3.52 -14.909433,10.80267 -19.780755,18.36785 -2.41892,3.75659 -5.666738,8.48253 -4.238733,12.7162 4.008034,11.88281 19.697352,15.93926 31.084043,21.19366 4.875803,2.24994 10.99658,1.3796 15.542022,4.23874 7.913206,4.9775 9.863976,17.31055 18.367844,21.19366 11.56731,5.28197 27.55494,7.03393 38.1486,0 8.08866,-5.37067 3.56398,-20.98241 11.30329,-26.84531 6.05333,-4.58569 16.8918,2.17545 22.60658,-2.82582 6.96316,-6.09379 10.57246,-18.28293 7.06455,-26.84531 -6.64477,-16.21907 -28.31096,-22.20558 -45.21315,-26.84531 -4.5417,-1.24672 -9.53284,1.02743 -14.12911,0 -8.63561,-1.93038 -15.448214,-13.50175 -24.019493,-11.30329 z" id="path4239" mix-blend-mode="normal" solid-color="#000000" color-interpolation-filters="linearRGB" color="#000000" image-rendering="auto" color-rendering="auto" fill-rule="evenodd" isolation="auto" color-interpolation="sRGB" solid-opacity="1" fill="#b3ddff" shape-rendering="auto"/>
 <path d="m 265.62728,490.9866 c 5.40248,-7.54166 13.35393,-9.90686 25.4324,-11.30329 35.6098,-0.1442 180.1843,0.27514 215.76157,0.41383 8.79343,-0.85627 26.36242,10.95579 27.25914,29.25731 -3.96512,9.57264 -25.12729,-0.88176 -35.08036,1.99816 -10.1667,2.94174 -12.69485,11.97198 -22.84899,14.95677 -9.86069,0.18777 -143.57278,1.06774 -166.72351,1.41291 -4.86944,1.4969 -7.63411,8.83032 -12.7162,8.47747 -5.65761,-0.39281 -7.89196,-8.32174 -12.7162,-11.30329 -4.31493,-2.66678 -10.4753,-2.13312 -14.12911,-5.65165 -3.3412,-3.21749 -4.89533,-8.13975 -5.65165,-12.7162 -0.8482,-5.13242 -1.61649,-11.31308 1.41291,-15.54202 z" id="path4241" mix-blend-mode="normal" solid-color="#000000" color-interpolation-filters="linearRGB" color="#000000" image-rendering="auto" color-rendering="auto" fill-rule="evenodd" isolation="auto" color-interpolation="sRGB" solid-opacity="1" fill="#b3ddff" shape-rendering="auto"/>
</svg>
