<?xml version="1.0" encoding="UTF-8" standalone="no"?>
<svg xmlns="http://www.w3.org/2000/svg" width="580" height="580" version="1.0">
 <metadata id="metadata7"/>
 <path d="M 580 248.20898 L 572.92969 255.28125 L 571.73047 256.48047 L 580 264.74805 L 580 248.20898 z M 506.67578 321.53516 L 474.15039 354.06055 L 488.29102 368.20117 L 520.81641 335.67578 L 506.67578 321.53516 z M 409.09766 419.11328 L 376.57031 451.64062 L 390.71094 465.78125 L 423.23828 433.25391 L 409.09766 419.11328 z M 311.51562 516.69531 L 278.98828 549.22266 L 293.12891 563.36328 L 325.65625 530.83594 L 311.51562 516.69531 z " id="path840" shape-rendering="auto" mix-blend-mode="normal" isolation="auto" color-interpolation-filters="linearRGB" white-space="normal" fill="#9dff9b" solid-opacity="1" image-rendering="auto" fill-opacity="0.4" solid-color="#000000" color="#000000" color-rendering="auto" vector-effect="none" shape-padding="0" color-interpolation="sRGB"/>
 <path d="M 219.41797 28.792969 L 186.89258 61.318359 L 201.0332 75.458984 L 233.55859 42.933594 L 219.41797 28.792969 z M 121.83984 126.37109 L 89.3125 158.89844 L 103.45312 173.03906 L 135.98047 140.51172 L 121.83984 126.37109 z M 24.257812 223.95312 L 0 248.21094 L 0 264.74805 L 5.8730469 270.62109 L 7.0703125 269.42188 L 38.398438 238.09375 L 24.257812 223.95312 z " id="path836" shape-rendering="auto" mix-blend-mode="normal" isolation="auto" color-interpolation-filters="linearRGB" white-space="normal" fill="#9dff9b" solid-opacity="1" image-rendering="auto" fill-opacity="0.4" solid-color="#000000" color="#000000" color-rendering="auto" vector-effect="none" shape-padding="0" color-interpolation="sRGB"/>
</svg>
