<?xml version="1.0" encoding="UTF-8" standalone="no"?>
<svg xmlns="http://www.w3.org/2000/svg" width="580" height="580" version="1.0">
 <metadata id="metadata7"/>
 <path d="M 580 231.11719 C 544.45062 266.66619 508.9008 302.21443 473.35156 337.76367 C 461.61162 349.50361 449.87077 361.2425 438.13086 372.98242 L 470.66016 405.50977 L 505.87891 370.29102 L 505.88672 370.28125 L 580 296.16992 L 580 231.11719 z M 373.07812 438.03711 C 366.12987 444.98535 359.18069 451.93261 352.23242 458.88086 C 311.85958 499.25368 271.48813 539.62724 231.11523 580 L 296.16992 580 L 384.76953 491.40039 L 405.60547 470.56445 C 394.76299 459.722 383.92064 448.87957 373.07812 438.03711 z " id="path4555-2" shape-rendering="auto" mix-blend-mode="normal" isolation="auto" color-interpolation-filters="linearRGB" white-space="normal" fill="#9dff9b" solid-opacity="1" image-rendering="auto" fill-opacity="0.4" solid-color="#000000" color="#000000" color-rendering="auto" vector-effect="none" shape-padding="0" color-interpolation="sRGB"/>
 <path d="M 231.34766 0 C 203.64763 27.698944 175.94795 55.39791 148.24805 83.097656 L 180.77539 115.625 L 296.40039 0 L 231.34766 0 z M 83.193359 148.15234 C 62.66891 168.67608 42.145232 189.20047 21.621094 209.72461 C 14.414099 216.9316 7.2070245 224.13867 0 231.3457 L 0 296.40039 L 54.148438 242.25195 L 54.15625 242.24414 L 115.7207 180.67969 C 104.87827 169.83726 94.035692 158.99485 83.193359 148.15234 z " id="path4555-2-7" shape-rendering="auto" mix-blend-mode="normal" isolation="auto" color-interpolation-filters="linearRGB" white-space="normal" fill="#9dff9b" solid-opacity="1" image-rendering="auto" fill-opacity="0.4" solid-color="#000000" color="#000000" color-rendering="auto" vector-effect="none" shape-padding="0" color-interpolation="sRGB"/>
</svg>
