<?xml version="1.0" encoding="UTF-8" standalone="no"?>
<svg xmlns="http://www.w3.org/2000/svg" width="580" height="580" version="1.0">
 <metadata id="metadata7"/>
 <rect id="rect4858" width="580" height="580" mix-blend-mode="normal" solid-color="#000000" opacity="0.8" color-interpolation-filters="linearRGB" color="#000000" image-rendering="auto" color-rendering="auto" fill-rule="evenodd" isolation="auto" color-interpolation="sRGB" solid-opacity="1" fill="#e6ffdb" shape-rendering="auto"/>
 <path d="M 161.77833,115.8587 A 45.213154,45.213154 0 0 1 116.56518,161.07186 45.213154,45.213154 0 0 1 71.352024,115.8587 45.213154,45.213154 0 0 1 116.56518,70.64555 45.213154,45.213154 0 0 1 161.77833,115.8587 Z" id="path4163" mix-blend-mode="normal" solid-color="#000000" opacity="0.25" color-interpolation-filters="linearRGB" color="#000000" image-rendering="auto" color-rendering="auto" fill-rule="evenodd" isolation="auto" color-interpolation="sRGB" solid-opacity="1" fill="#ff6b23" shape-rendering="auto"/>
 <path d="m 143.41048,334.15347 a 45.213154,45.213154 0 0 1 -45.213154,45.21316 45.213154,45.213154 0 0 1 -45.21316,-45.21316 45.213154,45.213154 0 0 1 45.21316,-45.21315 45.213154,45.213154 0 0 1 45.213154,45.21315 z" id="path4163-7" mix-blend-mode="normal" solid-color="#000000" opacity="0.25" color-interpolation-filters="linearRGB" color="#000000" image-rendering="auto" color-rendering="auto" fill-rule="evenodd" isolation="auto" color-interpolation="sRGB" solid-opacity="1" fill="#ff6b23" shape-rendering="auto"/>
 <path d="m 433.05724,170.25578 a 45.213154,45.213154 0 0 1 -45.21315,45.21316 45.213154,45.213154 0 0 1 -45.21315,-45.21316 45.213154,45.213154 0 0 1 45.21315,-45.21315 45.213154,45.213154 0 0 1 45.21315,45.21315 z" id="path4163-2" mix-blend-mode="normal" solid-color="#000000" opacity="0.25" color-interpolation-filters="linearRGB" color="#000000" image-rendering="auto" color-rendering="auto" fill-rule="evenodd" isolation="auto" color-interpolation="sRGB" solid-opacity="1" fill="#ff6b23" shape-rendering="auto"/>
 <path d="m 291.05969,463.43483 a 45.213154,45.213154 0 0 1 -45.21315,45.21316 45.213154,45.213154 0 0 1 -45.21316,-45.21316 45.213154,45.213154 0 0 1 45.21316,-45.21315 45.213154,45.213154 0 0 1 45.21315,45.21315 z" id="path4163-22" mix-blend-mode="normal" solid-color="#000000" opacity="0.25" color-interpolation-filters="linearRGB" color="#000000" image-rendering="auto" color-rendering="auto" fill-rule="evenodd" isolation="auto" color-interpolation="sRGB" solid-opacity="1" fill="#ff6b23" shape-rendering="auto"/>
 <path d="m 524.89647,351.1084 a 45.213154,45.213154 0 0 1 -45.21315,45.21316 45.213154,45.213154 0 0 1 -45.21316,-45.21316 45.213154,45.213154 0 0 1 45.21316,-45.21315 45.213154,45.213154 0 0 1 45.21315,45.21315 z" id="path4163-3" mix-blend-mode="normal" solid-color="#000000" opacity="0.25" color-interpolation-filters="linearRGB" color="#000000" image-rendering="auto" color-rendering="auto" fill-rule="evenodd" isolation="auto" color-interpolation="sRGB" solid-opacity="1" fill="#ff6b23" shape-rendering="auto"/>
</svg>
