<?xml version="1.0" encoding="UTF-8" standalone="no"?>
<svg xmlns="http://www.w3.org/2000/svg" width="580" height="580" version="1.0">
 <metadata id="metadata7"/>
 <path id="path4162" d="M 159.38867,0 256.05469,96.666016 0,352.72852 0,420.61133 159.38867,580 227.27148,580 33.941406,386.66992 289.99609,130.60742 546.05859,386.66992 C 481.61262,451.11392 417.16374,515.55501 352.71875,580 l 67.88281,0 C 473.73483,526.87024 526.86738,473.73978 580,420.60938 L 580,352.72852 323.9375,96.666016 C 356.15884,64.443993 388.37988,32.221682 420.60156,0 L 352.71875,0 289.99609,62.724609 227.27148,0 Z" shape-rendering="auto" mix-blend-mode="normal" filter-blend-mode="normal" color-interpolation-filters="linearRGB" isolation="auto" white-space="normal" fill="none" solid-opacity="1" image-rendering="auto" solid-color="#000000" stroke="#ffffff" color="#000000" stroke-linejoin="round" stroke-width="64" color-rendering="auto" filter-gaussianBlur-deviation="0" color-interpolation="sRGB"/>
 <path d="M 159.38867,0 256.05469,96.666016 0,352.72852 0,420.61133 159.38867,580 227.27148,580 33.941406,386.66992 289.99609,130.60742 546.05859,386.66992 C 481.61262,451.11392 417.16374,515.55501 352.71875,580 l 67.88281,0 C 473.73483,526.87024 526.86738,473.73978 580,420.60938 L 580,352.72852 323.9375,96.666016 C 356.15884,64.443993 388.37988,32.221682 420.60156,0 L 352.71875,0 289.99609,62.724609 227.27148,0 Z" id="path4177" shape-rendering="auto" mix-blend-mode="normal" color-interpolation-filters="linearRGB" isolation="auto" white-space="normal" fill="#cccccc" solid-opacity="1" image-rendering="auto" solid-color="#000000" color="#000000" fill-rule="evenodd" color-rendering="auto" color-interpolation="sRGB"/>
</svg>
