<?xml version="1.0" encoding="UTF-8" standalone="no"?>
<svg xmlns="http://www.w3.org/2000/svg" width="580" height="580" version="1.0">
 <metadata id="metadata7"/>
 <rect id="rect4858" width="580" height="580" mix-blend-mode="normal" solid-color="#000000" opacity="0.4" color-interpolation-filters="linearRGB" color="#000000" image-rendering="auto" color-rendering="auto" fill-rule="evenodd" isolation="auto" color-interpolation="sRGB" solid-opacity="1" fill="#f1f1f1" shape-rendering="auto"/>
 <path d="m 187.82685,580 -84.92171,-23.44372 -29.972372,0 0,0 L 103.90422,580" id="path5129" mix-blend-mode="normal" solid-color="#000000" opacity="0.8" color-interpolation-filters="linearRGB" color="#000000" image-rendering="auto" color-rendering="auto" fill-rule="evenodd" isolation="auto" color-interpolation="sRGB" solid-opacity="1" fill="#c4c4c4" shape-rendering="auto"/>
 <path d="M 103.90422 0 L 103.90422 0 L 158.85356 10.524965 L 187.82685 21.514834 L 203.81212 50.488126 L 221.79554 53.485363 L 240.77804 33.503782 L 233.78449 22.513913 L 207.80843 24.512071 L 187.82685 0 L 187.82685 0 " id="path5043" mix-blend-mode="normal" solid-color="#000000" opacity="0.8" color-interpolation-filters="linearRGB" filter-gaussianBlur-deviation="0" color="#000000" image-rendering="auto" color-rendering="auto" fill-rule="evenodd" isolation="auto" color-interpolation="sRGB" solid-opacity="1" fill="#c4c4c4" filter-blend-mode="normal" shape-rendering="auto"/>
 <path d="m 317.70712,20.515755 11.98895,10.989869 13.98711,-8.991711 6.99355,14.986185 L 370.65831,11.524044 357.67029,0 Z" id="path5045" mix-blend-mode="normal" solid-color="#000000" opacity="0.8" color-interpolation-filters="linearRGB" filter-gaussianBlur-deviation="0" color="#000000" image-rendering="auto" color-rendering="auto" fill-rule="evenodd" isolation="auto" color-interpolation="sRGB" solid-opacity="1" fill="#c4c4c4" filter-blend-mode="normal" shape-rendering="auto"/>
 <path d="M 463.57266,47.490888 513.52661,0 535.50635,0 495.54319,35.50194 Z" id="path5047" mix-blend-mode="normal" solid-color="#000000" opacity="0.8" color-interpolation-filters="linearRGB" filter-gaussianBlur-deviation="0" color="#000000" image-rendering="auto" color-rendering="auto" fill-rule="evenodd" isolation="auto" color-interpolation="sRGB" solid-opacity="1" fill="#c4c4c4" filter-blend-mode="normal" shape-rendering="auto"/>
 <path d="M 27.974212,53.485363 18.982501,79.461417 50.953029,90.451286 48.954871,62.477074 Z" id="path5049" mix-blend-mode="normal" solid-color="#000000" opacity="0.8" color-interpolation-filters="linearRGB" filter-gaussianBlur-deviation="0" color="#000000" image-rendering="auto" color-rendering="auto" fill-rule="evenodd" isolation="auto" color-interpolation="sRGB" solid-opacity="1" fill="#c4c4c4" filter-blend-mode="normal" shape-rendering="auto"/>
 <path d="m 269.75133,121.42274 62.94198,-47.955797 13.98711,0 -45.95764,45.957637 -28.97329,9.99079 z" id="path5051" mix-blend-mode="normal" solid-color="#000000" opacity="0.8" color-interpolation-filters="linearRGB" filter-gaussianBlur-deviation="0" color="#000000" image-rendering="auto" color-rendering="auto" fill-rule="evenodd" isolation="auto" color-interpolation="sRGB" solid-opacity="1" fill="#c4c4c4" filter-blend-mode="normal" shape-rendering="auto"/>
 <path d="m 404.627,59.479837 22.97882,29.97237 15.98526,0 55.94842,58.945663 16.98435,-17.98342 -53.95027,-33.96869 -1.99816,-12.988027 -30.97145,-27.974212 z" id="path5053" mix-blend-mode="normal" solid-color="#000000" opacity="0.8" color-interpolation-filters="linearRGB" filter-gaussianBlur-deviation="0" color="#000000" image-rendering="auto" color-rendering="auto" fill-rule="evenodd" isolation="auto" color-interpolation="sRGB" solid-opacity="1" fill="#c4c4c4" filter-blend-mode="normal" shape-rendering="auto"/>
 <path d="M 580.00012 371.91666 L 498.54042 458.11237 L 472.56437 498.07552 L 460.57542 481.09118 L 462.57358 463.10776 L 462.57358 463.10776 L 522.51832 412.15473 L 580 358.20446 " id="path5156" mix-blend-mode="normal" solid-color="#000000" opacity="0.8" color-interpolation-filters="linearRGB" filter-gaussianBlur-deviation="0" color="#000000" image-rendering="auto" color-rendering="auto" fill-rule="evenodd" isolation="auto" color-interpolation="sRGB" solid-opacity="1" fill="#c4c4c4" filter-blend-mode="normal" shape-rendering="auto"/>
 <path d="m 0,336.22472 0,0 25.44188,0 11.98895,11.98895 -32.96961,18.9825 -4.4611,4.72049" id="path5154" mix-blend-mode="normal" solid-color="#000000" opacity="0.8" color-interpolation-filters="linearRGB" color="#000000" image-rendering="auto" color-rendering="auto" fill-rule="evenodd" isolation="auto" color-interpolation="sRGB" solid-opacity="1" fill="#c4c4c4" shape-rendering="auto"/>
 <path d="M 580 358.20446 L 580 358.20446 L 580 336.22472 " id="path5055" mix-blend-mode="normal" solid-color="#000000" opacity="0.8" color-interpolation-filters="linearRGB" filter-gaussianBlur-deviation="0" color="#000000" image-rendering="auto" color-rendering="auto" fill-rule="evenodd" isolation="auto" color-interpolation="sRGB" solid-opacity="1" fill="#c4c4c4" filter-blend-mode="normal" shape-rendering="auto"/>
 <path d="M 580 543.03408 L 562.48148 543.03408 L 551.49161 526.04973 L 542.4999 539.03776 L 542.4999 539.03776 L 580 580 " id="path5168" mix-blend-mode="normal" solid-color="#000000" opacity="0.8" color-interpolation-filters="linearRGB" filter-gaussianBlur-deviation="0" color="#000000" image-rendering="auto" color-rendering="auto" fill-rule="evenodd" isolation="auto" color-interpolation="sRGB" solid-opacity="1" fill="#c4c4c4" filter-blend-mode="normal" shape-rendering="auto"/>
 <path d="M 580 528.04789 L 580 543.03408 L 580 543.03408 " id="path5166" mix-blend-mode="normal" solid-color="#000000" opacity="0.8" color-interpolation-filters="linearRGB" filter-gaussianBlur-deviation="0" color="#000000" image-rendering="auto" color-rendering="auto" fill-rule="evenodd" isolation="auto" color-interpolation="sRGB" solid-opacity="1" fill="#c4c4c4" filter-blend-mode="normal" shape-rendering="auto"/>
 <path d="m 0,580 0,0 13.45293,-25.97605 18.9825,-1.99816 L 14.45201,527.04881 0,528.04789 l 0,0" id="path5059" mix-blend-mode="normal" solid-color="#000000" opacity="0.8" color-interpolation-filters="linearRGB" color="#000000" image-rendering="auto" color-rendering="auto" fill-rule="evenodd" isolation="auto" color-interpolation="sRGB" solid-opacity="1" fill="#c4c4c4" shape-rendering="auto"/>
 <path d="M 10.989869,168.37945 33.968686,142.40339 35.966844,126.41813 58.945662,99.442997 99.907901,73.466943 92.914348,92.449444 53.950266,141.40432 52.951187,157.38958 Z" id="path5061" mix-blend-mode="normal" solid-color="#000000" opacity="0.8" color-interpolation-filters="linearRGB" filter-gaussianBlur-deviation="0" color="#000000" image-rendering="auto" color-rendering="auto" fill-rule="evenodd" isolation="auto" color-interpolation="sRGB" solid-opacity="1" fill="#c4c4c4" filter-blend-mode="normal" shape-rendering="auto"/>
 <path d="m 0,187.36195 26.975133,18.9825 9.99079,34.96777 L 19.98158,257.29748 10.989869,245.30853 0,215.33616 Z" id="path5063" mix-blend-mode="normal" solid-color="#000000" opacity="0.8" color-interpolation-filters="linearRGB" filter-gaussianBlur-deviation="0" color="#000000" image-rendering="auto" color-rendering="auto" fill-rule="evenodd" isolation="auto" color-interpolation="sRGB" solid-opacity="1" fill="#c4c4c4" filter-blend-mode="normal" shape-rendering="auto"/>
 <path d="m 29.97237,497.07644 38.964082,-30.97145 35.966848,-29.97237 12.98802,0.99908 -2.99723,17.98342 -12.98803,-0.99908 -13.987107,12.98803 0.999079,15.98527 -53.950267,23.97789 z" id="path5069" mix-blend-mode="normal" solid-color="#000000" opacity="0.8" color-interpolation-filters="linearRGB" filter-gaussianBlur-deviation="0" color="#000000" image-rendering="auto" color-rendering="auto" fill-rule="evenodd" isolation="auto" color-interpolation="sRGB" solid-opacity="1" fill="#c4c4c4" filter-blend-mode="normal" shape-rendering="auto"/>
 <path d="m 213.80291,416.15104 42.9604,41.96132 -1.99816,11.98895 -53.95027,-53.95027 z" id="path5071" mix-blend-mode="normal" solid-color="#000000" opacity="0.8" color-interpolation-filters="linearRGB" filter-gaussianBlur-deviation="0" color="#000000" image-rendering="auto" color-rendering="auto" fill-rule="evenodd" isolation="auto" color-interpolation="sRGB" solid-opacity="1" fill="#c4c4c4" filter-blend-mode="normal" shape-rendering="auto"/>
 <path id="path5073" d="m 213.80291,416.15104 42.9604,41.96132 -1.99816,11.98895 -53.95027,-53.95027 z" mix-blend-mode="normal" solid-color="#000000" opacity="0.8" color-interpolation-filters="linearRGB" filter-gaussianBlur-deviation="0" color="#000000" image-rendering="auto" color-rendering="auto" fill-rule="evenodd" isolation="auto" color-interpolation="sRGB" solid-opacity="1" fill="#c4c4c4" filter-blend-mode="normal" shape-rendering="auto"/>
 <path d="m 453.58187,309.24959 0,9.99079 17.98342,0 -0.99908,-8.99171 z" id="path5075" mix-blend-mode="normal" solid-color="#000000" opacity="0.8" color-interpolation-filters="linearRGB" filter-gaussianBlur-deviation="0" color="#000000" image-rendering="auto" color-rendering="auto" fill-rule="evenodd" isolation="auto" color-interpolation="sRGB" solid-opacity="1" fill="#c4c4c4" filter-blend-mode="normal" shape-rendering="auto"/>
 <path d="m 454.58095,416.15104 0.99908,16.98435 8.99171,0 0,-14.98619 z" id="path5077" mix-blend-mode="normal" solid-color="#000000" opacity="0.8" color-interpolation-filters="linearRGB" filter-gaussianBlur-deviation="0" color="#000000" image-rendering="auto" color-rendering="auto" fill-rule="evenodd" isolation="auto" color-interpolation="sRGB" solid-opacity="1" fill="#c4c4c4" filter-blend-mode="normal" shape-rendering="auto"/>
 <path d="m 528.5128,504.07 11.98894,-13.98711 20.98066,-0.99908 -1.99816,14.98619 -13.9871,10.98986 z" id="path5079" mix-blend-mode="normal" solid-color="#000000" opacity="0.8" color-interpolation-filters="linearRGB" filter-gaussianBlur-deviation="0" color="#000000" image-rendering="auto" color-rendering="auto" fill-rule="evenodd" isolation="auto" color-interpolation="sRGB" solid-opacity="1" fill="#c4c4c4" filter-blend-mode="normal" shape-rendering="auto"/>
 <path d="m 289.73291,267.28827 9.99079,-20.98066 42.9604,-39.96316 -26.97513,45.95764 9.99079,19.98158 z" id="path5083" mix-blend-mode="normal" solid-color="#000000" opacity="0.8" color-interpolation-filters="linearRGB" filter-gaussianBlur-deviation="0" color="#000000" image-rendering="auto" color-rendering="auto" fill-rule="evenodd" isolation="auto" color-interpolation="sRGB" solid-opacity="1" fill="#c4c4c4" filter-blend-mode="normal" shape-rendering="auto"/>
 <path d="m 178.83514,544.03316 48.95487,-22.97882 6.99356,-25.97606 30.97145,-14.98618 22.97881,0 -16.98434,18.9825 -2.99724,15.98526 -9.99079,-11.98894 -46.95671,50.95303 -21.97974,0.99907 -9.99079,6.99356 z" id="path5085" mix-blend-mode="normal" solid-color="#000000" opacity="0.8" color-interpolation-filters="linearRGB" filter-gaussianBlur-deviation="0" color="#000000" image-rendering="auto" color-rendering="auto" fill-rule="evenodd" isolation="auto" color-interpolation="sRGB" solid-opacity="1" fill="#c4c4c4" filter-blend-mode="normal" shape-rendering="auto"/>
 <path d="m 188.82593,350.21183 56.94751,-55.94843 -0.99908,-13.9871 17.98342,-9.99079 0.99908,19.98158 11.98895,4.99539 -14.98619,2.99724 -8.99171,13.98711 0.99908,14.98618 -24.97698,2.99724 -13.9871,28.97329 -9.99079,9.99079 z" id="path5087" mix-blend-mode="normal" solid-color="#000000" opacity="0.8" color-interpolation-filters="linearRGB" filter-gaussianBlur-deviation="0" color="#000000" image-rendering="auto" color-rendering="auto" fill-rule="evenodd" isolation="auto" color-interpolation="sRGB" solid-opacity="1" fill="#c4c4c4" filter-blend-mode="normal" shape-rendering="auto"/>
 <path d="m 288.73383,385.17959 49.95395,51.95211 10.98987,0 64.94014,61.9429 20.98066,-1.99816 0,-19.98158 -21.97974,-0.99908 -29.97237,-26.97513 -2.99724,-17.98342 -33.96868,-4.9954 -4.9954,-17.98342 -14.98618,-1.99816 z" id="path5089" mix-blend-mode="normal" solid-color="#000000" opacity="0.8" color-interpolation-filters="linearRGB" filter-gaussianBlur-deviation="0" color="#000000" image-rendering="auto" color-rendering="auto" fill-rule="evenodd" isolation="auto" color-interpolation="sRGB" solid-opacity="1" fill="#c4c4c4" filter-blend-mode="normal" shape-rendering="auto"/>
 <path d="m 379.65002,525.05065 21.97974,23.9779 16.98434,5.99447 L 406.62516,580 l 19.98158,-13.98711 1.99815,-22.97881 -23.97789,-2.99724 z" id="path5091" mix-blend-mode="normal" solid-color="#000000" opacity="0.8" color-interpolation-filters="linearRGB" filter-gaussianBlur-deviation="0" color="#000000" image-rendering="auto" color-rendering="auto" fill-rule="evenodd" isolation="auto" color-interpolation="sRGB" solid-opacity="1" fill="#c4c4c4" filter-blend-mode="normal" shape-rendering="auto"/>
 <path d="m 169.84343,127.41721 47.95579,48.95487 -0.99908,18.9825 25.97606,-3.99631 -0.99908,16.98434 27.97421,32.96961 -37.965,-13.98711 -36.96592,19.98158 -1.99816,-20.98066 14.98618,-10.98987 13.98711,0 -57.94658,-65.93921 z" id="path5093" mix-blend-mode="normal" solid-color="#000000" opacity="0.8" color-interpolation-filters="linearRGB" filter-gaussianBlur-deviation="0" color="#000000" image-rendering="auto" color-rendering="auto" fill-rule="evenodd" isolation="auto" color-interpolation="sRGB" solid-opacity="1" fill="#c4c4c4" filter-blend-mode="normal" shape-rendering="auto"/>
 <path d="m 342.6841,177.37116 9.99079,17.98342 15.98526,1.99816 27.97422,33.96869 7.99263,-13.98711 11.98895,21.97974 -1.99816,-30.97145 -20.98066,-11.98895 -32.96961,-21.97974 z" id="path5095" mix-blend-mode="normal" solid-color="#000000" opacity="0.8" color-interpolation-filters="linearRGB" filter-gaussianBlur-deviation="0" color="#000000" image-rendering="auto" color-rendering="auto" fill-rule="evenodd" isolation="auto" color-interpolation="sRGB" solid-opacity="1" fill="#c4c4c4" filter-blend-mode="normal" shape-rendering="auto"/>
 <path d="m 43.959476,268.28735 2.997237,25.97605 15.985265,16.98435 34.967765,14.98618 0.999079,16.98434 31.970528,15.98527 -1.99816,18.9825 29.97237,0 -17.98342,-21.97974 16.98434,-7.99263 -39.96316,-15.98526 -20.980656,-34.96777 -23.977896,0 -12.988027,-28.97329 z" id="path5097" mix-blend-mode="normal" solid-color="#000000" opacity="0.8" color-interpolation-filters="linearRGB" filter-gaussianBlur-deviation="0" color="#000000" image-rendering="auto" color-rendering="auto" fill-rule="evenodd" isolation="auto" color-interpolation="sRGB" solid-opacity="1" fill="#c4c4c4" filter-blend-mode="normal" shape-rendering="auto"/>
 <path d="m 462.57358,274.28182 18.9825,-13.9871 18.9825,-27.97421 29.97237,2.99723 -14.98618,24.97698 -23.9779,3.99631 -14.98618,27.97422 -13.98711,-2.99724 z" id="path5099" mix-blend-mode="normal" solid-color="#000000" opacity="0.8" color-interpolation-filters="linearRGB" filter-gaussianBlur-deviation="0" color="#000000" image-rendering="auto" color-rendering="auto" fill-rule="evenodd" isolation="auto" color-interpolation="sRGB" solid-opacity="1" fill="#c4c4c4" filter-blend-mode="normal" shape-rendering="auto"/>
 <path d="m 380.6491,367.19617 30.97145,-31.97053 28.97329,-1.99816 -34.96776,32.96961 1.99816,16.98435 z" id="path5101" mix-blend-mode="normal" solid-color="#000000" opacity="0.8" color-interpolation-filters="linearRGB" filter-gaussianBlur-deviation="0" color="#000000" image-rendering="auto" color-rendering="auto" fill-rule="evenodd" isolation="auto" color-interpolation="sRGB" solid-opacity="1" fill="#c4c4c4" filter-blend-mode="normal" shape-rendering="auto"/>
 <path d="m 398.63252,422.14552 14.98619,-17.98343 20.98066,14.98619 4.99539,19.98158 -21.97973,-4.9954 -1.99816,-13.9871 z" id="path5103" mix-blend-mode="normal" solid-color="#000000" opacity="0.8" color-interpolation-filters="linearRGB" filter-gaussianBlur-deviation="0" color="#000000" image-rendering="auto" color-rendering="auto" fill-rule="evenodd" isolation="auto" color-interpolation="sRGB" solid-opacity="1" fill="#c4c4c4" filter-blend-mode="normal" shape-rendering="auto"/>
</svg>
