<?xml version="1.0" encoding="UTF-8" standalone="no"?>
<svg xmlns="http://www.w3.org/2000/svg" width="580" height="580" version="1.0">
 <metadata id="metadata7"/>
 <rect id="rect4858" width="580" height="580" mix-blend-mode="normal" solid-color="#000000" opacity="0.75" color-interpolation-filters="linearRGB" color="#000000" image-rendering="auto" color-rendering="auto" fill-rule="evenodd" isolation="auto" color-interpolation="sRGB" solid-opacity="1" fill="#f2f2f2" shape-rendering="auto"/>
 <path d="m 553.48977,0 0,34.502861 26.51023,0 L 580,0 Z" id="path4304" opacity="0.75" fill="#a4a4a4" fill-rule="evenodd"/>
 <path d="M 560.48332,52.486284 561.4824,90.451286 536.50543,91.450365 524.51648,76.46418 537.50451,55.483521 Z" id="path4315" mix-blend-mode="normal" solid-color="#000000" opacity="0.75" color-interpolation-filters="linearRGB" color="#000000" image-rendering="auto" color-rendering="auto" fill-rule="evenodd" isolation="auto" color-interpolation="sRGB" solid-opacity="1" fill="#a4a4a4" shape-rendering="auto"/>
 <path d="m 487.55056,26.510229 0.99908,27.974213 14.98618,7.992632 20.98066,-11.988948 -0.99908,-23.977897 z" id="path4322" mix-blend-mode="normal" solid-color="#000000" opacity="0.75" color-interpolation-filters="linearRGB" color="#000000" image-rendering="auto" color-rendering="auto" fill-rule="evenodd" isolation="auto" color-interpolation="sRGB" solid-opacity="1" fill="#a4a4a4" shape-rendering="auto"/>
 <path d="m 415.61687,0 -0.99908,21.514834 13.9871,16.984343 16.98435,-0.999079 L 453.58187,0 Z" id="path4329" mix-blend-mode="normal" solid-color="#000000" opacity="0.75" color-interpolation-filters="linearRGB" color="#000000" image-rendering="auto" color-rendering="auto" fill-rule="evenodd" isolation="auto" color-interpolation="sRGB" solid-opacity="1" fill="#a4a4a4" shape-rendering="auto"/>
 <path d="m 462.57358,69.470627 0,25.976054 11.98895,10.989869 12.98803,-0.99908 0.99908,-34.967764 z" id="path4336" mix-blend-mode="normal" solid-color="#000000" opacity="0.75" color-interpolation-filters="linearRGB" color="#000000" image-rendering="auto" color-rendering="auto" fill-rule="evenodd" isolation="auto" color-interpolation="sRGB" solid-opacity="1" fill="#a4a4a4" shape-rendering="auto"/>
 <path d="M 555.48793,99.442997 534.50727,119.42458 556.48701,144.40155 580,122.42181 Z" id="path4343" mix-blend-mode="normal" solid-color="#000000" opacity="0.75" color-interpolation-filters="linearRGB" color="#000000" image-rendering="auto" color-rendering="auto" fill-rule="evenodd" isolation="auto" color-interpolation="sRGB" solid-opacity="1" fill="#a4a4a4" shape-rendering="auto"/>
 <path d="m 523.51741,146.3997 c 0,8.27664 -6.48589,14.98619 -14.48665,14.98619 -8.00075,0 -14.48664,-6.70955 -14.48664,-14.98619 0,-8.27664 6.48589,-14.98618 14.48664,-14.98618 8.00075,0 14.48665,6.70954 14.48665,14.98618 z" id="path4350" mix-blend-mode="normal" solid-color="#000000" opacity="0.75" color-interpolation-filters="linearRGB" color="#000000" image-rendering="auto" color-rendering="auto" fill-rule="evenodd" isolation="auto" color-interpolation="sRGB" solid-opacity="1" fill="#a4a4a4" shape-rendering="auto"/>
 <path d="m 87.918956,324.23577 c -2e-6,9.3802 -6.172474,20.98066 -17.483882,20.98066 -11.311408,0 -20.481117,-7.60415 -20.481119,-16.98434 -5e-6,-9.3802 9.169706,-16.98435 20.481119,-16.98435 11.311413,0 17.483887,3.60784 17.483882,12.98803 z" id="path4357" mix-blend-mode="normal" solid-color="#000000" opacity="0.75" color-interpolation-filters="linearRGB" color="#000000" image-rendering="auto" color-rendering="auto" fill-rule="evenodd" isolation="auto" color-interpolation="sRGB" solid-opacity="1" fill="#a4a4a4" shape-rendering="auto"/>
 <path d="m 380.64911,218.3334 c 0,9.3802 -7.60415,16.98435 -16.98435,16.98435 -9.3802,0 -16.98434,-7.60415 -16.98434,-16.98435 0,-9.38019 7.60415,-16.98434 16.98434,-16.98434 9.3802,0 16.98435,7.60414 16.98435,16.98434 z" id="path4360" mix-blend-mode="normal" solid-color="#000000" opacity="0.75" color-interpolation-filters="linearRGB" color="#000000" image-rendering="auto" color-rendering="auto" fill-rule="evenodd" isolation="auto" color-interpolation="sRGB" solid-opacity="1" fill="#a4a4a4" shape-rendering="auto"/>
 <path d="m 44.958554,481.09119 c -1.388557,8.71853 -6.933196,15.98526 -15.485724,15.98526 -8.552528,0 -15.485723,-7.15684 -15.485725,-15.98526 -3e-6,-8.82842 7.403338,-13.1887 15.485725,-15.98527 11.549768,-3.99632 18.482964,-2.83394 15.485724,15.98527 z" id="path4363" mix-blend-mode="normal" solid-color="#000000" opacity="0.75" color-interpolation-filters="linearRGB" color="#000000" image-rendering="auto" color-rendering="auto" fill-rule="evenodd" isolation="auto" color-interpolation="sRGB" solid-opacity="1" fill="#a4a4a4" shape-rendering="auto"/>
 <path d="m 480.557,485.08749 c -2.33688,10.21998 -7.60414,18.98251 -16.98434,18.98251 -9.3802,0 -16.98434,-8.49876 -16.98434,-18.98251 0,-10.48374 8.35806,-15.29804 16.98434,-18.9825 16.37374,-6.99355 20.98066,1.5052 16.98434,18.9825 z" id="path4366" mix-blend-mode="normal" solid-color="#000000" opacity="0.75" color-interpolation-filters="linearRGB" color="#000000" image-rendering="auto" color-rendering="auto" fill-rule="evenodd" isolation="auto" color-interpolation="sRGB" solid-opacity="1" fill="#a4a4a4" shape-rendering="auto"/>
 <path d="m 499.53952,263.7915 c 0,7.44898 -7.60415,13.48757 -16.98434,13.48757 -9.3802,0 -13.27688,-7.02677 -16.98435,-13.48757 -5.99447,-10.44621 -1.38755,-20.48112 12.98803,-18.48296 9.29087,1.29141 20.98066,11.03399 20.98066,18.48296 z" id="path4371" mix-blend-mode="normal" solid-color="#000000" opacity="0.75" color-interpolation-filters="linearRGB" color="#000000" image-rendering="auto" color-rendering="auto" fill-rule="evenodd" isolation="auto" color-interpolation="sRGB" solid-opacity="1" fill="#a4a4a4" shape-rendering="auto"/>
 <path d="m 283.73843,65.474312 c 0,9.931968 -6.60507,24.976972 -15.98526,24.976974 -9.38019,-2e-6 -17.98342,-15.045006 -17.98342,-24.976974 0,-9.931968 7.60415,-17.983419 16.98434,-17.983421 9.38019,2e-6 16.98434,8.051453 16.98434,17.983421 z" id="path4374" mix-blend-mode="normal" solid-color="#000000" opacity="0.75" color-interpolation-filters="linearRGB" color="#000000" image-rendering="auto" color-rendering="auto" fill-rule="evenodd" isolation="auto" color-interpolation="sRGB" solid-opacity="1" fill="#a4a4a4" shape-rendering="auto"/>
 <path d="m 315.70895,69.470627 31.97053,0 0,26.975134 -31.97053,0 z" id="rect4377" mix-blend-mode="normal" solid-color="#000000" opacity="0.75" color-interpolation-filters="linearRGB" color="#000000" image-rendering="auto" color-rendering="auto" fill-rule="evenodd" isolation="auto" color-interpolation="sRGB" solid-opacity="1" fill="#a4a4a4" shape-rendering="auto"/>
 <path d="m 364.66385,17.518518 18.9825,0 0,25.976056 -18.9825,0 z" id="rect4380" mix-blend-mode="normal" solid-color="#000000" opacity="0.75" color-interpolation-filters="linearRGB" color="#000000" image-rendering="auto" color-rendering="auto" fill-rule="evenodd" isolation="auto" color-interpolation="sRGB" solid-opacity="1" fill="#a4a4a4" shape-rendering="auto"/>
 <path d="m 552.49066,195.35458 27.50931,0 0,23.9779 -27.50931,0 z" id="rect4383" mix-blend-mode="normal" solid-color="#000000" opacity="0.75" color-interpolation-filters="linearRGB" color="#000000" image-rendering="auto" color-rendering="auto" fill-rule="evenodd" isolation="auto" color-interpolation="sRGB" solid-opacity="1" fill="#a4a4a4" shape-rendering="auto"/>
 <path d="m 490.54779,553.02484 36.96592,0 0,26.97514 -36.96592,0 z" id="rect4386" mix-blend-mode="normal" solid-color="#000000" opacity="0.75" color-interpolation-filters="linearRGB" color="#000000" image-rendering="auto" color-rendering="auto" fill-rule="evenodd" isolation="auto" color-interpolation="sRGB" solid-opacity="1" fill="#a4a4a4" shape-rendering="auto"/>
 <path d="m 117.89132,487.08566 30.97145,0 0,19.98158 -30.97145,0 z" id="rect4389" mix-blend-mode="normal" solid-color="#000000" opacity="0.75" color-interpolation-filters="linearRGB" color="#000000" image-rendering="auto" color-rendering="auto" fill-rule="evenodd" isolation="auto" color-interpolation="sRGB" solid-opacity="1" fill="#a4a4a4" shape-rendering="auto"/>
 <path d="m 236.78172,197.35274 25.97606,0 0,42.96039 -25.97606,0 z" id="rect4392" mix-blend-mode="normal" solid-color="#000000" opacity="0.75" color-interpolation-filters="linearRGB" color="#000000" image-rendering="auto" color-rendering="auto" fill-rule="evenodd" isolation="auto" color-interpolation="sRGB" solid-opacity="1" fill="#a4a4a4" shape-rendering="auto"/>
 <path d="m 21.979738,97.444839 20.98066,0 0,30.971451 -20.98066,0 z" id="rect4395" mix-blend-mode="normal" solid-color="#000000" opacity="0.75" color-interpolation-filters="linearRGB" color="#000000" image-rendering="auto" color-rendering="auto" fill-rule="evenodd" isolation="auto" color-interpolation="sRGB" solid-opacity="1" fill="#a4a4a4" shape-rendering="auto"/>
 <path d="m 198.81673,16.51944 35.96684,0 0,24.976974 -35.96684,0 z" id="rect4398" mix-blend-mode="normal" solid-color="#000000" opacity="0.75" color-interpolation-filters="linearRGB" color="#000000" image-rendering="auto" color-rendering="auto" fill-rule="evenodd" isolation="auto" color-interpolation="sRGB" solid-opacity="1" fill="#a4a4a4" shape-rendering="auto"/>
 <path d="m 0,551.02673 24.976974,0 0,28.97329 -24.976974,0 z" id="rect4401" mix-blend-mode="normal" solid-color="#000000" opacity="0.75" color-interpolation-filters="linearRGB" color="#000000" image-rendering="auto" color-rendering="auto" fill-rule="evenodd" isolation="auto" color-interpolation="sRGB" solid-opacity="1" fill="#a4a4a4" shape-rendering="auto"/>
 <path d="m 92.914348,70.469706 0,39.963164 23.977892,-11.988952 -1.99815,-27.974212 z" id="path4404" mix-blend-mode="normal" solid-color="#000000" opacity="0.75" color-interpolation-filters="linearRGB" color="#000000" image-rendering="auto" color-rendering="auto" fill-rule="evenodd" isolation="auto" color-interpolation="sRGB" solid-opacity="1" fill="#a4a4a4" shape-rendering="auto"/>
 <path d="m 479.55792,188.36102 c -1.36549,9.28027 -7.38049,16.98435 -16.4848,16.98435 -9.10431,0 -16.4848,-7.60416 -16.4848,-16.98435 0,-9.38019 7.3805,-16.98434 16.4848,-16.98434 9.1043,0 19.48204,-3.38572 16.4848,16.98434 z" id="path4411" mix-blend-mode="normal" solid-color="#000000" opacity="0.75" color-interpolation-filters="linearRGB" color="#000000" image-rendering="auto" color-rendering="auto" fill-rule="evenodd" isolation="auto" color-interpolation="sRGB" solid-opacity="1" fill="#a4a4a4" shape-rendering="auto"/>
 <path d="m 234.78357,533.04329 0,28.97329 21.97974,-0.99908 z" id="path4414" mix-blend-mode="normal" solid-color="#000000" opacity="0.75" color-interpolation-filters="linearRGB" color="#000000" image-rendering="auto" color-rendering="auto" fill-rule="evenodd" isolation="auto" color-interpolation="sRGB" solid-opacity="1" fill="#a4a4a4" shape-rendering="auto"/>
 <path d="m 535.50635,434.13446 -2.99724,28.9733 -13.9871,-3.99632 z" id="path4421" mix-blend-mode="normal" solid-color="#000000" opacity="0.75" color-interpolation-filters="linearRGB" color="#000000" image-rendering="auto" color-rendering="auto" fill-rule="evenodd" isolation="auto" color-interpolation="sRGB" solid-opacity="1" fill="#a4a4a4" shape-rendering="auto"/>
 <path d="m 552.49069,524.05158 -25.97605,11.98894 26.97513,15.98527 z" id="path4428" mix-blend-mode="normal" solid-color="#000000" opacity="0.75" color-interpolation-filters="linearRGB" color="#000000" image-rendering="auto" color-rendering="auto" fill-rule="evenodd" isolation="auto" color-interpolation="sRGB" solid-opacity="1" fill="#a4a4a4" shape-rendering="auto"/>
 <path d="m 461.5745,525.05065 14.98619,17.98343 12.98802,-17.98343 z" id="path4435" mix-blend-mode="normal" solid-color="#000000" opacity="0.75" color-interpolation-filters="linearRGB" color="#000000" image-rendering="auto" color-rendering="auto" fill-rule="evenodd" isolation="auto" color-interpolation="sRGB" solid-opacity="1" fill="#a4a4a4" shape-rendering="auto"/>
 <path d="m 405.62608,506.06815 2.99723,25.97606 19.98158,2.99723 z" id="path4442" mix-blend-mode="normal" solid-color="#000000" opacity="0.75" color-interpolation-filters="linearRGB" color="#000000" image-rendering="auto" color-rendering="auto" fill-rule="evenodd" isolation="auto" color-interpolation="sRGB" solid-opacity="1" fill="#a4a4a4" shape-rendering="auto"/>
 <path d="m 508.53122,354.20814 26.97513,28.9733 14.98618,-20.98066 0.99908,-27.97422 -33.96868,0.99908 z" id="path4449" mix-blend-mode="normal" solid-color="#000000" opacity="0.75" color-interpolation-filters="linearRGB" color="#000000" image-rendering="auto" color-rendering="auto" fill-rule="evenodd" isolation="auto" color-interpolation="sRGB" solid-opacity="1" fill="#a4a4a4" shape-rendering="auto"/>
 <path d="m 454.58095,366.19709 7.99263,-24.97697 25.97606,-0.99908 -0.99908,40.96224 z" id="path4456" mix-blend-mode="normal" solid-color="#000000" opacity="0.75" color-interpolation-filters="linearRGB" color="#000000" image-rendering="auto" color-rendering="auto" fill-rule="evenodd" isolation="auto" color-interpolation="sRGB" solid-opacity="1" fill="#a4a4a4" shape-rendering="auto"/>
 <path d="m 526.51464,246.30761 0,23.9779 12.98802,9.99079 16.98435,-8.99171 0,-25.97606 z" id="path4463" mix-blend-mode="normal" solid-color="#000000" opacity="0.75" color-interpolation-filters="linearRGB" color="#000000" image-rendering="auto" color-rendering="auto" fill-rule="evenodd" isolation="auto" color-interpolation="sRGB" solid-opacity="1" fill="#a4a4a4" shape-rendering="auto"/>
 <path d="m 406.62516,96.44576 3.99631,29.97237 18.9825,9.99079 10.98987,-14.98618 -11.98895,-24.97698 z" id="path4470" mix-blend-mode="normal" solid-color="#000000" opacity="0.75" color-interpolation-filters="linearRGB" color="#000000" image-rendering="auto" color-rendering="auto" fill-rule="evenodd" isolation="auto" color-interpolation="sRGB" solid-opacity="1" fill="#a4a4a4" shape-rendering="auto"/>
 <path d="m 289.73291,19.516676 1.99816,21.979738 10.98987,11.988949 19.98158,-18.982502 -9.99079,-14.986185 z" id="path4479" mix-blend-mode="normal" solid-color="#000000" opacity="0.75" color-interpolation-filters="linearRGB" color="#000000" image-rendering="auto" color-rendering="auto" fill-rule="evenodd" isolation="auto" color-interpolation="sRGB" solid-opacity="1" fill="#a4a4a4" shape-rendering="auto"/>
 <path d="m 144.86646,0 0,20.515755 L 162.84988,35.50194 169.84343,0 Z" id="path4486" mix-blend-mode="normal" solid-color="#000000" opacity="0.75" color-interpolation-filters="linearRGB" color="#000000" image-rendering="auto" color-rendering="auto" fill-rule="evenodd" isolation="auto" color-interpolation="sRGB" solid-opacity="1" fill="#a4a4a4" shape-rendering="auto"/>
 <path d="m 168.84435,67.472469 18.9825,12.988027 8.99171,-18.982501 -3.99631,-13.987107 -20.98066,-7.992632 z" id="path4493" mix-blend-mode="normal" solid-color="#000000" opacity="0.75" color-interpolation-filters="linearRGB" color="#000000" image-rendering="auto" color-rendering="auto" fill-rule="evenodd" isolation="auto" color-interpolation="sRGB" solid-opacity="1" fill="#a4a4a4" shape-rendering="auto"/>
 <path d="m 98.908822,17.518518 1.998158,28.973291 13.98711,6.993554 16.98434,-20.98066 -9.99079,-14.986185 z" id="path4500" mix-blend-mode="normal" solid-color="#000000" opacity="0.75" color-interpolation-filters="linearRGB" color="#000000" image-rendering="auto" color-rendering="auto" fill-rule="evenodd" isolation="auto" color-interpolation="sRGB" solid-opacity="1" fill="#a4a4a4" shape-rendering="auto"/>
 <path d="M 72.932768,25.51115 71.933689,50.488126 56.947503,63.476153 32.969607,43.494572 48.954871,23.512992 Z" id="path4507" mix-blend-mode="normal" solid-color="#000000" opacity="0.75" color-interpolation-filters="linearRGB" color="#000000" image-rendering="auto" color-rendering="auto" fill-rule="evenodd" isolation="auto" color-interpolation="sRGB" solid-opacity="1" fill="#a4a4a4" shape-rendering="auto"/>
 <path d="M 27.974212,172.37576 25.976054,198.35182 9.9907901,194.3555 Z" id="path4514" mix-blend-mode="normal" solid-color="#000000" opacity="0.75" color-interpolation-filters="linearRGB" color="#000000" image-rendering="auto" color-rendering="auto" fill-rule="evenodd" isolation="auto" color-interpolation="sRGB" solid-opacity="1" fill="#a4a4a4" shape-rendering="auto"/>
 <path d="m 71.933689,163.38405 0,23.9779 22.978817,0 L 106.90145,175.373 93.913427,161.3859 Z" id="path4521" mix-blend-mode="normal" solid-color="#000000" opacity="0.75" color-interpolation-filters="linearRGB" color="#000000" image-rendering="auto" color-rendering="auto" fill-rule="evenodd" isolation="auto" color-interpolation="sRGB" solid-opacity="1" fill="#a4a4a4" shape-rendering="auto"/>
 <path d="m 118.8904,144.40155 24.97698,0 0,16.98434 -24.97698,0 z" id="rect4528" mix-blend-mode="normal" solid-color="#000000" opacity="0.75" color-interpolation-filters="linearRGB" color="#000000" image-rendering="auto" color-rendering="auto" fill-rule="evenodd" isolation="auto" color-interpolation="sRGB" solid-opacity="1" fill="#a4a4a4" shape-rendering="auto"/>
 <path d="m 64.940136,570.00921 32.969607,-16.98434 0,26.97513 z" id="path4531" mix-blend-mode="normal" solid-color="#000000" opacity="0.75" color-interpolation-filters="linearRGB" color="#000000" image-rendering="auto" color-rendering="auto" fill-rule="evenodd" isolation="auto" color-interpolation="sRGB" solid-opacity="1" fill="#a4a4a4" shape-rendering="auto"/>
 <path d="m 28.973291,530.04605 23.977896,21.97974 23.977897,-1.99816 -7.992632,-42.9604 -19.981581,-0.99908 z" id="path4538" mix-blend-mode="normal" solid-color="#000000" opacity="0.75" color-interpolation-filters="linearRGB" color="#000000" image-rendering="auto" color-rendering="auto" fill-rule="evenodd" isolation="auto" color-interpolation="sRGB" solid-opacity="1" fill="#a4a4a4" shape-rendering="auto"/>
 <path d="m 53.950266,436.13262 11.988949,34.96777 22.978817,-16.98435 -0.999079,-19.98158 z" id="path4545" mix-blend-mode="normal" solid-color="#000000" opacity="0.75" color-interpolation-filters="linearRGB" color="#000000" image-rendering="auto" color-rendering="auto" fill-rule="evenodd" isolation="auto" color-interpolation="sRGB" solid-opacity="1" fill="#a4a4a4" shape-rendering="auto"/>
 <path d="m 43.959476,363.19986 -3.996316,23.97789 -19.98158,11.98895 0,-37.965 z" id="path4552" mix-blend-mode="normal" solid-color="#000000" opacity="0.75" color-interpolation-filters="linearRGB" color="#000000" image-rendering="auto" color-rendering="auto" fill-rule="evenodd" isolation="auto" color-interpolation="sRGB" solid-opacity="1" fill="#a4a4a4" shape-rendering="auto"/>
 <path d="m 0,283.87578 0,42.35815 26.975133,-13.9871 -1.998158,-21.97974 z" id="path4559" mix-blend-mode="normal" solid-color="#000000" opacity="0.75" color-interpolation-filters="linearRGB" color="#000000" image-rendering="auto" color-rendering="auto" fill-rule="evenodd" isolation="auto" color-interpolation="sRGB" solid-opacity="1" fill="#a4a4a4" shape-rendering="auto"/>
 <path d="m 51.952108,233.31958 -36.965923,14.98619 28.973291,24.97697 6.993553,-13.9871 z" id="path4566" mix-blend-mode="normal" solid-color="#000000" opacity="0.75" color-interpolation-filters="linearRGB" color="#000000" image-rendering="auto" color-rendering="auto" fill-rule="evenodd" isolation="auto" color-interpolation="sRGB" solid-opacity="1" fill="#a4a4a4" shape-rendering="auto"/>
 <path d="m 108.89961,219.33248 c 1.99816,-3.99632 12.98803,-22.97882 12.98803,-22.97882 l 19.98158,0.99908 0,34.96777 -21.97974,1.99815 z" id="path4573" mix-blend-mode="normal" solid-color="#000000" opacity="0.75" color-interpolation-filters="linearRGB" color="#000000" image-rendering="auto" color-rendering="auto" fill-rule="evenodd" isolation="auto" color-interpolation="sRGB" solid-opacity="1" fill="#a4a4a4" shape-rendering="auto"/>
 <path d="m 103.90422,246.30761 22.97881,1.99816 -4.99539,41.96132 -19.98158,-20.98066 -1.998159,-22.97882 z" id="path4580" mix-blend-mode="normal" solid-color="#000000" opacity="0.75" color-interpolation-filters="linearRGB" color="#000000" image-rendering="auto" color-rendering="auto" fill-rule="evenodd" isolation="auto" color-interpolation="sRGB" solid-opacity="1" fill="#a4a4a4" shape-rendering="auto"/>
 <path d="m 186.82777,244.30945 0,34.96777 -17.98342,-12.98803 -2.99723,-19.98158 z" id="path4587" mix-blend-mode="normal" solid-color="#000000" opacity="0.75" color-interpolation-filters="linearRGB" color="#000000" image-rendering="auto" color-rendering="auto" fill-rule="evenodd" isolation="auto" color-interpolation="sRGB" solid-opacity="1" fill="#a4a4a4" shape-rendering="auto"/>
 <path d="m 195.81949,275.2809 -1.99816,25.97606 18.9825,3.99631 11.98895,-12.98802 -12.98803,-20.98066 z" id="path4594" mix-blend-mode="normal" solid-color="#000000" opacity="0.75" color-interpolation-filters="linearRGB" color="#000000" image-rendering="auto" color-rendering="auto" fill-rule="evenodd" isolation="auto" color-interpolation="sRGB" solid-opacity="1" fill="#a4a4a4" shape-rendering="auto"/>
 <path d="m 191.82317,190.35919 0,23.97789 10.98987,12.98803 13.9871,-13.98711 -1.99815,-21.97973 z" id="path4601" mix-blend-mode="normal" solid-color="#000000" opacity="0.75" color-interpolation-filters="linearRGB" color="#000000" image-rendering="auto" color-rendering="auto" fill-rule="evenodd" isolation="auto" color-interpolation="sRGB" solid-opacity="1" fill="#a4a4a4" shape-rendering="auto"/>
 <path d="m 236.78173,127.41721 -0.99908,32.96961 29.97237,-1.99816 -3.99632,-11.98895 z" id="path4608" mix-blend-mode="normal" solid-color="#000000" opacity="0.75" color-interpolation-filters="linearRGB" color="#000000" image-rendering="auto" color-rendering="auto" fill-rule="evenodd" isolation="auto" color-interpolation="sRGB" solid-opacity="1" fill="#a4a4a4" shape-rendering="auto"/>
 <path d="m 264.75594,101.44115 0,25.97606 17.98342,9.99079 16.98434,-16.98434 -13.9871,-20.980663 z" id="path4615" mix-blend-mode="normal" solid-color="#000000" opacity="0.75" color-interpolation-filters="linearRGB" color="#000000" image-rendering="auto" color-rendering="auto" fill-rule="evenodd" isolation="auto" color-interpolation="sRGB" solid-opacity="1" fill="#a4a4a4" shape-rendering="auto"/>
 <path d="m 164.84804,93.448523 0.99908,32.969607 7.99263,9.99079 13.9871,-11.98895 1.99816,-21.97974 z" id="path4622" mix-blend-mode="normal" solid-color="#000000" opacity="0.75" color-interpolation-filters="linearRGB" color="#000000" image-rendering="auto" color-rendering="auto" fill-rule="evenodd" isolation="auto" color-interpolation="sRGB" solid-opacity="1" fill="#a4a4a4" shape-rendering="auto"/>
 <path d="m 124.88488,315.24406 -0.99908,21.97974 14.98618,9.99079 19.98158,-7.99263 2.99724,-22.97882 z" id="path4629" mix-blend-mode="normal" solid-color="#000000" opacity="0.75" color-interpolation-filters="linearRGB" color="#000000" image-rendering="auto" color-rendering="auto" fill-rule="evenodd" isolation="auto" color-interpolation="sRGB" solid-opacity="1" fill="#a4a4a4" shape-rendering="auto"/>
 <path d="m 283.73844,271.28459 -14.98619,24.97697 17.98343,10.98987 9.99079,-11.98895 z" id="path4636" mix-blend-mode="normal" solid-color="#000000" opacity="0.75" color-interpolation-filters="linearRGB" color="#000000" image-rendering="auto" color-rendering="auto" fill-rule="evenodd" isolation="auto" color-interpolation="sRGB" solid-opacity="1" fill="#a4a4a4" shape-rendering="auto"/>
 <path d="m 283.73844,246.30761 8.99171,-12.98803 20.98066,3.99632 -2.99724,26.97513 -16.98434,-0.99908 z" id="path4643" mix-blend-mode="normal" solid-color="#000000" opacity="0.75" color-interpolation-filters="linearRGB" color="#000000" image-rendering="auto" color-rendering="auto" fill-rule="evenodd" isolation="auto" color-interpolation="sRGB" solid-opacity="1" fill="#a4a4a4" shape-rendering="auto"/>
 <path d="m 316.70805,145.40063 6.99355,33.96869 17.98342,-13.98711 -1.99816,-17.98342 z" id="path4650" mix-blend-mode="normal" solid-color="#000000" opacity="0.75" color-interpolation-filters="linearRGB" color="#000000" image-rendering="auto" color-rendering="auto" fill-rule="evenodd" isolation="auto" color-interpolation="sRGB" solid-opacity="1" fill="#a4a4a4" shape-rendering="auto"/>
 <path d="m 343.68318,123.42089 13.98711,26.97514 24.97697,-8.99171 -5.99447,-20.98066 z" id="path4659" mix-blend-mode="normal" solid-color="#000000" opacity="0.75" color-interpolation-filters="linearRGB" color="#000000" image-rendering="auto" color-rendering="auto" fill-rule="evenodd" isolation="auto" color-interpolation="sRGB" solid-opacity="1" fill="#a4a4a4" shape-rendering="auto"/>
 <path d="m 417.61503,200.34998 -2.99724,34.96776 -11.98895,-11.98895 z" id="path4666" mix-blend-mode="normal" solid-color="#000000" opacity="0.75" color-interpolation-filters="linearRGB" color="#000000" image-rendering="auto" color-rendering="auto" fill-rule="evenodd" isolation="auto" color-interpolation="sRGB" solid-opacity="1" fill="#a4a4a4" shape-rendering="auto"/>
 <path d="m 358.66936,273.28274 -11.98894,10.98987 18.9825,20.98066 31.97053,-8.99171 -8.99172,-24.97697 z" id="path4673" mix-blend-mode="normal" solid-color="#000000" opacity="0.75" color-interpolation-filters="linearRGB" color="#000000" image-rendering="auto" color-rendering="auto" fill-rule="evenodd" isolation="auto" color-interpolation="sRGB" solid-opacity="1" fill="#a4a4a4" shape-rendering="auto"/>
 <path d="m 418.6141,308.25051 3.99632,22.97882 15.98526,10.98987 10.98987,-15.98527 -8.99171,-16.98434 z" id="path4680" mix-blend-mode="normal" solid-color="#000000" opacity="0.75" color-interpolation-filters="linearRGB" color="#000000" image-rendering="auto" color-rendering="auto" fill-rule="evenodd" isolation="auto" color-interpolation="sRGB" solid-opacity="1" fill="#a4a4a4" shape-rendering="auto"/>
 <path d="m 65.700365,394.20219 11.303289,-12.7162 19.780755,0.70646 -1.412911,21.19366 z" id="path4687" mix-blend-mode="normal" solid-color="#000000" opacity="0.75" color-interpolation-filters="linearRGB" color="#000000" image-rendering="auto" color-rendering="auto" fill-rule="evenodd" isolation="auto" color-interpolation="sRGB" solid-opacity="1" fill="#a4a4a4" shape-rendering="auto"/>
 <path d="m 125.74909,383.60536 14.12911,12.7162 21.19366,-14.12911 z" id="path4694" mix-blend-mode="normal" solid-color="#000000" opacity="0.75" color-interpolation-filters="linearRGB" color="#000000" image-rendering="auto" color-rendering="auto" fill-rule="evenodd" isolation="auto" color-interpolation="sRGB" solid-opacity="1" fill="#a4a4a4" shape-rendering="auto"/>
 <path d="m 193.56882,337.68575 -0.70646,24.01949 33.90987,-12.7162 z" id="path4701" mix-blend-mode="normal" solid-color="#000000" opacity="0.75" color-interpolation-filters="linearRGB" color="#000000" image-rendering="auto" color-rendering="auto" fill-rule="evenodd" isolation="auto" color-interpolation="sRGB" solid-opacity="1" fill="#a4a4a4" shape-rendering="auto"/>
 <path d="m 243.02071,338.3922 5.65164,22.60658 16.95493,8.47747 16.24848,-22.60658 -14.12911,-11.30329 z" id="path4703" mix-blend-mode="normal" solid-color="#000000" opacity="0.75" color-interpolation-filters="linearRGB" color="#000000" image-rendering="auto" color-rendering="auto" fill-rule="evenodd" isolation="auto" color-interpolation="sRGB" solid-opacity="1" fill="#a4a4a4" shape-rendering="auto"/>
 <path d="m 332.74056,365.94397 5.65164,-21.90012 19.78076,-0.70646 0,36.02924 z" id="path4710" mix-blend-mode="normal" solid-color="#000000" opacity="0.75" color-interpolation-filters="linearRGB" color="#000000" image-rendering="auto" color-rendering="auto" fill-rule="evenodd" isolation="auto" color-interpolation="sRGB" solid-opacity="1" fill="#a4a4a4" shape-rendering="auto"/>
 <path d="m 389.257,346.16322 0,16.95493 27.55177,9.89038 -4.23873,-26.84531 z" id="path4717" mix-blend-mode="normal" solid-color="#000000" opacity="0.75" color-interpolation-filters="linearRGB" color="#000000" image-rendering="auto" color-rendering="auto" fill-rule="evenodd" isolation="auto" color-interpolation="sRGB" solid-opacity="1" fill="#a4a4a4" shape-rendering="auto"/>
 <path d="m 200.63337,382.19245 0.70646,21.19366 14.12911,12.7162 19.78076,-12.00974 -1.41292,-21.90012 z" id="path4724" mix-blend-mode="normal" solid-color="#000000" opacity="0.75" color-interpolation-filters="linearRGB" color="#000000" image-rendering="auto" color-rendering="auto" fill-rule="evenodd" isolation="auto" color-interpolation="sRGB" solid-opacity="1" fill="#a4a4a4" shape-rendering="auto"/>
 <path d="m 140.58465,414.6894 -16.24847,24.01949 19.0743,12.7162 7.06455,-14.12911 z" id="path4731" mix-blend-mode="normal" solid-color="#000000" opacity="0.75" color-interpolation-filters="linearRGB" color="#000000" image-rendering="auto" color-rendering="auto" fill-rule="evenodd" isolation="auto" color-interpolation="sRGB" solid-opacity="1" fill="#a4a4a4" shape-rendering="auto"/>
 <path d="m 174.49452,417.51523 -0.70646,31.08404 19.78076,2.11937 9.18392,-9.18393 -9.18392,-24.72594 z" id="path4738" mix-blend-mode="normal" solid-color="#000000" opacity="0.75" color-interpolation-filters="linearRGB" color="#000000" image-rendering="auto" color-rendering="auto" fill-rule="evenodd" isolation="auto" color-interpolation="sRGB" solid-opacity="1" fill="#a4a4a4" shape-rendering="auto"/>
 <path d="m 197.80755,461.31547 8.47747,30.37759 24.72594,-7.06456 -0.70645,-19.0743 z" id="path4745" mix-blend-mode="normal" solid-color="#000000" opacity="0.75" color-interpolation-filters="linearRGB" color="#000000" image-rendering="auto" color-rendering="auto" fill-rule="evenodd" isolation="auto" color-interpolation="sRGB" solid-opacity="1" fill="#a4a4a4" shape-rendering="auto"/>
 <path d="m 246.55298,435.88307 0,24.01949 7.06456,8.47746 15.54202,-12.00974 0,-17.66139 z" id="path4752" mix-blend-mode="normal" solid-color="#000000" opacity="0.75" color-interpolation-filters="linearRGB" color="#000000" image-rendering="auto" color-rendering="auto" fill-rule="evenodd" isolation="auto" color-interpolation="sRGB" solid-opacity="1" fill="#a4a4a4" shape-rendering="auto"/>
 <path d="m 310.13398,433.7637 0,36.73569 12.7162,1.41291 10.59684,-13.42265 -0.70646,-15.54203 z" id="path4759" mix-blend-mode="normal" solid-color="#000000" opacity="0.75" color-interpolation-filters="linearRGB" color="#000000" image-rendering="auto" color-rendering="auto" fill-rule="evenodd" isolation="auto" color-interpolation="sRGB" solid-opacity="1" fill="#a4a4a4" shape-rendering="auto"/>
 <path d="m 261.38855,480.38977 0.70646,23.31303 14.12911,10.59683 19.0743,-19.0743 -9.89038,-14.83556 z" id="path4766" mix-blend-mode="normal" solid-color="#000000" opacity="0.75" color-interpolation-filters="linearRGB" color="#000000" image-rendering="auto" color-rendering="auto" fill-rule="evenodd" isolation="auto" color-interpolation="sRGB" solid-opacity="1" fill="#a4a4a4" shape-rendering="auto"/>
 <path d="m 290.35323,387.84409 0,37.44215 13.42265,-2.11937 16.24848,-11.30329 -6.3581,-20.48721 z" id="path4773" mix-blend-mode="normal" solid-color="#000000" opacity="0.75" color-interpolation-filters="linearRGB" color="#000000" image-rendering="auto" color-rendering="auto" fill-rule="evenodd" isolation="auto" color-interpolation="sRGB" solid-opacity="1" fill="#a4a4a4" shape-rendering="auto"/>
 <path d="m 129.28136,533.37393 0,26.13886 18.36785,4.94519 12.7162,-8.47747 -2.82582,-19.78075 z" id="path4780" mix-blend-mode="normal" solid-color="#000000" opacity="0.75" color-interpolation-filters="linearRGB" color="#000000" image-rendering="auto" color-rendering="auto" fill-rule="evenodd" isolation="auto" color-interpolation="sRGB" solid-opacity="1" fill="#a4a4a4" shape-rendering="auto"/>
 <path d="M 296.00487,554.5676 281.87576,580 l 36.02923,0 -4.23873,-25.4324 z" id="path4787" mix-blend-mode="normal" solid-color="#000000" opacity="0.75" color-interpolation-filters="linearRGB" color="#000000" image-rendering="auto" color-rendering="auto" fill-rule="evenodd" isolation="auto" color-interpolation="sRGB" solid-opacity="1" fill="#a4a4a4" shape-rendering="auto"/>
 <path d="M 355.34714,580 368.76979,555.27406 389.257,556.68697 378.66017,580 Z" id="path4794" mix-blend-mode="normal" solid-color="#000000" opacity="0.75" color-interpolation-filters="linearRGB" color="#000000" image-rendering="auto" color-rendering="auto" fill-rule="evenodd" isolation="auto" color-interpolation="sRGB" solid-opacity="1" fill="#a4a4a4" shape-rendering="auto"/>
 <path d="m 317.19854,510.76736 4.94519,16.95493 19.0743,14.12911 9.18392,-18.36784 -10.59683,-15.54203 z" id="path4801" mix-blend-mode="normal" solid-color="#000000" opacity="0.75" color-interpolation-filters="linearRGB" color="#000000" image-rendering="auto" color-rendering="auto" fill-rule="evenodd" isolation="auto" color-interpolation="sRGB" solid-opacity="1" fill="#a4a4a4" shape-rendering="auto"/>
 <path d="m 382.19245,454.25091 0,19.78076 13.42265,14.12911 20.48721,-21.19367 -14.83556,-18.36784 z" id="path4803" mix-blend-mode="normal" solid-color="#000000" opacity="0.75" color-interpolation-filters="linearRGB" color="#000000" image-rendering="auto" color-rendering="auto" fill-rule="evenodd" isolation="auto" color-interpolation="sRGB" solid-opacity="1" fill="#a4a4a4" shape-rendering="auto"/>
 <path d="m 360.29233,406.91839 0.70645,19.0743 30.37759,-15.54202 z" id="path4805" mix-blend-mode="normal" solid-color="#000000" opacity="0.75" color-interpolation-filters="linearRGB" color="#000000" image-rendering="auto" color-rendering="auto" fill-rule="evenodd" isolation="auto" color-interpolation="sRGB" solid-opacity="1" fill="#a4a4a4" shape-rendering="auto"/>
 <path d="m 430.93788,419.63459 9.89038,-10.59683 20.48721,0 -4.23873,20.48721 -9.18393,12.7162 z" id="path4812" mix-blend-mode="normal" solid-color="#000000" opacity="0.75" color-interpolation-filters="linearRGB" color="#000000" image-rendering="auto" color-rendering="auto" fill-rule="evenodd" isolation="auto" color-interpolation="sRGB" solid-opacity="1" fill="#a4a4a4" shape-rendering="auto"/>
</svg>
