<?xml version="1.0" encoding="UTF-8" standalone="no"?>
<svg xmlns="http://www.w3.org/2000/svg" width="580" height="580" version="1.0">
 <metadata id="metadata7"/>
 <rect id="rect4858" width="580" height="580" mix-blend-mode="normal" solid-color="#000000" color-interpolation-filters="linearRGB" fill-opacity="0.8" color="#000000" image-rendering="auto" color-rendering="auto" fill-rule="evenodd" isolation="auto" color-interpolation="sRGB" solid-opacity="1" fill="#f0f6ed" shape-rendering="auto"/>
 <path d="m 43.814269,84.796871 c -5.391017,20.626269 -3.554501,44.295499 9.850996,61.590899 9.751342,13.7007 23.468031,26.7511 40.916573,28.66142 11.829812,0.18461 22.699732,-6.1617 31.845012,-13.09089 11.62324,-9.20941 22.41611,-20.5478 27.66189,-34.65005 4.37667,-13.47144 3.15604,-29.164126 -4.52599,-41.198786 -5.71928,-7.05404 -15.82938,-11.451308 -17.03582,-21.42484 C 130.82105,56.365562 132.3302,45.749738 124.36543,40.24408 117.04502,34.701241 106.4216,35.853999 99.850661,29.093513 92.392149,25.157126 84.201633,30.507171 78.076144,34.718156 61.447793,46.812873 49.376189,65.086698 43.814269,84.796871 Z" id="path4830" mix-blend-mode="normal" solid-color="#000000" opacity="0.8" color-interpolation-filters="linearRGB" color="#000000" image-rendering="auto" color-rendering="auto" fill-rule="evenodd" isolation="auto" color-interpolation="sRGB" solid-opacity="1" fill="#bccfb5" shape-rendering="auto"/>
 <path d="m 334.21117,45.058348 c -6.73407,8.407174 -4.23259,19.851043 -4.60137,29.780427 -0.25355,8.516761 -1.11582,17.138792 -3.15912,25.393105 -4.01782,6.79006 -14.47317,5.24356 -17.90548,12.87489 -6.98235,10.40316 -10.7704,23.28736 -9.86701,35.81872 1.75422,17.80318 14.73464,32.12831 29.75226,40.66452 15.85355,9.68152 35.86311,13.56079 53.67326,7.14092 17.60896,-5.22483 35.80673,-16.342 41.29595,-34.94309 4.05596,-13.73876 4.30764,-28.47586 2.47298,-42.60235 -1.5164,-10.47953 -6.40862,-21.689469 -16.77916,-26.02831 -8.40219,-4.778653 -17.93331,-7.199068 -26.34357,-11.881553 -8.44802,-6.477831 -6.61852,-18.339592 -10.61406,-27.135085 -4.88506,-9.074979 -15.9329,-10.322119 -24.91451,-12.549856 -4.56202,-0.77137 -9.6899,-0.0335 -13.01017,3.467662 z" id="path4832" mix-blend-mode="normal" solid-color="#000000" opacity="0.8" color-interpolation-filters="linearRGB" color="#000000" image-rendering="auto" color-rendering="auto" fill-rule="evenodd" isolation="auto" color-interpolation="sRGB" solid-opacity="1" fill="#bccfb5" shape-rendering="auto"/>
 <path d="m 98.846606,278.99611 c -10.841745,26.74636 -19.132174,56.12 -13.638125,85.10514 2.889177,16.11974 16.430569,28.76946 32.286389,31.98362 17.10648,3.56373 34.8668,4.8242 52.29074,3.1706 17.617,-1.47148 34.02697,-10.17207 45.69641,-23.34178 22.40951,-23.98073 32.59462,-57.93748 30.54433,-90.36225 -1.14038,-8.94489 -5.06336,-21.04922 -15.87806,-21.34692 -10.14656,1.0036 -22.87675,7.8839 -29.18085,-4.65253 -8.22291,-12.89172 -12.40636,-28.19519 -22.54668,-39.92503 -4.89997,-9.01415 -16.6976,-18.38102 -26.85157,-11.40942 -23.93393,15.08789 -43.29812,48.60435 -52.722584,70.77857 z" id="path4848" mix-blend-mode="normal" solid-color="#000000" opacity="0.8" color-interpolation-filters="linearRGB" color="#000000" image-rendering="auto" color-rendering="auto" fill-rule="evenodd" isolation="auto" color-interpolation="sRGB" solid-opacity="1" fill="#bccfb5" shape-rendering="auto"/>
 <path d="m 480.93802,210.12606 c -11.63609,9.74268 -16.2093,24.78047 -23.33807,37.65057 -9.4887,20.24227 -19.61876,40.92974 -22.01621,63.44155 -0.87227,9.76019 4.59084,18.90193 11.00243,25.7855 7.40146,7.747 18.33163,11.27489 28.8936,10.1997 11.13059,-0.078 22.76791,-3.75846 30.06463,-12.55995 5.68972,-4.78866 12.04403,-9.0428 18.56992,-12.4483 8.83801,-1.60166 13.93732,-10.47257 14.98525,-18.77318 2.88594,-13.86556 3.06361,-28.56909 -0.65495,-42.27791 -3.41375,-9.81359 -11.74298,-16.4895 -17.91883,-24.43907 -5.71628,-8.30035 -5.92575,-18.73875 -9.20007,-27.9475 -3.04293,-8.32535 -13.65295,-10.34793 -20.56572,-5.58461 -3.52727,1.93983 -6.61517,4.54612 -9.82198,6.9532 z" id="path4850" mix-blend-mode="normal" solid-color="#000000" opacity="0.8" color-interpolation-filters="linearRGB" color="#000000" image-rendering="auto" color-rendering="auto" fill-rule="evenodd" isolation="auto" color-interpolation="sRGB" solid-opacity="1" fill="#bccfb5" shape-rendering="auto"/>
 <path d="m 83.552791,470.9738 c -10.465916,9.33051 -19.158565,20.551 -26.269256,32.5878 -3.251673,6.30141 -2.667576,13.73541 -0.286177,20.21312 4.663955,14.0549 14.193149,27.4958 28.323028,33.14789 8.948472,3.67331 19.885274,4.07836 28.111394,-1.60989 8.33462,-5.55826 14.2988,-14.03553 18.86682,-22.80806 4.16645,-8.49385 5.48884,-18.66303 1.99726,-27.62533 -4.5389,-13.39131 -15.09531,-23.5731 -25.64428,-32.47101 -4.77554,-3.87992 -10.456955,-8.04048 -16.915454,-7.55631 -3.59162,0.68659 -5.635869,3.86718 -8.183335,6.12179 z" id="path4852" mix-blend-mode="normal" solid-color="#000000" opacity="0.8" color-interpolation-filters="linearRGB" color="#000000" image-rendering="auto" color-rendering="auto" fill-rule="evenodd" isolation="auto" color-interpolation="sRGB" solid-opacity="1" fill="#bccfb5" shape-rendering="auto"/>
 <path d="m 329.11648,340.54993 c -11.32526,2.15981 -17.82449,12.76992 -24.97823,20.74304 -13.45865,19.1664 -21.78416,41.40485 -28.68537,63.62326 -4.25362,13.44428 -5.30582,27.86937 -1.8607,41.6183 3.30355,18.27099 13.46246,34.93488 28.11709,46.32154 13.44705,11.65782 31.71807,18.65679 49.56403,15.1105 10.84329,-1.45699 21.32543,-6.63957 27.95473,-15.52235 9.07179,-9.43493 22.52779,-12.6881 32.07392,-21.42074 8.1816,-9.98947 4.17278,-23.61102 2.28516,-35.08384 -4.57916,-21.45108 -12.76759,-42.16189 -23.79009,-61.09896 -12.9401,-18.78191 -30.62451,-33.57096 -47.10986,-49.08888 -3.86925,-3.0238 -8.40813,-6.09128 -13.57068,-5.20187 z" id="path4854" mix-blend-mode="normal" solid-color="#000000" opacity="0.8" color-interpolation-filters="linearRGB" color="#000000" image-rendering="auto" color-rendering="auto" fill-rule="evenodd" isolation="auto" color-interpolation="sRGB" solid-opacity="1" fill="#bccfb5" shape-rendering="auto"/>
 <path d="m 494.18419,558.60233 c -7.89744,-9.65881 -12.88947,-21.25139 -18.01286,-32.51568 -3.92796,-8.86296 -7.57025,-18.16 -7.57492,-27.99958 -0.45322,-7.40293 0.36603,-15.82647 6.17388,-21.12484 9.16917,-8.63248 23.39593,-9.87578 34.93895,-5.90061 8.91538,2.93273 16.42857,9.79414 19.80167,18.59749 5.75867,13.65931 5.23396,29.11435 1.79975,43.29225 -2.14694,8.66481 -4.87949,17.46077 -10.0379,24.84339 -3.13197,4.24293 -7.65618,8.4927 -13.3323,8.06794 -5.56357,0.92639 -10.08483,-2.59017 -13.26367,-6.73375 l -0.4926,-0.52661 z" id="path4856" mix-blend-mode="normal" solid-color="#000000" opacity="0.8" color-interpolation-filters="linearRGB" color="#000000" image-rendering="auto" color-rendering="auto" fill-rule="evenodd" isolation="auto" color-interpolation="sRGB" solid-opacity="1" fill="#bccfb5" shape-rendering="auto"/>
</svg>
