<?xml version="1.0" encoding="UTF-8" standalone="no"?>
<svg xmlns="http://www.w3.org/2000/svg" width="580" height="580" version="1.0">
 <metadata id="metadata7"/>
 <rect height="580" width="580" id="rect5099" mix-blend-mode="normal" solid-color="#000000" color-interpolation-filters="linearRGB" fill-opacity="0.65" color="#000000" image-rendering="auto" color-rendering="auto" fill-rule="evenodd" isolation="auto" color-interpolation="sRGB" solid-opacity="1" fill="#88bd8c" shape-rendering="auto"/>
 <path d="M 120.32227,9.9999988e-7 128.96875,17.291017 l 7.92578,7.205082 25.2168,2.16211 2.16211,7.92578 -12.24805,2.16211 -18.73437,14.41015 -19.45313,-15.13086 -33.14258,-5.04492 -12.96875,-17.291015 -10.73437,-7.576171 -9.73828,0 -2.58399,17.664066 9.36719,13.68945 -6.48437,5.76367 -8.64649,1.43945 -9.36523,-7.92382 L 0,37.466799 l 0,37.46484 12.24805,-2.16211 15.85156,15.85157 10.80664,2.88281 13.68945,9.365231 9.36719,-10.085931 14.41016,6.48437 2.16015,-25.21875 -13.68945,-18.01172 13.68945,-14.41015 5.76563,2.1621 5.76367,2.16211 10.80664,18.73243 9.36719,10.80664 10.08594,16.57226 18.73437,0 12.24805,-7.20508 16.57031,-2.88281 0.7207,-18.01172 27.37891,-25.21679 11.5293,-1.44141 0,-12.24805 L 196.69531,8.646486 200.29883,9.9999988e-7 Z m 96.54687,0 L 229.11719,12.968751 244.96875,11.527345 248.57227,9.9999988e-7 Z m 72.77148,0 L 286.03711,10.087892 265.86328,9.367189 l 4.32227,12.96875 7.92578,12.96875 12.96875,9.36523 20.89453,0.72071 -7.20508,9.36718 -12.96875,1.44141 -5.76367,15.13086 -7.92578,3.60156 -6.48438,-9.36718 -14.41015,-5.76368 -4.32227,-21.61523 -7.20508,-2.16016 -15.85156,20.17383 -17.29101,0.7207 -4.32422,10.80664 -9.36524,2.88282 -17.29297,2.16015 -2.88086,12.96875 -3.60351,5.76563 -9.36524,-0.7207 -22.33593,22.333981 -6.48438,10.08789 0,6.48437 5.76367,7.20508 0.72071,8.64649 -12.96875,-0.72071 -9.36719,-12.24804 -11.52735,2.88085 -7.92578,12.96876 -5.76367,5.04492 -5.76367,-2.88282 0,-18.73242 -5.76367,-7.92578 -38.9082,2.88086 -15.12891,15.13086 c -3.075171,10.9227 6.953618,34.89267 -5.415681,24.59138 l -10.734115,-7.15337 -9.0172416,21.05586 10.1893646,12.43666 25.784313,35.53041 12.24805,-11.5293 2.16211,-12.96875 8.64648,-7.92578 -2.16211,-33.14258 10.80664,-2.16211 2.88282,12.25 21.61523,0 5.04297,-7.92578 5.76367,-0.7207 -1.44141,9.36718 -7.20507,7.20313 -8.64454,5.04492 -7.92578,6.48438 -4.32422,12.96875 -3.60156,8.64648 -2.88281,12.96875 13.68945,1.44141 2.88282,4.32226 10.08789,4.32227 0,7.20508 -16.57227,4.32422 -8.64648,5.76367 -9.36524,-7.92578 -27.3789,-0.72071 -5.76563,8.64649 -8.64453,-11.5293 -12.96875,15.13086 7.20508,10.80859 15.84961,18.73243 11.52929,0.7207 -5.04492,10.08594 -21.61523,21.61523 -3.60157,12.96875 L 0,333.58984 l 0,36.34571 12.24805,17.6914 4.32422,12.24805 5.76367,-0.71875 10.80664,-11.5293 12.96875,-8.64648 -2.88086,-8.64453 -23.05664,0.7207 -5.04297,-9.36719 8.64649,-1.4414 6.48437,-7.20508 20.17383,-0.7207 5.76367,-13.68946 4.32227,-3.60156 18.01171,3.60156 10.0879,-12.24804 15.85156,1.4414 5.04296,7.20508 -2.88281,7.20508 5.04492,3.60156 14.41016,-13.68945 10.08594,-10.08594 1.4414,-27.37891 5.76368,-10.08789 -2.16211,-16.57031 -6.48438,-5.04492 2.16211,-32.42188 -17.29297,-22.33593 -2.16015,-10.80664 9.36523,2.88281 3.60352,8.64453 26.6582,0 12.96875,5.04492 11.52734,11.52734 5.76563,15.13086 -20.17383,22.33399 -3.60352,12.9707 -6.48437,9.36524 3.60156,28.09961 18.01367,7.20507 12.96875,10.80664 -2.16211,5.76563 -41.06835,0.71875 -8.64454,12.25 -4.32422,19.45312 14.41016,7.92579 15.85156,-5.76368 -2.16211,15.12891 -23.77539,3.60352 -10.08789,12.24804 -21.61523,-21.61523 -16.57031,11.52734 0,5.04492 -12.25,0.72071 -4.32227,-14.41016 -6.48437,-0.7207 -12.96875,10.80664 -0.72071,22.33594 11.52735,6.48437 11.52929,0 12.24805,11.52734 2.88086,10.0879 12.25,6.48437 0,12.24805 13.68945,-4.32227 5.04297,-11.5293 2.16211,-13.68945 17.29102,-12.96875 12.24804,-5.04297 7.20508,-7.92578 9.36719,1.44141 17.29101,-8.64649 16.57227,-6.48437 2.16016,-5.76367 17.29296,0.7207 7.20508,-7.92578 12.24805,-3.60156 28.09961,-24.49805 1.44141,-20.17383 7.92578,2.88281 0.7207,-18.01367 -13.68945,-0.71875 -4.32422,-8.64648 -3.60156,-30.26172 -5.04493,-7.20508 -18.01171,-17.29102 -11.52735,2.16211 -10.80859,-10.80859 -12.24805,-0.7207 -7.92578,-5.04297 0,-12.24805 -7.20508,-11.5293 -2.16015,-10.08593 -5.04493,-3.60352 -2.88086,-39.62695 -22.33593,-23.05469 3.60351,-11.5293 11.52735,0 12.24804,-2.88086 0,-12.96875 8.64649,-5.04492 7.20507,7.92578 9.36524,9.36719 -10.08594,9.36524 -10.08789,5.04492 -1.43945,12.24804 19.45312,7.20508 9.36524,-15.85156 7.92578,5.76367 3.60351,10.8086 9.36524,-2.88282 10.80859,9.36719 11.52735,-2.16211 12.24804,1.44141 8.64649,-10.08789 7.20508,-2.16016 5.04296,-7.92578 5.76368,0 0,10.80664 -11.52735,10.08789 17.29102,15.13086 12.25,-1.44141 6.48437,-8.64648 7.20508,2.88281 12.24805,-10.08789 8.64648,-2.16211 14.40821,-7.92383 7.20507,-15.85156 -15.1289,-0.7207 -20.17383,-23.77539 -4.32422,-22.335941 -18.73242,-4.32422 -10.80664,-13.68945 0.71875,-9.36523 11.52929,-7.92579 12.24805,-1.4414 5.04297,-8.64649 20.17383,-1.43945 -7.92578,10.80664 -15.12891,10.80664 -2.88281,10.8086 54.75781,10.08593 12.24805,12.25 5.04492,-8.64648 -3.60352,-32.42188 -5.04296,-10.80859 -9.36719,-5.76367 -7.92578,-10.80664 2.88281,-10.808596 18.73242,-2.160156 L 400.5957,9.9999988e-7 l -46.16797,0 C 332.34409,0.084111 310.16167,0.199889 289.64062,9.9999988e-7 Z m 138.33399,0 L 417.16797,15.851563 l 6.48437,15.128906 0,12.25 29.54102,20.89453 7.20508,-6.48437 8.64453,10.80664 12.96875,0.7207 -0.7207,15.13086 L 464,81.416019 l -3.60156,-7.20508 -15.13086,0 0,10.08789 -8.64649,7.92383 -5.04297,13.689451 -17.29296,-5.04297 -6.48438,4.32422 10.08789,12.96875 -7.20508,12.24805 -4.32421,44.66992 -6.48438,5.76367 -20.17383,-17.29102 -12.96875,9.36719 -8.64453,17.29102 -7.92578,6.48437 -15.13086,-14.41015 -10.08789,3.60351 -11.52734,7.20508 -11.52735,7.20508 -6.48437,0 -0.72071,9.36523 7.92579,11.5293 -12.25,-2.88281 -5.04297,7.92578 -20.89453,2.88086 0.7207,-12.96875 -5.04297,-20.89453 -24.49805,-18.01172 -26.6582,2.88281 3.60352,9.36523 8.64648,10.08789 -5.04492,8.64454 18.73437,8.64648 25.9375,36.02539 3.60157,11.52735 12.24804,10.08789 -3.60156,10.08593 19.45312,15.13086 15.85157,0.72071 1.4414,-23.77735 -12.25,-8.64453 2.88282,-6.48437 21.61523,3.60156 19.45312,17.29297 10.80665,-12.25 -0.72071,-8.64453 -10.80664,-5.76368 11.52735,-13.68945 31.70312,0 27.37891,-30.26172 -0.72071,-28.09961 14.41016,-5.04297 11.52734,-10.80859 -8.64648,-14.4082 8.64648,-15.13086 2.16211,-13.68946 12.96875,-16.57226 20.89453,2.16211 6.48438,7.20508 -0.7207,18.73242 7.92578,0 23.05468,-22.33594 0,-3.60156 11.5293,-2.88281 -3.60351,10.08789 26.6582,1.4414 8.64648,-10.08789 7.92579,3.60352 -7.92579,8.64453 -1.4414,13.68945 7.20508,10.08789 14.48267,14.30912 5.09469,-24.3762 -10.21018,-20.19464 0,-11.52734 -20.17383,-9.367191 -14.41015,-6.48437 -32.42188,4.32422 -2.88281,-10.8086 30.26172,-3.60156 -3.60352,-16.57226 -15.85156,-1.44141 -0.71875,-5.04297 -14.41015,-0.7207 -14.41016,-10.80664 5.04297,-9.36719 20.89453,-14.410156 11.52734,-2.88086 L 529.56445,9.9999988e-7 l -20.17383,0 L 500.74609,10.806642 488.49609,9.9999988e-7 Z M 580,37.466799 l -33.86328,10.08594 0,16.57226 16.57226,20.17383 L 580,74.210939 Z m -48.99414,108.074221 -7.20508,1.43945 -23.77539,25.21875 -2.16211,19.45312 11.52734,11.52735 -15.8496,12.24804 -14.41016,1.44141 -9.36719,-11.52734 -8.64648,2.88086 -7.20508,9.36718 -2.16016,-10.08593 -25.9375,0 0,12.96875 -15.85156,16.57031 -1.44141,8.64648 18.01172,19.45313 11.5293,12.24804 -44.67188,5.04493 -5.04296,-10.8086 -15.13086,0 -2.88086,9.36719 -6.48438,7.92578 -19.45312,1.43946 0,9.36718 -9.36719,9.36719 2.16211,7.92578 -9.36719,10.80664 -12.24805,-3.60351 -24.49804,20.17578 -0.7207,20.89258 19.45507,26.66015 15.84961,0.71875 5.76367,-12.24804 7.92579,10.80859 10.08789,-10.08789 33.14257,-3.60156 -0.7207,-15.13086 -12.96875,-7.20508 0.7207,-14.41016 8.64649,-4.32226 27.3789,0 2.88086,-7.92578 5.76368,-2.88282 2.16211,14.41016 46.83203,4.32422 -1.44141,-10.8086 7.20508,-6.48437 7.20508,0 30.98242,-32.42188 0,-3.60351 -18.01367,-1.43946 0,-8.64648 13.68945,-1.44141 3.60352,-5.76367 8.64648,-2.16211 0,7.20508 14.4082,5.04297 5.04493,7.20508 23.77539,-0.7207 L 580,270.18555 l 0,-32.42188 -13.68945,-12.24805 -4.32227,-14.41015 -23.77734,-26.6582 -2.16211,-5.76368 6.48437,-8.64648 2.88282,-10.08594 z m 31.70312,164.99218 -26.66015,0.72071 -10.80664,8.64648 -9.36719,4.32227 -12.24805,4.32422 -14.41015,8.64648 0,25.9375 -6.48438,13.68945 -0.7207,10.08594 -12.24805,10.08789 -5.76367,0.7207 -7.92578,15.84961 3.60351,8.64649 13.68946,4.32226 -2.16211,9.36719 -43.23047,1.44141 0,8.64648 15.85156,9.36524 10.80664,4.32421 12.25,0.72071 5.76367,10.08594 0,6.48437 8.64454,12.24805 2.1621,9.36718 10.0879,0.72071 3.60156,5.04297 2.16211,27.3789 -15.13086,11.52735 -10.08594,3.60351 -13.68945,4.32227 -1.44141,-3.60157 -10.80859,-2.88281 -18.73242,24.49805 L 427.97461,580 c 53.93003,0 76.86849,-1.7543 115.2793,-44.66992 l 17.29297,-1.44141 -0.72071,-7.20508 C 566.57225,525.64574 573.3099,524.58381 580,523.2207 l 0,-32.1582 -17.29102,9.68359 -1.4414,15.84961 -10.8086,-2.16015 -12.96875,-6.48438 -19.45312,17.29102 -5.76367,-18.73242 -3.60352,-12.24805 17.29297,-23.05664 -3.60351,-25.9375 -12.96876,-13.68946 6.48438,-4.32421 0.7207,-17.29102 -7.92578,0.7207 -16.57031,-10.08789 6.48437,-9.36523 -1.4414,-19.45313 L 520.91992,348 l 10.80664,-5.76367 2.88282,-10.8086 7.92382,-6.48437 12.97071,10.08789 7.92382,0 16.57227,33.14258 0,-34.58399 z m -295.40429,69.88868 -10.08789,10.80859 -18.01172,1.43945 -19.45313,7.92578 -12.24804,8.64649 2.16015,12.96875 21.61524,4.32226 13.68945,15.13086 -5.76367,25.9375 -39.62696,2.88282 2.16016,15.13085 -24.49609,1.44141 -5.76367,-7.20508 -21.61524,2.16016 -3.60156,10.08789 -8.64649,-10.08789 -9.36718,-3.60156 2.16211,26.6582 20.17382,0 -0.7207,10.08789 -10.08594,2.88086 -21.61523,10.08789 -8.64649,-7.92578 5.04297,-10.08789 -20.89453,-10.80664 0,15.85156 -17.29101,10.08594 1.4414,7.92578 24.4961,-1.44141 5.04297,9.36719 -4.32227,12.24805 -15.13086,-1.44141 -11.52734,15.13086 6.48437,8.64648 c 9.12631,0 6.72526,2.16016 15.85157,2.16016 l 2.16015,-5.76367 6.48438,0 12.25,7.92578 81.41601,-0.7207 7.20508,-5.76368 9.36719,5.76368 28.09765,0.7207 5.04297,-13.68945 20.89453,-4.32227 2.16211,-21.61523 18.01172,-14.41016 18.01367,18.73242 L 295.4043,561.26758 291.08008,580 400.5957,580 396.27344,561.98828 373.9375,533.88867 348,528.84375 l -4.32227,-7.92383 14.41016,-10.80859 6.48438,-9.36524 4.32226,-2.16211 5.04297,12.24805 26.6582,30.98242 30.26172,0 10.80664,-5.04492 11.5293,-1.43945 1.43945,-48.27344 -15.1289,-0.7207 -7.20508,-15.13086 -26.65821,-6.48438 -7.92578,-20.17382 -15.13086,0 -6.48437,30.25976 -12.96875,-13.68945 -10.08789,-7.92383 -15.84961,-1.44141 -2.16211,18.01172 7.92578,19.45313 -10.80859,10.80859 -18.73242,-16.57227 -2.16211,-20.89453 -33.14258,-2.88086 15.85156,-15.13085 20.17383,-0.72071 3.60156,-33.14258 -18.01172,-12.24804 -18.73242,-7.20508 z m 138.33593,0.7207 -11.52929,4.32422 -12.24805,12.96875 -28.09961,0.7207 -9.36523,13.6875 0,15.85156 16.57031,-1.4414 7.20508,7.20507 15.13086,-11.52734 19.45312,2.88281 12.96875,-8.64648 26.65821,-1.44141 -0.72071,-7.92578 -7.20508,-12.24805 -11.52734,3.60352 z m 136.17383,25.9375 -11.52929,2.88281 -3.60157,10.80664 1.44141,13.68945 12.96875,4.32422 13.68945,12.24805 10.08594,0.7207 4.32422,7.92578 10.80664,0.72071 0,-25.21875 -10.08789,-10.08594 -8.64453,-10.08789 -12.96875,-1.44141 z M 0,435.35352 l 0,25.76367 13.68945,2.16211 2.88282,3.60351 5.04297,15.12891 7.92578,7.20508 -7.92578,5.04492 -3.60352,10.08594 L 0,492.17383 l 0,25.75 c 0.0853,1.40916 0.16924,2.77362 0.23828,4.80859 0.22011,6.48697 14.76611,0.85068 26.6875,-4.88476 11.9214,-5.73543 13.84924,-5.9584 44.6875,-12.09571 l -3.88672,-8.60937 10.80664,-10.80664 2.88282,-11.5293 -11.52735,-14.4082 10.80664,-9.36719 -0.7207,-13.68945 -11.52734,0 -18.01172,8.64648 -0.7207,7.92383 -11.5293,0 -2.88086,-10.08594 z m 561.26758,35.85156 -15.13086,4.32226 -8.64649,5.04493 -2.88085,8.64453 27.3789,-1.43946 z m -332.86914,41.06836 11.52734,11.52734 7.20508,0.7207 -3.60352,10.8086 -10.80664,-2.16211 -10.08789,-14.41016 z m -29.54102,10.08594 12.96875,18.73437 5.76367,10.80664 -5.76367,9.36719 -55.47851,0.7207 -2.16211,-28.82031 8.64648,-8.64649 13.68945,9.36719 11.52735,-0.7207 z" id="rect4978" mix-blend-mode="normal" solid-color="#000000" color-interpolation-filters="linearRGB" fill-opacity="0.35" color="#000000" image-rendering="auto" color-rendering="auto" fill-rule="evenodd" isolation="auto" color-interpolation="sRGB" solid-opacity="1" fill="#89be8c" shape-rendering="auto"/>
</svg>
