<?xml version="1.0" encoding="UTF-8" standalone="no"?>
<svg xmlns="http://www.w3.org/2000/svg" version="1.0" width="580" height="580">
 <metadata id="metadata10"/>
 <path id="path3069" d="m 367.71682,490.34944 c -2.16553,0.0534 -4.27202,-0.70914 -5.90156,-2.13637 l -44.54161,-39.03798 c -3.76912,-3.30357 -3.94275,-9.11158 -0.3777,-12.6344 l 54.25896,-53.60135 c -20.56718,-22.27705 -41.23469,-44.49198 -61.96977,-66.66235 -3.26016,-3.48585 -3.07361,-8.95555 0.41648,-12.21117 5.16332,-4.81563 10.31968,-9.63117 15.47896,-14.45377 3.54482,-3.3135 9.12322,-3.05603 12.34774,0.56993 20.86236,23.46773 41.78248,46.88023 62.78418,70.17798 2.47758,-1.60033 5.81757,-4.14391 9.21993,-7.07006 3.59079,-3.08822 7.20546,-6.47772 10.03939,-9.31098 2.83394,-2.83325 5.25769,-5.79899 4.95563,-5.34682 0.79827,-1.19466 1.88205,-2.17123 3.15312,-2.84117 l 73.03097,-38.49841 c 8.75306,-4.55233 17.06401,6.76854 10.09842,13.75569 -0.0565,0.0509 0.22014,-0.21903 0.18042,-0.15513 -0.27148,0.43671 -0.76701,1.30947 -1.35736,2.4365 -1.18069,2.25407 -2.78523,5.56222 -4.62345,9.4914 -3.67645,7.85838 -8.32249,18.25435 -13.01378,28.72375 -4.69131,10.46938 -9.42732,21.01293 -13.36789,29.32906 -1.97028,4.15807 -3.73406,7.74762 -5.25744,10.59752 -0.7617,1.42495 -1.45591,2.65977 -2.16166,3.77869 -0.70328,1.11501 -1.06662,1.98162 -2.89514,3.5814 l -0.005,0.003 c -5.94363,5.21031 -13.10318,11.64081 -20.16648,17.9829 l 8.82199,8.59099 c 3.65095,3.55589 3.44363,9.48389 -0.44683,12.77604 l -11.89755,10.063 c -3.40487,2.87957 -8.44246,2.6925 -11.62438,-0.43166 l -9.08672,-8.92316 c -18.96564,17.52563 -37.79261,35.5235 -49.9643,48.68788 -1.58446,1.71298 -3.79479,2.7117 -6.12751,2.76867 z M 250.57252,249.8878 c -2.29633,-0.0733 -4.46878,-1.05875 -6.03645,-2.73832 -3.65102,-3.91397 -7.31814,-7.82996 -10.98534,-11.7694 L 127.15908,121.57101 c -3.28461,-3.51368 -3.06471,-9.03398 0.48898,-12.27525 l 20.53069,-18.723133 c 3.55405,-3.24108 9.07141,-2.95292 12.26851,0.64075 l 103.55721,116.399013 0.0135,0.0135 c 3.43237,3.84188 6.82569,7.68116 10.21813,11.48612 3.08071,3.45645 2.88656,8.72768 -0.44009,11.94813 -5.64249,5.46121 -11.284,10.93881 -16.94759,16.40971 -1.67916,1.62113 -3.94311,2.49337 -6.27589,2.41796 z" shape-rendering="auto" mix-blend-mode="normal" isolation="auto" color-interpolation-filters="linearRGB" white-space="normal" opacity="0.8" fill="none" solid-opacity="1" image-rendering="auto" solid-color="#000000" stroke="#ffffff" color="#000000" stroke-linejoin="round" stroke-width="64" color-rendering="auto" vector-effect="none" shape-padding="0" color-interpolation="sRGB"/>
 <path id="path3071" d="m 225.17389,491.67982 c -1.83672,0.0399 -3.6383,-0.50703 -5.14279,-1.56139 -30.26356,-21.21948 -61.63746,-41.6109 -89.06467,-68.48171 -0.0357,-0.0351 -0.0711,-0.0705 -0.10623,-0.10623 -25.78282,-26.15494 -42.412712,-58.38045 -62.504282,-85.89132 -2.81268,-3.85188 -1.96934,-9.25471 1.88344,-12.06617 l 45.603902,-33.26287 c 3.91683,-2.85641 9.4171,-1.92904 12.18082,2.05373 l 45.81466,66.03005 c 0.96052,-1.17236 2.15437,-2.582 3.85119,-4.2036 l -0.11298,0.1096 c 49.65987,-49.24275 98.784,-99.22563 148.30455,-148.82725 l -0.0135,0.0118 109.85841,-110.494093 c 3.39127,-3.40986 8.91495,-3.39166 12.28367,0.0405 l 19.46336,19.832623 c 3.368,3.43264 3.28232,8.95548 -0.19054,12.28199 l -112.54111,107.76077 0.0118,-0.0135 C 304.22912,283.47138 253.32939,331.64836 203.16107,380.373 l 0.11465,-0.11297 c -1.653,1.66576 -3.08596,2.8337 -4.27609,3.77195 l 65.15491,47.04892 c 3.93055,2.83812 4.7544,8.35536 1.82443,12.21792 l -34.11439,44.96821 c -1.59269,2.09887 -4.05656,3.35564 -6.69069,3.41279 z" shape-rendering="auto" mix-blend-mode="normal" isolation="auto" color-interpolation-filters="linearRGB" white-space="normal" opacity="0.8" fill="none" solid-opacity="1" image-rendering="auto" solid-color="#000000" stroke="#ffffff" color="#000000" stroke-linejoin="round" stroke-width="64" color-rendering="auto" vector-effect="none" shape-padding="0" color-interpolation="sRGB"/>
 <path d="m 367.71682,490.34944 c -2.16553,0.0534 -4.27202,-0.70914 -5.90156,-2.13637 l -44.54161,-39.03798 c -3.76912,-3.30357 -3.94275,-9.11158 -0.3777,-12.6344 l 54.25896,-53.60135 c -20.56718,-22.27705 -41.23469,-44.49198 -61.96977,-66.66235 -3.26016,-3.48585 -3.07361,-8.95555 0.41648,-12.21117 5.16332,-4.81563 10.31968,-9.63117 15.47896,-14.45377 3.54482,-3.3135 9.12322,-3.05603 12.34774,0.56993 20.86236,23.46773 41.78248,46.88023 62.78418,70.17798 2.47758,-1.60033 5.81757,-4.14391 9.21993,-7.07006 3.59079,-3.08822 7.20546,-6.47772 10.03939,-9.31098 2.83394,-2.83325 5.25769,-5.79899 4.95563,-5.34682 0.79827,-1.19466 1.88205,-2.17123 3.15312,-2.84117 l 73.03097,-38.49841 c 8.75306,-4.55233 17.06401,6.76854 10.09842,13.75569 -0.0565,0.0509 0.22014,-0.21903 0.18042,-0.15513 -0.27148,0.43671 -0.76701,1.30947 -1.35736,2.4365 -1.18069,2.25407 -2.78523,5.56222 -4.62345,9.4914 -3.67645,7.85838 -8.32249,18.25435 -13.01378,28.72375 -4.69131,10.46938 -9.42732,21.01293 -13.36789,29.32906 -1.97028,4.15807 -3.73406,7.74762 -5.25744,10.59752 -0.7617,1.42495 -1.45591,2.65977 -2.16166,3.77869 -0.70328,1.11501 -1.06662,1.98162 -2.89514,3.5814 l -0.005,0.003 c -5.94363,5.21031 -13.10318,11.64081 -20.16648,17.9829 l 8.82199,8.59099 c 3.65095,3.55589 3.44363,9.48389 -0.44683,12.77604 l -11.89755,10.063 c -3.40487,2.87957 -8.44246,2.6925 -11.62438,-0.43166 l -9.08672,-8.92316 c -18.96564,17.52563 -37.79261,35.5235 -49.9643,48.68788 -1.58446,1.71298 -3.79479,2.7117 -6.12751,2.76867 z M 250.57252,249.8878 c -2.29633,-0.0733 -4.46878,-1.05875 -6.03645,-2.73832 -3.65102,-3.91397 -7.31814,-7.82996 -10.98534,-11.7694 L 127.15908,121.57101 c -3.28461,-3.51368 -3.06471,-9.03398 0.48898,-12.27525 l 20.53069,-18.723133 c 3.55405,-3.24108 9.07141,-2.95292 12.26851,0.64075 l 103.55721,116.399013 0.0135,0.0135 c 3.43237,3.84188 6.82569,7.68116 10.21813,11.48612 3.08071,3.45645 2.88656,8.72768 -0.44009,11.94813 -5.64249,5.46121 -11.284,10.93881 -16.94759,16.40971 -1.67916,1.62113 -3.94311,2.49337 -6.27589,2.41796 z" id="path3604" shape-rendering="auto" mix-blend-mode="normal" isolation="auto" color-interpolation-filters="linearRGB" white-space="normal" fill="#c9820d" solid-opacity="1" image-rendering="auto" solid-color="#000000" color="#000000" color-rendering="auto" vector-effect="none" shape-padding="0" color-interpolation="sRGB"/>
 <path d="m 225.17389,491.67982 c -1.83672,0.0399 -3.6383,-0.50703 -5.14279,-1.56139 -30.26356,-21.21948 -61.63746,-41.6109 -89.06467,-68.48171 -0.0357,-0.0351 -0.0711,-0.0705 -0.10623,-0.10623 -25.78282,-26.15494 -42.412712,-58.38045 -62.504282,-85.89132 -2.81268,-3.85188 -1.96934,-9.25471 1.88344,-12.06617 l 45.603902,-33.26287 c 3.91683,-2.85641 9.4171,-1.92904 12.18082,2.05373 l 45.81466,66.03005 c 0.96052,-1.17236 2.15437,-2.582 3.85119,-4.2036 l -0.11298,0.1096 c 49.65987,-49.24275 98.784,-99.22563 148.30455,-148.82725 l -0.0135,0.0118 109.85841,-110.494093 c 3.39127,-3.40986 8.91495,-3.39166 12.28367,0.0405 l 19.46336,19.832623 c 3.368,3.43264 3.28232,8.95548 -0.19054,12.28199 l -112.54111,107.76077 0.0118,-0.0135 C 304.22912,283.47138 253.32939,331.64836 203.16107,380.373 l 0.11465,-0.11297 c -1.653,1.66576 -3.08596,2.8337 -4.27609,3.77195 l 65.15491,47.04892 c 3.93055,2.83812 4.7544,8.35536 1.82443,12.21792 l -34.11439,44.96821 c -1.59269,2.09887 -4.05656,3.35564 -6.69069,3.41279 z" id="path3621" shape-rendering="auto" mix-blend-mode="normal" isolation="auto" color-interpolation-filters="linearRGB" white-space="normal" fill="#c9820d" solid-opacity="1" image-rendering="auto" solid-color="#000000" color="#000000" color-rendering="auto" vector-effect="none" shape-padding="0" color-interpolation="sRGB"/>
</svg>
