<?xml version="1.0" encoding="UTF-8" standalone="no"?>
<svg xmlns="http://www.w3.org/2000/svg" version="1.0" width="580" height="580">
 <metadata id="metadata2975"/>
 <path id="path4189" d="m 98,255 c -5.2,2.8 -6.2,9.8 -2.1,13.8 14,19.6 17,16.5 36,8.7 l 0,210 c 0,4.8 3.8,8.8 8.8,8.8 l 23.4,0 c 4.8,0 8.8,-3.9 8.8,-8.8 0,-80 -0.1,-135 -0.1,-226 l 6.2,-2.5 110,-13 110,13.2 4.4,1.8 c -0.4,75 -0.2,151 -0.2,226 0,4.8 3.8,8.8 8.8,8.8 l 23.4,0 c 4.8,0 8.7,-3.9 8.8,-8.8 l 0,-210 c 24.7,10.4 20.5,10.2 38,-8 4,-4.1 3.1,-11 -2.1,-13.8 L 294,156 c -2.6,-1.3 -5.7,-1.4 -8,0.05 z" mix-blend-mode="normal" solid-color="#000000" opacity="0.8" color-interpolation-filters="linearRGB" filter-gaussianBlur-deviation="0" color="#000000" image-rendering="auto" color-rendering="auto" stroke-width="64" isolation="auto" color-interpolation="sRGB" solid-opacity="1" fill="none" stroke-linejoin="round" filter-blend-mode="normal" stroke="#ffffff" shape-rendering="auto"/>
 <path id="path4191" d="m 310.9,322.9 c 13.2,-1 22.6,-10.8 22.8,-22.8 -1,-13 -10.9,-22.6 -22.8,-22.8 -13.3,1 -22.5,10.7 -22.7,22.8 1,13.4 10.5,22.6 22.7,22.8 z" mix-blend-mode="normal" solid-color="#000000" opacity="0.8" color-interpolation-filters="linearRGB" filter-gaussianBlur-deviation="0" color="#000000" image-rendering="auto" color-rendering="auto" stroke-width="64" isolation="auto" color-interpolation="sRGB" solid-opacity="1" fill="none" stroke-linejoin="round" filter-blend-mode="normal" stroke="#ffffff" shape-rendering="auto"/>
 <path id="path4193" d="m 210.3,371.5 c -2.3,3.8 -1.4,6.8 2.4,8.8 l 10.8,6.5 c 3.8,2.3 6.8,1.4 8.9,-2.4 l 33.9,-58 c 2.3,-3.8 1.5,-6.8 -2.4,-8.9 -4.9,-1.8 -7.8,-4.8 -14.8,-7.7 -2,0 -3.7,1.2 -4.9,3.65 z" mix-blend-mode="normal" solid-color="#000000" opacity="0.8" color-interpolation-filters="linearRGB" filter-gaussianBlur-deviation="0" color="#000000" image-rendering="auto" color-rendering="auto" stroke-width="64" isolation="auto" color-interpolation="sRGB" solid-opacity="1" fill="none" stroke-linejoin="round" filter-blend-mode="normal" stroke="#ffffff" shape-rendering="auto"/>
 <path id="path4195" d="m 239.6,391.4 c -2,3.4 -3,7.6 -2.7,12.5 l 1,68 -23.4,50 c -6.3,20.4 18.6,30 26.4,14.9 l 25.6,-54.9 c 0.9,-2.1 1.4,-4.2 1.4,-6.4 l -0.4,-41 26,35 7.6,62 c 8,17.7 32,11.9 29.9,-5.1 l -9,-71 c -0.9,-5.2 -4,-8.4 -7,-12.5 l -23,-32 22.4,-39 11,14.2 c 0.9,1.4 2.3,2.4 4.1,3.1 l 22.3,10.8 0,131 c 1,10.4 9.5,10 9.5,0 l 0,-130 c 10.9,-6.2 9.7,-19.3 -0.2,-22.8 l -19.4,-10.8 -27.6,-33.5 c -3.8,-4.5 -9.3,-7.3 -18.6,-8.7 -12.4,-0.4 -20,4 -25.35,13.1 z" mix-blend-mode="normal" solid-color="#000000" opacity="0.8" color-interpolation-filters="linearRGB" filter-gaussianBlur-deviation="0" color="#000000" image-rendering="auto" color-rendering="auto" stroke-width="64" isolation="auto" color-interpolation="sRGB" solid-opacity="1" fill="none" stroke-linejoin="round" filter-blend-mode="normal" stroke="#ffffff" shape-rendering="auto"/>
 <path id="path4197" d="m 163,114 c 6.4,30 36.9,54.6 68,49.8 19.8,-1.9 38.5,-13.7 49,-30.5 9.4,-4.4 21,2.7 29.7,-4.4 6.7,-4.3 11.5,-17.7 19.9,-15.2 4.7,3.2 8,11.9 14.8,10.4 6.9,-3.2 12.6,-18 19.3,-6.3 3.4,4.2 10.2,10.4 14.9,4.2 5.7,-9.2 13.7,-12 19.7,-1.4 4.3,5.6 10.3,4.4 15.7,-1 6.8,-7.2 14.9,-14 19,-23 -0.5,-9.3 -6.9,-13.3 -14,-19.8 -12,-12 -22.5,-8.8 -33.7,-8.8 -35,-0.8 -73,0.8 -105,-0.8 -14.5,-20.9 -31,-32 -56.15,-31.95 C 185.4,34.4 153,76 163,114 Z m 38.8,-29.5 c 13.9,1.3 20,23.3 6.9,30.5 -11,7 -28,-2.3 -25.4,-16 2.2,-10.4 10,-15.3 18.5,-14.5 z" mix-blend-mode="normal" solid-color="#000000" opacity="0.8" color-interpolation-filters="linearRGB" filter-gaussianBlur-deviation="0" color="#000000" image-rendering="auto" color-rendering="auto" stroke-width="64" isolation="auto" color-interpolation="sRGB" solid-opacity="1" fill="none" stroke-linejoin="round" filter-blend-mode="normal" stroke="#ffffff" shape-rendering="auto"/>
 <path d="m 163,114 c 6.4,30 36.9,54.6 68,49.8 19.8,-1.9 38.5,-13.7 49,-30.5 9.4,-4.4 21,2.7 29.7,-4.4 6.7,-4.3 11.5,-17.7 19.9,-15.2 4.7,3.2 8,11.9 14.8,10.4 6.9,-3.2 12.6,-18 19.3,-6.3 3.4,4.2 10.2,10.4 14.9,4.2 5.7,-9.2 13.7,-12 19.7,-1.4 4.3,5.6 10.3,4.4 15.7,-1 6.8,-7.2 14.9,-14 19,-23 -0.5,-9.3 -6.9,-13.3 -14,-19.8 -12,-12 -22.5,-8.8 -33.7,-8.8 -35,-0.8 -73,0.8 -105,-0.8 -14.5,-20.9 -31,-32 -56.15,-31.95 C 185.4,34.4 153,76 163,114 Z m 38.8,-29.5 c 13.9,1.3 20,23.3 6.9,30.5 -11,7 -28,-2.3 -25.4,-16 2.2,-10.4 10,-15.3 18.5,-14.5 z" id="path4199" mix-blend-mode="normal" solid-color="#000000" opacity="0.8" color-interpolation-filters="linearRGB" filter-gaussianBlur-deviation="0" color="#000000" image-rendering="auto" color-rendering="auto" stroke-width="64" isolation="auto" color-interpolation="sRGB" solid-opacity="1" fill="none" stroke-linejoin="round" filter-blend-mode="normal" stroke="#ffffff" shape-rendering="auto"/>
 <path d="m 163,114 c 6.4,30 36.9,54.6 68,49.8 19.8,-1.9 38.5,-13.7 49,-30.5 9.4,-4.4 21,2.7 29.7,-4.4 6.7,-4.3 11.5,-17.7 19.9,-15.2 4.7,3.2 8,11.9 14.8,10.4 6.9,-3.2 12.6,-18 19.3,-6.3 3.4,4.2 10.2,10.4 14.9,4.2 5.7,-9.2 13.7,-12 19.7,-1.4 4.3,5.6 10.3,4.4 15.7,-1 6.8,-7.2 14.9,-14 19,-23 -0.5,-9.3 -6.9,-13.3 -14,-19.8 -12,-12 -22.5,-8.8 -33.7,-8.8 -35,-0.8 -73,0.8 -105,-0.8 -14.5,-20.9 -31,-32 -56.15,-31.95 C 185.4,34.4 153,76 163,114 Z m 38.8,-29.5 c 13.9,1.3 20,23.3 6.9,30.5 -11,7 -28,-2.3 -25.4,-16 2.2,-10.4 10,-15.3 18.5,-14.5 z" id="path4201" mix-blend-mode="normal" solid-color="#000000" opacity="0.8" color-interpolation-filters="linearRGB" filter-gaussianBlur-deviation="0" color="#000000" image-rendering="auto" color-rendering="auto" stroke-width="64" isolation="auto" color-interpolation="sRGB" solid-opacity="1" fill="none" stroke-linejoin="round" filter-blend-mode="normal" stroke="#ffffff" shape-rendering="auto"/>
 <path d="m 98,255 c -5.2,2.8 -6.2,9.8 -2.1,13.8 14,19.6 17,16.5 36,8.7 l 0,210 c 0,4.8 3.8,8.8 8.8,8.8 l 23.4,0 c 4.8,0 8.8,-3.9 8.8,-8.8 0,-80 -0.1,-135 -0.1,-226 l 6.2,-2.5 110,-13 110,13.2 4.4,1.8 c -0.4,75 -0.2,151 -0.2,226 0,4.8 3.8,8.8 8.8,8.8 l 23.4,0 c 4.8,0 8.7,-3.9 8.8,-8.8 l 0,-210 c 24.7,10.4 20.5,10.2 38,-8 4,-4.1 3.1,-11 -2.1,-13.8 L 294,156 c -2.6,-1.3 -5.7,-1.4 -8,0.05 z" id="path4187" fill="#0092da" fill-rule="evenodd"/>
 <path d="m 310.9,322.9 c 13.2,-1 22.6,-10.8 22.8,-22.8 -1,-13 -10.9,-22.6 -22.8,-22.8 -13.3,1 -22.5,10.7 -22.7,22.8 1,13.4 10.5,22.6 22.7,22.8 z" id="path4185" fill="#0092da" fill-rule="evenodd"/>
 <path d="m 210.3,371.5 c -2.3,3.8 -1.4,6.8 2.4,8.8 l 10.8,6.5 c 3.8,2.3 6.8,1.4 8.9,-2.4 l 33.9,-58 c 2.3,-3.8 1.5,-6.8 -2.4,-8.9 -4.9,-1.8 -7.8,-4.8 -14.8,-7.7 -2,0 -3.7,1.2 -4.9,3.65 z" id="path4183" fill="#0092da" fill-rule="evenodd"/>
 <path d="m 239.6,391.4 c -2,3.4 -3,7.6 -2.7,12.5 l 1,68 -23.4,50 c -6.3,20.4 18.6,30 26.4,14.9 l 25.6,-54.9 c 0.9,-2.1 1.4,-4.2 1.4,-6.4 l -0.4,-41 26,35 7.6,62 c 8,17.7 32,11.9 29.9,-5.1 l -9,-71 c -0.9,-5.2 -4,-8.4 -7,-12.5 l -23,-32 22.4,-39 11,14.2 c 0.9,1.4 2.3,2.4 4.1,3.1 l 22.3,10.8 0,131 c 1,10.4 9.5,10 9.5,0 l 0,-130 c 10.9,-6.2 9.7,-19.3 -0.2,-22.8 l -19.4,-10.8 -27.6,-33.5 c -3.8,-4.5 -9.3,-7.3 -18.6,-8.7 -12.4,-0.4 -20,4 -25.35,13.1 z" id="path4153" fill="#0092da" fill-rule="evenodd"/>
 <path d="m 163,114 c 6.4,30 36.9,54.6 68,49.8 19.8,-1.9 38.5,-13.7 49,-30.5 9.4,-4.4 21,2.7 29.7,-4.4 6.7,-4.3 11.5,-17.7 19.9,-15.2 4.7,3.2 8,11.9 14.8,10.4 6.9,-3.2 12.6,-18 19.3,-6.3 3.4,4.2 10.2,10.4 14.9,4.2 5.7,-9.2 13.7,-12 19.7,-1.4 4.3,5.6 10.3,4.4 15.7,-1 6.8,-7.2 14.9,-14 19,-23 -0.5,-9.3 -6.9,-13.3 -14,-19.8 -12,-12 -22.5,-8.8 -33.7,-8.8 -35,-0.8 -73,0.8 -105,-0.8 -14.5,-20.9 -31,-32 -56.15,-31.95 C 185.4,34.4 153,76 163,114 Z m 38.8,-29.5 c 13.9,1.3 20,23.3 6.9,30.5 -11,7 -28,-2.3 -25.4,-16 2.2,-10.4 10,-15.3 18.5,-14.5 z" id="path2307-7" fill="#0092da"/>
 <path id="path4137" d="m 163,114 c 6.4,30 36.9,54.6 68,49.8 19.8,-1.9 38.5,-13.7 49,-30.5 9.4,-4.4 21,2.7 29.7,-4.4 6.7,-4.3 11.5,-17.7 19.9,-15.2 4.7,3.2 8,11.9 14.8,10.4 6.9,-3.2 12.6,-18 19.3,-6.3 3.4,4.2 10.2,10.4 14.9,4.2 5.7,-9.2 13.7,-12 19.7,-1.4 4.3,5.6 10.3,4.4 15.7,-1 6.8,-7.2 14.9,-14 19,-23 -0.5,-9.3 -6.9,-13.3 -14,-19.8 -12,-12 -22.5,-8.8 -33.7,-8.8 -35,-0.8 -73,0.8 -105,-0.8 -14.5,-20.9 -31,-32 -56.15,-31.95 C 185.4,34.4 153,76 163,114 Z m 38.8,-29.5 c 13.9,1.3 20,23.3 6.9,30.5 -11,7 -28,-2.3 -25.4,-16 2.2,-10.4 10,-15.3 18.5,-14.5 z" fill="#0092da"/>
 <path id="path4146" d="m 163,114 c 6.4,30 36.9,54.6 68,49.8 19.8,-1.9 38.5,-13.7 49,-30.5 9.4,-4.4 21,2.7 29.7,-4.4 6.7,-4.3 11.5,-17.7 19.9,-15.2 4.7,3.2 8,11.9 14.8,10.4 6.9,-3.2 12.6,-18 19.3,-6.3 3.4,4.2 10.2,10.4 14.9,4.2 5.7,-9.2 13.7,-12 19.7,-1.4 4.3,5.6 10.3,4.4 15.7,-1 6.8,-7.2 14.9,-14 19,-23 -0.5,-9.3 -6.9,-13.3 -14,-19.8 -12,-12 -22.5,-8.8 -33.7,-8.8 -35,-0.8 -73,0.8 -105,-0.8 -14.5,-20.9 -31,-32 -56.15,-31.95 C 185.4,34.4 153,76 163,114 Z m 38.8,-29.5 c 13.9,1.3 20,23.3 6.9,30.5 -11,7 -28,-2.3 -25.4,-16 2.2,-10.4 10,-15.3 18.5,-14.5 z" fill="#0092da"/>
</svg>
