<?xml version="1.0" encoding="UTF-8" standalone="no"?>
<svg xmlns="http://www.w3.org/2000/svg" version="1.0" width="580" height="580">
 <metadata id="metadata2975"/>
 <path id="path4155" d="m 450,57.7 c -4.7,-2.6 -9.3,-5.3 -14,-7.9 -2.3,4 -4.7,8 -7,12 l 21,12 0,27 c -7.7,-4.7 -15.3,-9.3 -23,-14 l 0,-24 -14,0 0,16 c -5.3,-3 -10.7,-6 -16,-9 -2.3,4 -4.7,8 -7,12 5.3,3 10.7,6 16,9 -4.7,2.7 -9.3,5.3 -14,8 2.3,4 4.7,8 7,12 l 21,-12 c 7.7,4.7 15.3,9.3 23,14 -7.7,4.3 -15.3,8.7 -23,13 l -21,-12 c -2.3,4.3 -4.7,8.7 -7,13 4.7,2.7 9.3,5.3 14,8 -5.3,3 -10.7,6 -16,9 2.3,4 4.7,8 7,12 5.3,-3 10.7,-6 16,-9 l 0,16 14,0 0,-24 c 7.7,-4.7 15.3,-9.3 23,-14 l 0,27 -21,12 c 2.3,4 4.7,8 7,12 4.7,-2.7 9.3,-5.3 14,-8 l 0,19 14,0 0,-19 c 4.7,2.7 9.3,5.3 14,8 2.3,-4 4.7,-8 7,-12 l -21,-12 0,-27 c 7.7,4.7 15.3,9.3 23,14 l 0,24 14,0 0,-16 c 5.3,3 10.7,6 16,9 2.3,-4 4.7,-8 7,-12 -5.3,-3 -10.7,-6 -16,-9 4.7,-2.7 9.3,-5.3 14,-8 -2.3,-4 -4.7,-8 -7,-12 l -21,12 c -7.7,-4.7 -15.3,-9.3 -23,-14 7.7,-4.3 15.3,-8.7 23,-13 l 21,12 c 2.3,-4.3 4.7,-8.7 7,-13 -4.7,-2.7 -9.3,-5.3 -14,-8 5.3,-3 10.7,-6 16,-9 -2.3,-4 -4.7,-8 -7,-12 -5.3,3 -10.7,6 -16,9 l 0,-16 -14,0 0,24 c -7.7,4.7 -15.3,9.3 -23,14 l 0,-27 21,-12 c -2.3,-4 -4.7,-8 -7,-12 -4.7,2.7 -9.3,5.3 -14,8 l 0,-18.8 -14,0 z" mix-blend-mode="normal" solid-color="#000000" opacity="0.8" color-interpolation-filters="linearRGB" filter-gaussianBlur-deviation="0" color="#000000" image-rendering="auto" color-rendering="auto" stroke-width="64" isolation="auto" color-interpolation="sRGB" solid-opacity="1" fill="none" stroke-linejoin="round" filter-blend-mode="normal" stroke="#ffffff" shape-rendering="auto"/>
 <path id="path4157" d="m 70,230 c -5.8,3 -6.8,10.7 -2.3,15 15.5,21.5 18.6,18 39.7,9.5 l 0,231 c 0,5.3 4.3,9.6 9.6,9.6 l 25.7,0 c 5.3,0 9.6,-4.4 9.6,-9.6 0,-88 -0.2,-148 -0.2,-248 l 6.8,-2.6 121,-14.4 121,14.5 4.9,2 c -0.5,83 -0.2,166 -0.2,248 0,5.3 4.2,9.6 9.6,9.6 l 25.7,0 c 5.3,0 9.5,-4.3 9.5,-9.6 l 0,-230 c 27,11.4 22.5,11.3 42,-8.9 4.4,-4.5 3.3,-12 -2.3,-15 L 284,121 c -2.9,-1.4 -6.3,-1.5 -8.9,0.05 z" mix-blend-mode="normal" solid-color="#000000" opacity="0.8" color-interpolation-filters="linearRGB" filter-gaussianBlur-deviation="0" color="#000000" image-rendering="auto" color-rendering="auto" stroke-width="64" isolation="auto" color-interpolation="sRGB" solid-opacity="1" fill="none" stroke-linejoin="round" filter-blend-mode="normal" stroke="#ffffff" shape-rendering="auto"/>
 <path id="path4159" d="m 302.5,304.1 c 14.5,-1.1 24.9,-11.9 25,-25 -1.2,-14.3 -12,-24.8 -25,-24.9 -14.6,1.1 -24.7,11.7 -24.9,24.9 1.1,14.7 11.5,24.9 24.9,25 z" mix-blend-mode="normal" solid-color="#000000" opacity="0.8" color-interpolation-filters="linearRGB" filter-gaussianBlur-deviation="0" color="#000000" image-rendering="auto" color-rendering="auto" stroke-width="64" isolation="auto" color-interpolation="sRGB" solid-opacity="1" fill="none" stroke-linejoin="round" filter-blend-mode="normal" stroke="#ffffff" shape-rendering="auto"/>
 <path id="path4161" d="m 192,357.7 c -2.5,4.2 -1.5,7.4 2.6,9.6 l 11.9,7.1 c 4.2,2.6 7.5,1.6 9.7,-2.6 l 37,-63.9 c 2.6,-4.2 1.6,-7.4 -2.6,-9.7 -5.3,-1.9 -8.6,-5.3 -16.3,-8.5 -2.2,0 -4,1.3 -5.3,4.05 z" mix-blend-mode="normal" solid-color="#000000" opacity="0.8" color-interpolation-filters="linearRGB" filter-gaussianBlur-deviation="0" color="#000000" image-rendering="auto" color-rendering="auto" stroke-width="64" isolation="auto" color-interpolation="sRGB" solid-opacity="1" fill="none" stroke-linejoin="round" filter-blend-mode="normal" stroke="#ffffff" shape-rendering="auto"/>
 <path id="path4163" d="m 224.1,379.2 c -2.1,3.7 -3.2,8.3 -3,13.7 l 1.2,75 -25.7,55 c -6.9,22.3 20.4,33 29,16.4 l 28,-60 c 1,-2.2 1.5,-4.6 1.5,-7 l -0.4,-45 28.6,38.7 8.4,68 c 8.7,19.4 35.4,13 32.8,-5.7 l -9.9,-77.9 c -1,-5.8 -4.4,-9.2 -7.7,-13.7 L 281.5,401.3 306,358.4 318.3,374 c 1,1.5 2.5,2.6 4.5,3.3 l 24.4,11.9 0,144 c 1.1,11.4 10.4,11 10.4,0 l 0,-143 c 11.9,-6.8 10.7,-21 -0.2,-25 l -21,-11.9 -30,-36.8 c -4.3,-5 -10.2,-8 -20.5,-9.5 -13.6,-0.4 -21.9,4.4 -28.1,14.3 z" mix-blend-mode="normal" solid-color="#000000" opacity="0.8" color-interpolation-filters="linearRGB" filter-gaussianBlur-deviation="0" color="#000000" image-rendering="auto" color-rendering="auto" stroke-width="64" isolation="auto" color-interpolation="sRGB" solid-opacity="1" fill="none" stroke-linejoin="round" filter-blend-mode="normal" stroke="#ffffff" shape-rendering="auto"/>
 <path d="m 450,57.7 c -4.7,-2.6 -9.3,-5.3 -14,-7.9 -2.3,4 -4.7,8 -7,12 l 21,12 0,27 c -7.7,-4.7 -15.3,-9.3 -23,-14 l 0,-24 -14,0 0,16 c -5.3,-3 -10.7,-6 -16,-9 -2.3,4 -4.7,8 -7,12 5.3,3 10.7,6 16,9 -4.7,2.7 -9.3,5.3 -14,8 2.3,4 4.7,8 7,12 l 21,-12 c 7.7,4.7 15.3,9.3 23,14 -7.7,4.3 -15.3,8.7 -23,13 l -21,-12 c -2.3,4.3 -4.7,8.7 -7,13 4.7,2.7 9.3,5.3 14,8 -5.3,3 -10.7,6 -16,9 2.3,4 4.7,8 7,12 5.3,-3 10.7,-6 16,-9 l 0,16 14,0 0,-24 c 7.7,-4.7 15.3,-9.3 23,-14 l 0,27 -21,12 c 2.3,4 4.7,8 7,12 4.7,-2.7 9.3,-5.3 14,-8 l 0,19 14,0 0,-19 c 4.7,2.7 9.3,5.3 14,8 2.3,-4 4.7,-8 7,-12 l -21,-12 0,-27 c 7.7,4.7 15.3,9.3 23,14 l 0,24 14,0 0,-16 c 5.3,3 10.7,6 16,9 2.3,-4 4.7,-8 7,-12 -5.3,-3 -10.7,-6 -16,-9 4.7,-2.7 9.3,-5.3 14,-8 -2.3,-4 -4.7,-8 -7,-12 l -21,12 c -7.7,-4.7 -15.3,-9.3 -23,-14 7.7,-4.3 15.3,-8.7 23,-13 l 21,12 c 2.3,-4.3 4.7,-8.7 7,-13 -4.7,-2.7 -9.3,-5.3 -14,-8 5.3,-3 10.7,-6 16,-9 -2.3,-4 -4.7,-8 -7,-12 -5.3,3 -10.7,6 -16,9 l 0,-16 -14,0 0,24 c -7.7,4.7 -15.3,9.3 -23,14 l 0,-27 21,-12 c -2.3,-4 -4.7,-8 -7,-12 -4.7,2.7 -9.3,5.3 -14,8 l 0,-18.8 -14,0 z" id="rect2991" fill="#0092da"/>
 <path d="m 70,230 c -5.8,3 -6.8,10.7 -2.3,15 15.5,21.5 18.6,18 39.7,9.5 l 0,231 c 0,5.3 4.3,9.6 9.6,9.6 l 25.7,0 c 5.3,0 9.6,-4.4 9.6,-9.6 0,-88 -0.2,-148 -0.2,-248 l 6.8,-2.6 121,-14.4 121,14.5 4.9,2 c -0.5,83 -0.2,166 -0.2,248 0,5.3 4.2,9.6 9.6,9.6 l 25.7,0 c 5.3,0 9.5,-4.3 9.5,-9.6 l 0,-230 c 27,11.4 22.5,11.3 42,-8.9 4.4,-4.5 3.3,-12 -2.3,-15 L 284,121 c -2.9,-1.4 -6.3,-1.5 -8.9,0.05 z" id="path4145" fill="#0092da" fill-rule="evenodd"/>
 <path d="m 302.5,304.1 c 14.5,-1.1 24.9,-11.9 25,-25 -1.2,-14.3 -12,-24.8 -25,-24.9 -14.6,1.1 -24.7,11.7 -24.9,24.9 1.1,14.7 11.5,24.9 24.9,25 z" id="path4143" fill="#0092da" fill-rule="evenodd"/>
 <path d="m 192,357.7 c -2.5,4.2 -1.5,7.4 2.6,9.6 l 11.9,7.1 c 4.2,2.6 7.5,1.6 9.7,-2.6 l 37,-63.9 c 2.6,-4.2 1.6,-7.4 -2.6,-9.7 -5.3,-1.9 -8.6,-5.3 -16.3,-8.5 -2.2,0 -4,1.3 -5.3,4.05 z" id="path4140" fill="#0092da" fill-rule="evenodd"/>
 <path d="m 224.1,379.2 c -2.1,3.7 -3.2,8.3 -3,13.7 l 1.2,75 -25.7,55 c -6.9,22.3 20.4,33 29,16.4 l 28,-60 c 1,-2.2 1.5,-4.6 1.5,-7 l -0.4,-45 28.6,38.7 8.4,68 c 8.7,19.4 35.4,13 32.8,-5.7 l -9.9,-77.9 c -1,-5.8 -4.4,-9.2 -7.7,-13.7 L 281.5,401.3 306,358.4 318.3,374 c 1,1.5 2.5,2.6 4.5,3.3 l 24.4,11.9 0,144 c 1.1,11.4 10.4,11 10.4,0 l 0,-143 c 11.9,-6.8 10.7,-21 -0.2,-25 l -21,-11.9 -30,-36.8 c -4.3,-5 -10.2,-8 -20.5,-9.5 -13.6,-0.4 -21.9,4.4 -28.1,14.3 z" id="path4142" fill="#0092da" fill-rule="evenodd"/>
</svg>
