<?xml version="1.0" encoding="UTF-8" standalone="no"?>
<svg xmlns="http://www.w3.org/2000/svg" version="1.0" width="580" height="580">
 <metadata id="metadata2975"/>
 <path id="path4268" d="m 104.71834,244.05032 c -24.546905,24.45581 -48.118089,48.91266 -72.664046,73.36941 10.97465,-0.23188 39.500663,-0.0297 39.500663,-0.0297 v 204.27683 c 8.45e-4,8.41636 6.848659,15.23896 15.296121,15.23979 138.857542,0.0142 281.664552,0.21041 406.357362,0 8.44746,-8.3e-4 15.29528,-6.82343 15.29612,-15.23979 V 317.40489 c 14.07561,0.19812 26.25425,-0.24932 39.50066,0.0149 -24.54596,-24.45675 -48.11713,-48.9136 -72.66404,-73.36941 -123.54094,-1.4e-4 -247.08194,2.3e-4 -370.62284,0 z m 5.25804,84.67461 h 59.23699 v 59.01885 h -59.23699 z m 101.02311,0 h 59.23699 v 59.01885 h -59.23699 z m 101.02498,0 h 59.23699 v 59.01885 h -59.23699 z m 101.02311,0 h 59.23699 v 59.01885 h -59.23699 z m -303.0712,98.06338 h 59.23699 v 59.01884 h -59.23699 z m 101.02311,0 h 59.23699 v 59.01884 h -59.23699 z m 101.02498,0 h 59.23699 v 59.01884 h -59.23699 z m 101.02311,0 h 59.23699 v 59.01884 h -59.23699 z" shape-rendering="auto" mix-blend-mode="normal" color-interpolation-filters="linearRGB" isolation="auto" white-space="normal" opacity="0.8" fill="none" solid-opacity="1" image-rendering="auto" solid-color="#000000" stroke="#ffffff" color="#000000" stroke-linejoin="round" stroke-width="64" color-rendering="auto" color-interpolation="sRGB"/>
 <path d="m 104.71834,244.05032 c -24.546905,24.45581 -48.118089,48.91266 -72.664046,73.36941 10.97465,-0.23188 39.500663,-0.0297 39.500663,-0.0297 v 204.27683 c 8.45e-4,8.41636 6.848659,15.23896 15.296121,15.23979 138.857542,0.0142 281.664552,0.21041 406.357362,0 8.44746,-8.3e-4 15.29528,-6.82343 15.29612,-15.23979 V 317.40489 c 14.07561,0.19812 26.25425,-0.24932 39.50066,0.0149 -24.54596,-24.45675 -48.11713,-48.9136 -72.66404,-73.36941 -123.54094,-1.4e-4 -247.08194,2.3e-4 -370.62284,0 z m 5.25804,84.67461 h 59.23699 v 59.01885 h -59.23699 z m 101.02311,0 h 59.23699 v 59.01885 h -59.23699 z m 101.02498,0 h 59.23699 v 59.01885 h -59.23699 z m 101.02311,0 h 59.23699 v 59.01885 h -59.23699 z m -303.0712,98.06338 h 59.23699 v 59.01884 h -59.23699 z m 101.02311,0 h 59.23699 v 59.01884 h -59.23699 z m 101.02498,0 h 59.23699 v 59.01884 h -59.23699 z m 101.02311,0 h 59.23699 v 59.01884 h -59.23699 z" id="path4259" shape-rendering="auto" mix-blend-mode="normal" color-interpolation-filters="linearRGB" isolation="auto" white-space="normal" fill="#0092da" solid-opacity="1" image-rendering="auto" solid-color="#000000" color="#000000" color-rendering="auto" color-interpolation="sRGB"/>
 <path id="path4139" d="m 122.88483,134.91592 c 8,37.5 45.9,68 85,62 24.7,-2.4 47.9,-17 61,-38 11.7,-5.5 26.3,3.4 37,-5.5 8.4,-5.3 14.3,-22 24.8,-18.9 5.9,4 10,14.8 18.4,13 8.6,-4 15.7,-22.6 24,-7.9 4.2,5.2 12.7,13 18.6,5.2 7.1,-11.5 17,-15 24.5,-1.8 5.4,7 12.8,5.5 19.5,-1.2 8.5,-8.9 18.6,-17.6 23.8,-28.9 -0.6,-11.6 -8.6,-16.6 -17.6,-24.6 -15,-15 -28,-11 -42,-11 -44,-1 -91,1 -131,-1 -18,-26 -39,-40 -70,-39.4 -48,-0.8 -88,51 -76,98 z m 48,-37 c 17.3,1.6 24.9,29 8.6,38 -13.7,8.7 -35,-2.8 -31.6,-19.9 2.8,-13 12.6,-19 23,-18 z" mix-blend-mode="normal" solid-color="#000000" opacity="0.8" color-interpolation-filters="linearRGB" color="#000000" image-rendering="auto" color-rendering="auto" stroke-width="64" isolation="auto" color-interpolation="sRGB" solid-opacity="1" fill="none" stroke-linejoin="round" stroke="#ffffff" shape-rendering="auto"/>
 <path d="m 122.88483,134.91592 c 8,37.5 45.9,68 85,62 24.7,-2.4 47.9,-17 61,-38 11.7,-5.5 26.3,3.4 37,-5.5 8.4,-5.3 14.3,-22 24.8,-18.9 5.9,4 10,14.8 18.4,13 8.6,-4 15.7,-22.6 24,-7.9 4.2,5.2 12.7,13 18.6,5.2 7.1,-11.5 17,-15 24.5,-1.8 5.4,7 12.8,5.5 19.5,-1.2 8.5,-8.9 18.6,-17.6 23.8,-28.9 -0.6,-11.6 -8.6,-16.6 -17.6,-24.6 -15,-15 -28,-11 -42,-11 -44,-1 -91,1 -131,-1 -18,-26 -39,-40 -70,-39.4 -48,-0.8 -88,51 -76,98 z m 48,-37 c 17.3,1.6 24.9,29 8.6,38 -13.7,8.7 -35,-2.8 -31.6,-19.9 2.8,-13 12.6,-19 23,-18 z" id="path2307" fill="#0092da"/>
</svg>
