<?xml version="1.0" encoding="UTF-8" standalone="no"?>
<svg xmlns="http://www.w3.org/2000/svg" width="580" height="580" version="1.0">
 <metadata id="metadata18"/>
 <path d="m 185.30612,45.714291 34.89796,69.795919 h 34.89796 l -34.89796,69.79591 34.89796,69.79593 -34.89796,69.79591 34.89796,69.79591 -34.89796,69.79593 h 139.59183 l -34.89795,-69.79593 34.89795,-69.79591 -34.89795,-69.79591 34.89795,-69.79593 -34.89795,-69.79591 h 34.89795 L 394.69387,45.714291 Z M 290,150.40817 A 34.897959,34.897959 0 0 1 324.89796,185.30612 34.897959,34.897959 0 0 1 290,220.20408 34.897959,34.897959 0 0 1 255.10204,185.30612 34.897959,34.897959 0 0 1 290,150.40817 Z M 290,290 A 34.897959,34.897959 0 0 1 324.89796,324.89796 34.897959,34.897959 0 0 1 290,359.79592 34.897959,34.897959 0 0 1 255.10204,324.89796 34.897959,34.897959 0 0 1 290,290 Z M 150.40816,499.38776 v 34.89795 h 279.18367 v -34.89795 z" id="path4556" opacity="0.8" paint-order="markers stroke fill" fill="none" stroke="#ffffff" vector-effect="none" stroke-linejoin="round" stroke-width="64"/>
 <path id="rect818" d="m 185.30612,45.714291 34.89796,69.795919 h 34.89796 l -34.89796,69.79591 34.89796,69.79593 -34.89796,69.79591 34.89796,69.79591 -34.89796,69.79593 h 139.59183 l -34.89795,-69.79593 34.89795,-69.79591 -34.89795,-69.79591 34.89795,-69.79593 -34.89795,-69.79591 h 34.89795 L 394.69387,45.714291 Z M 290,150.40817 A 34.897959,34.897959 0 0 1 324.89796,185.30612 34.897959,34.897959 0 0 1 290,220.20408 34.897959,34.897959 0 0 1 255.10204,185.30612 34.897959,34.897959 0 0 1 290,150.40817 Z M 290,290 A 34.897959,34.897959 0 0 1 324.89796,324.89796 34.897959,34.897959 0 0 1 290,359.79592 34.897959,34.897959 0 0 1 255.10204,324.89796 34.897959,34.897959 0 0 1 290,290 Z M 150.40816,499.38776 v 34.89795 h 279.18367 v -34.89795 z" paint-order="markers stroke fill" fill="#c9820d" vector-effect="none"/>
</svg>
