<?xml version="1.0" encoding="UTF-8" standalone="no"?>
<svg xmlns="http://www.w3.org/2000/svg" version="1.0" width="580" height="580">
 <metadata id="metadata1976"/>
 <path id="path846" d="m 139.65392,449.58091 c -16.42707,0.25668 -31.18575,-11.93526 -45.687762,-12.06361 -14.630358,-0.25667 -30.800733,8.98354 -40.810989,11.03693 -9.881894,1.79674 -16.042033,2.05338 -18.352088,0.51336 v 34.00914 c 2.310055,1.41169 8.598533,1.28337 18.352088,-0.51335 9.881916,-2.05337 26.180631,-11.29361 40.810989,-11.03691 14.502012,0.12848 29.260692,12.32028 45.687762,12.0636 16.2987,-0.64168 34.39415,-13.86034 51.0779,-14.11701 16.17037,-0.64168 30.67236,11.29362 46.97108,11.55029 16.55541,0.12848 33.36749,-10.78026 51.07791,-10.52359 17.45374,0.25667 35.29251,12.19197 52.61791,12.06362 17.58209,-0.38501 34.13748,-13.09032 52.4896,-13.21865 18.35209,-0.12833 38.50093,12.3203 56.46801,12.7053 17.71042,0 35.93417,-11.6786 48.76783,-12.06362 12.7053,-0.51335 19.63546,7.70019 26.95063,9.36857 7.57185,1.66837 13.21866,1.7967 17.71043,0.51335 v -34.00916 c -4.36346,1.41171 -10.13858,1.15503 -17.71043,-0.51335 -7.57186,-1.79669 -14.63035,-9.8819 -26.95063,-9.36854 -12.83366,0.51334 -31.31408,12.06362 -48.76783,12.06362 -17.96708,-0.38501 -38.11592,-12.57698 -56.46801,-12.57698 -18.22377,0.12849 -34.65083,12.83367 -52.4896,13.21865 -17.83876,0.12834 -35.67752,-11.80695 -52.61791,-12.06361 -17.71042,-0.51334 -34.5225,10.52358 -51.07791,10.39524 -15.78534,-0.25667 -29.90235,-11.29359 -45.43106,-11.55028 -21.06575,-0.46364 -35.05932,12.97105 -52.61792,14.11699 z" opacity="0.8" fill="none" stroke="#ffffff" vector-effect="none" stroke-linejoin="round" stroke-width="64"/>
 <path id="path848" d="m 141.06562,506.04894 c -16.42707,0.25666 -31.18576,-11.93528 -45.687761,-12.0636 -14.630353,-0.25669 -30.800743,8.98354 -40.810978,11.03692 -9.881906,2.05339 -16.042054,1.92502 -18.35211,0.51333 v 34.00916 c 2.310055,1.41168 8.598545,1.41168 18.35211,-0.51336 9.881894,-2.05337 26.180625,-11.29359 40.810978,-11.03691 14.502001,0.12848 29.260691,12.32027 45.687761,12.06361 16.29873,-0.77002 34.39414,-13.60366 51.0779,-14.11701 16.17037,-0.51333 30.67238,11.16526 46.9711,11.55029 16.55542,0.12834 33.36746,-10.90861 51.07788,-10.39525 17.45377,0.25667 35.29251,12.19195 52.61792,12.06362 17.5821,-0.38502 34.13748,-13.09031 52.4896,-13.21866 18.35209,0 38.50093,12.19196 56.46801,12.57697 17.71043,0 35.93419,-11.67862 48.76781,-12.06362 12.70534,-0.51335 19.63547,7.70018 26.95065,9.36854 7.57185,1.6684 13.21866,1.79674 17.71043,0.51338 v -34.00916 c -4.36345,1.15502 -10.13858,1.0267 -17.71043,-0.51335 -7.57185,-1.66838 -14.63035,-9.88188 -26.95065,-9.36856 -12.83362,0.51336 -31.31407,12.06363 -48.76782,12.06363 -17.96708,-0.38501 -38.11591,-12.57695 -56.468,-12.57695 -18.22376,0.12834 -34.65084,12.83362 -52.48962,13.21863 -17.83874,0.12833 -35.6775,-11.80694 -52.61791,-12.06364 -17.71041,-0.51334 -34.52246,10.52361 -51.07788,10.39526 -15.78538,-0.25668 -29.90238,-11.29361 -45.43109,-11.55025 -21.06573,-0.46368 -35.0593,12.97101 -52.6179,14.11698 z" opacity="0.8" fill="none" stroke="#ffffff" vector-effect="none" stroke-linejoin="round" stroke-width="64"/>
 <path id="path850" d="m 306.32505,39.453227 c -38.70368,1.18e-4 -75.26733,9.263557 -107.63061,25.678038 17.29681,2.553099 49.98051,8.575735 92.23537,22.189652 31.99038,10.306842 52.25324,21.636063 64.68724,30.671793 3.08263,2.24016 5.71524,4.39467 7.93792,6.37176 l 52.01035,-38.974467 c 7.02852,-5.268854 6.08905,-16.083947 -1.74277,-20.061886 C 380.50617,48.408923 343.7021,39.545866 306.3569,39.453227 H 306.325 Z M 163.50651,75.240369 c -11.47086,-0.126899 -18.73246,12.264346 -13.01561,22.209928 -0.12315,0.106082 -0.24177,0.217704 -0.36475,0.324221 l 1.00453,0.214235 -1.85854,8.696367 c 3e-5,0 -8.49714,39.51671 -7.28655,104.25806 0.59824,31.99278 5.33221,52.75074 9.69512,65.26622 0.72055,2.06694 1.3961,3.80409 2.04673,5.40195 l 86.47765,-63.30785 155.4578,194.81149 c 5.06586,6.53468 17.82162,3.674 24.28445,-1.48319 6.46283,-5.15717 7.45723,-14.60475 2.20973,-20.99445 l -154.8962,-194.10804 81.72679,-61.24518 c -1.14408,-0.90497 -2.40161,-1.8677 -3.8271,-2.9036 -10.72205,-7.79167 -29.22812,-18.31737 -59.6848,-28.13007 C 223.843,84.393272 183.55681,81.114176 183.55681,81.114176 l -8.86427,-0.729511 0.10983,-1.34325 c -0.30972,0.205156 -0.6234,0.404243 -0.93214,0.610814 -2.73953,-2.776973 -6.46331,-4.362183 -10.36388,-4.41186 z M 129.36948,118.07956 C 90.69879,160.71799 67.093905,217.33578 67.093728,279.41987 v 0.0261 c 0.03055,14.33053 1.342646,28.63013 3.916846,42.72631 1.584271,8.66279 11.72455,12.63758 18.773627,7.35891 L 139.1833,292.51083 c -1.40105,-2.92487 -2.87605,-6.36321 -4.29897,-10.44495 -5.05956,-14.51375 -10.05393,-37.18587 -10.68229,-70.78973 -0.80434,-43.01394 2.63112,-75.47365 5.16744,-93.19652 z" shape-rendering="auto" mix-blend-mode="normal" color-interpolation-filters="linearRGB" isolation="auto" white-space="normal" opacity="0.8" fill="none" solid-opacity="1" image-rendering="auto" solid-color="#000000" stroke="#ffffff" color="#000000" stroke-linejoin="round" stroke-width="64" color-rendering="auto" vector-effect="none" color-interpolation="sRGB"/>
 <path d="m 139.65392,449.58091 c -16.42707,0.25668 -31.18575,-11.93526 -45.687762,-12.06361 -14.630358,-0.25667 -30.800733,8.98354 -40.810989,11.03693 -9.881894,1.79674 -16.042033,2.05338 -18.352088,0.51336 v 34.00914 c 2.310055,1.41169 8.598533,1.28337 18.352088,-0.51335 9.881916,-2.05337 26.180631,-11.29361 40.810989,-11.03691 14.502012,0.12848 29.260692,12.32028 45.687762,12.0636 16.2987,-0.64168 34.39415,-13.86034 51.0779,-14.11701 16.17037,-0.64168 30.67236,11.29362 46.97108,11.55029 16.55541,0.12848 33.36749,-10.78026 51.07791,-10.52359 17.45374,0.25667 35.29251,12.19197 52.61791,12.06362 17.58209,-0.38501 34.13748,-13.09032 52.4896,-13.21865 18.35209,-0.12833 38.50093,12.3203 56.46801,12.7053 17.71042,0 35.93417,-11.6786 48.76783,-12.06362 12.7053,-0.51335 19.63546,7.70019 26.95063,9.36857 7.57185,1.66837 13.21866,1.7967 17.71043,0.51335 v -34.00916 c -4.36346,1.41171 -10.13858,1.15503 -17.71043,-0.51335 -7.57186,-1.79669 -14.63035,-9.8819 -26.95063,-9.36854 -12.83366,0.51334 -31.31408,12.06362 -48.76783,12.06362 -17.96708,-0.38501 -38.11592,-12.57698 -56.46801,-12.57698 -18.22377,0.12849 -34.65083,12.83367 -52.4896,13.21865 -17.83876,0.12834 -35.67752,-11.80695 -52.61791,-12.06361 -17.71042,-0.51334 -34.5225,10.52358 -51.07791,10.39524 -15.78534,-0.25667 -29.90235,-11.29359 -45.43106,-11.55028 -21.06575,-0.46364 -35.05932,12.97105 -52.61792,14.11699 z" id="path4151" fill="#39ac39" vector-effect="none" stroke-width="1.31"/>
 <path d="m 141.06562,506.04894 c -16.42707,0.25666 -31.18576,-11.93528 -45.687761,-12.0636 -14.630353,-0.25669 -30.800743,8.98354 -40.810978,11.03692 -9.881906,2.05339 -16.042054,1.92502 -18.35211,0.51333 v 34.00916 c 2.310055,1.41168 8.598545,1.41168 18.35211,-0.51336 9.881894,-2.05337 26.180625,-11.29359 40.810978,-11.03691 14.502001,0.12848 29.260691,12.32027 45.687761,12.06361 16.29873,-0.77002 34.39414,-13.60366 51.0779,-14.11701 16.17037,-0.51333 30.67238,11.16526 46.9711,11.55029 16.55542,0.12834 33.36746,-10.90861 51.07788,-10.39525 17.45377,0.25667 35.29251,12.19195 52.61792,12.06362 17.5821,-0.38502 34.13748,-13.09031 52.4896,-13.21866 18.35209,0 38.50093,12.19196 56.46801,12.57697 17.71043,0 35.93419,-11.67862 48.76781,-12.06362 12.70534,-0.51335 19.63547,7.70018 26.95065,9.36854 7.57185,1.6684 13.21866,1.79674 17.71043,0.51338 v -34.00916 c -4.36345,1.15502 -10.13858,1.0267 -17.71043,-0.51335 -7.57185,-1.66838 -14.63035,-9.88188 -26.95065,-9.36856 -12.83362,0.51336 -31.31407,12.06363 -48.76782,12.06363 -17.96708,-0.38501 -38.11591,-12.57695 -56.468,-12.57695 -18.22376,0.12834 -34.65084,12.83362 -52.48962,13.21863 -17.83874,0.12833 -35.6775,-11.80694 -52.61791,-12.06364 -17.71041,-0.51334 -34.52246,10.52361 -51.07788,10.39526 -15.78538,-0.25668 -29.90238,-11.29361 -45.43109,-11.55025 -21.06573,-0.46368 -35.0593,12.97101 -52.6179,14.11698 z" id="path4149" fill="#39ac39" vector-effect="none" stroke-width="1.31"/>
 <path d="m 306.32505,39.453227 c -38.70368,1.18e-4 -75.26733,9.263557 -107.63061,25.678038 17.29681,2.553099 49.98051,8.575735 92.23537,22.189652 31.99038,10.306842 52.25324,21.636063 64.68724,30.671793 3.08263,2.24016 5.71524,4.39467 7.93792,6.37176 l 52.01035,-38.974467 c 7.02852,-5.268854 6.08905,-16.083947 -1.74277,-20.061886 C 380.50617,48.408923 343.7021,39.545866 306.3569,39.453227 H 306.325 Z M 163.50651,75.240369 c -11.47086,-0.126899 -18.73246,12.264346 -13.01561,22.209928 -0.12315,0.106082 -0.24177,0.217704 -0.36475,0.324221 l 1.00453,0.214235 -1.85854,8.696367 c 3e-5,0 -8.49714,39.51671 -7.28655,104.25806 0.59824,31.99278 5.33221,52.75074 9.69512,65.26622 0.72055,2.06694 1.3961,3.80409 2.04673,5.40195 l 86.47765,-63.30785 155.4578,194.81149 c 5.06586,6.53468 17.82162,3.674 24.28445,-1.48319 6.46283,-5.15717 7.45723,-14.60475 2.20973,-20.99445 l -154.8962,-194.10804 81.72679,-61.24518 c -1.14408,-0.90497 -2.40161,-1.8677 -3.8271,-2.9036 -10.72205,-7.79167 -29.22812,-18.31737 -59.6848,-28.13007 C 223.843,84.393272 183.55681,81.114176 183.55681,81.114176 l -8.86427,-0.729511 0.10983,-1.34325 c -0.30972,0.205156 -0.6234,0.404243 -0.93214,0.610814 -2.73953,-2.776973 -6.46331,-4.362183 -10.36388,-4.41186 z M 129.36948,118.07956 C 90.69879,160.71799 67.093905,217.33578 67.093728,279.41987 v 0.0261 c 0.03055,14.33053 1.342646,28.63013 3.916846,42.72631 1.584271,8.66279 11.72455,12.63758 18.773627,7.35891 L 139.1833,292.51083 c -1.40105,-2.92487 -2.87605,-6.36321 -4.29897,-10.44495 -5.05956,-14.51375 -10.05393,-37.18587 -10.68229,-70.78973 -0.80434,-43.01394 2.63112,-75.47365 5.16744,-93.19652 z" id="path4142" shape-rendering="auto" mix-blend-mode="normal" color-interpolation-filters="linearRGB" isolation="auto" white-space="normal" fill="#39ac39" solid-opacity="1" image-rendering="auto" solid-color="#000000" color="#000000" color-rendering="auto" vector-effect="none" color-interpolation="sRGB"/>
</svg>
