<?xml version="1.0" encoding="UTF-8" standalone="no"?>
<svg xmlns="http://www.w3.org/2000/svg" version="1.0" width="580" height="580">
 <metadata id="metadata10"/>
 <path id="path825" d="m 375.80725,139.22436 c -9.01646,0 -18.03295,1.00182 -25.04579,1.00182 l -2.00367,22.0403 h 36.06595 c 16.02932,3.00551 -9.01649,11.02017 -11.02013,19.03479 -2.00367,9.0165 2.00364,18.03299 4.00731,26.04763 l -164.30036,1.00183 -9.01651,-24.04395 c 10.01834,-3.00551 35.06411,-9.01647 39.07144,-12.022 4.00733,-4.00731 0,-9.01646 -3.0055,-9.01646 h -85.15566 c 1.00182,18.03295 15.02747,22.04028 23.04211,24.04395 l 10.01832,23.04212 c -11.02014,20.03662 -21.03847,37.06775 -31.05679,56.10257 -83.152002,-24.04397 -122.524769,38.06961 -123.526601,84.15384 0,50.09157 40.374599,90.16484 90.466171,90.16484 46.08426,0 85.15569,-36.06591 90.16485,-81.14835 h 21.03844 c 3.0055,4.00733 7.01283,8.01465 12.02199,10.01832 l -9.01649,21.03846 h -17.03114 c -9.01649,1.00181 -6.01098,12.02197 0,13.02381 l 36.06595,-1.00185 c 10.01831,-1.00183 7.01283,-12.02196 0,-12.02196 h -10.01832 l 8.01465,-19.0348 c 23.04212,2.00366 32.0586,-15.02747 29.05312,-27.04946 l 112.20514,-76.13918 c 1.00182,3.00549 2.00366,7.0128 3.00548,10.01832 -21.03846,16.02931 -34.06229,42.0769 -34.06229,70.12818 0,50.09158 40.07329,90.16485 90.16486,90.16485 50.09156,0 90.16485,-40.07327 90.16485,-90.16485 -3.0055,-57.10437 -48.08792,-104.19046 -124.22713,-83.15201 -10.01832,-24.04395 -22.04029,-61.11172 -23.04211,-75.13735 2.00367,-10.01832 16.0293,-11.02015 19.03479,-23.04216 -2.00365,-24.04393 -22.04031,-28.05125 -42.07693,-28.05125 z m -153.28022,88.16116 h 161.29489 c 2.00367,6.01101 4.00732,13.02381 6.01098,20.03662 -38.06959,27.04949 -75.13736,54.09894 -114.2088,79.14471 l 7.01282,-18.03297 c 8.01464,0 7.01283,0 16.02932,-1.00184 9.01646,-1.00181 5.00914,-12.02197 0,-12.02197 h -36.06596 c -10.0183,1.00183 -7.01281,13.02381 0,13.02381 h 10.01833 l -8.01464,18.03297 c 0,-1.00184 -1.00184,-1.00184 -2.00369,-1.00184 z m -23.04211,7.01282 40.07324,99.18132 c -1.00183,1.00184 -3.0055,3.00551 -4.00733,5.00916 h -22.04027 c -3.0055,-26.04761 -17.03114,-48.08791 -37.06779,-62.11355 z m 258.47252,49.08976 c 37.06776,0 61.11173,34.06227 62.11356,65.11905 0,35.0641 -29.05312,64.11721 -64.11722,64.11721 -59.10805,-3.00548 -81.14835,-59.10807 -48.08789,-107.19598 4.00729,15.02747 11.02012,31.05679 22.04026,42.07694 33.06045,29.05312 53.09709,5.00915 16.02931,-18.03297 -8.01464,-12.02198 -13.02381,-25.04578 -17.03113,-39.07144 10.01831,-5.00915 20.03663,-7.01281 29.05311,-7.01281 z m -335.61355,3.00548 c 7.01281,0 15.02746,1.00185 23.04213,3.00551 l -29.05314,54.09888 c -4.00731,7.01283 1.00185,15.02749 9.01649,15.02749 h 63.11539 c -4.00733,32.05862 -31.05679,56.10258 -64.11722,56.10258 -36.06594,0 -64.117212,-29.05315 -64.117212,-64.11724 -0.10019,-35.06409 23.042119,-64.11722 62.113562,-64.11722 z m 41.07509,13.02382 c 12.02197,10.01831 21.03845,23.04212 24.04394,39.07142 H 142.3805 Z" opacity="0.8" fill="none" stroke="#ffffff" vector-effect="none" stroke-linejoin="round" stroke-width="64"/>
 <path d="m 375.80725,139.22436 c -9.01646,0 -18.03295,1.00182 -25.04579,1.00182 l -2.00367,22.0403 h 36.06595 c 16.02932,3.00551 -9.01649,11.02017 -11.02013,19.03479 -2.00367,9.0165 2.00364,18.03299 4.00731,26.04763 l -164.30036,1.00183 -9.01651,-24.04395 c 10.01834,-3.00551 35.06411,-9.01647 39.07144,-12.022 4.00733,-4.00731 0,-9.01646 -3.0055,-9.01646 h -85.15566 c 1.00182,18.03295 15.02747,22.04028 23.04211,24.04395 l 10.01832,23.04212 c -11.02014,20.03662 -21.03847,37.06775 -31.05679,56.10257 -83.152002,-24.04397 -122.524769,38.06961 -123.526601,84.15384 0,50.09157 40.374599,90.16484 90.466171,90.16484 46.08426,0 85.15569,-36.06591 90.16485,-81.14835 h 21.03844 c 3.0055,4.00733 7.01283,8.01465 12.02199,10.01832 l -9.01649,21.03846 h -17.03114 c -9.01649,1.00181 -6.01098,12.02197 0,13.02381 l 36.06595,-1.00185 c 10.01831,-1.00183 7.01283,-12.02196 0,-12.02196 h -10.01832 l 8.01465,-19.0348 c 23.04212,2.00366 32.0586,-15.02747 29.05312,-27.04946 l 112.20514,-76.13918 c 1.00182,3.00549 2.00366,7.0128 3.00548,10.01832 -21.03846,16.02931 -34.06229,42.0769 -34.06229,70.12818 0,50.09158 40.07329,90.16485 90.16486,90.16485 50.09156,0 90.16485,-40.07327 90.16485,-90.16485 -3.0055,-57.10437 -48.08792,-104.19046 -124.22713,-83.15201 -10.01832,-24.04395 -22.04029,-61.11172 -23.04211,-75.13735 2.00367,-10.01832 16.0293,-11.02015 19.03479,-23.04216 -2.00365,-24.04393 -22.04031,-28.05125 -42.07693,-28.05125 z m -153.28022,88.16116 h 161.29489 c 2.00367,6.01101 4.00732,13.02381 6.01098,20.03662 -38.06959,27.04949 -75.13736,54.09894 -114.2088,79.14471 l 7.01282,-18.03297 c 8.01464,0 7.01283,0 16.02932,-1.00184 9.01646,-1.00181 5.00914,-12.02197 0,-12.02197 h -36.06596 c -10.0183,1.00183 -7.01281,13.02381 0,13.02381 h 10.01833 l -8.01464,18.03297 c 0,-1.00184 -1.00184,-1.00184 -2.00369,-1.00184 z m -23.04211,7.01282 40.07324,99.18132 c -1.00183,1.00184 -3.0055,3.00551 -4.00733,5.00916 h -22.04027 c -3.0055,-26.04761 -17.03114,-48.08791 -37.06779,-62.11355 z m 258.47252,49.08976 c 37.06776,0 61.11173,34.06227 62.11356,65.11905 0,35.0641 -29.05312,64.11721 -64.11722,64.11721 -59.10805,-3.00548 -81.14835,-59.10807 -48.08789,-107.19598 4.00729,15.02747 11.02012,31.05679 22.04026,42.07694 33.06045,29.05312 53.09709,5.00915 16.02931,-18.03297 -8.01464,-12.02198 -13.02381,-25.04578 -17.03113,-39.07144 10.01831,-5.00915 20.03663,-7.01281 29.05311,-7.01281 z m -335.61355,3.00548 c 7.01281,0 15.02746,1.00185 23.04213,3.00551 l -29.05314,54.09888 c -4.00731,7.01283 1.00185,15.02749 9.01649,15.02749 h 63.11539 c -4.00733,32.05862 -31.05679,56.10258 -64.11722,56.10258 -36.06594,0 -64.117212,-29.05315 -64.117212,-64.11724 -0.10019,-35.06409 23.042119,-64.11722 62.113562,-64.11722 z m 41.07509,13.02382 c 12.02197,10.01831 21.03845,23.04212 24.04394,39.07142 H 142.3805 Z" id="path4144" fill="#ac39ac" vector-effect="none" stroke-width="1.13"/>
</svg>
