<?xml version="1.0" encoding="UTF-8" standalone="no"?>
<svg version="1.0" width="580" height="580" xmlns="http://www.w3.org/2000/svg">
 <metadata id="metadata10"/>
 <path d="m 83.183445,135.45225 c 5.53243,6.09696 14.00044,10.0487 19.137695,9.87934 l 286.27517,-6.15342 30.25902,48.54992 85.80916,-17.95218 0.11291,-34.43657 c -3.50012,0 -44.93691,-0.33872 -58.71153,-0.45163 l -11.74231,-21.33938 11.96812,-21.113567 58.71153,0.45163 0.22581,-32.517152 -85.80916,-16.032764 -31.6139,46.178876 -284.52511,-10.669696 c -5.645335,-0.05645 -14.564975,4.008191 -20.210315,10.330976 -5.75824,6.32278 -8.3551,14.564967 -8.29865,22.694257 0.0565,8.2422 2.87913,16.37148 8.41156,22.58136 z M 105.8777,102.37056 c 5.41953,0 9.71,4.40336 9.71,9.82289 0,5.41952 -4.40338,9.70998 -9.8229,9.70998 -5.41953,0 -9.709985,-4.40336 -9.709985,-9.82289 0,-5.41952 4.403365,-9.70998 9.822885,-9.70998 z" id="path314" mix-blend-mode="normal" isolation="auto" white-space="normal" solid-color="#000000" opacity="0.8" color-interpolation-filters="linearRGB" vector-effect="none" color="#000000" image-rendering="auto" color-rendering="auto" stroke-width="64" color-interpolation="sRGB" solid-opacity="1" fill="none" stroke-linejoin="round" stroke="#ffffff" shape-rendering="auto"/>
 <path id="path4137" d="m 350.2,236.8 -1.6,22 36,0.1 c 15.7,3.2 -8.7,10.7 -11,19 -1.6,9.4 2.4,17.9 4.4,25.6 l -164,0.8 -9.7,-23.7 c 10.4,-2.4 35.8,-8.4 39,-11.8 4.1,-3.8 0,-9.4 -3.2,-9.4 l -85,0 c 1.1,18.8 15.8,22.9 23.8,24 l 9.4,23 c -10.7,20 -21,37 -31,56 -83,-24 -122,38.6 -123,84 0,50 40,90 90,90 46.6,0 85,-35.7 90,-81 l 21.5,0 c 2.4,4.4 6.4,8 11.3,10.3 l -9,21 -16.2,0.1 c -9,1.2 -6.7,12.4 0.1,12.5 l 36,-0.3 c 9.2,-1.1 6.8,-12.5 -0.1,-12.5 l -10.3,0.1 7.9,-18.4 c 23,1.9 31.7,-15.6 29,-27.5 l 112,-76 c 1,3.4 1.9,6.7 2.9,9.9 -20.5,16.5 -33.7,41.8 -33.7,70 0,50 40,90 90,90 50,0 90,-40 90,-90 -3,-57 -47.9,-104 -124,-83 -10,-23.9 -21.9,-61 -22.9,-75 1.7,-9.7 16,-10.5 18.4,-23 -1.7,-23.9 -21.3,-27.7 -41.1,-27.6 -9.1,0 -18.3,0.8 -25.9,0.8 z m 39.6,107.2 -0.1,0 c -37.6,26.9 -75,53.9 -114,79 l 7.7,-17.6 c 7.2,-0.2 6.6,-0.1 15,-0.6 9.2,-1.7 6,-12.4 0.1,-12.4 l -36,0.3 c -9.2,1.1 -6.8,12.5 0.1,12.5 l 10.3,-0.1 -7.7,17.9 c -0.7,-0.2 -1.5,-0.3 -2.2,-0.4 l -39.9,-98 c 37,0 104,-0.2 160.95,-0.4 1.75,6.1 3.65,12.8 5.75,19.8 z m -149.7,86.4 c -1.4,1.4 -2.6,3 -3.6,4.7 l -22,0 c -3.4,-25.7 -17.4,-47.7 -37,-61.7 l 22.7,-42 z M 520.3,445 c 0.1,35.7 -28.6,64 -63.9,64 l 0.2,0.4 c -58.8,-3.1 -81,-59 -48,-107 4.2,15.2 11,31.5 22,41.6 l 0.1,0.1 0.1,0.1 c 32.5,29.6 53,5.1 15.3,-18.2 -8,-11.2 -12.5,-25 -16.8,-39 10.6,-4.9 20.5,-7 29.9,-6.9 36.1,0.2 60.1,33.8 61.1,64.9 z m -373.2,-58.5 -29,53.9 c -3.7,6.8 1.3,15 9,15 l 62.8,0 c -4.3,31.5 -31,56 -63.8,56 -35.7,0 -64,-28.6 -64,-64 -0.1,-35 23.4,-64 62,-64.1 7.2,-0.1 14.8,1 23,3.2 z m 41.6,49.3 -44.9,0 21,-39 c 12.3,9.5 21,23.3 23.9,39 z" mix-blend-mode="normal" solid-color="#000000" opacity="0.8" color-interpolation-filters="linearRGB" filter-gaussianBlur-deviation="0" color="#000000" image-rendering="auto" color-rendering="auto" stroke-width="64" isolation="auto" color-interpolation="sRGB" solid-opacity="1" fill="none" stroke-linejoin="round" filter-blend-mode="normal" stroke="#ffffff" shape-rendering="auto"/>
 <path d="m 350.2,236.8 -1.6,22 36,0.1 c 15.7,3.2 -8.7,10.7 -11,19 -1.6,9.4 2.4,17.9 4.4,25.6 l -164,0.8 -9.7,-23.7 c 10.4,-2.4 35.8,-8.4 39,-11.8 4.1,-3.8 0,-9.4 -3.2,-9.4 l -85,0 c 1.1,18.8 15.8,22.9 23.8,24 l 9.4,23 c -10.7,20 -21,37 -31,56 -83,-24 -122,38.6 -123,84 0,50 40,90 90,90 46.6,0 85,-35.7 90,-81 l 21.5,0 c 2.4,4.4 6.4,8 11.3,10.3 l -9,21 -16.2,0.1 c -9,1.2 -6.7,12.4 0.1,12.5 l 36,-0.3 c 9.2,-1.1 6.8,-12.5 -0.1,-12.5 l -10.3,0.1 7.9,-18.4 c 23,1.9 31.7,-15.6 29,-27.5 l 112,-76 c 1,3.4 1.9,6.7 2.9,9.9 -20.5,16.5 -33.7,41.8 -33.7,70 0,50 40,90 90,90 50,0 90,-40 90,-90 -3,-57 -47.9,-104 -124,-83 -10,-23.9 -21.9,-61 -22.9,-75 1.7,-9.7 16,-10.5 18.4,-23 -1.7,-23.9 -21.3,-27.7 -41.1,-27.6 -9.1,0 -18.3,0.8 -25.9,0.8 z m 39.6,107.2 -0.1,0 c -37.6,26.9 -75,53.9 -114,79 l 7.7,-17.6 c 7.2,-0.2 6.6,-0.1 15,-0.6 9.2,-1.7 6,-12.4 0.1,-12.4 l -36,0.3 c -9.2,1.1 -6.8,12.5 0.1,12.5 l 10.3,-0.1 -7.7,17.9 c -0.7,-0.2 -1.5,-0.3 -2.2,-0.4 l -39.9,-98 c 37,0 104,-0.2 160.95,-0.4 1.75,6.1 3.65,12.8 5.75,19.8 z m -149.7,86.4 c -1.4,1.4 -2.6,3 -3.6,4.7 l -22,0 c -3.4,-25.7 -17.4,-47.7 -37,-61.7 l 22.7,-42 z M 520.3,445 c 0.1,35.7 -28.6,64 -63.9,64 l 0.2,0.4 c -58.8,-3.1 -81,-59 -48,-107 4.2,15.2 11,31.5 22,41.6 l 0.1,0.1 0.1,0.1 c 32.5,29.6 53,5.1 15.3,-18.2 -8,-11.2 -12.5,-25 -16.8,-39 10.6,-4.9 20.5,-7 29.9,-6.9 36.1,0.2 60.1,33.8 61.1,64.9 z m -373.2,-58.5 -29,53.9 c -3.7,6.8 1.3,15 9,15 l 62.8,0 c -4.3,31.5 -31,56 -63.8,56 -35.7,0 -64,-28.6 -64,-64 -0.1,-35 23.4,-64 62,-64.1 7.2,-0.1 14.8,1 23,3.2 z m 41.6,49.3 -44.9,0 21,-39 c 12.3,9.5 21,23.3 23.9,39 z" id="path596-0" fill="#ac39ac"/>
 <path d="m 83.183445,135.45225 c 5.53243,6.09696 14.00044,10.0487 19.137695,9.87934 l 286.27517,-6.15342 30.25902,48.54992 85.80916,-17.95218 0.11291,-34.43657 c -3.50012,0 -44.93691,-0.33872 -58.71153,-0.45163 l -11.74231,-21.33938 11.96812,-21.113567 58.71153,0.45163 0.22581,-32.517152 -85.80916,-16.032764 -31.6139,46.178876 -284.52511,-10.669696 c -5.645335,-0.05645 -14.564975,4.008191 -20.210315,10.330976 -5.75824,6.32278 -8.3551,14.564967 -8.29865,22.694257 0.0565,8.2422 2.87913,16.37148 8.41156,22.58136 z M 105.8777,102.37056 c 5.41953,0 9.71,4.40336 9.71,9.82289 0,5.41952 -4.40338,9.70998 -9.8229,9.70998 -5.41953,0 -9.709985,-4.40336 -9.709985,-9.82289 0,-5.41952 4.403365,-9.70998 9.822885,-9.70998 z" id="path2303" mix-blend-mode="normal" isolation="auto" white-space="normal" solid-color="#000000" color-interpolation-filters="linearRGB" vector-effect="none" color="#000000" image-rendering="auto" color-rendering="auto" color-interpolation="sRGB" solid-opacity="1" fill="#ac39ac" shape-rendering="auto"/>
</svg>
