<?xml version="1.0" encoding="UTF-8" standalone="no"?>
<svg xmlns="http://www.w3.org/2000/svg" version="1.0" width="580" height="580">
 <metadata id="metadata10"/>
 <path id="path864" d="m 329.77658,33.68236 -1.05718,14.536288 23.78665,0.0661 c 10.37363,2.114364 -5.74844,7.069918 -7.26815,12.55407 -1.05718,6.210956 1.58578,11.827255 2.90727,16.914956 L 239.78371,78.282363 233.37452,62.62281 c 6.87172,-1.585776 23.65452,-5.550221 25.76889,-7.796733 2.70903,-2.510816 0,-6.210966 -2.11437,-6.210966 h -56.16295 c 0.72682,12.421923 10.4397,15.130964 15.72563,15.857779 l 6.21096,15.197033 c -7.06993,13.214806 -13.87556,24.447397 -20.48296,37.001467 -54.84145,-15.85777 -80.61033,25.50459 -81.27107,55.50222 0,33.03701 26.42962,59.46665 59.46663,59.46665 30.79052,0 56.16295,-23.58845 59.46666,-53.51999 h 14.20593 c 1.58577,2.90725 4.22873,5.28592 7.46637,6.80562 l -5.94668,13.87555 -10.70399,0.0661 c -5.94667,0.79288 -4.42696,8.19318 0.0661,8.25925 l 23.78666,-0.19821 c 6.07882,-0.72682 4.49304,-8.25927 -0.0661,-8.25927 l -6.80563,0.0661 5.21985,-12.15763 c 15.19703,1.25541 20.94547,-10.30754 19.16146,-18.17036 l 74.00295,-50.21628 c 0.66074,2.24652 1.25541,4.42696 1.91615,6.54132 -13.54519,10.90223 -22.26696,27.61896 -22.26696,46.25185 0,33.03703 26.42962,59.46665 59.46666,59.46665 33.03703,0 59.46665,-26.42962 59.46665,-59.46665 -1.98222,-37.66221 -31.64947,-68.71702 -81.93183,-54.84147 -6.6074,-15.7917 -14.47021,-40.305175 -15.13096,-49.555546 1.12327,-6.409183 10.57184,-6.937771 12.15762,-15.197034 -1.12326,-15.7917 -14.07377,-18.302506 -27.15643,-18.236437 -6.01274,0 -12.09155,0.528598 -17.11318,0.528598 z m 26.16533,70.83139 h -0.0661 c -24.84385,17.77392 -49.55555,35.61391 -75.32444,52.1985 l 5.0877,-11.62903 c 4.75734,-0.13215 4.3609,-0.0661 9.91112,-0.39644 6.07881,-1.12327 3.96443,-8.19319 0.0661,-8.19319 l -23.78666,0.19822 c -6.0788,0.72681 -4.49304,8.25926 0.0661,8.25926 l 6.80563,-0.0661 -5.08769,11.82726 c -0.46252,-0.13215 -0.99113,-0.19822 -1.45363,-0.2643 L 245.79649,91.695353 c 24.4474,0 68.71701,-0.132147 106.34619,-0.264294 1.15629,4.030526 2.41171,8.457476 3.79926,13.082671 z m -98.91287,57.08798 c -0.92503,0.92504 -1.71792,1.98222 -2.37865,3.10549 h -14.5363 c -2.24652,-16.98104 -11.49688,-31.51734 -24.4474,-40.7677 L 230.6655,96.188415 Z m 185.1395,9.64682 c 0.0661,23.58843 -18.89718,42.28739 -42.22132,42.28739 l 0.13216,0.2643 c -38.85155,-2.0483 -53.51999,-38.9837 -31.71555,-70.69924 2.7751,10.04325 7.26814,20.81332 14.53629,27.4868 l 0.0661,0.0661 0.0661,0.0661 c 21.47406,19.55792 35.01925,3.36976 10.10933,-12.02549 -5.28593,-7.4003 -8.25927,-16.51851 -11.10044,-25.76888 7.00385,-3.23763 13.54517,-4.62518 19.75613,-4.55911 23.85274,0.13215 39.71051,22.33304 40.37125,42.88206 z m -246.58837,-38.65333 -19.16148,35.61392 c -2.44473,4.49303 0.85896,9.91111 5.94666,9.91111 h 41.49451 c -2.84118,20.81332 -20.48296,37.00147 -42.15524,37.00147 -23.58844,0 -42.2874,-18.89718 -42.2874,-42.2874 -0.0661,-23.12592 15.46133,-42.2874 40.96591,-42.35347 4.75733,-0.0661 9.77897,0.66074 15.19704,2.11437 z m 27.48681,32.57452 h -29.66726 l 13.87556,-25.76889 c 8.1271,6.27704 13.87555,15.39526 15.7917,25.76889 z" opacity="0.8" fill="none" stroke="#ffffff" vector-effect="none" stroke-linejoin="round" stroke-width="64"/>
 <path id="path866" d="m 190.18899,257.39223 c -25.95122,0 -44.53157,17.71309 -44.53157,44.53157 V 546.84743 H 301.51794 V 371.50437 c 0,0 19.48255,-2.78321 19.48255,19.48257 v 89.06316 c 0,44.53154 41.51902,47.31478 47.31475,47.31478 6.13786,0 47.31488,-2.78255 47.31488,-47.31478 v -89.06316 c 0,0 30.89506,0.38743 30.61548,-66.10155 h -16.69939 v -44.53157 c 0,-12.62804 -16.69939,-12.55212 -16.69939,-0.69469 v 44.53158 h -22.26574 v -44.53158 c 0,-12.16112 -16.69931,-12.13886 -16.69931,0 v 44.53158 H 357.1824 c 0.27834,66.49431 30.61545,66.79735 30.61545,66.79735 v 89.06312 c 0,19.46391 -17.08071,19.48261 -19.48261,19.48261 -2.40148,0 -19.48253,-0.953 -19.48253,-19.48261 v -89.06312 c 0,-28.52025 -25.04898,-47.31479 -47.31477,-47.31479 v -41.74836 c 0,-27.21881 -18.1798,-44.53157 -44.53159,-44.53157 z m 22.26579,66.79737 h 44.53157 l -27.83223,44.53156 h 33.39867 l -61.23091,89.06315 h -11.1329 l 22.26579,-66.79737 h -27.83223 z" opacity="0.8" fill="none" stroke="#ffffff" vector-effect="none" stroke-linejoin="round" stroke-width="64"/>
 <path d="m 329.77658,33.68236 -1.05718,14.536288 23.78665,0.0661 c 10.37363,2.114364 -5.74844,7.069918 -7.26815,12.55407 -1.05718,6.210956 1.58578,11.827255 2.90727,16.914956 L 239.78371,78.282363 233.37452,62.62281 c 6.87172,-1.585776 23.65452,-5.550221 25.76889,-7.796733 2.70903,-2.510816 0,-6.210966 -2.11437,-6.210966 h -56.16295 c 0.72682,12.421923 10.4397,15.130964 15.72563,15.857779 l 6.21096,15.197033 c -7.06993,13.214806 -13.87556,24.447397 -20.48296,37.001467 -54.84145,-15.85777 -80.61033,25.50459 -81.27107,55.50222 0,33.03701 26.42962,59.46665 59.46663,59.46665 30.79052,0 56.16295,-23.58845 59.46666,-53.51999 h 14.20593 c 1.58577,2.90725 4.22873,5.28592 7.46637,6.80562 l -5.94668,13.87555 -10.70399,0.0661 c -5.94667,0.79288 -4.42696,8.19318 0.0661,8.25925 l 23.78666,-0.19821 c 6.07882,-0.72682 4.49304,-8.25927 -0.0661,-8.25927 l -6.80563,0.0661 5.21985,-12.15763 c 15.19703,1.25541 20.94547,-10.30754 19.16146,-18.17036 l 74.00295,-50.21628 c 0.66074,2.24652 1.25541,4.42696 1.91615,6.54132 -13.54519,10.90223 -22.26696,27.61896 -22.26696,46.25185 0,33.03703 26.42962,59.46665 59.46666,59.46665 33.03703,0 59.46665,-26.42962 59.46665,-59.46665 -1.98222,-37.66221 -31.64947,-68.71702 -81.93183,-54.84147 -6.6074,-15.7917 -14.47021,-40.305175 -15.13096,-49.555546 1.12327,-6.409183 10.57184,-6.937771 12.15762,-15.197034 -1.12326,-15.7917 -14.07377,-18.302506 -27.15643,-18.236437 -6.01274,0 -12.09155,0.528598 -17.11318,0.528598 z m 26.16533,70.83139 h -0.0661 c -24.84385,17.77392 -49.55555,35.61391 -75.32444,52.1985 l 5.0877,-11.62903 c 4.75734,-0.13215 4.3609,-0.0661 9.91112,-0.39644 6.07881,-1.12327 3.96443,-8.19319 0.0661,-8.19319 l -23.78666,0.19822 c -6.0788,0.72681 -4.49304,8.25926 0.0661,8.25926 l 6.80563,-0.0661 -5.08769,11.82726 c -0.46252,-0.13215 -0.99113,-0.19822 -1.45363,-0.2643 L 245.79649,91.695353 c 24.4474,0 68.71701,-0.132147 106.34619,-0.264294 1.15629,4.030526 2.41171,8.457476 3.79926,13.082671 z m -98.91287,57.08798 c -0.92503,0.92504 -1.71792,1.98222 -2.37865,3.10549 h -14.5363 c -2.24652,-16.98104 -11.49688,-31.51734 -24.4474,-40.7677 L 230.6655,96.188415 Z m 185.1395,9.64682 c 0.0661,23.58843 -18.89718,42.28739 -42.22132,42.28739 l 0.13216,0.2643 c -38.85155,-2.0483 -53.51999,-38.9837 -31.71555,-70.69924 2.7751,10.04325 7.26814,20.81332 14.53629,27.4868 l 0.0661,0.0661 0.0661,0.0661 c 21.47406,19.55792 35.01925,3.36976 10.10933,-12.02549 -5.28593,-7.4003 -8.25927,-16.51851 -11.10044,-25.76888 7.00385,-3.23763 13.54517,-4.62518 19.75613,-4.55911 23.85274,0.13215 39.71051,22.33304 40.37125,42.88206 z m -246.58837,-38.65333 -19.16148,35.61392 c -2.44473,4.49303 0.85896,9.91111 5.94666,9.91111 h 41.49451 c -2.84118,20.81332 -20.48296,37.00147 -42.15524,37.00147 -23.58844,0 -42.2874,-18.89718 -42.2874,-42.2874 -0.0661,-23.12592 15.46133,-42.2874 40.96591,-42.35347 4.75733,-0.0661 9.77897,0.66074 15.19704,2.11437 z m 27.48681,32.57452 h -29.66726 l 13.87556,-25.76889 c 8.1271,6.27704 13.87555,15.39526 15.7917,25.76889 z" id="path596-0" fill="#ac39ac" stroke-width="0.66"/>
 <path d="m 190.18899,257.39223 c -25.95122,0 -44.53157,17.71309 -44.53157,44.53157 V 546.84743 H 301.51794 V 371.50437 c 0,0 19.48255,-2.78321 19.48255,19.48257 v 89.06316 c 0,44.53154 41.51902,47.31478 47.31475,47.31478 6.13786,0 47.31488,-2.78255 47.31488,-47.31478 v -89.06316 c 0,0 30.89506,0.38743 30.61548,-66.10155 h -16.69939 v -44.53157 c 0,-12.62804 -16.69939,-12.55212 -16.69939,-0.69469 v 44.53158 h -22.26574 v -44.53158 c 0,-12.16112 -16.69931,-12.13886 -16.69931,0 v 44.53158 H 357.1824 c 0.27834,66.49431 30.61545,66.79735 30.61545,66.79735 v 89.06312 c 0,19.46391 -17.08071,19.48261 -19.48261,19.48261 -2.40148,0 -19.48253,-0.953 -19.48253,-19.48261 v -89.06312 c 0,-28.52025 -25.04898,-47.31479 -47.31477,-47.31479 v -41.74836 c 0,-27.21881 -18.1798,-44.53157 -44.53159,-44.53157 z m 22.26579,66.79737 h 44.53157 l -27.83223,44.53156 h 33.39867 l -61.23091,89.06315 h -11.1329 l 22.26579,-66.79737 h -27.83223 z" id="charging-station" fill="#ac39ac" vector-effect="none"/>
</svg>
