<?xml version="1.0" encoding="UTF-8" standalone="no"?>
<svg xmlns="http://www.w3.org/2000/svg" version="1.0" width="580" height="580">
 <metadata id="metadata10"/>
 <path d="m 185.38636,261.45768 c -7.99906,0 -15.33938,3.01303 -20.98577,8.66246 -5.6464,5.64942 -8.75191,12.99368 -8.75191,17.04244 l 0,229.08426 c 0,8.00336 3.10551,15.44177 8.75191,21.0912 5.64639,5.64942 13.08082,8.66245 20.98577,8.66245 l 32.93731,0 c 7.99906,0 15.33938,-3.01303 20.98577,-8.66245 5.6464,-5.64943 8.75192,-12.99369 8.75192,-21.0912 l 0,-229.03719 c 0,-4.00167 -3.10552,-11.44009 -8.75192,-17.08951 -5.64639,-5.64943 -13.08082,-8.66246 -20.98577,-8.66246 z m 261.71045,115.24831 c -4.51711,4.51955 -7.05799,10.35729 -7.05799,16.85413 l 0,125.22896 c 0,6.40269 2.44677,12.24043 7.05799,16.85413 4.51712,4.51954 10.35173,6.96762 16.84508,6.96762 l 38.3955,0 c 6.39924,0 12.23385,-2.44808 16.84508,-6.96762 4.51711,-4.51954 7.05799,-10.35729 7.05799,-13.60571 l 0,-131.67873 c 0,-3.20134 -2.44677,-9.03908 -7.05799,-13.65278 -4.51712,-4.51954 -10.35173,-6.96762 -16.84508,-6.96762 l -41.59512,0 c -3.19963,0 -9.03423,2.44808 -13.64546,6.96762 z" id="path4187" mix-blend-mode="normal" solid-color="#000000" opacity="0.8" white-space="normal" color-interpolation-filters="linearRGB" filter-gaussianBlur-deviation="0" color="#000000" image-rendering="auto" color-rendering="auto" stroke-width="64" isolation="auto" color-interpolation="sRGB" solid-opacity="1" fill="none" filter-blend-mode="normal" stroke="#ffffff" shape-rendering="auto"/>
 <path d="m 54.107655,37.740373 0,300.361207 c 0,1.69482 1.505706,3.20134 3.199624,3.20134 l 9.41066,0 c 1.693919,0 3.199625,-1.50652 3.199625,-3.20134 l 0,-128.99525 c 11.839417,8.83066 27.601776,16.25107 42.253866,16.47749 10.63404,0 23.15022,-4.14291 35.28997,-8.09751 12.23386,-3.9546 24.09129,-7.81504 31.99624,-7.81504 7.90496,0 17.40973,3.76628 27.29092,7.72088 10.25762,4.04876 21.17398,8.19167 32.65499,8.19167 22.49148,0 47.99436,-12.71121 47.99436,-12.71121 1.03518,-0.56494 1.78803,-1.69483 1.78803,-2.91887 l 0,-166.658098 c -0.21833,-2.383032 -2.67358,-3.924865 -4.61122,-2.824716 0,0 -24.46772,12.052111 -44.23011,12.052111 -9.78708,0 -20.13881,-3.766285 -30.11411,-7.720884 -10.16351,-3.954599 -20.13881,-8.191669 -29.9259,-8.191669 -9.78708,0 -21.64451,4.142913 -33.87837,8.097512 -12.13975,3.954599 -24.46772,7.815041 -33.31374,7.815041 -8.84602,0 -20.13881,-3.860442 -28.98483,-7.815041 -6.963888,-3.201342 -11.669218,-5.837741 -14.492416,-7.344255 0,-1.412357 -0.941066,-2.824713 -2.917305,-2.824713 l -9.41066,0 c -1.693918,0 -3.199624,1.506513 -3.199624,3.201345 z M 484.79974,278.22207 211.73621,338.66652 c -14.05988,2.89974 -23.0299,16.74876 -19.93205,30.77351 3.09785,14.02475 17.0656,22.80174 31.03736,19.50307 l 273.8502,-60.26055 c 12.74554,-2.62874 21.5236,-14.36407 20.4506,-27.34024 -5.03831,-16.38461 -10.2794,-26.54543 -32.34258,-23.12024 z" id="path4189" mix-blend-mode="normal" solid-color="#000000" opacity="0.8" color-interpolation-filters="linearRGB" filter-gaussianBlur-deviation="0" color="#000000" image-rendering="auto" color-rendering="auto" stroke-width="64" isolation="auto" color-interpolation="sRGB" solid-opacity="1" fill="none" filter-blend-mode="normal" stroke="#ffffff" shape-rendering="auto"/>
 <path d="m 185.38636,261.45768 c -7.99906,0 -15.33938,3.01303 -20.98577,8.66246 -5.6464,5.64942 -8.75191,12.99368 -8.75191,17.04244 l 0,229.08426 c 0,8.00336 3.10551,15.44177 8.75191,21.0912 5.64639,5.64942 13.08082,8.66245 20.98577,8.66245 l 32.93731,0 c 7.99906,0 15.33938,-3.01303 20.98577,-8.66245 5.6464,-5.64943 8.75192,-12.99369 8.75192,-21.0912 l 0,-229.03719 c 0,-4.00167 -3.10552,-11.44009 -8.75192,-17.08951 -5.64639,-5.64943 -13.08082,-8.66246 -20.98577,-8.66246 z m 261.71045,115.24831 c -4.51711,4.51955 -7.05799,10.35729 -7.05799,16.85413 l 0,125.22896 c 0,6.40269 2.44677,12.24043 7.05799,16.85413 4.51712,4.51954 10.35173,6.96762 16.84508,6.96762 l 38.3955,0 c 6.39924,0 12.23385,-2.44808 16.84508,-6.96762 4.51711,-4.51954 7.05799,-10.35729 7.05799,-13.60571 l 0,-131.67873 c 0,-3.20134 -2.44677,-9.03908 -7.05799,-13.65278 -4.51712,-4.51954 -10.35173,-6.96762 -16.84508,-6.96762 l -41.59512,0 c -3.19963,0 -9.03423,2.44808 -13.64546,6.96762 z" id="path4136" fill="#ffffff" isolation="auto" color-rendering="auto" white-space="normal" solid-opacity="1" mix-blend-mode="normal" color-interpolation-filters="linearRGB" shape-rendering="auto" image-rendering="auto" color-interpolation="sRGB" color="#000000" solid-color="#000000"/>
 <path id="rect3925" d="m 185.38636,261.45768 c -7.99906,0 -15.33938,3.01303 -20.98577,8.66246 -5.6464,5.64942 -8.75191,12.99368 -8.75191,17.04244 l 0,229.08426 c 0,8.00336 3.10551,15.44177 8.75191,21.0912 5.64639,5.64942 13.08082,8.66245 20.98577,8.66245 l 32.93731,0 c 7.99906,0 15.33938,-3.01303 20.98577,-8.66245 5.6464,-5.64943 8.75192,-12.99369 8.75192,-21.0912 l 0,-229.03719 c 0,-4.00167 -3.10552,-11.44009 -8.75192,-17.08951 -5.64639,-5.64943 -13.08082,-8.66246 -20.98577,-8.66246 z m 261.71045,115.24831 c -4.51711,4.51955 -7.05799,10.35729 -7.05799,16.85413 l 0,125.22896 c 0,6.40269 2.44677,12.24043 7.05799,16.85413 4.51712,4.51954 10.35173,6.96762 16.84508,6.96762 l 38.3955,0 c 6.39924,0 12.23385,-2.44808 16.84508,-6.96762 4.51711,-4.51954 7.05799,-10.35729 7.05799,-13.60571 l 0,-131.67873 c 0,-3.20134 -2.44677,-9.03908 -7.05799,-13.65278 -4.51712,-4.51954 -10.35173,-6.96762 -16.84508,-6.96762 l -41.59512,0 c -3.19963,0 -9.03423,2.44808 -13.64546,6.96762 z" opacity="0.8" fill="#666666" isolation="auto" color-rendering="auto" white-space="normal" solid-opacity="1" mix-blend-mode="normal" color-interpolation-filters="linearRGB" shape-rendering="auto" image-rendering="auto" color-interpolation="sRGB" color="#000000" solid-color="#000000"/>
 <path id="path15140" d="m 54.107655,37.740373 0,300.361207 c 0,1.69482 1.505706,3.20134 3.199624,3.20134 l 9.41066,0 c 1.693919,0 3.199625,-1.50652 3.199625,-3.20134 l 0,-128.99525 c 11.839417,8.83066 27.601776,16.25107 42.253866,16.47749 10.63404,0 23.15022,-4.14291 35.28997,-8.09751 12.23386,-3.9546 24.09129,-7.81504 31.99624,-7.81504 7.90496,0 17.40973,3.76628 27.29092,7.72088 10.25762,4.04876 21.17398,8.19167 32.65499,8.19167 22.49148,0 47.99436,-12.71121 47.99436,-12.71121 1.03518,-0.56494 1.78803,-1.69483 1.78803,-2.91887 l 0,-166.658098 c -0.21833,-2.383032 -2.67358,-3.924865 -4.61122,-2.824716 0,0 -24.46772,12.052111 -44.23011,12.052111 -9.78708,0 -20.13881,-3.766285 -30.11411,-7.720884 -10.16351,-3.954599 -20.13881,-8.191669 -29.9259,-8.191669 -9.78708,0 -21.64451,4.142913 -33.87837,8.097512 -12.13975,3.954599 -24.46772,7.815041 -33.31374,7.815041 -8.84602,0 -20.13881,-3.860442 -28.98483,-7.815041 -6.963888,-3.201342 -11.669218,-5.837741 -14.492416,-7.344255 0,-1.412357 -0.941066,-2.824713 -2.917305,-2.824713 l -9.41066,0 c -1.693918,0 -3.199624,1.506513 -3.199624,3.201345 z M 484.79974,278.22207 211.73621,338.66652 c -14.05988,2.89974 -23.0299,16.74876 -19.93205,30.77351 3.09785,14.02475 17.0656,22.80174 31.03736,19.50307 l 273.8502,-60.26055 c 12.74554,-2.62874 21.5236,-14.36407 20.4506,-27.34024 -5.03831,-16.38461 -10.2794,-26.54543 -32.34258,-23.12024 z" fill="#666666" color="#000000"/>
</svg>
