<?xml version="1.0" encoding="UTF-8" standalone="no"?>
<svg xmlns="http://www.w3.org/2000/svg" version="1.0" width="580" height="580">
 <metadata id="metadata10"/>
 <path id="path4136" d="M 310,97 C 258,162 205,228 153,294 l -112.5,0 c -1.6,0 -2.9,1 -2.9,3 l 0,38 c 0,2 1.3,3 2.9,3 l 131.5,0 c 1,0 2,0 2,-1 57,-71 114,-142 171,-212 1,-1 1,-3 0,-4 l -31,-25 -1,0 c -1,0 -2,1 -3,1 z m 99,196 0,39 c 0,2 1,3 3,3 l 127,0 c 2,0 3,-1 3,-3 l 0,-39 c 0,-1 -1,-3 -3,-3 l -127,0 c -2,0 -3,2 -3,3 z m -371.4,57 0,131 c 0,2 1.3,3 2.9,3 l 95.5,0 c 2,0 3,-1 3,-3 l 0,-131 c 0,-2 -1,-3 -3,-3 l -95.5,0 c -1.6,0 -2.9,1 -2.9,3 z m 403.4,0 0,131 c 0,2 1,3 3,3 l 95,0 c 2,0 3,-1 3,-3 l 0,-131 c 0,-2 -1,-3 -3,-3 l -95,0 c -2,0 -3,1 -3,3 z" mix-blend-mode="normal" solid-color="#000000" opacity="0.8" color-interpolation-filters="linearRGB" filter-gaussianBlur-deviation="0" color="#000000" image-rendering="auto" color-rendering="auto" stroke-width="64" isolation="auto" color-interpolation="sRGB" solid-opacity="1" fill="none" stroke-linejoin="round" filter-blend-mode="normal" stroke="#ffffff" shape-rendering="auto"/>
 <path d="M 310,97 C 258,162 205,228 153,294 l -112.5,0 c -1.6,0 -2.9,1 -2.9,3 l 0,38 c 0,2 1.3,3 2.9,3 l 131.5,0 c 1,0 2,0 2,-1 57,-71 114,-142 171,-212 1,-1 1,-3 0,-4 l -31,-25 -1,0 c -1,0 -2,1 -3,1 z m 99,196 0,39 c 0,2 1,3 3,3 l 127,0 c 2,0 3,-1 3,-3 l 0,-39 c 0,-1 -1,-3 -3,-3 l -127,0 c -2,0 -3,2 -3,3 z m -371.4,57 0,131 c 0,2 1.3,3 2.9,3 l 95.5,0 c 2,0 3,-1 3,-3 l 0,-131 c 0,-2 -1,-3 -3,-3 l -95.5,0 c -1.6,0 -2.9,1 -2.9,3 z m 403.4,0 0,131 c 0,2 1,3 3,3 l 95,0 c 2,0 3,-1 3,-3 l 0,-131 c 0,-2 -1,-3 -3,-3 l -95,0 c -2,0 -3,1 -3,3 z" id="path4153" fill="#666666"/>
</svg>
