<?xml version="1.0" encoding="UTF-8" standalone="no"?>
<svg xmlns="http://www.w3.org/2000/svg" version="1.0" width="580" height="580">
 <metadata id="metadata10"/>
 <path id="path3055" d="M 290 102.25586 A 190 148.49242 0 0 0 100.04688 250.01953 L 100 250.01953 L 100 250.74805 L 100 428.47852 L 480 428.47852 L 480 250.74805 L 480 250.01953 L 479.9668 250.01953 A 190 148.49242 0 0 0 290 102.25586 z M 150.5 219 L 270.5 219 L 270.5 274 L 150.5 274 L 150.5 219 z M 309.5 219 L 429.5 219 L 429.5 274 L 309.5 274 L 309.5 219 z " opacity="0.8" fill="none" stroke="#ffffff" vector-effect="none" stroke-linejoin="round" stroke-width="64"/>
 <path d="M 290 102.25586 A 190 148.49242 0 0 0 100.04688 250.01953 L 100 250.01953 L 100 250.74805 L 100 428.47852 L 480 428.47852 L 480 250.74805 L 480 250.01953 L 479.9668 250.01953 A 190 148.49242 0 0 0 290 102.25586 z M 150.5 219 L 270.5 219 L 270.5 274 L 150.5 274 L 150.5 219 z M 309.5 219 L 429.5 219 L 429.5 274 L 309.5 274 L 309.5 219 z " id="rect4515" fill="#256f25"/>
</svg>
