<?xml version="1.0" encoding="UTF-8" standalone="no"?>
<svg xmlns="http://www.w3.org/2000/svg" version="1.0" width="580" height="580">
 <metadata id="metadata10"/>
 <path id="path3062" d="M 290 102.25586 A 190 148.49242 0 0 0 100.04688 250.01953 L 100 250.01953 L 100 250.74805 L 100 428.47852 L 480 428.47852 L 480 251.27148 L 429.5 249.48828 L 429.5 274 L 309.5 274 L 309.5 219 L 364.59961 219 L 372 182 L 310 144 L 359.46484 112.60938 A 190 148.49242 0 0 0 290 102.25586 z M 150.5 219 L 270.5 219 L 270.5 274 L 150.5 274 L 150.5 219 z " opacity="0.8" fill="none" stroke="#ffffff" vector-effect="none" stroke-linejoin="round" stroke-width="64"/>
 <path d="M 290 102.25586 A 190 148.49242 0 0 0 100.04688 250.01953 L 100 250.01953 L 100 250.74805 L 100 428.47852 L 480 428.47852 L 480 251.27148 L 429.5 249.48828 L 429.5 274 L 309.5 274 L 309.5 219 L 364.59961 219 L 372 182 L 310 144 L 359.46484 112.60938 A 190 148.49242 0 0 0 290 102.25586 z M 150.5 219 L 270.5 219 L 270.5 274 L 150.5 274 L 150.5 219 z " id="rect4515" fill="#c9820d"/>
</svg>
