<?xml version="1.0" encoding="UTF-8" standalone="no"?>
<svg xmlns="http://www.w3.org/2000/svg" width="580" height="1160" version="1.0">
 <metadata id="metadata3003"/>
 <path id="path816" d="M 276 583.59961 L 276 704 L 87 704 C 72.2 704 60.099609 715.80039 60.099609 730.40039 L 60.099609 1013.4004 C 60.099609 1027.9004 72.1 1039.9004 87 1039.9004 L 489 1039.9004 C 504 1040.0004 516 1029 516 1014 L 516 731 C 516 716.5 503.99961 704.59961 489.09961 704.59961 L 489 704 L 300 704 L 300 583.59961 L 276 583.59961 z " opacity="0.8" fill="none" stroke="#ffffff" vector-effect="none" stroke-linejoin="round" stroke-width="64"/>
 <path d="M 276 583.59961 L 276 704 L 87 704 C 72.2 704 60.099609 715.80039 60.099609 730.40039 L 60.099609 1013.4004 C 60.099609 1027.9004 72.1 1039.9004 87 1039.9004 L 489 1039.9004 C 504 1040.0004 516 1029 516 1014 L 516 731 C 516 716.5 503.99961 704.59961 489.09961 704.59961 L 489 704 L 300 704 L 300 583.59961 L 276 583.59961 z " id="path3760" fill="#20a0a0"/>
 <path d="m 84,756 v 89 c 0,8 7,15 16,15 h 89 c 8,0 15,-7 15,-15 v -89 c 0,-9 -7,-16 -15,-16 h -89 c -9,0 -16,7 -16,16 z m 144,0 v 89 c 0,9 7,16 16,15 h 89 c 8,0 15,-7 15,-15 v -89 c 0,-9 -7,-16 -16,-16 h -89 c -8,0 -15,7 -15,16 z m 144,0 v 89 c 0,8 7,15 16,15 h 89 c 8,0 15,-7 15,-15 v -89 c 0,-9 -7,-16 -15,-16 h -89 c -9,0 -16,7 -16,16 z" id="path3758-6" opacity="0.7" fill="#ffffff"/>
</svg>
