<?xml version="1.0" encoding="UTF-8" standalone="no"?>
<svg xmlns="http://www.w3.org/2000/svg" version="1.1" width="580" height="580" viewBox="0 0 580 580" enable-background="new 0 0 580 580">
 <metadata id="metadata23"/>
 <path id="path4212" d="m 366.41982,278.60126 c 0,23.11833 -47.0183,60.46395 -87.1091,60.46395 -82.75306,0 -63.87974,-28.043 -63.87974,-51.16133 0,-23.11833 23.78894,-32.55763 63.87974,-32.55763 40.0908,0 87.1091,-18.60448 87.1091,23.25501 z" mix-blend-mode="normal" solid-color="#000000" color-interpolation-filters="linearRGB" opacity="0.8" filter-gaussianBlur-deviation="0" color="#000000" image-rendering="auto" color-rendering="auto" stroke-width="64" isolation="auto" color-interpolation="sRGB" solid-opacity="1" fill="none" filter-blend-mode="normal" stroke="#ffffff" shape-rendering="auto"/>
 <path id="path4214" d="m 437.83499,410.94711 c -1.02406,33.00773 -121.25943,56.06414 -202.58593,53.54402 -81.32573,-2.52012 -81.81133,-27.93577 -91.9205,-62.67067 -11.92921,-40.98948 68.92829,-41.21302 149.10535,-55.20244 86.26327,-15.05123 146.42364,31.32136 145.40108,64.32909 z" mix-blend-mode="normal" solid-color="#000000" color-interpolation-filters="linearRGB" opacity="0.8" filter-gaussianBlur-deviation="0" color="#000000" image-rendering="auto" color-rendering="auto" stroke-width="64" isolation="auto" color-interpolation="sRGB" solid-opacity="1" fill="none" filter-blend-mode="normal" stroke="#ffffff" shape-rendering="auto"/>
 <path id="path4216" d="m 340.4302,219.49291 c 0,15.38654 -26.37627,16.95888 -48.45166,16.95888 -22.07691,0 -43.50131,-1.17964 -48.45243,-15.74753 -17.29194,-50.87437 26.37552,-39.97299 48.45243,-39.97299 22.07614,0 48.45166,0 48.45166,38.76164 z" mix-blend-mode="normal" solid-color="#000000" color-interpolation-filters="linearRGB" opacity="0.8" filter-gaussianBlur-deviation="0" color="#000000" image-rendering="auto" color-rendering="auto" stroke-width="64" isolation="auto" color-interpolation="sRGB" solid-opacity="1" fill="none" filter-blend-mode="normal" stroke="#ffffff" shape-rendering="auto"/>
 <path id="path4218" d="m 319.53897,138.33559 c 0,12.71084 -8.94766,23.01486 -19.98649,23.01486 -11.03807,0 -39.09242,-5.45862 -39.09242,-18.16947 0,-12.71085 28.05359,-27.86026 39.09242,-27.86026 11.03959,0 19.98649,10.30402 19.98649,23.01487 z" mix-blend-mode="normal" solid-color="#000000" color-interpolation-filters="linearRGB" opacity="0.8" filter-gaussianBlur-deviation="0" color="#000000" image-rendering="auto" color-rendering="auto" stroke-width="64" isolation="auto" color-interpolation="sRGB" solid-opacity="1" fill="none" filter-blend-mode="normal" stroke="#ffffff" shape-rendering="auto"/>
 <path d="m 366.41982,278.60126 c 0,23.11833 -47.0183,60.46395 -87.1091,60.46395 -82.75306,0 -63.87974,-28.043 -63.87974,-51.16133 0,-23.11833 23.78894,-32.55763 63.87974,-32.55763 40.0908,0 87.1091,-18.60448 87.1091,23.25501 z" id="path11" mix-blend-mode="normal" solid-color="#000000" color-interpolation-filters="linearRGB" color="#000000" image-rendering="auto" color-rendering="auto" isolation="auto" color-interpolation="sRGB" solid-opacity="1" shape-rendering="auto"/>
 <path d="m 437.83499,410.94711 c -1.02406,33.00773 -121.25943,56.06414 -202.58593,53.54402 -81.32573,-2.52012 -81.81133,-27.93577 -91.9205,-62.67067 -11.92921,-40.98948 68.92829,-41.21302 149.10535,-55.20244 86.26327,-15.05123 146.42364,31.32136 145.40108,64.32909 z" id="path13" mix-blend-mode="normal" solid-color="#000000" color-interpolation-filters="linearRGB" color="#000000" image-rendering="auto" color-rendering="auto" isolation="auto" color-interpolation="sRGB" solid-opacity="1" shape-rendering="auto"/>
 <path d="m 340.4302,219.49291 c 0,15.38654 -26.37627,16.95888 -48.45166,16.95888 -22.07691,0 -43.50131,-1.17964 -48.45243,-15.74753 -17.29194,-50.87437 26.37552,-39.97299 48.45243,-39.97299 22.07614,0 48.45166,0 48.45166,38.76164 z" id="path15" mix-blend-mode="normal" solid-color="#000000" color-interpolation-filters="linearRGB" color="#000000" image-rendering="auto" color-rendering="auto" isolation="auto" color-interpolation="sRGB" solid-opacity="1" shape-rendering="auto"/>
 <path d="m 319.53897,138.33559 c 0,12.71084 -8.94766,23.01486 -19.98649,23.01486 -11.03807,0 -39.09242,-5.45862 -39.09242,-18.16947 0,-12.71085 28.05359,-27.86026 39.09242,-27.86026 11.03959,0 19.98649,10.30402 19.98649,23.01487 z" id="path17" mix-blend-mode="normal" solid-color="#000000" color-interpolation-filters="linearRGB" color="#000000" image-rendering="auto" color-rendering="auto" isolation="auto" color-interpolation="sRGB" solid-opacity="1" shape-rendering="auto"/>
</svg>
