<?xml version="1.0" encoding="UTF-8" standalone="no"?>
<svg xmlns="http://www.w3.org/2000/svg" version="1.0" width="580" height="580">
 <metadata id="metadata2975"/>
 <path id="path4156" d="m 112.01456,328.14178 35.59709,0 0,213.7854 107.33891,0 0,-108.4125 73.38476,0 0,108.4125 104.05302,0 0,-213.7854 35.59709,0 -177.98542,-141.84814 z" mix-blend-mode="normal" solid-color="#000000" opacity="0.8" color-interpolation-filters="linearRGB" color="#000000" image-rendering="auto" color-rendering="auto" stroke-width="64" isolation="auto" color-interpolation="sRGB" solid-opacity="1" fill="none" stroke-linejoin="round" stroke="#ffffff" shape-rendering="auto"/>
 <path d="m 290.54766,186.29363 -178.5331,142.86132 35.59711,0 0,213.78541 107.33889,0 0,-108.41251 73.38477,0 0,108.41251 104.05304,0 0,-213.78541 35.59707,0 -177.43778,-141.84812" id="path645" fill="#0092da" fill-rule="evenodd"/>
 <g id="g4148" transform="translate(-146.62111,-96.65839)" fill="#0092da">
  <path d="m 269.50594,231.57431 c 8,37.5 45.9,68 85,62 24.7,-2.4 47.9,-17 61,-38 11.7,-5.5 26.3,3.4 37,-5.5 8.4,-5.3 14.3,-22 24.8,-18.9 5.9,4 10,14.8 18.4,13 8.6,-4 15.7,-22.6 24,-7.9 4.2,5.2 12.7,13 18.6,5.2 7.1,-11.5 17,-15 24.5,-1.8 5.4,7 12.8,5.5 19.5,-1.2 8.5,-8.9 18.6,-17.6 23.8,-28.9 -0.6,-11.6 -8.6,-16.6 -17.6,-24.6 -15,-15 -28,-11 -42,-11 -44,-1 -91,1 -131,-1 -18,-26 -39,-40 -70,-39.4 -48,-0.8 -88,51 -76,98 z m 48,-37 c 17.3,1.6 24.9,29 8.6,38 -13.7,8.7 -35,-2.8 -31.6,-19.9 2.8,-13 12.6,-19 23,-18 z" id="path4139" mix-blend-mode="normal" solid-color="#000000" opacity="0.8" color-interpolation-filters="linearRGB" color="#000000" image-rendering="auto" color-rendering="auto" stroke-width="64" isolation="auto" color-interpolation="sRGB" solid-opacity="1" stroke-linejoin="round" stroke="#ffffff" shape-rendering="auto"/>
  <path id="path2307" d="m 269.50594,231.57431 c 8,37.5 45.9,68 85,62 24.7,-2.4 47.9,-17 61,-38 11.7,-5.5 26.3,3.4 37,-5.5 8.4,-5.3 14.3,-22 24.8,-18.9 5.9,4 10,14.8 18.4,13 8.6,-4 15.7,-22.6 24,-7.9 4.2,5.2 12.7,13 18.6,5.2 7.1,-11.5 17,-15 24.5,-1.8 5.4,7 12.8,5.5 19.5,-1.2 8.5,-8.9 18.6,-17.6 23.8,-28.9 -0.6,-11.6 -8.6,-16.6 -17.6,-24.6 -15,-15 -28,-11 -42,-11 -44,-1 -91,1 -131,-1 -18,-26 -39,-40 -70,-39.4 -48,-0.8 -88,51 -76,98 z m 48,-37 c 17.3,1.6 24.9,29 8.6,38 -13.7,8.7 -35,-2.8 -31.6,-19.9 2.8,-13 12.6,-19 23,-18 z"/>
 </g>
 <path d="m 112.01456,328.14176 35.59709,0 0,213.7854 107.3389,0 0,-108.41251 73.38478,0 0,108.41251 104.05302,0 0,-213.7854 35.59709,0 L 290,186.29363 Z" id="path645-1" fill="#0092da" fill-rule="evenodd"/>
</svg>
