<?xml version="1.0" encoding="UTF-8" standalone="no"?>
<svg xmlns="http://www.w3.org/2000/svg" version="1.0" height="1160" width="580">
 <metadata id="metadata3003"/>
 <path d="m 32.401071,751.43782 30,170 c 5.7,30.7 27.3,56.9 57.999999,66 8.1,2.49998 16.3,3.79998 24.4,3.79998 l 59,0.2 c 26.7,0 26.8,-35.99998 0.2,-35.79998 l -56,-0.2 c -5.4,-0.4 -11.2,-0.6 -16.6,-2.3 -18,-5.7 -30.7,-20.8 -33.999999,-38 l -30.2,-169.5 c -2.1,-11.9 -9.9,-17.3 -17.8,-17.7 -10.1,-0.4 -19.8,8.3 -17,23.5 z M 145.8072,727.99998 c -23.41349,0 -42.39388,-18.98035 -42.39388,-42.39385 0,-23.41351 18.98039,-42.39386 42.39388,-42.39386 23.41349,0 42.39387,18.98035 42.39387,42.39386 0,23.4135 -18.98038,42.39385 -42.39387,42.39385 z M 296.20107,572.63867 193.71865,803.22656 186.70107,762.1875 c -1.5,-8.35 -16.2,-21.14961 -34.25,-21.84961 -20.25,-0.7 -36.25,15.30078 -36.25,35.30078 5.38217,38.23946 12.86696,78.74425 17.18359,103.67188 4.31663,24.92763 19.01641,37.72656 36.81641,37.72656 h 90 l 0.19922,111.10159 c 0.2,5.1 8.10078,12.5996 17.80078,12.5996 9.7,0 17.60078,-7.4996 17.80078,-12.5996 l 0.19922,-137.10159 c 0,-14.6 -12,-26.5 -27,-26.5 h -65 l -3.81445,-22.31445 119.81445,-269.58399 z" id="path812" opacity="0.8" fill="none" stroke="#ffffff" vector-effect="none" stroke-linejoin="round" stroke-width="64"/>
 <path id="path15" d="m 32.401071,751.43782 30,170 c 5.7,30.7 27.3,56.9 57.999999,66 8.1,2.49998 16.3,3.79998 24.4,3.79998 l 59,0.2 c 26.7,0 26.8,-35.99998 0.2,-35.79998 l -56,-0.2 c -5.4,-0.4 -11.2,-0.6 -16.6,-2.3 -18,-5.7 -30.7,-20.8 -33.999999,-38 l -30.2,-169.5 c -2.1,-11.9 -9.9,-17.3 -17.8,-17.7 -10.1,-0.4 -19.8,8.3 -17,23.5 z M 145.8072,727.99998 c -23.41349,0 -42.39388,-18.98035 -42.39388,-42.39385 0,-23.41351 18.98039,-42.39386 42.39388,-42.39386 23.41349,0 42.39387,18.98035 42.39387,42.39386 0,23.4135 -18.98038,42.39385 -42.39387,42.39385 z M 296.20107,572.63867 193.71865,803.22656 186.70107,762.1875 c -1.5,-8.35 -16.2,-21.14961 -34.25,-21.84961 -20.25,-0.7 -36.25,15.30078 -36.25,35.30078 5.38217,38.23946 12.86696,78.74425 17.18359,103.67188 4.31663,24.92763 19.01641,37.72656 36.81641,37.72656 h 90 l 0.19922,111.10159 c 0.2,5.1 8.10078,12.5996 17.80078,12.5996 9.7,0 17.60078,-7.4996 17.80078,-12.5996 l 0.19922,-137.10159 c 0,-14.6 -12,-26.5 -27,-26.5 h -65 l -3.81445,-22.31445 119.81445,-269.58399 z" fill="#20a0a0"/>
</svg>
