<?xml version="1.0" encoding="UTF-8" standalone="no"?>
<svg xmlns="http://www.w3.org/2000/svg" width="580" height="580" version="1.1">
 <metadata id="metadata7"/>
 <path id="path4139" d="m 230,62 c -17.7,2.8 -12.9,23.6 0,24 l 24,0 0,48 -24,0 c -17.7,2.8 -12.9,23.6 0,24 l 120,0 c 17.7,-2.8 12.9,-23.6 0,-24 l -24,0 0,-48 24,0 c 17.7,-2.8 12.9,-23.6 0,-24 z" mix-blend-mode="normal" solid-color="#000000" opacity="0.8" color-interpolation-filters="linearRGB" filter-gaussianBlur-deviation="0" color="#000000" image-rendering="auto" color-rendering="auto" stroke-width="64" isolation="auto" color-interpolation="sRGB" solid-opacity="1" fill="none" stroke-linejoin="round" filter-blend-mode="normal" stroke="#ffffff" shape-rendering="auto"/>
 <path id="path4141" d="m 206,182 c -20,0 -36,16.1 -36,36 l 0,264 c 0,20 16.1,36 36,36 l 168,0 c 20,0 36,-16.1 36,-36 l 0,-264 c 0,-20 -16.1,-36 -36,-36 z" mix-blend-mode="normal" solid-color="#000000" opacity="0.8" color-interpolation-filters="linearRGB" filter-gaussianBlur-deviation="0" color="#000000" image-rendering="auto" color-rendering="auto" stroke-width="64" isolation="auto" color-interpolation="sRGB" solid-opacity="1" fill="none" stroke-linejoin="round" filter-blend-mode="normal" stroke="#ffffff" shape-rendering="auto"/>
 <path d="m 230,62 c -17.7,2.8 -12.9,23.6 0,24 l 24,0 0,48 -24,0 c -17.7,2.8 -12.9,23.6 0,24 l 120,0 c 17.7,-2.8 12.9,-23.6 0,-24 l -24,0 0,-48 24,0 c 17.7,-2.8 12.9,-23.6 0,-24 z" id="path4137" fill="#ac39ac"/>
 <path d="m 206,182 c -20,0 -36,16.1 -36,36 l 0,264 c 0,20 16.1,36 36,36 l 168,0 c 20,0 36,-16.1 36,-36 l 0,-264 c 0,-20 -16.1,-36 -36,-36 z" id="rect2998" fill="#ac39ac"/>
 <path d="m 170,302 120,0 0,24 -120,0 0,24 120,0 0,24 -120,0 0,24 144,0 0,-120 -144,0 z" id="rect3877" opacity="0.8" fill="#ffffff"/>
</svg>
