<?xml version="1.0" encoding="UTF-8" standalone="no"?>
<svg xmlns="http://www.w3.org/2000/svg" version="1.0" width="580" height="580">
 <metadata id="metadata10"/>
 <g id="g824" transform="matrix(1.0093547,0,0,1.0093547,-2.7128635,-2.712863)">
  <path d="m 326.65578,37.185191 c -4.31241,3.234309 -7.54672,5.390514 -10.78103,8.624823 l 11.85914,24.796364 -18.32775,9.702926 -8.62482,-19.51324 c -3.23431,3.342119 -6.46862,5.497903 -9.70293,7.654109 -3.23431,2.156205 -5.39051,4.312411 -7.54672,5.390514 -20.48395,8.624822 -47.43652,4.312411 -67.92048,12.937233 -20.48395,8.624823 -34.49929,29.10878 -52.82703,37.7336 -23.71826,9.70292 -38.8117,1.0781 -60.37376,10.78103 -7.54672,4.31241 -15.093439,10.78103 -21.562056,17.24964 l 15.093439,-7.54672 15.093437,30.18688 -19.405848,9.70293 -14.015337,-29.10878 c -2.156205,2.15621 -5.390514,4.31241 -7.546719,7.54672 l 182.199374,379.49219 10.78103,-10.78103 -4.31241,2.1562 -15.09344,-30.18687 19.40585,-9.70293 12.93723,28.03067 c 1.0781,-1.0781 2.15621,-2.1562 4.31241,-2.1562 2.15621,-1.07811 5.39052,-2.15621 7.54672,-3.23431 17.24965,-4.31241 35.57739,-1.0781 51.74894,-7.54672 19.40585,-8.62482 33.42118,-30.18688 52.82703,-38.8117 20.48396,-8.62482 47.43653,-3.23431 67.92048,-12.93723 4.31241,-2.15621 9.70293,-4.31242 12.93723,-7.54672 12.93724,-9.70293 22.64016,-23.71827 36.6555,-31.26499 z m 20.48396,72.232889 14.01533,31.26498 -18.32775,8.62482 -15.09343,-30.18688 z m 33.42118,70.07668 14.01534,30.18688 -18.32775,9.70293 -15.09344,-30.18688 z m -252.27605,35.57739 15.09344,30.18688 -19.40585,9.70293 -14.01534,-31.26498 z m 284.61914,34.49929 15.09344,30.18688 -19.40585,8.62483 -14.01534,-30.18688 z m -251.19796,34.49929 15.09344,31.26499 -19.40585,8.62482 -15.09344,-30.18688 z m 284.61914,34.49929 15.09344,30.18688 -19.40585,9.70293 -14.01533,-30.18688 z m -251.19795,35.5774 14.01534,30.18687 -18.32775,9.70293 -15.09344,-31.26498 z m 284.61914,34.49929 15.09344,30.18687 -19.40585,8.62483 -15.09344,-30.18688 z m -251.19795,34.49929 14.01533,31.26498 -18.32774,8.62482 -15.09344,-30.18688 z" id="path4158" mix-blend-mode="normal" solid-color="#000000" opacity="0.8" color-interpolation-filters="linearRGB" color="#000000" image-rendering="auto" color-rendering="auto" stroke-width="69" isolation="auto" color-interpolation="sRGB" solid-opacity="1" fill="none" stroke-linejoin="round" stroke="#ffffff" shape-rendering="auto"/>
  <path id="path4155" d="m 326.65578,37.185191 c -4.31241,3.234309 -7.54672,5.390514 -10.78103,8.624823 l 11.85914,24.796364 -18.32775,9.702926 -8.62482,-19.51324 c -3.23431,3.342119 -6.46862,5.497903 -9.70293,7.654109 -3.23431,2.156205 -5.39051,4.312411 -7.54672,5.390514 -20.48395,8.624822 -47.43652,4.312411 -67.92048,12.937233 -20.48395,8.624823 -34.49929,29.10878 -52.82703,37.7336 -23.71826,9.70292 -38.8117,1.0781 -60.37376,10.78103 -7.54672,4.31241 -15.093439,10.78103 -21.562056,17.24964 l 15.093439,-7.54672 15.093437,30.18688 -19.405848,9.70293 -14.015337,-29.10878 c -2.156205,2.15621 -5.390514,4.31241 -7.546719,7.54672 l 182.199374,379.49219 10.78103,-10.78103 -4.31241,2.1562 -15.09344,-30.18687 19.40585,-9.70293 12.93723,28.03067 c 1.0781,-1.0781 2.15621,-2.1562 4.31241,-2.1562 2.15621,-1.07811 5.39052,-2.15621 7.54672,-3.23431 17.24965,-4.31241 35.57739,-1.0781 51.74894,-7.54672 19.40585,-8.62482 33.42118,-30.18688 52.82703,-38.8117 20.48396,-8.62482 47.43653,-3.23431 67.92048,-12.93723 4.31241,-2.15621 9.70293,-4.31242 12.93723,-7.54672 12.93724,-9.70293 22.64016,-23.71827 36.6555,-31.26499 z m 20.48396,72.232889 14.01533,31.26498 -18.32775,8.62482 -15.09343,-30.18688 z m 33.42118,70.07668 14.01534,30.18688 -18.32775,9.70293 -15.09344,-30.18688 z m -252.27605,35.57739 15.09344,30.18688 -19.40585,9.70293 -14.01534,-31.26498 z m 284.61914,34.49929 15.09344,30.18688 -19.40585,8.62483 -14.01534,-30.18688 z m -251.19796,34.49929 15.09344,31.26499 -19.40585,8.62482 -15.09344,-30.18688 z m 284.61914,34.49929 15.09344,30.18688 -19.40585,9.70293 -14.01533,-30.18688 z m -251.19795,35.5774 14.01534,30.18687 -18.32775,9.70293 -15.09344,-31.26498 z m 284.61914,34.49929 15.09344,30.18687 -19.40585,8.62483 -15.09344,-30.18688 z m -251.19795,34.49929 14.01533,31.26498 -18.32774,8.62482 -15.09344,-30.18688 z" fill="#c9820d" stroke-width="1.08"/>
  <path id="path4152" d="m 216.6893,86.993541 c -20.48396,8.624822 -34.17586,29.540019 -52.82704,37.733599 -18.00432,7.54672 -39.35075,2.0484 -57.13945,9.16387 l 46.35842,98.10736 176.80886,-84.09202 -37.7336,-78.701505 c -2.26401,1.509344 -5.06708,3.665549 -8.08577,4.743652 -21.023,9.056064 -47.65214,4.420221 -67.38142,13.045044 z" opacity="0.7" fill="#ffffff" stroke-width="1.08"/>
  <path id="path4150" d="M 160.62795,248.49334 241.48566,417.75548 418.29452,332.58536 336.35871,163.32322 Z" opacity="0.7" fill="#ffffff" stroke-width="1.08"/>
  <path id="rect3445" d="m 249.03238,435.00513 38.8117,81.93581 c 16.49497,-4.31241 35.25396,-1.0781 51.42551,-7.87015 18.9746,-8.30139 32.98994,-29.54002 52.82703,-37.7336 20.26834,-8.62482 46.35842,-3.98898 66.84238,-13.15285 4.42022,-2.0484 9.4873,-4.52804 13.26066,-7.65453 L 424.76314,350.26625 Z" opacity="0.7" fill="#ffffff" stroke-width="1.08"/>
 </g>
</svg>
