<?xml version="1.0" encoding="UTF-8" standalone="no"?>
<svg xmlns="http://www.w3.org/2000/svg" version="1.0" width="580" height="580">
 <metadata id="metadata2975"/>
 <path id="path931" d="m 530.38152,514.39729 c -10.13244,0 -20.04076,-1.84644 -28.75705,-4.95388 -8.97853,-3.31381 -19.11095,-5.22028 -29.6916,-5.22028 -10.4662,0 -20.59864,1.90647 -29.57718,5.22028 -8.83072,3.10744 -18.62459,4.95388 -28.87147,4.95388 -10.24687,0 -20.00263,-1.84644 -28.75705,-4.95388 -8.94039,-3.31381 -19.07283,-5.22028 -29.69162,-5.22028 -10.46621,0 -20.59865,1.90647 -29.65347,5.22028 -8.75443,3.10744 -18.51495,4.95388 -28.75706,4.95388 -10.24211,0 -20.04076,-1.84644 -28.79519,-4.95388 -9.01669,-3.31381 -19.11097,-5.22028 -29.69162,-5.22028 -10.54251,0 -20.59865,1.90647 -29.61532,5.22028 -8.79258,3.10744 -18.58648,4.95388 -28.83335,4.95388 -10.24688,0 -20.00262,-1.84644 -28.7952,-4.95388 -8.97853,-3.31381 -19.11097,-5.22028 -29.61532,-5.22028 -10.61879,0 -20.67495,1.90647 -29.653477,5.22028 -8.79257,3.10744 -18.55308,4.95388 -28.79519,4.95388 v -34.00894 c 10.24211,0 20.00262,-1.8164 28.79519,-4.92384 8.978527,-3.22374 19.034687,-5.13021 29.653477,-5.13021 10.50435,0 20.63679,1.90647 29.61532,5.13021 8.79258,3.10744 18.5531,4.92384 28.7952,4.92384 10.24211,0 20.04077,-1.8164 28.83335,-4.92384 9.01667,-3.22374 19.07281,-5.13021 29.61532,-5.13021 10.58065,0 20.67493,1.90647 29.69162,5.13021 8.75443,3.10744 18.55308,4.92384 28.79519,4.92384 10.24211,0 20.00263,-1.8164 28.75706,-4.92384 9.05005,-3.22374 19.18249,-5.13021 29.65347,-5.13021 10.61879,0 20.75123,1.90647 29.69162,5.13021 8.75442,3.10744 18.51494,4.92384 28.75705,4.92384 10.24211,0 20.04075,-1.8164 28.87147,-4.92384 8.97854,-3.22374 19.11098,-5.13021 29.57718,-5.13021 10.58065,0 20.71307,1.90647 29.6916,5.13021 8.71629,3.10744 18.62461,4.92384 28.75705,4.92384 z" mix-blend-mode="normal" solid-color="#256f25" opacity="0.8" color-interpolation-filters="linearRGB" filter-gaussianBlur-deviation="0" vector-effect="none" color="#256f25" image-rendering="auto" paint-order="stroke fill markers" color-rendering="auto" stroke-width="57.5" fill-rule="evenodd" isolation="auto" color-interpolation="sRGB" solid-opacity="1" fill="none" filter-blend-mode="normal" stroke="#ffffff" shape-rendering="auto"/>
 <g transform="matrix(3.2 -0.3 0.3 3.2 -49.8 -527)" id="g939" mix-blend-mode="normal" solid-color="#256f25" opacity="0.8" color-interpolation-filters="linearRGB" filter-gaussianBlur-deviation="0" vector-effect="none" color="#256f25" image-rendering="auto" paint-order="stroke fill markers" color-rendering="auto" stroke-width="18.1" fill-rule="evenodd" isolation="auto" color-interpolation="sRGB" solid-opacity="1" fill="none" filter-blend-mode="normal" stroke="#ffffff" shape-rendering="auto">
  <path id="path933" transform="translate(0,280)" d="m 75.8125,-86.78125 c -0.712129,0.05357 -1.352662,0.462522 -1.84375,1.4375 -1.363204,2.6687 0.17684,6.09431 3.4375,7.65625 0,0 33.26809,13.78074 44.375,21.25 -10.94625,13.942917 -24.609183,17.924012 -24.609183,17.924012 0,0 -3.44803,1.056644 -3.797067,1.294738 -2.367892,-1.84421 -5.282451,-3.023016 -7.53125,-2.53125 l -71.4375,15.625 c -4.105893,0.568404 -8.8763313,-0.350869 -8.34375,4.5 0.5325813,4.850869 1.9178415,5.333437 6.324557,4.860702 28.601032,-2.791941 61.637903,-3.039204 89.251193,-7.97304 0,0 17.28034,-4.465099 33.5805,-11.887662 5.04186,-2.295899 9.45975,-11.62263 9.1875,-19.90625 -0.047,-1.43078 -1.3125,-2.15625 -1.3125,-2.15625 -0.37609,-0.881522 -0.87274,-1.718864 -1.46875,-2.46875 -0.96734,-1.90924 -2.52545,-3.615625 -4.21875,-4.25 L 81.5,-84.34375 c -2.122035,-0.952036 -4.120817,-2.555363 -5.6875,-2.4375 z" mix-blend-mode="normal" solid-color="#256f25" filter-gaussianBlur-deviation="0" vector-effect="none" paint-order="stroke fill markers" stroke-width="18.1" isolation="auto" solid-opacity="1" filter-blend-mode="normal"/>
  <circle transform="translate(3.9285714,289.28571)" id="circle935" cx="153.4" cy="-66.96" r="10.54" stroke-width="18.1"/>
 </g>
 <path d="m 530.38152,514.39729 c -10.13244,0 -20.04076,-1.84644 -28.75705,-4.95388 -8.97853,-3.31381 -19.11095,-5.22028 -29.6916,-5.22028 -10.4662,0 -20.59864,1.90647 -29.57718,5.22028 -8.83072,3.10744 -18.62459,4.95388 -28.87147,4.95388 -10.24687,0 -20.00263,-1.84644 -28.75705,-4.95388 -8.94039,-3.31381 -19.07283,-5.22028 -29.69162,-5.22028 -10.46621,0 -20.59865,1.90647 -29.65347,5.22028 -8.75443,3.10744 -18.51495,4.95388 -28.75706,4.95388 -10.24211,0 -20.04076,-1.84644 -28.79519,-4.95388 -9.01669,-3.31381 -19.11097,-5.22028 -29.69162,-5.22028 -10.54251,0 -20.59865,1.90647 -29.61532,5.22028 -8.79258,3.10744 -18.58648,4.95388 -28.83335,4.95388 -10.24688,0 -20.00262,-1.84644 -28.7952,-4.95388 -8.97853,-3.31381 -19.11097,-5.22028 -29.61532,-5.22028 -10.61879,0 -20.67495,1.90647 -29.653477,5.22028 -8.79257,3.10744 -18.55308,4.95388 -28.79519,4.95388 v -34.00894 c 10.24211,0 20.00262,-1.8164 28.79519,-4.92384 8.978527,-3.22374 19.034687,-5.13021 29.653477,-5.13021 10.50435,0 20.63679,1.90647 29.61532,5.13021 8.79258,3.10744 18.5531,4.92384 28.7952,4.92384 10.24211,0 20.04077,-1.8164 28.83335,-4.92384 9.01667,-3.22374 19.07281,-5.13021 29.61532,-5.13021 10.58065,0 20.67493,1.90647 29.69162,5.13021 8.75443,3.10744 18.55308,4.92384 28.79519,4.92384 10.24211,0 20.00263,-1.8164 28.75706,-4.92384 9.05005,-3.22374 19.18249,-5.13021 29.65347,-5.13021 10.61879,0 20.75123,1.90647 29.69162,5.13021 8.75442,3.10744 18.51494,4.92384 28.75705,4.92384 10.24211,0 20.04075,-1.8164 28.87147,-4.92384 8.97854,-3.22374 19.11098,-5.13021 29.57718,-5.13021 10.58065,0 20.71307,1.90647 29.6916,5.13021 8.71629,3.10744 18.62461,4.92384 28.75705,4.92384 z" id="path4353" opacity="1" fill="#39ac39" stroke="none" vector-effect="none"/>
 <g id="g6180" transform="matrix(3.2 -0.3 0.3 3.2 -49.8 -527)" opacity="1" fill="#39ac39" stroke="none" vector-effect="none" stroke-width="0.3">
  <path d="m 75.8125,-86.78125 c -0.712129,0.05357 -1.352662,0.462522 -1.84375,1.4375 -1.363204,2.6687 0.17684,6.09431 3.4375,7.65625 0,0 33.26809,13.78074 44.375,21.25 -10.94625,13.942917 -24.609183,17.924012 -24.609183,17.924012 0,0 -3.44803,1.056644 -3.797067,1.294738 -2.367892,-1.84421 -5.282451,-3.023016 -7.53125,-2.53125 l -71.4375,15.625 c -4.105893,0.568404 -8.8763313,-0.350869 -8.34375,4.5 0.5325813,4.850869 1.9178415,5.333437 6.324557,4.860702 28.601032,-2.791941 61.637903,-3.039204 89.251193,-7.97304 0,0 17.28034,-4.465099 33.5805,-11.887662 5.04186,-2.295899 9.45975,-11.62263 9.1875,-19.90625 -0.047,-1.43078 -1.3125,-2.15625 -1.3125,-2.15625 -0.37609,-0.881522 -0.87274,-1.718864 -1.46875,-2.46875 -0.96734,-1.90924 -2.52545,-3.615625 -4.21875,-4.25 L 81.5,-84.34375 c -2.122035,-0.952036 -4.120817,-2.555363 -5.6875,-2.4375 z" transform="translate(0,280)" id="rect6167" vector-effect="none" color="#000000" stroke-width="0.3"/>
  <circle r="10.54" cy="-66.96" cx="153.4" id="path6177" transform="translate(3.9285714,289.28571)" color="#000000" stroke-width="0.3"/>
 </g>
</svg>
