<?xml version="1.0" encoding="UTF-8" standalone="no"?>
<svg xmlns="http://www.w3.org/2000/svg" version="1.0" width="580" height="580">
 <metadata id="metadata2975"/>
 <path id="path4147" d="m 225.31324,360.82686 11.15062,70.50708 c 1.57733,11.74822 8.62864,18.59636 21.15393,20.5444 8.61666,1.18324 16.15498,-1.26077 22.61497,-7.33216 6.45942,-6.07126 9.10365,-13.41537 7.93272,-22.03235 l -13.517,-85.1714 c -1.5659,-9.01119 -6.45999,-15.27968 -14.68225,-18.80548 l -61.09538,-27.60766 38.77621,-67.54912 19.37914,24.66761 c 1.56536,2.35464 3.91978,4.11747 7.06325,5.28849 l 73.4292,21.15393 c 1.94772,0.77702 3.70457,1.16546 5.27055,1.16532 5.48531,1.9e-4 10.18817,-2.15403 14.10859,-6.4627 3.91968,-4.30826 5.87969,-9.20533 5.88007,-14.69121 -3.8e-4,-9.78795 -4.70324,-16.24766 -14.10859,-19.37914 l -63.44383,-18.78755 -48.16997,-58.17328 c -6.65715,-7.82783 -16.0569,-12.7219 -28.19927,-14.68226 -21.14216,-3.13093 -37.0016,4.3088 -47.57838,22.31919 l -53.45846,92.23466 c -3.52577,5.88028 -5.0914,13.1228 -4.69689,21.72758 l 1.75685,116.90229 -40.53305,86.9462 c -1.565702,3.52563 -2.53974,6.45969 -2.922115,8.80218 -1.183238,7.44566 0.379335,14.00696 4.687925,19.6839 4.308385,5.67684 10.185467,9.10688 17.631246,10.29012 12.524935,1.94802 21.333074,-2.36044 26.424484,-12.9254 l 44.65627,-95.1747 c 1.56547,-3.5256 2.34828,-7.24247 2.34844,-11.15063 l -0.59154,-72.26393 z" mix-blend-mode="normal" solid-color="#000000" opacity="0.8" color-interpolation-filters="linearRGB" filter-gaussianBlur-deviation="0" color="#000000" image-rendering="auto" color-rendering="auto" stroke-width="64" isolation="auto" color-interpolation="sRGB" solid-opacity="1" fill="none" stroke-linejoin="round" filter-blend-mode="normal" stroke="#ffffff" shape-rendering="auto"/>
 <path id="path4149" d="m 474.39167,68.293262 -24.09396,109.265378 -41.12465,17.03069 -35.83616,100.44525 34.07931,76.96083 -9.39377,29.9561 -79.30927,23.50237 -4.69689,35.24457 -126.29607,31.13928 1.16532,21.136 308.39904,0 c 5.48517,-5e-5 10.08943,-1.85848 13.81279,-5.57531 3.72233,-3.71691 5.58375,-8.31819 5.58428,-13.80383 l 0,-415.907546 z" mix-blend-mode="normal" solid-color="#000000" opacity="0.8" color-interpolation-filters="linearRGB" filter-gaussianBlur-deviation="0" color="#000000" image-rendering="auto" color-rendering="auto" stroke-width="64" isolation="auto" color-interpolation="sRGB" solid-opacity="1" fill="none" stroke-linejoin="round" filter-blend-mode="normal" stroke="#ffffff" shape-rendering="auto"/>
 <path id="path4151" d="m 260.55782,126.73544 c 7.82787,-7.63656 11.74194,-16.93472 11.74222,-27.894487 -2.8e-4,-10.57658 -3.91435,-19.782105 -11.74222,-27.616618 -7.82841,-7.833705 -17.03095,-11.750771 -27.60766,-11.751182 -10.97157,4.11e-4 -20.27571,3.917477 -27.91241,11.751182 -7.63713,7.834513 -11.45558,17.040038 -11.45539,27.616618 -1.9e-4,10.959767 3.81826,20.257927 11.45539,27.894487 7.6367,7.63727 16.94084,11.45572 27.71497,11.45572 10.77415,0 19.97669,-3.81845 27.8051,-11.45572 z" mix-blend-mode="normal" solid-color="#000000" opacity="0.8" color-interpolation-filters="linearRGB" filter-gaussianBlur-deviation="0" color="#000000" image-rendering="auto" color-rendering="auto" stroke-width="64" isolation="auto" color-interpolation="sRGB" solid-opacity="1" fill="none" stroke-linejoin="round" filter-blend-mode="normal" stroke="#ffffff" shape-rendering="auto"/>
 <path id="path4153" d="m 154.23249,144.6625 c 3.91988,-6.65659 2.55146,-11.74786 -4.10529,-15.27384 l -18.80549,-11.16857 c -6.65703,-3.90774 -11.74831,-2.53333 -15.27384,4.12323 L 57.300929,223.38017 c -3.908151,6.65715 -2.533747,11.74842 4.123226,15.27385 l 18.78755,11.15062 c 6.656812,3.92026 11.748098,2.55184 13.510972,-0.77674 z" mix-blend-mode="normal" solid-color="#000000" opacity="0.8" color-interpolation-filters="linearRGB" filter-gaussianBlur-deviation="0" color="#000000" image-rendering="auto" color-rendering="auto" stroke-width="64" isolation="auto" color-interpolation="sRGB" solid-opacity="1" fill="none" stroke-linejoin="round" filter-blend-mode="normal" stroke="#ffffff" shape-rendering="auto"/>
 <path d="m 225.31324,360.82686 11.15062,70.50708 c 1.57733,11.74822 8.62864,18.59636 21.15393,20.5444 8.61666,1.18324 16.15498,-1.26077 22.61497,-7.33216 6.45942,-6.07126 9.10365,-13.41537 7.93272,-22.03235 l -13.517,-85.1714 c -1.5659,-9.01119 -6.45999,-15.27968 -14.68225,-18.80548 l -61.09538,-27.60766 38.77621,-67.54912 19.37914,24.66761 c 1.56536,2.35464 3.91978,4.11747 7.06325,5.28849 l 73.4292,21.15393 c 1.94772,0.77702 3.70457,1.16546 5.27055,1.16532 5.48531,1.9e-4 10.18817,-2.15403 14.10859,-6.4627 3.91968,-4.30826 5.87969,-9.20533 5.88007,-14.69121 -3.8e-4,-9.78795 -4.70324,-16.24766 -14.10859,-19.37914 l -63.44383,-18.78755 -48.16997,-58.17328 c -6.65715,-7.82783 -16.0569,-12.7219 -28.19927,-14.68226 -21.14216,-3.13093 -37.0016,4.3088 -47.57838,22.31919 l -53.45846,92.23466 c -3.52577,5.88028 -5.0914,13.1228 -4.69689,21.72758 l 1.75685,116.90229 -40.53305,86.9462 c -1.565702,3.52563 -2.53974,6.45969 -2.922115,8.80218 -1.183238,7.44566 0.379335,14.00696 4.687925,19.6839 4.308385,5.67684 10.185467,9.10688 17.631246,10.29012 12.524935,1.94802 21.333074,-2.36044 26.424484,-12.9254 l 44.65627,-95.1747 c 1.56547,-3.5256 2.34828,-7.24247 2.34844,-11.15063 l -0.59154,-72.26393 z" id="path4145" fill="#39ac39"/>
 <path d="m 474.39167,68.293262 -24.09396,109.265378 -41.12465,17.03069 -35.83616,100.44525 34.07931,76.96083 -9.39377,29.9561 -79.30927,23.50237 -4.69689,35.24457 -126.29607,31.13928 1.16532,21.136 308.39904,0 c 5.48517,-5e-5 10.08943,-1.85848 13.81279,-5.57531 3.72233,-3.71691 5.58375,-8.31819 5.58428,-13.80383 l 0,-415.907546 z" id="path4143" fill="#39ac39"/>
 <path d="m 260.55782,126.73544 c 7.82787,-7.63656 11.74194,-16.93472 11.74222,-27.894487 -2.8e-4,-10.57658 -3.91435,-19.782105 -11.74222,-27.616618 -7.82841,-7.833705 -17.03095,-11.750771 -27.60766,-11.751182 -10.97157,4.11e-4 -20.27571,3.917477 -27.91241,11.751182 -7.63713,7.834513 -11.45558,17.040038 -11.45539,27.616618 -1.9e-4,10.959767 3.81826,20.257927 11.45539,27.894487 7.6367,7.63727 16.94084,11.45572 27.71497,11.45572 10.77415,0 19.97669,-3.81845 27.8051,-11.45572 z" id="path4141" fill="#39ac39"/>
 <path d="m 154.23249,144.6625 c 3.91988,-6.65659 2.55146,-11.74786 -4.10529,-15.27384 l -18.80549,-11.16857 c -6.65703,-3.90774 -11.74831,-2.53333 -15.27384,4.12323 L 57.300929,223.38017 c -3.908151,6.65715 -2.533747,11.74842 4.123226,15.27385 l 18.78755,11.15062 c 6.656812,3.92026 11.748098,2.55184 13.510972,-0.77674 z" id="flowRoot3192" fill="#39ac39"/>
</svg>
