<?xml version="1.0" encoding="UTF-8" standalone="no"?>
<svg xmlns="http://www.w3.org/2000/svg" version="1.0" width="580" height="580">
 <metadata id="metadata2975"/>
 <rect y="520.2" x="171.1" height="24.41" width="116.1" id="rect848" mix-blend-mode="normal" solid-color="#256f25" opacity="0.8" color-interpolation-filters="linearRGB" filter-gaussianBlur-deviation="0" vector-effect="none" color="#256f25" image-rendering="auto" paint-order="stroke fill markers" color-rendering="auto" stroke-width="57.5" fill-rule="evenodd" isolation="auto" color-interpolation="sRGB" solid-opacity="1" fill="none" filter-blend-mode="normal" stroke="#ffffff" shape-rendering="auto"/>
 <rect y="468.5" x="337.7" height="24.41" width="116.1" id="rect850" mix-blend-mode="normal" solid-color="#256f25" opacity="0.8" color-interpolation-filters="linearRGB" filter-gaussianBlur-deviation="0" vector-effect="none" color="#256f25" image-rendering="auto" paint-order="stroke fill markers" color-rendering="auto" stroke-width="57.5" fill-rule="evenodd" isolation="auto" color-interpolation="sRGB" solid-opacity="1" fill="none" filter-blend-mode="normal" stroke="#ffffff" shape-rendering="auto"/>
 <path d="m 494.53788,35.36625 c 0,0 -44.94418,12.472083 -101.41096,24.81764 -49.10396,10.735794 -107.07669,21.29058 -150.73609,23.526052 a 21.181642,21.181642 0 0 0 -18.41072,-10.76526 21.181642,21.181642 0 0 0 -17.92917,9.953173 C 185.25105,80.560951 159.65847,75.242478 137.6295,69.896292 108.76564,62.891354 85.829337,55.960218 85.829337,55.960218 l -4.837839,15.998941 c 0,0 23.347392,7.058365 52.695922,14.180924 22.19841,5.387304 47.69857,10.864653 69.81299,13.342313 a 21.181642,21.181642 0 0 0 17.76392,15.631654 c 16.11899,52.49783 36.59759,94.26522 60.6821,127.27943 l -24.13409,41.63886 c -2.94832,4.91724 -4.25771,10.97237 -3.92781,18.1679 l 1.46909,97.75657 -33.89342,72.70631 c -1.30928,2.94824 -2.12467,5.40299 -2.44442,7.36184 -0.98946,6.22625 0.3167,11.71288 3.91964,16.46009 3.60278,4.74711 8.51773,7.615 14.74407,8.60445 10.47366,1.62898 17.8402,-1.97342 22.09777,-10.80812 L 297.119,414.69273 c 1.30908,-2.9482 1.96481,-6.05459 1.96493,-9.32268 l -0.49582,-60.42911 57.47663,25.05026 9.3247,58.95796 c 1.319,9.82415 7.21447,15.55135 17.68841,17.18034 7.20548,0.98945 13.50863,-1.05441 18.91063,-6.13147 5.40154,-5.07693 7.61257,-11.21722 6.6334,-18.42295 l -11.30187,-71.22293 c -1.30946,-7.53539 -5.40157,-12.77716 -12.27723,-15.72553 l -51.09009,-23.08736 32.42432,-56.48498 16.20706,20.62662 c 1.30899,1.96899 3.27632,3.44439 5.90497,4.42363 l 61.40443,17.6884 c 1.62874,0.64977 3.09781,0.97545 4.40732,0.97533 4.58696,1.6e-4 8.51935,-1.80205 11.79771,-5.40507 3.27775,-3.60268 4.9171,-7.69795 4.91741,-12.28538 -3.2e-4,-8.18493 -3.93272,-13.5864 -11.79771,-16.20502 l -53.05298,-15.70921 -40.282,-48.64771 c -5.56688,-6.54582 -13.42738,-10.63791 -23.58114,-12.2772 -17.6796,-2.61816 -30.9416,3.60299 -39.78617,18.66372 l -11.35901,19.59825 c -20.95569,-30.26507 -39.14263,-68.27019 -53.81,-115.95713 a 21.181642,21.181642 0 0 0 6.87215,-10.17353 C 289.83427,97.995689 347.50592,87.268363 396.69766,76.513378 453.65165,64.0613 499.00845,51.473332 499.00845,51.473332 Z" id="path4145-6" mix-blend-mode="normal" solid-color="#256f25" opacity="0.8" color-interpolation-filters="linearRGB" filter-gaussianBlur-deviation="0" vector-effect="none" color="#256f25" image-rendering="auto" paint-order="stroke fill markers" color-rendering="auto" stroke-width="57.5" fill-rule="evenodd" isolation="auto" color-interpolation="sRGB" solid-opacity="1" fill="none" filter-blend-mode="normal" stroke="#ffffff" shape-rendering="auto"/>
 <path d="m 385.53658,174.23727 c 6.54587,-6.38589 9.8189,-14.16124 9.81914,-23.32607 -2.4e-4,-8.84441 -3.27327,-16.5423 -9.81914,-23.09373 -6.54631,-6.55073 -14.24172,-9.82628 -23.08622,-9.82662 -9.1747,3.4e-4 -16.95507,3.27589 -23.34104,9.82662 -6.38636,6.55143 -9.57945,14.24932 -9.57928,23.09373 -1.7e-4,9.16483 3.19292,16.94018 9.57928,23.32607 6.38597,6.38646 14.16634,9.57955 23.17595,9.57955 9.0096,0 16.70501,-3.19309 23.25131,-9.57955 z" id="path4141-8" mix-blend-mode="normal" solid-color="#256f25" opacity="0.8" color-interpolation-filters="linearRGB" filter-gaussianBlur-deviation="0" vector-effect="none" color="#256f25" image-rendering="auto" paint-order="stroke fill markers" color-rendering="auto" stroke-width="57.5" fill-rule="evenodd" isolation="auto" color-interpolation="sRGB" solid-opacity="1" fill="none" filter-blend-mode="normal" stroke="#ffffff" shape-rendering="auto"/>
 <path d="m 494.53788,35.366247 c 0,0 -44.94418,12.472083 -101.41096,24.817639 C 344.02296,70.919681 286.05023,81.474467 242.39083,83.709938 A 21.181642,21.181642 0 0 0 223.98011,72.944679 21.181642,21.181642 0 0 0 206.05094,82.897852 C 185.25105,80.560948 159.65847,75.242475 137.6295,69.896289 108.76564,62.891351 85.829337,55.960215 85.829337,55.960215 l -4.837839,15.998941 c 0,0 23.347392,7.058365 52.695922,14.180924 22.19841,5.387304 47.69857,10.864653 69.81299,13.342313 a 21.181642,21.181642 0 0 0 17.76392,15.631657 c 16.11899,52.49783 36.59759,94.26522 60.6821,127.27943 l -24.13409,41.63886 c -2.94832,4.91724 -4.25771,10.97237 -3.92781,18.1679 l 1.46909,97.75657 -33.89342,72.70631 c -1.30928,2.94824 -2.12467,5.40299 -2.44442,7.36184 -0.98946,6.22625 0.3167,11.71288 3.91964,16.46009 3.60278,4.74711 8.51773,7.615 14.74407,8.60445 10.47366,1.62898 17.8402,-1.97342 22.09777,-10.80812 L 297.119,414.69273 c 1.30908,-2.9482 1.96481,-6.05459 1.96493,-9.32268 l -0.49582,-60.42911 57.47663,25.05026 9.3247,58.95796 c 1.319,9.82415 7.21447,15.55135 17.68841,17.18034 7.20548,0.98945 13.50863,-1.05441 18.91063,-6.13147 5.40154,-5.07693 7.61257,-11.21722 6.6334,-18.42295 l -11.30187,-71.22293 c -1.30946,-7.53539 -5.40157,-12.77716 -12.27723,-15.72553 l -51.09009,-23.08736 32.42432,-56.48498 16.20706,20.62662 c 1.30899,1.96899 3.27632,3.44439 5.90497,4.42363 l 61.40443,17.6884 c 1.62874,0.64977 3.09781,0.97545 4.40732,0.97533 4.58696,1.6e-4 8.51935,-1.80205 11.79771,-5.40507 3.27775,-3.60268 4.9171,-7.69795 4.91741,-12.28538 -3.2e-4,-8.18493 -3.93272,-13.5864 -11.79771,-16.20502 l -53.05298,-15.70921 -40.282,-48.64771 c -5.56688,-6.54582 -13.42738,-10.63791 -23.58114,-12.2772 -17.6796,-2.61816 -30.9416,3.60299 -39.78617,18.66372 l -11.35901,19.59825 c -20.95569,-30.26507 -39.14263,-68.27019 -53.81,-115.95713 a 21.181642,21.181642 0 0 0 6.87215,-10.17354 C 289.83427,97.995686 347.50592,87.26836 396.69766,76.513375 453.65165,64.061297 499.00845,51.473329 499.00845,51.473329 Z" id="path4145" fill="#39ac39" stroke-width="0.84"/>
 <path d="m 385.53658,174.23727 c 6.54587,-6.38589 9.8189,-14.16124 9.81914,-23.32607 -2.4e-4,-8.84441 -3.27327,-16.5423 -9.81914,-23.09373 -6.54631,-6.55073 -14.24172,-9.82628 -23.08622,-9.82662 -9.1747,3.4e-4 -16.95507,3.27589 -23.34104,9.82662 -6.38636,6.55143 -9.57945,14.24932 -9.57928,23.09373 -1.7e-4,9.16483 3.19292,16.94018 9.57928,23.32607 6.38597,6.38646 14.16634,9.57955 23.17595,9.57955 9.0096,0 16.70501,-3.19309 23.25131,-9.57955 z" id="path4141" fill="#39ac39" stroke-width="0.84"/>
 <rect id="rect828-9" width="116.1" height="24.41" x="171.1" y="520.2" fill="#39ac39" vector-effect="none"/>
 <rect id="rect828-9-9" width="116.1" height="24.41" x="337.7" y="468.5" fill="#39ac39" vector-effect="none"/>
</svg>
