<?xml version="1.0" encoding="UTF-8" standalone="no"?>
<svg xmlns="http://www.w3.org/2000/svg" version="1.1" width="580" viewBox="0 0 6444.4444 6444.4444" height="580">
 <metadata id="metadata9"/>
 <path isolation="auto" white-space="normal" mix-blend-mode="normal" id="path4190" d="m 3033.485,1107.1913 0,801.027 -872.8666,0 0,400.5137 872.8666,0 0,2312.0331 -1117.1909,-2.467 -440.991,709.9369 3493.8379,9.0178 -433.8212,-720.1262 -1070.0168,1.296 4.6153,-2309.6906 872.8666,0 0,-400.5137 -872.8666,0 0,-801.027 z" solid-color="#c9820d" opacity="0.8" color-interpolation-filters="linearRGB" filter-gaussianBlur-deviation="0" color="#c9820d" image-rendering="auto" color-rendering="auto" stroke-width="711.1" color-interpolation="sRGB" solid-opacity="1" fill="none" stroke-linejoin="round" filter-blend-mode="normal" stroke="#ffffff" shape-rendering="auto"/>
 <path d="m 3033.485,1107.1913 0,801.027 -872.8666,0 0,400.5137 872.8666,0 0,2312.0331 -1117.1909,-2.467 -440.991,709.9369 3493.8379,9.0178 -433.8212,-720.1262 -1070.0168,1.296 4.6153,-2309.6906 872.8666,0 0,-400.5137 -872.8666,0 0,-801.027 z" id="path4138" mix-blend-mode="normal" white-space="normal" isolation="auto" fill="#c9820d" color-rendering="auto" solid-opacity="1" color-interpolation-filters="linearRGB" shape-rendering="auto" image-rendering="auto" color-interpolation="sRGB" color="#c9820d" solid-color="#c9820d"/>
</svg>
