<?xml version="1.0" encoding="UTF-8" standalone="no"?>
<svg xmlns="http://www.w3.org/2000/svg" version="1.0" width="580" height="580">
 <metadata id="metadata16"/>
 <path id="path4138" d="m 436,47 0,50 -50,0 0,50 50,0 0,50 50,0 0,-50 50,0 0,-50 -50,0 0,-50 z M 313.84766,192.36133 C 271.65625,192.49941 246.5,219.09922 229,245.69922 c -19.5,-30.4 -45,-58 -98,-52 -46.8,4.9 -83,48.7 -86,96 -3,41 11.9,69 27.5,95 37.5,62 101,111 157,149 57,-38 127,-92 163,-158 12.3,-22.4 25,-50.99961 22.75,-83.84961 C 411.7,241.99961 378,202 333,194 c -6.75,-1.1375 -13.125,-1.6584 -19.15234,-1.63867 z m -127.64844,23.83789 c 17.4,9.8 29.4,25 39.5,42 -8.8,36 -14.99844,70 -23.89844,106 l 84,-60.79883 c -10.4,54 -24.00078,113 -36.80078,168 3.9,1 13.4,-0.60117 22.5,-0.20117 -13.3,17 -27.5,33.50117 -43.5,48.70117 C 219.5,499.90039 211.80078,479 202.30078,460 c 6.4,-0.9 14,4.90039 21,6.40039 5.1,-29.9 9.19844,-60.8 12.89844,-92 -22.6,13.8 -46.8,33.99883 -71,49.79883 7.7,-68 14.4,-142 21,-208 z" mix-blend-mode="normal" solid-color="#000000" opacity="0.8" color-interpolation-filters="linearRGB" filter-gaussianBlur-deviation="0" color="#000000" image-rendering="auto" color-rendering="auto" stroke-width="64" isolation="auto" stroke-linecap="round" color-interpolation="sRGB" solid-opacity="1" fill="none" stroke-linejoin="round" filter-blend-mode="normal" stroke="#ffffff" shape-rendering="auto"/>
 <path d="m 436,47 0,50 -50,0 0,50 50,0 0,50 50,0 0,-50 50,0 0,-50 -50,0 0,-50 z M 313.84766,192.36133 C 271.65625,192.49941 246.5,219.09922 229,245.69922 c -19.5,-30.4 -45,-58 -98,-52 -46.8,4.9 -83,48.7 -86,96 -3,41 11.9,69 27.5,95 37.5,62 101,111 157,149 57,-38 127,-92 163,-158 12.3,-22.4 25,-50.99961 22.75,-83.84961 C 411.7,241.99961 378,202 333,194 c -6.75,-1.1375 -13.125,-1.6584 -19.15234,-1.63867 z m -127.64844,23.83789 c 17.4,9.8 29.4,25 39.5,42 -8.8,36 -14.99844,70 -23.89844,106 l 84,-60.79883 c -10.4,54 -24.00078,113 -36.80078,168 3.9,1 13.4,-0.60117 22.5,-0.20117 -13.3,17 -27.5,33.50117 -43.5,48.70117 C 219.5,499.90039 211.80078,479 202.30078,460 c 6.4,-0.9 14,4.90039 21,6.40039 5.1,-29.9 9.19844,-60.8 12.89844,-92 -22.6,13.8 -46.8,33.99883 -71,49.79883 7.7,-68 14.4,-142 21,-208 z" id="path8" fill="#da0092"/>
</svg>
