<?xml version="1.0" encoding="UTF-8" standalone="no"?>
<svg xmlns="http://www.w3.org/2000/svg" version="1.0" height="1160" width="580">
 <metadata id="metadata3003"/>
 <path id="path812" d="M 278,576.63867 143.82031,878.54297 71.60352,842.43359 c -2.52944,-1.31 -5.34748,-1.96347 -8.19532,-1.90039 -7.85796,0.17356 -14.57336,5.70953 -16.24023,13.39063 -1.66688,7.68109 2.14932,15.50484 9.22851,18.91992 l 168,84 c 8.41996,4.34964 18.77105,0.97439 23.00977,-7.50195 4.23871,-8.47633 0.72853,-18.78115 -7.80273,-22.90821 L 163.45703,888.35938 302,576.63867 Z" opacity="0.8" fill="none" stroke="#ffffff" vector-effect="none" stroke-linejoin="round" stroke-width="64"/>
 <path d="M 278,576.63867 143.82031,878.54297 71.60352,842.43359 c -2.52944,-1.31 -5.34748,-1.96347 -8.19532,-1.90039 -7.85796,0.17356 -14.57336,5.70953 -16.24023,13.39063 -1.66688,7.68109 2.14932,15.50484 9.22851,18.91992 l 168,84 c 8.41996,4.34964 18.77105,0.97439 23.00977,-7.50195 4.23871,-8.47633 0.72853,-18.78115 -7.80273,-22.90821 L 163.45703,888.35938 302,576.63867 Z" id="rect3987" fill="#20a0a0"/>
</svg>
