<?xml version="1.0" encoding="UTF-8" standalone="no"?>
<svg xmlns="http://www.w3.org/2000/svg" version="1.0" width="580" height="580">
 <metadata id="metadata2975"/>
 <path id="path842" d="m 219.17913,261.37896 c -61.94593,0 -113.17045,2.97815 -113.17045,5.06288 0,0.11921 35.08284,272.80035 35.08284,272.80035 -0.17869,1.48909 34.84458,3.63337 78.44499,3.63337 42.88565,0 78.62368,-2.02515 78.38544,-3.57381 0,-0.1192 34.57655,-272.85991 34.57655,-272.85991 -0.14891,-2.08473 -50.7778,-5.06288 -113.31937,-5.06288 z" opacity="0.8" fill="none" stroke="#ffffff" vector-effect="none" stroke-linejoin="round" stroke-width="64"/>
 <path isolation="auto" mix-blend-mode="normal" id="path844" d="m 304.3548,56.838237 c 0,10.721412 8.81538,19.536793 19.53679,19.536793 3.69292,0 7.02848,-0.714769 10.48317,-1.786904 v 10.244908 c -6.31375,4.407691 -10.95969,10.959666 -14.17612,17.273386 -2.38252,4.64595 -4.16942,9.7684 -5.59893,15.12911 -10.80083,-0.0765 -21.60204,-0.1209 -32.4025,-0.23827 -43.60041,-0.71476 -73.8586,24.30188 -84.58003,48.24637 -11.19792,23.82536 -9.17275,46.45945 -9.17275,46.45945 l 58.37209,-3.93118 c 0,0 -0.1192,-9.64927 3.81208,-17.86903 3.93119,-8.21975 5.95633,-15.00996 31.33035,-14.6526 12.20011,0.11634 23.42604,0.16903 36.09542,0.23827 0.83388,2.14427 1.66775,4.16942 2.7399,6.07546 5.71811,11.43616 15.963,22.99147 31.68774,22.99147 15.72475,0 25.96962,-11.55531 31.68771,-22.99147 0.95303,-1.90604 1.78691,-3.81206 2.50167,-5.7181 l 86.96257,0.47652 0.35736,-58.37214 -83.38874,-0.4765 c -1.42952,-5.47983 -3.21643,-10.72141 -5.7181,-15.48649 -3.21642,-6.432838 -7.86236,-12.865691 -14.17608,-17.273395 V 74.349874 c 3.57381,1.191274 7.02848,1.906017 10.84054,1.906017 10.72141,0 20.81615,-8.891964 19.53679,-19.536793 -1.42904,-11.890202 -10.54388,-19.26062 -19.89417,-19.536773 -6.67397,0.59259 -12.54615,2.894561 -17.63077,4.645939 -3.0871,-2.292836 -6.84215,-3.507602 -10.68725,-3.457376 -3.61699,0.05871 -7.12737,1.234475 -10.05014,3.36603 -6.39481,-1.041474 -12.33632,-5.207015 -18.34086,-4.540701 -11.31238,0.105236 -20.12775,8.920607 -20.12774,19.64202 z" solid-color="#000000" opacity="0.8" white-space="normal" color-interpolation-filters="linearRGB" vector-effect="none" color="#000000" image-rendering="auto" color-rendering="auto" stroke-width="64" color-interpolation="sRGB" solid-opacity="1" fill="none" stroke-linejoin="round" stroke="#ffffff" shape-rendering="auto"/>
 <path d="m 219.17913,261.37896 c -61.94593,0 -113.17045,2.97815 -113.17045,5.06288 0,0.11921 35.08284,272.80035 35.08284,272.80035 -0.17869,1.48909 34.84458,3.63337 78.44499,3.63337 42.88565,0 78.62368,-2.02515 78.38544,-3.57381 0,-0.1192 34.57655,-272.85991 34.57655,-272.85991 -0.14891,-2.08473 -50.7778,-5.06288 -113.31937,-5.06288 z" id="path822" fill="#00000f" fill-opacity="0.94" stroke-width="1.19"/>
 <path d="M 164.26168,516.66766 129.71492,285.2043 c 57.18085,0.23826 98.87523,3.0973 176.30764,-1.54865 l -31.38992,234.26284 c -1.36994,1.25083 -107.98842,0.53608 -110.37096,-1.25083 z" id="path818" opacity="0.8" fill="#ffffff" stroke-width="1.19"/>
 <path d="m 304.3548,56.838237 c 0,10.721412 8.81538,19.536793 19.53679,19.536793 3.69292,0 7.02848,-0.714769 10.48317,-1.786904 v 10.244908 c -6.31375,4.407691 -10.95969,10.959666 -14.17612,17.273386 -2.38252,4.64595 -4.16942,9.7684 -5.59893,15.12911 -10.80083,-0.0765 -21.60204,-0.1209 -32.4025,-0.23827 -43.60041,-0.71476 -73.8586,24.30188 -84.58003,48.24637 -11.19792,23.82536 -9.17275,46.45945 -9.17275,46.45945 l 58.37209,-3.93118 c 0,0 -0.1192,-9.64927 3.81208,-17.86903 3.93119,-8.21975 5.95633,-15.00996 31.33035,-14.6526 12.20011,0.11634 23.42604,0.16903 36.09542,0.23827 0.83388,2.14427 1.66775,4.16942 2.7399,6.07546 5.71811,11.43616 15.963,22.99147 31.68774,22.99147 15.72475,0 25.96962,-11.55531 31.68771,-22.99147 0.95303,-1.90604 1.78691,-3.81206 2.50167,-5.7181 l 86.96257,0.47652 0.35736,-58.37214 -83.38874,-0.4765 c -1.42952,-5.47983 -3.21643,-10.72141 -5.7181,-15.48649 -3.21642,-6.432838 -7.86236,-12.865691 -14.17608,-17.273395 V 74.349874 c 3.57381,1.191274 7.02848,1.906017 10.84054,1.906017 10.72141,0 20.81615,-8.891964 19.53679,-19.536793 -1.42904,-11.890202 -10.54388,-19.26062 -19.89417,-19.536773 -6.67397,0.59259 -12.54615,2.894561 -17.63077,4.645939 -3.0871,-2.292836 -6.84215,-3.507602 -10.68725,-3.457376 -3.61699,0.05871 -7.12737,1.234475 -10.05014,3.36603 -6.39481,-1.041474 -12.33632,-5.207015 -18.34086,-4.540701 -11.31238,0.105236 -20.12775,8.920607 -20.12774,19.64202 z" id="path3340" mix-blend-mode="normal" isolation="auto" fill="#00000f" color-rendering="auto" white-space="normal" solid-opacity="1" color-interpolation-filters="linearRGB" shape-rendering="auto" image-rendering="auto" fill-opacity="0.94" color-interpolation="sRGB" color="#000000" stroke-width="1.19" solid-color="#000000"/>
</svg>
