<?xml version="1.0" encoding="UTF-8" standalone="no"?>
<svg xmlns="http://www.w3.org/2000/svg" version="1.0" width="580" height="580">
 <metadata id="metadata10"/>
 <path d="M 433.45084,235.82238 H 146.16563 c -23.39706,0 -39.89007,18.02725 -39.89007,40.27363 v 219.39541 c 0,22.2464 18.41081,39.89007 40.27363,39.89007 h 287.28525 c 21.8628,0 39.89,-16.493 39.89,-39.89007 V 276.09601 c -0.3835,-22.24638 -18.0272,-40.27363 -40.2736,-40.27363 z m -1.9178,257.75125 H 147.69986 V 278.0138 H 431.53304 Z M 314.16422,151.43953 c -16.87658,-19.17792 10.35607,-42.95855 25.69845,-25.69842 l 22.2464,27.61621 -0.7671,-87.06776 c -0.3836,-28.76688 41.0407,-28.76688 41.4242,0 l -0.7671,87.06776 22.24637,-27.23265 c 15.3424,-16.87657 42.5749,6.5205 25.6984,25.69842 l -54.46527,64.43781 c -8.8218,8.43829 -19.945,8.43829 -28.3833,0 z M 128.90551,115.76859 182.60368,50.94722 c 8.82185,-8.43828 19.94504,-8.43828 28.38332,0 l 54.08174,64.43782 c 16.87657,19.17792 -10.35608,42.57499 -25.69841,25.69842 l -22.24639,-27.23266 0.76711,87.06777 c -0.38356,29.15043 -42.19142,28.76688 -41.80786,0 l 0.76712,-87.06777 -22.24639,27.61622 c -14.95878,17.26012 -42.57498,-6.52051 -25.69841,-25.69843 z m 214.02555,285.75103 v -52.93107 c 0,-6.13694 4.98628,-10.35608 10.35611,-10.35608 h 42.575 c 6.1369,0 10.3561,4.6027 10.3561,10.35608 v 52.93107 c 0,4.21913 -3.4521,7.2876 -7.2877,7.2876 h -4.6027 v 69.80763 c 0,12.65743 -18.4108,12.65743 -18.4108,0 v -69.80763 h -2.6849 v 69.80763 c 0,12.65743 -18.41076,12.65743 -18.41076,0 v -69.80763 h -4.60272 c -3.83559,0 -7.28763,-3.06847 -7.28763,-7.2876 z m 18.02731,-80.93083 c 0,-7.67117 6.1369,-13.8081 13.8081,-13.8081 7.6712,0 13.8081,6.13693 13.8081,13.8081 0,7.67116 -6.1369,13.8081 -13.8081,13.8081 -7.6712,0 -13.8081,-6.5205 -13.8081,-13.8081 z m -103.17724,80.93083 v -52.93107 c 0,-6.13694 4.98626,-10.35608 10.35608,-10.35608 h 42.57498 c 6.13693,0 10.35608,4.6027 10.35608,10.35608 v 52.93107 c 0,4.21913 -3.45203,7.2876 -7.28761,7.2876 h -4.6027 v 69.80763 c 0,12.65743 -18.41081,12.65743 -18.41081,0 v -69.80763 h -2.68491 v 69.80763 c 0,12.65743 -18.4108,12.65743 -18.4108,0 v -69.80763 h -4.21914 c -4.21914,0 -7.67117,-3.06847 -7.67117,-7.2876 z m 18.02724,-80.93083 c 0,-7.67117 6.13694,-13.8081 13.8081,-13.8081 7.67117,0 13.80811,6.13693 13.80811,13.8081 0,7.67116 -6.13694,13.8081 -13.80811,13.8081 -7.67116,0 -13.8081,-6.5205 -13.8081,-13.8081 z m -103.17721,80.93083 v -52.93107 c 0,-6.13694 4.98626,-10.35608 10.35608,-10.35608 h 42.95854 c 6.13694,0 10.35608,4.6027 10.35608,10.35608 v 52.93107 c 0,4.21913 -3.45203,7.2876 -7.28761,7.2876 h -4.6027 v 69.80763 c 0,12.65743 -18.41081,12.65743 -18.41081,0 v -69.80763 -1.91779 h -0.38356 v 1.91779 h -2.6849 v 69.80763 c 0,12.65743 -18.4108,12.65743 -18.4108,0 v -69.80763 h -4.21915 c -3.83558,0 -7.67117,-3.06847 -7.67117,-7.2876 z m 18.41081,-80.93083 c 0,-7.67117 6.13694,-13.8081 13.8081,-13.8081 7.67116,0 13.8081,6.13693 13.8081,13.8081 0,7.67116 -6.13694,13.8081 -13.8081,13.8081 -7.67116,0 -14.19166,-6.5205 -13.8081,-13.8081 z" id="path2-8" opacity="0.8" fill="none" stroke="#ffffff" vector-effect="none" stroke-linejoin="round" stroke-width="64"/>
 <path d="M 433.45084,235.82238 H 146.16563 c -23.39706,0 -39.89007,18.02725 -39.89007,40.27363 v 219.39541 c 0,22.2464 18.41081,39.89007 40.27363,39.89007 h 287.28525 c 21.8628,0 39.89,-16.493 39.89,-39.89007 V 276.09601 c -0.3835,-22.24638 -18.0272,-40.27363 -40.2736,-40.27363 z m -1.9178,257.75125 H 147.69986 V 278.0138 H 431.53304 Z M 314.16422,151.43953 c -16.87658,-19.17792 10.35607,-42.95855 25.69845,-25.69842 l 22.2464,27.61621 -0.7671,-87.067756 c -0.3836,-28.76688 41.0407,-28.76688 41.4242,0 l -0.7671,87.067756 22.24637,-27.23265 c 15.3424,-16.87657 42.5749,6.5205 25.6984,25.69842 l -54.46527,64.43781 c -8.8218,8.43829 -19.945,8.43829 -28.3833,0 z M 128.90551,115.76859 182.60368,50.947224 c 8.82185,-8.43828 19.94504,-8.43828 28.38332,0 l 54.08174,64.437816 c 16.87657,19.17792 -10.35608,42.57499 -25.69841,25.69842 l -22.24639,-27.23266 0.76711,87.06777 c -0.38356,29.15043 -42.19142,28.76688 -41.80786,0 l 0.76712,-87.06777 -22.24639,27.61622 c -14.95878,17.26012 -42.57498,-6.52051 -25.69841,-25.69843 z m 214.02555,285.75103 v -52.93107 c 0,-6.13694 4.98628,-10.35608 10.35611,-10.35608 h 42.575 c 6.1369,0 10.3561,4.6027 10.3561,10.35608 v 52.93107 c 0,4.21913 -3.4521,7.2876 -7.2877,7.2876 h -4.6027 v 69.80763 c 0,12.65743 -18.4108,12.65743 -18.4108,0 v -69.80763 h -2.6849 v 69.80763 c 0,12.65743 -18.41076,12.65743 -18.41076,0 v -69.80763 h -4.60272 c -3.83559,0 -7.28763,-3.06847 -7.28763,-7.2876 z m 18.02731,-80.93083 c 0,-7.67117 6.1369,-13.8081 13.8081,-13.8081 7.6712,0 13.8081,6.13693 13.8081,13.8081 0,7.67116 -6.1369,13.8081 -13.8081,13.8081 -7.6712,0 -13.8081,-6.5205 -13.8081,-13.8081 z m -103.17724,80.93083 v -52.93107 c 0,-6.13694 4.98626,-10.35608 10.35608,-10.35608 h 42.57498 c 6.13693,0 10.35608,4.6027 10.35608,10.35608 v 52.93107 c 0,4.21913 -3.45203,7.2876 -7.28761,7.2876 h -4.6027 v 69.80763 c 0,12.65743 -18.41081,12.65743 -18.41081,0 v -69.80763 h -2.68491 v 69.80763 c 0,12.65743 -18.4108,12.65743 -18.4108,0 v -69.80763 h -4.21914 c -4.21914,0 -7.67117,-3.06847 -7.67117,-7.2876 z m 18.02724,-80.93083 c 0,-7.67117 6.13694,-13.8081 13.8081,-13.8081 7.67117,0 13.80811,6.13693 13.80811,13.8081 0,7.67116 -6.13694,13.8081 -13.80811,13.8081 -7.67116,0 -13.8081,-6.5205 -13.8081,-13.8081 z m -103.17721,80.93083 v -52.93107 c 0,-6.13694 4.98626,-10.35608 10.35608,-10.35608 h 42.95854 c 6.13694,0 10.35608,4.6027 10.35608,10.35608 v 52.93107 c 0,4.21913 -3.45203,7.2876 -7.28761,7.2876 h -4.6027 v 69.80763 c 0,12.65743 -18.41081,12.65743 -18.41081,0 v -69.80763 -1.91779 h -0.38356 v 1.91779 h -2.6849 v 69.80763 c 0,12.65743 -18.4108,12.65743 -18.4108,0 v -69.80763 h -4.21915 c -3.83558,0 -7.67117,-3.06847 -7.67117,-7.2876 z m 18.41081,-80.93083 c 0,-7.67117 6.13694,-13.8081 13.8081,-13.8081 7.67116,0 13.8081,6.13693 13.8081,13.8081 0,7.67116 -6.13694,13.8081 -13.8081,13.8081 -7.67116,0 -14.19166,-6.5205 -13.8081,-13.8081 z" id="path2" fill="#666666" vector-effect="none" stroke-width="0.88"/>
</svg>
