<?xml version="1.0" encoding="UTF-8" standalone="no"?>
<svg xmlns="http://www.w3.org/2000/svg" version="1.0" width="580" height="580">
 <metadata id="metadata25"/>
 <path id="path4145" d="m 445,117 -23,-23 -21,81 c 26.6,-7.4 53,-14.9 79.9,-22.3 l -23,-23 c 21,-20.9 42,-41.7 63,-63 -4,-3.9 -8,-7.9 -12.45,-11.8 C 487,76 466,96 445,117 Z" mix-blend-mode="normal" solid-color="#000000" opacity="0.8" color-interpolation-filters="linearRGB" filter-gaussianBlur-deviation="0" color="#000000" image-rendering="auto" color-rendering="auto" stroke-width="64" isolation="auto" color-interpolation="sRGB" solid-opacity="1" fill="none" stroke-linejoin="round" filter-blend-mode="normal" stroke="#ffffff" shape-rendering="auto"/>
 <path id="path4147" d="m 55.2,72 c 20.8,21 41.6,42 62,63 l -23,23 c 26.9,7.1 53.9,14.2 81,21.4 -7.4,-26.6 -14.9,-53 -22.3,-79.9 l -23,23 C 108,102 88,81 67,60 63.1,64 59.1,68 55.2,72 Z" mix-blend-mode="normal" solid-color="#000000" opacity="0.8" color-interpolation-filters="linearRGB" filter-gaussianBlur-deviation="0" color="#000000" image-rendering="auto" color-rendering="auto" stroke-width="64" isolation="auto" color-interpolation="sRGB" solid-opacity="1" fill="none" stroke-linejoin="round" filter-blend-mode="normal" stroke="#ffffff" shape-rendering="auto"/>
 <path id="path4149" d="m 234,234 -101,0 0,111 102,0 0,102 111,0 0,-101 102,0 0,-111 -101,0 0,-101 c -37.8,-0.6 -76,-1.2 -113,-1.95 z" mix-blend-mode="normal" solid-color="#000000" opacity="0.8" color-interpolation-filters="linearRGB" filter-gaussianBlur-deviation="0" color="#000000" image-rendering="auto" color-rendering="auto" stroke-width="64" isolation="auto" color-interpolation="sRGB" solid-opacity="1" fill="none" stroke-linejoin="round" filter-blend-mode="normal" stroke="#ffffff" shape-rendering="auto"/>
 <path id="path4151" d="m 427.4,481 23,-23 63,63 11.8,-11.8 -62,-62 23.7,-23.7 C 460,416.4 433,409.3 405.95,401.05 413.1,426.9 420.2,453.9 427.4,481 Z" mix-blend-mode="normal" solid-color="#000000" opacity="0.8" color-interpolation-filters="linearRGB" filter-gaussianBlur-deviation="0" color="#000000" image-rendering="auto" color-rendering="auto" stroke-width="64" isolation="auto" color-interpolation="sRGB" solid-opacity="1" fill="none" stroke-linejoin="round" filter-blend-mode="normal" stroke="#ffffff" shape-rendering="auto"/>
 <path id="path4153" d="m 99,428.4 23,23 -62,63 11.8,11.8 63,-62 23.7,23.7 21.45,-80.95 z" mix-blend-mode="normal" solid-color="#000000" opacity="0.8" color-interpolation-filters="linearRGB" filter-gaussianBlur-deviation="0" color="#000000" image-rendering="auto" color-rendering="auto" stroke-width="64" isolation="auto" color-interpolation="sRGB" solid-opacity="1" fill="none" stroke-linejoin="round" filter-blend-mode="normal" stroke="#ffffff" shape-rendering="auto"/>
 <path d="m 445,117 -23,-23 -21,81 c 26.6,-7.4 53,-14.9 79.9,-22.3 l -23,-23 c 21,-20.9 42,-41.7 63,-63 -4,-3.9 -8,-7.9 -12.45,-11.8 C 487,76 466,96 445,117 Z" id="path4148" fill="#da0092"/>
 <path d="m 55.2,72 c 20.8,21 41.6,42 62,63 l -23,23 c 26.9,7.1 53.9,14.2 81,21.4 -7.4,-26.6 -14.9,-53 -22.3,-79.9 l -23,23 C 108,102 88,81 67,60 63.1,64 59.1,68 55.2,72 Z" id="path4146" fill="#da0092"/>
 <path d="m 234,234 -101,0 0,111 102,0 0,102 111,0 0,-101 102,0 0,-111 -101,0 0,-101 c -37.8,-0.6 -76,-1.2 -113,-1.95 z" id="path4144" fill="#da0092"/>
 <path d="m 427.4,481 23,-23 63,63 11.8,-11.8 -62,-62 23.7,-23.7 C 460,416.4 433,409.3 405.95,401.05 413.1,426.9 420.2,453.9 427.4,481 Z" id="path4142" fill="#da0092"/>
 <path d="m 99,428.4 23,23 -62,63 11.8,11.8 63,-62 23.7,23.7 21.45,-80.95 z" id="polygon11" fill="#da0092"/>
</svg>
