<?xml version="1.0" encoding="UTF-8" standalone="no"?>
<svg xmlns="http://www.w3.org/2000/svg" version="1.0" width="580" height="580">
 <metadata id="metadata2975"/>
 <path d="m 375.3,171.6 0.1,0 -0.1,-111 c 0,-8.5 -6.9,-15.2 -15.3,-15.2 l -39,0.1 0,141.5 39,0.1 0.05,-0.1 c 8.85,0 15.25,-7.3 15.25,-15.4 z m 0,350.9 0.1,-0.1 -0.1,-108 c 0,-8.5 -6.9,-15.2 -15.3,-15.2 l -39,0 0,138 c 0,0 39,0.1 39,0 l 0.05,0.4 c 8.85,0.4 15.25,-6.9 15.25,-15.1 z M 186,285 c -2.6,209 87,253 110,253 l 1,-138 c -19.3,0 -23,-21 -27.6,-64 -2.9,-28.7 -3.7,-64 0,-99 2.7,-24.7 7.3,-48.9 27.5,-48.9 L 296,45.5 C 273,48 189,87 186,285 Z" id="path4139" mix-blend-mode="normal" solid-color="#000000" opacity="0.8" color-interpolation-filters="linearRGB" filter-gaussianBlur-deviation="0" color="#000000" image-rendering="auto" color-rendering="auto" stroke-width="64" isolation="auto" color-interpolation="sRGB" solid-opacity="1" fill="none" stroke-linejoin="round" filter-blend-mode="normal" stroke="#ffffff" shape-rendering="auto"/>
 <path id="path5605" d="m 375.3,171.6 0.1,0 -0.1,-111 c 0,-8.5 -6.9,-15.2 -15.3,-15.2 l -39,0.1 0,141.5 39,0.1 0.05,-0.1 c 8.85,0 15.25,-7.3 15.25,-15.4 z m 0,350.9 0.1,-0.1 -0.1,-108 c 0,-8.5 -6.9,-15.2 -15.3,-15.2 l -39,0 0,138 c 0,0 39,0.1 39,0 l 0.05,0.4 c 8.85,0.4 15.25,-6.9 15.25,-15.1 z M 186,285 c -2.6,209 87,253 110,253 l 1,-138 c -19.3,0 -23,-21 -27.6,-64 -2.9,-28.7 -3.7,-64 0,-99 2.7,-24.7 7.3,-48.9 27.5,-48.9 L 296,45.5 C 273,48 189,87 186,285 Z" fill="#da0092"/>
</svg>
