<?xml version="1.0" encoding="UTF-8" standalone="no"?>
<svg xmlns="http://www.w3.org/2000/svg" version="1.0" width="580" height="580">
 <metadata id="metadata2975"/>
 <g id="g881" transform="translate(5e-4,-1.2743865e-4)" opacity="0.8" fill="none" stroke="#ffffff" vector-effect="none" stroke-linejoin="round" stroke-width="64">
  <g id="g867" vector-effect="none">
   <path id="path863" d="m 134.37,423.578 c -1.692,-3.393 -1.32,-7.451 0.96,-10.479 l 19.831,-26.335 V 290.07 c 0,-28.165 -22.832,-50.997 -50.998,-50.997 -28.164,0 -50.996,22.832 -50.996,50.997 V 537.046 H 155.161 V 429.114 h -11.843 c -3.79,0 -7.256,-2.144 -8.948,-5.536 z" vector-effect="none"/>
   <path id="path865" d="m 365.435,340.668 -85.936,-50.308 -77.061,50.245 -47.277,62.783 -11.843,15.727 h 11.843 17.171 v 115.999 h 216.05 v -116 h 28.133 z m -112.836,16.653 h 54.637 v 54.636 h -54.637 z m 90.612,167.387 H 216.624 V 443.107 H 343.21 v 81.601 z" vector-effect="none"/>
  </g>
  <g id="g877" vector-effect="none">
   <path id="path869" d="m 526.832,63.841 c -70.301,-11.255 -77.266,46.708 -77.256,46.667 57.639,19.816 77.256,-46.667 77.256,-46.667 z" vector-effect="none"/>
   <path id="path871" d="m 468.879,130.285 c -15.1,0 -28.703,5.945 -38.664,15.798 -10.068,-9.853 -23.67,-15.798 -38.717,-15.798 -30.578,0 -55.373,24.688 -55.373,55.212 0,1.178 0,2.142 0.162,3.267 h 0.268 c 0.857,11.834 4.658,26.775 13.654,45.196 0,0 15.584,29.615 27.9,43.216 l 1.125,1.071 c 6.051,6.104 14.404,9.854 23.67,9.854 11.246,0 21.207,-5.461 27.258,-13.923 h 0.16 c 6.051,8.462 16.012,13.923 27.258,13.923 9.156,0 17.617,-3.802 23.615,-9.854 l 1.125,-1.071 c 12.424,-13.602 27.9,-43.216 27.9,-43.216 8.996,-18.421 12.799,-33.255 13.764,-45.196 h 0.105 c 0.055,-1.179 0.055,-2.142 0.055,-3.267 0,-30.524 -24.795,-55.212 -55.265,-55.212 z" vector-effect="none"/>
   <path id="path873" d="m 410.636,88.799 c 0.006,0.037 -1.525,-49.836 -62.227,-45.588 0.001,-10e-4 11.657,58.086 62.227,45.588 z" vector-effect="none"/>
   <path id="path875" d="m 427.349,134.403 2.488,0.218 14.205,-76.072 -0.768,-0.444 c -0.502,-0.289 -12.348,-7.083 -18.77,-7.083 -1.932,0 -3.318,0.597 -4.117,1.774 -1.025,1.51 -0.924,3.754 0.309,6.859 6.024,15.164 6.648,74.153 6.653,74.748 z" vector-effect="none"/>
  </g>
 </g>
 <g transform="translate(5e-4,-1.2743865e-4)" id="Layer_2_1_" opacity="1" fill="#ac39ac" vector-effect="none" stroke-linejoin="miter" stroke-width="1">
  <g id="g25" vector-effect="none">
   <path d="m 134.37,423.578 c -1.692,-3.393 -1.32,-7.451 0.96,-10.479 l 19.831,-26.335 V 290.07 c 0,-28.165 -22.832,-50.997 -50.998,-50.997 -28.164,0 -50.996,22.832 -50.996,50.997 V 537.046 H 155.161 V 429.114 h -11.843 c -3.79,0 -7.256,-2.144 -8.948,-5.536 z" id="path21" vector-effect="none"/>
   <path d="m 365.435,340.668 -85.936,-50.308 -77.061,50.245 -47.277,62.783 -11.843,15.727 h 11.843 17.171 v 115.999 h 216.05 v -116 h 28.133 z m -112.836,16.653 h 54.637 v 54.636 h -54.637 z m 90.612,167.387 H 216.624 V 443.107 H 343.21 v 81.601 z" id="path23" vector-effect="none"/>
  </g>
  <g id="g35" vector-effect="none">
   <path d="m 526.832,63.841 c -70.301,-11.255 -77.266,46.708 -77.256,46.667 57.639,19.816 77.256,-46.667 77.256,-46.667 z" id="path27" vector-effect="none"/>
   <path d="m 468.879,130.285 c -15.1,0 -28.703,5.945 -38.664,15.798 -10.068,-9.853 -23.67,-15.798 -38.717,-15.798 -30.578,0 -55.373,24.688 -55.373,55.212 0,1.178 0,2.142 0.162,3.267 h 0.268 c 0.857,11.834 4.658,26.775 13.654,45.196 0,0 15.584,29.615 27.9,43.216 l 1.125,1.071 c 6.051,6.104 14.404,9.854 23.67,9.854 11.246,0 21.207,-5.461 27.258,-13.923 h 0.16 c 6.051,8.462 16.012,13.923 27.258,13.923 9.156,0 17.617,-3.802 23.615,-9.854 l 1.125,-1.071 c 12.424,-13.602 27.9,-43.216 27.9,-43.216 8.996,-18.421 12.799,-33.255 13.764,-45.196 h 0.105 c 0.055,-1.179 0.055,-2.142 0.055,-3.267 0,-30.524 -24.795,-55.212 -55.265,-55.212 z" id="path29" vector-effect="none"/>
   <path d="m 410.636,88.799 c 0.006,0.037 -1.525,-49.836 -62.227,-45.588 0.001,-10e-4 11.657,58.086 62.227,45.588 z" id="path31" vector-effect="none"/>
   <path d="m 427.349,134.403 2.488,0.218 14.205,-76.072 -0.768,-0.444 c -0.502,-0.289 -12.348,-7.083 -18.77,-7.083 -1.932,0 -3.318,0.597 -4.117,1.774 -1.025,1.51 -0.924,3.754 0.309,6.859 6.024,15.164 6.648,74.153 6.653,74.748 z" id="path33" vector-effect="none"/>
  </g>
 </g>
</svg>
