<?xml version="1.0" encoding="UTF-8" standalone="no"?>
<svg xmlns="http://www.w3.org/2000/svg" version="1.0" width="580" height="580">
 <metadata id="metadata26"/>
 <path isolation="auto" mix-blend-mode="normal" id="path4137" d="m 142.99954,336.63131 c -2.2882,-4.47284 -1.71615,-9.89736 1.23944,-13.89437 l 26.31428,-34.92626 0,-128.47532 c 0,-37.1151 -30.31863,-67.568512 -67.69254,-67.568512 -37.183219,0 -67.69253,30.263082 -67.69253,67.568512 l 0,327.37417 135.38507,0 0,-142.75037 -15.73137,0 c -5.0531,0 -9.53416,-2.855 -11.9177,-7.32785 z" opacity="0.8" fill="none" color-rendering="auto" solid-opacity="1" color-interpolation-filters="linearRGB" shape-rendering="auto" stroke="#ffffff" image-rendering="auto" color-interpolation="sRGB" color="#256f25" stroke-width="64" solid-color="#256f25"/>
 <path isolation="auto" mix-blend-mode="normal" id="path4139" d="m 449.99947,227.18936 -114.40991,-66.61684 -102.01551,66.52168 -62.73477,82.79521 -15.73136,20.84155 15.73136,0 22.78664,0 0,154.1704 286.97821,0 0,-153.21873 37.18322,0 -67.69253,-103.73193 z m -149.6863,21.88839 72.45961,0 0,72.32685 -72.45961,0 0,-72.32685 z m 120.13041,221.7389 -167.80121,0 0,-108.49027 167.80121,0 0,108.49027 z" opacity="0.8" fill="none" color-rendering="auto" solid-opacity="1" color-interpolation-filters="linearRGB" shape-rendering="auto" stroke="#ffffff" image-rendering="auto" color-interpolation="sRGB" color="#256f25" stroke-width="64" solid-color="#256f25"/>
 <path d="m 142.99954,336.63131 c -2.2882,-4.47284 -1.71615,-9.89736 1.23944,-13.89437 l 26.31428,-34.92626 0,-128.47532 c 0,-37.1151 -30.31863,-67.568512 -67.69254,-67.568512 -37.183219,0 -67.69253,30.263082 -67.69253,67.568512 l 0,327.37417 135.38507,0 0,-142.75037 -15.73137,0 c -5.0531,0 -9.53416,-2.855 -11.9177,-7.32785" id="path18" fill="#256f25"/>
 <path d="m 449.99947,227.18936 -114.40991,-66.61684 -102.01551,66.52168 -62.73477,82.79521 -15.73136,20.84155 15.73136,0 22.78664,0 0,154.1704 286.97821,0 0,-153.21873 37.18322,0 -67.69253,-103.73193 m -149.68631,21.88839 72.45961,0 0,72.32685 -72.45961,0 0,-72.32685 m 120.13041,221.7389 -167.80121,0 0,-108.49028 167.80121,0 0,108.49028" id="path20" fill="#256f25"/>
</svg>
