<?xml version="1.0" encoding="UTF-8" standalone="no"?>
<svg xmlns="http://www.w3.org/2000/svg" version="1.0" width="580" height="580">
 <metadata id="metadata10"/>
 <path id="path4150" d="M 248.60938 206.66992 C 238.24895 206.77631 228.18395 216.02204 225.95312 223.62109 L 210.89844 262.61133 C 199.14709 264.69188 191.92803 277.10134 193.31055 288.50586 L 193.31055 298.03125 C 198.89368 295.52787 204.63871 293.3496 210.49219 291.58008 C 210.87708 284.62015 216.71638 278.21963 223.48242 278.41016 C 230.24846 278.60069 234.30261 282.20194 236.24805 286.74609 C 238.0116 286.62654 239.77594 286.54145 241.54102 286.51562 C 273.31434 289.60055 293.81352 306.0523 327.63672 318.44336 C 344.83669 323.31826 367.11285 319.27677 386.82812 312.78125 C 386.85372 302.64158 386.85928 292.42815 386.85938 282.18359 C 386.0913 272.93668 378.41011 264.46107 369.19336 262.91992 C 363.81693 247.50838 357.67526 232.09513 352.29883 216.68359 C 347.69047 208.20725 338.47213 206.66992 330.02344 206.66992 L 248.60938 206.66992 z M 246.53906 222.05469 L 332.09766 222.08203 C 340.46952 222.08203 341.31569 231.63582 344.00391 237.49219 L 353.2207 262.14844 L 227.25781 262.14844 C 231.71256 250.35861 235.93395 238.33884 240.61914 226.70312 C 241.91523 223.95795 244.69876 222.02705 246.53906 222.05469 z M 358.74023 278.87109 C 369.20603 278.88189 375.11526 293.22973 368.12109 301.14258 C 361.97661 309.61894 347.38092 306.53597 344.76953 296.44141 C 342.01651 288.22994 348.27443 278.86033 358.74023 278.87109 z " mix-blend-mode="normal" solid-color="#000000" opacity="0.8" white-space="normal" color-interpolation-filters="linearRGB" filter-gaussianBlur-deviation="0" color="#000000" image-rendering="auto" color-rendering="auto" stroke-width="64" isolation="auto" color-interpolation="sRGB" solid-opacity="1" fill="none" stroke-linejoin="round" filter-blend-mode="normal" stroke="#ffffff" shape-rendering="auto"/>
 <path id="path4152" d="m 183.55938,357.51247 c 23.93249,-13.26511 52.78471,-22.62267 75.846,-15.93869 23.52251,7.19811 43.04774,24.4736 67.13396,29.30662 27.57104,6.68398 56.37202,-0.82263 80.97072,-13.36793 -3.07484,-8.84341 -7.84083,-17.99531 -9.01952,-21.90286 -21.9851,8.58633 -49.70989,15.42455 -70.20881,9.61464 -33.82322,-12.39105 -54.32213,-28.84389 -86.09545,-31.92881 -24.59871,0.35991 -49.19741,10.02596 -69.69633,23.13682 1.12745,4.01038 8.91704,18.50945 11.06943,21.08021 z" mix-blend-mode="normal" solid-color="#000000" opacity="0.8" white-space="normal" color-interpolation-filters="linearRGB" filter-gaussianBlur-deviation="0" color="#000000" image-rendering="auto" color-rendering="auto" stroke-width="64" isolation="auto" color-interpolation="sRGB" solid-opacity="1" fill="none" stroke-linejoin="round" filter-blend-mode="normal" stroke="#ffffff" shape-rendering="auto"/>
 <path d="M 248.60938 206.66992 C 238.24895 206.77631 228.18395 216.02204 225.95312 223.62109 L 210.89844 262.61133 C 199.14709 264.69188 191.92803 277.10134 193.31055 288.50586 L 193.31055 298.03125 C 198.89368 295.52787 204.63871 293.3496 210.49219 291.58008 C 210.87708 284.62015 216.71638 278.21963 223.48242 278.41016 C 230.24846 278.60069 234.30261 282.20194 236.24805 286.74609 C 238.0116 286.62654 239.77594 286.54145 241.54102 286.51562 C 273.31434 289.60055 293.81352 306.0523 327.63672 318.44336 C 344.83669 323.31826 367.11285 319.27677 386.82812 312.78125 C 386.85372 302.64158 386.85928 292.42815 386.85938 282.18359 C 386.0913 272.93668 378.41011 264.46107 369.19336 262.91992 C 363.81693 247.50838 357.67526 232.09513 352.29883 216.68359 C 347.69047 208.20725 338.47213 206.66992 330.02344 206.66992 L 248.60938 206.66992 z M 246.53906 222.05469 L 332.09766 222.08203 C 340.46952 222.08203 341.31569 231.63582 344.00391 237.49219 L 353.2207 262.14844 L 227.25781 262.14844 C 231.71256 250.35861 235.93395 238.33884 240.61914 226.70312 C 241.91523 223.95795 244.69876 222.02705 246.53906 222.05469 z M 358.74023 278.87109 C 369.20603 278.88189 375.11526 293.22973 368.12109 301.14258 C 361.97661 309.61894 347.38092 306.53597 344.76953 296.44141 C 342.01651 288.22994 348.27443 278.86033 358.74023 278.87109 z " id="path4181" fill="#666666" isolation="auto" color-rendering="auto" white-space="normal" solid-opacity="1" mix-blend-mode="normal" color-interpolation-filters="linearRGB" shape-rendering="auto" image-rendering="auto" color-interpolation="sRGB" color="#000000" solid-color="#000000"/>
 <path d="m 183.55938,357.51247 c 23.93249,-13.26511 52.78471,-22.62267 75.846,-15.93869 23.52251,7.19811 43.04774,24.4736 67.13396,29.30662 27.57104,6.68398 56.37202,-0.82263 80.97072,-13.36793 -3.07484,-8.84341 -7.84083,-17.99531 -9.01952,-21.90286 -21.9851,8.58633 -49.70989,15.42455 -70.20881,9.61464 -33.82322,-12.39105 -54.32213,-28.84389 -86.09545,-31.92881 -24.59871,0.35991 -49.19741,10.02596 -69.69633,23.13682 1.12745,4.01038 8.91704,18.50945 11.06943,21.08021 z" id="path4317" fill="#666666" isolation="auto" color-rendering="auto" white-space="normal" solid-opacity="1" mix-blend-mode="normal" color-interpolation-filters="linearRGB" shape-rendering="auto" image-rendering="auto" color-interpolation="sRGB" color="#000000" solid-color="#000000"/>
</svg>
