<?xml version="1.0" encoding="UTF-8" standalone="no"?>
<svg xmlns="http://www.w3.org/2000/svg" version="1.0" width="580" height="580">
 <metadata id="metadata10"/>
 <path mix-blend-mode="normal" white-space="normal" isolation="auto" id="path4164" d="m 176.5,114.7 c 0.41231,-7.42159 -3.20994,-15.180189 -10,-18.6 -6.91,-3.480218 -15.93493,-1.934074 -21,3 -6.5357,6.36668 -8.20606,17.6577 -2.5,24.9 12.49724,15.86188 32.71184,4.88692 33.5,-9.3 z m 117,5.3 -19.6,50.6 c -15.3,2.7 -24.7,18.8 -22.9,33.6 l 0,63 20,0 c 0.5,10.2 -1.3,20.7 1.6,30.6 5.4,14.9 29.4,14.8 34.7,-0.1 2.9,-9.9 1.1,-20.4 1.6,-30.5 l 136,0 c 0.5,10.2 -1.3,20.7 1.6,30.5 5.4,14.9 29,15 34.7,0.1 2.9,-9.9 1.2,-20.4 1.6,-30.6 l 20,0 C 503,244 503,220 503,196 502,184 492,173 480,171 473,151 465,131 458,111 452,100 440,98 429,98 l -106,0 c -13.6,-0.9 -26,8.9 -29.5,22 z m 138.2,-2 c 10.9,0 12,12.4 15.5,20 l 12,32 -164,0 c 5.8,-15.3 11.3,-30.9 17.4,-46 1.8,-3.8 5.8,-6.4 9.8,-6.2 36.292,0.41097 72.89879,0.2 109.3,0.2 z M 90.3,198.6 c -0.3,7.6 10.4,10 15.7,4.7 5,-13.3 7,-21.3 11,-31.3 2.4,-2.9 3.2,-2.9 2,0.9 -1.5,8.7 -3.7,17.4 -4.7,26 0.6,16.7 0.9,33.5 1.4,50 -6.9,14.4 -10.2,23 -16.9,37 C 91,304 115,315 123,294 c 6,-12.7 12.3,-25.4 18,-38 -0.2,-10.6 -0.3,-19 0,-30.6 l 19.3,25 c 1.7,17.8 3.4,35.4 5.1,50 3.4,14.2 22.5,9.9 20.8,-6.9 C 184,277 183,254 180,238 173,225 164,214 156,203 l 4,-19 c 5.3,5.5 11.4,10.2 17,15.4 12.9,13.3 23.3,-6.4 13.8,-12.5 -5.6,-5.1 -11.7,-9.9 -17,-15 -4.1,-9.4 -8.2,-19 -12.4,-28 -5.3,-6.1 -11.4,-9.8 -18.3,-9.8 -6.8,-1.6 -31.5,17.9 -41.45,26.5 -4.45,12.7 -7.15,25.9 -11.35,38 z m 183.9,15.8 c -3.7,-11 5.1,-23.6 16.8,-23.3 14.5,-0.7 23,18.8 13.6,29.4 -8,11 -27,7 -30.4,-6.1 z m 174,0.1 c -3.7,-11 5.1,-23.6 16.8,-23.3 14.5,-0.7 23,18.8 13.6,29.4 -8,11 -27,7 -30.4,-6.1 z M 86.6,423 c 46.7,-25.8 103,-44 148,-31 45.9,14 84,47.6 131,57 53.8,13 110,-1.6 158,-26 -6,-17.2 -15.3,-35 -17.6,-42.6 -42.9,16.7 -97,30 -137,18.7 C 303,375 263,343 201,337 c -48,0.7 -96,19.5 -136,45 2.2,7.8 17.4,36 21.6,41 z" solid-color="#000000" opacity="0.8" color-interpolation-filters="linearRGB" filter-gaussianBlur-deviation="0" color="#000000" image-rendering="auto" color-rendering="auto" stroke-width="64" color-interpolation="sRGB" solid-opacity="1" fill="none" stroke-linejoin="round" filter-blend-mode="normal" stroke="#ffffff" shape-rendering="auto"/>
 <path d="m 176.5,114.7 c 0.41231,-7.42159 -3.20994,-15.180189 -10,-18.6 -6.91,-3.480218 -15.93493,-1.934074 -21,3 -6.5357,6.36668 -8.20606,17.6577 -2.5,24.9 12.49724,15.86188 32.71184,4.88692 33.5,-9.3 z m 117,5.3 -19.6,50.6 c -15.3,2.7 -24.7,18.8 -22.9,33.6 l 0,63 20,0 c 0.5,10.2 -1.3,20.7 1.6,30.6 5.4,14.9 29.4,14.8 34.7,-0.1 2.9,-9.9 1.1,-20.4 1.6,-30.5 l 136,0 c 0.5,10.2 -1.3,20.7 1.6,30.5 5.4,14.9 29,15 34.7,0.1 2.9,-9.9 1.2,-20.4 1.6,-30.6 l 20,0 C 503,244 503,220 503,196 502,184 492,173 480,171 473,151 465,131 458,111 452,100 440,98 429,98 l -106,0 c -13.6,-0.9 -26,8.9 -29.5,22 z m 138.2,-2 c 10.9,0 12,12.4 15.5,20 l 12,32 -164,0 c 5.8,-15.3 11.3,-30.9 17.4,-46 1.8,-3.8 5.8,-6.4 9.8,-6.2 36.292,0.41097 72.89879,0.2 109.3,0.2 z M 90.3,198.6 c -0.3,7.6 10.4,10 15.7,4.7 5,-13.3 7,-21.3 11,-31.3 2.4,-2.9 3.2,-2.9 2,0.9 -1.5,8.7 -3.7,17.4 -4.7,26 0.6,16.7 0.9,33.5 1.4,50 -6.9,14.4 -10.2,23 -16.9,37 C 91,304 115,315 123,294 c 6,-12.7 12.3,-25.4 18,-38 -0.2,-10.6 -0.3,-19 0,-30.6 l 19.3,25 c 1.7,17.8 3.4,35.4 5.1,50 3.4,14.2 22.5,9.9 20.8,-6.9 C 184,277 183,254 180,238 173,225 164,214 156,203 l 4,-19 c 5.3,5.5 11.4,10.2 17,15.4 12.9,13.3 23.3,-6.4 13.8,-12.5 -5.6,-5.1 -11.7,-9.9 -17,-15 -4.1,-9.4 -8.2,-19 -12.4,-28 -5.3,-6.1 -11.4,-9.8 -18.3,-9.8 -6.8,-1.6 -31.5,17.9 -41.45,26.5 -4.45,12.7 -7.15,25.9 -11.35,38 z m 183.9,15.8 c -3.7,-11 5.1,-23.6 16.8,-23.3 14.5,-0.7 23,18.8 13.6,29.4 -8,11 -27,7 -30.4,-6.1 z m 174,0.1 c -3.7,-11 5.1,-23.6 16.8,-23.3 14.5,-0.7 23,18.8 13.6,29.4 -8,11 -27,7 -30.4,-6.1 z M 86.6,423 c 46.7,-25.8 103,-44 148,-31 45.9,14 84,47.6 131,57 53.8,13 110,-1.6 158,-26 -6,-17.2 -15.3,-35 -17.6,-42.6 -42.9,16.7 -97,30 -137,18.7 C 303,375 263,343 201,337 c -48,0.7 -96,19.5 -136,45 2.2,7.8 17.4,36 21.6,41 z" id="path3236" isolation="auto" white-space="normal" mix-blend-mode="normal" fill="#666666" color-rendering="auto" solid-opacity="1" color-interpolation-filters="linearRGB" shape-rendering="auto" image-rendering="auto" color-interpolation="sRGB" color="#000000" solid-color="#000000"/>
</svg>
