<?xml version="1.0" encoding="UTF-8" standalone="no"?>
<svg xmlns="http://www.w3.org/2000/svg" version="1.0" width="580" height="580">
 <metadata id="metadata2975"/>
 <g id="g1593" transform="matrix(0.9788722,0,0,0.9788722,6.127062,6.127062)" fill="none" stroke="#ffffff" vector-effect="none" stroke-linejoin="round" stroke-width="63.5">
  <g id="g1587" vector-effect="none" stroke-width="63.5">
   <path id="path1583" d="m 288.095,287.382 c 7.272,10e-4 13.601,-2.625 18.985,-7.875 5.386,-5.25 8.078,-11.646 8.079,-19.188 -10e-4,-7.534 -2.693,-13.926 -8.079,-19.176 -5.385,-5.25 -11.713,-7.875 -18.985,-7.875 -7.534,0 -13.926,2.625 -19.176,7.875 -5.25,5.25 -7.874,11.643 -7.874,19.176 0,7.542 2.625,13.938 7.874,19.188 5.249,5.25 11.642,7.876 19.176,7.875 z" vector-effect="none" stroke-width="63.5"/>
   <path id="path1585" d="m 397.143,277.684 c -4.305,0 -8.072,1.75 -11.301,5.25 l -31.5,31.094 -29.887,-17.365 c -3.229,-2.414 -5.517,-3.491 -6.864,-3.229 h -8.89 -42.402 -8.89 c -1.348,-0.263 -3.636,0.814 -6.865,3.229 l -29.886,17.365 -31.5,-31.094 c -3.229,-3.5 -6.996,-5.25 -11.302,-5.25 -9.152,0 -13.729,4.712 -13.729,14.136 0,3.501 1.211,6.733 3.636,9.698 l 39.979,39.979 c 3.229,3.229 6.729,4.844 10.5,4.844 2.416,0 5.242,-0.94 8.479,-2.822 l 26.25,-14.542 v 71.479 l -39.979,122.759 c -0.813,1.89 -1.221,3.775 -1.221,5.657 0,5.382 2.02,10.025 6.058,13.933 1.848,1.788 3.84,3.162 5.972,4.132 2.752,1.411 5.747,2.122 8.987,2.122 9.688,0 16.28,-4.979 19.781,-14.937 l 34.93,-104.778 34.93,104.778 c 3.501,9.958 10.093,14.937 19.78,14.937 3.242,0 6.237,-0.712 8.99,-2.123 2.131,-0.97 4.122,-2.344 5.97,-4.131 4.038,-3.907 6.058,-8.551 6.058,-13.933 0,-1.882 -0.407,-3.768 -1.221,-5.657 L 322.027,400.456 v -71.479 l 26.251,14.542 c 3.236,1.882 6.063,2.822 8.479,2.822 3.771,0 7.271,-1.614 10.5,-4.844 l 39.979,-39.979 c 2.425,-2.965 3.637,-6.197 3.637,-9.698 -10e-4,-9.424 -4.578,-14.136 -13.73,-14.136 z" vector-effect="none" stroke-width="63.5"/>
  </g>
  <path id="path1589" d="m 548,196.191 c 0,-62.546 -115.511,-165.25 -258,-165.25 -142.489,0 -258,102.704 -258,165.25 0,3.491 0.38,6.942 1.084,10.353 7.075,-5.831 14.996,-11.4 23.672,-16.674 L 256.278,293.504 203.965,141.399 c 28.28,-4.195 58.353,-6.457 89.536,-6.457 26.717,0 52.618,1.66 77.274,4.774 L 317.882,293.505 524.216,186.333 c 8.508,4.848 16.361,9.964 23.479,15.325 0.197,-1.813 0.305,-3.634 0.305,-5.467 z M 245.722,281.26 62.86,186.279 c 35.248,-20.063 81.836,-35.458 135.079,-43.952 z m 82.716,0 48.405,-140.742 c 55.195,7.569 103.861,22.464 141.061,42.332 z" vector-effect="none" stroke-width="63.5"/>
 </g>
 <g id="svg2-6" transform="matrix(0.9788722,0,0,0.9788722,6.127062,6.127062)" fill="#39ac39" stroke="none" vector-effect="none" stroke-width="0.96">
  <g id="g975" vector-effect="none" stroke-width="0.96">
   <path d="m 288.095,287.382 c 7.272,10e-4 13.601,-2.625 18.985,-7.875 5.386,-5.25 8.078,-11.646 8.079,-19.188 -10e-4,-7.534 -2.693,-13.926 -8.079,-19.176 -5.385,-5.25 -11.713,-7.875 -18.985,-7.875 -7.534,0 -13.926,2.625 -19.176,7.875 -5.25,5.25 -7.874,11.643 -7.874,19.176 0,7.542 2.625,13.938 7.874,19.188 5.249,5.25 11.642,7.876 19.176,7.875 z" id="path971" vector-effect="none" stroke-width="0.96"/>
   <path d="m 397.143,277.684 c -4.305,0 -8.072,1.75 -11.301,5.25 l -31.5,31.094 -29.887,-17.365 c -3.229,-2.414 -5.517,-3.491 -6.864,-3.229 h -8.89 -42.402 -8.89 c -1.348,-0.263 -3.636,0.814 -6.865,3.229 l -29.886,17.365 -31.5,-31.094 c -3.229,-3.5 -6.996,-5.25 -11.302,-5.25 -9.152,0 -13.729,4.712 -13.729,14.136 0,3.501 1.211,6.733 3.636,9.698 l 39.979,39.979 c 3.229,3.229 6.729,4.844 10.5,4.844 2.416,0 5.242,-0.94 8.479,-2.822 l 26.25,-14.542 v 71.479 l -39.979,122.759 c -0.813,1.89 -1.221,3.775 -1.221,5.657 0,5.382 2.02,10.025 6.058,13.933 1.848,1.788 3.84,3.162 5.972,4.132 2.752,1.411 5.747,2.122 8.987,2.122 9.688,0 16.28,-4.979 19.781,-14.937 l 34.93,-104.778 34.93,104.778 c 3.501,9.958 10.093,14.937 19.78,14.937 3.242,0 6.237,-0.712 8.99,-2.123 2.131,-0.97 4.122,-2.344 5.97,-4.131 4.038,-3.907 6.058,-8.551 6.058,-13.933 0,-1.882 -0.407,-3.768 -1.221,-5.657 L 322.027,400.456 v -71.479 l 26.251,14.542 c 3.236,1.882 6.063,2.822 8.479,2.822 3.771,0 7.271,-1.614 10.5,-4.844 l 39.979,-39.979 c 2.425,-2.965 3.637,-6.197 3.637,-9.698 -10e-4,-9.424 -4.578,-14.136 -13.73,-14.136 z" id="path973" vector-effect="none" stroke-width="0.96"/>
  </g>
  <path d="m 548,196.191 c 0,-62.546 -115.511,-165.25 -258,-165.25 -142.489,0 -258,102.704 -258,165.25 0,3.491 0.38,6.942 1.084,10.353 7.075,-5.831 14.996,-11.4 23.672,-16.674 L 256.278,293.504 203.965,141.399 c 28.28,-4.195 58.353,-6.457 89.536,-6.457 26.717,0 52.618,1.66 77.274,4.774 L 317.882,293.505 524.216,186.333 c 8.508,4.848 16.361,9.964 23.479,15.325 0.197,-1.813 0.305,-3.634 0.305,-5.467 z M 245.722,281.26 62.86,186.279 c 35.248,-20.063 81.836,-35.458 135.079,-43.952 z m 82.716,0 48.405,-140.742 c 55.195,7.569 103.861,22.464 141.061,42.332 z" id="path977" vector-effect="none" stroke-width="0.96"/>
 </g>
</svg>
