<?xml version="1.0" encoding="UTF-8" standalone="no"?>
<svg xmlns="http://www.w3.org/2000/svg" version="1.0" width="580" height="580">
 <metadata id="metadata10"/>
 <path id="path4137" d="M 231.41406 68.943359 C 230.61706 68.949493 229.8125 68.96875 229 69 C 188 67.8 154 112 164 152 C 170.8 183.9 203 209.90078 236 204.80078 C 257 202.80078 276.80039 190.30039 287.90039 172.40039 C 297.90039 167.70039 310.30039 175.29922 319.40039 167.69922 C 326.60039 163.19922 331.60039 148.99922 340.40039 151.69922 C 345.40039 155.09922 348.89961 164.29922 356.09961 162.69922 C 363.39961 159.29922 369.5 143.5 376.5 156 C 380.1 160.4 387.30078 167.00039 392.30078 160.40039 C 398.30078 150.60039 406.79922 147.60039 413.19922 158.90039 C 417.79922 164.90039 424.10078 163.60039 429.80078 157.90039 C 437.00078 150.30039 445.59961 142.90078 450.09961 133.30078 C 449.59961 123.40078 442.79961 119.30039 435.09961 112.40039 C 422.29961 99.600391 411.30078 103 399.30078 103 C 361.80078 102.1 322.30078 103.89961 287.30078 102.09961 C 273.44766 80.593359 256.12126 68.753204 231.41406 68.943359 z M 203.34375 120.84961 C 204.70469 120.80078 206.12461 120.85 207.59961 121 C 219.59961 123.7 225.9 145.4 212 153 L 212 152.90039 C 200.3 160.30039 182.19961 150.5 185.09961 136 C 187.19961 126.375 193.81719 121.19141 203.34375 120.84961 z M 414.75 203.09961 C 399.7 203.09961 391.20078 217.5 380.30078 226 L 333.30078 269 L 113.30078 269 C 93.300781 269.2 83.3 296.8 98 310 C 109 320.6 125.3 315.80039 139 316.90039 L 281 316.90039 L 229 364.80078 C 189.5 365.10078 150 364.29922 111 365.19922 C 91.2 367.79922 84.299219 396.20078 100.69922 407.80078 C 112.49922 416.10078 127.59922 411.70078 140.69922 412.80078 L 176.69922 412.80078 C 166.39922 422.80078 154.69922 431.60078 145.69922 442.80078 C 134.79922 459.50078 152.00078 483.40039 171.30078 478.40039 C 184.30078 474.60039 192.30078 462.39961 202.80078 454.09961 C 217.30078 441.09961 232.30078 427.09961 247.30078 413.09961 C 321.30078 412.99961 394.30078 413.2 467.30078 413 C 487.20078 412.2 496.8 384.4 481.5 372 C 470.2 362 454.5 366.7 440.5 365.5 L 299.5 365.5 L 351.5 317.59961 C 390.2 317.49961 428.5 317.8 467.5 317.5 C 487.4 316.5 496.50078 288.60039 481.30078 275.90039 C 469.70078 265.90039 453.70078 270.79961 439.80078 269.59961 L 403.80078 269.59961 C 414.10078 259.59961 425.80078 250.69961 434.80078 239.59961 C 444.60078 224.29961 432.6 202.89961 414.75 203.09961 z " mix-blend-mode="normal" solid-color="#000000" opacity="0.8" color-interpolation-filters="linearRGB" filter-gaussianBlur-deviation="0" color="#000000" image-rendering="auto" color-rendering="auto" stroke-width="64" isolation="auto" color-interpolation="sRGB" solid-opacity="1" fill="none" stroke-linejoin="round" filter-blend-mode="normal" stroke="#ffffff" shape-rendering="auto"/>
 <path d="M 231.41406 68.943359 C 230.61706 68.949493 229.8125 68.96875 229 69 C 188 67.8 154 112 164 152 C 170.8 183.9 203 209.90078 236 204.80078 C 257 202.80078 276.80039 190.30039 287.90039 172.40039 C 297.90039 167.70039 310.30039 175.29922 319.40039 167.69922 C 326.60039 163.19922 331.60039 148.99922 340.40039 151.69922 C 345.40039 155.09922 348.89961 164.29922 356.09961 162.69922 C 363.39961 159.29922 369.5 143.5 376.5 156 C 380.1 160.4 387.30078 167.00039 392.30078 160.40039 C 398.30078 150.60039 406.79922 147.60039 413.19922 158.90039 C 417.79922 164.90039 424.10078 163.60039 429.80078 157.90039 C 437.00078 150.30039 445.59961 142.90078 450.09961 133.30078 C 449.59961 123.40078 442.79961 119.30039 435.09961 112.40039 C 422.29961 99.600391 411.30078 103 399.30078 103 C 361.80078 102.1 322.30078 103.89961 287.30078 102.09961 C 273.44766 80.593359 256.12126 68.753204 231.41406 68.943359 z M 203.34375 120.84961 C 204.70469 120.80078 206.12461 120.85 207.59961 121 C 219.59961 123.7 225.9 145.4 212 153 L 212 152.90039 C 200.3 160.30039 182.19961 150.5 185.09961 136 C 187.19961 126.375 193.81719 121.19141 203.34375 120.84961 z M 414.75 203.09961 C 399.7 203.09961 391.20078 217.5 380.30078 226 L 333.30078 269 L 113.30078 269 C 93.300781 269.2 83.3 296.8 98 310 C 109 320.6 125.3 315.80039 139 316.90039 L 281 316.90039 L 229 364.80078 C 189.5 365.10078 150 364.29922 111 365.19922 C 91.2 367.79922 84.299219 396.20078 100.69922 407.80078 C 112.49922 416.10078 127.59922 411.70078 140.69922 412.80078 L 176.69922 412.80078 C 166.39922 422.80078 154.69922 431.60078 145.69922 442.80078 C 134.79922 459.50078 152.00078 483.40039 171.30078 478.40039 C 184.30078 474.60039 192.30078 462.39961 202.80078 454.09961 C 217.30078 441.09961 232.30078 427.09961 247.30078 413.09961 C 321.30078 412.99961 394.30078 413.2 467.30078 413 C 487.20078 412.2 496.8 384.4 481.5 372 C 470.2 362 454.5 366.7 440.5 365.5 L 299.5 365.5 L 351.5 317.59961 C 390.2 317.49961 428.5 317.8 467.5 317.5 C 487.4 316.5 496.50078 288.60039 481.30078 275.90039 C 469.70078 265.90039 453.70078 270.79961 439.80078 269.59961 L 403.80078 269.59961 C 414.10078 259.59961 425.80078 250.69961 434.80078 239.59961 C 444.60078 224.29961 432.6 202.89961 414.75 203.09961 z " id="path2900" fill="#666666"/>
</svg>
