<?xml version="1.0" encoding="UTF-8" standalone="no"?>
<svg xmlns="http://www.w3.org/2000/svg" width="580" height="580" version="1.0">
 <metadata id="metadata7"/>
 <path d="M 319.69922 35.988281 C 301.83028 38.12205 281.48475 44.413431 283.12305 66.501953 C 262.54354 64.011219 246.92846 73.704008 239.90039 82.337891 C 229.90039 95.237891 227.7 108.33789 229.5 118.33789 C 212.04122 121.70078 196.44823 130.95642 188.40039 144.33789 C 175.87315 165.24046 185.01775 186.68517 197.5 203.63867 C 137.8742 213.68795 132.78325 286.15432 180 305.73828 C 195.4 311.53828 213.6 310.13789 236 305.33789 C 237.79029 358.67832 240.24173 412.87396 242.7207 462.53711 C 228.344 462.7394 214.23605 463.30151 200.82617 464.55273 C 178.9715 466.82935 137.58319 473.22149 133.08594 495.62695 C 130.83353 521.7053 162.61792 531.94264 180.00781 536.87891 C 249.46572 553.18474 326.86403 554.19118 392.63086 539.85742 C 410.64861 533.73875 437.3225 530.47008 446.57812 513.2207 C 449.00705 508.53129 448.97312 502.46897 446.25195 497.53906 C 429.43292 476.99508 402.9847 472.09948 380.50586 468.70312 C 366.36802 466.60406 351.41125 465.32414 337.06055 464.49023 C 339.18741 424.84688 341.25239 385.05295 342.09961 346.4375 C 347.69961 346.0375 354.70039 345.23828 361.90039 343.73828 C 369.70039 342.13828 377.70039 339.93828 384.90039 335.73828 C 392.00039 331.53828 399.19922 323.7375 399.19922 313.4375 C 399.19922 303.7375 396.49961 295.43828 393.09961 288.73828 C 401.55392 287.72932 410.92501 285.1582 417.09961 281.4375 C 423.89961 277.2375 430.09922 269.9375 431.69922 260.4375 C 433.09922 252.2375 429.5 245.4375 425.5 240.4375 C 420.17357 233.74884 413.96891 229.20084 407.69922 224.73828 C 412.19922 219.13828 416.39922 211.23789 418.69922 200.33789 C 420.20227 187.74196 417.57466 170.47072 408.69922 162.13867 C 430.77352 148.90031 436.07982 122.17965 432.19922 105.53711 C 423.67723 74.255501 390.37006 69.960787 366.30078 68.537109 C 360.68353 45.830004 335.71778 36.031822 319.69922 35.988281 z M 320.09961 58.037109 C 340.20217 58.880353 346.34916 75.218582 350.19922 90.837891 C 369.37544 92.690294 405.18886 88.636265 411.30078 111.53711 C 415.95183 137.89137 390.03784 150.32798 368.90039 163.23828 C 383.71039 170.02997 400.41488 179.64519 397.40039 196.13867 C 392.97011 219.40131 377.16168 217.62889 355.40039 222.33789 C 379.8323 232.00282 405.66308 237.13033 410.09961 257.53711 C 403.48817 283.90425 349.07699 265.17232 334 263.23828 C 352.52736 277.36852 376.73192 294.25568 377.30078 314.03711 C 371.40802 332.10981 335.25686 325.4844 320.33789 325.63867 C 322.79854 370.71371 320.19197 418.62672 317.21484 463.57422 C 309.32608 463.29163 301.83723 463.09618 295.14062 462.93945 C 284.86047 462.72779 274.48593 462.54617 264.15039 462.47266 C 261.21733 399.88062 259.167 338.24586 256.5 278.23828 C 218 287.93828 174.5 296.23828 171.5 260.73828 C 168.2 225.13828 210.30078 218.23828 229.30078 216.73828 C 217.00078 201.03828 196.7 171.73828 206.5 157.73828 C 223.09982 137.2034 240.53409 135.62943 256.5 135.4375 C 249.42508 118.1015 247.96051 109.00068 257.59961 96.4375 C 271.97621 79.265938 280.3321 82.056451 297.5 89.337891 C 296.85351 65.525622 301.60274 58.862477 320.09961 58.037109 z " id="path4174" shape-rendering="auto" mix-blend-mode="normal" filter-blend-mode="normal" color-interpolation-filters="linearRGB" isolation="auto" white-space="normal" opacity="0.8" fill="none" solid-opacity="1" image-rendering="auto" solid-color="#000000" stroke="#ffffff" color="#000000" stroke-width="64" color-rendering="auto" filter-gaussianBlur-deviation="0" color-interpolation="sRGB"/>
 <path d="m 200.82617,464.55273 c -21.85467,2.27662 -63.24298,8.66876 -67.74023,31.07422 -2.25241,26.07835 29.532,36.31567 46.92189,41.25194 69.45791,16.30583 146.85641,17.31227 212.62324,2.97851 18.01775,-6.11867 44.69164,-9.38734 53.94726,-26.63672 2.42893,-4.68941 2.395,-10.75173 -0.32617,-15.68164 -16.81903,-20.54398 -43.26728,-25.43955 -65.74612,-28.8359 -29.15587,-4.32881 -61.84153,-5.21311 -85.36524,-5.76367 -31.907,-0.65696 -64.76875,-1.14356 -94.31463,1.61326 z" id="path3799" shape-rendering="auto" mix-blend-mode="normal" color-interpolation-filters="linearRGB" isolation="auto" white-space="normal" fill="#666666" solid-opacity="1" image-rendering="auto" solid-color="#000000" color="#000000" color-rendering="auto" color-interpolation="sRGB"/>
 <path id="path3873" d="m 319.6,44.63782 c -30.7,1.1 -32,26 -32,26 0,0 -19,-8 -38,16.3 -19,24.3 -1.1,40.6 -1.1,40.6 0,0 -29,-8.3 -50,21 -17,23.4 22,62.8 22,62.8 0,0 -69,-3.2 -61,41.8 7.1,45 33.5,51 88,37 10.5,235 -1.2,35.8 9.5,239 22.23019,2.45839 45.65504,2.5046 66,0.8 9.3,-173 8.6,-195 8.6,-195 0,0 57,-0.6 57,-22.5 0,-21.9 -17,-35.5 -17,-35.5 0,0 45.5,5.4 49.8,-19.4 2.6,-15.3 -32.7,-32.9 -32.7,-32.9 0,0 14.4,-3.1 19.9,-27.9 5.5,-24.8 -16.8,-36 -16.8,-36 0,0 38,-23.5 30.5,-53.7 -7.8,-30 -63,-29 -63,-29 0,0 -8,-32.7 -37.9,-33 z" fill="#ffffff"/>
 <path id="path3777" d="M 283.12298,66.653279 C 262.54347,64.15018 246.92807,73.891175 239.9,82.56792 c -10,12.964041 -12.2,26.12907 -10.4,36.17872 -17.45878,3.37958 -33.05216,12.68117 -41.1,26.12907 -12.52724,21.00634 -3.38225,42.55673 9.1,59.59439 -59.6258,10.09917 -64.71675,82.92568 -17.5,102.60687 15.4,5.82879 33.6,4.42184 56,-0.40199 2.61446,78.28282 6.63841,158.64816 10.1,223.50408 7,0.90447 14.3,1.60795 21.6,2.21093 -5.10682,-86.21853 -7.5795,-171.08384 -11.2,-252.94954 -38.5,9.74815 -82,18.08936 -85,-17.58688 -3.3,-35.77673 38.8,-42.71099 57.8,-44.21843 -12.3,-15.77795 -32.6,-45.2234 -22.8,-59.2929 16.59982,-20.63683 34.03409,-22.21783 50,-22.41071 -7.07492,-17.42206 -8.5391,-26.56806 1.1,-39.193612 14.3766,-17.256808 22.7321,-14.452835 39.9,-7.135247 -0.64649,-23.930483 4.10313,-30.62592 22.6,-31.455386 20.10256,0.84743 26.24994,17.265983 30.1,32.962832 19.17622,1.8616 54.98808,-2.211769 61.1,20.802763 4.65105,26.48509 -21.26255,38.98227 -42.4,51.95666 14.81,6.82541 31.51449,16.48797 28.5,33.06333 -4.43028,23.37812 -20.23871,21.59769 -42,26.33007 24.43191,9.71291 50.26347,14.86666 54.7,35.37474 -6.61144,26.49804 -61.02301,7.67194 -76.1,5.7283 18.52736,14.20039 42.73114,31.17256 43.3,51.05219 -5.89276,18.16242 -42.04316,11.50255 -56.96213,11.65759 3.75192,69.07006 -4.26593,144.92599 -7.43787,206.41969 6.9,-0.40199 13.9,-1.00497 20.8,-1.80894 2.88437,-60.73654 7.089,-123.65681 8.4,-183.70749 5.6,-0.40199 12.6,-1.20596 19.8,-2.71341 7.8,-1.60794 15.8,-3.81886 23,-8.03971 7.1,-4.22085 14.3,-12.05957 14.3,-22.41071 0,-9.74815 -2.7,-18.08936 -6.1,-24.82262 8.45431,-1.01397 17.8254,-3.59707 24,-7.33624 6.8,-4.22085 13,-11.55709 14.6,-21.10425 1.4,-8.24071 -2.2,-15.07447 -6.2,-20.09929 -5.32643,-6.72186 -11.53031,-11.29323 -17.8,-15.77794 4.5,-5.6278 8.7,-13.56702 11,-24.52113 1.50305,-12.65846 -1.12456,-30.01623 -10,-38.38964 C 430.7743,149.46 436.0806,122.60825 432.2,105.88309 423.67801,74.446192 390.36928,70.130157 366.3,68.699411 360.68275,45.879579 335.71856,36.031577 319.7,35.98782 301.83106,38.132182 281.48468,44.4551 283.12298,66.653279 Z" fill="#666666"/>
 <path white-space="normal" isolation="auto" mix-blend-mode="normal" id="path3779" d="m 301.97436,278.22162 -7.9,222 c -0.15398,3.0578 2.20861,5.65069 5.24869,5.76032 3.04008,0.10963 5.58099,-2.30643 5.64484,-5.36748 l 7.9,-222 c 0.15338,-3.08897 -2.25917,-5.69491 -5.33145,-5.75881 -3.00754,-0.0625 -5.49682,2.33903 -5.56208,5.36597 z" fill="#666666" color-rendering="auto" solid-opacity="1" color-interpolation-filters="linearRGB" shape-rendering="auto" image-rendering="auto" color-interpolation="sRGB" color="#000000" solid-color="#000000"/>
 <path white-space="normal" isolation="auto" mix-blend-mode="normal" id="path3779-3" d="m 268.38893,240.0028 5.5,193 c 0.0325,3.06909 2.56024,5.51436 5.60848,5.42543 3.04825,-0.0889 5.43105,-2.67746 5.28683,-5.74329 l -5.56368,-192.44578 c -0.0453,-3.09234 -1.55567,-5.70954 -5.36799,-5.77011 -3.06865,-0.0465 -5.59254,2.50861 -5.46364,5.53375 z" fill="#666666" color-rendering="auto" solid-opacity="1" color-interpolation-filters="linearRGB" shape-rendering="auto" image-rendering="auto" color-interpolation="sRGB" color="#000000" solid-color="#000000"/>
</svg>
