<?xml version="1.0" encoding="UTF-8" standalone="no"?>
<svg xmlns="http://www.w3.org/2000/svg" width="580" height="1160" version="1.0">
 <metadata id="metadata3003"/>
 <path id="path816" d="M 276,583.59961 V 704.61719 L 237,705 c -52,0 -93,40 -93,90 v 155 c 0,50 41,90 93,89 h 102 c 52,0 93,-40 93,-90 V 794 c 0,-50 -41,-90 -93,-90 l -39,0.38281 v -120.7832 z" opacity="0.8" fill="none" stroke="#ffffff" vector-effect="none" stroke-linejoin="round" stroke-width="64"/>
 <path d="M 276,583.59961 V 704.61719 L 237,705 c -52,0 -93,40 -93,90 v 155 c 0,50 41,90 93,89 h 102 c 52,0 93,-40 93,-90 V 794 c 0,-50 -41,-90 -93,-90 l -39,0.38281 v -120.7832 z" id="rect3195" fill="#20a0a0"/>
 <path d="m 339,728 c 38,0 69,30.8 69,69 v 54 c 0,38 -30.8,69 -69,69 H 237 c -38,0 -69,-30.8 -69,-69 v -54 c 0,-38 30.8,-69 69,-69 z" id="rect3199" opacity="0.7" fill="#ffffff"/>
</svg>
