<?xml version="1.0" encoding="UTF-8" standalone="no"?>
<svg xmlns="http://www.w3.org/2000/svg" width="580" height="580" version="1.0">
 <metadata id="metadata4148"/>
 <path white-space="normal" isolation="auto" mix-blend-mode="normal" id="path4137" d="m 242.4,117.8 c -14.2,0.6 -32.8,-0.9 -43,2.9 -10.2,5.9 -6.6,18.7 -7.5,28.4 0.2,14.2 -1.3,28.4 -0.1,42.5 2.5,9.9 13.5,11 22,10.8 l 28,1.5 c 0.2,75 -0.1,150 0.4,224 1.6,8.6 11.4,7.7 18,7.5 7.8,-0.6 16,1.3 23.5,-1.1 7.9,-4.8 3.9,-15.2 4.9,-22.7 l 0,-206 c 29,1.3 58,3.5 87,4.3 9.5,-2.2 14.2,-11.9 21,-18 6.2,-7.4 14.2,-13.5 18.9,-21.9 4.1,-11 -6.9,-18.6 -12.5,-26.6 -7.5,-8.8 -14,-18.6 -22.3,-26.6 -8.5,-4.6 -18.5,-1.4 -27.7,-2 l -64.8,1.4 c 0.7,-6.2 -0.1,-14.7 -7.8,-15.8 -9.9,-0.3 -19.9,0 -29.6,0.25 -7.7,0.15 -8.1,7.75 -8.4,17.15 z" solid-color="#000000" color-interpolation-filters="linearRGB" opacity="0.8" filter-gaussianBlur-deviation="0" color="#000000" image-rendering="auto" color-rendering="auto" stroke-width="64" color-interpolation="sRGB" solid-opacity="1" fill="none" stroke-linejoin="round" filter-blend-mode="normal" stroke="#ffffff" shape-rendering="auto"/>
 <path d="m 242.4,117.8 c -14.2,0.6 -32.8,-0.9 -43,2.9 -10.2,5.9 -6.6,18.7 -7.5,28.4 0.2,14.2 -1.3,28.4 -0.1,42.5 2.5,9.9 13.5,11 22,10.8 l 28,1.5 c 0.2,75 -0.1,150 0.4,224 1.6,8.6 11.4,7.7 18,7.5 7.8,-0.6 16,1.3 23.5,-1.1 7.9,-4.8 3.9,-15.2 4.9,-22.7 l 0,-206 c 29,1.3 58,3.5 87,4.3 9.5,-2.2 14.2,-11.9 21,-18 6.2,-7.4 14.2,-13.5 18.9,-21.9 4.1,-11 -6.9,-18.6 -12.5,-26.6 -7.5,-8.8 -14,-18.6 -22.3,-26.6 -8.5,-4.6 -18.5,-1.4 -27.7,-2 l -64.8,1.4 c 0.7,-6.2 -0.1,-14.7 -7.8,-15.8 -9.9,-0.3 -19.9,0 -29.6,0.25 -7.7,0.15 -8.1,7.75 -8.4,17.15 z" id="path4140" mix-blend-mode="normal" isolation="auto" white-space="normal" color-rendering="auto" solid-opacity="1" color-interpolation-filters="linearRGB" shape-rendering="auto" fill-rule="evenodd" image-rendering="auto" color-interpolation="sRGB" color="#000000" solid-color="#000000"/>
</svg>
