<?xml version="1.0" encoding="UTF-8" standalone="no"?>
<svg xmlns="http://www.w3.org/2000/svg" version="1.0" width="580" height="580">
 <metadata id="metadata2975"/>
 <path id="path4170" d="m 334.3125,42.732422 c -22.87623,7e-6 -41.42082,18.56821 -41.41992,41.472656 1.8e-4,22.903682 18.54445,41.470692 41.41992,41.470702 22.87547,-1e-5 41.41974,-18.56702 41.41992,-41.470702 9e-4,-22.904446 -18.54369,-41.472649 -41.41992,-41.472656 z M 258.48047,125.0957 c -2.23059,-0.0685 -4.51241,0.29626 -6.72461,1.14453 -14.88467,6.17971 -30.88242,11.97044 -45.5625,17.81446 -4.51854,1.79079 -7.81297,5.27868 -9.60156,9.42578 -1.78858,4.14711 -2.07179,8.95244 -0.28321,13.47656 6.3341,14.72784 12.19536,30.31363 18.16797,45.42969 3.57718,8.76547 13.5555,13.00737 22.4043,9.42578 8.8488,-3.48734 13.17992,-13.47818 9.79102,-22.33789 L 235,170.25586 264.18164,158.57031 c 8.75467,-3.58159 13.08442,-13.57363 9.64844,-22.48047 -2.43578,-6.68013 -8.65785,-10.7887 -15.34961,-10.99414 z m 51.2793,4.04102 c -7.7177,-0.0618 -15.0779,4.40928 -18.4668,11.90234 L 186.51953,383.92578 c -4.4244,10.17925 0.28095,21.96127 10.35352,26.29688 10.16671,4.33561 21.93536,-0.2822 26.26562,-10.36719 l 91.31055,-212.06836 c 4.37592,7.30261 8.37611,15.49212 12.42773,22.71484 2.25927,4.05285 6.02365,6.88069 10.25977,8.01172 4.142,1.22528 8.84862,0.848 12.89648,-1.41406 13.15081,-7.94004 27.25456,-15.54636 40.85547,-23.18555 7.90744,-4.52411 10.73086,-14.70288 6.35352,-22.80859 -4.37733,-8.19994 -14.44959,-11.12322 -22.45117,-6.69336 l -26.35743,14.89258 -19.39257,-34.58985 c -1.31791,-6.03215 -5.45928,-11.31014 -11.57813,-13.94922 -2.51814,-1.08389 -5.13056,-1.60828 -7.70312,-1.6289 z m -7.36915,136.76562 c -3.20444,0.0895 -6.43312,0.95183 -9.40429,2.66016 -9.41362,5.46663 -12.80131,17.62504 -7.43555,27.14453 l 18.16797,31.57422 -31.53516,18.19141 c -9.41362,5.56089 -12.61419,17.71879 -7.15429,27.23828 5.4599,9.42523 17.60357,12.81769 27.11132,7.44531 16.34943,-8.8776 32.64518,-19.50213 49.04493,-27.70898 4.80095,-2.82757 8.09421,-7.35278 9.41211,-12.25391 1.41205,-4.99537 0.8479,-10.55567 -2.07032,-15.50391 -9.89552,-15.70922 -19.01883,-32.6398 -28.33593,-48.96484 -3.81841,-6.47985 -10.751,-10.01919 -17.80079,-9.82227 z m 118.24415,116.61133 c -6.21299,0 -11.29555,0.75388 -12.09571,1.13086 -94.26788,16.93063 -189.69468,32.99194 -284.43164,49.29297 -24.946092,4.61836 -43.021483,26.29652 -43.021482,51.65039 0,28.93547 23.533782,52.49805 52.433592,52.49805 l 287.11524,0 c 42.3613,0 77.19335,-34.4946 77.19335,-77.28516 0,-42.41354 -34.45551,-77.28711 -77.19335,-77.28711 z m 0.0957,13.19531 c 34.8304,0 64.01172,28.65293 64.01172,64.0918 0,16.96542 -6.58923,32.98649 -18.63867,45.05078 -12.04943,12.0643 -28.05353,18.75781 -44.99805,18.75782 l -287.11524,0 c -21.65132,0 -39.253902,-17.62666 -39.253902,-39.30469 0,-18.85047 13.461022,-34.87248 32.005862,-38.64258 93.16149,-21.25244 192.45034,-25.49176 284.00976,-49.05859 0.0942,-0.23558 4.61276,-0.89454 9.97852,-0.89454 z m 0.1875,8.95313 c -30.67455,-3.6e-4 -55.5413,24.89699 -55.54102,55.60937 -2.8e-4,30.71239 24.86647,55.60974 55.54102,55.60938 30.67455,3.6e-4 55.54129,-24.897 55.54101,-55.60938 2.8e-4,-30.71238 -24.86647,-55.60973 -55.54101,-55.60937 z m -287.11524,49.01172 c -17.1566,2.8e-4 -31.06458,13.92575 -31.06445,31.10351 -1.4e-4,17.17776 13.90785,31.10324 31.06445,31.10352 17.15661,-2.7e-4 31.0646,-13.92575 31.06446,-31.10352 1.3e-4,-17.17776 -13.90786,-31.10324 -31.06446,-31.10351 z" mix-blend-mode="normal" solid-color="#000000" opacity="0.8" color-interpolation-filters="linearRGB" filter-gaussianBlur-deviation="0" color="#000000" image-rendering="auto" color-rendering="auto" stroke-width="64" isolation="auto" color-interpolation="sRGB" solid-opacity="1" fill="none" stroke-linejoin="round" filter-blend-mode="normal" stroke="#ffffff" shape-rendering="auto"/>
 <path d="m 334.3125,42.732422 c -22.87623,7e-6 -41.42082,18.56821 -41.41992,41.472656 1.8e-4,22.903682 18.54445,41.470692 41.41992,41.470702 22.87547,-1e-5 41.41974,-18.56702 41.41992,-41.470702 9e-4,-22.904446 -18.54369,-41.472649 -41.41992,-41.472656 z M 258.48047,125.0957 c -2.23059,-0.0685 -4.51241,0.29626 -6.72461,1.14453 -14.88467,6.17971 -30.88242,11.97044 -45.5625,17.81446 -4.51854,1.79079 -7.81297,5.27868 -9.60156,9.42578 -1.78858,4.14711 -2.07179,8.95244 -0.28321,13.47656 6.3341,14.72784 12.19536,30.31363 18.16797,45.42969 3.57718,8.76547 13.5555,13.00737 22.4043,9.42578 8.8488,-3.48734 13.17992,-13.47818 9.79102,-22.33789 L 235,170.25586 264.18164,158.57031 c 8.75467,-3.58159 13.08442,-13.57363 9.64844,-22.48047 -2.43578,-6.68013 -8.65785,-10.7887 -15.34961,-10.99414 z m 51.2793,4.04102 c -7.7177,-0.0618 -15.0779,4.40928 -18.4668,11.90234 L 186.51953,383.92578 c -4.4244,10.17925 0.28095,21.96127 10.35352,26.29688 10.16671,4.33561 21.93536,-0.2822 26.26562,-10.36719 l 91.31055,-212.06836 c 4.37592,7.30261 8.37611,15.49212 12.42773,22.71484 2.25927,4.05285 6.02365,6.88069 10.25977,8.01172 4.142,1.22528 8.84862,0.848 12.89648,-1.41406 13.15081,-7.94004 27.25456,-15.54636 40.85547,-23.18555 7.90744,-4.52411 10.73086,-14.70288 6.35352,-22.80859 -4.37733,-8.19994 -14.44959,-11.12322 -22.45117,-6.69336 l -26.35743,14.89258 -19.39257,-34.58985 c -1.31791,-6.03215 -5.45928,-11.31014 -11.57813,-13.94922 -2.51814,-1.08389 -5.13056,-1.60828 -7.70312,-1.6289 z m -7.36915,136.76562 c -3.20444,0.0895 -6.43312,0.95183 -9.40429,2.66016 -9.41362,5.46663 -12.80131,17.62504 -7.43555,27.14453 l 18.16797,31.57422 -31.53516,18.19141 c -9.41362,5.56089 -12.61419,17.71879 -7.15429,27.23828 5.4599,9.42523 17.60357,12.81769 27.11132,7.44531 16.34943,-8.8776 32.64518,-19.50213 49.04493,-27.70898 4.80095,-2.82757 8.09421,-7.35278 9.41211,-12.25391 1.41205,-4.99537 0.8479,-10.55567 -2.07032,-15.50391 -9.89552,-15.70922 -19.01883,-32.6398 -28.33593,-48.96484 -3.81841,-6.47985 -10.751,-10.01919 -17.80079,-9.82227 z m 118.24415,116.61133 c -6.21299,0 -11.29555,0.75388 -12.09571,1.13086 -94.26788,16.93063 -189.69468,32.99194 -284.43164,49.29297 -24.946092,4.61836 -43.021483,26.29652 -43.021482,51.65039 0,28.93547 23.533782,52.49805 52.433592,52.49805 l 287.11524,0 c 42.3613,0 77.19335,-34.4946 77.19335,-77.28516 0,-42.41354 -34.45551,-77.28711 -77.19335,-77.28711 z m 0.0957,13.19531 c 34.8304,0 64.01172,28.65293 64.01172,64.0918 0,16.96542 -6.58923,32.98649 -18.63867,45.05078 -12.04943,12.0643 -28.05353,18.75781 -44.99805,18.75782 l -287.11524,0 c -21.65132,0 -39.253902,-17.62666 -39.253902,-39.30469 0,-18.85047 13.461022,-34.87248 32.005862,-38.64258 93.16149,-21.25244 192.45034,-25.49176 284.00976,-49.05859 0.0942,-0.23558 4.61276,-0.89454 9.97852,-0.89454 z m 0.1875,8.95313 c -30.67455,-3.6e-4 -55.5413,24.89699 -55.54102,55.60937 -2.8e-4,30.71239 24.86647,55.60974 55.54102,55.60938 30.67455,3.6e-4 55.54129,-24.897 55.54101,-55.60938 2.8e-4,-30.71238 -24.86647,-55.60973 -55.54101,-55.60937 z m -287.11524,49.01172 c -17.1566,2.8e-4 -31.06458,13.92575 -31.06445,31.10351 -1.4e-4,17.17776 13.90785,31.10324 31.06445,31.10352 17.15661,-2.7e-4 31.0646,-13.92575 31.06446,-31.10352 1.3e-4,-17.17776 -13.90786,-31.10324 -31.06446,-31.10351 z" id="circle2531" fill="#39ac39"/>
</svg>
