<?xml version="1.0" encoding="UTF-8" standalone="no"?>
<svg xmlns="http://www.w3.org/2000/svg" width="580" height="580" version="1.0">
 <metadata id="metadata7"/>
 <path id="path4207" d="m 460.30612,338.51688 -24.8753,26.68101 c 19.75351,18.41952 24.33611,31.55175 23.80887,39.13423 -0.52725,7.58248 -5.95025,15.6146 -20.58062,24.31194 -29.26075,17.39472 -88.97462,28.87785 -148.20319,29.17033 -59.22858,0.29248 -119.07415,-10.60374 -148.59949,-27.87445 -14.76266,-8.63537 -20.40973,-16.75669 -21.07043,-24.6682 -0.66067,-7.91151 3.81703,-21.3708 23.30126,-40.34772 l -25.44971,-26.13328 c -23.642494,23.02691 -36.151161,46.17032 -34.201592,69.51582 1.949568,23.34548 18.509202,41.13552 39.003882,53.12379 40.98937,23.97655 103.86124,33.17474 167.19641,32.86199 63.33518,-0.31276 126.02909,-10.13403 166.66208,-34.28923 20.31648,-12.07759 36.71202,-29.88095 38.3293,-53.13938 1.61727,-23.25842 -11.32726,-45.97303 -35.32147,-68.34685 z" shape-rendering="auto" mix-blend-mode="normal" color-interpolation-filters="linearRGB" isolation="auto" white-space="normal" opacity="0.8" fill="none" solid-opacity="1" image-rendering="auto" solid-color="#000000" stroke="#ffffff" color="#000000" stroke-width="64" color-rendering="auto" color-interpolation="sRGB"/>
 <path d="m 295.79276,74.303192 c -33.16606,39.410138 -49.69582,71.418688 -47.17917,109.355658 1.98669,25.30041 11.12476,46.09203 19.43004,65.47679 35.19867,74.0301 6.66776,123.84831 8.60327,170.70658 60.94605,-92.04323 51.32866,-128.42527 30.14498,-179.1972 -8.3194,-19.41769 -12.75973,-29.6913 -22.36407,-56.77776 -4.5083,-26.66903 -3.04352,-50.12436 11.36495,-109.564068 z" id="path4209" shape-rendering="auto" mix-blend-mode="normal" color-interpolation-filters="linearRGB" isolation="auto" white-space="normal" opacity="0.8" fill="none" solid-opacity="1" image-rendering="auto" solid-color="#000000" stroke="#ffffff" color="#000000" stroke-width="64" color-rendering="auto" color-interpolation="sRGB"/>
 <path id="path4211" d="m 209.073,103.34301 c -28.48333,33.84579 -42.67924,61.33504 -40.51791,93.91566 1.70619,21.72823 9.55404,39.58426 16.68669,56.23208 30.22896,63.57773 5.72634,106.36207 7.38858,146.60439 52.34104,-79.04758 44.08153,-110.29281 25.88879,-153.89622 -7.14477,-16.6761 -10.95817,-25.49917 -19.20648,-48.76127 -3.87177,-22.90361 -2.61379,-43.04727 9.76033,-94.09464 z" shape-rendering="auto" mix-blend-mode="normal" color-interpolation-filters="linearRGB" isolation="auto" white-space="normal" opacity="0.8" fill="none" solid-opacity="1" image-rendering="auto" solid-color="#000000" stroke="#ffffff" color="#000000" stroke-width="64" color-rendering="auto" color-interpolation="sRGB"/>
 <path id="path4213" d="m 383.62934,103.34301 c -28.48334,33.84579 -42.67924,61.33504 -40.51791,93.91566 1.70619,21.72823 9.55404,39.58426 16.68669,56.23208 30.22895,63.57773 5.72633,106.36207 7.38858,146.60439 52.34103,-79.04758 44.08151,-110.29281 25.88877,-153.89622 -7.14476,-16.6761 -10.95816,-25.49917 -19.20647,-48.76127 -3.87176,-22.90361 -2.61379,-43.04727 9.76034,-94.09464 z" shape-rendering="auto" mix-blend-mode="normal" color-interpolation-filters="linearRGB" isolation="auto" white-space="normal" opacity="0.8" fill="none" solid-opacity="1" image-rendering="auto" solid-color="#000000" stroke="#ffffff" color="#000000" stroke-width="64" color-rendering="auto" color-interpolation="sRGB"/>
 <path d="m 460.30614,338.5169 -24.8753,26.68101 c 19.7535,18.41952 24.33611,31.55176 23.80887,39.13424 -0.52725,7.58248 -5.95025,15.6146 -20.58062,24.31194 -29.26075,17.39471 -88.97463,28.87785 -148.2032,29.17032 -59.22859,0.29249 -119.07415,-10.60373 -148.59948,-27.87445 -14.76267,-8.63538 -20.40975,-16.75669 -21.07043,-24.66819 -0.66069,-7.91152 3.81701,-21.37082 23.30125,-40.34773 l -25.4497,-26.13329 c -23.642513,23.02692 -36.15117,46.17034 -34.201611,69.51584 1.949568,23.34548 18.509201,41.1355 39.003891,53.12379 40.98936,23.97655 103.86124,33.17474 167.19642,32.86198 63.33518,-0.31277 126.0291,-10.13402 166.66207,-34.28922 20.31649,-12.07759 36.71204,-29.88097 38.3293,-53.13938 1.61728,-23.25842 -11.32726,-45.97303 -35.32146,-68.34686 z" id="path4201" shape-rendering="auto" mix-blend-mode="normal" color-interpolation-filters="linearRGB" isolation="auto" white-space="normal" fill="#666666" solid-opacity="1" image-rendering="auto" solid-color="#000000" color="#000000" fill-rule="evenodd" color-rendering="auto" color-interpolation="sRGB"/>
 <path id="path4187" d="m 295.79278,74.303197 c -33.16607,39.410133 -49.69583,71.418693 -47.17918,109.355663 1.98669,25.30042 11.12476,46.09203 19.43004,65.4768 35.19867,74.03009 6.66776,123.84831 8.60326,170.70658 60.94607,-92.04323 51.32866,-128.42527 30.14499,-179.1972 -8.31939,-19.4177 -12.75973,-29.69131 -22.36407,-56.77777 -4.50829,-26.66903 -3.04352,-50.12437 11.36496,-109.564073 z" shape-rendering="auto" mix-blend-mode="normal" color-interpolation-filters="linearRGB" isolation="auto" white-space="normal" fill="#666666" solid-opacity="1" image-rendering="auto" solid-color="#000000" color="#000000" fill-rule="evenodd" color-rendering="auto" color-interpolation="sRGB"/>
 <path d="m 209.07301,103.34301 c -28.48333,33.8458 -42.67924,61.33505 -40.51791,93.91567 1.70619,21.72823 9.55405,39.58426 16.68668,56.23209 30.22897,63.57773 5.72634,106.36207 7.38858,146.6044 52.34104,-79.04759 44.08154,-110.29283 25.8888,-153.89623 -7.14477,-16.6761 -10.95817,-25.49917 -19.20648,-48.76128 -3.87176,-22.9036 -2.6138,-43.04727 9.76033,-94.09465 z" id="path4162" shape-rendering="auto" mix-blend-mode="normal" color-interpolation-filters="linearRGB" isolation="auto" white-space="normal" fill="#666666" solid-opacity="1" image-rendering="auto" solid-color="#000000" color="#000000" fill-rule="evenodd" color-rendering="auto" color-interpolation="sRGB"/>
 <path d="m 383.62936,103.34301 c -28.48333,33.8458 -42.67924,61.33505 -40.51792,93.91567 1.70619,21.72823 9.55404,39.58426 16.68669,56.23209 30.22897,63.57773 5.72633,106.36207 7.38857,146.6044 52.34105,-79.04759 44.08154,-110.29283 25.8888,-153.89623 -7.14477,-16.6761 -10.95817,-25.49917 -19.20647,-48.76128 -3.87177,-22.9036 -2.61381,-43.04727 9.76033,-94.09465 z" id="path4162-5" shape-rendering="auto" mix-blend-mode="normal" color-interpolation-filters="linearRGB" isolation="auto" white-space="normal" fill="#666666" solid-opacity="1" image-rendering="auto" solid-color="#000000" color="#000000" fill-rule="evenodd" color-rendering="auto" color-interpolation="sRGB"/>
</svg>
