<?xml version="1.0" encoding="UTF-8" standalone="no"?>
<svg xmlns="http://www.w3.org/2000/svg" version="1.0" width="580" height="580">
 <metadata id="metadata26"/>
 <path id="path5643" d="m 160.88939,72.150975 0,39.699295 256.97622,63.51886 0,-39.69929 z" mix-blend-mode="normal" solid-color="#256f25" opacity="0.8" color-interpolation-filters="linearRGB" filter-gaussianBlur-deviation="0" color="#256f25" image-rendering="auto" color-rendering="auto" stroke-width="64" isolation="auto" color-interpolation="sRGB" solid-opacity="1" fill="none" filter-blend-mode="normal" stroke="#ffffff" shape-rendering="auto"/>
 <path id="path5645" d="m 193.01141,151.54955 0,142.91745 192.73217,0 0,-95.2783 z" mix-blend-mode="normal" solid-color="#256f25" opacity="0.8" color-interpolation-filters="linearRGB" filter-gaussianBlur-deviation="0" color="#256f25" image-rendering="auto" color-rendering="auto" stroke-width="64" isolation="auto" color-interpolation="sRGB" solid-opacity="1" fill="none" filter-blend-mode="normal" stroke="#ffffff" shape-rendering="auto"/>
 <path id="path5647" d="m 160.88939,326.22643 0,31.75943 32.12202,0 -32.12202,158.79716 48.18304,0 32.12203,-158.79716 96.36608,0 33.12585,158.79716 48.18304,0 -33.12585,-158.79716 32.12203,0 0,-31.75943 z" mix-blend-mode="normal" solid-color="#256f25" opacity="0.8" color-interpolation-filters="linearRGB" filter-gaussianBlur-deviation="0" color="#256f25" image-rendering="auto" color-rendering="auto" stroke-width="64" isolation="auto" color-interpolation="sRGB" solid-opacity="1" fill="none" filter-blend-mode="normal" stroke="#ffffff" shape-rendering="auto"/>
 <path d="m 160.88939,72.150975 0,39.699295 256.97622,63.51886 0,-39.69929 z" id="path5083" mix-blend-mode="normal" solid-color="#256f25" color-interpolation-filters="linearRGB" color="#256f25" image-rendering="auto" color-rendering="auto" isolation="auto" color-interpolation="sRGB" solid-opacity="1" fill="#256f25" shape-rendering="auto"/>
 <path d="m 193.01141,151.54955 0,142.91745 192.73217,0 0,-95.2783 z" id="path5081" mix-blend-mode="normal" solid-color="#256f25" color-interpolation-filters="linearRGB" color="#256f25" image-rendering="auto" color-rendering="auto" isolation="auto" color-interpolation="sRGB" solid-opacity="1" fill="#256f25" shape-rendering="auto"/>
 <path d="m 160.88939,326.22643 0,31.75943 32.12202,0 -32.12202,158.79716 48.18304,0 32.12203,-158.79716 96.36608,0 33.12585,158.79716 48.18304,0 -33.12585,-158.79716 32.12203,0 0,-31.75943 z" id="hunting-stand" mix-blend-mode="normal" solid-color="#256f25" color-interpolation-filters="linearRGB" color="#256f25" image-rendering="auto" color-rendering="auto" isolation="auto" color-interpolation="sRGB" solid-opacity="1" fill="#256f25" shape-rendering="auto"/>
</svg>
