<?xml version="1.0" encoding="UTF-8" standalone="no"?>
<svg xmlns="http://www.w3.org/2000/svg" version="1.0" width="580" height="580">
 <metadata id="metadata2975"/>
 <path id="path851" d="m 217.48631,36.204928 c -60.07213,0 -108.77049,48.698377 -108.77049,108.770472 0,12.89039 2.68302,24.78263 6.79816,36.25683 h 203.94464 c 4.11599,-11.4742 6.79825,-23.36644 6.79825,-36.25683 0,-60.072095 -48.69843,-108.770472 -108.77056,-108.770472 z m 145.02723,0 c -14.64256,0 -28.03844,3.81785 -40.78886,9.064206 24.94367,26.04728 40.78886,60.794006 40.78886,99.706266 0,12.57314 -2.49792,24.61876 -5.66494,36.25683 h 107.63739 c 4.11591,-11.4742 6.79818,-23.36644 6.79818,-36.25683 0,-60.072095 -48.6984,-108.770472 -108.77063,-108.770472 z M 154.03685,217.48907 289.99988,543.80052 425.96303,217.48907 Z" opacity="0.8" fill="none" stroke="#ffffff" vector-effect="none" stroke-linejoin="round" stroke-width="68.1"/>
 <path d="m 217.48631,36.204928 c -60.07213,0 -108.77049,48.698377 -108.77049,108.770472 0,12.89039 2.68302,24.78263 6.79816,36.25683 h 203.94464 c 4.11599,-11.4742 6.79825,-23.36644 6.79825,-36.25683 0,-60.072095 -48.69843,-108.770472 -108.77056,-108.770472 z m 145.02723,0 c -14.64256,0 -28.03844,3.81785 -40.78886,9.064206 24.94367,26.04728 40.78886,60.794006 40.78886,99.706266 0,12.57314 -2.49792,24.61876 -5.66494,36.25683 h 107.63739 c 4.11591,-11.4742 6.79818,-23.36644 6.79818,-36.25683 0,-60.072095 -48.6984,-108.770472 -108.77063,-108.770472 z M 154.03685,217.48907 289.99988,543.80052 425.96303,217.48907 Z" id="ice-cream" fill="#734a08" vector-effect="none"/>
</svg>
