<?xml version="1.0" encoding="UTF-8" standalone="no"?>
<svg xmlns="http://www.w3.org/2000/svg" version="1.0" width="580" height="580">
 <metadata id="metadata2975"/>
 <path d="m 93.264503,105.95497 c 1.33652,84.30343 -1.130898,168.60686 1.33652,252.91029 3.90674,12.02866 18.505627,16.75788 29.814627,14.39327 115.14614,-0.41124 231.32038,0.82247 346.46653,-0.61685 12.64551,-3.28989 18.1972,-18.0944 15.62698,-29.81463 -0.41124,-84.30343 0.92528,-167.57877 -0.82248,-251.882198 C 483.21927,80.766755 472.93836,74.598211 463.68555,75.626302 345.45513,76.654393 227.22471,74.598211 108.99429,76.654393 96.657203,79.841473 91.311133,94.337551 93.264503,105.95497 Z" id="path833" opacity="0.8" fill="none" stroke="#ffffff" vector-effect="none" stroke-linejoin="round" color="#000000" stroke-width="64"/>
 <g transform="translate(-3)" id="g839" opacity="0.8" fill="none" stroke="#ffffff" vector-effect="none" stroke-linejoin="round" stroke-width="64">
  <path d="m 422,108 v 379 c 0,6 5,10 10,10 h 17 c 5,0 10,-4 10,-10 V 108 c 0,-5 -5,-10 -11,-10 h -16 c -5,0 -10,5 -10,10 z" id="path835" mix-blend-mode="normal" solid-color="#000000" white-space="normal" color-interpolation-filters="linearRGB" vector-effect="none" color="#000000" image-rendering="auto" color-rendering="auto" fill-rule="evenodd" isolation="auto" color-interpolation="sRGB" solid-opacity="1" shape-rendering="auto"/>
  <path d="m 127,110 1,376 c 0,5 4,10 10,10 h 16 c 5,0 10,-5 10,-10 V 110 c 0,-6 -5,-10 -10,-10 h -17 c -5,0 -10,4 -10,10 z" id="path837" mix-blend-mode="normal" solid-color="#000000" white-space="normal" color-interpolation-filters="linearRGB" vector-effect="none" color="#000000" image-rendering="auto" color-rendering="auto" fill-rule="evenodd" isolation="auto" color-interpolation="sRGB" solid-opacity="1" shape-rendering="auto"/>
 </g>
 <path id="path815" d="m 93.264503,105.95497 c 1.33652,84.30343 -1.130898,168.60686 1.33652,252.91029 3.90674,12.02866 18.505627,16.75788 29.814627,14.39327 115.14614,-0.41124 231.32038,0.82247 346.46653,-0.61685 12.64551,-3.28989 18.1972,-18.0944 15.62698,-29.81463 -0.41124,-84.30343 0.92528,-167.57877 -0.82248,-251.882198 C 483.21927,80.766755 472.93836,74.598211 463.68555,75.626302 345.45513,76.654393 227.22471,74.598211 108.99429,76.654393 96.657203,79.841473 91.311133,94.337551 93.264503,105.95497 Z" opacity="1" fill="#000000" stroke="#000000" color="#000000" stroke-width="16.45"/>
 <path d="m 99.64606,109.8118 c 1.29317,81.56989 -1.09423,163.13978 1.29317,244.70966 3.78007,11.63864 17.90559,16.21451 28.8479,13.92658 111.41253,-0.39791 223.81982,0.7958 335.23236,-0.59686 12.23547,-3.1832 17.60715,-17.50768 15.12027,-28.84789 -0.3979,-81.56988 0.89527,-162.14502 -0.79582,-243.714902 C 476.95654,85.440311 467.009,79.471782 458.05621,80.466537 343.6594,81.461293 229.26261,79.471782 114.8658,81.461293 102.92875,84.545031 97.75601,98.571084 99.64606,109.8118 Z" id="rect3018-6-8" opacity="0.9" fill="#ffffff" stroke="none" color="#000000"/>
 <path d="m 285.29768,101 c -19,25 -37,50 -55,76 -5,3 -5,13 3,12 13,-4 24,-10 37,-14 -1,9 -1,27 -1,49 5,6 36,6 41,-1 v -49 c 11,4 22,9 33,13 7,5 13,-4 8,-9 -18,-25 -35,-51 -54,-76 -1,-3 -4,-5 -6,-5 -2,0 -5,1 -6,4 z m 26,146 c -1,17 -1,34 -1,52 -16,-17 -32,-33 -49,-49 -9,-11 -25,-12 -24,-1 -2,34 0,71 0,105 0,8 27,10 32,1 1,-18 0,-36 1,-53 18,18 47,60 60,58 5,1 10,0 13,-4 0,-36 0,-73 -1,-110 0,-3 -8,-5 -15,-5 -8,0 -16,2 -16,6 z" id="path3005" fill="#000000"/>
 <g id="g823" transform="translate(-3)">
  <path id="path819" d="m 422,108 v 379 c 0,6 5,10 10,10 h 17 c 5,0 10,-4 10,-10 V 108 c 0,-5 -5,-10 -11,-10 h -16 c -5,0 -10,5 -10,10 z" isolation="auto" color-rendering="auto" white-space="normal" solid-opacity="1" mix-blend-mode="normal" color-interpolation-filters="linearRGB" shape-rendering="auto" fill-rule="evenodd" image-rendering="auto" color-interpolation="sRGB" color="#000000" solid-color="#000000"/>
  <path id="path2459-9" d="m 127,110 1,376 c 0,5 4,10 10,10 h 16 c 5,0 10,-5 10,-10 V 110 c 0,-6 -5,-10 -10,-10 h -17 c -5,0 -10,4 -10,10 z" isolation="auto" color-rendering="auto" white-space="normal" solid-opacity="1" mix-blend-mode="normal" color-interpolation-filters="linearRGB" shape-rendering="auto" fill-rule="evenodd" image-rendering="auto" color-interpolation="sRGB" color="#000000" solid-color="#000000"/>
 </g>
</svg>
