<?xml version="1.0" encoding="UTF-8" standalone="no"?>
<svg xmlns="http://www.w3.org/2000/svg" version="1.0" width="580" height="580">
 <metadata id="metadata10"/>
 <path d="M290 33C148 33 33 148 33 290 33 432 148 547 290 547 432 547 547 432 547 290 547 148 432 33 290 33" id="circle4147" shape-rendering="auto" mix-blend-mode="normal" color-interpolation-filters="linearRGB" isolation="auto" white-space="normal" opacity="0.8" fill="none" solid-opacity="1" image-rendering="auto" solid-color="#000000" stroke="#ffffff" color="#000000" stroke-width="64" color-rendering="auto" color-interpolation="sRGB"/>
 <circle id="circle4148" cx="290" cy="290" r="245" fill="#ffffff"/>
 <circle r="245" cy="290" cx="290" id="path3267-3" opacity="0.1"/>
 <path d="M290 33C148 33 33 148 33 290 33 432 148 547 290 547 432 547 547 432 547 290 547 148 432 33 290 33m0 23C419 56 524 161 524 290 524 419 419 524 290 524 161 524 56 419 56 290 56 161 161 56 290 56" id="circle4145" shape-rendering="auto" mix-blend-mode="normal" color-interpolation-filters="linearRGB" isolation="auto" white-space="normal" solid-opacity="1" image-rendering="auto" solid-color="#000000" color="#000000" color-rendering="auto" color-interpolation="sRGB"/>
 <path d="m 257.59999,143.14705 c 0,-9.9 3.20001,-18 9.60001,-24.40001 6.4,-6.29999 14.7,-9.49999 24.8,-9.49999 10.8,0 19.9,3.3 26.99999,9.99999 7.20001,6.70001 10.80001,14.30001 10.80001,22.70001 0,6.29999 -1.4,12.5 -4.3,18.70001 -2.90001,6.29999 -7.40001,11.29999 -13.5,14.99999 -6.20001,3.8 -12.4,5.7 -18.90001,5.7 -8.79999,0 -16.9,-3.8 -24.39999,-11.3 -7.4,-7.5 -11.20001,-16.5 -11.20001,-27 m -38.59999,329 -0.6,-17.9 31,-4.1 c 4.6,-1.29999 7.79999,-3.19999 9.5,-5.59999 3.08178,-52.20089 2.95246,-104.20806 1.60001,-156.30001 -2.00001,-2.8 -5.7,-5.1 -11,-7.2 -5.3,-2 -14.60001,-3.49999 -27.8,-4.4 l 0,-15.39999 c 18.9,-1.10001 35.59999,-5.10001 49.89999,-11.80001 9.70001,-4.4 20.3,-12.19999 31.70001,-23.4 l 18.5,0 c -0.10762,82.52453 -0.2726,156.20551 0.3,222.90001 5.7,1.99999 14.99999,3.99999 27.8,6.09999 5,0.7 8.9,1.6 11.89999,2.8 l -0.29999,15.20001 c -8.00649,0.54279 -17.0466,0.16263 -23.7,-0.3 -37.99634,-0.37309 -66.55808,-3.23674 -101.00001,-0.4 -8.4,0.59999 -14.2,0.99999 -17.4,0.99999 z" id="flowRoot6828-2"/>
</svg>
