<?xml version="1.0" encoding="UTF-8" standalone="no"?>
<svg xmlns="http://www.w3.org/2000/svg" version="1.0" width="580" height="580">
 <metadata id="metadata2975"/>
 <rect rx="16" y="63" x="111" height="264" width="358" id="rect4152" stroke-width="64" stroke="#ffffff" fill="none" opacity="0.8" mix-blend-mode="normal" solid-color="#000000" color-interpolation-filters="linearRGB" filter-gaussianBlur-deviation="0" color="#000000" image-rendering="auto" color-rendering="auto" isolation="auto" color-interpolation="sRGB" solid-opacity="1" stroke-linejoin="round" filter-blend-mode="normal" shape-rendering="auto"/>
 <path white-space="normal" isolation="auto" mix-blend-mode="normal" d="m116 334c-9.7 0-18.8 5.9-23 11.5-4.5 5.6-6.5 10.8-8.4 14.6l-46.7 93c-2.9 5.8-3.2 13-1.4 18.7 1.8 5.5 5.1 9.5 8.5 12.5 6.9 6.1 14.9 9.5 24.5 9.5l441 0c9.7 0 17.7-3.4 24.5-9.5 3.4-3.1 6.7-7 8.5-12.5 1.8-5.5 1.6-12.8-1.4-18.7l-46.7-93c-1.9-3.8-3.9-9-8.4-14.6-4.5-5.6-13.6-11.5-23-11.5z" id="path4154" shape-rendering="auto" image-rendering="auto" color-rendering="auto" fill="none" solid-opacity="1" solid-color="#000000" color-interpolation-filters="linearRGB" color-interpolation="sRGB" color="#000000" opacity="0.8" filter-gaussianBlur-deviation="0" stroke-width="64" stroke-linejoin="round" filter-blend-mode="normal" stroke="#ffffff"/>
 <path id="path4316" d="m116 334c-9.7 0-18.8 5.9-23 11.5-4.5 5.6-6.5 10.8-8.4 14.6l-46.7 93c-2.9 5.8-3.2 13-1.4 18.7 1.8 5.5 5.1 9.5 8.5 12.5 6.9 6.1 14.9 9.5 24.5 9.5l441 0c9.7 0 17.7-3.4 24.5-9.5 3.4-3.1 6.7-7 8.5-12.5 1.8-5.5 1.6-12.8-1.4-18.7l-46.7-93c-1.9-3.8-3.9-9-8.4-14.6-4.5-5.6-13.6-11.5-23-11.5z" shape-rendering="auto" mix-blend-mode="normal" color-interpolation-filters="linearRGB" isolation="auto" white-space="normal" fill="#ffffff" solid-opacity="1" image-rendering="auto" solid-color="#000000" color="#000000" color-rendering="auto" color-interpolation="sRGB"/>
 <path id="path4333" d="m116 334c-9.7 0-18.8 5.9-23 11.5-4.5 5.6-6.5 10.8-8.4 14.6l-46.7 93c-2.9 5.8-3.2 13-1.4 18.7 1.8 5.5 5.1 9.5 8.5 12.5 6.9 6.1 14.9 9.5 24.5 9.5l441 0c9.7 0 17.7-3.4 24.5-9.5 3.4-3.1 6.7-7 8.5-12.5 1.8-5.5 1.6-12.8-1.4-18.7l-46.7-93c-1.9-3.8-3.9-9-8.4-14.6-4.5-5.6-13.6-11.5-23-11.5z" mix-blend-mode="normal" isolation="auto" white-space="normal" shape-rendering="auto" image-rendering="auto" color-rendering="auto" solid-opacity="1" solid-color="#000000" color-interpolation-filters="linearRGB" color-interpolation="sRGB" color="#000000" opacity="0.1"/>
 <path d="M116 334C106 334 97 340 93 346 88 351 86 356 84 360L37.5 453C34.5 459 34 466 36 471 37.9 477 41 481 44.6 484 52 490 60 494 69 494L511 494C520 494 528 490 535 484 539 481 542 477 544 471 545 466 545 459 542 453L496 360C494 356 492 351 487 346 483 340 474 334 464 334L116 334M118 366L462 366C463 367 464 370 467 375L468 376 112 376 113 375C115 370 117 367 118 366M108 384L472 384 478 397 102 397 108 384M98 406L482 406 490 421 90 421 98 406M86 429L494 429 510 461 70 461 86 429" id="rect4428" mix-blend-mode="normal" isolation="auto" white-space="normal" shape-rendering="auto" image-rendering="auto" color-rendering="auto" solid-opacity="1" solid-color="#000000" color-interpolation-filters="linearRGB" color-interpolation="sRGB" color="#000000" opacity="0.9"/>
 <rect id="rect4426-3-1" width="358" height="264" x="111" y="63" rx="16" stroke-width="32" stroke="#000000" fill="#ffffff"/>
 <rect id="rect4426-3" width="358" height="264" x="111" y="63" rx="16" stroke-width="32" stroke="#000000" opacity="0.1"/>
 <path d="m 279.11878,115.972 c 0,-5.21925 1.68704,-9.48955 5.06111,-12.86362 3.37406,-3.32135 7.7498,-5.00838 13.0745,-5.00838 5.69374,0 10.49124,1.73975 14.23434,5.27198 3.79583,3.53222 5.69374,7.53893 5.69374,11.96739 0,3.32134 -0.73808,6.58997 -2.26695,9.8586 -1.52887,3.32134 -3.90126,5.95733 -7.11716,7.90796 -3.26864,2.00336 -6.53726,3.00503 -9.96404,3.00503 -4.63934,0 -8.90965,-2.00335 -12.86363,-5.95733 -3.90126,-3.95398 -5.90462,-8.69877 -5.90462,-14.23435 m -20.34983,173.44808 -0.31632,-9.43684 16.34312,-2.16151 c 2.42512,-0.68535 4.11214,-1.68703 5.0084,-2.9523 1.6247,-27.5202 1.55651,-54.93826 0.84352,-82.40102 -1.0544,-1.47615 -3.00504,-2.68871 -5.79918,-3.79583 -2.79415,-1.05439 -7.6971,-1.84518 -14.6561,-2.31967 l 0,-8.11884 c 9.96404,-0.57992 18.76824,-2.68871 26.30717,-6.22094 5.11382,-2.31967 10.7021,-6.43181 16.71217,-12.33642 l 9.75316,0 c -0.0567,43.50675 -0.14372,82.35119 0.15815,117.51239 3.00504,1.05439 7.90796,2.10879 14.65611,3.2159 2.63599,0.36904 4.69205,0.84352 6.27365,1.47615 l -0.15815,8.01342 c -4.22101,0.28615 -8.98694,0.0857 -12.49459,-0.15816 -20.0316,-0.1967 -35.08929,-1.7064 -53.24699,-0.21088 C 263.6719,289.78912 260.61414,290 258.92712,290 Z" id="flowRoot6828-2"/>
</svg>
