<?xml version="1.0" encoding="UTF-8" standalone="no"?>
<svg xmlns="http://www.w3.org/2000/svg" version="1.0" width="580" height="580">
 <metadata id="metadata2975"/>
 <path d="m 256.57375,110.9885 0,95.60519 c -39.09808,0.98643 -74.30912,6.47224 -101.05223,15.11747 -14.80881,4.78721 -27.04496,10.4893 -36.12236,17.42709 -9.0774,6.9378 -15.49633,15.77691 -15.49633,26.12822 l 15.90323,0 c 0,-3.7031 2.3919,-8.25087 9.2484,-13.49125 6.8565,-5.24036 17.67665,-10.50639 31.35916,-14.92951 27.36502,-8.84627 66.10061,-14.52259 108.8827,-14.52259 l 0,-7.95247 11.13226,0 0,-103.38215 z m 12.72257,171.77497 c -44.17116,0 -84.15718,5.71831 -113.7748,15.29297 -14.80881,4.78734 -27.04497,10.48923 -36.12236,17.4271 -9.07739,6.93787 -15.49633,15.77692 -15.49633,26.12823 l 15.90323,0 c 0,-3.7031 2.39189,-8.2508 9.2484,-13.49125 6.85652,-5.24045 17.67666,-10.5063 31.35916,-14.92953 27.36501,-8.84645 66.10063,-14.52258 108.8827,-14.52258 z m 0,77.13898 c -44.17115,0 -84.15719,5.71853 -113.7748,15.29298 -14.80881,4.78723 -27.04496,10.48931 -36.12236,17.4271 -9.0774,6.93779 -15.49633,15.77691 -15.49633,26.12822 l 15.90323,0 c 0,-3.7031 2.3919,-8.25086 9.2484,-13.49124 6.8565,-5.24038 17.67665,-10.5064 31.35916,-14.92953 27.36502,-8.84626 66.10061,-14.52258 108.8827,-14.52258 z" id="path4205" shape-rendering="auto" mix-blend-mode="normal" filter-blend-mode="normal" color-interpolation-filters="linearRGB" isolation="auto" white-space="normal" opacity="0.8" fill="none" solid-opacity="1" image-rendering="auto" solid-color="#000000" stroke="#ffffff" color="#000000" stroke-linejoin="round" stroke-width="64" color-rendering="auto" filter-gaussianBlur-deviation="0" color-interpolation="sRGB"/>
 <path d="m 256.57375,110.9885 0,95.60519 c -39.09808,0.98643 -74.30912,6.47224 -101.05223,15.11747 -14.80881,4.78721 -27.04496,10.4893 -36.12236,17.42709 -9.0774,6.9378 -15.49633,15.77691 -15.49633,26.12822 l 15.90323,0 c 0,-3.7031 2.3919,-8.25087 9.2484,-13.49125 6.8565,-5.24036 17.67665,-10.50639 31.35916,-14.92951 27.36502,-8.84627 66.10061,-14.52259 108.8827,-14.52259 l 0,-7.95247 11.13226,0 0,-103.38215 -23.85483,0 z m 12.72257,171.77497 c -44.17116,0 -84.15718,5.71831 -113.7748,15.29297 -14.80881,4.78734 -27.04497,10.48923 -36.12236,17.4271 -9.07739,6.93787 -15.49633,15.77692 -15.49633,26.12823 l 15.90323,0 c 0,-3.7031 2.39189,-8.2508 9.2484,-13.49125 6.85652,-5.24045 17.67666,-10.5063 31.35916,-14.92953 27.36501,-8.84645 66.10063,-14.52258 108.8827,-14.52258 l 0,-15.90494 z m 0,77.13898 c -44.17115,0 -84.15719,5.71853 -113.7748,15.29298 -14.80881,4.78723 -27.04496,10.48931 -36.12236,17.4271 -9.0774,6.93779 -15.49633,15.77691 -15.49633,26.12822 l 15.90323,0 c 0,-3.7031 2.3919,-8.25086 9.2484,-13.49124 6.8565,-5.24038 17.67665,-10.5064 31.35916,-14.92953 27.36502,-8.84626 66.10061,-14.52258 108.8827,-14.52258 l 0,-15.90495 z" id="path4207" shape-rendering="auto" mix-blend-mode="normal" filter-blend-mode="normal" color-interpolation-filters="linearRGB" isolation="auto" white-space="normal" opacity="0.8" fill="none" solid-opacity="1" image-rendering="auto" solid-color="#000000" stroke="#ffffff" color="#000000" stroke-linejoin="round" stroke-width="64" color-rendering="auto" filter-gaussianBlur-deviation="0" color-interpolation="sRGB"/>
 <path id="path4209" d="m 256.57375,110.9885 0,95.60519 c -39.09808,0.98643 -74.30912,6.47224 -101.05223,15.11747 -14.80881,4.78721 -27.04496,10.4893 -36.12236,17.42709 -9.0774,6.9378 -15.49633,15.77691 -15.49633,26.12822 l 15.90323,0 c 0,-3.7031 2.3919,-8.25087 9.2484,-13.49125 6.8565,-5.24036 17.67665,-10.50639 31.35916,-14.92951 27.36502,-8.84627 66.10061,-14.52259 108.8827,-14.52259 l 0,-7.95247 11.13226,0 0,-103.38215 z" shape-rendering="auto" mix-blend-mode="normal" filter-blend-mode="normal" color-interpolation-filters="linearRGB" isolation="auto" white-space="normal" opacity="0.8" fill="none" solid-opacity="1" image-rendering="auto" solid-color="#000000" stroke="#ffffff" color="#000000" stroke-linejoin="round" stroke-width="64" color-rendering="auto" filter-gaussianBlur-deviation="0" color-interpolation="sRGB"/>
 <path id="path4211" d="m 269.29632,282.76347 c -44.17116,0 -84.15718,5.71831 -113.7748,15.29297 -14.80881,4.78734 -27.04497,10.48923 -36.12236,17.4271 -9.07739,6.93787 -15.49633,15.77692 -15.49633,26.12823 l 15.90323,0 c 0,-3.7031 2.39189,-8.2508 9.2484,-13.49125 6.85652,-5.24045 17.67666,-10.5063 31.35916,-14.92953 27.36501,-8.84645 66.10063,-14.52258 108.8827,-14.52258 z" shape-rendering="auto" mix-blend-mode="normal" filter-blend-mode="normal" color-interpolation-filters="linearRGB" isolation="auto" white-space="normal" opacity="0.8" fill="none" solid-opacity="1" image-rendering="auto" solid-color="#000000" stroke="#ffffff" color="#000000" stroke-linejoin="round" stroke-width="64" color-rendering="auto" filter-gaussianBlur-deviation="0" color-interpolation="sRGB"/>
 <path id="path4213" d="m 269.29632,359.90245 c -44.17115,0 -84.15719,5.71853 -113.7748,15.29298 -14.80881,4.78723 -27.04496,10.48931 -36.12236,17.4271 -9.0774,6.93779 -15.49633,15.77691 -15.49633,26.12822 l 15.90323,0 c 0,-3.7031 2.3919,-8.25086 9.2484,-13.49124 6.8565,-5.24038 17.67665,-10.5064 31.35916,-14.92953 27.36502,-8.84626 66.10061,-14.52258 108.8827,-14.52258 z" shape-rendering="auto" mix-blend-mode="normal" filter-blend-mode="normal" color-interpolation-filters="linearRGB" isolation="auto" white-space="normal" opacity="0.8" fill="none" solid-opacity="1" image-rendering="auto" solid-color="#000000" stroke="#ffffff" color="#000000" stroke-linejoin="round" stroke-width="64" color-rendering="auto" filter-gaussianBlur-deviation="0" color-interpolation="sRGB"/>
 <path id="path4215" d="M 269.29688 98.263672 C 224.77846 98.263672 184.47959 103.99351 154.29883 113.75 C 139.20844 118.62826 126.61701 124.43863 116.98438 131.80078 C 107.35174 139.16293 99.927734 149.07648 99.927734 161.08984 L 99.927734 419.54297 C 100.67748 430.80431 109.81664 442.44273 116.98438 448.03711 C 126.61701 455.39926 139.20844 461.20768 154.29883 466.08594 C 183.81822 475.62863 223.02756 481.30405 266.38672 481.54883 C 267.96633 481.83249 269.58779 481.79496 271.15234 481.4375 C 278.90283 480.32121 283.49298 472.16532 280.42773 464.95898 L 280.42773 216.66211 C 283.80732 208.73001 277.91737 199.94216 269.29688 200.05664 C 226.86203 200.05664 188.43859 194.39274 161.63672 185.72852 C 148.23579 181.39642 137.77003 176.23788 131.46875 171.42188 C 125.16747 166.60584 123.78125 163.13088 123.78125 161.08984 C 123.78125 159.04879 125.16747 155.57384 131.46875 150.75781 C 137.77003 145.9418 148.23579 140.78328 161.63672 136.45117 C 188.43858 127.78697 226.86203 122.12109 269.29688 122.12109 C 275.95018 122.21519 281.39453 116.84804 281.39453 110.19336 C 281.39453 103.53868 275.95019 98.169572 269.29688 98.263672 z M 123.78125 195.01953 C 132.29155 200.25105 142.53165 204.62573 154.29883 208.42969 C 181.57377 217.24684 217.12592 222.75775 256.57422 223.74023 L 256.57422 288.92188 C 219.1956 287.86653 185.65811 282.50726 161.20898 274.60352 C 147.52647 270.18035 136.70614 264.91419 129.84961 259.67383 C 127.19607 257.64577 125.21754 255.72199 123.78125 253.91016 L 123.78125 195.01953 z M 123.78125 274.88086 C 132.40138 280.67432 143.37713 285.55536 156.31641 289.73828 C 182.87856 298.32509 217.79333 303.7936 256.57422 304.83398 L 256.57422 370.87305 C 218.55759 369.92721 184.41397 364.53102 159.61914 356.51562 C 145.93663 352.09249 135.11627 346.82632 128.25977 341.58594 C 126.47466 340.22159 124.99768 338.90465 123.78125 337.63672 L 123.78125 274.88086 z M 123.78125 357.82812 C 132.147 363.16962 142.56794 367.71988 154.72656 371.65039 C 181.65086 380.35417 217.15825 385.85197 256.57422 386.7832 L 256.57422 457.5293 C 219.22676 456.52456 185.72986 451.17528 161.63672 443.38672 C 148.23579 439.05462 137.77003 433.89611 131.46875 429.08008 C 125.16747 424.26406 123.78125 420.78909 123.78125 418.74805 L 123.78125 357.82812 z " shape-rendering="auto" mix-blend-mode="normal" filter-blend-mode="normal" color-interpolation-filters="linearRGB" isolation="auto" white-space="normal" opacity="0.8" fill="none" solid-opacity="1" image-rendering="auto" solid-color="#000000" stroke="#ffffff" color="#000000" stroke-linejoin="round" stroke-width="64" color-rendering="auto" filter-gaussianBlur-deviation="0" color-interpolation="sRGB"/>
 <path id="path4217" d="M 468.33008 148.38281 C 467.02878 148.33381 465.66045 148.53034 464.24805 149.00195 L 312.37109 200.69336 C 307.53674 202.33893 304.28526 206.8791 304.28516 211.98633 C 304.23616 302.67403 304.27716 384.23705 304.28516 468.05273 C 304.28552 476.22666 312.31927 481.97878 320.05664 479.3457 L 471.93359 427.65625 C 476.76794 426.01069 480.01942 421.46856 480.01953 416.36133 C 480.1421 330.79579 480.01953 245.76795 480.01953 160.29492 C 478.38498 153.4056 473.96905 148.59526 468.33008 148.38281 z M 447.21289 180.00195 L 412.1543 251.82617 L 328.14062 280.41992 L 328.14062 220.52734 L 447.21289 180.00195 z M 456.16406 197.92188 L 456.16406 236.84766 L 433.37695 244.60156 L 456.16406 197.92188 z M 456.16406 262.04883 L 456.16406 319.55469 L 384.95898 343.78711 L 418.62305 274.82422 L 456.16406 262.04883 z M 397.40039 282.04883 L 363.73633 351.01172 L 328.14062 363.12695 L 328.14062 305.62305 L 397.40039 282.04883 z M 456.16406 344.75586 L 456.16406 407.82031 L 333.28906 449.64062 L 370.20703 374.00977 L 456.16406 344.75586 z M 348.98438 381.23242 L 328.14062 423.9375 L 328.14062 388.32812 L 348.98438 381.23242 z " shape-rendering="auto" mix-blend-mode="normal" filter-blend-mode="normal" color-interpolation-filters="linearRGB" isolation="auto" white-space="normal" opacity="0.8" fill="none" solid-opacity="1" image-rendering="auto" solid-color="#000000" stroke="#ffffff" color="#000000" stroke-linejoin="round" stroke-width="64" color-rendering="auto" filter-gaussianBlur-deviation="0" color-interpolation="sRGB"/>
 <path id="path4149" d="m 256.57375,110.9885 0,95.60519 c -39.09808,0.98643 -74.30912,6.47224 -101.05223,15.11747 -14.80881,4.78721 -27.04496,10.4893 -36.12236,17.42709 -9.0774,6.9378 -15.49633,15.77691 -15.49633,26.12822 l 15.90323,0 c 0,-3.7031 2.3919,-8.25087 9.2484,-13.49125 6.8565,-5.24036 17.67665,-10.50639 31.35916,-14.92951 27.36502,-8.84627 66.10061,-14.52259 108.8827,-14.52259 l 0,-7.95247 11.13226,0 0,-103.38215 z m 12.72257,171.77497 c -44.17116,0 -84.15718,5.71831 -113.7748,15.29297 -14.80881,4.78734 -27.04497,10.48923 -36.12236,17.4271 -9.07739,6.93787 -15.49633,15.77692 -15.49633,26.12823 l 15.90323,0 c 0,-3.7031 2.39189,-8.2508 9.2484,-13.49125 6.85652,-5.24045 17.67666,-10.5063 31.35916,-14.92953 27.36501,-8.84645 66.10063,-14.52258 108.8827,-14.52258 z m 0,77.13898 c -44.17115,0 -84.15719,5.71853 -113.7748,15.29298 -14.80881,4.78723 -27.04496,10.48931 -36.12236,17.4271 -9.0774,6.93779 -15.49633,15.77691 -15.49633,26.12822 l 15.90323,0 c 0,-3.7031 2.3919,-8.25086 9.2484,-13.49124 6.8565,-5.24038 17.67665,-10.5064 31.35916,-14.92953 27.36502,-8.84626 66.10061,-14.52258 108.8827,-14.52258 z" shape-rendering="auto" mix-blend-mode="normal" filter-blend-mode="normal" color-interpolation-filters="linearRGB" isolation="auto" white-space="normal" opacity="0.8" fill="none" solid-opacity="1" image-rendering="auto" solid-color="#000000" stroke="#ffffff" color="#000000" stroke-linejoin="round" stroke-width="64" color-rendering="auto" filter-gaussianBlur-deviation="0" color-interpolation="sRGB"/>
 <path id="path4156" d="m 256.57375,110.9885 0,95.60519 c -39.09808,0.98643 -74.30912,6.47224 -101.05223,15.11747 -14.80881,4.78721 -27.04496,10.4893 -36.12236,17.42709 -9.0774,6.9378 -15.49633,15.77691 -15.49633,26.12822 l 15.90323,0 c 0,-3.7031 2.3919,-8.25087 9.2484,-13.49125 6.8565,-5.24036 17.67665,-10.50639 31.35916,-14.92951 27.36502,-8.84627 66.10061,-14.52259 108.8827,-14.52259 l 0,-7.95247 11.13226,0 0,-103.38215 -23.85483,0 z m 12.72257,171.77497 c -44.17116,0 -84.15718,5.71831 -113.7748,15.29297 -14.80881,4.78734 -27.04497,10.48923 -36.12236,17.4271 -9.07739,6.93787 -15.49633,15.77692 -15.49633,26.12823 l 15.90323,0 c 0,-3.7031 2.39189,-8.2508 9.2484,-13.49125 6.85652,-5.24045 17.67666,-10.5063 31.35916,-14.92953 27.36501,-8.84645 66.10063,-14.52258 108.8827,-14.52258 l 0,-15.90494 z m 0,77.13898 c -44.17115,0 -84.15719,5.71853 -113.7748,15.29298 -14.80881,4.78723 -27.04496,10.48931 -36.12236,17.4271 -9.0774,6.93779 -15.49633,15.77691 -15.49633,26.12822 l 15.90323,0 c 0,-3.7031 2.3919,-8.25086 9.2484,-13.49124 6.8565,-5.24038 17.67665,-10.5064 31.35916,-14.92953 27.36502,-8.84626 66.10061,-14.52258 108.8827,-14.52258 l 0,-15.90495 z" shape-rendering="auto" mix-blend-mode="normal" filter-blend-mode="normal" color-interpolation-filters="linearRGB" isolation="auto" white-space="normal" fill="none" solid-opacity="1" image-rendering="auto" solid-color="#000000" stroke="#ffffff" color="#000000" stroke-linejoin="round" stroke-width="64" color-rendering="auto" filter-gaussianBlur-deviation="0" color-interpolation="sRGB"/>
 <path d="m 256.57375,110.9885 0,95.60519 c -39.09808,0.98643 -74.30912,6.47224 -101.05223,15.11747 -14.80881,4.78721 -27.04496,10.4893 -36.12236,17.42709 -9.0774,6.9378 -15.49633,15.77691 -15.49633,26.12822 l 15.90323,0 c 0,-3.7031 2.3919,-8.25087 9.2484,-13.49125 6.8565,-5.24036 17.67665,-10.50639 31.35916,-14.92951 27.36502,-8.84627 66.10061,-14.52259 108.8827,-14.52259 l 0,-7.95247 11.13226,0 0,-103.38215 z" id="path4203" shape-rendering="auto" mix-blend-mode="normal" color-interpolation-filters="linearRGB" isolation="auto" white-space="normal" opacity="0.8" fill="#666666" solid-opacity="1" image-rendering="auto" solid-color="#000000" color="#000000" color-rendering="auto" color-interpolation="sRGB"/>
 <path d="m 269.29632,282.76347 c -44.17116,0 -84.15718,5.71831 -113.7748,15.29297 -14.80881,4.78734 -27.04497,10.48923 -36.12236,17.4271 -9.07739,6.93787 -15.49633,15.77692 -15.49633,26.12823 l 15.90323,0 c 0,-3.7031 2.39189,-8.2508 9.2484,-13.49125 6.85652,-5.24045 17.67666,-10.5063 31.35916,-14.92953 27.36501,-8.84645 66.10063,-14.52258 108.8827,-14.52258 z" id="path4201" shape-rendering="auto" mix-blend-mode="normal" color-interpolation-filters="linearRGB" isolation="auto" white-space="normal" opacity="0.8" fill="#666666" solid-opacity="1" image-rendering="auto" solid-color="#000000" color="#000000" color-rendering="auto" color-interpolation="sRGB"/>
 <path d="m 269.29632,359.90245 c -44.17115,0 -84.15719,5.71853 -113.7748,15.29298 -14.80881,4.78723 -27.04496,10.48931 -36.12236,17.4271 -9.0774,6.93779 -15.49633,15.77691 -15.49633,26.12822 l 15.90323,0 c 0,-3.7031 2.3919,-8.25086 9.2484,-13.49124 6.8565,-5.24038 17.67665,-10.5064 31.35916,-14.92953 27.36502,-8.84626 66.10061,-14.52258 108.8827,-14.52258 z" id="path5473" shape-rendering="auto" mix-blend-mode="normal" color-interpolation-filters="linearRGB" isolation="auto" white-space="normal" opacity="0.8" fill="#666666" solid-opacity="1" image-rendering="auto" solid-color="#000000" color="#000000" color-rendering="auto" color-interpolation="sRGB"/>
 <path d="M 269.29688 98.263672 C 224.77846 98.263672 184.47959 103.99351 154.29883 113.75 C 139.20844 118.62826 126.61701 124.43863 116.98438 131.80078 C 107.35174 139.16293 99.927734 149.07648 99.927734 161.08984 L 99.927734 419.54297 C 100.67748 430.80431 109.81664 442.44273 116.98438 448.03711 C 126.61701 455.39926 139.20844 461.20768 154.29883 466.08594 C 183.81822 475.62863 223.02756 481.30405 266.38672 481.54883 C 267.96633 481.83249 269.58779 481.79496 271.15234 481.4375 C 278.90283 480.32121 283.49298 472.16532 280.42773 464.95898 L 280.42773 216.66211 C 283.80732 208.73001 277.91737 199.94216 269.29688 200.05664 C 226.86203 200.05664 188.43859 194.39274 161.63672 185.72852 C 148.23579 181.39642 137.77003 176.23788 131.46875 171.42188 C 125.16747 166.60584 123.78125 163.13088 123.78125 161.08984 C 123.78125 159.04879 125.16747 155.57384 131.46875 150.75781 C 137.77003 145.9418 148.23579 140.78328 161.63672 136.45117 C 188.43858 127.78697 226.86203 122.12109 269.29688 122.12109 C 275.95018 122.21519 281.39453 116.84804 281.39453 110.19336 C 281.39453 103.53868 275.95019 98.169572 269.29688 98.263672 z M 123.78125 195.01953 C 132.29155 200.25105 142.53165 204.62573 154.29883 208.42969 C 181.57377 217.24684 217.12592 222.75775 256.57422 223.74023 L 256.57422 288.92188 C 219.1956 287.86653 185.65811 282.50726 161.20898 274.60352 C 147.52647 270.18035 136.70614 264.91419 129.84961 259.67383 C 127.19607 257.64577 125.21754 255.72199 123.78125 253.91016 L 123.78125 195.01953 z M 123.78125 274.88086 C 132.40138 280.67432 143.37713 285.55536 156.31641 289.73828 C 182.87856 298.32509 217.79333 303.7936 256.57422 304.83398 L 256.57422 370.87305 C 218.55759 369.92721 184.41397 364.53102 159.61914 356.51562 C 145.93663 352.09249 135.11627 346.82632 128.25977 341.58594 C 126.47466 340.22159 124.99768 338.90465 123.78125 337.63672 L 123.78125 274.88086 z M 123.78125 357.82812 C 132.147 363.16962 142.56794 367.71988 154.72656 371.65039 C 181.65086 380.35417 217.15825 385.85197 256.57422 386.7832 L 256.57422 457.5293 C 219.22676 456.52456 185.72986 451.17528 161.63672 443.38672 C 148.23579 439.05462 137.77003 433.89611 131.46875 429.08008 C 125.16747 424.26406 123.78125 420.78909 123.78125 418.74805 L 123.78125 357.82812 z " id="path4194" shape-rendering="auto" mix-blend-mode="normal" color-interpolation-filters="linearRGB" isolation="auto" white-space="normal" fill="#666666" solid-opacity="1" image-rendering="auto" solid-color="#000000" color="#000000" color-rendering="auto" color-interpolation="sRGB"/>
 <path d="M 468.33008 148.38281 C 467.02878 148.33381 465.66045 148.53034 464.24805 149.00195 L 312.37109 200.69336 C 307.53674 202.33893 304.28526 206.8791 304.28516 211.98633 C 304.23616 302.67403 304.27716 384.23705 304.28516 468.05273 C 304.28552 476.22666 312.31927 481.97878 320.05664 479.3457 L 471.93359 427.65625 C 476.76794 426.01069 480.01942 421.46856 480.01953 416.36133 C 480.1421 330.79579 480.01953 245.76795 480.01953 160.29492 C 478.38498 153.4056 473.96905 148.59526 468.33008 148.38281 z M 447.21289 180.00195 L 412.1543 251.82617 L 328.14062 280.41992 L 328.14062 220.52734 L 447.21289 180.00195 z M 456.16406 197.92188 L 456.16406 236.84766 L 433.37695 244.60156 L 456.16406 197.92188 z M 456.16406 262.04883 L 456.16406 319.55469 L 384.95898 343.78711 L 418.62305 274.82422 L 456.16406 262.04883 z M 397.40039 282.04883 L 363.73633 351.01172 L 328.14062 363.12695 L 328.14062 305.62305 L 397.40039 282.04883 z M 456.16406 344.75586 L 456.16406 407.82031 L 333.28906 449.64062 L 370.20703 374.00977 L 456.16406 344.75586 z M 348.98438 381.23242 L 328.14062 423.9375 L 328.14062 388.32812 L 348.98438 381.23242 z " id="path4192" shape-rendering="auto" mix-blend-mode="normal" color-interpolation-filters="linearRGB" isolation="auto" white-space="normal" fill="#666666" solid-opacity="1" image-rendering="auto" solid-color="#000000" color="#000000" color-rendering="auto" color-interpolation="sRGB"/>
</svg>
