<?xml version="1.0" encoding="UTF-8" standalone="no"?>
<svg xmlns="http://www.w3.org/2000/svg" width="580" height="580" version="1.1">
 <metadata id="metadata7"/>
 <path id="path4149" d="M 447.00977 75.712891 C 434.91605 75.937634 422.53125 84.759766 422 98.041016 L 422 146.04102 L 158 146.04102 L 158 98.041016 C 152.47898 62.371053 110.80772 76.359406 110 98.041016 L 110 482.04102 C 114 516.04102 157 507.04102 158 482.04102 L 158 434.04102 L 422 434.04102 L 422 482.04102 C 426 516.04102 469 507.04102 470 482.04102 L 470 98.041016 C 468.125 82.009766 457.68069 75.514588 447.00977 75.712891 z M 158 194.04102 L 422 194.04102 L 422 266.04102 L 158 266.04102 L 158 194.04102 z M 158 314.04102 L 422 314.04102 L 422 386.04102 L 158 386.04102 L 158 314.04102 z " mix-blend-mode="normal" solid-color="#000000" opacity="0.8" color-interpolation-filters="linearRGB" filter-gaussianBlur-deviation="0" color="#000000" image-rendering="auto" color-rendering="auto" stroke-width="64" isolation="auto" color-interpolation="sRGB" solid-opacity="1" fill="none" stroke-linejoin="round" filter-blend-mode="normal" stroke="#ffffff" shape-rendering="auto"/>
 <path d="M 447.00977 75.712891 C 434.91605 75.937634 422.53125 84.759766 422 98.041016 L 422 146.04102 L 158 146.04102 L 158 98.041016 C 152.47898 62.371053 110.80772 76.359406 110 98.041016 L 110 482.04102 C 114 516.04102 157 507.04102 158 482.04102 L 158 434.04102 L 422 434.04102 L 422 482.04102 C 426 516.04102 469 507.04102 470 482.04102 L 470 98.041016 C 468.125 82.009766 457.68069 75.514588 447.00977 75.712891 z M 158 194.04102 L 422 194.04102 L 422 266.04102 L 158 266.04102 L 158 194.04102 z M 158 314.04102 L 422 314.04102 L 422 386.04102 L 158 386.04102 L 158 314.04102 z " id="path4146" fill="#666666"/>
</svg>
