<?xml version="1.0" encoding="UTF-8" standalone="no"?>
<svg xmlns="http://www.w3.org/2000/svg" version="1.0" width="580" height="580">
 <metadata id="metadata10"/>
 <path id="path1005-3" d="m 126.43483,220.94165 a 12.0012,12.0012 0 0 0 -8.42968,3.19336 c -14.25312,12.83029 -23.03442,32.70811 -25.220709,54.38476 -2.186289,21.67665 2.640114,45.64072 18.249999,65.1211 a 12.0012,12.0012 0 1 0 18.72852,-15.00782 c -11.10144,-13.85406 -14.75823,-31.26016 -13.09961,-47.70507 1.65862,-16.44492 9.05168,-31.43979 17.40039,-38.95508 a 12.0012,12.0012 0 0 0 -7.62891,-21.03125 z m -2.18092,-46.89477 v 0.13085 c -23.62596,0.69399 -44.148873,14.69595 -57.890629,34.44336 -14.094655,20.25455 -22.152345,46.90612 -22.152343,76.04297 0,29.13686 8.057688,55.79038 22.152343,76.04492 14.094655,20.25455 35.296339,34.57422 59.691409,34.57422 0.12588,0 0.24538,-0.0266 0.37109,-0.0273 v 0.0273 h 333.15039 3.11524 v -0.22656 c 23.06671,-1.17169 43.09201,-14.97042 56.57617,-34.34766 14.09466,-20.25454 22.15234,-46.90806 22.15234,-76.04492 0,-29.13686 -8.05768,-55.78842 -22.15234,-76.04297 -13.91017,-19.98943 -34.75742,-34.13732 -58.75,-34.50586 v -0.0684 h -0.94141 -333.52148 z m 1.80078,32 c 11.96895,-2e-5 23.69,6.86088 33.42578,20.85156 9.73578,13.99067 16.41797,34.64604 16.41797,57.76562 0,23.11959 -6.68219,43.77691 -16.41797,57.76758 -9.73578,13.99067 -21.45683,20.85156 -33.42578,20.85156 -11.96895,0 -23.68805,-6.86089 -33.423831,-20.85156 -9.735776,-13.99067 -16.419922,-34.648 -16.419921,-57.76758 -2e-6,-23.11958 6.684145,-43.77495 16.419921,-57.76562 9.735781,-13.99068 21.454881,-20.85156 33.423831,-20.85156 z m 346.38672,0.35546 a 12.0012,12.0012 0 0 1 12.18164,12.16993 c 0,0 -0.99022,4.77144 -0.99024,4.77148 -1e-5,4e-5 -1.95696,3.10539 -1.95703,3.10547 -1.3e-4,1.5e-4 -3.11081,2.54853 -3.11133,2.54883 -5.1e-4,2.9e-4 -1.28801,0.64521 -1.71093,0.80468 -0.42292,0.15948 -0.7375,0.25308 -0.99805,0.32618 -1.04222,0.29235 -1.37063,0.30485 -1.68555,0.34765 -0.62983,0.0855 -0.90923,0.0991 -1.31836,0.125 -0.81826,0.0518 -1.95254,0.0986 -4.14648,0.15821 -4.38788,0.11912 -12.91074,0.27185 -29.91992,0.42578 -34.01837,0.30785 -101.92847,0.61523 -237.73047,0.61523 a 12.0012,12.0012 0 1 1 0,-24 c 135.7658,0 203.64008,-0.30673 237.51367,-0.61328 16.93679,-0.15327 25.38772,-0.30865 29.48633,-0.41992 1.20956,-0.0328 1.40049,-0.0478 1.93554,-0.0703 a 12.0012,12.0012 0 0 1 2.45118,-0.29493 z m 22.06054,50.16602 a 12.0012,12.0012 0 0 1 12.17969,12.16992 c 0,0 -0.98826,4.7695 -0.98828,4.76953 -2e-5,4e-5 -1.95892,3.10735 -1.95898,3.10742 -1.4e-4,1.5e-4 -3.10886,2.54658 -3.10938,2.54688 -5.2e-4,2.9e-4 -1.28997,0.64522 -1.71289,0.80469 -0.42292,0.15947 -0.73554,0.25502 -0.99609,0.32812 -1.04223,0.29236 -1.37063,0.30486 -1.68555,0.34766 -0.62984,0.0855 -0.91118,0.0971 -1.32031,0.12304 -0.81827,0.0519 -1.95059,0.10056 -4.14454,0.16016 -4.38787,0.11913 -12.91073,0.27185 -29.91992,0.42578 -34.01836,0.30786 -101.92847,0.61524 -237.73047,0.61524 a 12.0012,12.0012 0 1 1 0,-24 c 135.7658,0 203.63814,-0.30869 237.51172,-0.61524 16.9368,-0.15327 25.38772,-0.30669 29.48633,-0.41797 1.20957,-0.0328 1.4005,-0.0478 1.93555,-0.0703 a 12.0012,12.0012 0 0 1 2.45312,-0.29492 z" shape-rendering="auto" mix-blend-mode="normal" isolation="auto" color-interpolation-filters="linearRGB" white-space="normal" opacity="0.8" fill="none" solid-opacity="1" image-rendering="auto" solid-color="#000000" stroke="#ffffff" color="#000000" stroke-width="64" color-rendering="auto" vector-effect="none" shape-padding="0" color-interpolation="sRGB"/>
 <path id="path1005" d="m 126.43483,220.94165 a 12.0012,12.0012 0 0 0 -8.42968,3.19336 c -14.25312,12.83029 -23.03442,32.70811 -25.220709,54.38476 -2.186289,21.67665 2.640114,45.64072 18.249999,65.1211 a 12.0012,12.0012 0 1 0 18.72852,-15.00782 c -11.10144,-13.85406 -14.75823,-31.26016 -13.09961,-47.70507 1.65862,-16.44492 9.05168,-31.43979 17.40039,-38.95508 a 12.0012,12.0012 0 0 0 -7.62891,-21.03125 z m -2.18092,-46.89477 v 0.13085 c -23.62596,0.69399 -44.148873,14.69595 -57.890629,34.44336 -14.094655,20.25455 -22.152345,46.90612 -22.152343,76.04297 0,29.13686 8.057688,55.79038 22.152343,76.04492 14.094655,20.25455 35.296339,34.57422 59.691409,34.57422 0.12588,0 0.24538,-0.0266 0.37109,-0.0273 v 0.0273 h 333.15039 3.11524 v -0.22656 c 23.06671,-1.17169 43.09201,-14.97042 56.57617,-34.34766 14.09466,-20.25454 22.15234,-46.90806 22.15234,-76.04492 0,-29.13686 -8.05768,-55.78842 -22.15234,-76.04297 -13.91017,-19.98943 -34.75742,-34.13732 -58.75,-34.50586 v -0.0684 h -0.94141 -333.52148 z m 1.80078,32 c 11.96895,-2e-5 23.69,6.86088 33.42578,20.85156 9.73578,13.99067 16.41797,34.64604 16.41797,57.76562 0,23.11959 -6.68219,43.77691 -16.41797,57.76758 -9.73578,13.99067 -21.45683,20.85156 -33.42578,20.85156 -11.96895,0 -23.68805,-6.86089 -33.423831,-20.85156 -9.735776,-13.99067 -16.419922,-34.648 -16.419921,-57.76758 -2e-6,-23.11958 6.684145,-43.77495 16.419921,-57.76562 9.735781,-13.99068 21.454881,-20.85156 33.423831,-20.85156 z m 346.38672,0.35546 a 12.0012,12.0012 0 0 1 12.18164,12.16993 c 0,0 -0.99022,4.77144 -0.99024,4.77148 -1e-5,4e-5 -1.95696,3.10539 -1.95703,3.10547 -1.3e-4,1.5e-4 -3.11081,2.54853 -3.11133,2.54883 -5.1e-4,2.9e-4 -1.28801,0.64521 -1.71093,0.80468 -0.42292,0.15948 -0.7375,0.25308 -0.99805,0.32618 -1.04222,0.29235 -1.37063,0.30485 -1.68555,0.34765 -0.62983,0.0855 -0.90923,0.0991 -1.31836,0.125 -0.81826,0.0518 -1.95254,0.0986 -4.14648,0.15821 -4.38788,0.11912 -12.91074,0.27185 -29.91992,0.42578 -34.01837,0.30785 -101.92847,0.61523 -237.73047,0.61523 a 12.0012,12.0012 0 1 1 0,-24 c 135.7658,0 203.64008,-0.30673 237.51367,-0.61328 16.93679,-0.15327 25.38772,-0.30865 29.48633,-0.41992 1.20956,-0.0328 1.40049,-0.0478 1.93554,-0.0703 a 12.0012,12.0012 0 0 1 2.45118,-0.29493 z m 22.06054,50.16602 a 12.0012,12.0012 0 0 1 12.17969,12.16992 c 0,0 -0.98826,4.7695 -0.98828,4.76953 -2e-5,4e-5 -1.95892,3.10735 -1.95898,3.10742 -1.4e-4,1.5e-4 -3.10886,2.54658 -3.10938,2.54688 -5.2e-4,2.9e-4 -1.28997,0.64522 -1.71289,0.80469 -0.42292,0.15947 -0.73554,0.25502 -0.99609,0.32812 -1.04223,0.29236 -1.37063,0.30486 -1.68555,0.34766 -0.62984,0.0855 -0.91118,0.0971 -1.32031,0.12304 -0.81827,0.0519 -1.95059,0.10056 -4.14454,0.16016 -4.38787,0.11913 -12.91073,0.27185 -29.91992,0.42578 -34.01836,0.30786 -101.92847,0.61524 -237.73047,0.61524 a 12.0012,12.0012 0 1 1 0,-24 c 135.7658,0 203.63814,-0.30869 237.51172,-0.61524 16.9368,-0.15327 25.38772,-0.30669 29.48633,-0.41797 1.20957,-0.0328 1.4005,-0.0478 1.93555,-0.0703 a 12.0012,12.0012 0 0 1 2.45312,-0.29492 z" shape-rendering="auto" mix-blend-mode="normal" isolation="auto" color-interpolation-filters="linearRGB" white-space="normal" fill="#666666" solid-opacity="1" image-rendering="auto" solid-color="#000000" color="#000000" color-rendering="auto" vector-effect="none" shape-padding="0" color-interpolation="sRGB"/>
</svg>
