<?xml version="1.0" encoding="UTF-8" standalone="no"?>
<svg xmlns="http://www.w3.org/2000/svg" version="1.0" width="580" height="580">
 <metadata id="metadata2975"/>
 <defs id="defs4">
  <clipPath id="clipoutline2">
   <path d="m 55.8,12 0.76,0.16 c 8.84,-2.94 28.68,8.64 24.26,18.96 -1.12,1.62 -0.93,4.5 0.42,6.31 L 56.43,62.25 c -1.39,-1.39 -4.48,-1.36 -5.9,0 L 9.5,101.63 c -3.74,3.59 -0.8,6.64 0.78,8.25 l 7.36,7.36 c 1.61,1.6 5.86,3.76 8.88,0.56 L 65.24,76.99 c 1.35,-1.42 1.36,-4.47 0,-5.87 0,0 0.01,-0.02 0,-0.02 L 90.15,46.2 c 2.63,2.37 5.113827,2.574854 7.47,1.93 4.55057,-1.245432 7.08725,3.206643 9.81,6.46 l -1.23,1.21 c -1.82,1.84 -1.65,4.94 0.39,6.98 2.04,2.04 5.15,2.21 6.97,0.39 l 8.14,-8.13 c 1.82,-1.84 1.65,-4.94 -0.4,-6.97 -1.84,-1.85 -4.51,-2.09 -6.37,-0.77 -5.58,-6.26 -2.65,-7.2 -10.01,-15.35 L 91.13,17.86 C 81.2,8.12 68.3,8.13 55.8,12 z" id="outline2"/>
  </clipPath>
 </defs>
 <g transform="matrix(14.139784,0,0,14.13979,317.78211,31.45638)" id="g4250" mix-blend-mode="normal" solid-color="#000000" opacity="0.8" color-interpolation-filters="linearRGB" color="#000000" image-rendering="auto" color-rendering="auto" stroke-width="4.53" isolation="auto" color-interpolation="sRGB" solid-opacity="1" fill="none" stroke-linejoin="round" stroke="#ffffff" shape-rendering="auto">
  <path id="path4252" d="M 3,2.5 C 2.5646928,2.5312345 2.3983982,3.0163778 2.1137092,3.2815178 1.4313284,4.1150144 0.71866243,4.9266595 0.05468778,5.7734455 -0.15725675,6.1918497 0.3010201,6.5020252 0.51510161,6.7993387 2.9067479,9.6597163 5.2812771,12.536922 7.6835879,15.386814 7.9653491,15.631875 8.3712965,15.441157 8.5284972,15.146596 10.990839,12.186472 13.464954,9.2351305 15.919946,6.2695225 16.151442,5.9342595 15.838488,5.5937005 15.616896,5.3589768 14.846632,4.4448845 14.095875,3.512344 13.31342,2.6097796 12.963227,2.3984872 12.523801,2.5422904 12.134129,2.5 9.0894191,2.5 6.0447095,2.5 3,2.5 Z m 0.234375,1 c 0.296875,0 0.59375,0 0.890625,0 0.1940104,0.6666667 0.3880208,1.3333333 0.5820312,2 -1.0462239,0 -2.0924479,0 -3.1386718,0 0.5553385,-0.6666667 1.1106771,-1.3333333 1.6660156,-2 z m 1.9335938,0 c 1.8880207,0 3.7760415,0 5.6640622,0 -0.19401,0.6666667 -0.388021,1.3333333 -0.582031,2 -1.5,0 -3,0 -4.5,0 C 5.5559896,4.8333333 5.3619792,4.1666667 5.1679688,3.5 Z M 11.875,3.5 c 0.300389,0.021837 0.641499,-0.043247 0.917015,0.03168 0.546542,0.6561066 1.093084,1.3122131 1.639626,1.9683197 -1.046224,0 -2.092448,0 -3.138672,0 0.19401,-0.6666667 0.388021,-1.3333333 0.582031,-2 z M 1.5683594,6.5 C 2.7122396,6.5 3.8561198,6.5 5,6.5 5.6158854,8.611328 6.2317708,10.722656 6.8476562,12.833984 5.0878906,10.722656 3.328125,8.611328 1.5683594,6.5 Z m 4.4746094,0 c 1.3046875,0 2.6093749,0 3.9140624,0 C 9.3046875,8.7376303 8.6523437,10.975261 8,13.212891 7.3476563,10.975261 6.6953125,8.7376303 6.0429688,6.5 Z M 11,6.5 c 1.14388,0 2.287761,0 3.431641,0 C 12.671875,8.611328 10.91211,10.722656 9.1523438,12.833984 9.7682292,10.722656 10.384115,8.611328 11,6.5 Z" mix-blend-mode="normal" isolation="auto" white-space="normal" opacity="1" solid-opacity="1" solid-color="#000000" stroke-width="4.53"/>
 </g>
 <g transform="matrix(1.8715176,0,0,1.8715184,131.7942,-130.72193)" id="g4256" mix-blend-mode="normal" solid-color="#000000" opacity="0.8" color-interpolation-filters="linearRGB" color="#000000" image-rendering="auto" color-rendering="auto" stroke-width="34.2" isolation="auto" color-interpolation="sRGB" solid-opacity="1" fill="none" stroke-linejoin="round" stroke="#ffffff" shape-rendering="auto">
  <path id="path4258" d="m 167.58108,251.2836 c 21.55081,5.67429 35.91455,-4.90697 42.80338,-25.88892 -19.69986,-1.48491 -40.12739,5.39061 -42.80338,25.88892 z" mix-blend-mode="normal" isolation="auto" white-space="normal" opacity="1" solid-opacity="1" solid-color="#000000" stroke-width="34.2"/>
  <path id="path4260" d="m 107.83425,291.47772 c 1.31822,19.13732 14.48041,52.3139 35.22685,55.2237 5.98255,0.33763 11.30615,-2.53369 14.68105,-6.96901 3.46896,4.42359 8.12406,6.74565 13.08398,6.96289 5.12095,0.2243 10.5295,-1.72619 15.27344,-5.65234 l 0.0293,-0.0254 c 12.04185,-15.33413 20.06667,-33.37678 22.66407,-49.64649 l 0.004,-0.0371 0,-0.0371 c 0,-16.705 -13.57844,-30.22461 -30.25391,-30.22461 -8.09938,0 -15.39585,3.15776 -20.81836,8.36328 -5.47564,-5.20367 -12.77198,-8.36328 -25.17398,-8.36327 -12.402,0 -24.71644,13.70045 -24.71644,30.40545 z" mix-blend-mode="normal" isolation="auto" white-space="normal" opacity="1" solid-opacity="1" solid-color="#000000" stroke-width="34.2"/>
  <path id="path4262" d="m 113.08008,214.2305 c 3.32287,19.58695 20.39266,29.32723 34.60596,25.37395 0.2299,-18.4684 -23.01782,-25.13322 -34.60596,-25.37395 z" mix-blend-mode="normal" isolation="auto" white-space="normal" opacity="1" solid-opacity="1" solid-color="#000000" stroke-width="34.2"/>
  <path id="path4264" d="m 155.39062,218.91797 c -3.262,-0.34987 -3.68991,2.31733 -2.7871,4.625 3.14454,13.91825 3.39423,26.00363 3.58007,40.24609 l 1.33985,0.11719 7.64844,-40.95703 c -3.42896,-1.51209 -6.30115,-3.58078 -9.78126,-4.03125 z" mix-blend-mode="normal" isolation="auto" white-space="normal" opacity="1" solid-opacity="1" solid-color="#000000" stroke-width="34.2"/>
 </g>
 <g transform="matrix(0.95727391,0,0,0.95727434,9.2314401,2.6615433)" id="g4266" mix-blend-mode="normal" solid-color="#000000" opacity="0.8" color-interpolation-filters="linearRGB" color="#000000" image-rendering="auto" color-rendering="auto" stroke-width="66.86" isolation="auto" color-interpolation="sRGB" solid-opacity="1" fill="none" stroke-linejoin="round" stroke="#ffffff" shape-rendering="auto">
  <path id="path4268" d="M 183.2207,283.76367 55.339844,342.85156 c -1.592737,0.73649 -2.09538,2.75752 -1.033203,4.1543 L 169.30273,498.07227 c 0.79116,1.0394 2.20504,1.37755 3.38086,0.80859 l 124.77539,-60.375 c 1.55347,-0.7515 2.03681,-2.7328 1.00391,-4.11524 L 186.57227,284.61328 c -1.0947,-1.11155 -2.0529,-1.19161 -3.35157,-0.84961 z" mix-blend-mode="normal" isolation="auto" white-space="normal" opacity="1" solid-opacity="1" solid-color="#000000" stroke-width="66.86"/>
  <path id="path4270" d="m 39.742188,360.08789 -4.300782,52.72852 c -0.05537,0.67713 0.142263,1.35074 0.554688,1.89062 L 150.06445,563.83984 c 1.5434,2.01876 4.76487,1.03826 4.92188,-1.49804 l 3.25781,-53.06836 c 0.0409,-0.65654 -0.15522,-1.30596 -0.55273,-1.83008 L 44.664062,358.65039 c -1.720382,-1.93461 -4.694066,-0.6106 -4.921874,1.4375 z" mix-blend-mode="normal" isolation="auto" white-space="normal" opacity="1" solid-opacity="1" solid-color="#000000" stroke-width="66.86"/>
  <path id="path4272" d="m 293.44727,459.91797 c -40.90017,18.63528 -84.74891,41.21183 -120.26608,58.80424 -6.32263,4.5951 1.07086,14.18403 6.91838,8.28529 38.42041,-18.9907 76.86658,-37.9293 115.27002,-56.95433 3.58198,-2.46187 3.30719,-9.98845 -1.92232,-10.1352 z" mix-blend-mode="normal" isolation="auto" white-space="normal" opacity="0.75" solid-opacity="1" solid-color="#000000" stroke-width="66.86"/>
  <path id="path4274" d="m 290.99023,491.87305 c -40.75855,18.82225 -84.56853,41.21212 -120.09419,58.80815 -6.3225,4.59531 1.06966,14.18659 6.9184,8.28721 38.42105,-18.99135 76.86786,-37.9306 115.27195,-56.95626 3.69307,-2.5105 3.19376,-10.19909 -2.09616,-10.1391 z" mix-blend-mode="normal" isolation="auto" white-space="normal" opacity="0.75" solid-opacity="1" solid-color="#000000" stroke-width="66.86"/>
 </g>
 <path id="path4276" d="M 36.773002,75.915441 C 77.874374,53.9094 112.96189,56.136642 147.70904,37.17587 c 18.63964,4.083653 32.51581,2.451159 45.34292,-0.440225 39.3553,18.118909 73.95847,21.023983 110.93604,39.620021 -3.07343,19.417539 -9.84169,36.195894 -21.13069,49.745164 -13.6964,-7.34061 -26.65549,-10.25738 -39.17978,-10.56535 l -0.88045,132.06677 c -53.95756,10.04978 -99.69112,5.70754 -144.392941,-0.44022 L 97.963914,115.97571 C 82.223086,115.51847 70.246549,121.33505 57.903675,126.54106 46.032197,110.35556 40.486123,93.266415 36.773002,75.915441 Z" mix-blend-mode="normal" solid-color="#000000" opacity="0.8" color-interpolation-filters="linearRGB" color="#000000" image-rendering="auto" color-rendering="auto" stroke-width="64" isolation="auto" color-interpolation="sRGB" solid-opacity="1" fill="none" stroke-linejoin="round" stroke="#ffffff" shape-rendering="auto"/>
 <g id="g3709" transform="matrix(14.139784,0,0,14.13979,317.78211,31.45638)" fill="none" stroke="#ac39ac" stroke-linejoin="round" stroke-width="1.04">
  <path d="M 3,2.5 C 2.5646928,2.5312345 2.3983982,3.0163778 2.1137092,3.2815178 1.4313284,4.1150144 0.71866243,4.9266595 0.05468778,5.7734455 -0.15725675,6.1918497 0.3010201,6.5020252 0.51510161,6.7993387 2.9067479,9.6597163 5.2812771,12.536922 7.6835879,15.386814 7.9653491,15.631875 8.3712965,15.441157 8.5284972,15.146596 10.990839,12.186472 13.464954,9.2351305 15.919946,6.2695225 16.151442,5.9342595 15.838488,5.5937005 15.616896,5.3589768 14.846632,4.4448845 14.095875,3.512344 13.31342,2.6097796 12.963227,2.3984872 12.523801,2.5422904 12.134129,2.5 9.0894191,2.5 6.0447095,2.5 3,2.5 Z m 0.234375,1 c 0.296875,0 0.59375,0 0.890625,0 0.1940104,0.6666667 0.3880208,1.3333333 0.5820312,2 -1.0462239,0 -2.0924479,0 -3.1386718,0 0.5553385,-0.6666667 1.1106771,-1.3333333 1.6660156,-2 z m 1.9335938,0 c 1.8880207,0 3.7760415,0 5.6640622,0 -0.19401,0.6666667 -0.388021,1.3333333 -0.582031,2 -1.5,0 -3,0 -4.5,0 C 5.5559896,4.8333333 5.3619792,4.1666667 5.1679688,3.5 Z M 11.875,3.5 c 0.300389,0.021837 0.641499,-0.043247 0.917015,0.03168 0.546542,0.6561066 1.093084,1.3122131 1.639626,1.9683197 -1.046224,0 -2.092448,0 -3.138672,0 0.19401,-0.6666667 0.388021,-1.3333333 0.582031,-2 z M 1.5683594,6.5 C 2.7122396,6.5 3.8561198,6.5 5,6.5 5.6158854,8.611328 6.2317708,10.722656 6.8476562,12.833984 5.0878906,10.722656 3.328125,8.611328 1.5683594,6.5 Z m 4.4746094,0 c 1.3046875,0 2.6093749,0 3.9140624,0 C 9.3046875,8.7376303 8.6523437,10.975261 8,13.212891 7.3476563,10.975261 6.6953125,8.7376303 6.0429688,6.5 Z M 11,6.5 c 1.14388,0 2.287761,0 3.431641,0 C 12.671875,8.611328 10.91211,10.722656 9.1523438,12.833984 9.7682292,10.722656 10.384115,8.611328 11,6.5 Z" id="path3706" shape-rendering="auto" mix-blend-mode="normal" color-interpolation-filters="linearRGB" isolation="auto" white-space="normal" fill="#ac39ac" solid-opacity="1" image-rendering="auto" solid-color="#000000" stroke="none" color="#000000" color-rendering="auto" color-interpolation="sRGB"/>
 </g>
 <g id="g4238" transform="matrix(1.8715176,0,0,1.8715184,131.7942,-130.72193)" fill="#ac39ac" stroke="#ac39ac" stroke-width="1.04">
  <path d="m 167.58108,251.2836 c 21.55081,5.67429 35.91455,-4.90697 42.80338,-25.88892 -19.69986,-1.48491 -40.12739,5.39061 -42.80338,25.88892 z" id="path6571" shape-rendering="auto" mix-blend-mode="normal" color-interpolation-filters="linearRGB" isolation="auto" white-space="normal" solid-opacity="1" image-rendering="auto" solid-color="#000000" stroke="none" color="#000000" color-rendering="auto" color-interpolation="sRGB"/>
  <path d="m 107.83425,291.47772 c 1.31822,19.13732 14.48041,52.3139 35.22685,55.2237 5.98255,0.33763 11.30615,-2.53369 14.68105,-6.96901 3.46896,4.42359 8.12406,6.74565 13.08398,6.96289 5.12095,0.2243 10.5295,-1.72619 15.27344,-5.65234 l 0.0293,-0.0254 c 12.04185,-15.33413 20.06667,-33.37678 22.66407,-49.64649 l 0.004,-0.0371 0,-0.0371 c 0,-16.705 -13.57844,-30.22461 -30.25391,-30.22461 -8.09938,0 -15.39585,3.15776 -20.81836,8.36328 -5.47564,-5.20367 -12.77198,-8.36328 -25.17398,-8.36327 -12.402,0 -24.71644,13.70045 -24.71644,30.40545 z" id="path6573" shape-rendering="auto" mix-blend-mode="normal" color-interpolation-filters="linearRGB" isolation="auto" white-space="normal" solid-opacity="1" image-rendering="auto" solid-color="#000000" stroke="none" color="#000000" color-rendering="auto" color-interpolation="sRGB"/>
  <path d="m 113.08008,214.2305 c 3.32287,19.58695 20.39266,29.32723 34.60596,25.37395 0.2299,-18.4684 -23.01782,-25.13322 -34.60596,-25.37395 z" id="path10957" shape-rendering="auto" mix-blend-mode="normal" color-interpolation-filters="linearRGB" isolation="auto" white-space="normal" solid-opacity="1" image-rendering="auto" solid-color="#000000" stroke="none" color="#000000" color-rendering="auto" color-interpolation="sRGB"/>
  <path d="m 155.39062,218.91797 c -3.262,-0.34987 -3.68991,2.31733 -2.7871,4.625 3.14454,13.91825 3.39423,26.00363 3.58007,40.24609 l 1.33985,0.11719 7.64844,-40.95703 c -3.42896,-1.51209 -6.30115,-3.58078 -9.78126,-4.03125 z" id="path10959" shape-rendering="auto" mix-blend-mode="normal" color-interpolation-filters="linearRGB" isolation="auto" white-space="normal" solid-opacity="1" image-rendering="auto" solid-color="#000000" stroke="none" color="#000000" color-rendering="auto" color-interpolation="sRGB"/>
 </g>
 <g id="g4015" transform="matrix(0.95727391,0,0,0.95727434,9.2314401,2.6615433)" fill="#ac39ac" stroke="#ac39ac" stroke-width="1.04">
  <path d="M 183.2207,283.76367 55.339844,342.85156 c -1.592737,0.73649 -2.09538,2.75752 -1.033203,4.1543 L 169.30273,498.07227 c 0.79116,1.0394 2.20504,1.37755 3.38086,0.80859 l 124.77539,-60.375 c 1.55347,-0.7515 2.03681,-2.7328 1.00391,-4.11524 L 186.57227,284.61328 c -1.0947,-1.11155 -2.0529,-1.19161 -3.35157,-0.84961 z" id="path3470" shape-rendering="auto" mix-blend-mode="normal" color-interpolation-filters="linearRGB" isolation="auto" white-space="normal" solid-opacity="1" image-rendering="auto" solid-color="#000000" stroke="none" color="#000000" fill-rule="evenodd" color-rendering="auto" color-interpolation="sRGB"/>
  <path d="m 39.742188,360.08789 -4.300782,52.72852 c -0.05537,0.67713 0.142263,1.35074 0.554688,1.89062 L 150.06445,563.83984 c 1.5434,2.01876 4.76487,1.03826 4.92188,-1.49804 l 3.25781,-53.06836 c 0.0409,-0.65654 -0.15522,-1.30596 -0.55273,-1.83008 L 44.664062,358.65039 c -1.720382,-1.93461 -4.694066,-0.6106 -4.921874,1.4375 z" id="path3474" shape-rendering="auto" mix-blend-mode="normal" color-interpolation-filters="linearRGB" isolation="auto" white-space="normal" solid-opacity="1" image-rendering="auto" solid-color="#000000" stroke="none" color="#000000" fill-rule="evenodd" color-rendering="auto" color-interpolation="sRGB"/>
  <path d="m 293.44727,459.91797 c -40.90017,18.63528 -84.74891,41.21183 -120.26608,58.80424 -6.32263,4.5951 1.07086,14.18403 6.91838,8.28529 38.42041,-18.9907 76.86658,-37.9293 115.27002,-56.95433 3.58198,-2.46187 3.30719,-9.98845 -1.92232,-10.1352 z" id="path3476" shape-rendering="auto" mix-blend-mode="normal" color-interpolation-filters="linearRGB" isolation="auto" white-space="normal" opacity="0.75" solid-opacity="1" image-rendering="auto" solid-color="#000000" stroke="none" color="#000000" fill-rule="evenodd" color-rendering="auto" color-interpolation="sRGB"/>
  <path d="m 290.99023,491.87305 c -40.75855,18.82225 -84.56853,41.21212 -120.09419,58.80815 -6.3225,4.59531 1.06966,14.18659 6.9184,8.28721 38.42105,-18.99135 76.86786,-37.9306 115.27195,-56.95626 3.69307,-2.5105 3.19376,-10.19909 -2.09616,-10.1391 z" id="path3505" shape-rendering="auto" mix-blend-mode="normal" color-interpolation-filters="linearRGB" isolation="auto" white-space="normal" opacity="0.75" solid-opacity="1" image-rendering="auto" solid-color="#000000" stroke="none" color="#000000" fill-rule="evenodd" color-rendering="auto" color-interpolation="sRGB"/>
 </g>
 <path d="M 36.773002,75.915441 C 77.874374,53.9094 112.96189,56.136642 147.70904,37.17587 c 18.63964,4.083653 32.51581,2.451159 45.34292,-0.440225 39.3553,18.118909 73.95847,21.023983 110.93604,39.620021 -3.07343,19.417539 -9.84169,36.195894 -21.13069,49.745164 -13.6964,-7.34061 -26.65549,-10.25738 -39.17978,-10.56535 l -0.88045,132.06677 c -53.95756,10.04978 -99.69112,5.70754 -144.392941,-0.44022 L 97.963914,115.97571 C 82.223086,115.51847 70.246549,121.33505 57.903675,126.54106 46.032197,110.35556 40.486123,93.266415 36.773002,75.915441 Z" id="path2427" fill="#ac39ac" fill-rule="evenodd" stroke="#ac39ac" stroke-width="3.51"/>
</svg>
