<?xml version="1.0" encoding="UTF-8" standalone="no"?>
<svg xmlns="http://www.w3.org/2000/svg" width="580" height="580" version="1.0">
 <metadata id="metadata18"/>
 <path id="path4142" d="m 287.94922,35.613281 c -11.94876,0 -36.27807,22.789842 -41.2461,40.496094 -6.70341,23.891305 -18.61523,347.630855 -18.61523,347.630855 l 119.60352,0.25 c 0,0 -11.69112,-323.990679 -17.39453,-347.749996 -4.29073,-17.874351 -30.29642,-40.626953 -42.34766,-40.626953 z" mix-blend-mode="normal" solid-color="#000000" opacity="0.8" color-interpolation-filters="linearRGB" filter-gaussianBlur-deviation="0" color="#000000" image-rendering="auto" color-rendering="auto" stroke-width="64" isolation="auto" color-interpolation="sRGB" solid-opacity="1" fill="none" stroke-linejoin="round" filter-blend-mode="normal" stroke="#ffffff" shape-rendering="auto"/>
 <path id="path4144" d="m 213.13086,446.47656 c -13.25429,10e-4 -23.99867,10.74571 -24,24 l 0,17.18164 202.68945,0 0,-17.18164 c -0.001,-13.25429 -10.74571,-23.99867 -24,-24 z" mix-blend-mode="normal" solid-color="#000000" opacity="0.8" color-interpolation-filters="linearRGB" filter-gaussianBlur-deviation="0" color="#000000" image-rendering="auto" color-rendering="auto" stroke-width="64" isolation="auto" color-interpolation="sRGB" solid-opacity="1" fill="none" stroke-linejoin="round" filter-blend-mode="normal" stroke="#ffffff" shape-rendering="auto"/>
 <path id="path4146" d="m 175.44531,505.31641 c -13.25429,10e-4 -23.99867,10.74571 -24,24 l 0,17.17968 277.28907,0 0,-17.17968 c -10e-4,-13.25428 -10.74571,-23.99867 -24,-24 z" mix-blend-mode="normal" solid-color="#000000" opacity="0.8" color-interpolation-filters="linearRGB" filter-gaussianBlur-deviation="0" color="#000000" image-rendering="auto" color-rendering="auto" stroke-width="64" isolation="auto" color-interpolation="sRGB" solid-opacity="1" fill="none" stroke-linejoin="round" filter-blend-mode="normal" stroke="#ffffff" shape-rendering="auto"/>
 <path d="m 287.94922,35.613281 c -11.94876,0 -36.27807,22.789842 -41.2461,40.496094 -6.70341,23.891305 -18.61523,347.630855 -18.61523,347.630855 l 119.60352,0.25 c 0,0 -11.69112,-323.990679 -17.39453,-347.749996 -4.29073,-17.874351 -30.29642,-40.626953 -42.34766,-40.626953 z" id="path4140" fill="#c9820d" fill-rule="evenodd"/>
 <path d="m 213.13086,446.47656 c -13.25429,10e-4 -23.99867,10.74571 -24,24 l 0,17.18164 202.68945,0 0,-17.18164 c -0.001,-13.25429 -10.74571,-23.99867 -24,-24 z" id="path4138" fill="#c9820d" fill-rule="evenodd"/>
 <path d="m 175.44531,505.31641 c -13.25429,10e-4 -23.99867,10.74571 -24,24 l 0,17.17968 277.28907,0 0,-17.17968 c -10e-4,-13.25428 -10.74571,-23.99867 -24,-24 z" id="path3355" fill="#c9820d" fill-rule="evenodd"/>
</svg>
