<?xml version="1.0" encoding="UTF-8" standalone="no"?>
<svg xmlns="http://www.w3.org/2000/svg" width="580" height="580" version="1.0">
 <metadata id="metadata18"/>
 <path id="path4141" d="m 164.3,115.9 0,284 c 0,1.8 252,0.9 252,0 l 0,-284 C 416.3,104.5 406.7,94 394.6,94 l -208.8,0 c -11.1,0 -21.5,10.5 -21.5,21.9 z" mix-blend-mode="normal" solid-color="#000000" opacity="0.8" color-interpolation-filters="linearRGB" filter-gaussianBlur-deviation="0" color="#000000" image-rendering="auto" color-rendering="auto" stroke-width="64" isolation="auto" color-interpolation="sRGB" solid-opacity="1" fill="none" stroke-linejoin="round" filter-blend-mode="normal" stroke="#ffffff" shape-rendering="auto"/>
 <path id="path4143" d="m 148.65,432.9 280.9,0 c 0.9,0 -13.9,-20.9 -13.9,-20.9 l -252.95,0 z" mix-blend-mode="normal" solid-color="#000000" opacity="0.8" color-interpolation-filters="linearRGB" filter-gaussianBlur-deviation="0" color="#000000" image-rendering="auto" color-rendering="auto" stroke-width="64" isolation="auto" color-interpolation="sRGB" solid-opacity="1" fill="none" stroke-linejoin="round" filter-blend-mode="normal" stroke="#ffffff" shape-rendering="auto"/>
 <path id="path4145" d="m 144.9,451.4 0,33 c 0,0.9 0.9,1.8 1.7,1.8 l 285,0 c 0.9,0 1.7,-0.9 1.7,-1.8 l 0,-33 c 0,-0.9 -0.9,-0.9 -1.7,-0.9 l -285,0 c -0.9,0 -1.7,0 -1.7,0.9 z" mix-blend-mode="normal" solid-color="#000000" opacity="0.8" color-interpolation-filters="linearRGB" filter-gaussianBlur-deviation="0" color="#000000" image-rendering="auto" color-rendering="auto" stroke-width="64" isolation="auto" color-interpolation="sRGB" solid-opacity="1" fill="none" stroke-linejoin="round" filter-blend-mode="normal" stroke="#ffffff" shape-rendering="auto"/>
 <path d="m 164.3,115.9 0,284 c 0,1.8 252,0.9 252,0 l 0,-284 C 416.3,104.5 406.7,94 394.6,94 l -208.8,0 c -11.1,0 -21.5,10.5 -21.5,21.9 z" id="path4139" fill="#c9820d"/>
 <path d="m 148.65,432.9 280.9,0 c 0.9,0 -13.9,-20.9 -13.9,-20.9 l -252.95,0 z" id="path4137" fill="#c9820d"/>
 <path d="m 144.9,451.4 0,33 c 0,0.9 0.9,1.8 1.7,1.8 l 285,0 c 0.9,0 1.7,-0.9 1.7,-1.8 l 0,-33 c 0,-0.9 -0.9,-0.9 -1.7,-0.9 l -285,0 c -0.9,0 -1.7,0 -1.7,0.9 z" id="path4329" fill="#c9820d"/>
 <path d="m 186.64318,163.42745 c 28.76729,17.52552 56.08475,37.38167 81.69,59.24597 -12.73854,12.72937 -26.41889,26.8864 -37.24663,38.7918 -10.67642,-8.26818 -28.05918,-8.46508 -36.59518,3.01032 -9.23608,11.24872 -12.26641,30.21509 -0.53582,40.89724 -5.36514,6.07656 -11.17909,14.19271 -7.42575,22.633 3.79161,10.514 18.70695,9.04797 23.18436,0.002 8.19796,-9.99571 16.5071,-19.90243 24.96077,-29.68301 9.152,4.77193 18.44203,-7.42791 13.91774,-15.81642 12.86975,-14.38367 26.39394,-28.17641 40.50817,-41.33301 14.11379,13.15627 27.63655,26.94974 40.50594,41.33301 -4.5243,8.38851 4.76573,20.58835 13.91773,15.81642 8.45367,9.78058 16.76281,19.6873 24.96077,29.68301 4.47741,9.04575 19.39277,10.51178 23.18438,-0.002 3.75333,-8.44029 -2.06062,-16.55644 -7.42576,-22.633 11.73058,-10.68215 8.70026,-29.64852 -0.53581,-40.89724 -8.53601,-11.4754 -25.91877,-11.2785 -36.5952,-3.01032 -13.30774,-14.19927 -24.71357,-26.6029 -37.24662,-38.7918 25.60524,-21.8643 52.9227,-41.72045 81.69,-59.24597 2.8935,-1.57263 3.3467,-7.5655 -24.50501,-0.7826 -19.39412,4.17912 -49.57567,19.35055 -77.95042,41.83103 -28.37516,-22.48108 -58.55822,-37.65184 -77.95266,-41.83103 -6.10935,-2.06889 -33.89322,-4.77092 -24.505,0.7826 z m 18.52215,126.22007 c 0.95514,-6.37819 0.0367,-10.89345 6.97723,-10.72127 6.94057,0.17218 -6.76121,12.46515 -6.97723,10.72127 z m 167.87101,-4.4e-4 c -0.21602,1.74388 -13.92003,-10.54909 -7.10486,-10.69647 6.81516,-0.14737 7.49717,6.94173 7.10486,10.69647 z" id="path4182" shape-rendering="auto" mix-blend-mode="normal" color-interpolation-filters="linearRGB" isolation="auto" white-space="normal" fill="#ffffff" solid-opacity="1" image-rendering="auto" solid-color="#000000" color="#000000" fill-rule="evenodd" color-rendering="auto" color-interpolation="sRGB"/>
</svg>
