<?xml version="1.0" encoding="UTF-8" standalone="no"?>
<svg xmlns="http://www.w3.org/2000/svg" width="580" height="580" version="1.0">
 <metadata id="metadata18"/>
 <path id="path4136" d="m 164.00001,117.71429 251.99999,0 0,246.21429 c 0,131.14283 -252,131.14283 -252,0 z" mix-blend-mode="normal" solid-color="#000000" opacity="0.8" color-interpolation-filters="linearRGB" filter-gaussianBlur-deviation="0" color="#000000" image-rendering="auto" color-rendering="auto" stroke-width="64" isolation="auto" color-interpolation="sRGB" solid-opacity="1" fill="none" stroke-linejoin="round" filter-blend-mode="normal" stroke="#ffffff" shape-rendering="auto"/>
 <path d="m 164.00001,117.71429 251.99999,0 0,246.21429 c 0,131.14283 -252,131.14283 -252,0 z" id="rect4135" mix-blend-mode="normal" solid-color="#000000" color-interpolation-filters="linearRGB" color="#000000" image-rendering="auto" color-rendering="auto" isolation="auto" color-interpolation="sRGB" solid-opacity="1" fill="#c9820d" shape-rendering="auto"/>
 <path d="m 264.05092,188.1926 c -2.20893,10.24945 8.48231,10.7796 9.36588,1.41372 -6.03998,-9.05102 16.78399,-13.83505 3.26922,-15.02075 -6.89187,0 -12.72345,6.6268 -12.6351,13.60703 z m -28.71613,-13.16524 c -12.28167,6.89187 13.8721,7.77544 0,0 z m 6.6268,21.47083 c 6.09665,-0.70686 11.66317,-16.69954 5.12472,-21.20576 -8.4823,2.12058 -9.18916,15.37418 -5.12472,21.20576 z m 10.95631,-2.12057 c 7.95216,4.41786 7.8638,-15.46254 1.41371,-18.82012 -4.24115,5.30144 -3.18086,12.72346 -1.41371,18.82012 z m 59.28777,-7.06859 c 0,0.88357 -0.0883,1.67879 -0.17671,2.56236 0.39799,14.50696 14.56082,3.2329 8.12888,-5.91994 8.65901,-4.50622 -0.97194,15.02075 7.8638,12.98853 1.76715,-1.41372 2.71489,-2.77071 3.15668,-5.24472 0.0368,-6.67705 -2.46134,-15.21897 -8.76737,-15.69597 -5.45614,-0.11851 -9.55629,6.95856 -10.20528,11.30974 z m 25.62363,9.10081 c 7.95216,10.60288 10.33781,-7.06859 5.03637,-11.92825 -4.68294,7.77545 -4.24115,-6.80351 -8.39395,-7.77544 l -0.0883,0.0884 c -2.03222,0.97193 -1.67879,3.711 -2.12058,5.47815 -3.08166,5.89052 1.35438,19.48362 5.56651,14.13718 z m -30.39492,-19.88041 c -2.91579,4.7713 -15.37418,13.2536 -7.95216,22.00098 13.48855,3.00297 16.00191,-16.46492 7.95216,-22.00098 z m -87.38541,19.2619 c 7.95216,10.60288 10.33781,-7.06858 5.12472,-11.92824 -4.68294,7.77545 -4.41787,-6.80351 -8.52648,-7.68709 -4.22818,7.57906 -3.38418,28.43477 3.40176,19.61533 z m -13.25361,-0.53014 c 7.95217,4.41787 7.86381,-15.46254 1.41372,-18.82011 -4.24115,5.30144 -3.18086,12.72345 -1.41372,18.82011 z m 143.05054,2.47401 c 6.0083,-0.70686 11.48646,-16.7879 5.03637,-21.20577 -8.39395,2.12058 -9.10081,15.28582 -5.03637,21.20577 z m 12.10496,1.14864 c 12.28167,7.59873 17.31804,-15.90432 7.95216,-22.00098 -2.91579,4.7713 -15.37418,13.2536 -7.95216,22.00098 z m -74.22017,-5.56651 c -7.68709,11.13302 13.8721,3.62265 6.53844,-3.26922 -3.44593,1.32536 3.26923,-9.71931 -4.24115,-6.6268 -9.37579,-2.96685 -5.32143,5.10268 -2.29729,9.89602 z m -55.13498,5.3898 c 4.50622,11.39809 12.54674,-14.31389 2.12057,-15.37418 -3.88772,4.24115 -2.12057,10.24945 -2.12057,15.37418 z m 46.29925,-15.19747 c -3.97608,4.06444 -2.29729,10.07274 -2.12058,15.28582 4.50622,11.3981 12.28167,-14.13717 2.12058,-15.37417 z m 24.56334,5.21309 c 7.15694,10.60288 -5.21309,3.79936 0,0 z m 63.61728,0.35343 c 7.06859,7.42201 -6.89187,7.59873 0,0 z m -119.90091,39.1423 c 7.95216,4.41787 7.95216,-15.46254 1.50208,-18.82012 -4.41787,5.30144 -3.26923,12.72346 -1.50208,18.82012 z m 9.45424,-18.73176 c -3.79937,1.76715 -5.03637,24.47499 3.35757,19.43862 7.86381,10.60288 10.33781,-7.06859 5.03637,-11.92824 -6.72348,7.50932 -3.66362,-6.03139 -8.39394,-7.51038 z m -24.29827,22.00098 c 12.28167,7.59873 17.22968,-15.81596 8.04051,-22.00098 -2.91579,4.7713 -15.37417,13.43032 -8.04051,22.00098 z m -12.72346,-0.70686 c 6.09666,-0.70686 11.48645,-16.69954 5.12473,-21.20576 -8.48231,2.12058 -9.18917,15.37418 -5.12473,21.20576 z m 71.21602,-1.41372 c 7.95216,10.60288 10.33781,-7.06858 5.03637,-11.92824 -4.68294,7.77545 -4.24116,-6.89187 -8.43813,-7.64291 -3.66683,1.98804 -4.99219,24.51917 3.40176,19.57115 z m 70.77423,-19.70368 c -12.28167,6.80351 13.69539,8.04051 0,0 z m -58.93435,21.38247 c 6.18502,-0.70686 11.48646,-16.69953 5.12473,-21.20576 -8.48231,2.12058 -9.18917,15.37418 -5.12473,21.20576 z m 24.91677,1.23701 c 12.28167,7.51037 16.7879,-16.1694 7.59873,-22.00098 -2.474,5.21308 -15.55089,13.07688 -7.59873,22.00098 z m 18.90847,-2.56237 c 7.95216,10.60288 10.33781,-7.06858 5.03637,-11.92824 -4.59458,7.77545 -4.32951,-6.6268 -8.39395,-7.68709 l -0.0442,0.0884 c -3.66683,1.94386 -4.90384,24.47498 3.40175,19.52697 z M 270.85444,217.6156 c 0.26507,1.32536 4.50622,5.83158 -0.35343,9.45423 -0.6185,18.55504 23.85648,-9.7193 5.3898,-10.77959 z m 43.38345,10.51452 c -7.15694,10.95631 14.40225,1.67879 6.45009,-4.32951 -3.53429,1.59043 2.12058,-6.98023 -1.76715,-7.06859 -9.71857,0.70661 -7.70136,3.92546 -4.68294,11.3981 z m 42.85331,7.06859 c 6.80352,6.45008 11.04467,-15.46254 2.2973,-17.58311 -3.5343,5.21308 -2.47401,11.48645 -2.2973,17.58311 z M 234.80464,221.23825 c 7.06859,7.42202 -6.89187,7.59873 0,0 z m 96.39786,0.97193 c 6.6268,7.8638 -7.33366,7.2453 -0.0883,0 z m -54.86991,3.44594 c 3.88773,6.98023 -8.12887,0.26507 0,0 z m 38.43545,51.7774 c -12.28167,6.89187 13.69539,7.8638 0,0 z m -66.09129,21.55919 c 6.09665,-0.70686 11.66316,-16.69954 5.12472,-21.20576 -8.4823,2.12057 -9.18916,15.37418 -5.12472,21.20576 z m 72.45302,0 c 6.09665,-0.70686 11.66317,-16.69954 5.12472,-21.20576 -8.4823,2.12057 -9.18916,15.37418 -5.12472,21.20576 z m -48.50819,-2.03222 c 7.95217,4.32951 7.86381,-15.46253 1.50208,-18.82011 -4.41787,5.30144 -3.26922,12.72345 -1.50208,18.82011 z m 9.45424,-18.73176 c -3.79937,1.76715 -5.03637,24.38663 3.26922,19.43862 7.86381,10.60288 10.33781,-7.06859 5.03637,-11.92824 -6.76769,7.54921 -3.53911,-6.11927 -8.30559,-7.51038 z m -20.14547,16.87626 c -7.77545,11.22138 13.8721,3.97608 6.53844,-3.09251 -3.44594,1.237 3.26922,-9.89602 -4.24115,-6.71516 -1.76715,-0.53014 -3.09251,-0.79521 -4.06444,-0.79521 -5.30144,-0.0884 -0.44179,6.71515 1.76715,10.60288 z m 35.78472,1.50207 c -0.70686,16.52282 23.76813,-9.89602 5.47816,-11.3981 -9.33738,0.55672 -0.70284,8.89035 -5.47816,11.3981 z m 13.8721,4.24115 c 4.50623,11.3981 12.54675,-14.31389 2.12058,-15.37417 -3.88772,4.24115 -2.12058,10.24945 -2.12058,15.37417 z m -7.68709,-6.53844 c 4.06444,7.59873 -8.39394,0.35343 0,0 z m 2.47401,32.95729 c -0.0884,9.71931 8.21723,5.56651 8.65902,-1.32536 -4.1528,-7.42202 9.36588,-8.39395 6.6268,-14.93239 -9.1612,-2.31126 -16.32847,9.50309 -15.28582,16.25775 z m -47.35954,-16.25775 c -12.28167,6.89187 13.87211,7.8638 0,0 z m 82.34905,21.55919 c 6.09665,-0.70686 11.66317,-16.69954 5.12472,-21.20576 -8.4823,2.12057 -9.18916,15.37418 -5.12472,21.20576 z m -111.15354,1.14865 c 12.28167,7.51037 16.7879,-16.08104 7.59873,-22.00098 -2.474,5.21308 -15.55089,13.07688 -7.59873,22.00098 z m 63.52893,-6.98023 c -0.70686,14.57896 13.43032,-0.88358 9.54259,-7.86381 -4.89143,-2.90986 -9.15285,3.95271 -9.54259,7.86381 z m -40.90945,5.83158 c -0.7469,-8.05437 0.97336,-13.53327 -6.09666,-14.18135 -6.09665,0.13253 -4.06443,20.36636 6.09666,14.18135 z m 73.60167,0.35343 c 10.24945,9.54259 14.13717,-12.0166 5.03636,-14.13718 -14.22337,-0.27481 2.13194,10.69552 -5.03636,14.13718 z m -48.15476,-3.79937 c 3.18087,16.7879 24.20992,-9.89602 7.33366,-10.24945 -5.20153,0.48932 -8.01234,6.20333 -7.33366,10.24945 z m -7.68708,-10.24945 c -11.86366,2.03049 -7.64263,15.68219 -0.17672,16.1694 2.65009,-8.18953 9.69779,-16.67051 0.17672,-16.1694 z m -12.6351,0.26507 c -3.97608,4.1528 -2.29729,10.24946 -2.12058,15.37418 6.41926,8.97875 9.78925,-13.89711 2.12058,-15.37418 z m 60.2597,15.28582 c 4.50623,11.3981 12.54675,-14.13717 2.12058,-15.37417 -3.97608,4.15279 -2.29729,10.24945 -2.12058,15.37417 z m -47.35953,-11.39809 c 5.91994,3.18086 -6.80352,3.35758 0,0 z m -36.13816,0.79521 c 6.80352,7.77545 -7.2453,7.15695 0,0 z m 51.24726,0.0884 c 7.77545,6.80352 -7.59873,7.42202 0,0 z m -47.6246,20.85233 c -12.28167,6.89188 13.8721,7.77545 0,0 z m -29.68807,21.55919 c 6.09666,-0.6185 11.66317,-16.69953 5.12472,-21.20576 -8.39394,2.03222 -9.1008,15.28582 -5.12472,21.20576 z m 58.66927,-7.51037 c 0.17672,2.82744 0.97194,5.65487 2.2973,7.59873 6.18501,-0.70686 11.66316,-16.69954 5.12472,-21.24994 -7.03172,2.88082 -6.66307,8.13143 -7.42202,13.65121 z m -4.68293,-13.2536 c -2.9158,4.7713 -15.37418,13.43032 -7.95217,22.00098 14.70343,5.0034 14.95172,-16.85371 7.95217,-22.00098 z m -41.26288,0.0884 c -3.79937,1.76714 -5.03637,24.47498 3.35758,19.43861 7.8638,10.60288 10.3378,-7.06859 5.03636,-11.92824 -4.68294,7.77545 -4.41786,-6.71516 -8.43812,-7.68709 z m 23.50305,18.6434 c 7.95216,4.50622 7.95216,-15.46254 1.50207,-18.82012 -4.41786,5.30144 -3.26922,12.72346 -1.50207,18.82012 z M 350.11097,347.8544 c -9.89602,5.74323 1.67879,10.7796 0.97193,17.67147 8.12888,9.63095 16.43447,-18.90847 9.41006,-18.86429 z m -14.22553,20.67562 c 11.04467,0 12.72346,-20.85233 1.06029,-22.00098 -10.24945,1.41372 -11.48645,19.96876 -1.06029,22.00098 z m 2.73908,-13.51868 c 3.97608,11.48646 -9.71931,-0.0883 -1.76715,-3.18086 1.14865,0.6185 1.50208,1.94386 1.76715,3.18086 z m 14.93239,-3.0925 c 8.12888,5.83158 -6.80351,7.2453 0,0 z m -64.50086,11.57481 c -7.2453,4.68294 5.3898,7.06859 7.51037,2.38565 -3.86384,-8.39258 1.00145,-12.95678 -7.46619,-13.60703 -5.87576,-0.0884 -2.6949,7.95216 -0.0442,11.22138 z m 28.00928,10.33781 c 8.16699,-7.18534 16.24837,-19.81162 3.57847,-21.55919 -9.58677,-0.26507 -11.1772,18.20161 -3.57847,21.55919 z M 300.18908,353.8627 c 0.26507,1.32536 4.50622,5.83158 -0.35343,9.54259 -0.61851,18.55504 23.85648,-9.71931 5.38979,-10.77959 z m -63.52893,16.69954 c 6.80351,6.45008 11.04466,-15.46254 2.29729,-17.58311 -3.5343,5.21308 -2.38565,11.48645 -2.29729,17.58311 z m 83.58604,-12.98853 c 6.80352,7.59873 -5.91994,6.53844 0,0 z m -60.96656,0.17671 c 7.15694,7.2453 -6.80352,7.68709 0,0 z m 45.94581,4.1528 c 3.88773,6.89187 -8.04051,0.35343 0,0 z m 60.96657,1.76714 c -12.28167,6.89188 13.43032,7.59874 0,0 z m -97.19308,15.02075 c -12.28167,6.89188 13.69539,8.04052 0,0 z m -27.21406,21.55919 c 6.09666,-0.70685 11.66317,-16.69953 5.12473,-21.20576 -8.39395,2.12058 -9.18917,15.28582 -5.12473,21.20576 z m 35.34294,0.44179 c 5.21308,-4.59458 9.10081,-17.67147 3.35758,-21.64755 -7.2453,1.94386 -9.10081,15.19746 -3.35758,21.64755 z m 37.81694,-21.20576 c -3.79936,1.76715 -7.42201,31.63193 3.35758,19.43861 7.95216,10.60289 10.33781,-7.06858 5.03637,-11.92824 -6.61496,7.50832 -3.63295,-6.02815 -8.39395,-7.51037 z m 15.28582,18.6434 c 7.95216,4.32951 7.86381,-15.46254 1.50208,-18.82012 -4.41787,5.30144 -3.26922,12.72346 -1.50208,18.82012 z m -28.3627,-1.50208 c -6.62681,5.21309 5.21308,8.39395 7.68708,3.44594 -3.29405,-8.61344 1.2217,-12.62069 -6.84769,-13.82792 -5.08055,-0.2209 -3.75519,7.37783 -0.83939,10.38198 z m -46.29925,-9.89602 c -7.42202,0.70686 -6.98023,20.85233 3.44593,16.16939 0.34691,-2.08142 10.62239,-18.33375 -3.44593,-16.16939 z m 29.59971,1.237 c 0.26507,1.23701 4.50622,5.83159 -0.35343,9.5426 -0.6185,18.55504 23.85648,-9.71931 5.3898,-10.82378 z m -20.76398,14.49061 c 4.50623,11.48645 12.54674,-14.13718 2.12058,-15.28582 -3.97608,4.06444 -2.29729,10.24945 -2.12058,15.28582 z m -8.30559,-11.30974 c 6.0083,2.474 -6.53844,3.44593 0,0 z m 34.45937,4.94801 c 3.79936,7.15694 -7.77545,0.0884 0,0 z" id="path4304-8" fill="#ffffff"/>
</svg>
