<?xml version="1.0" encoding="UTF-8" standalone="no"?>
<svg xmlns="http://www.w3.org/2000/svg" width="580" height="580" version="1.0">
 <metadata id="metadata18"/>
 <path id="path4135" d="m 212.69864,164.00001 c -26.8944,0.002 -48.69595,21.80422 -48.69864,48.69863 l 0,154.60271 c 0.003,26.89441 21.80424,48.69595 48.69864,48.69865 l 154.60272,0 C 394.19576,415.997 415.99731,394.19576 416,367.30135 l 0,-154.60271 C 415.997,185.80423 394.19576,164.00268 367.30136,164 Z" shape-rendering="auto" mix-blend-mode="normal" filter-blend-mode="normal" color-interpolation-filters="linearRGB" isolation="auto" white-space="normal" opacity="0.8" fill="none" solid-opacity="1" image-rendering="auto" solid-color="#000000" stroke="#ffffff" color="#000000" stroke-linejoin="round" stroke-width="64" color-rendering="auto" filter-gaussianBlur-deviation="0" color-interpolation="sRGB"/>
 <path d="m 212.69864,164.00001 c -26.8944,0.002 -48.69595,21.80422 -48.69864,48.69863 l 0,154.60271 c 0.003,26.89441 21.80424,48.69595 48.69864,48.69865 l 154.60272,0 C 394.19576,415.997 415.99731,394.19576 416,367.30135 l 0,-154.60271 C 415.997,185.80423 394.19576,164.00268 367.30136,164 Z" id="rect4135" shape-rendering="auto" mix-blend-mode="normal" color-interpolation-filters="linearRGB" isolation="auto" white-space="normal" fill="#c9820d" solid-opacity="1" image-rendering="auto" solid-color="#000000" color="#000000" color-rendering="auto" color-interpolation="sRGB"/>
 <path d="m 266.36718,197.28019 c -2.01176,9.33456 7.72516,9.81739 8.52986,1.28753 -5.50084,-8.24311 15.28582,-12.60011 2.97741,-13.67997 -6.27669,0 -11.58774,6.03528 -11.50727,12.39244 z M 240.21431,185.2901 c -11.18538,6.27669 12.63385,7.0814 0,0 z m 6.03528,19.55431 c 5.55246,-0.64377 10.62209,-15.20891 4.66728,-19.3129 -7.72516,1.93129 -8.36892,14.00185 -4.66728,19.3129 z m 9.97833,-1.93129 c 7.24233,4.02352 7.16186,-14.08232 1.28752,-17.14019 -3.86258,4.82822 -2.89693,11.58773 -1.28752,17.14019 z m 53.99562,-6.43763 c 0,0.8047 -0.0805,1.52893 -0.16094,2.33364 0.36246,13.21203 13.26109,2.94432 7.40328,-5.39152 7.88609,-4.10399 -0.88518,13.67997 7.16186,11.82915 1.60941,-1.28753 2.47256,-2.52339 2.87491,-4.77656 0.0336,-6.08105 -2.24163,-13.8605 -7.98478,-14.29492 -4.96911,-0.10793 -8.70327,6.33743 -9.29433,10.30021 z m 23.33641,8.28845 c 7.24234,9.65644 9.41504,-6.43764 4.58681,-10.86351 -4.26493,7.0814 -3.86257,-6.19622 -7.64468,-7.08139 l -0.0805,0.0805 c -1.85082,0.88517 -1.52894,3.37976 -1.93129,4.98916 -2.80659,5.36472 1.23348,17.74448 5.06963,12.87527 z M 305.87814,186.6581 c -2.65552,4.3454 -14.00184,12.07056 -7.24233,20.03712 12.28453,2.73492 14.57355,-14.99522 7.24233,-20.03712 z m -79.58521,17.54254 c 7.24234,9.65645 9.41504,-6.43763 4.66729,-10.8635 -4.26493,7.08139 -4.02352,-6.19622 -7.76539,-7.00092 -3.85077,6.90253 -3.0821,25.89662 3.0981,17.86442 z m -12.07055,-0.48282 c 7.24233,4.02352 7.16186,-14.08232 1.28752,-17.14019 -3.86257,4.82822 -2.89693,11.58773 -1.28752,17.14019 z m 130.28154,2.25317 c 5.47199,-0.64376 10.46115,-15.28937 4.58682,-19.31289 -7.64469,1.93129 -8.28845,13.92138 -4.58682,19.31289 z m 11.02445,1.04612 c 11.18538,6.92045 15.77219,-14.48467 7.24233,-20.03713 -2.65552,4.3454 -14.00185,12.07056 -7.24233,20.03713 z m -67.59512,-5.06964 c -7.00093,10.13927 12.63385,3.29929 5.9548,-2.9774 -3.13834,1.20705 2.97741,-8.85174 -3.86257,-6.03528 -8.53889,-2.70202 -4.84643,4.6472 -2.09223,9.01268 z m -50.21352,4.90869 c 4.10399,10.38068 11.42679,-13.0362 1.93129,-14.00184 -3.5407,3.86258 -1.93129,9.33456 -1.93129,14.00184 z m 42.16648,-13.8409 c -3.62117,3.70164 -2.09223,9.17362 -1.93129,13.92138 4.10399,10.38067 11.18538,-12.87527 1.93129,-14.00185 z m 22.37076,4.74775 c 6.51811,9.65645 -4.74775,3.46023 0,0 z m 57.93868,0.32188 c 6.43763,6.75952 -6.27669,6.92046 0,0 z m -109.19831,35.64838 c 7.24234,4.02352 7.24234,-14.08231 1.368,-17.14019 -4.02352,4.82822 -2.97741,11.58774 -1.368,17.14019 z m 8.61033,-17.05972 c -3.46022,1.60941 -4.58681,22.2903 3.05788,17.70349 7.16186,9.65644 9.41503,-6.43764 4.58681,-10.86351 -6.12333,6.83903 -3.3366,-5.49301 -7.64469,-6.83998 z m -22.12935,20.03713 c 11.18538,6.92045 15.69172,-14.4042 7.3228,-20.03713 -2.65552,4.3454 -14.00184,12.2315 -7.3228,20.03713 z m -11.58774,-0.64377 c 5.55246,-0.64376 10.46115,-15.2089 4.66728,-19.31289 -7.72515,1.93129 -8.36891,14.00185 -4.66728,19.31289 z m 64.85913,-1.28752 c 7.24233,9.65644 9.41503,-6.43763 4.58681,-10.8635 -4.26493,7.08139 -3.86258,-6.27669 -7.68492,-6.96069 -3.33952,1.81058 -4.54658,22.33053 3.09811,17.82419 z m 64.45678,-17.9449 c -11.18539,6.19622 12.4729,7.32281 0,0 z m -53.67375,19.47383 c 5.63293,-0.64376 10.46115,-15.2089 4.66728,-19.31289 -7.72515,1.93129 -8.36892,14.00185 -4.66728,19.31289 z m 22.69265,1.12659 c 11.18538,6.83998 15.28937,-14.72608 6.92045,-20.03713 -2.25317,4.74776 -14.16279,11.90962 -6.92045,20.03713 z m 17.22066,-2.33364 c 7.24233,9.65644 9.41503,-6.43763 4.58681,-10.8635 -4.18446,7.08139 -3.94305,-6.03528 -7.64468,-7.00093 l -0.0402,0.0805 c -3.33952,1.77035 -4.46611,22.2903 3.09811,17.78396 z M 272.5634,224.07683 c 0.24141,1.20705 4.10399,5.31104 -0.32188,8.61033 -0.56329,16.89878 21.72701,-8.85174 4.9087,-9.81739 z m 39.51096,9.57597 c -6.5181,9.97833 13.11667,1.52894 5.87434,-3.94305 -3.21882,1.44847 1.93129,-6.35716 -1.60941,-6.43763 -8.85107,0.64353 -7.01392,3.57507 -4.26493,10.38068 z m 39.02814,6.43763 c 6.19621,5.87434 10.05879,-14.08231 2.09223,-16.0136 -3.21882,4.74775 -2.25318,10.46115 -2.09223,16.0136 z M 239.73149,227.37611 c 6.43763,6.75951 -6.27669,6.92045 0,0 z m 87.79318,0.88518 c 6.03528,7.16186 -6.67904,6.59857 -0.0805,0 z m -49.9721,3.13834 c 3.54069,6.35716 -7.40328,0.24141 0,0 z m 35.00461,47.15564 c -11.18538,6.27669 12.47291,7.16187 0,0 z m -60.19184,19.63478 c 5.55245,-0.64377 10.62209,-15.2089 4.66728,-19.31289 -7.72516,1.93129 -8.36892,14.00184 -4.66728,19.31289 z m 65.98571,0 c 5.55246,-0.64377 10.62209,-15.2089 4.66728,-19.31289 -7.72515,1.93129 -8.36892,14.00184 -4.66728,19.31289 z m -44.17824,-1.85082 c 7.24234,3.94305 7.16187,-14.08232 1.368,-17.14019 -4.02352,4.82822 -2.97741,11.58773 -1.368,17.14019 z m 8.61033,-17.05972 c -3.46022,1.60941 -4.58681,22.20982 2.97741,17.70348 7.16186,9.65645 9.41503,-6.43763 4.58681,-10.8635 -6.1636,6.87535 -3.2232,-5.57305 -7.56422,-6.83998 z m -18.34724,15.36984 c -7.0814,10.21974 12.63385,3.62117 5.9548,-2.81646 -3.13834,1.12658 2.97741,-9.01269 -3.86257,-6.11575 -1.60941,-0.48282 -2.81647,-0.72424 -3.70164,-0.72424 -4.82823,-0.0805 -0.40235,6.11575 1.60941,9.65645 z m 32.5905,1.368 c -0.64376,15.04796 21.64653,-9.01269 4.98916,-10.38068 -8.5039,0.50702 -0.6401,8.09677 -4.98916,10.38068 z m 12.63385,3.86258 c 4.10399,10.38067 11.42679,-13.03621 1.93129,-14.00185 -3.5407,3.86258 -1.93129,9.33456 -1.93129,14.00185 z m -7.00092,-5.95481 c 3.70163,6.92045 -7.64469,0.32188 0,0 z m 2.25317,30.01545 c -0.0805,8.85174 7.48374,5.06963 7.88609,-1.20706 -3.7821,-6.75951 8.52986,-7.64468 6.03528,-13.59949 -8.34345,-2.10495 -14.87096,8.65482 -13.92137,14.80655 z m -43.13213,-14.80655 c -11.18538,6.27669 12.63385,7.16186 0,0 z m 74.9984,19.63477 c 5.55245,-0.64376 10.62209,-15.2089 4.66728,-19.31289 -7.72516,1.93129 -8.36892,14.00185 -4.66728,19.31289 z m -101.23174,1.04612 c 11.18538,6.83998 15.28937,-14.64561 6.92045,-20.03713 -2.25317,4.74775 -14.16279,11.90962 -6.92045,20.03713 z m 57.8582,-6.35716 c -0.64376,13.27761 12.2315,-0.80471 8.6908,-7.16187 -4.45481,-2.65012 -8.33585,3.59989 -8.6908,7.16187 z m -37.25778,5.31104 c -0.68024,-7.33542 0.88647,-12.32526 -5.55246,-12.91549 -5.55246,0.1207 -3.70164,18.54842 5.55246,12.91549 z m 67.03182,0.32188 c 9.33457,8.6908 12.87526,-10.94397 4.58682,-12.87526 -12.95377,-0.25028 1.94163,9.74081 -4.58682,12.87526 z m -43.85635,-3.46022 c 2.89693,15.28937 22.04888,-9.01269 6.67904,-9.33457 -4.73724,0.44565 -7.29715,5.64961 -6.67904,9.33457 z m -7.00093,-9.33457 c -10.80467,1.84924 -6.96043,14.28237 -0.16094,14.72608 2.41354,-7.45851 8.83215,-15.18246 0.16094,-14.72608 z m -11.50726,0.24141 c -3.62117,3.78211 -2.09223,9.33457 -1.93129,14.00185 5.84626,8.17729 8.91544,-12.65662 1.93129,-14.00185 z m 54.8808,13.92138 c 4.10399,10.38068 11.42679,-12.87526 1.93129,-14.00185 -3.62117,3.78211 -2.09223,9.33457 -1.93129,14.00185 z M 272.5634,320.07799 c 5.39152,2.89693 -6.19622,3.05788 0,0 z m -32.91238,0.72423 c 6.19622,7.0814 -6.59857,6.51811 0,0 z m 46.67282,0.0805 c 7.08139,6.19622 -6.92045,6.75952 0,0 z m -43.37354,18.99101 c -11.18538,6.27669 12.63385,7.0814 0,0 z m -27.03804,19.63478 c 5.55245,-0.5633 10.62209,-15.2089 4.66728,-19.31289 -7.64469,1.85081 -8.28845,13.92137 -4.66728,19.31289 z m 53.43233,-6.83998 c 0.16094,2.57505 0.88517,5.1501 2.09223,6.92045 5.63293,-0.64377 10.62209,-15.2089 4.66728,-19.35313 -6.40406,2.62367 -6.06831,7.4056 -6.75951,12.43268 z m -4.26493,-12.07056 c -2.65552,4.3454 -14.00185,12.2315 -7.24234,20.03712 13.39098,4.55679 13.6171,-15.3493 7.24234,-20.03712 z m -37.57967,0.0805 c -3.46023,1.60941 -4.58681,22.29029 3.05787,17.70348 7.16187,9.65645 9.41504,-6.43763 4.58682,-10.8635 -4.26493,7.08139 -4.02352,-6.11575 -7.68492,-7.00092 z m 21.40512,16.97925 c 7.24234,4.10399 7.24234,-14.08232 1.368,-17.14019 -4.02352,4.82822 -2.97741,11.58773 -1.368,17.14019 z m 95.84023,-14.96749 c -9.01269,5.23057 1.52893,9.81738 0.88517,16.09407 7.40327,8.77128 14.96749,-17.22066 8.5701,-17.18042 z M 331.7896,361.5203 c 10.0588,0 11.58774,-18.99101 0.96565,-20.03713 -9.33457,1.28753 -10.46115,18.18631 -0.96565,20.03713 z m 2.49459,-12.31197 c 3.62116,10.46115 -8.85175,-0.0805 -1.60941,-2.89693 1.04611,0.56329 1.36799,1.77034 1.60941,2.89693 z m 13.59949,-2.81646 c 7.40328,5.31104 -6.19622,6.59857 0,0 z m -58.74338,10.54162 c -6.59857,4.26493 4.9087,6.43763 6.83998,2.1727 -3.51895,-7.64344 0.91206,-11.80023 -6.79974,-12.39244 -5.35128,-0.0805 -2.45435,7.24233 -0.0402,10.21974 z m 25.50911,9.41503 c 7.43799,-6.54396 14.79802,-18.04319 3.25905,-19.63477 -8.73103,-0.24141 -10.1795,16.5769 -3.25905,19.63477 z m -15.36984,-18.18631 c 0.24141,1.20706 4.10399,5.31105 -0.32188,8.69081 -0.56329,16.89878 21.727,-8.85175 4.90869,-9.81739 z m -57.8582,15.20891 c 6.19622,5.87433 10.05879,-14.08232 2.09223,-16.01361 -3.21882,4.74775 -2.1727,10.46115 -2.09223,16.01361 z m 76.12498,-11.82921 c 6.19622,6.92045 -5.39152,5.95481 0,0 z m -55.52457,0.16094 c 6.5181,6.59857 -6.19622,7.00092 0,0 z m 41.8446,3.78211 c 3.5407,6.27669 -7.3228,0.32188 0,0 z m 55.52456,1.60941 c -11.18538,6.27669 12.2315,6.92045 0,0 z m -88.51741,13.67996 c -11.18539,6.27669 12.4729,7.32281 0,0 z m -24.78488,19.63477 c 5.55245,-0.64376 10.62209,-15.2089 4.66728,-19.31289 -7.64469,1.93129 -8.36892,13.92138 -4.66728,19.31289 z m 32.18815,0.40236 c 4.74775,-4.18446 8.28845,-16.09408 3.05788,-19.71525 -6.59858,1.77035 -8.28845,13.84091 -3.05788,19.71525 z m 34.44132,-19.3129 c -3.46022,1.60941 -6.75951,28.8084 3.05788,17.70349 7.24233,9.65644 9.41503,-6.43763 4.58681,-10.8635 -6.0245,6.8381 -3.30866,-5.49007 -7.64469,-6.83999 z m 13.92138,16.97925 c 7.24233,3.94305 7.16186,-14.08231 1.368,-17.14019 -4.02352,4.82823 -2.97741,11.58774 -1.368,17.14019 z m -25.83099,-1.36799 c -6.03528,4.74775 4.74775,7.64468 7.00092,3.13834 -3.00002,-7.84458 1.11265,-11.49414 -6.23645,-12.59361 -4.62705,-0.20118 -3.42,6.71928 -0.76447,9.45527 z m -42.16648,-9.01268 c -6.75951,0.64376 -6.35716,18.99101 3.13834,14.72608 0.31595,-1.89564 9.67422,-16.69725 -3.13834,-14.72608 z m 26.95758,1.12658 c 0.24141,1.12659 4.10398,5.31105 -0.32189,8.6908 -0.56329,16.89878 21.72701,-8.85174 4.9087,-9.85762 z m -18.91054,13.19714 c 4.10399,10.46115 11.42679,-12.87526 1.93129,-13.92137 -3.62117,3.70164 -2.09223,9.33456 -1.93129,13.92137 z m -7.56422,-10.30021 c 5.47199,2.25318 -5.95481,3.13835 0,0 z m 31.38345,4.50635 c 3.46023,6.5181 -7.08139,0.0805 0,0 z" id="path4304-9" fill="#ffffff"/>
</svg>
