<?xml version="1.0" encoding="UTF-8" standalone="no"?>
<svg xmlns="http://www.w3.org/2000/svg" width="580" height="580" version="1.0">
 <metadata id="metadata18"/>
 <path id="path4143" d="m 290.31055,32.80469 c -8.66848,0 -16.23966,3.072053 -22.49414,9.216797 -6.3642,6.144747 -9.4375,13.714868 -9.4375,22.822265 0,8.668483 3.18303,16.239666 9.4375,22.494141 6.3642,6.364202 13.82566,9.546878 22.49414,9.546878 8.66849,0 16.23966,-3.182676 22.49414,-9.546878 6.3642,-6.364203 9.43554,-13.825658 9.43554,-22.494141 0,-9.107397 -3.18107,-16.677518 -9.43554,-22.822265 -6.3642,-6.144744 -13.82565,-9.216797 -22.49414,-9.216797 z" shape-rendering="auto" mix-blend-mode="normal" filter-blend-mode="normal" color-interpolation-filters="linearRGB" isolation="auto" white-space="normal" opacity="0.8" fill="none" solid-opacity="1" image-rendering="auto" solid-color="#000000" stroke="#ffffff" color="#000000" stroke-linejoin="round" stroke-width="64" color-rendering="auto" filter-gaussianBlur-deviation="0" color-interpolation="sRGB"/>
 <path id="path4145" d="m 258.49023,103.35742 c -25.10937,1.90656 -41.18921,19.32276 -41.47851,42.02735 l 0,98.75586 c 0,9.43658 4.5547,14.26367 13.05859,14.26367 10.82415,0 13.46627,-0.0328 16.89844,-0.0605 l 0,151.48438 c 0,11.71264 5.79678,17.62539 17.37305,17.76171 l 0,0.0137 0.40234,0 50.51172,0 0.40234,0 0,-0.0137 c 11.57627,-0.13632 17.37305,-6.04907 17.37305,-17.76171 l 0,-151.48438 c 3.43217,0.0278 6.07429,0.0605 16.89844,0.0605 8.50389,0 13.05859,-4.82709 13.05859,-14.26367 l 0,-98.75586 c -0.2893,-22.70459 -16.36914,-40.12079 -41.47851,-42.02735 -21.01006,0.75834 -42.00878,0.34582 -63.01954,0 z" shape-rendering="auto" mix-blend-mode="normal" filter-blend-mode="normal" color-interpolation-filters="linearRGB" isolation="auto" white-space="normal" opacity="0.8" fill="none" solid-opacity="1" image-rendering="auto" solid-color="#000000" stroke="#ffffff" color="#000000" stroke-linejoin="round" stroke-width="64" color-rendering="auto" filter-gaussianBlur-deviation="0" color-interpolation="sRGB"/>
 <path id="path4147" d="m 213.04102,447.17578 c -13.25429,0.001 -23.99868,10.74571 -24,24 l 0,17.18164 202.68945,0 0,-17.18164 c -0.001,-13.25429 -10.74572,-23.99867 -24,-24 z" shape-rendering="auto" mix-blend-mode="normal" filter-blend-mode="normal" color-interpolation-filters="linearRGB" isolation="auto" white-space="normal" opacity="0.8" fill="none" solid-opacity="1" image-rendering="auto" solid-color="#000000" stroke="#ffffff" color="#000000" stroke-linejoin="round" stroke-width="64" color-rendering="auto" filter-gaussianBlur-deviation="0" color-interpolation="sRGB"/>
 <path id="path4149" d="m 175.35547,506.01563 c -13.25429,0.001 -23.99867,10.74571 -24,24 l 0,17.17968 277.28906,0 0,-17.17968 c -10e-4,-13.25428 -10.74571,-23.99867 -24,-24 z" shape-rendering="auto" mix-blend-mode="normal" filter-blend-mode="normal" color-interpolation-filters="linearRGB" isolation="auto" white-space="normal" opacity="0.8" fill="none" solid-opacity="1" image-rendering="auto" solid-color="#000000" stroke="#ffffff" color="#000000" stroke-linejoin="round" stroke-width="64" color-rendering="auto" filter-gaussianBlur-deviation="0" color-interpolation="sRGB"/>
 <path d="m 290.31055,32.80469 c -8.66848,0 -16.23966,3.072053 -22.49414,9.216797 -6.3642,6.144747 -9.4375,13.714868 -9.4375,22.822265 0,8.668483 3.18303,16.239666 9.4375,22.494141 6.3642,6.364202 13.82566,9.546878 22.49414,9.546878 8.66849,0 16.23966,-3.182676 22.49414,-9.546878 6.3642,-6.364203 9.43554,-13.825658 9.43554,-22.494141 0,-9.107397 -3.18107,-16.677518 -9.43554,-22.822265 -6.3642,-6.144744 -13.82565,-9.216797 -22.49414,-9.216797 z" id="path4141" shape-rendering="auto" mix-blend-mode="normal" color-interpolation-filters="linearRGB" isolation="auto" white-space="normal" fill="#c9820d" solid-opacity="1" image-rendering="auto" solid-color="#000000" color="#000000" color-rendering="auto" color-interpolation="sRGB"/>
 <path d="m 258.49023,103.35742 c -25.10937,1.90656 -41.18921,19.32276 -41.47851,42.02735 l 0,98.75586 c 0,9.43658 4.5547,14.26367 13.05859,14.26367 10.82415,0 13.46627,-0.0328 16.89844,-0.0605 l 0,151.48438 c 0,11.71264 5.79678,17.62539 17.37305,17.76171 l 0,0.0137 0.40234,0 50.51172,0 0.40234,0 0,-0.0137 c 11.57627,-0.13632 17.37305,-6.04907 17.37305,-17.76171 l 0,-151.48438 c 3.43217,0.0278 6.07429,0.0605 16.89844,0.0605 8.50389,0 13.05859,-4.82709 13.05859,-14.26367 l 0,-98.75586 c -0.2893,-22.70459 -16.36914,-40.12079 -41.47851,-42.02735 -21.01006,0.75834 -42.00878,0.34582 -63.01954,0 z" id="path4139" shape-rendering="auto" mix-blend-mode="normal" color-interpolation-filters="linearRGB" isolation="auto" white-space="normal" fill="#c9820d" solid-opacity="1" image-rendering="auto" solid-color="#000000" color="#000000" color-rendering="auto" color-interpolation="sRGB"/>
 <path d="m 213.04102,447.17578 c -13.25429,0.001 -23.99868,10.74571 -24,24 l 0,17.18164 202.68945,0 0,-17.18164 c -0.001,-13.25429 -10.74572,-23.99867 -24,-24 z" id="path4137" shape-rendering="auto" mix-blend-mode="normal" color-interpolation-filters="linearRGB" isolation="auto" white-space="normal" fill="#c9820d" solid-opacity="1" image-rendering="auto" solid-color="#000000" color="#000000" color-rendering="auto" color-interpolation="sRGB"/>
 <path d="m 175.35547,506.01563 c -13.25429,0.001 -23.99867,10.74571 -24,24 l 0,17.17968 277.28906,0 0,-17.17968 c -10e-4,-13.25428 -10.74571,-23.99867 -24,-24 z" id="rect4161" shape-rendering="auto" mix-blend-mode="normal" color-interpolation-filters="linearRGB" isolation="auto" white-space="normal" fill="#c9820d" solid-opacity="1" image-rendering="auto" solid-color="#000000" color="#000000" color-rendering="auto" color-interpolation="sRGB"/>
</svg>
