<?xml version="1.0" encoding="UTF-8" standalone="no"?>
<svg xmlns="http://www.w3.org/2000/svg" version="1.0" width="580" height="580">
 <metadata id="metadata2975"/>
 <path id="path868" d="m 85.316227,513.52661 35.852153,-235.5766 28.10793,-16.83019 27.49507,17.27906 c 0,0 31.17338,237.98265 28.24669,236.55518 -2.92668,-1.42745 -119.116493,0.71374 -119.701843,-1.42745 z" fill="none" fill-rule="evenodd" stroke="#ffffff" vector-effect="none" stroke-linejoin="round" stroke-width="63.5"/>
 <path id="path870" d="m 34.125817,214.28893 32.62625,-30.53158 79.062303,107.79313 -10.07153,9.74356 z" fill="none" fill-rule="evenodd" stroke="#ffffff" vector-effect="none" stroke-linejoin="round" stroke-width="63.5"/>
 <path d="m 264.03928,214.28893 -32.62626,-30.53158 -79.06229,107.79313 10.07153,9.74356 z" id="path872" fill="none" fill-rule="evenodd" stroke="#ffffff" vector-effect="none" stroke-linejoin="round" stroke-width="63.5"/>
 <path d="m 264.03928,388.98736 -32.62626,30.53159 -79.06229,-107.79313 10.07153,-9.74356 z" id="path874" fill="none" fill-rule="evenodd" stroke="#ffffff" vector-effect="none" stroke-linejoin="round" stroke-width="63.5"/>
 <path id="path876" d="m 34.125817,388.98736 32.62625,30.53159 79.062303,-107.79313 -10.07153,-9.74356 z" fill="none" fill-rule="evenodd" stroke="#ffffff" vector-effect="none" stroke-linejoin="round" stroke-width="63.5"/>
 <path id="path878" d="m 391.07328,158.02485 c -2.9e-4,-10.4682 -3.77958,-19.28956 -11.33794,-26.4641 -7.55892,-7.17385 -16.5725,-10.76096 -27.04079,-10.76129 -10.45693,3.3e-4 -19.36998,3.58744 -26.73913,10.76129 -7.3696,7.17454 -11.05426,15.9959 -11.05406,26.4641 -2e-4,10.45701 3.68446,19.27247 11.05406,26.44637 7.36915,7.17446 16.2822,10.76157 26.73913,10.76133 10.46829,2.4e-4 19.48187,-3.58687 27.04079,-10.76133 7.55836,-7.1739 11.33765,-15.98936 11.33794,-26.44637 z M 291.07215,545.23658 c 8.13803,-8e-5 14.72668,-3.87402 19.76599,-11.62186 l 109.29867,-164.55122 5.81977,22.67592 -16.27057,123.2626 c -0.78103,6.19826 0.57338,11.72232 4.06318,16.57222 3.4892,4.84975 8.33313,7.85427 14.53179,9.01358 6.2098,1.15915 11.92904,-0.10053 17.15775,-3.77929 5.22798,-3.67885 8.23251,-8.62331 9.01358,-14.8334 l 16.8561,-126.15477 c 0.39003,-4.27014 0.004,-8.72961 -1.15329,-13.37845 L 432.92969,234.17903 530.03868,216.7374 c 5.03866,-0.76863 9.10778,-3.38281 12.20739,-7.84256 3.09873,-4.45919 4.25796,-9.20847 3.47769,-14.24782 -1.15967,-5.03882 -4.06366,-9.30312 -8.71197,-12.79292 L 313.74807,34.762235 293.39651,64.4113 c -5.03927,6.97941 -3.87414,12.988458 3.49542,18.027168 6.96701,4.25876 12.97013,3.09363 18.00943,-3.49542 L 326.54095,61.50138 507.93058,180.70076 359.68543,207.4399 c -5.4297,1.15951 -9.79159,3.96886 -13.08569,8.42809 -3.29459,4.45971 -4.16695,9.209 -2.61712,14.24782 L 375.956,355.11729 271.30613,511.52433 c -1.9401,3.47761 -2.91009,7.15642 -2.90993,11.03633 -1.6e-4,6.19826 2.22959,11.52714 6.68922,15.98669 4.45931,4.45939 9.7882,6.68915 15.98673,6.68923 z" fill="none" stroke="#ffffff" vector-effect="none" stroke-linejoin="round" stroke-width="63.5"/>
 <path id="path4155" d="m 85.27372,513.5272 35.85215,-235.5766 28.10793,-16.83019 27.49507,17.27906 c 0,0 31.17338,237.98265 28.24669,236.55518 -2.92668,-1.42745 -119.11649,0.71374 -119.70184,-1.42745 z" fill="#ffffff" fill-rule="evenodd" vector-effect="none"/>
 <path d="m 85.27372,513.5272 35.85215,-235.5766 28.10793,-16.83019 27.49507,17.27906 c 0,0 31.17338,237.98265 28.24669,236.55518 -2.92668,-1.42745 -119.11649,0.71374 -119.70184,-1.42745 z" id="path3457" opacity="0.5" fill="#39ac39" fill-rule="evenodd" vector-effect="none"/>
 <path d="m 34.08331,214.28952 32.62625,-30.53158 79.0623,107.79313 -10.07153,9.74356 z" id="path4180" fill="#39ac39" fill-rule="evenodd" vector-effect="none"/>
 <path id="path4188" d="m 263.99677,214.28952 -32.62626,-30.53158 -79.06229,107.79313 10.07153,9.74356 z" fill="#39ac39" fill-rule="evenodd" vector-effect="none"/>
 <path id="path4194" d="m 263.99677,388.98795 -32.62626,30.53159 -79.06229,-107.79313 10.07153,-9.74356 z" fill="#39ac39" fill-rule="evenodd" vector-effect="none"/>
 <path d="m 34.08331,388.98795 32.62625,30.53159 79.0623,-107.79313 -10.07153,-9.74356 z" id="path4196" fill="#39ac39" fill-rule="evenodd" vector-effect="none"/>
 <path d="m 391.03077,158.02544 c -2.9e-4,-10.4682 -3.77958,-19.28956 -11.33794,-26.4641 -7.55892,-7.17385 -16.5725,-10.76096 -27.04079,-10.76129 -10.45693,3.3e-4 -19.36998,3.58744 -26.73913,10.76129 -7.3696,7.17454 -11.05426,15.9959 -11.05406,26.4641 -2e-4,10.45701 3.68446,19.27247 11.05406,26.44637 7.36915,7.17446 16.2822,10.76157 26.73913,10.76133 10.46829,2.4e-4 19.48187,-3.58687 27.04079,-10.76133 7.55836,-7.1739 11.33765,-15.98936 11.33794,-26.44637 z M 291.02964,545.23717 c 8.13803,-8e-5 14.72668,-3.87402 19.76599,-11.62186 l 109.29867,-164.55122 5.81977,22.67592 -16.27057,123.2626 c -0.78103,6.19826 0.57338,11.72232 4.06318,16.57222 3.4892,4.84975 8.33313,7.85427 14.53179,9.01358 6.2098,1.15915 11.92904,-0.10053 17.15775,-3.77929 5.22798,-3.67885 8.23251,-8.62331 9.01358,-14.8334 l 16.8561,-126.15477 c 0.39003,-4.27014 0.004,-8.72961 -1.15329,-13.37845 l -37.22543,-148.26288 97.109,-17.44163 c 5.03866,-0.76863 9.10778,-3.38281 12.20739,-7.84256 3.09873,-4.45919 4.25796,-9.20847 3.47769,-14.24782 -1.15967,-5.03882 -4.06366,-9.30312 -8.71197,-12.79292 L 313.70556,34.76283 293.354,64.41189 c -5.03927,6.97941 -3.87414,12.988458 3.49542,18.027168 6.96701,4.25876 12.97013,3.09363 18.00943,-3.49542 L 326.49844,61.50197 507.88807,180.70135 359.64292,207.44049 c -5.4297,1.15951 -9.79159,3.96886 -13.08569,8.42809 -3.29459,4.45971 -4.16695,9.209 -2.61712,14.24782 l 31.97338,125.00148 -104.64987,156.40704 c -1.9401,3.47761 -2.91009,7.15642 -2.90993,11.03633 -1.6e-4,6.19826 2.22959,11.52714 6.68922,15.98669 4.45931,4.45939 9.7882,6.68915 15.98673,6.68923 z" id="flowRoot2383" fill="#39ac39" vector-effect="none"/>
</svg>
