<?xml version="1.0" encoding="UTF-8" standalone="no"?>
<svg xmlns="http://www.w3.org/2000/svg" width="580" height="580" version="1.0">
 <metadata id="metadata7"/>
 <path id="path4168" d="m 220.70907,207.70412 c 0.31085,21.17968 0.61908,42.3594 0.93164,63.53906 l 68.40769,-0.7887 c 0,23.23553 -0.0469,12.50744 -0.0469,36.23565 l -69.4917,1.55302 0,64.05273 -188.496089,-82.25195 z" mix-blend-mode="normal" solid-color="#000000" opacity="0.8" color-interpolation-filters="linearRGB" color="#000000" image-rendering="auto" color-rendering="auto" fill-rule="evenodd" stroke-width="64" isolation="auto" color-interpolation="sRGB" solid-opacity="1" fill="none" stroke-linejoin="round" stroke="#ffffff" shape-rendering="auto"/>
 <path d="m 359.29093,207.70412 c -0.31085,21.17968 -0.61908,42.3594 -0.93164,63.53906 l -68.40769,-0.7887 c 0,23.23553 0.0469,12.50744 0.0469,36.23565 l 69.4917,1.55302 0,64.05273 188.49609,-82.25195 z" id="path4170" mix-blend-mode="normal" solid-color="#000000" opacity="0.8" color-interpolation-filters="linearRGB" color="#000000" image-rendering="auto" color-rendering="auto" fill-rule="evenodd" stroke-width="64" isolation="auto" color-interpolation="sRGB" solid-opacity="1" fill="none" stroke-linejoin="round" stroke="#ffffff" shape-rendering="auto"/>
 <path d="m 220.70907,207.70412 c 0.31085,21.17968 0.61908,42.3594 0.93164,63.53906 l 68.40769,-0.7887 c 0,23.23553 -0.0469,12.50744 -0.0469,36.23565 l -69.4917,1.55302 0,64.05273 -188.496089,-82.25195 z" id="path2994" fill="#666666"/>
 <path id="path4166" d="m 359.29093,207.70412 c -0.31085,21.17968 -0.61908,42.3594 -0.93164,63.53906 l -68.40769,-0.7887 c 0,23.23553 0.0469,12.50744 0.0469,36.23565 l 69.4917,1.55302 0,64.05273 188.49609,-82.25195 z" fill="#18e0f2"/>
</svg>
