<?xml version="1.0" encoding="UTF-8" standalone="no"?>
<svg version="1.0" width="580" height="580" xmlns="http://www.w3.org/2000/svg">
 <metadata id="metadata10"/>
 <path id="path5209" d="m 410.42373,269.89542 c -70.82196,0 -128.24017,57.41821 -128.24017,128.24016 0,70.82196 57.41821,128.24012 128.24017,128.24012 70.82196,0 128.24018,-57.41816 128.24018,-128.24012 0,-70.82195 -57.41822,-128.24016 -128.24018,-128.24016 z m -5.37661,23.26744 h 2.14596 3.59742 1.45144 c 11.73719,0 11.73579,0.50678 11.79891,13.19053 0.063,9.33927 0.0619,9.33827 9.33819,10.78964 7.13065,1.13586 13.885,3.21779 20.44777,6.12054 3.59687,1.57758 4.983,4.10248 3.84714,7.95178 -1.64068,5.67929 -3.21695,11.42146 -4.98384,17.03765 -1.13585,3.40756 -2.20759,4.98383 -4.2269,4.98383 -1.13585,0 -2.52506,-0.44055 -4.29193,-1.324 -9.08687,-4.41723 -18.61653,-6.56274 -28.58683,-6.56274 -1.26207,0 -2.58768,0.0618 -3.84972,0.12479 -2.96588,0.1893 -5.86714,0.56984 -8.64369,1.76879 -9.8441,4.29102 -11.42308,15.14524 -3.03036,21.8342 4.22791,3.40758 9.08716,5.80433 14.07232,7.88674 8.70824,3.59688 17.4174,7.06818 25.68392,11.61162 25.99852,14.51374 33.06617,47.51705 14.57694,69.98181 -6.68894,8.1403 -15.39684,13.62902 -25.55646,16.40556 -4.41722,1.19896 -6.43799,3.5351 -6.18558,8.14165 0.18932,4.54343 5.7e-4,9.02167 -0.0625,13.56503 0,4.03868 -2.08263,6.18434 -6.05812,6.31046 -2.58723,0.0626 -5.17466,0.12785 -7.76189,0.12785 -2.27173,0 -4.54333,8e-4 -6.81507,-0.0626 -4.291,-0.0626 -6.31043,-2.52536 -6.31043,-6.69016 -0.063,-3.28137 -0.0625,-6.62649 -0.0625,-9.90785 -0.063,-7.31999 -0.31523,-7.57285 -7.31968,-8.70871 -8.96064,-1.45138 -17.79526,-3.46904 -25.99868,-7.44455 -6.43654,-3.15516 -7.13118,-4.73402 -5.30118,-11.54918 1.38825,-5.04824 2.77677,-10.09641 4.35435,-15.08157 1.13585,-3.65998 2.20828,-5.29858 4.16448,-5.29858 1.13587,0 2.58803,0.56666 4.54424,1.57631 9.08686,4.73275 18.74197,7.38421 28.90157,8.64627 1.70379,0.18931 3.4075,0.31475 5.1113,0.31475 4.73274,0 9.33967,-0.88429 13.82,-2.84047 11.29547,-4.92208 13.06095,-17.984 3.53239,-25.80879 -3.21829,-2.65035 -6.94036,-4.60665 -10.78965,-6.31044 -9.90721,-4.35412 -20.19437,-7.63415 -29.53366,-13.25035 -15.14476,-9.08685 -24.73624,-21.52 -23.60039,-39.94613 1.26207,-20.82405 13.06397,-33.82154 32.18424,-40.76289 7.8879,-2.83965 7.94917,-2.77871 7.94917,-10.98213 0,-2.77654 -0.0611,-5.55172 0.065,-8.39136 0.18932,-6.18411 1.19801,-7.25783 7.38212,-7.44715 z" opacity="0.8" fill="none" stroke="#ffffff" vector-effect="none" stroke-linejoin="round" stroke-width="64"/>
 <path id="path4513" d="m 58.416218,42.650931 c -6.002991,8.1e-4 -10.869174,4.86699 -10.869975,10.86998 V 399.26504 c 1.73e-4,4.98825 3.394147,9.33714 7.323352,10.15166 l 49.613545,0.81371 c 6.00299,-8e-4 10.86916,-4.86698 10.86997,-10.86998 v -129.9178 h 77.2421 c 50.62948,0 87.67516,-10.20085 108.68666,-33.32262 21.0115,-23.12176 31.47822,-51.08739 31.47822,-82.80335 0,-18.33711 -3.78123,-35.85807 -11.54526,-51.70674 -7.66651,-15.745179 -18.10613,-28.489889 -31.25936,-37.587539 -13.04455,-9.02249 -28.80658,-14.87765 -46.96106,-17.95763 -13.2947,-2.28508 -31.07171,-3.41382 -54.32556,-3.41382 z m 57.034162,62.731959 h 77.24023 c 20.25753,0 34.39894,1.29585 39.79298,2.69739 9.47125,2.6339 16.72434,7.70392 22.66963,16.1525 5.89757,8.38077 8.93766,18.37373 8.93766,30.90396 0,17.72354 -5.00249,29.53112 -14.88238,38.37133 -9.65505,8.30803 -27.96066,13.87413 -56.03901,13.87413 h -77.71911 z" opacity="0.8" fill="none" stroke="#ffffff" vector-effect="none" stroke-linejoin="round" stroke-width="64"/>
 <path d="m 58.416218,42.650931 c -6.002991,8.1e-4 -10.869174,4.86699 -10.869975,10.86998 V 399.26504 c 1.73e-4,4.98825 3.394147,9.33714 7.323352,10.15166 l 49.613545,0.81371 c 6.00299,-8e-4 10.86916,-4.86698 10.86997,-10.86998 v -129.9178 h 77.2421 c 50.62948,0 87.67516,-10.20085 108.68666,-33.32262 21.0115,-23.12176 31.47822,-51.08739 31.47822,-82.80335 0,-18.33711 -3.78123,-35.85807 -11.54526,-51.70674 -7.66651,-15.745179 -18.10613,-28.489889 -31.25936,-37.587539 -13.04455,-9.02249 -28.80658,-14.87765 -46.96106,-17.95763 -13.2947,-2.28508 -31.07171,-3.41382 -54.32556,-3.41382 z m 57.034162,62.731959 h 77.24023 c 20.25753,0 34.39894,1.29585 39.79298,2.69739 9.47125,2.6339 16.72434,7.70392 22.66963,16.1525 5.89757,8.38077 8.93766,18.37373 8.93766,30.90396 0,17.72354 -5.00249,29.53112 -14.88238,38.37133 -9.65505,8.30803 -27.96066,13.87413 -56.03901,13.87413 h -77.71911 z" id="path4136" fill="#20a0a0"/>
 <path d="m 410.42373,269.89542 c -70.82196,0 -128.24017,57.41821 -128.24017,128.24016 0,70.82196 57.41821,128.24012 128.24017,128.24012 70.82196,0 128.24018,-57.41816 128.24018,-128.24012 0,-70.82195 -57.41822,-128.24016 -128.24018,-128.24016 z m -5.37661,23.26744 h 2.14596 3.59742 1.45144 c 11.73719,0 11.73579,0.50678 11.79891,13.19053 0.063,9.33927 0.0619,9.33827 9.33819,10.78964 7.13065,1.13586 13.885,3.21779 20.44777,6.12054 3.59687,1.57758 4.983,4.10248 3.84714,7.95178 -1.64068,5.67929 -3.21695,11.42146 -4.98384,17.03765 -1.13585,3.40756 -2.20759,4.98383 -4.2269,4.98383 -1.13585,0 -2.52506,-0.44055 -4.29193,-1.324 -9.08687,-4.41723 -18.61653,-6.56274 -28.58683,-6.56274 -1.26207,0 -2.58768,0.0618 -3.84972,0.12479 -2.96588,0.1893 -5.86714,0.56984 -8.64369,1.76879 -9.8441,4.29102 -11.42308,15.14524 -3.03036,21.8342 4.22791,3.40758 9.08716,5.80433 14.07232,7.88674 8.70824,3.59688 17.4174,7.06818 25.68392,11.61162 25.99852,14.51374 33.06617,47.51705 14.57694,69.98181 -6.68894,8.1403 -15.39684,13.62902 -25.55646,16.40556 -4.41722,1.19896 -6.43799,3.5351 -6.18558,8.14165 0.18932,4.54343 5.7e-4,9.02167 -0.0625,13.56503 0,4.03868 -2.08263,6.18434 -6.05812,6.31046 -2.58723,0.0626 -5.17466,0.12785 -7.76189,0.12785 -2.27173,0 -4.54333,8e-4 -6.81507,-0.0626 -4.291,-0.0626 -6.31043,-2.52536 -6.31043,-6.69016 -0.063,-3.28137 -0.0625,-6.62649 -0.0625,-9.90785 -0.063,-7.31999 -0.31523,-7.57285 -7.31968,-8.70871 -8.96064,-1.45138 -17.79526,-3.46904 -25.99868,-7.44455 -6.43654,-3.15516 -7.13118,-4.73402 -5.30118,-11.54918 1.38825,-5.04824 2.77677,-10.09641 4.35435,-15.08157 1.13585,-3.65998 2.20828,-5.29858 4.16448,-5.29858 1.13587,0 2.58803,0.56666 4.54424,1.57631 9.08686,4.73275 18.74197,7.38421 28.90157,8.64627 1.70379,0.18931 3.4075,0.31475 5.1113,0.31475 4.73274,0 9.33967,-0.88429 13.82,-2.84047 11.29547,-4.92208 13.06095,-17.984 3.53239,-25.80879 -3.21829,-2.65035 -6.94036,-4.60665 -10.78965,-6.31044 -9.90721,-4.35412 -20.19437,-7.63415 -29.53366,-13.25035 -15.14476,-9.08685 -24.73624,-21.52 -23.60039,-39.94613 1.26207,-20.82405 13.06397,-33.82154 32.18424,-40.76289 7.8879,-2.83965 7.94917,-2.77871 7.94917,-10.98213 0,-2.77654 -0.0611,-5.55172 0.065,-8.39136 0.18932,-6.18411 1.19801,-7.25783 7.38212,-7.44715 z" id="path5108" fill="#20a0a0" vector-effect="none"/>
</svg>
