<?xml version="1.0" encoding="UTF-8" standalone="no"?>
<svg xmlns="http://www.w3.org/2000/svg" version="1.1" width="435" viewBox="0 0 4833.3333 4833.3333" height="435">
 <metadata id="metadata9"/>
 <path isolation="auto" white-space="normal" mix-blend-mode="normal" id="path4137" d="m 2283.3335,672.22233 0,533.33327 -533.3333,0 0,266.6667 533.3333,0 0,506.6668 -1333.33333,2182.2222 2933.33333,0 -1333.3333,-2177.7778 0,-511.1112 533.3333,0 0,-266.6667 -533.3333,0 0,-533.33327 z" solid-color="#000000" opacity="0.8" color-interpolation-filters="linearRGB" color="#000000" image-rendering="auto" color-rendering="auto" stroke-width="711.1" color-interpolation="sRGB" solid-opacity="1" fill="none" stroke-linejoin="round" stroke="#ffffff" shape-rendering="auto"/>
 <path d="m 2283.3335,672.22233 0,533.33327 -533.3333,0 0,266.6667 533.3333,0 0,506.6668 -1333.33333,2182.2222 2933.33333,0 -1333.3333,-2177.7778 0,-511.1112 533.3333,0 0,-266.6667 -533.3333,0 0,-533.33327 z" id="path4138" mix-blend-mode="normal" white-space="normal" isolation="auto" color-rendering="auto" solid-opacity="1" color-interpolation-filters="linearRGB" shape-rendering="auto" image-rendering="auto" color-interpolation="sRGB" color="#000000" solid-color="#000000"/>
 <path d="m 2417.1113,2272.1113 991,1622 -1982,0 z" id="path4140" mix-blend-mode="normal" isolation="auto" white-space="normal" fill="#aaaaaa" color-rendering="auto" solid-opacity="1" color-interpolation-filters="linearRGB" shape-rendering="auto" image-rendering="auto" color-interpolation="sRGB" color="#000000" solid-color="#000000"/>
</svg>
