<?xml version="1.0" encoding="UTF-8" standalone="no"?>
<svg xmlns="http://www.w3.org/2000/svg" version="1.0" width="580" height="580">
 <metadata id="metadata10"/>
 <path id="path868" d="m 391.4219,65.20906 c -6.40721,16.80447 -6.69272,45.03841 -0.62719,75.26487 L 97.324378,257.88642 v 128.45226 l -32.112566,32.11459 v 96.33767 h 96.339718 v -96.33767 l -32.11459,-32.11459 v -77.08354 l 120.61339,-48.23276 -56.38625,253.76856 h 32.11256 l 21.3874,-96.33767 h 85.67746 l 21.3874,96.33767 h 32.11459 l -62.90985,-283.12067 86.42847,-34.56043 c 0.78677,1.59281 1.4338,3.26142 2.25911,4.83078 25.35426,48.16967 69.92789,84.17117 97.59205,88.06039 10.76143,-28.22357 4.65698,-88.56192 -20.69729,-136.73158 C 463.66172,105.09976 419.08606,69.0986 391.4219,65.20906 Z m -97.46823,178.25198 30.91095,139.12668 H 255.14093 L 285.29884,246.9116 Z" opacity="0.8" paint-order="stroke fill markers" fill="none" stroke="#ffffff" vector-effect="none" stroke-width="64"/>
 <path d="m 391.4219,65.20906 c -6.40721,16.80447 -6.69272,45.03841 -0.62719,75.26487 L 97.324378,257.88642 v 128.45226 l -32.112566,32.11459 v 96.33767 h 96.339718 v -96.33767 l -32.11459,-32.11459 v -77.08354 l 120.61339,-48.23276 -56.38625,253.76856 h 32.11256 l 21.3874,-96.33767 h 85.67746 l 21.3874,96.33767 h 32.11459 l -62.90985,-283.12067 86.42847,-34.56043 c 0.78677,1.59281 1.4338,3.26142 2.25911,4.83078 25.35426,48.16967 69.92789,84.17117 97.59205,88.06039 10.76143,-28.22357 4.65698,-88.56192 -20.69729,-136.73158 C 463.66172,105.09976 419.08606,69.0986 391.4219,65.20906 Z m -97.46823,178.25198 30.91095,139.12668 H 255.14093 L 285.29884,246.9116 Z" id="path837" paint-order="stroke fill markers" fill="#256f25"/>
</svg>
