<?xml version="1.0" encoding="UTF-8" standalone="no"?>
<svg xmlns="http://www.w3.org/2000/svg" version="1.0" width="580" height="580">
 <metadata id="metadata10"/>
 <path mix-blend-mode="normal" white-space="normal" isolation="auto" id="path4137" d="m 127.26077,147.57337 c -11,18 -4,43.00001 16,52.99999 19,11 44,5 56,-12.99998 10,-32.00001 -6,-59.00001 -36,-59.00001 -18,-1 -30,9 -36,19 z m 311.00003,83.99999 0,0 c 2,22 21,39 43,39 22,0 41,-18 39,-40 -1,-22 -20,-38.99998 -42,-38.99998 -22,0 -41,17.99998 -40,39.99998 z m -383.000033,41 c -25,-2 -25.3,28 -7,32 l 63.000003,12 c -7,11 -49.000003,55.00002 -24.000003,60.00002 13.000003,3.99999 48.000003,-39.00002 59.000003,-53.00002 l 134,27 c -15,31.00001 -30,62.00001 -45,94.00001 l 106,0 c -14,-30 -29,-61 -43,-91 l 121.00003,24.00001 c 4,14.99999 13,86.99999 36,71.99999 13,1 -1,-51 -2,-66 l 69,14 c 27,3 32,-26.99999 1,-32.99999 -7,-21.00002 -9,-89.00002 -31,-93.00002 -22,-5 -52,53 -66,74 l -271.00003,-54 c -9,-27 -5,-92 -25,-94.5 -20,-2.49998 -56.000003,47.5 -75.000003,75.5 z" solid-color="#000000" opacity="0.8" color-interpolation-filters="linearRGB" color="#000000" image-rendering="auto" color-rendering="auto" stroke-width="64" color-interpolation="sRGB" solid-opacity="1" fill="none" stroke-linejoin="round" stroke="#ffffff" shape-rendering="auto"/>
 <path d="M 170.16602 128.74219 L 170.16602 145.37305 L 195.15234 145.37305 L 195.15234 143.99023 C 189.61775 135.89664 181.04354 130.37827 170.16602 128.74219 z M 195.15234 145.37305 L 195.15234 170.35938 L 202.21484 170.35938 C 202.51278 160.84032 200.32435 152.26598 196.05078 145.37305 L 195.15234 145.37305 z M 195.15234 170.35938 L 170.16602 170.35938 L 170.16602 195.34375 L 192.09375 195.34375 C 193.15898 194.42037 194.1807 193.43989 195.15234 192.40234 L 195.15234 170.35938 z M 170.16602 195.34375 L 145.17969 195.34375 L 145.17969 201.25391 C 153.04693 205.26558 161.79959 206.50301 170.16602 205.29883 L 170.16602 195.34375 z M 145.17969 195.34375 L 145.17969 170.35938 L 122.35547 170.35938 C 123.47588 179.81894 128.14402 188.9067 135.84375 195.34375 L 145.17969 195.34375 z M 145.17969 170.35938 L 170.16602 170.35938 L 170.16602 145.37305 L 145.17969 145.37305 L 145.17969 170.35938 z M 145.17969 145.37305 L 145.17969 131.32227 C 137.76461 134.55256 132.18839 139.85713 128.45508 145.37305 L 145.17969 145.37305 z M 478.27539 191.2207 C 475.45532 191.2207 472.68567 191.51999 470 192.08203 L 470 195.34375 L 494.98633 195.34375 L 494.98633 194.64648 C 489.81971 192.44519 484.15767 191.2207 478.27539 191.2207 z M 494.98633 195.34375 L 494.98633 220.33008 L 518.54688 220.33008 C 515.11041 209.25964 506.94081 200.27265 496.53711 195.34375 L 494.98633 195.34375 z M 494.98633 220.33008 L 470 220.33008 L 470 245.31641 L 494.98633 245.31641 L 494.98633 220.33008 z M 494.98633 245.31641 L 494.98633 267.81836 C 505.71637 263.95257 514.42137 255.71451 518.27344 245.31641 L 494.98633 245.31641 z M 470 245.31641 L 445.01367 245.31641 L 445.01367 250.47852 C 450.78102 259.29282 459.69848 265.86799 470 268.69141 L 470 245.31641 z M 445.01367 245.31641 L 445.01367 220.33008 L 439.45117 220.33008 C 438.53204 223.79698 438.1039 227.44792 438.27539 231.2207 C 438.73051 236.22707 440.07418 240.96929 442.125 245.31641 L 445.01367 245.31641 z M 445.01367 220.33008 L 470 220.33008 L 470 195.34375 L 460.47852 195.34375 C 454.26714 198.36415 448.9133 202.89811 445.01367 208.44727 L 445.01367 220.33008 z M 120.19336 198.95508 C 112.61005 202.63723 103.94108 210.39203 95.207031 219.91797 L 95.207031 220.33008 L 120.19336 220.33008 L 120.19336 198.95508 z M 120.19336 220.33008 L 120.19336 245.31641 L 145.17969 245.31641 L 145.17969 223.61523 C 144.97606 222.49874 144.76462 221.40264 144.54297 220.33008 L 120.19336 220.33008 z M 145.17969 245.31641 L 145.17969 270.30273 L 151.02734 270.30273 C 149.95884 262.38898 149.09404 253.8023 148.15234 245.31641 L 145.17969 245.31641 z M 145.17969 270.30273 L 120.19336 270.30273 L 120.19336 295.28906 L 145.17969 295.28906 L 145.17969 270.30273 z M 145.17969 295.28906 L 145.17969 320.27539 L 170.16602 320.27539 L 170.16602 295.28906 L 145.17969 295.28906 z M 170.16602 295.28906 L 175.69336 295.28906 L 170.16602 294.1875 L 170.16602 295.28906 z M 170.16602 320.27539 L 170.16602 328.03516 L 195.15234 333.06836 L 195.15234 320.27539 L 170.16602 320.27539 z M 195.15234 320.27539 L 220.13867 320.27539 L 220.13867 304.14453 L 195.15234 299.16602 L 195.15234 320.27539 z M 220.13867 320.27539 L 220.13867 338.10352 L 245.125 343.13867 L 245.125 320.27539 L 220.13867 320.27539 z M 245.125 320.27539 L 270.11133 320.27539 L 270.11133 314.10352 L 245.125 309.125 L 245.125 320.27539 z M 270.11133 320.27539 L 270.11133 345.26172 L 295.0957 345.26172 L 295.0957 320.27539 L 270.11133 320.27539 z M 295.0957 320.27539 L 301.08594 320.27539 L 295.0957 319.08203 L 295.0957 320.27539 z M 295.0957 345.26172 L 295.0957 370.24805 L 306.2832 370.24805 C 303.59549 364.55419 300.90576 358.85722 298.27539 353.2207 L 320.08203 357.54688 L 320.08203 345.26172 L 295.0957 345.26172 z M 320.08203 345.26172 L 345.06836 345.26172 L 345.06836 329.03906 L 320.08203 324.06055 L 320.08203 345.26172 z M 345.06836 345.26172 L 345.06836 362.50195 L 370.05469 367.45703 L 370.05469 345.26172 L 345.06836 345.26172 z M 370.05469 345.26172 L 395.04102 345.26172 L 395.04102 338.99609 L 370.05469 334.01758 L 370.05469 345.26172 z M 395.04102 345.26172 L 395.04102 370.24805 L 420.02734 370.24805 L 420.02734 345.26172 L 395.04102 345.26172 z M 420.02734 345.26172 L 445.01367 345.26172 L 445.01367 320.27539 L 441.7793 320.27539 C 435.67719 330.05666 430.30168 339.18126 426.27539 345.2207 L 420.02734 343.97656 L 420.02734 345.26172 z M 445.01367 320.27539 L 470 320.27539 L 470 295.28906 L 458.63477 295.28906 C 453.9048 301.54336 449.32012 308.40656 445.01367 315.15625 L 445.01367 320.27539 z M 470 295.28906 L 494.98633 295.28906 L 494.98633 272.08398 C 494.11667 271.68749 493.21625 271.39177 492.27539 271.2207 C 485.38869 269.65554 477.71834 274.26446 470 281.97852 L 470 295.28906 z M 494.98633 295.28906 L 494.98633 320.27539 L 515.0918 320.27539 C 513.54027 311.56593 511.73295 302.89265 509.42578 295.28906 L 494.98633 295.28906 z M 494.98633 320.27539 L 470 320.27539 L 470 345.26172 L 494.98633 345.26172 L 494.98633 320.27539 z M 494.98633 345.26172 L 494.98633 370.24805 L 519.9707 370.24805 L 519.9707 349.65625 C 519.71912 348.23856 519.46585 346.76859 519.21484 345.26172 L 494.98633 345.26172 z M 519.9707 370.24805 L 519.9707 395.23438 L 536.28516 395.23438 C 546.35216 390.29197 547.75081 378.09269 537.63867 370.24805 L 519.9707 370.24805 z M 519.9707 395.23438 L 512.48633 395.23438 L 519.9707 396.75391 L 519.9707 395.23438 z M 494.98633 370.24805 L 470 370.24805 L 470 386.61328 L 494.98633 391.68359 L 494.98633 370.24805 z M 470 370.24805 L 470 345.26172 L 445.01367 345.26172 L 445.01367 370.24805 L 470 370.24805 z M 445.01367 370.24805 L 420.02734 370.24805 L 420.02734 380.41602 C 420.82996 384.09392 421.83465 389.36681 423.01953 395.23438 L 445.01367 395.23438 L 445.01367 370.24805 z M 445.01367 395.23438 L 445.01367 420.21875 L 459.23242 420.21875 C 458.00106 411.66701 456.28441 402.64765 454.99219 395.23438 L 445.01367 395.23438 z M 445.01367 420.21875 L 428.88867 420.21875 C 431.7235 430.16822 435.21879 439.43363 439.55664 445.20508 L 445.01367 445.20508 L 445.01367 420.21875 z M 445.01367 445.20508 L 445.01367 450.18359 C 448.08184 451.78841 451.48825 451.69058 455.27539 449.2207 C 457.58786 449.39858 459.03239 447.87469 459.86133 445.20508 L 445.01367 445.20508 z M 395.04102 370.24805 L 384.12109 370.24805 L 395.04102 372.41406 L 395.04102 370.24805 z M 295.0957 370.24805 L 270.5918 370.24805 C 270.43184 370.57914 270.27129 370.90909 270.11133 371.24023 L 270.11133 395.23438 L 295.0957 395.23438 L 295.0957 370.24805 z M 295.0957 395.23438 L 295.0957 420.21875 L 320.08203 420.21875 L 320.08203 399.36719 C 319.42626 397.98782 318.77673 396.61363 318.12109 395.23438 L 295.0957 395.23438 z M 320.08203 420.21875 L 320.08203 444.2207 L 341.27539 444.2207 C 337.56921 436.2789 333.7897 428.26361 329.98047 420.21875 L 320.08203 420.21875 z M 295.0957 420.21875 L 270.11133 420.21875 L 270.11133 444.2207 L 295.0957 444.2207 L 295.0957 420.21875 z M 270.11133 420.21875 L 270.11133 395.23438 L 258.55078 395.23438 C 254.56988 403.52341 250.59027 411.84302 246.60938 420.21875 L 270.11133 420.21875 z M 270.11133 345.26172 L 255.66406 345.26172 L 270.11133 348.17188 L 270.11133 345.26172 z M 145.17969 320.27539 L 120.19336 320.27539 L 120.19336 345.26172 L 127.91211 345.26172 C 135.05795 337.20146 141.23076 329.5873 145.17969 324.5918 L 145.17969 320.27539 z M 120.19336 345.26172 L 95.207031 345.26172 L 95.207031 370.24805 L 102.2832 370.24805 C 107.90687 366.02235 114.1378 360.04894 120.19336 353.67773 L 120.19336 345.26172 z M 95.207031 370.24805 L 79.726562 370.24805 C 80.507019 373.20163 82.827037 375.33103 87.275391 376.2207 C 89.397423 376.87363 92.112686 376.2575 95.207031 374.73633 L 95.207031 370.24805 z M 95.207031 345.26172 L 95.207031 337.13867 C 93.212918 339.7987 91.236424 342.51948 89.384766 345.26172 L 95.207031 345.26172 z M 120.19336 320.27539 L 120.19336 295.28906 L 95.207031 295.28906 L 95.207031 313.16016 L 111.27539 316.2207 C 110.60875 317.26827 109.54934 318.69142 108.33594 320.27539 L 120.19336 320.27539 z M 95.207031 295.28906 L 95.207031 270.30273 L 70.222656 270.30273 L 70.222656 295.28906 L 95.207031 295.28906 z M 70.222656 295.28906 L 45.236328 295.28906 L 45.236328 303.24609 C 46.185236 303.65116 47.195751 303.98472 48.275391 304.2207 L 70.222656 308.40039 L 70.222656 295.28906 z M 45.236328 295.28906 L 45.236328 273.45117 C 35.797583 277.08979 33.409555 287.48549 37.066406 295.28906 L 45.236328 295.28906 z M 70.222656 270.30273 L 70.222656 250.96289 C 65.190339 257.84303 60.564557 264.46888 56.585938 270.30273 L 70.222656 270.30273 z M 95.207031 270.30273 L 120.19336 270.30273 L 120.19336 245.31641 L 95.207031 245.31641 L 95.207031 270.30273 z M 95.207031 245.31641 L 95.207031 220.33008 L 94.830078 220.33008 C 87.872468 227.95718 80.907875 236.67287 74.412109 245.31641 L 95.207031 245.31641 z M 519.9707 226.89648 L 519.9707 238.86523 C 520.42076 236.07799 520.54512 233.18781 520.27539 230.2207 C 520.22439 229.09818 520.11345 227.99137 519.9707 226.89648 z M 245.125 423.35938 C 241.84188 430.27803 238.5585 437.21673 235.27539 444.2207 L 245.125 444.2207 L 245.125 423.35938 z " id="path4266" isolation="auto" color-rendering="auto" white-space="normal" solid-opacity="1" mix-blend-mode="normal" color-interpolation-filters="linearRGB" shape-rendering="auto" image-rendering="auto" color-interpolation="sRGB" color="#000000" solid-color="#000000"/>
</svg>
