<?xml version="1.0" encoding="UTF-8" standalone="no"?>
<svg xmlns="http://www.w3.org/2000/svg" version="1.0" width="580" height="580">
 <metadata id="metadata10"/>
 <path mix-blend-mode="normal" white-space="normal" isolation="auto" id="path4139" d="m 161.4,144.9 c -9.2,12.4 -19.2,25.6 -20,41.7 -2.5,23.3 12.4,44.9 31,57 7.7,5.9 17.5,7.5 26.7,9.5 12,2.2 24,-4.1 31,-13.6 17,-19 30.6,-44 28,-70 C 254,142 237,119 217,101 208,92 197,84 186,76 c -2.9,24.4 -9.6,49 -24.6,68.9 z" solid-color="#256f25" color-interpolation-filters="linearRGB" opacity="0.8" filter-gaussianBlur-deviation="0" color="#256f25" image-rendering="auto" color-rendering="auto" fill-rule="evenodd" stroke-width="64" color-interpolation="sRGB" solid-opacity="1" fill="none" stroke-linejoin="round" filter-blend-mode="normal" stroke="#ffffff" shape-rendering="auto"/>
 <path white-space="normal" isolation="auto" mix-blend-mode="normal" id="path4141" d="m 112.7,539 c -0.6,2.7 1.5,5.2 4.2,5.2 116,0.3 231,-0.6 347,-0.6 2,0 3.6,-1.6 3.6,-3.6 l 0,-103 c 0,-2 -1.6,-3.6 -3.6,-3.6 l -188,0 c -7.5,-62.9 -8.3,-121 -2.6,-181 0.3,-3.2 -3,-5.6 -5.9,-4.3 -43,16.7 -96,14.4 -130,0.1 -2.6,0 -4.6,2.2 -4.35,4.75 C 141.6,344 135.2,432 112.7,539 Z" solid-color="#256f25" opacity="0.8" color-interpolation-filters="linearRGB" filter-gaussianBlur-deviation="0" color="#256f25" image-rendering="auto" color-rendering="auto" fill-rule="evenodd" stroke-width="64" color-interpolation="sRGB" solid-opacity="1" fill="none" stroke-linejoin="round" filter-blend-mode="normal" stroke="#ffffff" shape-rendering="auto"/>
 <path d="m 161.4,144.9 c -9.2,12.4 -19.2,25.6 -20,41.7 -2.5,23.3 12.4,44.9 31,57 7.7,5.9 17.5,7.5 26.7,9.5 12,2.2 24,-4.1 31,-13.6 17,-19 30.6,-44 28,-70 C 254,142 237,119 217,101 208,92 197,84 186,76 c -2.9,24.4 -9.6,49 -24.6,68.9 z" id="path4151" isolation="auto" white-space="normal" mix-blend-mode="normal" fill="#256f25" color-rendering="auto" solid-opacity="1" color-interpolation-filters="linearRGB" shape-rendering="auto" fill-rule="evenodd" image-rendering="auto" color-interpolation="sRGB" color="#256f25" solid-color="#256f25"/>
 <path d="m 239.8,218 c -3.3,5.1 -9.9,15.4 -11.9,16.6 5.7,-17.6 11.8,-36.9 5.6,-55 C 229,161 214,148 200,136 c -4.7,18.8 -13.4,36.5 -25.5,51.6 -7.7,9.2 -12.5,21.7 -9.3,33.6 0.4,5.1 7,15.3 5.9,15.8 -15.6,-11.8 -27.4,-31 -23.9,-51 2.5,-19.5 18.7,-32.5 27,-49 8.2,-15 12.9,-31.8 15.6,-48.7 30.9,24 54.9,47.6 61.1,79.85 4.3,17.35 -1.6,35.45 -11.1,49.85 z" id="path4149" isolation="auto" white-space="normal" mix-blend-mode="normal" opacity="0.9" fill="#ffffff" color-rendering="auto" solid-opacity="1" color-interpolation-filters="linearRGB" shape-rendering="auto" fill-rule="evenodd" image-rendering="auto" color-interpolation="sRGB" color="#256f25" solid-color="#256f25"/>
 <path d="m 203,147 c 28,24 32.7,47.9 20.7,83 -2.8,6.6 -3.2,15.9 -11.6,17.7 C 203,251 193,248 185,245 c -8.4,-11 -17,-25 -13.4,-39.4 3.8,-11.4 13,-19.6 18.7,-30 5.4,-9.1 9.7,-18.9 13,-28.9 z" id="path4145" isolation="auto" white-space="normal" mix-blend-mode="normal" opacity="0.8" fill="#ffffff" color-rendering="auto" solid-opacity="1" color-interpolation-filters="linearRGB" shape-rendering="auto" fill-rule="evenodd" image-rendering="auto" color-interpolation="sRGB" color="#256f25" solid-color="#256f25"/>
 <path d="m 112.7,539 c -0.6,2.7 1.5,5.2 4.2,5.2 116,0.3 231,-0.6 347,-0.6 2,0 3.6,-1.6 3.6,-3.6 l 0,-103 c 0,-2 -1.6,-3.6 -3.6,-3.6 l -188,0 c -7.5,-62.9 -8.3,-121 -2.6,-181 0.3,-3.2 -3,-5.6 -5.9,-4.3 -43,16.7 -96,14.4 -130,0.1 -2.6,0 -4.6,2.2 -4.35,4.75 C 141.6,344 135.2,432 112.7,539 Z" id="rect3172" mix-blend-mode="normal" isolation="auto" white-space="normal" fill="#256f25" color-rendering="auto" solid-opacity="1" color-interpolation-filters="linearRGB" shape-rendering="auto" image-rendering="auto" color-interpolation="sRGB" color="#256f25" solid-color="#256f25"/>
</svg>
