<?xml version="1.0" encoding="UTF-8" standalone="no"?>
<svg xmlns="http://www.w3.org/2000/svg" version="1.0" width="580" height="580">
 <metadata id="metadata10"/>
 <path id="path4138" d="m 212.6,539 c -0.1,2.2 1.6,3.9 3.8,4 82,1.2 146,0.9 229,0.9 2.1,0 3.8,-1.7 3.8,-3.8 l 0,-110 c 0,-2.1 -1.7,-3.8 -3.8,-3.8 l -174,0 -5.7,-242 c -3.4,-5.7 -39,-7.7 -39.7,-1.25 z" mix-blend-mode="normal" isolation="auto" white-space="normal" solid-color="#256f25" opacity="0.8" color-interpolation-filters="linearRGB" filter-gaussianBlur-deviation="0" color="#256f25" image-rendering="auto" color-rendering="auto" fill-rule="evenodd" stroke-width="64" color-interpolation="sRGB" solid-opacity="1" fill="none" stroke-linejoin="round" filter-blend-mode="normal" stroke="#ffffff" shape-rendering="auto"/>
 <path id="path4140" d="m 191,79.5 c 7.7,35.8 18.5,70.9 25.5,107 -27,45 -60,86 -83,125 -8.9,15.9 10.3,6.5 15.3,0 34,-28.8 64,-62 98,-92 13.2,-5.5 28.9,0.7 42.9,0.6 35.7,3.2 71,8.8 107,8.3 21,-2.5 -7.4,-14.5 -15,-16 -39.8,-13.9 -81,-22.7 -121,-36.6 -11,-9 -15.8,-25.4 -20.7,-37.5 C 235,127 199,31.9 187,36.5 c -5.2,13.3 2.3,29 4,43 z" mix-blend-mode="normal" solid-color="#256f25" opacity="0.8" color-interpolation-filters="linearRGB" filter-gaussianBlur-deviation="0" color="#256f25" image-rendering="auto" color-rendering="auto" fill-rule="evenodd" stroke-width="64" isolation="auto" color-interpolation="sRGB" solid-opacity="1" fill="none" stroke-linejoin="round" filter-blend-mode="normal" stroke="#ffffff" shape-rendering="auto"/>
 <path id="path4147" d="m 212.6,539 c -0.1,2.2 1.6,3.9 3.8,4 82,1.2 146,0.9 229,0.9 2.1,0 3.8,-1.7 3.8,-3.8 l 0,-110 c 0,-2.1 -1.7,-3.8 -3.8,-3.8 l -174,0 -5.7,-242 c -3.4,-5.7 -39,-7.7 -39.7,-1.25 z" mix-blend-mode="normal" isolation="auto" white-space="normal" fill="#ffffff" color-rendering="auto" solid-opacity="1" color-interpolation-filters="linearRGB" shape-rendering="auto" image-rendering="auto" color-interpolation="sRGB" color="#256f25" solid-color="#256f25"/>
 <path white-space="normal" isolation="auto" mix-blend-mode="normal" d="m 212.6,539 c -0.1,2.2 1.6,3.9 3.8,4 82,1.2 146,0.9 229,0.9 2.1,0 3.8,-1.7 3.8,-3.8 l 0,-110 c 0,-2.1 -1.7,-3.8 -3.8,-3.8 l -174,0 -5.7,-242 c -3.4,-5.7 -39,-7.7 -39.7,-1.25 z" id="rect3947" opacity="0.8" fill="#256f25" color-rendering="auto" solid-opacity="1" color-interpolation-filters="linearRGB" shape-rendering="auto" image-rendering="auto" color-interpolation="sRGB" color="#256f25" solid-color="#256f25"/>
 <path d="m 191,79.5 c 7.7,35.8 18.5,70.9 25.5,107 -27,45 -60,86 -83,125 -8.9,15.9 10.3,6.5 15.3,0 34,-28.8 64,-62 98,-92 13.2,-5.5 28.9,0.7 42.9,0.6 35.7,3.2 71,8.8 107,8.3 21,-2.5 -7.4,-14.5 -15,-16 -39.8,-13.9 -81,-22.7 -121,-36.6 -11,-9 -15.8,-25.4 -20.7,-37.5 C 235,127 199,31.9 187,36.5 c -5.2,13.3 2.3,29 4,43 z" id="path3051" fill="#256f25"/>
</svg>
