<?xml version="1.0" encoding="UTF-8" standalone="no"?>
<svg xmlns="http://www.w3.org/2000/svg" version="1.0" width="580" height="580">
 <metadata id="metadata2975"/>
 <path id="path4165" d="m 35.8,478 175,0 0,-34 -175,0 z" fill="#ffffff"/>
 <path id="path4168" d="m 234,479 133,0 -28,-120 c -28.8,22.9 -78,22.9 -105,9.1 z" mix-blend-mode="normal" solid-color="#256f25" opacity="0.8" color-interpolation-filters="linearRGB" filter-gaussianBlur-deviation="0" color="#256f25" image-rendering="auto" color-rendering="auto" stroke-width="64" isolation="auto" color-interpolation="sRGB" solid-opacity="1" fill="none" stroke-linejoin="round" filter-blend-mode="normal" stroke="#ffffff" shape-rendering="auto"/>
 <path id="path4167" d="m 483.5,445.5 c -12.5,4.8 -26.7,3.3 -38.6,-2.6 -13.9,-5.2 -27.6,-2 -39.9,3.1 -7.1,2.3 -14.9,3.1 -22.3,1.6 l 6.5,29 c 8.6,0.3 16.9,-2.3 24.7,-5.9 11.9,-4.3 25.4,-2.9 36.6,2.8 12.5,4.9 26.9,3.8 38.9,-2.2 12.3,-4.9 26.6,-3.8 38,2.2 4.9,1.4 13.2,4.6 16.8,2.1 l 0,-27 c -14.20667,-0.19172 -25.27102,-8.61213 -38.4,-8.55 -7.6,0.05 -15.3,2.15 -22.3,5.45 z" fill="#ffffff"/>
 <path id="path4170" d="m 233,102 0,96 c 22.7442,-8.85499 45.25831,-13.24729 65.3,-9.3 L 281,115 c -4,-8 -11,-13 -20,-13 z" mix-blend-mode="normal" solid-color="#256f25" opacity="0.8" color-interpolation-filters="linearRGB" filter-gaussianBlur-deviation="0" color="#256f25" image-rendering="auto" color-rendering="auto" stroke-width="64" isolation="auto" color-interpolation="sRGB" solid-opacity="1" fill="none" stroke-linejoin="round" filter-blend-mode="normal" stroke="#ffffff" shape-rendering="auto"/>
 <path id="path4169" d="m 35.8,426 175,0 0,-34 -175,0 z" fill="#ffffff"/>
 <path id="path4172" d="m 280,366 c 44,0 83,-38 82,-81.9 -0.3,-49 -39.6,-81 -84,-82 -44,-0.2 -80,35.8 -80,81 1,43.9 37,82.9 82,82.9 z" mix-blend-mode="normal" solid-color="#256f25" opacity="0.8" color-interpolation-filters="linearRGB" filter-gaussianBlur-deviation="0" color="#256f25" image-rendering="auto" color-rendering="auto" stroke-width="64" isolation="auto" color-interpolation="sRGB" solid-opacity="1" fill="none" stroke-linejoin="round" filter-blend-mode="normal" stroke="#ffffff" shape-rendering="auto"/>
 <path id="path4171" d="m 483.5,393.5 c -12.5,4.9 -26.7,3.5 -38.6,-2.5 -14.2,-5.5 -27.9,-2.2 -40.6,2.9 -10.8,3.6 -22.8,2.9 -33,-1.8 l 7,31 c 11.5,3.2 23.9,1.4 34.5,-3.9 12.2,-4.8 26,-3.5 37.8,2.4 12.9,5.1 27.6,3.5 39.9,-2.6 12,-4.5 25.9,-3.2 37,2.6 4.8,1.2 14,5.3 16.8,1.7 l 0,-26.8 c -14.21529,-0.15722 -25.32736,-8.70027 -38.45,-8.5 -7.65,0.1 -15.35,2.2 -22.35,5.5 z" fill="#ffffff"/>
 <path id="path4174" d="m 35.8,478 175,0 0,-34 -175,0 z" mix-blend-mode="normal" solid-color="#256f25" opacity="0.8" color-interpolation-filters="linearRGB" filter-gaussianBlur-deviation="0" color="#256f25" image-rendering="auto" color-rendering="auto" stroke-width="64" isolation="auto" color-interpolation="sRGB" solid-opacity="1" fill="none" stroke-linejoin="round" filter-blend-mode="normal" stroke="#ffffff" shape-rendering="auto"/>
 <path id="path4173" d="m 36.2,374 175,0 0,-24.4 C 207,347.2 200.5,340 200.5,340 l -164.25,0 z" fill="#ffffff"/>
 <path id="path4176" d="m 483.5,445.5 c -12.5,4.8 -26.7,3.3 -38.6,-2.6 -13.9,-5.2 -27.6,-2 -39.9,3.1 -7.1,2.3 -14.9,3.1 -22.3,1.6 l 6.5,29 c 8.6,0.3 16.9,-2.3 24.7,-5.9 11.9,-4.3 25.4,-2.9 36.6,2.8 12.5,4.9 26.9,3.8 38.9,-2.2 12.3,-4.9 26.6,-3.8 38,2.2 4.9,1.4 13.2,4.6 16.8,2.1 l 0,-27 c -14.20667,-0.19172 -25.27102,-8.61213 -38.4,-8.55 -7.6,0.05 -15.3,2.15 -22.3,5.45 z" mix-blend-mode="normal" solid-color="#256f25" opacity="0.8" color-interpolation-filters="linearRGB" filter-gaussianBlur-deviation="0" color="#256f25" image-rendering="auto" color-rendering="auto" stroke-width="64" isolation="auto" color-interpolation="sRGB" solid-opacity="1" fill="none" stroke-linejoin="round" filter-blend-mode="normal" stroke="#ffffff" shape-rendering="auto"/>
 <path id="path4175" d="m 35.8,322 156,0 c -5.1,-10.6 -8,-22.3 -8.4,-34 l -147.2,0 z" fill="#ffffff"/>
 <path id="path4178" d="m 35.8,426 175,0 0,-34 -175,0 z" mix-blend-mode="normal" solid-color="#256f25" opacity="0.8" color-interpolation-filters="linearRGB" filter-gaussianBlur-deviation="0" color="#256f25" image-rendering="auto" color-rendering="auto" stroke-width="64" isolation="auto" color-interpolation="sRGB" solid-opacity="1" fill="none" stroke-linejoin="round" filter-blend-mode="normal" stroke="#ffffff" shape-rendering="auto"/>
 <path id="path4177" d="m 35.5,271 148,0 c 1.3,-11.9 5.1,-23.6 11,-34 l -158.95,0 z" fill="#ffffff"/>
 <path id="path4180" d="m 483.5,393.5 c -12.5,4.9 -26.7,3.5 -38.6,-2.5 -14.2,-5.5 -27.9,-2.2 -40.6,2.9 -10.8,3.6 -22.8,2.9 -33,-1.8 l 7,31 c 11.5,3.2 23.9,1.4 34.5,-3.9 12.2,-4.8 26,-3.5 37.8,2.4 12.9,5.1 27.6,3.5 39.9,-2.6 12,-4.5 25.9,-3.2 37,2.6 4.8,1.2 14,5.3 16.8,1.7 l 0,-26.8 c -14.21529,-0.15722 -25.32736,-8.70027 -38.45,-8.5 -7.65,0.1 -15.35,2.2 -22.35,5.5 z" mix-blend-mode="normal" solid-color="#256f25" opacity="0.8" color-interpolation-filters="linearRGB" filter-gaussianBlur-deviation="0" color="#256f25" image-rendering="auto" color-rendering="auto" stroke-width="64" isolation="auto" color-interpolation="sRGB" solid-opacity="1" fill="none" stroke-linejoin="round" filter-blend-mode="normal" stroke="#ffffff" shape-rendering="auto"/>
 <path id="path4179" d="m 35,185 0,34 172,0 c 3.2,-2 3.1,-5.2 2.9,-8.6 l 0.05,-25.5 z" fill="#ffffff"/>
 <path id="path4182" d="m 36.2,374 175,0 0,-24.4 C 207,347.2 200.5,340 200.5,340 l -164.25,0 z" mix-blend-mode="normal" solid-color="#256f25" opacity="0.8" color-interpolation-filters="linearRGB" filter-gaussianBlur-deviation="0" color="#256f25" image-rendering="auto" color-rendering="auto" stroke-width="64" isolation="auto" color-interpolation="sRGB" solid-opacity="1" fill="none" stroke-linejoin="round" filter-blend-mode="normal" stroke="#ffffff" shape-rendering="auto"/>
 <path id="path4181" d="m 35.5,167 175,0 0,-34 -175,0 z" fill="#ffffff"/>
 <path id="path4184" d="m 35.8,322 156,0 c -5.1,-10.6 -8,-22.3 -8.4,-34 l -147.2,0 z" mix-blend-mode="normal" solid-color="#256f25" opacity="0.8" color-interpolation-filters="linearRGB" filter-gaussianBlur-deviation="0" color="#256f25" image-rendering="auto" color-rendering="auto" stroke-width="64" isolation="auto" color-interpolation="sRGB" solid-opacity="1" fill="none" stroke-linejoin="round" filter-blend-mode="normal" stroke="#ffffff" shape-rendering="auto"/>
 <path id="path4186" d="m 35.5,271 148,0 c 1.3,-11.9 5.1,-23.6 11,-34 l -158.95,0 z" mix-blend-mode="normal" solid-color="#256f25" opacity="0.8" color-interpolation-filters="linearRGB" filter-gaussianBlur-deviation="0" color="#256f25" image-rendering="auto" color-rendering="auto" stroke-width="64" isolation="auto" color-interpolation="sRGB" solid-opacity="1" fill="none" stroke-linejoin="round" filter-blend-mode="normal" stroke="#ffffff" shape-rendering="auto"/>
 <path id="path4188" d="m 35,185 0,34 172,0 c 3.2,-2 3.1,-5.2 2.9,-8.6 l 0.05,-25.5 z" mix-blend-mode="normal" solid-color="#256f25" opacity="0.8" color-interpolation-filters="linearRGB" filter-gaussianBlur-deviation="0" color="#256f25" image-rendering="auto" color-rendering="auto" stroke-width="64" isolation="auto" color-interpolation="sRGB" solid-opacity="1" fill="none" stroke-linejoin="round" filter-blend-mode="normal" stroke="#ffffff" shape-rendering="auto"/>
 <path id="path4190" d="m 35.5,167 175,0 0,-34 -175,0 z" mix-blend-mode="normal" solid-color="#256f25" opacity="0.8" color-interpolation-filters="linearRGB" filter-gaussianBlur-deviation="0" color="#256f25" image-rendering="auto" color-rendering="auto" stroke-width="64" isolation="auto" color-interpolation="sRGB" solid-opacity="1" fill="none" stroke-linejoin="round" filter-blend-mode="normal" stroke="#ffffff" shape-rendering="auto"/>
 <path d="m 234,479 133,0 -28,-120 c -28.8,22.9 -78,22.9 -105,9.1 z" id="path4142" fill="#256f25"/>
 <path d="m 233,102 0,96 c 22.7442,-8.85499 45.25831,-13.24729 65.3,-9.3 L 281,115 c -4,-8 -11,-13 -20,-13 z" id="path4140" fill="#256f25"/>
 <path d="m 280,366 c 44,0 83,-38 82,-81.9 -0.3,-49 -39.6,-81 -84,-82 -44,-0.2 -80,35.8 -80,81 1,43.9 37,82.9 82,82.9 z" id="path4916" fill="#256f25"/>
 <path d="m 280,357 c -39.9,0 -72,-32 -72,-72 0,-39.8 32,-72 72,-72 39.9,0 72,32 72,72 0,39.8 -32,72 -72,72 z" id="path4220" fill="#ffffff"/>
 <path d="m 221,229 52,56 c 7,24 13,50 19,73 12,5 38,-18 47,-25 l -54,-54 -20,-73 c -17,6 -31,13 -44,23 z" id="path4164" opacity="0.6" fill="#256f25"/>
 <path d="m 35.8,478 175,0 0,-34 -175,0 z" id="path4162" opacity="0.6" fill="#256f25"/>
 <path d="m 483.5,445.5 c -12.5,4.8 -26.7,3.3 -38.6,-2.6 -13.9,-5.2 -27.6,-2 -39.9,3.1 -7.1,2.3 -14.9,3.1 -22.3,1.6 l 6.5,29 c 8.6,0.3 16.9,-2.3 24.7,-5.9 11.9,-4.3 25.4,-2.9 36.6,2.8 12.5,4.9 26.9,3.8 38.9,-2.2 12.3,-4.9 26.6,-3.8 38,2.2 4.9,1.4 13.2,4.6 16.8,2.1 l 0,-27 c -14.20667,-0.19172 -25.27102,-8.61213 -38.4,-8.55 -7.6,0.05 -15.3,2.15 -22.3,5.45 z" id="path4160" opacity="0.6" fill="#256f25"/>
 <path d="m 35.8,426 175,0 0,-34 -175,0 z" id="path4158" opacity="0.6" fill="#256f25"/>
 <path d="m 483.5,393.5 c -12.5,4.9 -26.7,3.5 -38.6,-2.5 -14.2,-5.5 -27.9,-2.2 -40.6,2.9 -10.8,3.6 -22.8,2.9 -33,-1.8 l 7,31 c 11.5,3.2 23.9,1.4 34.5,-3.9 12.2,-4.8 26,-3.5 37.8,2.4 12.9,5.1 27.6,3.5 39.9,-2.6 12,-4.5 25.9,-3.2 37,2.6 4.8,1.2 14,5.3 16.8,1.7 l 0,-26.8 c -14.21529,-0.15722 -25.32736,-8.70027 -38.45,-8.5 -7.65,0.1 -15.35,2.2 -22.35,5.5 z" id="path4156" opacity="0.6" fill="#256f25"/>
 <path d="m 36.2,374 175,0 0,-24.4 C 207,347.2 200.5,340 200.5,340 l -164.25,0 z" id="path4154" opacity="0.6" fill="#256f25"/>
 <path d="m 35.8,322 156,0 c -5.1,-10.6 -8,-22.3 -8.4,-34 l -147.2,0 z" id="path4152" opacity="0.6" fill="#256f25"/>
 <path d="m 35.5,271 148,0 c 1.3,-11.9 5.1,-23.6 11,-34 l -158.95,0 z" id="path4150" opacity="0.6" fill="#256f25"/>
 <path d="m 35,185 0,34 172,0 c 3.2,-2 3.1,-5.2 2.9,-8.6 l 0.05,-25.5 z" id="path4148" opacity="0.6" fill="#256f25"/>
 <path d="m 35.5,167 175,0 0,-34 -175,0 z" id="path4157" opacity="0.6" fill="#256f25"/>
 <path d="m 280.6,293.5 c 5.3,0 9.6,-4.3 9.6,-9.5 0,-5.3 -4.3,-9.5 -9.6,-9.5 -5.3,0 -9.6,4.3 -9.6,9.5 0,5.3 4.3,9.5 9.6,9.5 z" id="path4218" fill="#256f25"/>
</svg>
