<?xml version="1.0" encoding="UTF-8" standalone="no"?>
<svg xmlns="http://www.w3.org/2000/svg" version="1.0" width="580" height="580">
 <metadata id="metadata10"/>
 <path white-space="normal" isolation="auto" mix-blend-mode="normal" id="path4137" d="m 83,519 c -0.6,2.9 1.4,5.7 4.3,6 l 424,0 c 2.2,-0.1 4,-1.9 4,-4.2 L 515,400 c -0.1,-2.2 -1.9,-4 -4.2,-4 L 296,396 c -9,-74 -10,-142 -4,-212 0.3,-3.6 -3.1,-6.2 -6.5,-5.1 C 231,197 159,198 113,179 c -3.4,-1.7 -6.8,2.5 -6.8,4.95 C 117,291 109,393 83,519 Z" solid-color="#256f25" opacity="0.8" color-interpolation-filters="linearRGB" filter-gaussianBlur-deviation="0" color="#256f25" image-rendering="auto" color-rendering="auto" fill-rule="evenodd" stroke-width="64" color-interpolation="sRGB" solid-opacity="1" fill="none" stroke-linejoin="round" filter-blend-mode="normal" stroke="#ffffff" shape-rendering="auto"/>
 <path d="m 83,519 c -0.6,2.9 1.4,5.7 4.3,6 l 424,0 c 2.2,-0.1 4,-1.9 4,-4.2 L 515,400 c -0.1,-2.2 -1.9,-4 -4.2,-4 L 296,396 c -9,-74 -10,-142 -4,-212 0.3,-3.6 -3.1,-6.2 -6.5,-5.1 C 231,197 159,198 113,179 c -3.4,-1.7 -6.8,2.5 -6.8,4.95 C 117,291 109,393 83,519 Z" id="rect3947" mix-blend-mode="normal" isolation="auto" white-space="normal" fill="#256f25" color-rendering="auto" solid-opacity="1" color-interpolation-filters="linearRGB" shape-rendering="auto" image-rendering="auto" color-interpolation="sRGB" color="#256f25" solid-color="#256f25"/>
 <path d="M 124.5293,349.79883 176,350 c -0.0626,-7.97099 4.17603,-15.35688 11.08984,-19.32422 l -25.9248,-44.57129 c -22.56106,13.22479 -36.58236,37.45286 -36.63574,63.69434 z" id="path4142" opacity="0.8" fill="#ffffff"/>
 <path d="m 209,331 c 6.7481,3.87586 10.95759,11.01782 11.08008,18.79883 L 272,350 c -0.0639,-26.39625 -14.25869,-50.73695 -37.10059,-63.89551 z" id="path4140" opacity="0.8" fill="#ffffff"/>
 <path d="m 183.2793,349.79883 c 6.1e-4,8.12945 6.59125,14.71922 14.7207,14.71875 8.12945,4.7e-4 14.72009,-6.5893 14.7207,-14.71875 4.7e-4,-8.13022 -6.59048,-14.72118 -14.7207,-14.72071 -8.13022,-4.7e-4 -14.72117,6.59049 -14.7207,14.72071 z" id="path4138" opacity="0.8" fill="#ffffff"/>
 <path d="m 161,414 c 22.88559,13.00871 50.97644,12.80391 73.66992,-0.53711 L 209,369 c -6.83542,3.90376 -15.23219,3.87325 -22.01953,-0.04 z" id="path4152" opacity="0.8" fill="#ffffff"/>
</svg>
