<?xml version="1.0" encoding="UTF-8" standalone="no"?>
<svg xmlns="http://www.w3.org/2000/svg" version="1.0" width="580" height="580">
 <metadata id="metadata10"/>
 <path d="m 229.85156,68.023438 c -8.03095,0.91126 -43.23692,1.35525 -42.28716,9.34375 -25.78669,6.997437 1.31437,13.063406 11.56841,13.28125 -8.93475,7.35709 15.22018,9.327964 15.83008,9.425782 -5.87547,1.78184 -7.32267,3.49365 -7.33552,5.2442 -13.10522,1.99201 -14.49999,7.70571 -2.4282,10.67963 -3.22089,0.9524 -5.49269,2.0177 -6.69336,3.13867 -3.40775,1.33681 -11.47602,1.92745 -10.94146,6.23047 -13.85656,3.18814 -13.45616,7.70463 -1.72656,10.80664 -1.0685,0.63223 -1.77859,1.28598 -2.11719,1.94922 -10.26719,1.70733 -16.20272,4.22376 -16.2207,6.87695 -4.45344,0.92612 -9.76221,2.72716 -10.00005,6 0,4.97056 20.37104,9 45.5,9 19.85312,-8.8e-4 37.41137,-2.54782 43.38281,-6.29297 4.48909,0.68839 40.51136,-3.18952 32.52344,-11.05859 7.99708,-0.97585 14.27063,-2.41751 17.95898,-4.12696 3.48872,-1.00312 13.72901,-3.10449 8.04102,-7.87304 4.99372,-1.17277 22.40032,-2.41322 21.5412,-7.94727 9.49793,-1.129 16.58651,-2.90479 19.93554,-4.99414 4.48909,0.68839 41.08451,-2.8711 32.52344,-11.05859 10.62349,-0.38847 32.39421,-6.833004 14.1738,-12.568362 5.52248,-0.248351 24.85634,-4.382221 14.76367,-10.082031 3.68563,-1.20491 4.53921,-2.902762 1.0625,-5.349609 17.66802,-0.586154 28.94958,-9.169231 10.55859,-13.507813 -25.12441,-9.116923 -48.78598,-9.243407 -74.45507,-4.894531 -17.59159,-2.433687 -33.37374,-2.908486 -50.04493,-1.320313 -16.82021,-3.083364 -69.92319,-0.433598 -65.11328,9.097657 z" id="path4142" mix-blend-mode="normal" solid-color="#256f25" color-interpolation-filters="linearRGB" color="#256f25" image-rendering="auto" color-rendering="auto" isolation="auto" color-interpolation="sRGB" solid-opacity="1" fill="#ffffff" shape-rendering="auto"/>
 <path d="m 229.85156,68.023438 c -8.03095,0.91126 -43.23692,1.35525 -42.28716,9.34375 -25.78669,6.997437 1.31437,13.063406 11.56841,13.28125 -8.93475,7.35709 15.22018,9.327964 15.83008,9.425782 -5.87547,1.78184 -7.32267,3.49365 -7.33552,5.2442 -13.10522,1.99201 -14.49999,7.70571 -2.4282,10.67963 -3.22089,0.9524 -5.49269,2.0177 -6.69336,3.13867 -3.40775,1.33681 -11.47602,1.92745 -10.94146,6.23047 -13.85656,3.18814 -13.45616,7.70463 -1.72656,10.80664 -1.0685,0.63223 -1.77859,1.28598 -2.11719,1.94922 -10.26719,1.70733 -16.20272,4.22376 -16.2207,6.87695 -4.45344,0.92612 -9.76221,2.72716 -10.00005,6 0,4.97056 20.37104,9 45.5,9 19.85312,-8.8e-4 37.41137,-2.54782 43.38281,-6.29297 4.48909,0.68839 40.51136,-3.18952 32.52344,-11.05859 7.99708,-0.97585 14.27063,-2.41751 17.95898,-4.12696 3.48872,-1.00312 13.72901,-3.10449 8.04102,-7.87304 4.99372,-1.17277 22.40032,-2.41322 21.5412,-7.94727 9.49793,-1.129 16.58651,-2.90479 19.93554,-4.99414 4.48909,0.68839 41.08451,-2.8711 32.52344,-11.05859 10.62349,-0.38847 32.39421,-6.833004 14.1738,-12.568362 5.52248,-0.248351 24.85634,-4.382221 14.76367,-10.082031 3.68563,-1.20491 4.53921,-2.902762 1.0625,-5.349609 17.66802,-0.586154 28.94958,-9.169231 10.55859,-13.507813 -25.12441,-9.116923 -48.78598,-9.243407 -74.45507,-4.894531 -17.59159,-2.433687 -33.37374,-2.908486 -50.04493,-1.320313 -16.82021,-3.083364 -69.92319,-0.433598 -65.11328,9.097657 z" id="path4492" mix-blend-mode="normal" solid-color="#256f25" opacity="0.8" color-interpolation-filters="linearRGB" filter-gaussianBlur-deviation="0" color="#256f25" image-rendering="auto" color-rendering="auto" fill-rule="evenodd" stroke-width="64" isolation="auto" color-interpolation="sRGB" solid-opacity="1" fill="none" stroke-linejoin="round" filter-blend-mode="normal" stroke="#ffffff" shape-rendering="auto"/>
 <path id="path4316" d="m 76.1,520 c -0.7,3.1 1.7,6 4.9,6 144,0 287,-1 430,-1 2.3,0 4.2,-1.9 4.2,-4.2 l 0,-121 c 0,-2.3 -1.9,-4.2 -4.2,-4.2 l -221,0 c -8.8,-74 -9.7,-142 -3.1,-211 0.4,-3.8 -3.5,-6.6 -7,-5 -54.6,18.4 -127,19 -172,0 -4.4,-1.7 -7.2,2.3 -7.45,5.2 C 110.2,292 102.6,395 76.1,520 Z" mix-blend-mode="normal" solid-color="#256f25" opacity="0.8" color-interpolation-filters="linearRGB" filter-gaussianBlur-deviation="0" color="#256f25" image-rendering="auto" color-rendering="auto" fill-rule="evenodd" stroke-width="64" isolation="auto" color-interpolation="sRGB" solid-opacity="1" fill="none" stroke-linejoin="round" filter-blend-mode="normal" stroke="#ffffff" shape-rendering="auto"/>
 <path d="m 76.1,520 c -0.7,3.1 1.7,6 4.9,6 144,0 287,-1 430,-1 2.3,0 4.2,-1.9 4.2,-4.2 l 0,-121 c 0,-2.3 -1.9,-4.2 -4.2,-4.2 l -221,0 c -8.8,-74 -9.7,-142 -3.1,-211 0.4,-3.8 -3.5,-6.6 -7,-5 -54.6,18.4 -127,19 -172,0 -4.4,-1.7 -7.2,2.3 -7.45,5.2 C 110.2,292 102.6,395 76.1,520 Z" id="rect3172" fill="#256f25"/>
 <path id="path4449" d="m 229.85156,68.023438 c -8.03095,0.91126 -43.23692,1.35525 -42.28716,9.34375 -25.78669,6.997437 1.31437,13.063406 11.56841,13.28125 -8.93475,7.35709 15.22018,9.327964 15.83008,9.425782 -5.87547,1.78184 -7.32267,3.49365 -7.33552,5.2442 -13.10522,1.99201 -14.49999,7.70571 -2.4282,10.67963 -3.22089,0.9524 -5.49269,2.0177 -6.69336,3.13867 -3.40775,1.33681 -11.47602,1.92745 -10.94146,6.23047 -13.85656,3.18814 -13.45616,7.70463 -1.72656,10.80664 -1.0685,0.63223 -1.77859,1.28598 -2.11719,1.94922 -10.26719,1.70733 -16.20272,4.22376 -16.2207,6.87695 -4.45344,0.92612 -9.76221,2.72716 -10.00005,6 0,4.97056 20.37104,9 45.5,9 19.85312,-8.8e-4 37.41137,-2.54782 43.38281,-6.29297 4.48909,0.68839 40.51136,-3.18952 32.52344,-11.05859 7.99708,-0.97585 14.27063,-2.41751 17.95898,-4.12696 3.48872,-1.00312 13.72901,-3.10449 8.04102,-7.87304 4.99372,-1.17277 22.40032,-2.41322 21.5412,-7.94727 9.49793,-1.129 16.58651,-2.90479 19.93554,-4.99414 4.48909,0.68839 41.08451,-2.8711 32.52344,-11.05859 10.62349,-0.38847 32.39421,-6.833004 14.1738,-12.568362 5.52248,-0.248351 24.85634,-4.382221 14.76367,-10.082031 3.68563,-1.20491 4.53921,-2.902762 1.0625,-5.349609 17.66802,-0.586154 28.94958,-9.169231 10.55859,-13.507813 -25.12441,-9.116923 -48.78598,-9.243407 -74.45507,-4.894531 -17.59159,-2.433687 -33.37374,-2.908486 -50.04493,-1.320313 -16.82021,-3.083364 -69.92319,-0.433598 -65.11328,9.097657 z" mix-blend-mode="normal" solid-color="#256f25" opacity="0.4" color-interpolation-filters="linearRGB" color="#256f25" image-rendering="auto" color-rendering="auto" isolation="auto" color-interpolation="sRGB" solid-opacity="1" fill="#256f25" shape-rendering="auto"/>
</svg>
