<?xml version="1.0" encoding="UTF-8" standalone="no"?>
<svg version="1.0" width="580" height="580" xmlns="http://www.w3.org/2000/svg">
 <metadata id="metadata2975"/>
 <path d="m 144.18226,370.89747 c 46.59871,50.98237 94.44007,101.37191 141.6601,152.35427 8.51203,2.78625 4.47348,-9.48509 5.28119,-14.40549 l -0.31066,-44.87632 c -5.59185,-8.65515 -14.10388,-15.6504 -20.8141,-23.65345 0,0 -118.05008,-129.23436 -119.91403,-129.82718 -7.02087,-2.90481 -5.52972,12.03421 -5.74718,14.73153 -0.21745,14.8501 -0.77664,30.26337 -0.15532,45.67664 z m 8.69842,-77.06636 c -3.04445,2.96409 5.59185,9.42581 9.31975,13.63482 L 295.1621,451.52074 c 5.90251,2.01558 11.1837,-4.44614 16.71341,-6.40244 l 123.08275,-67.69983 c 4.10069,-5.27608 -3.85216,-9.90006 -7.70432,-13.87194 L 297.02605,220.14381 c -0.74558,-0.71138 -1.24263,-1.24492 -2.48526,-1.00779 -49.08399,26.55826 -96.30402,49.20391 -141.66011,74.69509 z" id="path55" isolation="auto" white-space="normal" mix-blend-mode="normal" solid-color="#000000" opacity="0.8" color-interpolation-filters="linearRGB" vector-effect="none" color="#000000" image-rendering="auto" color-rendering="auto" fill-rule="evenodd" stroke-width="64" color-interpolation="sRGB" solid-opacity="1" fill="none" stroke-linejoin="round" stroke="#ffffff" shape-rendering="auto"/>
 <path d="m 86.704899,156.41276 c -6.1,4.9 -2.4,13.2 3.1,16.8 5.800002,4.7 11.000001,15.3 20.000001,11.2 21.8,-8.6 43.5,-17.8 65,-26 38.8,-4.5 78,-9.5 116,-13.6 38.8,4.8 78,9 116,14.2 22.4,8.7 44,18.5 67,26.6 8.3,-0.1 12.1,-9.3 18,-13.8 6.5,-4 6.3,-14.7 -1.4,-17 -66,-34.9 -132,-70.000002 -199,-105.000002 -0.8,-0.3 -1.55,-1.05 -1.55,-1.05 -68.15,33.65 -143.15,74.650002 -203.150001,107.650002 z" id="path57" mix-blend-mode="normal" solid-color="#000000" opacity="0.8" white-space="normal" color-interpolation-filters="linearRGB" vector-effect="none" color="#000000" image-rendering="auto" color-rendering="auto" fill-rule="evenodd" stroke-width="64" isolation="auto" color-interpolation="sRGB" solid-opacity="1" fill="none" stroke-linejoin="round" stroke="#ffffff" shape-rendering="auto"/>
 <path mix-blend-mode="normal" white-space="normal" isolation="auto" id="path4139" d="m 772.24145,385.56092 c 75,86 152,171 227.99995,257 13.7,4.7 7.2,-16 8.5,-24.3 l -0.5,-75.7 c -8.99995,-14.6 -22.69995,-26.4 -33.49995,-39.9 0,0 -190,-218 -193,-219 -11.3,-4.9 -8.9,20.3 -9.25,24.85 -0.35,25.05 -1.25,51.05 -0.25,77.05 z m 14,-130 c -4.9,5 9,15.9 15,23 l 213.99995,243 c 9.5,3.4 18,-7.5 26.9,-10.8 l 198.1,-114.2 c 6.6,-8.9 -6.2,-16.7 -12.4,-23.4 l -209.6,-241.9 c -1.2,-1.2 -2,-2.1 -4,-1.7 -78.99995,44.8 -154.99995,83 -227.99995,126 z" solid-color="#000000" opacity="0.8" color-interpolation-filters="linearRGB" color="#000000" image-rendering="auto" color-rendering="auto" stroke-width="64" color-interpolation="sRGB" solid-opacity="1" fill="none" stroke-linejoin="round" stroke="#ffffff" shape-rendering="auto"/>
 <path mix-blend-mode="normal" white-space="normal" isolation="auto" id="path4141" d="m 299.03335,524.91852 c -3.8026,3.01586 -3.08142,11.14556 2.49136,11.80118 4.26154,-0.0656 7.40852,-3.54035 11.14556,-5.24497 42.48425,-24.9136 85.23075,-49.76164 127.84612,-74.7408 3.99929,-3.14699 3.14698,-12.26012 -3.01586,-12.06343 -46.82044,26.94645 -97.99647,56.2326 -138.46718,80.24802 z m 0.26225,-26.42153 c -3.8026,3.01586 -3.08142,11.14556 2.49136,11.80118 4.26154,-0.0656 7.40852,-3.54035 11.14556,-5.24497 42.48425,-24.9136 85.23074,-49.76164 127.84612,-74.7408 3.99929,-3.14699 3.14698,-12.26012 -3.31089,-11.70284 -47.21609,26.14012 -97.39547,56.24257 -138.17215,79.88743 z m 0,-26.22484 c -3.8026,3.01585 -3.08142,11.14556 2.49136,11.80118 4.26154,-0.0656 7.40852,-3.54036 11.14556,-5.24497 42.48425,-24.9136 85.23074,-49.76164 127.84612,-74.74081 3.99929,-3.14698 3.14698,-12.26011 -3.14698,-11.80118 -4.19598,1.31124 -97.68755,56.38342 -138.33606,79.98578 z" solid-color="#000000" opacity="0.8" color-interpolation-filters="linearRGB" color="#000000" image-rendering="auto" color-rendering="auto" stroke-width="41.96" color-interpolation="sRGB" solid-opacity="1" fill="none" stroke-linejoin="round" stroke="#ffffff" shape-rendering="auto"/>
 <path d="m 144.18226,370.89747 c 46.59871,50.98237 94.44007,101.37191 141.6601,152.35427 8.51203,2.78625 4.47348,-9.48509 5.28119,-14.40549 l -0.31066,-44.87632 c -5.59185,-8.65515 -14.10388,-15.6504 -20.8141,-23.65345 0,0 -118.05008,-129.23436 -119.91403,-129.82718 -7.02087,-2.90481 -5.52972,12.03421 -5.74718,14.73153 -0.21745,14.8501 -0.77664,30.26337 -0.15532,45.67664 z m 8.69842,-77.06636 c -3.04445,2.96409 5.59185,9.42581 9.31975,13.63482 L 295.1621,451.52074 c 5.90251,2.01558 11.1837,-4.44614 16.71341,-6.40244 l 123.08275,-67.69983 c 4.10069,-5.27608 -3.85216,-9.90006 -7.70432,-13.87194 L 297.02605,220.14381 c -0.74558,-0.71138 -1.24263,-1.24492 -2.48526,-1.00779 -49.08399,26.55826 -96.30402,49.20391 -141.66011,74.69509 z" id="path3474" isolation="auto" white-space="normal" mix-blend-mode="normal" fill="#c9820d" color-rendering="auto" solid-opacity="1" color-interpolation-filters="linearRGB" shape-rendering="auto" fill-rule="evenodd" image-rendering="auto" color-interpolation="sRGB" color="#000000" stroke-width="0.61" solid-color="#000000"/>
 <path d="m 299.03335,524.91852 c -3.8026,3.01586 -3.08142,11.14556 2.49136,11.80118 4.26154,-0.0656 7.40852,-3.54035 11.14556,-5.24497 42.48425,-24.9136 85.23075,-49.76164 127.84612,-74.7408 3.99929,-3.14699 3.14698,-12.26012 -3.01586,-12.06343 -46.82044,26.94645 -97.99647,56.2326 -138.46718,80.24802 z m 0.26225,-26.42153 c -3.8026,3.01586 -3.08142,11.14556 2.49136,11.80118 4.26154,-0.0656 7.40852,-3.54035 11.14556,-5.24497 42.48425,-24.9136 85.23074,-49.76164 127.84612,-74.7408 3.99929,-3.14699 3.14698,-12.26012 -3.31089,-11.70284 -47.21609,26.14012 -97.39547,56.24257 -138.17215,79.88743 z m 0,-26.22484 c -3.8026,3.01585 -3.08142,11.14556 2.49136,11.80118 4.26154,-0.0656 7.40852,-3.54036 11.14556,-5.24497 42.48425,-24.9136 85.23074,-49.76164 127.84612,-74.74081 3.99929,-3.14698 3.14698,-12.26011 -3.14698,-11.80118 -4.19598,1.31124 -97.68755,56.38342 -138.33606,79.98578 z" id="path3507" isolation="auto" white-space="normal" mix-blend-mode="normal" opacity="0.8" fill="#c9820d" color-rendering="auto" solid-opacity="1" color-interpolation-filters="linearRGB" shape-rendering="auto" fill-rule="evenodd" image-rendering="auto" color-interpolation="sRGB" color="#000000" stroke-width="0.66" solid-color="#000000"/>
 <path d="m 86.704899,156.41276 c -6.1,4.9 -2.4,13.2 3.1,16.8 5.800002,4.7 11.000001,15.3 20.000001,11.2 21.8,-8.6 43.5,-17.8 65,-26 38.8,-4.5 78,-9.5 116,-13.6 38.8,4.8 78,9 116,14.2 22.4,8.7 44,18.5 67,26.6 8.3,-0.1 12.1,-9.3 18,-13.8 6.5,-4 6.3,-14.7 -1.4,-17 -66,-34.9 -132,-70.000002 -199,-105.000002 -0.8,-0.3 -1.55,-1.05 -1.55,-1.05 -68.15,33.65 -143.15,74.650002 -203.150001,107.650002 z" id="path4155" mix-blend-mode="normal" solid-color="#000000" white-space="normal" color-interpolation-filters="linearRGB" vector-effect="none" color="#000000" image-rendering="auto" color-rendering="auto" fill-rule="evenodd" stroke-width="0.66" isolation="auto" color-interpolation="sRGB" solid-opacity="1" fill="#c9820d" shape-rendering="auto"/>
</svg>
