<?xml version="1.0" encoding="UTF-8" standalone="no"?>
<svg xmlns="http://www.w3.org/2000/svg" width="580" height="580" version="1.0">
 <metadata id="metadata7"/>
 <path mix-blend-mode="normal" white-space="normal" isolation="auto" id="path4136" d="m 83.4,203.7 c -12.6,1.8 -42.6,-3.5 -30.7,19.7 17.5,13 46,5.8 57,-12.8 5.4,-15.6 27.4,-44.9 37.4,-16.2 9.9,19.5 26.7,37.5 50,38 25.7,3.7 54.7,-9 63.7,-34.6 4.5,-15 26,-24.7 30.3,-3.6 9.9,19.5 26.7,37.5 50,38 25.7,3.7 54.7,-9 63.7,-34.6 4.5,-15.3 26,-24.7 30.4,-3.5 10.3,22.9 33,42.5 59.7,33.6 23.7,-7.8 1.4,-33 -15.6,-22.6 -22.7,-5.4 -22.4,-36.8 -43,-45.7 -24,-13.4 -44.8,10.6 -54,30.5 -12.8,27 -58,24 -67,-4.4 -8.5,-19.4 -31.6,-39.4 -52.9,-25 -19.5,11.1 -21.8,41 -45,46.8 -24.9,8.8 -43.6,-11.7 -52.9,-32 -6.7,-10.3 -17,-19.8 -30.25,-19.15 C 107,156.9 100.1,188 83.4,203.7 Z m 24.4,95.5 c -12.9,2.4 -45,-3.9 -32,20.4 17.7,10.5 46,7.9 57.9,-11.3 6.6,-18.5 30,-47.9 40.6,-15.2 9.2,19.6 27,35.6 49.8,35 23.4,2.7 50.6,-6.5 60,-30 5.1,-19.6 28.9,-30.4 34.6,-5.1 9.2,19.6 27,35.6 49.8,35 23.4,2.7 50.6,-6.5 60,-30 5.1,-19.6 28.8,-30.4 34.6,-5.1 9.2,21 29.7,38 53.8,31.5 28,-0.8 12.6,-36.9 -9,-23 -23.7,-3.3 -24,-34.8 -43,-44.8 -22.6,-15.3 -46,6.2 -54.9,26.7 -10.2,23.9 -46,28 -63,8.5 -10.1,-17.4 -22,-41.9 -45.7,-40 -27.6,2.9 -31.5,36.5 -52,49 -20,9.6 -45.8,0.5 -53.7,-21 -7.6,-13.7 -18.9,-28 -36.55,-28.25 C 131.5,252.7 124.5,283.3 107.8,299.2 Z M 85,395.7 c -12.8,2.9 -44.7,-4.5 -32.7,20 17.5,11 46.7,8.3 58,-11 6.6,-18.5 30,-47.9 40.6,-15.2 9.2,19.6 27,35.6 49.8,35 23.4,2.7 50.6,-6.5 60,-30 5.1,-19.6 28.9,-30.4 34.6,-5.1 9.2,19.6 27,35.6 49.8,35 23.4,2.7 50.6,-6.5 60,-30 5.1,-19.6 28.8,-30.4 34.6,-5.1 9.2,21 29.7,38 53.8,31.5 28,-0.8 12.6,-36.9 -9,-23 -23.7,-3.3 -24,-34.8 -43,-44.8 -22.6,-15.3 -46,6.2 -54.9,26.7 -10.2,23.9 -46,28 -63,8.5 -10.1,-17.4 -22,-41.9 -45.7,-40 -27.6,2.9 -31.5,36.5 -52,49 -20,9.6 -45.8,0.5 -53.7,-21 -7.6,-13.7 -18.9,-28 -36.3,-28.2 -27.2,1.2 -34.3,31.7 -50.9,47.7 z" solid-color="#000000" opacity="0.8" color-interpolation-filters="linearRGB" filter-gaussianBlur-deviation="0" color="#000000" image-rendering="auto" color-rendering="auto" fill-rule="evenodd" stroke-width="64" color-interpolation="sRGB" solid-opacity="1" fill="none" stroke-linejoin="round" filter-blend-mode="normal" stroke="#ffffff" shape-rendering="auto"/>
 <path d="m 83.4,203.7 c -12.6,1.8 -42.6,-3.5 -30.7,19.7 17.5,13 46,5.8 57,-12.8 5.4,-15.6 27.4,-44.9 37.4,-16.2 9.9,19.5 26.7,37.5 50,38 25.7,3.7 54.7,-9 63.7,-34.6 4.5,-15 26,-24.7 30.3,-3.6 9.9,19.5 26.7,37.5 50,38 25.7,3.7 54.7,-9 63.7,-34.6 4.5,-15.3 26,-24.7 30.4,-3.5 10.3,22.9 33,42.5 59.7,33.6 23.7,-7.8 1.4,-33 -15.6,-22.6 -22.7,-5.4 -22.4,-36.8 -43,-45.7 -24,-13.4 -44.8,10.6 -54,30.5 -12.8,27 -58,24 -67,-4.4 -8.5,-19.4 -31.6,-39.4 -52.9,-25 -19.5,11.1 -21.8,41 -45,46.8 -24.9,8.8 -43.6,-11.7 -52.9,-32 -6.7,-10.3 -17,-19.8 -30.25,-19.15 C 107,156.9 100.1,188 83.4,203.7 Z m 24.4,95.5 c -12.9,2.4 -45,-3.9 -32,20.4 17.7,10.5 46,7.9 57.9,-11.3 6.6,-18.5 30,-47.9 40.6,-15.2 9.2,19.6 27,35.6 49.8,35 23.4,2.7 50.6,-6.5 60,-30 5.1,-19.6 28.9,-30.4 34.6,-5.1 9.2,19.6 27,35.6 49.8,35 23.4,2.7 50.6,-6.5 60,-30 5.1,-19.6 28.8,-30.4 34.6,-5.1 9.2,21 29.7,38 53.8,31.5 28,-0.8 12.6,-36.9 -9,-23 -23.7,-3.3 -24,-34.8 -43,-44.8 -22.6,-15.3 -46,6.2 -54.9,26.7 -10.2,23.9 -46,28 -63,8.5 -10.1,-17.4 -22,-41.9 -45.7,-40 -27.6,2.9 -31.5,36.5 -52,49 -20,9.6 -45.8,0.5 -53.7,-21 -7.6,-13.7 -18.9,-28 -36.55,-28.25 C 131.5,252.7 124.5,283.3 107.8,299.2 Z M 85,395.7 c -12.8,2.9 -44.7,-4.5 -32.7,20 17.5,11 46.7,8.3 58,-11 6.6,-18.5 30,-47.9 40.6,-15.2 9.2,19.6 27,35.6 49.8,35 23.4,2.7 50.6,-6.5 60,-30 5.1,-19.6 28.9,-30.4 34.6,-5.1 9.2,19.6 27,35.6 49.8,35 23.4,2.7 50.6,-6.5 60,-30 5.1,-19.6 28.8,-30.4 34.6,-5.1 9.2,21 29.7,38 53.8,31.5 28,-0.8 12.6,-36.9 -9,-23 -23.7,-3.3 -24,-34.8 -43,-44.8 -22.6,-15.3 -46,6.2 -54.9,26.7 -10.2,23.9 -46,28 -63,8.5 -10.1,-17.4 -22,-41.9 -45.7,-40 -27.6,2.9 -31.5,36.5 -52,49 -20,9.6 -45.8,0.5 -53.7,-21 -7.6,-13.7 -18.9,-28 -36.3,-28.2 -27.2,1.2 -34.3,31.7 -50.9,47.7 z" id="path2996" isolation="auto" white-space="normal" mix-blend-mode="normal" fill="#666666" color-rendering="auto" solid-opacity="1" color-interpolation-filters="linearRGB" shape-rendering="auto" image-rendering="auto" color-interpolation="sRGB" color="#000000" solid-color="#000000"/>
</svg>
