<?xml version="1.0" encoding="UTF-8" standalone="no"?>
<svg xmlns="http://www.w3.org/2000/svg" version="1.0" width="580" height="580">
 <metadata id="metadata13"/>
 <path id="path4142" d="M 80.9,129 289,250 499,129 534,190 359,290 534,390 498,451 290,330 80.9,452 46,390 218,290 46,190 Z" mix-blend-mode="normal" solid-color="#000000" opacity="0.8" color-interpolation-filters="linearRGB" filter-gaussianBlur-deviation="0" color="#000000" image-rendering="auto" color-rendering="auto" fill-rule="evenodd" stroke-width="64" isolation="auto" color-interpolation="sRGB" solid-opacity="1" fill="none" stroke-linejoin="round" filter-blend-mode="normal" stroke="#ffffff" shape-rendering="auto"/>
 <path d="M 80.9,129 289,250 499,129 534,190 359,290 534,390 498,451 290,330 80.9,452 46,390 218,290 46,190 Z" id="path4083" fill="#666666"/>
 <path d="m 173.59375,203.92773 -17.80273,29.55079 99.68945,56.94336 -99.83789,57.02734 17.80273,29.55273 L 290.25,310.2832 406.73828,376.82031 424.54102,347.26953 325.01953,290.42188 424.39258,233.66016 406.58789,204.10938 290.25,270.5625 Z" id="rect4021" fill="#ffffff"/>
</svg>
