<?xml version="1.0" encoding="UTF-8" standalone="no"?>
<svg xmlns="http://www.w3.org/2000/svg" width="580" height="580" version="1.0">
 <metadata id="metadata20"/>
 <path id="path4146" d="m 228.96162,170.71143 139.35877,81.03033 140.63115,-81.03033 23.43852,40.85 -117.19262,66.96721 117.19262,66.96722 -24.1082,40.85 -139.2918,-81.03033 -140.02844,81.7 -23.37156,-41.51967 115.18361,-66.96722 -115.18361,-66.96721 z" mix-blend-mode="normal" solid-color="#000000" opacity="0.8" color-interpolation-filters="linearRGB" filter-gaussianBlur-deviation="0" color="#000000" image-rendering="auto" color-rendering="auto" fill-rule="evenodd" stroke-width="64" isolation="auto" color-interpolation="sRGB" solid-opacity="1" fill="none" stroke-linejoin="round" filter-blend-mode="normal" stroke="#ffffff" shape-rendering="auto"/>
 <path mix-blend-mode="normal" white-space="normal" isolation="auto" id="path4148" d="m 154.9,178.9 c 10.82099,-22.44893 2.87934,-43.47952 -20.5,-44.7 -20,-1.1 -33.7,24 -23.35,40.85 8.65,15.65 32.35,17.35 43.85,3.85 z M 53.6,230.6 c -4.452987,15.55976 -16.207053,42.10266 -15.7,55.6 1.7,11.6 19,14.5 24.6,4.3 5.3,-14.4 8.9,-29.4 13.6,-44 5,-5.1 5.1,-2.3 3.5,3.3 -2.1,13 -5.3,26 -6.6,39 0.5,23.4 0.8,46.8 1.4,70 -9.7,21.3 -20.3,42 -29.5,64 -4.2,14 11.8,27.6 25,21.5 10.6,-4.4 12.4,-16.8 17.4,-25.9 7.8,-17.4 16,-34.7 23.6,-52 -0.10316,-14.9648 -0.72416,-27.40838 -1,-43.2 8.9,12.3 18.4,24.5 26.9,36.9 3.1,23.6 5.4,47 8.9,70.8 3.6,13.5 24,15.8 30.7,3.4 4.7,-9 0.4,-19 0,-28.6 -2.7,-20.8 -4.7,-41.8 -7.9,-62 -13.83911,-19.47742 -22.42001,-33.8234 -35.5,-51.8 l 5,-27.5 c 10.4,8.9 20.6,18 31,26.6 9.8,6.3 23.6,-4.5 19.4,-15.5 -5.67637,-10.16312 -12.77827,-11.23616 -31.58075,-27.79876 C 150.81925,234.20124 146.5,218.9 140,205.4 134.2,196.7 123.8,191.5 113.6,192.1 99.8,192.3 94.922981,197.11553 79.639752,208.23851 71.039752,214.83851 61.7,223 53.6,230.6 Z" solid-color="#000000" color-interpolation-filters="linearRGB" opacity="0.8" filter-gaussianBlur-deviation="0" color="#000000" image-rendering="auto" color-rendering="auto" stroke-width="64" fill-rule="evenodd" color-interpolation="sRGB" solid-opacity="1" fill="none" stroke-linejoin="round" filter-blend-mode="normal" stroke="#ffffff" shape-rendering="auto"/>
 <path d="m 228.96162,170.71143 139.35877,81.03033 140.63115,-81.03033 23.43852,40.85 -117.19262,66.96721 117.19262,66.96722 -24.1082,40.85 -139.2918,-81.03033 -140.02844,81.7 -23.37156,-41.51967 115.18361,-66.96722 -115.18361,-66.96721 z" id="path4083" fill="#666666"/>
 <path d="m 291.03604,220.88844 -11.92199,19.78934 66.75924,38.13339 -66.85865,38.18962 11.92199,19.79064 78.22085,-44.67969 78.00895,44.55805 11.922,-19.78934 -66.64677,-38.06928 66.54737,-38.01175 -11.92331,-19.78933 -77.90824,44.5018 z" id="rect4021" fill="#ffffff"/>
 <path d="m 154.9,178.9 c 10.82099,-22.44893 2.87934,-43.47952 -20.5,-44.7 -20,-1.1 -33.7,24 -23.35,40.85 8.65,15.65 32.35,17.35 43.85,3.85 z M 53.6,230.6 c -4.452987,15.55976 -16.207053,42.10266 -15.7,55.6 1.7,11.6 19,14.5 24.6,4.3 5.3,-14.4 8.9,-29.4 13.6,-44 5,-5.1 5.1,-2.3 3.5,3.3 -2.1,13 -5.3,26 -6.6,39 0.5,23.4 0.8,46.8 1.4,70 -9.7,21.3 -20.3,42 -29.5,64 -4.2,14 11.8,27.6 25,21.5 10.6,-4.4 12.4,-16.8 17.4,-25.9 7.8,-17.4 16,-34.7 23.6,-52 -0.10316,-14.9648 -0.72416,-27.40838 -1,-43.2 8.9,12.3 18.4,24.5 26.9,36.9 3.1,23.6 5.4,47 8.9,70.8 3.6,13.5 24,15.8 30.7,3.4 4.7,-9 0.4,-19 0,-28.6 -2.7,-20.8 -4.7,-41.8 -7.9,-62 -13.83911,-19.47742 -22.42001,-33.8234 -35.5,-51.8 l 5,-27.5 c 10.4,8.9 20.6,18 31,26.6 9.8,6.3 23.6,-4.5 19.4,-15.5 -5.67637,-10.16312 -12.77827,-11.23616 -31.58075,-27.79876 C 150.81925,234.20124 146.5,218.9 140,205.4 134.2,196.7 123.8,191.5 113.6,192.1 99.8,192.3 94.922981,197.11553 79.639752,208.23851 71.039752,214.83851 61.7,223 53.6,230.6 Z" id="path8" isolation="auto" white-space="normal" mix-blend-mode="normal" fill="#666666" color-rendering="auto" solid-opacity="1" color-interpolation-filters="linearRGB" shape-rendering="auto" image-rendering="auto" stroke-linejoin="round" stroke-linecap="round" color-interpolation="sRGB" color="#000000" stroke-width="667" solid-color="#000000"/>
</svg>
