<?xml version="1.0" encoding="UTF-8" standalone="no"?>
<svg xmlns="http://www.w3.org/2000/svg" width="580" height="1160" version="1.0">
 <metadata id="metadata3003"/>
 <path id="path815" d="m 97,255.46904 c 0,7.2 5.1,15.7 11.5,19 l 34.8,18 c 6.5,74 71,96 112,58 l 44,23 c 6.5,89 95,87 115,59 l 55,28.7 c 6.4,3.3 11.5,0.2 11.5,-7 v -216 c 0,-7.2 -5.1,-15.7 -11.5,-19 L 108,32.46904 c -7,-3.3 -11,1.5 -11,7 z" opacity="0.8" fill="none" stroke="#ffffff" vector-effect="none" stroke-linejoin="round" stroke-width="64"/>
 <path d="m 97,255.46904 c 0,7.2 5.1,15.7 11.5,19 l 34.8,18 c 6.5,74 71,96 112,58 l 44,23 c 6.5,89 95,87 115,59 l 55,28.7 c 6.4,3.3 11.5,0.2 11.5,-7 v -216 c 0,-7.2 -5.1,-15.7 -11.5,-19 L 108,32.46904 c -7,-3.3 -11,1.5 -11,7 z" id="wheel" fill="#20a0a0"/>
 <path d="m 214.74354,108.74507 c 3.19453,1.65981 5.76791,5.89688 5.76791,9.49688 v 108 c 0,3.6 -2.57338,5.16293 -5.76791,3.50312 l -70.10223,-36.42358 c -3.19453,-1.65981 -5.7679,-5.89688 -5.7679,-9.49688 v -108 c 0,-3.6 2.57337,-5.16293 5.7679,-3.50312 z" id="window" opacity="0.7" fill="#ffffff" stroke-width="0.94"/>
 <path d="m 323.89005,166.4552 c 3.19454,1.65981 5.76791,5.89688 5.76791,9.49688 v 108 c 0,3.6 -2.57337,5.16293 -5.76791,3.50312 l -70.10223,-36.42358 c -3.19453,-1.65981 -5.7679,-5.89687 -5.7679,-9.49687 v -108 c 0,-3.6 2.57337,-5.16294 5.7679,-3.50313 z" id="rect12" opacity="0.7" fill="#ffffff" stroke-width="0.94"/>
 <path d="m 433.92393,224.62639 c 3.19454,1.65981 5.76791,5.89688 5.76791,9.49688 v 108 c 0,3.6 -2.57337,5.16293 -5.76791,3.50312 L 363.8217,309.20281 c -3.19453,-1.65981 -5.7679,-5.89688 -5.7679,-9.49688 v -108 c 0,-3.6 2.57337,-5.16293 5.7679,-3.50312 z" id="rect14" opacity="0.7" fill="#ffffff" stroke-width="0.94"/>
</svg>
