<?xml version="1.0" encoding="UTF-8" standalone="no"?>
<svg xmlns="http://www.w3.org/2000/svg" width="580" height="580" version="1.0">
 <metadata id="metadata7"/>
 <path d="m 41,320 c -14.6,14.5 -4.3,39 16.4,39 l 371,0 c 6.2,0 12,-2.4 16.4,-6.7 l 93,-92 c 9.3,-8.9 9.4,-23.7 0.2,-32.7 -9.2,-9 -24,-9 -33,0.2 l -86,85 -306,0 53,-52.7 c 15.2,-14.6 4.3,-40 -16.5,-39 -5.6,0.3 -11.3,2.8 -15.5,6.95 z" id="path4133" mix-blend-mode="normal" isolation="auto" white-space="normal" solid-color="#000000" opacity="0.8" color-interpolation-filters="linearRGB" filter-gaussianBlur-deviation="0" color="#000000" image-rendering="auto" color-rendering="auto" stroke-width="64" color-interpolation="sRGB" solid-opacity="1" fill="none" stroke-linejoin="round" filter-blend-mode="normal" stroke="#ffffff" shape-rendering="auto"/>
 <path white-space="normal" isolation="auto" mix-blend-mode="normal" id="path3768" d="m 41,320 c -14.6,14.5 -4.3,39 16.4,39 l 371,0 c 6.2,0 12,-2.4 16.4,-6.7 l 93,-92 c 9.3,-8.9 9.4,-23.7 0.2,-32.7 -9.2,-9 -24,-9 -33,0.2 l -86,85 -306,0 53,-52.7 c 15.2,-14.6 4.3,-40 -16.5,-39 -5.6,0.3 -11.3,2.8 -15.5,6.95 z" fill="#666666" color-rendering="auto" solid-opacity="1" color-interpolation-filters="linearRGB" shape-rendering="auto" image-rendering="auto" color-interpolation="sRGB" color="#000000" solid-color="#000000"/>
</svg>
