<?xml version="1.0" encoding="UTF-8" standalone="no"?>
<svg xmlns="http://www.w3.org/2000/svg" version="1.0" width="580" height="580">
 <metadata id="metadata2975"/>
 <path id="path1197" d="m 218.56442,76.365209 67.50391,1.08984 -0.82031,50.894531 167.17384,167.17383 h 51.21288 v 67.51363 H 424.457 L 217.28122,155.8613 Z" shape-rendering="auto" mix-blend-mode="normal" isolation="auto" color-interpolation-filters="linearRGB" white-space="normal" opacity="0.8" fill="none" solid-opacity="1" image-rendering="auto" solid-color="#000000" stroke="#ffffff" color="#000000" stroke-linejoin="round" stroke-width="64" color-rendering="auto" vector-effect="none" shape-padding="0" color-interpolation="sRGB"/>
 <path id="path1199" d="m 155.86131,217.28122 207.17577,207.17582 v 79.1777 h -67.51367 v -51.2129 l -167.17382,-167.17382 -50.894534,0.82031 -1.08985,-67.50391 z" shape-rendering="auto" mix-blend-mode="normal" isolation="auto" color-interpolation-filters="linearRGB" white-space="normal" opacity="0.8" fill="none" solid-opacity="1" image-rendering="auto" solid-color="#000000" stroke="#ffffff" color="#000000" stroke-linejoin="round" stroke-width="64" color-rendering="auto" vector-effect="none" shape-padding="0" color-interpolation="sRGB"/>
 <path d="m 252.31634,76.910059 -1.05154,65.195451 187.17403,187.17403 h 65.19546" id="path3068-84" fill="none" stroke="#666666" stroke-width="67.5"/>
 <path d="m 76.910066,252.31635 65.195454,-1.05155 187.17401,187.17404 v 65.1954" id="path3068-9-9" fill="none" stroke="#666666" stroke-width="67.5"/>
 <path d="m 218.56442,76.365209 67.50391,1.08984 -0.82031,50.894531 167.17384,167.17383 h 51.21288 v 67.51363 H 424.457 L 217.28122,155.8613 Z" id="path1175" shape-rendering="auto" mix-blend-mode="normal" isolation="auto" color-interpolation-filters="linearRGB" white-space="normal" fill="#666666" solid-opacity="1" image-rendering="auto" solid-color="#000000" color="#000000" color-rendering="auto" vector-effect="none" shape-padding="0" color-interpolation="sRGB"/>
 <path d="m 155.86131,217.28122 207.17577,207.17582 v 79.1777 h -67.51367 v -51.2129 l -167.17382,-167.17382 -50.894534,0.82031 -1.08985,-67.50391 z" id="path1177" shape-rendering="auto" mix-blend-mode="normal" isolation="auto" color-interpolation-filters="linearRGB" white-space="normal" fill="#666666" solid-opacity="1" image-rendering="auto" solid-color="#000000" color="#000000" color-rendering="auto" vector-effect="none" shape-padding="0" color-interpolation="sRGB"/>
</svg>
