<?xml version="1.0" encoding="UTF-8" standalone="no"?>
<svg xmlns="http://www.w3.org/2000/svg" width="580" height="580" version="1.0">
 <metadata id="metadata7"/>
 <path d="m 38.972656,206.97852 c 0.332109,49.38494 0.34793,98.77547 0.687497,148.16015 l 18.884765,15.97461 c 2.071279,1.775 4.971255,2.92383 7.974609,2.92383 l 73.531253,0 c 4.24612,0 8.3879,-2.29749 10.04492,-5.63867 1.99409,-6.59929 -1.48737,-9.41026 -5.79687,-13.25977 l 35.66601,0 17.25391,15.34961 c 2.07128,1.775 4.96931,2.92188 7.97266,2.92188 l 73.53125,0 c 4.24612,0 8.3879,-2.29553 10.04492,-5.63672 1.86948,-6.40162 -0.99402,-8.97254 -5.10547,-12.63477 l 38.31641,0 17.84765,15.8711 c 2.07128,1.775 4.97126,2.92382 7.97461,2.92382 l 73.5293,0 c 4.24612,0 8.38985,-2.29748 10.04687,-5.63867 1.97159,-6.54439 -1.42076,-9.35175 -5.69726,-13.15625 l 38.18164,0 17.84765,15.8711 c 2.07128,1.775 4.96931,2.92382 7.97266,2.92382 l 51.7832,0 c -0.3623,-55.30379 0.3044,-110.60851 0.6211,-165.91211 -0.82851,-0.20882 -1.65777,-0.31513 -2.58985,-0.3125 l -73.94336,0.20899 c -4.66037,0.20882 -8.8039,2.50647 -10.46093,5.84765 -1.6442,5.65687 0.51936,8.65038 4.19726,11.90235 l -38.03125,0 -16.49804,-14.61719 c -2.07127,-1.775 -4.97133,-2.90255 -7.97461,-2.92383 l -73.68555,-0.52148 c -4.40147,-0.52206 -8.54415,1.77405 -10.20117,5.11523 -1.93914,6.36812 1.19017,9.2393 5.36133,12.94727 l -38.08985,0 -17.60351,-15.66211 c -2.07128,-1.775 -4.97126,-2.92383 -7.97461,-2.92383 l -73.5293,0 c -4.24612,0 -8.38985,2.29749 -10.04688,5.63867 -1.93913,6.36812 1.19017,9.2393 5.36133,12.94727 l -38.10547,0 -17.58789,-15.66211 c -2.07128,-1.775 -4.97126,-2.91958 -7.97461,-2.92383 z" id="path4143" mix-blend-mode="normal" solid-color="#000000" opacity="0.8" color-interpolation-filters="linearRGB" color="#000000" image-rendering="auto" color-rendering="auto" fill-rule="evenodd" stroke-width="64" isolation="auto" color-interpolation="sRGB" solid-opacity="1" fill="none" stroke-linejoin="round" stroke="#ffffff" shape-rendering="auto"/>
 <path d="m 38.765049,225.66786 502.285161,0 0,129.47093 -502.285161,0 z" id="rect3802" fill="#ffffff"/>
 <path d="M 38.765046,229.5311 197.21789,370.48736 c 2.07128,1.775 4.97107,2.92353 7.97442,2.92353 l 73.53041,0 c 4.24612,0 8.38868,-2.29706 10.0457,-5.63825 1.65702,-3.34118 0.82851,-7.41325 -2.17484,-10.02355 L 120.68413,210.00605 c -2.07128,-1.775 -4.97107,-2.91929 -7.97442,-2.92354 L 38.972173,206.9781 Z M 171.01621,212.72076 c -1.65702,3.34119 -0.82851,7.41326 2.07128,10.02356 l 166.73796,148.2651 c 2.07128,1.775 4.97107,2.92353 7.97442,2.92353 l 73.53041,0 c 4.24612,0 8.38868,-2.29706 10.0457,-5.63825 1.65702,-3.34118 0.82851,-7.41325 -2.17484,-10.02355 l -166.6344,-148.2651 c -2.07128,-1.775 -4.97107,-2.92354 -7.97442,-2.92354 l -73.53041,0 c -4.24612,0 -8.38868,2.29707 -10.0457,5.63825 z m 141.88261,0 c -1.65702,3.34119 -0.82851,7.41326 2.07128,10.02356 l 166.73796,148.2651 c 2.07128,1.775 4.97107,2.92353 7.97442,2.92353 l 51.78198,0 0,-41.76481 -136.70442,-121.11797 c -2.07127,-1.775 -4.97114,-2.90226 -7.97442,-2.92354 l -73.68575,-0.52206 c -4.40147,-0.52206 -8.54403,1.77501 -10.20105,5.11619 z m 142.1933,1.04413 c -1.65702,3.34118 -0.82851,7.41325 2.07128,10.02355 l 84.92244,75.07226 0,-90.83848 c -0.82851,-0.20882 -1.65702,-0.31586 -2.5891,-0.31323 l -73.94466,0.20882 c -4.66037,0.20882 -8.80293,2.50589 -10.45996,5.84708 z M 40.318505,354.92996 58.54576,371.11383 c 2.071279,1.775 4.97107,2.92354 7.974424,2.92354 l 73.530406,0 c 4.24612,0 8.38868,-2.29707 10.0457,-5.63825 1.65702,-3.34119 0.82851,-7.41326 -2.17484,-10.02356 L 39.541775,261.5856 Z" id="path3774-2-3-6" fill="#666666" color="#000000"/>
</svg>
