<?xml version="1.0" encoding="UTF-8" standalone="no"?>
<svg xmlns="http://www.w3.org/2000/svg" version="1.0" width="580" height="580">
 <metadata id="metadata2975"/>
 <path id="path1197" d="m 361.43555,76.365234 -67.50391,1.089844 0.82031,50.894532 -167.17383,167.17383 H 76.365234 v 67.51367 H 155.54297 L 362.71875,155.86133 Z" shape-rendering="auto" mix-blend-mode="normal" isolation="auto" color-interpolation-filters="linearRGB" white-space="normal" opacity="0.8" fill="none" solid-opacity="1" image-rendering="auto" solid-color="#000000" stroke="#ffffff" color="#000000" stroke-linejoin="round" stroke-width="64" color-rendering="auto" vector-effect="none" shape-padding="0" color-interpolation="sRGB"/>
 <path id="path1199" d="M 424.13867,217.28125 216.96289,424.45703 v 79.17774 h 67.51367 v -51.21289 l 167.17383,-167.17383 50.89453,0.82031 1.08985,-67.50391 z" shape-rendering="auto" mix-blend-mode="normal" isolation="auto" color-interpolation-filters="linearRGB" white-space="normal" opacity="0.8" fill="none" solid-opacity="1" image-rendering="auto" solid-color="#000000" stroke="#ffffff" color="#000000" stroke-linejoin="round" stroke-width="64" color-rendering="auto" vector-effect="none" shape-padding="0" color-interpolation="sRGB"/>
 <path d="m 327.68363,76.910087 1.05154,65.195453 -187.17402,187.17402 H 76.365691" id="path3068-84" fill="none" stroke="#666666" stroke-width="67.5"/>
 <path d="m 503.08991,252.31638 -65.19545,-1.05155 -187.17402,187.17404 v 65.19544" id="path3068-9-9" fill="none" stroke="#666666" stroke-width="67.5"/>
 <path d="m 361.43555,76.365234 -67.50391,1.089844 0.82031,50.894532 -167.17383,167.17383 H 76.365234 v 67.51367 H 155.54297 L 362.71875,155.86133 Z" id="path1175" shape-rendering="auto" mix-blend-mode="normal" isolation="auto" color-interpolation-filters="linearRGB" white-space="normal" fill="#666666" solid-opacity="1" image-rendering="auto" solid-color="#000000" color="#000000" color-rendering="auto" vector-effect="none" shape-padding="0" color-interpolation="sRGB"/>
 <path d="M 424.13867,217.28125 216.96289,424.45703 v 79.17774 h 67.51367 v -51.21289 l 167.17383,-167.17383 50.89453,0.82031 1.08985,-67.50391 z" id="path1177" shape-rendering="auto" mix-blend-mode="normal" isolation="auto" color-interpolation-filters="linearRGB" white-space="normal" fill="#666666" solid-opacity="1" image-rendering="auto" solid-color="#000000" color="#000000" color-rendering="auto" vector-effect="none" shape-padding="0" color-interpolation="sRGB"/>
</svg>
