<?xml version="1.0" encoding="UTF-8" standalone="no"?>
<svg xmlns="http://www.w3.org/2000/svg" version="1.0" width="580" height="580">
 <metadata id="metadata2975"/>
 <path d="M 278,184 56.7,303 c -13.7,10 3.2,20 10.3,28 9,10 21,0 30,-3 l 28,-12 0,218 c 2,14 18,9 28,10 12,0 24,-3 21,-16 l 0,-22 215,0 c 0,11 -1,21 1,32 3.11801,8.91925 17.46894,6.27019 29.72981,6.63043 C 433.72377,545.0416 438.47826,536.90062 438,524 l 0,-208 c 17,7 33,14 50,20 10,-1 15,-12 23,-18 9,-13 -9,-19 -18,-24 -69,-37 -138,-74 -208,-111 -5.1808,-0.33912 -5.37116,0.33569 -7,1 z m 6,107 105,12 0,178 -214,0 0,-178 c 36,-4 73,-9 109,-12 z m -86,126 c -1,24 34,35 49,17 15,-15 2,-42 -17,-42.5 C 211,391 198,403 198,417 Z m 73,19 c -33,5 -30,39 9,38 28,-1 57,0 85,-1 24,-4 17,-39 -11.5,-38.5 C 325,435 302,435 271,436 Z m -86,26 c 2,14 18,9 27,10 10,-1 21,2 30,-3 10,-16 -11,-16 -23,-17 -9.05681,-0.0189 -12,0 -19,0 -7,0 -13,1 -15,10 z M 347,36 c -15,14.6 -36,33 -48,48 -4,9 10,17 16,9 14,-15 29,-30 43,-45.2 2,-4.8 1,-13.2 -6,-13.3 -1,0 -3,0.4 -5,1.5 z M 228,47 c -27,24 -54,52 -76,75 -5,8 8,18 14,10 25,-25 50,-49 74,-74.1 2,-4.9 -1,-11.9 -8,-11.9 -1,0 -2,0 -4,1 z m -98,28 c -25,24 -54,51 -76,74 -5,9 7.9,18 14,11 25,-25 51,-49 75,-74 2,-5 -2,-13 -8,-13 -1,0 -3,1 -5,2 z m 379,5 c -20,16 -42,37 -59,54 -5,9 8,18 14,11 18,-18 37,-35 55,-53 3,-5 -1,-13 -6,-13 -2,0 -3,0 -4,1 z m -91,13 c -16,15 -47,46 -69,69 -5,8 8,18 14,10 25,-24 50,-49 75,-74 4,-3 3,-14 -5,-14 -4,-0.1 -8,2 -15,9 z m -158,9 c -24,22 -55,53 -77,76 -5,8 8,17 15,10 24,-25 49,-49 73,-74 3,-5 -1,-13 -7,-13 -1,0 -3,1 -4,1 z m 73,13 c -13,10 -29,25 -42,39 -4,9 9,17 15,9 12,-12 26,-24 37,-37 3,-4 -1,-12 -6,-12 -2,0 -3,0 -4,1 z m 178,34 c -20,18 -44,41 -61,59 -5,8 8,18 14,10 19,-19 39,-37 57,-56 3,-5 1,-14 -6,-14 -1,0 -2,0 -4,1 z m -96,29 -22,23 c -6,10 5,20 14,11 l 22,-26 c 4,-4 1,-13 -5,-13 -2,0 -5,1 -9,5 z m -302,-3 c -20,19 -44,41 -61.4,60 -5.6,8 7.4,17 14.4,10 18.9,-20 39,-39 58,-59 3,-4 -1,-12 -7,-12 -2,0 -3,0 -4,1 z" id="path4138" mix-blend-mode="normal" solid-color="#000000" opacity="0.8" color-interpolation-filters="linearRGB" filter-gaussianBlur-deviation="0" color="#000000" image-rendering="auto" color-rendering="auto" fill-rule="evenodd" stroke-width="64" isolation="auto" color-interpolation="sRGB" solid-opacity="1" fill="none" stroke-linejoin="round" filter-blend-mode="normal" stroke="#ffffff" shape-rendering="auto"/>
 <path id="path4315" d="M 278,184 56.7,303 c -13.7,10 3.2,20 10.3,28 9,10 21,0 30,-3 l 28,-12 0,218 c 2,14 18,9 28,10 12,0 24,-3 21,-16 l 0,-22 215,0 c 0,11 -1,21 1,32 3.11801,8.91925 17.46894,6.27019 29.72981,6.63043 C 433.72377,545.0416 438.47826,536.90062 438,524 l 0,-208 c 17,7 33,14 50,20 10,-1 15,-12 23,-18 9,-13 -9,-19 -18,-24 -69,-37 -138,-74 -208,-111 -5.1808,-0.33912 -5.37116,0.33569 -7,1 z m 6,107 105,12 0,178 -214,0 0,-178 c 36,-4 73,-9 109,-12 z m -86,126 c -1,24 34,35 49,17 15,-15 2,-42 -17,-42.5 C 211,391 198,403 198,417 Z m 73,19 c -33,5 -30,39 9,38 28,-1 57,0 85,-1 24,-4 17,-39 -11.5,-38.5 C 325,435 302,435 271,436 Z m -86,26 c 2,14 18,9 27,10 10,-1 21,2 30,-3 10,-16 -11,-16 -23,-17 -9.05681,-0.0189 -12,0 -19,0 -7,0 -13,1 -15,10 z M 347,36 c -15,14.6 -36,33 -48,48 -4,9 10,17 16,9 14,-15 29,-30 43,-45.2 2,-4.8 1,-13.2 -6,-13.3 -1,0 -3,0.4 -5,1.5 z M 228,47 c -27,24 -54,52 -76,75 -5,8 8,18 14,10 25,-25 50,-49 74,-74.1 2,-4.9 -1,-11.9 -8,-11.9 -1,0 -2,0 -4,1 z m -98,28 c -25,24 -54,51 -76,74 -5,9 7.9,18 14,11 25,-25 51,-49 75,-74 2,-5 -2,-13 -8,-13 -1,0 -3,1 -5,2 z m 379,5 c -20,16 -42,37 -59,54 -5,9 8,18 14,11 18,-18 37,-35 55,-53 3,-5 -1,-13 -6,-13 -2,0 -3,0 -4,1 z m -91,13 c -16,15 -47,46 -69,69 -5,8 8,18 14,10 25,-24 50,-49 75,-74 4,-3 3,-14 -5,-14 -4,-0.1 -8,2 -15,9 z m -158,9 c -24,22 -55,53 -77,76 -5,8 8,17 15,10 24,-25 49,-49 73,-74 3,-5 -1,-13 -7,-13 -1,0 -3,1 -4,1 z m 73,13 c -13,10 -29,25 -42,39 -4,9 9,17 15,9 12,-12 26,-24 37,-37 3,-4 -1,-12 -6,-12 -2,0 -3,0 -4,1 z m 178,34 c -20,18 -44,41 -61,59 -5,8 8,18 14,10 19,-19 39,-37 57,-56 3,-5 1,-14 -6,-14 -1,0 -2,0 -4,1 z m -96,29 -22,23 c -6,10 5,20 14,11 l 22,-26 c 4,-4 1,-13 -5,-13 -2,0 -5,1 -9,5 z m -302,-3 c -20,19 -44,41 -61.4,60 -5.6,8 7.4,17 14.4,10 18.9,-20 39,-39 58,-59 3,-4 -1,-12 -7,-12 -2,0 -3,0 -4,1 z" fill="#0092da" fill-rule="evenodd"/>
</svg>
