<?xml version="1.0" encoding="UTF-8" standalone="no"?>
<svg xmlns="http://www.w3.org/2000/svg" version="1.0" width="580" height="580">
 <metadata id="metadata2975"/>
 <path id="path4162" d="M 191 339 L 191 365 L 238 365 L 210 435 L 140 435 L 140 461 L 199 461 L 167 542 L 199 542 L 231 461 L 338 461 L 370 542 L 403 542 L 370 461 L 429 461 L 429 435 L 359 435 L 331 365 L 378 365 L 378 339 L 191 339 z M 266 365 L 296 365 L 324 435 L 238 435 L 266 365 z " mix-blend-mode="normal" solid-color="#000000" white-space="normal" color-interpolation-filters="linearRGB" opacity="0.8" filter-gaussianBlur-deviation="0" color="#000000" image-rendering="auto" color-rendering="auto" stroke-width="64" isolation="auto" color-interpolation="sRGB" solid-opacity="1" fill="none" stroke-linejoin="round" filter-blend-mode="normal" stroke="#ffffff" shape-rendering="auto"/>
 <path id="path4164" d="m 81,309 c -6.1,4.9 -2.4,13.2 3.1,16.8 5.8,4.7 11,15.3 20,11.2 21.8,-8.6 43.5,-17.8 65,-26 38.8,-4.5 78,-9.5 116,-13.6 38.8,4.8 78,9 116,14.2 22.4,8.7 44,18.5 67,26.6 8.3,-0.1 12.1,-9.3 18,-13.8 6.5,-4 6.3,-14.7 -1.4,-17 -66,-34.9 -132,-70 -199,-105 -0.8,-0.3 -1.55,-1.05 -1.55,-1.05 C 216,235 141,276 81,309 Z" mix-blend-mode="normal" solid-color="#000000" white-space="normal" color-interpolation-filters="linearRGB" opacity="0.8" filter-gaussianBlur-deviation="0" color="#000000" image-rendering="auto" color-rendering="auto" stroke-width="64" isolation="auto" color-interpolation="sRGB" solid-opacity="1" fill="none" stroke-linejoin="round" filter-blend-mode="normal" stroke="#ffffff" shape-rendering="auto"/>
 <path id="path4166" d="m 351.2,39.5 c -15.6,15.2 -36.8,34.8 -49,50 -4.4,9.4 10,17.5 15.9,8.9 14.9,-15.7 30.6,-30.7 45,-46.9 2.6,-4.7 1.2,-13.7 -5.95,-13.65 -1.75,0.15 -3.65,0.55 -5.95,1.65 z" mix-blend-mode="normal" solid-color="#000000" white-space="normal" color-interpolation-filters="linearRGB" opacity="0.8" filter-gaussianBlur-deviation="0" color="#000000" image-rendering="auto" color-rendering="auto" stroke-width="64" isolation="auto" color-interpolation="sRGB" solid-opacity="1" fill="none" stroke-linejoin="round" filter-blend-mode="normal" stroke="#ffffff" shape-rendering="auto"/>
 <path id="path4168" d="m 227.6,50.8 c -27.7,25.3 -56,53.7 -79,78 -5.5,8.8 7.9,18.6 14.6,10.8 25.5,-25.9 51.7,-51 77,-77 C 243,57.9 239,50.6 232.45,50.05 230.8,49.7 229.2,50 227.6,50.8 Z" mix-blend-mode="normal" solid-color="#000000" white-space="normal" color-interpolation-filters="linearRGB" opacity="0.8" filter-gaussianBlur-deviation="0" color="#000000" image-rendering="auto" color-rendering="auto" stroke-width="64" isolation="auto" color-interpolation="sRGB" solid-opacity="1" fill="none" stroke-linejoin="round" filter-blend-mode="normal" stroke="#ffffff" shape-rendering="auto"/>
 <path id="path4170" d="m 124.3,80.9 c -25.5,24.9 -55.8,53 -79,77 -5.4,8.7 7.8,18.5 14.6,10.8 25.7,-25.8 52,-51 77,-77 2.8,-5 -1.4,-12.6 -7.3,-12.75 -1.4,0.05 -3.3,0.55 -5.3,1.95 z" mix-blend-mode="normal" solid-color="#000000" white-space="normal" color-interpolation-filters="linearRGB" opacity="0.8" filter-gaussianBlur-deviation="0" color="#000000" image-rendering="auto" color-rendering="auto" stroke-width="64" isolation="auto" color-interpolation="sRGB" solid-opacity="1" fill="none" stroke-linejoin="round" filter-blend-mode="normal" stroke="#ffffff" shape-rendering="auto"/>
 <path id="path4172" d="M 517.8,86.1 C 499,102 476,124 459,142 c -5.5,8.6 7.5,18.6 14.4,11 18.9,-18.6 38.6,-36.6 57,-56 2.9,-4.8 -0.6,-13.3 -7.35,-12.9 -2.25,0.5 -3.65,0.9 -5.25,2 z" mix-blend-mode="normal" solid-color="#000000" white-space="normal" color-interpolation-filters="linearRGB" opacity="0.8" filter-gaussianBlur-deviation="0" color="#000000" image-rendering="auto" color-rendering="auto" stroke-width="64" isolation="auto" color-interpolation="sRGB" solid-opacity="1" fill="none" stroke-linejoin="round" filter-blend-mode="normal" stroke="#ffffff" shape-rendering="auto"/>
 <path id="path4174" d="m 425.6,98.1 c -16.6,15.6 -49,48 -71.9,72 -5.5,8.8 7.9,18.6 14.6,10.8 25.8,-25.8 52,-51 78,-77 4.3,-3.8 3.1,-15.3 -5.15,-14.95 -3.85,0.15 -8.95,2.55 -15.55,9.15 z" mix-blend-mode="normal" solid-color="#000000" white-space="normal" color-interpolation-filters="linearRGB" opacity="0.8" filter-gaussianBlur-deviation="0" color="#000000" image-rendering="auto" color-rendering="auto" stroke-width="64" isolation="auto" color-interpolation="sRGB" solid-opacity="1" fill="none" stroke-linejoin="round" filter-blend-mode="normal" stroke="#ffffff" shape-rendering="auto"/>
 <path id="path4176" d="m 260.4,109.1 c -24.7,22 -57.7,55 -79.9,78 -5.5,8.8 7.9,18.6 14.6,10.8 25.6,-25.9 51.9,-51 77,-77 3.1,-5 -1.7,-13 -8.05,-12.8 -1.25,0 -2.45,0.3 -3.65,1 z" mix-blend-mode="normal" solid-color="#000000" white-space="normal" color-interpolation-filters="linearRGB" opacity="0.8" filter-gaussianBlur-deviation="0" color="#000000" image-rendering="auto" color-rendering="auto" stroke-width="64" isolation="auto" color-interpolation="sRGB" solid-opacity="1" fill="none" stroke-linejoin="round" filter-blend-mode="normal" stroke="#ffffff" shape-rendering="auto"/>
 <path id="path4178" d="m 335.9,122.6 c -13.5,10.4 -29,26 -42.8,40 -4.6,9.3 9.4,17.7 15.6,9.5 12.7,-12.9 26.8,-24.7 38.6,-38 2.3,-4.8 -1.4,-12.8 -7.1,-12.85 -1.4,-0.05 -2.8,0.35 -4.3,1.35 z" mix-blend-mode="normal" solid-color="#000000" white-space="normal" color-interpolation-filters="linearRGB" opacity="0.8" filter-gaussianBlur-deviation="0" color="#000000" image-rendering="auto" color-rendering="auto" stroke-width="64" isolation="auto" color-interpolation="sRGB" solid-opacity="1" fill="none" stroke-linejoin="round" filter-blend-mode="normal" stroke="#ffffff" shape-rendering="auto"/>
 <path id="path4180" d="m 522,157.9 c -20.6,18 -45.6,42.6 -63,61 -5.6,8.7 7.6,18.7 14.5,11 19.6,-19.6 39.9,-38.5 59,-58 3,-5 0.8,-14.3 -6.1,-14.7 -1.4,-0.2 -2.8,0 -4.4,0.7 z" mix-blend-mode="normal" solid-color="#000000" white-space="normal" color-interpolation-filters="linearRGB" opacity="0.8" filter-gaussianBlur-deviation="0" color="#000000" image-rendering="auto" color-rendering="auto" stroke-width="64" isolation="auto" color-interpolation="sRGB" solid-opacity="1" fill="none" stroke-linejoin="round" filter-blend-mode="normal" stroke="#ffffff" shape-rendering="auto"/>
 <path id="path4182" d="M 422.4,188.2 399,212.8 c -6,10.1 5.2,20.4 14.2,10.5 l 22.9,-26.4 c 4.4,-4.3 1.7,-13.4 -4.65,-13.5 -2.45,0 -5.55,1.3 -9.05,4.8 z" mix-blend-mode="normal" solid-color="#000000" white-space="normal" color-interpolation-filters="linearRGB" opacity="0.8" filter-gaussianBlur-deviation="0" color="#000000" image-rendering="auto" color-rendering="auto" stroke-width="64" isolation="auto" color-interpolation="sRGB" solid-opacity="1" fill="none" stroke-linejoin="round" filter-blend-mode="normal" stroke="#ffffff" shape-rendering="auto"/>
 <path id="path4184" d="m 106.9,185.1 c -20.6,19.5 -45,42.8 -64,62 -5.5,8.8 7.9,18.6 14.6,10.8 20,-20.5 41,-40 60.7,-61 2.8,-4.8 -1.3,-12.7 -7.1,-12.95 -1.1,-0.15 -2.6,0.25 -4.2,1.15 z" mix-blend-mode="normal" solid-color="#000000" white-space="normal" color-interpolation-filters="linearRGB" opacity="0.8" filter-gaussianBlur-deviation="0" color="#000000" image-rendering="auto" color-rendering="auto" stroke-width="64" isolation="auto" color-interpolation="sRGB" solid-opacity="1" fill="none" stroke-linejoin="round" filter-blend-mode="normal" stroke="#ffffff" shape-rendering="auto"/>
 <path d="M 191 339 L 191 365 L 238 365 L 210 435 L 140 435 L 140 461 L 199 461 L 167 542 L 199 542 L 231 461 L 338 461 L 370 542 L 403 542 L 370 461 L 429 461 L 429 435 L 359 435 L 331 365 L 378 365 L 378 339 L 191 339 z M 266 365 L 296 365 L 324 435 L 238 435 L 266 365 z " id="path4159" isolation="auto" color-rendering="auto" white-space="normal" solid-opacity="1" mix-blend-mode="normal" color-interpolation-filters="linearRGB" shape-rendering="auto" fill-rule="evenodd" image-rendering="auto" color-interpolation="sRGB" color="#000000" solid-color="#000000"/>
 <path d="m 81,309 c -6.1,4.9 -2.4,13.2 3.1,16.8 5.8,4.7 11,15.3 20,11.2 21.8,-8.6 43.5,-17.8 65,-26 38.8,-4.5 78,-9.5 116,-13.6 38.8,4.8 78,9 116,14.2 22.4,8.7 44,18.5 67,26.6 8.3,-0.1 12.1,-9.3 18,-13.8 6.5,-4 6.3,-14.7 -1.4,-17 -66,-34.9 -132,-70 -199,-105 -0.8,-0.3 -1.55,-1.05 -1.55,-1.05 C 216,235 141,276 81,309 Z" id="path4155" isolation="auto" color-rendering="auto" white-space="normal" solid-opacity="1" mix-blend-mode="normal" color-interpolation-filters="linearRGB" shape-rendering="auto" fill-rule="evenodd" image-rendering="auto" color-interpolation="sRGB" color="#000000" solid-color="#000000"/>
 <path d="m 351.2,39.5 c -15.6,15.2 -36.8,34.8 -49,50 -4.4,9.4 10,17.5 15.9,8.9 14.9,-15.7 30.6,-30.7 45,-46.9 2.6,-4.7 1.2,-13.7 -5.95,-13.65 -1.75,0.15 -3.65,0.55 -5.95,1.65 z" id="path4153" isolation="auto" color-rendering="auto" white-space="normal" solid-opacity="1" mix-blend-mode="normal" color-interpolation-filters="linearRGB" shape-rendering="auto" fill-rule="evenodd" image-rendering="auto" color-interpolation="sRGB" color="#000000" solid-color="#000000"/>
 <path d="m 227.6,50.8 c -27.7,25.3 -56,53.7 -79,78 -5.5,8.8 7.9,18.6 14.6,10.8 25.5,-25.9 51.7,-51 77,-77 C 243,57.9 239,50.6 232.45,50.05 230.8,49.7 229.2,50 227.6,50.8 Z" id="path4151" isolation="auto" color-rendering="auto" white-space="normal" solid-opacity="1" mix-blend-mode="normal" color-interpolation-filters="linearRGB" shape-rendering="auto" fill-rule="evenodd" image-rendering="auto" color-interpolation="sRGB" color="#000000" solid-color="#000000"/>
 <path d="m 124.3,80.9 c -25.5,24.9 -55.8,53 -79,77 -5.4,8.7 7.8,18.5 14.6,10.8 25.7,-25.8 52,-51 77,-77 2.8,-5 -1.4,-12.6 -7.3,-12.75 -1.4,0.05 -3.3,0.55 -5.3,1.95 z" id="path4149" isolation="auto" color-rendering="auto" white-space="normal" solid-opacity="1" mix-blend-mode="normal" color-interpolation-filters="linearRGB" shape-rendering="auto" fill-rule="evenodd" image-rendering="auto" color-interpolation="sRGB" color="#000000" solid-color="#000000"/>
 <path d="M 517.8,86.1 C 499,102 476,124 459,142 c -5.5,8.6 7.5,18.6 14.4,11 18.9,-18.6 38.6,-36.6 57,-56 2.9,-4.8 -0.6,-13.3 -7.35,-12.9 -2.25,0.5 -3.65,0.9 -5.25,2 z" id="path4147" isolation="auto" color-rendering="auto" white-space="normal" solid-opacity="1" mix-blend-mode="normal" color-interpolation-filters="linearRGB" shape-rendering="auto" fill-rule="evenodd" image-rendering="auto" color-interpolation="sRGB" color="#000000" solid-color="#000000"/>
 <path d="m 425.6,98.1 c -16.6,15.6 -49,48 -71.9,72 -5.5,8.8 7.9,18.6 14.6,10.8 25.8,-25.8 52,-51 78,-77 4.3,-3.8 3.1,-15.3 -5.15,-14.95 -3.85,0.15 -8.95,2.55 -15.55,9.15 z" id="path4145" isolation="auto" color-rendering="auto" white-space="normal" solid-opacity="1" mix-blend-mode="normal" color-interpolation-filters="linearRGB" shape-rendering="auto" fill-rule="evenodd" image-rendering="auto" color-interpolation="sRGB" color="#000000" solid-color="#000000"/>
 <path d="m 260.4,109.1 c -24.7,22 -57.7,55 -79.9,78 -5.5,8.8 7.9,18.6 14.6,10.8 25.6,-25.9 51.9,-51 77,-77 3.1,-5 -1.7,-13 -8.05,-12.8 -1.25,0 -2.45,0.3 -3.65,1 z" id="path4143" isolation="auto" color-rendering="auto" white-space="normal" solid-opacity="1" mix-blend-mode="normal" color-interpolation-filters="linearRGB" shape-rendering="auto" fill-rule="evenodd" image-rendering="auto" color-interpolation="sRGB" color="#000000" solid-color="#000000"/>
 <path d="m 335.9,122.6 c -13.5,10.4 -29,26 -42.8,40 -4.6,9.3 9.4,17.7 15.6,9.5 12.7,-12.9 26.8,-24.7 38.6,-38 2.3,-4.8 -1.4,-12.8 -7.1,-12.85 -1.4,-0.05 -2.8,0.35 -4.3,1.35 z" id="path4140" isolation="auto" color-rendering="auto" white-space="normal" solid-opacity="1" mix-blend-mode="normal" color-interpolation-filters="linearRGB" shape-rendering="auto" fill-rule="evenodd" image-rendering="auto" color-interpolation="sRGB" color="#000000" solid-color="#000000"/>
 <path d="m 522,157.9 c -20.6,18 -45.6,42.6 -63,61 -5.6,8.7 7.6,18.7 14.5,11 19.6,-19.6 39.9,-38.5 59,-58 3,-5 0.8,-14.3 -6.1,-14.7 -1.4,-0.2 -2.8,0 -4.4,0.7 z" id="path4138" isolation="auto" color-rendering="auto" white-space="normal" solid-opacity="1" mix-blend-mode="normal" color-interpolation-filters="linearRGB" shape-rendering="auto" fill-rule="evenodd" image-rendering="auto" color-interpolation="sRGB" color="#000000" solid-color="#000000"/>
 <path d="M 422.4,188.2 399,212.8 c -6,10.1 5.2,20.4 14.2,10.5 l 22.9,-26.4 c 4.4,-4.3 1.7,-13.4 -4.65,-13.5 -2.45,0 -5.55,1.3 -9.05,4.8 z" id="path4136" isolation="auto" color-rendering="auto" white-space="normal" solid-opacity="1" mix-blend-mode="normal" color-interpolation-filters="linearRGB" shape-rendering="auto" fill-rule="evenodd" image-rendering="auto" color-interpolation="sRGB" color="#000000" solid-color="#000000"/>
 <path d="m 106.9,185.1 c -20.6,19.5 -45,42.8 -64,62 -5.5,8.8 7.9,18.6 14.6,10.8 20,-20.5 41,-40 60.7,-61 2.8,-4.8 -1.3,-12.7 -7.1,-12.95 -1.1,-0.15 -2.6,0.25 -4.2,1.15 z" id="path4142" isolation="auto" color-rendering="auto" white-space="normal" solid-opacity="1" mix-blend-mode="normal" color-interpolation-filters="linearRGB" shape-rendering="auto" fill-rule="evenodd" image-rendering="auto" color-interpolation="sRGB" color="#000000" solid-color="#000000"/>
</svg>
