<?xml version="1.0" encoding="UTF-8" standalone="no"?>
<svg xmlns="http://www.w3.org/2000/svg" version="1.0" width="580" height="580">
 <metadata id="metadata2975"/>
 <path d="m 365.09961,38.949219 c -1.8,0.05 -3.79961,0.55039 -6.09961,1.65039 -16.2,15.8 -38,36 -51,52 -4.6,9.800001 10.4,18.200781 16.5,9.300781 15.5,-16.299999 31.79922,-31.899609 46.69922,-48.599609 2.7,-5 1.30039,-14.301562 -6.09961,-14.351562 z m -130,12.5 c -1.6,0.15 -3.3,0.551562 -5,1.351562 -28.8,26 -58,55.799999 -82,80.999999 -5.7,9.1 8.2,19.29922 15,11.19922 26.5,-26.9 53.8,-53 80,-81 2.9,-4.9 -1.3,-12.500781 -8,-12.550781 z M 129.55078,80.900391 c -1.35,0 -3.35117,0.6 -5.45117,2 -26.500001,25.899999 -58.000001,54.999999 -82.000001,79.999999 -5.6,9 8,18.99922 15,11.19922 26.7,-26.8 54.000001,-52.9 80.000001,-80.000001 3,-5.2 -1.39883,-12.999218 -7.54883,-13.199218 z m 408.39844,5.798828 c -1.25,0 -2.84922,0.5 -4.44922,1.5 -21.3,17.200001 -45.00039,40.001171 -62.90039,58.701171 -5.7,8.9 7.80039,19.30039 14.90039,11.40039 19.7,-19.3 40,-38.00117 59,-57.70117 3,-5.000001 -0.60078,-13.900391 -6.55078,-13.900391 z M 451.90039,92.25 c -3.9,0.15 -9.1,2.650781 -16,9.55078 -17.3,16.2 -51,50 -75,75 -5.6,9 8.19922,19.29922 15.19922,11.19922 26.7,-26.8 54,-53 81,-80 4.4,-4 3.20078,-15.8 -5.19922,-15.75 z m -183,18.75 c -1.1,0.1 -2.40117,0.39961 -3.70117,1.09961 -25.6,23 -59.9,57 -83,81 -5.7,9.1 8.2,19.30117 15,11.20117 26.5,-26.9 53.9,-53 80,-80 3.2,-5.3 -1.79883,-13.60078 -8.29883,-13.30078 z m 78.69922,13.59961 c -1.2,0 -2.69922,0.50039 -4.19922,1.40039 -14,10.8 -30.4,27.00039 -44.5,41.90039 -4.8,9.6 9.8,18.39883 16,9.79883 13.2,-13.5 27.8,-25.69883 40,-39.79883 2.4,-5 -1.40078,-13.30078 -7.30078,-13.30078 z m 191.69727,37.12695 C 538.38047,161.675 537.275,161.975 536,162.5 c -21.3,18.9 -47,44 -66,64 -5.8,9 7.9,19.30039 15,11.40039 20.3,-20.3 41,-40.00117 61,-60.70117 3,-5.3 0.80039,-14.89883 -5.84961,-15.29883 -0.2625,-0.1 -0.54805,-0.15664 -0.85351,-0.17383 z M 440.84961,189.25 c -2.65,-0.05 -5.94922,1.34922 -9.44922,4.94922 l -24.30078,25.60156 c -6.2,10.5 5.50039,20.99844 14.90039,10.89844 l 23.80078,-27.39844 c 4.6,-4.5 1.79883,-13.90078 -4.95117,-14.05078 z m -333.04883,0.5 c -1.4,-0.05 -2.9,0.35 -4.5,1.25 -21.399999,20.3 -46.999999,44.5 -65.999999,65 -5.7,9.1 8.2,19.29922 15,11.19922 20.9,-21.3 42.7,-41.9 62.999999,-64 3,-5 -1.3,-13.19922 -7.5,-13.44922 z m 215.71094,91.32422 C 292.65668,280.8778 255.1875,288.90312 218,305 c -45,20 -70.4,43 -119,108 -34,46 -63.7,87.50078 -66.5,93.30078 -1.5,11.9 114.8,30.69883 153.5,32.29883 84,-0.8 88,0.60078 168,-1.69922 150.5,-4 207,-10 173,-65 -18,-29 -82,-105 -142,-171 -12.1875,-13.07812 -34.26324,-19.65286 -61.48828,-19.82617 z" id="path4140" mix-blend-mode="normal" solid-color="#000000" opacity="0.8" color-interpolation-filters="linearRGB" filter-gaussianBlur-deviation="0" color="#000000" image-rendering="auto" color-rendering="auto" fill-rule="evenodd" stroke-width="64" isolation="auto" color-interpolation="sRGB" solid-opacity="1" fill="none" stroke-linejoin="round" filter-blend-mode="normal" stroke="#ffffff" shape-rendering="auto"/>
 <path d="m 99,413 c 48.6,-65 74,-88 119,-108 70,-30.3 141,-32 167,-4.1 60,66 124,142 142,171 34,55 -22.5,61 -173,65 -80,2.3 -84,0.9 -168,1.7 C 147.3,537 31,518.2 32.5,506.3 35.3,500.5 65,459 99,413 Z" id="path3015-1" fill="#ffffff"/>
 <path d="m 219,305 c 70,-30.3 141,-32 167,-4.1 60,66 124,142 142,171 34,55 -22.5,61 -173,65 -80,2.3 -84,0.9 -168,1.7 -38.7,-1.6 -155,-20.4 -154,-32 2.3,-5.5 32,-47 66.5,-93.3 C 148.6,348 174,325 219,305 Z" id="path3015" opacity="0.1"/>
 <path id="path4173" d="m 359,40.6 c -16.2,15.8 -38,36 -51,52 -4.6,9.8 10.4,18.2 16.5,9.3 C 340,85.6 356.3,70 371.2,53.3 373.9,48.3 372.5,39 365.1,38.95 363.3,39 361.3,39.5 359,40.6 Z M 230.1,52.8 c -28.8,26 -58,55.8 -82,81 -5.7,9.1 8.2,19.3 15,11.2 26.5,-26.9 53.8,-53 80,-81 2.9,-4.9 -1.3,-12.5 -8,-12.55 -1.6,0.15 -3.3,0.55 -5,1.35 z m -106,30.1 c -26.5,25.9 -58,55 -82,80 -5.6,9 8,19 15,11.2 26.7,-26.8 54,-52.9 80,-80 3,-5.2 -1.4,-13 -7.55,-13.2 -1.35,0 -3.35,0.6 -5.45,2 z m 409.4,5.3 c -21.3,17.2 -45,40 -62.9,58.7 -5.7,8.9 7.8,19.3 14.9,11.4 19.7,-19.3 40,-38 59,-57.7 3,-5 -0.6,-13.9 -6.55,-13.9 -1.25,0 -2.85,0.5 -4.45,1.5 z m -97.6,13.6 c -17.3,16.2 -51,50 -75,75 -5.6,9 8.2,19.3 15.2,11.2 26.7,-26.8 54,-53 81,-80 4.4,-4 3.2,-15.8 -5.2,-15.75 -3.9,0.15 -9.1,2.65 -16,9.55 z m -170.7,10.3 c -25.6,23 -59.9,57 -83,81 -5.7,9.1 8.2,19.3 15,11.2 26.5,-26.9 53.9,-53 80,-80 3.2,-5.3 -1.8,-13.6 -8.3,-13.3 -1.1,0.1 -2.4,0.4 -3.7,1.1 z m 78.2,13.9 c -14,10.8 -30.4,27 -44.5,41.9 -4.8,9.6 9.8,18.4 16,9.8 13.2,-13.5 27.8,-25.7 40,-39.8 2.4,-5 -1.4,-13.3 -7.3,-13.3 -1.2,0 -2.7,0.5 -4.2,1.4 z M 536,162.5 c -21.3,18.9 -47,44 -66,64 -5.8,9 7.9,19.3 15,11.4 20.3,-20.3 41,-40 61,-60.7 3,-5.3 0.8,-14.9 -5.85,-15.3 -1.05,-0.4 -2.45,-0.1 -4.15,0.6 z m -104.6,31.7 -24.3,25.6 c -6.2,10.5 5.5,21 14.9,10.9 l 23.8,-27.4 c 4.6,-4.5 1.8,-13.9 -4.95,-14.05 -2.65,-0.05 -5.95,1.35 -9.45,4.95 z M 103.3,191 c -21.4,20.3 -47,44.5 -66,65 -5.7,9.1 8.2,19.3 15,11.2 20.9,-21.3 42.7,-41.9 63,-64 3,-5 -1.3,-13.2 -7.5,-13.45 -1.4,-0.05 -2.9,0.35 -4.5,1.25 z" fill-rule="evenodd"/>
 <path d="m 100,412 c -33.7,45.6 -63,88 -66,93 -2.4,5.5 5,8 16,5.9 11.3,-2.2 43.6,-38 72,-80 42,-62 62,-80 112,-102 102,-43.6 103,-43 213,81 25.7,29 55,65 66,80 26.8,38.6 39.7,19.5 14.4,-20.8 -18.6,-28.5 -81,-104 -143,-170 -11.9,-12.9 -33.7,-18.8 -61,-19.4 -30.8,0.2 -68,8.2 -105.2,24.15 C 174.4,323.4 149,346 100,412 Z" id="path4146" isolation="auto" white-space="normal" mix-blend-mode="normal" color-rendering="auto" solid-opacity="1" color-interpolation-filters="linearRGB" shape-rendering="auto" fill-rule="evenodd" image-rendering="auto" color-interpolation="sRGB" color="#000000" solid-color="#000000"/>
 <path d="m 289,519.6 c 77,0 140,-3.1 140,-6.8 0,-3.8 -16.5,-29.7 -36.6,-58 C 358,408 312,379 276,379 c -42,0 -127,101 -127,134 0,3.6 63,6.6 140,6.6 z" id="path15803" isolation="auto" white-space="normal" mix-blend-mode="normal" color-rendering="auto" solid-opacity="1" color-interpolation-filters="linearRGB" shape-rendering="auto" fill-rule="evenodd" image-rendering="auto" color-interpolation="sRGB" color="#000000" solid-color="#000000"/>
</svg>
