<?xml version="1.0" encoding="UTF-8" standalone="no"?>
<svg xmlns="http://www.w3.org/2000/svg" version="1.0" width="580" height="580">
 <metadata id="metadata2975"/>
 <g id="g2272" transform="matrix(1.1345849,0,0,1.1345849,75.745281,51.737912)" fill="none" stroke="#ffffff" vector-effect="none" stroke-linejoin="round" stroke-width="54.78">
  <path id="path2262" d="m 291.16,376.509 c -4.208,-2.684 -9.803,-1.442 -12.484,2.772 -5.796,9.1 -25.226,4.135 -37.657,0.732 -0.268,-0.073 -180.914,-50.424 -180.914,-50.424 -4.812,-1.339 -9.798,1.474 -11.139,6.286 -1.338,4.813 1.475,9.798 6.287,11.14 l 32.181,8.961 c -1.655,1.941 -2.938,4.249 -3.667,6.869 -2.683,9.623 2.947,19.597 12.568,22.275 9.624,2.681 19.596,-2.949 22.277,-12.569 0.729,-2.619 0.825,-5.26 0.408,-7.778 l 91.248,25.413 c -1.652,1.941 -2.938,4.249 -3.666,6.868 -2.681,9.623 2.949,19.598 12.568,22.276 9.625,2.682 19.6,-2.948 22.277,-12.57 0.699,-2.512 0.82,-5.043 0.467,-7.466 0.057,0.015 0.106,0.03 0.166,0.048 13.34,3.713 40.015,8.235 51.85,-10.348 2.682,-4.21 1.443,-9.801 -2.77,-12.485 z" vector-effect="none" stroke-width="54.78"/>
  <path id="path2264" d="m 194.192,80.675 c 4.875,3.28 10.397,5.552 16.16,6.678 l 0.058,0.012 c 14.28,2.771 29.298,-1.826 39.596,-12.098 10.442,-10.425 15.027,-25.838 11.983,-40.28 -2.962,-14.066 -12.908,-26.109 -26.186,-31.633 -13.59,-5.653 -29.433,-4.085 -41.635,4.14 -12.204,8.225 -19.602,22.32 -19.465,37.039 0.139,14.38 7.567,28.117 19.489,36.142 z" vector-effect="none" stroke-width="54.78"/>
  <path id="path2266" d="m 388.305,74.783 c -0.913,-9.862 -9.647,-17.116 -19.509,-16.201 l -79.805,7.391 c -4.51,0.528 -17.996,5.747 -29.74,9.786 -1.686,2.515 -3.617,4.879 -5.781,7.042 -11.143,11.114 -27.393,16.089 -42.844,13.09 l -0.063,-0.012 c -6.235,-1.219 -12.209,-3.677 -17.484,-7.225 -2.751,-1.854 -5.268,-4.002 -7.548,-6.363 -26.44,-2.323 -56.989,-4.771 -77.166,-1.462 L 41.39,103.535 c -6.824,2.305 -10.99,9.406 -9.455,16.622 1.656,7.771 9.297,12.73 17.07,11.076 l 64.996,-13.839 49.992,6.699 c 0,0 -19.606,73.377 -19.608,73.385 -8.507,34.59 21.42,59.791 21.42,59.791 l -37.056,58.685 c -4.957,7.892 -3.075,18.445 4.563,24.043 7.988,5.857 19.212,4.128 25.068,-3.861 l 50.054,-68.284 c 2.775,-3.806 4.086,-8.482 3.764,-13.128 l 25.52,4.757 -44.891,70.075 c -5.096,7.981 -3.127,18.687 4.666,24.26 8.056,5.76 19.254,3.901 25.018,-4.153 l 66.743,-93.311 c 1.488,-2.103 2.669,-4.604 3.29,-7.268 2.572,-11.023 -4.279,-22.045 -15.304,-24.62 l -0.977,-0.226 -42.758,-9.979 20.169,-75.481 c 0.95,-3.553 1.436,-7.118 1.519,-10.638 0.483,-0.223 0.964,-0.457 1.437,-0.717 l 41.003,-22.512 75.345,-10.724 c 9.387,-1.353 16.21,-9.853 15.327,-19.404 z" vector-effect="none" stroke-width="54.78"/>
 </g>
 <g transform="matrix(1.1345849,0,0,1.1345849,75.745281,51.737912)" id="g11" fill="#39ac39" stroke="none" vector-effect="none" stroke-width="0.94">
  <path d="m 291.16,376.509 c -4.208,-2.684 -9.803,-1.442 -12.484,2.772 -5.796,9.1 -25.226,4.135 -37.657,0.732 -0.268,-0.073 -180.914,-50.424 -180.914,-50.424 -4.812,-1.339 -9.798,1.474 -11.139,6.286 -1.338,4.813 1.475,9.798 6.287,11.14 l 32.181,8.961 c -1.655,1.941 -2.938,4.249 -3.667,6.869 -2.683,9.623 2.947,19.597 12.568,22.275 9.624,2.681 19.596,-2.949 22.277,-12.569 0.729,-2.619 0.825,-5.26 0.408,-7.778 l 91.248,25.413 c -1.652,1.941 -2.938,4.249 -3.666,6.868 -2.681,9.623 2.949,19.598 12.568,22.276 9.625,2.682 19.6,-2.948 22.277,-12.57 0.699,-2.512 0.82,-5.043 0.467,-7.466 0.057,0.015 0.106,0.03 0.166,0.048 13.34,3.713 40.015,8.235 51.85,-10.348 2.682,-4.21 1.443,-9.801 -2.77,-12.485 z" id="path2" vector-effect="none" stroke-width="0.94"/>
  <path d="m 194.192,80.675 c 4.875,3.28 10.397,5.552 16.16,6.678 l 0.058,0.012 c 14.28,2.771 29.298,-1.826 39.596,-12.098 10.442,-10.425 15.027,-25.838 11.983,-40.28 -2.962,-14.066 -12.908,-26.109 -26.186,-31.633 -13.59,-5.653 -29.433,-4.085 -41.635,4.14 -12.204,8.225 -19.602,22.32 -19.465,37.039 0.139,14.38 7.567,28.117 19.489,36.142 z" id="path4" vector-effect="none" stroke-width="0.94"/>
  <path d="m 388.305,74.783 c -0.913,-9.862 -9.647,-17.116 -19.509,-16.201 l -79.805,7.391 c -4.51,0.528 -17.996,5.747 -29.74,9.786 -1.686,2.515 -3.617,4.879 -5.781,7.042 -11.143,11.114 -27.393,16.089 -42.844,13.09 l -0.063,-0.012 c -6.235,-1.219 -12.209,-3.677 -17.484,-7.225 -2.751,-1.854 -5.268,-4.002 -7.548,-6.363 -26.44,-2.323 -56.989,-4.771 -77.166,-1.462 L 41.39,103.535 c -6.824,2.305 -10.99,9.406 -9.455,16.622 1.656,7.771 9.297,12.73 17.07,11.076 l 64.996,-13.839 49.992,6.699 c 0,0 -19.606,73.377 -19.608,73.385 -8.507,34.59 21.42,59.791 21.42,59.791 l -37.056,58.685 c -4.957,7.892 -3.075,18.445 4.563,24.043 7.988,5.857 19.212,4.128 25.068,-3.861 l 50.054,-68.284 c 2.775,-3.806 4.086,-8.482 3.764,-13.128 l 25.52,4.757 -44.891,70.075 c -5.096,7.981 -3.127,18.687 4.666,24.26 8.056,5.76 19.254,3.901 25.018,-4.153 l 66.743,-93.311 c 1.488,-2.103 2.669,-4.604 3.29,-7.268 2.572,-11.023 -4.279,-22.045 -15.304,-24.62 l -0.977,-0.226 -42.758,-9.979 20.169,-75.481 c 0.95,-3.553 1.436,-7.118 1.519,-10.638 0.483,-0.223 0.964,-0.457 1.437,-0.717 l 41.003,-22.512 75.345,-10.724 c 9.387,-1.353 16.21,-9.853 15.327,-19.404 z" id="path6" vector-effect="none" stroke-width="0.94"/>
 </g>
</svg>
