<?xml version="1.0" encoding="UTF-8" standalone="no"?>
<svg xmlns="http://www.w3.org/2000/svg" width="580" height="580" version="1.0">
 <metadata id="metadata7"/>
 <path id="path4229" d="m 58,358 c 2.2,35 -2.400391,71 -10.900391,105 -2.9,9.1 4.600782,22.4 -6.699218,24 -4.7,8.1 -1.9,18.90039 -3.5,27.90039 -2.8,9.8 7.7,14.30039 15.5,15.40039 33.7,4.7 67.899999,1 101.999999,0.5 53,-2.3 107,2.49961 159,-10.90039 12.6,-3.4 26,-5.40039 37,-12.90039 6.9,-10.3 1.89883,-24.90039 -3.20117,-34.90039 -2.6,-5.9 -8.3,-7.7 -13,-11.5 -13.4,-5.2 -28.5,-3.10039 -42,-1.40039 -9.3,6.4 -23,-2.19883 -34,-3.79883 -27.6,-8.5 -58,-18.9 -74,-44 -13.4,-16.6 -23.8,-35.89961 -39,-50.59961 C 115.8042,361.08667 84.711733,361.43533 58,358 Z" mix-blend-mode="normal" solid-color="#000000" opacity="0.8" color-interpolation-filters="linearRGB" filter-gaussianBlur-deviation="0" color="#000000" image-rendering="auto" color-rendering="auto" fill-rule="evenodd" stroke-width="64" isolation="auto" color-interpolation="sRGB" solid-opacity="1" fill="none" stroke-linejoin="round" filter-blend-mode="normal" stroke="#ffffff" shape-rendering="auto"/>
 <path id="path4231" d="m 323,118 c -15.9,37 -7.4,83 20,112 31.8,35.7 86,47 130,29.8 39.5,-14.8 70,-53 71,-96 C 548,123 524,83 488,63.7 470,54 450,49 430,49 385,48.4 340,76 323,118 Z" mix-blend-mode="normal" solid-color="#000000" opacity="0.8" color-interpolation-filters="linearRGB" filter-gaussianBlur-deviation="0" color="#000000" image-rendering="auto" color-rendering="auto" fill-rule="evenodd" stroke-width="64" isolation="auto" color-interpolation="sRGB" solid-opacity="1" fill="none" stroke-linejoin="round" filter-blend-mode="normal" stroke="#ffffff" shape-rendering="auto"/>
 <path id="path4233" d="m 52.9,65 c -30.4,29.5 -20.3,74 12.6,107 25.8,25.8 57,39 84,27.8 11.5,3.9 30.9,11.9 49.6,25.8 -0.6,3 0.2,6.2 2.5,8.4 l 55.8,55.8 c 3.6,3.6 9.5,3.6 13,0 l 6.5,-6.5 c 3.6,-3.6 3.6,-9.5 0,-13 l -55.8,-55.8 c -2.3,-2.3 -5.5,-3.1 -8.4,-2.5 -14,-18.8 -22,-38 -25.9,-49.8 10.9,-27.7 -2,-59 -27.7,-84 C 139.5,58.6 115.4,48.3 97.1,48.7 79.655932,50.791757 62.8041,56.277603 52.9,65 Z M 180,174 c 4.2,10.3 9.6,21.9 16.3,34 -12.2,-6.7 -23.8,-12 -34,-16.3 6.49457,-5.70184 13.17446,-12.31786 17.7,-17.7 z M 59,258 c 0,17.2 13.9,31 31,31 17.2,0 31,-13.9 31,-31 0,-17.2 -13.9,-31 -31,-31 -17.2,0 -31,13.9 -31,31 z" mix-blend-mode="normal" solid-color="#000000" opacity="0.8" color-interpolation-filters="linearRGB" filter-gaussianBlur-deviation="0" color="#000000" image-rendering="auto" color-rendering="auto" fill-rule="evenodd" stroke-width="64" isolation="auto" color-interpolation="sRGB" solid-opacity="1" fill="none" stroke-linejoin="round" filter-blend-mode="normal" stroke="#ffffff" shape-rendering="auto"/>
 <path id="path4235" d="m 413.4,369 c 0,-25 13.9,-37 30.5,-42.7 20,-6.9 57.8,-10 61,18.3 6.1,54.9 -36.6,140 -42.7,152 -24.4,18.3 -46.8,1 -46.8,-17.3 -18.3,-6.1 -22.4,-11.2 -24.4,-12.2 0,67 60.9,79 89,47.8 14.2,-17.3 50.8,-103 48.8,-177 -4.1,-29.5 -16,-39.8 -54.9,-42.7 -2.6,-0.2 -5.1,-0.3 -7.6,-0.3 -50.7,0.5 -83,44 -77.65,73.55 8.55,5.65 12.55,6.65 24.75,0.55 z m 4.3,103.7 c 23,-53 17.3,-41 40,-89 -5.8,-11.8 -11.5,-11.8 -23,-11.8 -46,100 5.8,-11.8 -40,89 5.8,5.9 11.5,11.8 23,11.8 z" mix-blend-mode="normal" solid-color="#000000" opacity="0.8" color-interpolation-filters="linearRGB" filter-gaussianBlur-deviation="0" color="#000000" image-rendering="auto" color-rendering="auto" fill-rule="evenodd" stroke-width="64" isolation="auto" color-interpolation="sRGB" solid-opacity="1" fill="none" stroke-linejoin="round" filter-blend-mode="normal" stroke="#ffffff" shape-rendering="auto"/>
 <path d="m 58,358 c 2.2,35 -2.400391,71 -10.900391,105 -2.9,9.1 4.600782,22.4 -6.699218,24 -4.7,8.1 -1.9,18.90039 -3.5,27.90039 -2.8,9.8 7.7,14.30039 15.5,15.40039 33.7,4.7 67.899999,1 101.999999,0.5 53,-2.3 107,2.49961 159,-10.90039 12.6,-3.4 26,-5.40039 37,-12.90039 6.9,-10.3 1.89883,-24.90039 -3.20117,-34.90039 -2.6,-5.9 -8.3,-7.7 -13,-11.5 -13.4,-5.2 -28.5,-3.10039 -42,-1.40039 -9.3,6.4 -23,-2.19883 -34,-3.79883 -27.6,-8.5 -58,-18.9 -74,-44 -13.4,-16.6 -23.8,-35.89961 -39,-50.59961 C 115.8042,361.08667 84.711733,361.43533 58,358 Z" id="path4226" fill="#ac39ac"/>
 <path d="m 323,118 c -15.9,37 -7.4,83 20,112 31.8,35.7 86,47 130,29.8 39.5,-14.8 70,-53 71,-96 C 548,123 524,83 488,63.7 470,54 450,49 430,49 385,48.4 340,76 323,118 Z" id="path10456" fill="#ac39ac" fill-rule="evenodd"/>
 <path d="m 52.9,65 c -30.4,29.5 -20.3,74 12.6,107 25.8,25.8 57,39 84,27.8 11.5,3.9 30.9,11.9 49.6,25.8 -0.6,3 0.2,6.2 2.5,8.4 l 55.8,55.8 c 3.6,3.6 9.5,3.6 13,0 l 6.5,-6.5 c 3.6,-3.6 3.6,-9.5 0,-13 l -55.8,-55.8 c -2.3,-2.3 -5.5,-3.1 -8.4,-2.5 -14,-18.8 -22,-38 -25.9,-49.8 10.9,-27.7 -2,-59 -27.7,-84 C 139.5,58.6 115.4,48.3 97.1,48.7 79.655932,50.791757 62.8041,56.277603 52.9,65 Z M 180,174 c 4.2,10.3 9.6,21.9 16.3,34 -12.2,-6.7 -23.8,-12 -34,-16.3 6.49457,-5.70184 13.17446,-12.31786 17.7,-17.7 z M 59,258 c 0,17.2 13.9,31 31,31 17.2,0 31,-13.9 31,-31 0,-17.2 -13.9,-31 -31,-31 -17.2,0 -31,13.9 -31,31 z" id="circle2441" fill="#ac39ac"/>
 <path d="m 387.2,66.5 -12.9,19.5 5,20.6 33.7,8.9 26.6,-12.4 L 446,77.8 422,58 Z" id="path4158" opacity="0.8" fill="#ffffff" fill-rule="evenodd"/>
 <path d="m 453.7,79.4 -4.2,24 26.4,26.4 28,-4.2 8.7,-31.7 -30.9,-25.3 z" id="path4156" opacity="0.8" fill="#ffffff" fill-rule="evenodd"/>
 <path d="m 370.7,73.3 c -3.4,1.4 -5.8,2.9 -8.2,4.8 -2.4,1.7 -4.2,3.7 -5.8,5.8 -1.9,2 -3.4,4.1 -4.7,6.3 l 15.5,-4 c 1,-4.3 2.1,-8.6 3.2,-12.9" id="path4154" opacity="0.8" fill="#ffffff" fill-rule="evenodd"/>
 <path d="m 375.6,114.8 -28.8,29 7.1,37.5 28,0.8 32.4,-25 -7.9,-33.7 z" id="path4152" opacity="0.8" fill="#ffffff" fill-rule="evenodd"/>
 <path d="m 507.4,133.7 -26.6,4.8 -16.9,32.5 10,23 27.4,2.6 21.9,-36" id="path4150" opacity="0.8" fill="#ffffff" fill-rule="evenodd"/>
 <path d="m 320.8,169.7 c 1.3,8.9 4.9,20.9 7.7,26.9 2.5,5.5 4.9,8.2 7.4,7.1 l 10.6,-19 -8.7,-36.4 -16.4,-5.3 c -1.6,8.9 -1.7,17.6 -0.6,26.7 z" id="path4148" opacity="0.8" fill="#ffffff" fill-rule="evenodd"/>
 <path d="m 530.7,161.9 -22,37.5 12.7,14.7 c 2.8,-2.5 5.3,-6.3 7.9,-11.6 2.7,-5.6 5.3,-12.6 7.1,-20.3 1.5,-7.8 2.2,-15.4 2.05,-24.5 z" id="path4146" opacity="0.8" fill="#ffffff" fill-rule="evenodd"/>
 <path d="m 389.1,186.7 14.5,29 44,9.3 19.5,-25.6 -11.3,-26.6 -35.35,-9.2 z" id="path4144" opacity="0.8" fill="#ffffff" fill-rule="evenodd"/>
 <path d="m 379,238.1 0.6,10.6 c 4.1,2.9 8.7,5.3 14.7,7.4 6,2 12.9,3.9 20.4,5 7,0.8 14.7,0.9 21.9,0.8 7,-0.2 13.6,-0.9 20,-1.8 l 3.4,-9 -13.4,-20.5 -46.7,-8.25 z" id="path10544" opacity="0.8" fill="#ffffff" fill-rule="evenodd"/>
 <path d="m 413.4,369 c 0,-25 13.9,-37 30.5,-42.7 20,-6.9 57.8,-10 61,18.3 6.1,54.9 -36.6,140 -42.7,152 -24.4,18.3 -46.8,1 -46.8,-17.3 -18.3,-6.1 -22.4,-11.2 -24.4,-12.2 0,67 60.9,79 89,47.8 14.2,-17.3 50.8,-103 48.8,-177 -4.1,-29.5 -16,-39.8 -54.9,-42.7 -2.6,-0.2 -5.1,-0.3 -7.6,-0.3 -50.7,0.5 -83,44 -77.65,73.55 8.55,5.65 12.55,6.65 24.75,0.55 z m 4.3,103.7 c 23,-53 17.3,-41 40,-89 -5.8,-11.8 -11.5,-11.8 -23,-11.8 -46,100 5.8,-11.8 -40,89 5.8,5.9 11.5,11.8 23,11.8 z" id="path3805" fill="#ac39ac"/>
 <path d="M 124.58984 366.63281 C 121.33374 366.49199 117.67732 368.79301 118.06445 370.73633 C 118.62756 373.56298 129.34953 408.67992 148.52344 428.79492 C 167.79915 450.40401 184.96167 464.6947 212.52344 471.61523 C 212.52614 471.61631 212.53116 471.61619 212.53516 471.61719 C 212.53616 471.61719 212.53706 471.61914 212.53906 471.61914 C 239.34159 478.42026 281.90625 486.29883 281.90625 486.29883 C 285.18872 486.95608 288.37414 484.8013 288.98438 481.50977 C 289.59461 478.21824 287.39368 475.06307 284.09375 474.5 C 284.09375 474.5 241.47487 466.58242 215.47656 459.98438 L 215.46875 459.98242 L 215.46094 459.98047 C 190.43215 453.69948 176.19709 441.79334 157.47656 420.80664 C 141.5709 402.97556 131.23862 372.87641 128.36523 368.60156 C 127.4673 367.26567 126.06989 366.69682 124.58984 366.63281 z M 143.94141 371.95312 C 142.93377 372.04147 141.94769 372.49451 140.96094 373.46289 C 139.92594 375.30347 140.97443 377.91376 143.30273 379.29297 C 145.63066 380.67264 148.35721 380.29925 149.39258 378.45898 C 150.42757 376.6184 149.37908 374.00812 147.05078 372.62891 C 145.97824 372.14111 144.94904 371.86478 143.94141 371.95312 z M 156.00391 393.55859 C 154.99634 393.64657 154.01042 394.09944 153.02344 395.06836 C 151.98696 396.90916 153.03568 399.52092 155.36523 400.90039 C 157.69377 402.27994 160.42055 401.90564 161.45508 400.06445 C 162.48858 398.22409 161.44033 395.61528 159.11328 394.23633 C 158.04069 393.74753 157.01147 393.47061 156.00391 393.55859 z M 103 396.40039 C 88.198623 396.39998 76.199444 407.86137 76.199219 422 C 76.199444 436.13863 88.198623 447.60002 103 447.59961 C 117.80138 447.60002 129.80055 436.13863 129.80078 422 C 129.80055 407.86137 117.80138 396.39998 103 396.40039 z M 169.42188 413.17969 C 168.41422 413.26801 167.42809 413.72098 166.44141 414.68945 C 165.40587 416.52956 166.45345 419.13976 168.78125 420.51953 C 171.10918 421.8992 173.83571 421.52581 174.87109 419.68555 C 175.90663 417.84544 174.85905 415.23524 172.53125 413.85547 C 171.4587 413.3677 170.42953 413.09137 169.42188 413.17969 z M 187.125 430.42969 C 186.12085 430.52187 185.14057 430.9883 184.16406 431.98047 C 183.13347 433.8716 184.17646 436.55295 186.49414 437.9707 C 188.81283 439.38819 191.52867 439.00434 192.56055 437.11328 C 193.59205 435.22144 192.54792 432.53853 190.22852 431.12109 C 189.15716 430.61956 188.12915 430.3375 187.125 430.42969 z M 208.45117 443.04688 C 206.87685 442.96934 205.51126 443.46886 204.27344 445.17773 C 203.59031 447.21721 205.08895 449.67938 207.62109 450.67773 C 210.15364 451.67621 212.76115 450.8324 213.44531 448.79297 C 214.12844 446.75349 212.6298 444.29132 210.09766 443.29297 C 209.5233 443.16212 208.97594 443.07272 208.45117 443.04688 z M 230.16016 452.52148 C 228.92396 452.57318 227.79024 453.05277 226.79688 454.3418 C 226.12831 455.99955 227.59319 458.00139 230.06836 458.8125 C 232.543 459.62343 235.09028 458.93699 235.75781 457.2793 C 236.42675 455.62193 234.96286 453.62022 232.48828 452.80859 C 231.67992 452.61293 230.90188 452.49047 230.16016 452.52148 z M 252.69531 458.43555 C 251.51776 458.50084 250.31408 459.2435 249.33398 460.25781 C 248.66895 461.91479 250.13305 463.91383 252.60547 464.72461 C 255.08002 465.53653 257.62833 464.85092 258.29688 463.19336 L 258.29688 463.19141 C 258.32467 463.12156 258.34874 463.05052 258.36914 462.97852 C 258.83586 461.35275 257.37502 459.49536 255.02344 458.72461 C 254.21512 458.52825 253.43686 458.40475 252.69531 458.43555 z M 277.01562 463.89453 C 275.28327 463.94675 273.66136 464.47154 272.42969 466.16211 C 272.06372 467.75259 273.85805 469.31782 276.4375 469.6582 C 279.01726 469.99874 281.40547 468.98522 281.77148 467.39453 C 282.13745 465.80405 280.34312 464.23882 277.76367 463.89844 C 277.51248 463.8886 277.2631 463.88707 277.01562 463.89453 z M 318.41992 467.77734 C 317.46218 467.78172 316.63714 467.86755 316.1875 468.05078 C 314.50251 468.0183 312.59099 468.62744 311.61328 468.64844 C 303.7916 468.8166 312.03711 475.13672 318.59961 471.19922 C 329.2123 469.2842 322.57012 467.75834 318.41992 467.77734 z M 339.80078 480.59961 C 331.70078 484.29961 322.70039 485.39961 314.40039 488.59961 C 304.50039 482.99961 292.5 489.79961 281.5 490.09961 C 264.8 487.59961 277.20039 504.99961 276.40039 514.09961 C 294.50039 511.59961 312.5 507.90078 330 502.80078 C 343.7 502.70078 344.60078 491.20078 339.80078 480.80078 L 339.80078 480.59961 z M 259.80078 492.90039 C 200.36715 500.11386 129.1018 497.15492 58.599609 497.19922 C 45.999609 491.89922 47.600781 512.19922 51.300781 517.19922 C 78.300781 522.39922 104.80078 519.39961 131.30078 519.09961 C 172.30078 516.89961 212.60078 518.19922 253.30078 516.19922 C 270.50078 519.89922 261.00078 502.80039 259.80078 492.90039 z " id="path4224" opacity="0.8" fill="#ffffff"/>
</svg>
