<?xml version="1.0" encoding="UTF-8" standalone="no"?>
<svg xmlns="http://www.w3.org/2000/svg" version="1.0" width="580" height="580">
 <metadata id="metadata1976"/>
 <path id="path831" d="m 139.39914,380.49111 c -16.47598,0.25744 -31.27862,-11.97083 -45.82384,-12.09956 -14.67393,-0.25744 -30.89247,9.01031 -40.93255,11.06982 -9.91133,1.80206 -16.08984,2.05949 -18.40676,0.51487 v 34.11044 c 2.31692,1.41591 8.62415,1.2872 18.40676,-0.51487 9.91135,-2.05949 26.25862,-11.32724 40.93255,-11.06979 14.54522,0.12884 29.34786,12.35699 45.82384,12.09955 16.34729,-0.6436 34.49661,-13.90163 51.23005,-14.15906 16.21855,-0.6436 30.76376,11.32725 47.11103,11.58468 16.60471,0.12884 33.46686,-10.81237 51.23003,-10.55493 17.50575,0.25743 35.39764,12.22828 52.77467,12.09955 17.63445,-0.38615 34.23917,-13.1293 52.64594,-13.25802 18.40678,-0.1287 38.61561,12.357 56.63621,12.74314 17.76318,0 36.04125,-11.71338 48.9131,-12.09955 12.74316,-0.51487 19.69397,7.72313 27.03094,9.39647 7.59439,1.67334 13.25802,1.80205 17.76316,0.51487 v -34.11045 c -4.37643,1.41591 -10.16877,1.15847 -17.76316,-0.51488 -7.59441,-1.80205 -14.67393,-9.91133 -27.03094,-9.39645 -12.87185,0.51487 -31.40734,12.09955 -48.9131,12.09955 -18.0206,-0.38617 -38.22943,-12.61443 -56.63621,-12.61443 -18.27805,0.12884 -34.75405,12.87188 -52.64594,13.25802 -17.8919,0.1287 -35.7838,-11.84211 -52.77467,-12.09955 -17.76317,-0.51487 -34.62532,10.55494 -51.23003,10.42621 -15.83239,-0.25744 -29.99145,-11.32724 -45.56642,-11.58468 -21.1285,-0.46504 -35.16375,13.00968 -52.77466,14.15905 z" opacity="0.8" fill="none" stroke="#ffffff" vector-effect="none" stroke-linejoin="round" stroke-width="64"/>
 <path id="path833" d="m 140.81505,437.12734 c -16.47598,0.25742 -31.27862,-11.97084 -45.82384,-12.09956 -14.67393,-0.25744 -30.89249,9.01031 -40.93255,11.06982 -9.91133,2.05949 -16.08984,1.93076 -18.40677,0.51485 v 34.11046 c 2.31693,1.4159 8.62416,1.4159 18.40677,-0.51488 9.91133,-2.05949 26.25862,-11.32724 40.93255,-11.0698 14.54522,0.12884 29.34786,12.357 45.82384,12.09955 16.34729,-0.77231 34.49661,-13.64417 51.23005,-14.15906 16.21856,-0.51487 30.76376,11.19853 47.11103,11.5847 16.60471,0.1287 33.46686,-10.9411 51.23003,-10.42623 17.50575,0.25744 35.39764,12.22828 52.77467,12.09957 17.63445,-0.38617 34.23917,-13.12931 52.64594,-13.25804 18.40678,0 38.61561,12.22828 56.63621,12.61444 17.76318,0 36.04125,-11.7134 48.91311,-12.09955 12.74315,-0.51489 19.69396,7.72312 27.03093,9.39646 7.59439,1.67335 13.25802,1.80206 17.76316,0.51487 v -34.11045 c -4.37643,1.15847 -10.16877,1.02975 -17.76316,-0.51487 -7.59441,-1.67334 -14.67393,-9.91133 -27.03093,-9.39646 -12.87186,0.51487 -31.40735,12.09955 -48.91311,12.09955 -18.0206,-0.38616 -38.22943,-12.61442 -56.63621,-12.61442 -18.27805,0.1287 -34.75405,12.87186 -52.64594,13.25802 -17.8919,0.1287 -35.7838,-11.84213 -52.77467,-12.09957 -17.76317,-0.51487 -34.62532,10.55494 -51.23003,10.42622 -15.8324,-0.25745 -29.99145,-11.32724 -45.56642,-11.58467 -21.12848,-0.46505 -35.16375,13.00966 -52.77466,14.15905 z" opacity="0.8" fill="none" stroke="#ffffff" vector-effect="none" stroke-linejoin="round" stroke-width="64"/>
 <path id="path835" d="m 139.013,493.24868 c -16.476,0.25743 -31.27865,-11.97084 -45.82386,-12.09955 -14.67393,-0.25744 -30.89248,9.0103 -40.93253,11.06981 -9.91136,2.0595 -16.08985,1.93077 -18.40679,0.51486 v 34.11046 c 2.31694,1.4159 8.62416,1.4159 18.40679,-0.51488 9.91133,-2.0595 26.2586,-11.32724 40.93253,-11.0698 14.54521,0.1287 29.34786,12.35699 45.82386,12.09955 16.34727,-0.77231 34.49661,-13.64418 51.23003,-14.15906 16.21854,-0.51486 30.76376,11.19853 47.11103,11.5847 16.60473,0.12884 33.46687,-10.9411 51.23005,-10.42622 17.50573,0.25743 35.39763,12.22827 52.77465,12.09955 17.63447,-0.38617 34.23918,-13.1293 52.64594,-13.25803 18.40677,0 38.61561,12.22828 56.63623,12.61444 17.76317,0 36.04123,-11.7134 48.9131,-12.09956 12.74315,-0.51488 19.69396,7.72313 27.03091,9.39646 7.59442,1.67336 13.25803,1.80207 17.76319,0.51489 v -34.11047 c -4.37644,1.15847 -10.16877,1.02976 -17.76319,-0.51487 -7.5944,-1.67335 -14.67392,-9.91133 -27.03091,-9.39646 -12.87187,0.51487 -31.40736,12.09956 -48.9131,12.09956 -18.02062,-0.38616 -38.22946,-12.61443 -56.63623,-12.61443 -18.27805,0.1287 -34.75403,12.87187 -52.64594,13.25802 -17.89189,0.1287 -35.78379,-11.84212 -52.77465,-12.09956 -17.76318,-0.51487 -34.62532,10.55494 -51.23005,10.42621 -15.83238,-0.25744 -29.99145,-11.32724 -45.5664,-11.58467 -21.12848,-0.46504 -35.16376,13.00967 -52.77466,14.15905 z" opacity="0.8" fill="none" stroke="#ffffff" vector-effect="none" stroke-linejoin="round" stroke-width="64"/>
 <path id="path837" d="M 339.79438,102.11772 C 337.6768,72.596335 316.88178,52.516333 289.9985,52.150718 c -29.71719,2.267115 -49.44672,23.087577 -49.79588,49.967002 2.20323,28.89922 23.47663,49.59626 49.79588,49.967 28.98997,-2.27124 49.43597,-23.56614 49.79588,-49.967 z" opacity="0.8" fill="none" stroke="#ffffff" vector-effect="none" stroke-linejoin="round" stroke-width="64"/>
 <path id="path839" d="m 223.262,162.18107 c -17.79646,0 -33.19797,6.33093 -45.86085,18.82269 -12.66286,12.66287 -18.82269,28.23466 -18.82269,46.71561 v 123.7056 c 1.95693,-0.80116 3.89925,-1.52284 5.88805,-2.34545 4.17562,-1.72711 8.46259,-3.40554 13.02475,-4.62135 2.28108,-0.60791 4.62954,-1.10012 7.06978,-1.42632 2.44023,-0.32618 4.97195,-0.4855 7.613,-0.42737 1.94688,0.0322 3.87126,0.23343 5.77993,0.56125 0.16604,0.0285 0.32851,0.0855 0.49431,0.1158 V 232.85299 h 23.95896 v 118.16255 c 1.24447,0.41792 2.4704,0.93613 3.7254,1.29242 1.89861,0.53902 3.81109,0.99293 5.74388,1.32076 1.93278,0.32783 3.88583,0.52907 5.86487,0.56126 2.07559,0.016 4.15329,-0.14317 6.2382,-0.43253 2.08488,-0.28936 4.17494,-0.70937 6.27165,-1.21519 4.1934,-1.01166 8.41369,-2.36646 12.66947,-3.70997 4.25576,-1.3435 8.5475,-2.67448 12.88573,-3.63785 2.1691,-0.48169 4.35106,-0.87193 6.54456,-1.12511 2.19349,-0.25315 4.39884,-0.37072 6.61923,-0.30637 2.12385,0.0322 4.263,0.24816 6.41325,0.59989 2.15025,0.3517 4.31222,0.84036 6.48535,1.41857 4.34626,1.15646 8.73425,2.67157 13.15091,4.17597 4.41667,1.5044 8.86194,2.99825 13.32082,4.10643 2.22946,0.5541 4.46175,1.01041 6.69648,1.32591 2.23472,0.31552 4.47026,0.48981 6.70676,0.47372 2.23648,-0.0482 4.45158,-0.29146 6.65011,-0.67711 2.19852,-0.38566 4.38173,-0.9141 6.55486,-1.53959 1.11433,-0.32074 2.2162,-0.79159 3.32635,-1.15599 V 232.85299 h 23.10164 v 111.73383 c 2.06459,-0.56049 4.14022,-1.05085 6.23818,-1.39027 2.23473,-0.36152 4.49151,-0.57604 6.77626,-0.59214 2.30086,0 4.63031,0.19265 6.97968,0.52778 2.34937,0.33512 4.71836,0.81406 7.10066,1.39027 3.94922,0.95523 7.93746,2.24503 11.92026,3.51944 V 231.14097 c 0,-17.79647 -5.98954,-33.36824 -17.96793,-46.7156 -11.97838,-13.34734 -27.37923,-19.84929 -47.05801,-21.04713 z" opacity="0.8" fill="none" stroke="#ffffff" vector-effect="none" stroke-linejoin="round" stroke-width="64"/>
 <path d="m 139.39914,380.49111 c -16.47598,0.25744 -31.27862,-11.97083 -45.82384,-12.09956 -14.67393,-0.25744 -30.89247,9.01031 -40.93255,11.06982 -9.91133,1.80206 -16.08984,2.05949 -18.40676,0.51487 v 34.11044 c 2.31692,1.41591 8.62415,1.2872 18.40676,-0.51487 9.91135,-2.05949 26.25862,-11.32724 40.93255,-11.06979 14.54522,0.12884 29.34786,12.35699 45.82384,12.09955 16.34729,-0.6436 34.49661,-13.90163 51.23005,-14.15906 16.21855,-0.6436 30.76376,11.32725 47.11103,11.58468 16.60471,0.12884 33.46686,-10.81237 51.23003,-10.55493 17.50575,0.25743 35.39764,12.22828 52.77467,12.09955 17.63445,-0.38615 34.23917,-13.1293 52.64594,-13.25802 18.40678,-0.1287 38.61561,12.357 56.63621,12.74314 17.76318,0 36.04125,-11.71338 48.9131,-12.09955 12.74316,-0.51487 19.69397,7.72313 27.03094,9.39647 7.59439,1.67334 13.25802,1.80205 17.76316,0.51487 v -34.11045 c -4.37643,1.41591 -10.16877,1.15847 -17.76316,-0.51488 -7.59441,-1.80205 -14.67393,-9.91133 -27.03094,-9.39645 -12.87185,0.51487 -31.40734,12.09955 -48.9131,12.09955 -18.0206,-0.38617 -38.22943,-12.61443 -56.63621,-12.61443 -18.27805,0.12884 -34.75405,12.87188 -52.64594,13.25802 -17.8919,0.1287 -35.7838,-11.84211 -52.77467,-12.09955 -17.76317,-0.51487 -34.62532,10.55494 -51.23003,10.42621 -15.83239,-0.25744 -29.99145,-11.32724 -45.56642,-11.58468 -21.1285,-0.46504 -35.16375,13.00968 -52.77466,14.15905 z" id="path4151" fill="#39ac39" vector-effect="none" stroke-width="1.32"/>
 <path d="m 140.81505,437.12734 c -16.47598,0.25742 -31.27862,-11.97084 -45.82384,-12.09956 -14.67393,-0.25744 -30.89249,9.01031 -40.93255,11.06982 -9.91133,2.05949 -16.08984,1.93076 -18.40677,0.51485 v 34.11046 c 2.31693,1.4159 8.62416,1.4159 18.40677,-0.51488 9.91133,-2.05949 26.25862,-11.32724 40.93255,-11.0698 14.54522,0.12884 29.34786,12.357 45.82384,12.09955 16.34729,-0.77231 34.49661,-13.64417 51.23005,-14.15906 16.21856,-0.51487 30.76376,11.19853 47.11103,11.5847 16.60471,0.1287 33.46686,-10.9411 51.23003,-10.42623 17.50575,0.25744 35.39764,12.22828 52.77467,12.09957 17.63445,-0.38617 34.23917,-13.12931 52.64594,-13.25804 18.40678,0 38.61561,12.22828 56.63621,12.61444 17.76318,0 36.04125,-11.7134 48.91311,-12.09955 12.74315,-0.51489 19.69396,7.72312 27.03093,9.39646 7.59439,1.67335 13.25802,1.80206 17.76316,0.51487 v -34.11045 c -4.37643,1.15847 -10.16877,1.02975 -17.76316,-0.51487 -7.59441,-1.67334 -14.67393,-9.91133 -27.03093,-9.39646 -12.87186,0.51487 -31.40735,12.09955 -48.91311,12.09955 -18.0206,-0.38616 -38.22943,-12.61442 -56.63621,-12.61442 -18.27805,0.1287 -34.75405,12.87186 -52.64594,13.25802 -17.8919,0.1287 -35.7838,-11.84213 -52.77467,-12.09957 -17.76317,-0.51487 -34.62532,10.55494 -51.23003,10.42622 -15.8324,-0.25745 -29.99145,-11.32724 -45.56642,-11.58467 -21.12848,-0.46505 -35.16375,13.00966 -52.77466,14.15905 z" id="path4149" fill="#39ac39" vector-effect="none" stroke-width="1.32"/>
 <path d="m 139.013,493.24868 c -16.476,0.25743 -31.27865,-11.97084 -45.82386,-12.09955 -14.67393,-0.25744 -30.89248,9.0103 -40.93253,11.06981 -9.91136,2.0595 -16.08985,1.93077 -18.40679,0.51486 v 34.11046 c 2.31694,1.4159 8.62416,1.4159 18.40679,-0.51488 9.91133,-2.0595 26.2586,-11.32724 40.93253,-11.0698 14.54521,0.1287 29.34786,12.35699 45.82386,12.09955 16.34727,-0.77231 34.49661,-13.64418 51.23003,-14.15906 16.21854,-0.51486 30.76376,11.19853 47.11103,11.5847 16.60473,0.12884 33.46687,-10.9411 51.23005,-10.42622 17.50573,0.25743 35.39763,12.22827 52.77465,12.09955 17.63447,-0.38617 34.23918,-13.1293 52.64594,-13.25803 18.40677,0 38.61561,12.22828 56.63623,12.61444 17.76317,0 36.04123,-11.7134 48.9131,-12.09956 12.74315,-0.51488 19.69396,7.72313 27.03091,9.39646 7.59442,1.67336 13.25803,1.80207 17.76319,0.51489 v -34.11047 c -4.37644,1.15847 -10.16877,1.02976 -17.76319,-0.51487 -7.5944,-1.67335 -14.67392,-9.91133 -27.03091,-9.39646 -12.87187,0.51487 -31.40736,12.09956 -48.9131,12.09956 -18.02062,-0.38616 -38.22946,-12.61443 -56.63623,-12.61443 -18.27805,0.1287 -34.75403,12.87187 -52.64594,13.25802 -17.89189,0.1287 -35.78379,-11.84212 -52.77465,-12.09956 -17.76318,-0.51487 -34.62532,10.55494 -51.23005,10.42621 -15.83238,-0.25744 -29.99145,-11.32724 -45.5664,-11.58467 -21.12848,-0.46504 -35.16376,13.00967 -52.77466,14.15905 z" id="path113" fill="#39ac39" vector-effect="none" stroke-width="1.32"/>
 <path d="M 339.79438,102.11772 C 337.6768,72.596335 316.88178,52.516333 289.9985,52.150718 c -29.71719,2.267115 -49.44672,23.087577 -49.79588,49.967002 2.20323,28.89922 23.47663,49.59626 49.79588,49.967 28.98997,-2.27124 49.43597,-23.56614 49.79588,-49.967 z" id="path4137" fill="#39ac39" vector-effect="none" stroke-width="1.32"/>
 <path d="m 223.262,162.18107 c -17.79646,0 -33.19797,6.33093 -45.86085,18.82269 -12.66286,12.66287 -18.82269,28.23466 -18.82269,46.71561 v 123.7056 c 1.95693,-0.80116 3.89925,-1.52284 5.88805,-2.34545 4.17562,-1.72711 8.46259,-3.40554 13.02475,-4.62135 2.28108,-0.60791 4.62954,-1.10012 7.06978,-1.42632 2.44023,-0.32618 4.97195,-0.4855 7.613,-0.42737 1.94688,0.0322 3.87126,0.23343 5.77993,0.56125 0.16604,0.0285 0.32851,0.0855 0.49431,0.1158 V 232.85299 h 23.95896 v 118.16255 c 1.24447,0.41792 2.4704,0.93613 3.7254,1.29242 1.89861,0.53902 3.81109,0.99293 5.74388,1.32076 1.93278,0.32783 3.88583,0.52907 5.86487,0.56126 2.07559,0.016 4.15329,-0.14317 6.2382,-0.43253 2.08488,-0.28936 4.17494,-0.70937 6.27165,-1.21519 4.1934,-1.01166 8.41369,-2.36646 12.66947,-3.70997 4.25576,-1.3435 8.5475,-2.67448 12.88573,-3.63785 2.1691,-0.48169 4.35106,-0.87193 6.54456,-1.12511 2.19349,-0.25315 4.39884,-0.37072 6.61923,-0.30637 2.12385,0.0322 4.263,0.24816 6.41325,0.59989 2.15025,0.3517 4.31222,0.84036 6.48535,1.41857 4.34626,1.15646 8.73425,2.67157 13.15091,4.17597 4.41667,1.5044 8.86194,2.99825 13.32082,4.10643 2.22946,0.5541 4.46175,1.01041 6.69648,1.32591 2.23472,0.31552 4.47026,0.48981 6.70676,0.47372 2.23648,-0.0482 4.45158,-0.29146 6.65011,-0.67711 2.19852,-0.38566 4.38173,-0.9141 6.55486,-1.53959 1.11433,-0.32074 2.2162,-0.79159 3.32635,-1.15599 V 232.85299 h 23.10164 v 111.73383 c 2.06459,-0.56049 4.14022,-1.05085 6.23818,-1.39027 2.23473,-0.36152 4.49151,-0.57604 6.77626,-0.59214 2.30086,0 4.63031,0.19265 6.97968,0.52778 2.34937,0.33512 4.71836,0.81406 7.10066,1.39027 3.94922,0.95523 7.93746,2.24503 11.92026,3.51944 V 231.14097 c 0,-17.79647 -5.98954,-33.36824 -17.96793,-46.7156 -11.97838,-13.34734 -27.37923,-19.84929 -47.05801,-21.04713 z" id="flowRoot3192" fill="#39ac39" vector-effect="none" stroke-width="1.32"/>
</svg>
