<?xml version="1.0" encoding="UTF-8" standalone="no"?>
<svg xmlns="http://www.w3.org/2000/svg" version="1.0" width="580" height="580">
 <metadata id="metadata1976"/>
 <path id="path815" d="m 383.95136,142.24423 c -20.08312,8.28429 -16.31754,9.16292 -19.20448,15.4389 -2.63593,6.02493 -0.62761,8.91187 3.8911,21.58935 4.5187,12.803 12.04987,30.62676 22.97007,53.97338 l -138.07146,74.05652 c 12.55195,-6.02494 25.98254,-8.40982 40.16624,-7.0291 14.05819,1.3807 27.48879,14.93683 43.93183,15.06234 16.81961,-0.37656 37.65584,-16.0665 56.10722,-16.0665 18.45136,0.1255 38.15792,14.18369 52.7182,15.56441 14.56025,1.12968 25.10388,-1.63175 33.51369,-8.66083 L 418.3437,166.97157 c 17.4472,-6.52702 32.63507,-12.42644 46.44222,-17.57272 13.5561,-5.52287 31.37987,-7.28014 35.01994,-14.30923 3.13798,-6.90357 3.8911,-27.11222 -13.61887,-27.3005 -35.27384,6.61808 -69.14553,20.69953 -102.23563,34.45511 z m 79.45385,84.60015 c 0,22.21694 17.19614,40.16623 38.40895,40.16623 21.21281,0 38.40895,-17.94929 38.40895,-40.16623 0,-22.21697 -17.19614,-40.16625 -38.40895,-40.16625 -21.21281,0 -38.40895,17.94928 -38.40895,40.16625 z M 67.391175,243.1619 c -14.8113,0.87864 -20.08312,18.82792 -12.80299,27.61428 7.28014,8.78638 38.28344,17.57274 56.483785,24.35079 18.07481,6.27598 34.64337,10.9202 50.96091,13.80716 12.80299,-6.02494 24.4763,-9.03741 35.64754,-8.78637 11.17124,0.25105 22.09143,8.28428 30.75228,9.665 8.53532,1.2552 15.06234,0.37656 20.33416,-2.38488 -41.17041,-16.94512 -75.3117,-30.12467 -106.69158,-41.17038 -24.46237,-8.12679 -53.228065,-23.51678 -74.684105,-23.0956 z m 76.692415,85.35326 c -16.06649,0.25104 -30.50123,-11.67331 -44.684945,-11.79883 -14.30922,-0.25105 -30.12468,8.78636 -39.9152,10.79468 -9.66499,1.75728 -15.68993,2.00831 -17.94928,0.50207 v 33.26267 c 2.25935,1.38072 8.4098,1.2552 17.94928,-0.50208 9.66499,-2.0083 25.60598,-11.04571 39.9152,-10.79466 14.183715,0.12563 28.618455,12.04987 44.684945,11.79882 15.94099,-0.6276 33.63922,-13.55612 49.95677,-13.80715 15.81545,-0.6276 29.99915,11.04573 45.94013,11.29676 16.19201,0.12564 32.63507,-10.54364 49.95675,-10.2926 17.07067,0.25103 34.51787,11.92436 51.46301,11.79883 17.19616,-0.37655 33.38819,-12.80299 51.33747,-12.9285 17.9493,-0.1255 37.65586,12.04987 55.22858,12.42642 17.32169,0 35.14547,-11.42226 47.69742,-11.79883 12.42642,-0.50208 19.20448,7.53118 26.35909,9.16293 7.40565,1.63175 12.92851,1.75726 17.32168,0.50207 V 324.8751 c -4.26766,1.38072 -9.91603,1.12967 -17.32168,-0.50209 -7.40565,-1.75726 -14.30922,-9.66499 -26.35909,-9.1629 -12.55196,0.50207 -30.62676,11.79882 -47.69742,11.79882 -17.57272,-0.37657 -37.27928,-12.30091 -55.22858,-12.30091 -17.82376,0.12564 -33.89027,12.55196 -51.33747,12.9285 -17.44721,0.1255 -34.89443,-11.54778 -51.46301,-11.79883 -17.32168,-0.50207 -33.76474,10.29261 -49.95675,10.16708 -15.4389,-0.25104 -29.24604,-11.04571 -44.43391,-11.29675 -20.60337,-0.45348 -34.28978,12.68633 -51.46299,13.80714 z m 0,55.22858 c -16.06649,0.25103 -30.50123,-11.67331 -44.684945,-11.79882 -14.30922,-0.25105 -30.12468,8.78636 -39.9152,10.79468 -9.66499,2.00831 -15.68993,1.88278 -17.94928,0.50206 v 33.26268 c 2.25935,1.3807 8.4098,1.3807 17.94928,-0.50209 9.66499,-2.00831 25.60598,-11.04571 39.9152,-10.79467 14.183715,0.12564 28.618455,12.04987 44.684945,11.79883 15.94099,-0.75312 33.63922,-13.30506 49.95677,-13.80715 15.81545,-0.50207 29.99915,10.9202 45.94013,11.29677 16.19201,0.1255 32.63507,-10.66917 49.95675,-10.16709 17.07067,0.25104 34.51787,11.92435 51.46301,11.79884 17.19616,-0.37657 33.38819,-12.80299 51.33747,-12.92852 17.9493,0 37.65586,11.92436 55.22858,12.30092 17.32169,0 35.14547,-11.42227 47.69742,-11.79883 12.42642,-0.50209 19.20448,7.53117 26.35909,9.16292 7.40565,1.63176 12.92851,1.75727 17.32168,0.50207 v -33.26267 c -4.26766,1.12968 -9.91603,1.00416 -17.32168,-0.50207 -7.40565,-1.63175 -14.30922,-9.66499 -26.35909,-9.16292 -12.55196,0.50207 -30.62676,11.79883 -47.69742,11.79883 -17.57272,-0.37656 -37.27928,-12.3009 -55.22858,-12.3009 -17.82376,0.1255 -33.89027,12.55194 -51.33747,12.9285 -17.44721,0.1255 -34.89443,-11.5478 -51.46301,-11.79884 -17.32168,-0.50207 -33.76474,10.29261 -49.95675,10.16708 -15.4389,-0.25104 -29.24604,-11.04571 -44.43391,-11.29674 -20.60335,-0.45349 -34.28978,12.68632 -51.46299,13.80713 z m -1.75726,54.72651 c -16.06651,0.25103 -30.50126,-11.67332 -44.684955,-11.79883 -14.30923,-0.25105 -30.12469,8.78636 -39.9152,10.79468 -9.66502,2.00831 -15.68994,1.88278 -17.94929,0.50206 v 33.26268 c 2.25935,1.3807 8.4098,1.3807 17.94929,-0.50209 9.665,-2.00831 25.60597,-11.04571 39.9152,-10.79467 14.183695,0.1255 28.618445,12.04988 44.684955,11.79883 15.94097,-0.75311 33.63922,-13.30506 49.95675,-13.80715 15.81545,-0.50206 29.99916,10.9202 45.94013,11.29677 16.19203,0.12564 32.63508,-10.66917 49.95677,-10.16708 17.07065,0.25103 34.51786,11.92435 51.46299,11.79883 17.19618,-0.37657 33.38819,-12.80299 51.33747,-12.92852 17.94929,0 37.65586,11.92436 55.22859,12.30092 17.32168,0 35.14546,-11.42227 47.69741,-11.79883 12.42643,-0.50209 19.20448,7.53117 26.35908,9.16292 7.40567,1.63176 12.92852,1.75728 17.32171,0.50209 v -33.26268 c -4.26767,1.12967 -9.91604,1.00416 -17.32171,-0.50208 -7.40564,-1.63176 -14.30921,-9.66499 -26.35908,-9.16292 -12.55195,0.50208 -30.62676,11.79883 -47.69741,11.79883 -17.57273,-0.37656 -37.2793,-12.3009 -55.22859,-12.3009 -17.82376,0.1255 -33.89025,12.55195 -51.33747,12.9285 -17.44721,0.12551 -34.89442,-11.54779 -51.46299,-11.79884 -17.32169,-0.50207 -33.76474,10.29261 -49.95677,10.16708 -15.43889,-0.25104 -29.24604,-11.04571 -44.43389,-11.29674 -20.60336,-0.45349 -34.2898,12.68632 -51.46299,13.80714 z" opacity="0.8" fill="none" stroke="#ffffff" vector-effect="none" stroke-linejoin="round" stroke-width="64"/>
 <path d="m 383.95136,142.24423 c -20.08312,8.28429 -16.31754,9.16292 -19.20448,15.4389 -2.63593,6.02493 -0.62761,8.91187 3.8911,21.58935 4.5187,12.803 12.04987,30.62676 22.97007,53.97338 l -138.07146,74.05652 c 12.55195,-6.02494 25.98254,-8.40982 40.16624,-7.0291 14.05819,1.3807 27.48879,14.93683 43.93183,15.06234 16.81961,-0.37656 37.65584,-16.0665 56.10722,-16.0665 18.45136,0.1255 38.15792,14.18369 52.7182,15.56441 14.56025,1.12968 25.10388,-1.63175 33.51369,-8.66083 L 418.3437,166.97157 c 17.4472,-6.52702 32.63507,-12.42644 46.44222,-17.57272 13.5561,-5.52287 31.37987,-7.28014 35.01994,-14.30923 3.13798,-6.90357 3.8911,-27.11222 -13.61887,-27.3005 -35.27384,6.61808 -69.14553,20.69953 -102.23563,34.45511 z m 79.45385,84.60015 c 0,22.21694 17.19614,40.16623 38.40895,40.16623 21.21281,0 38.40895,-17.94929 38.40895,-40.16623 0,-22.21697 -17.19614,-40.16625 -38.40895,-40.16625 -21.21281,0 -38.40895,17.94928 -38.40895,40.16625 z M 67.391175,243.1619 c -14.8113,0.87864 -20.08312,18.82792 -12.80299,27.61428 7.28014,8.78638 38.28344,17.57274 56.483785,24.35079 18.07481,6.27598 34.64337,10.9202 50.96091,13.80716 12.80299,-6.02494 24.4763,-9.03741 35.64754,-8.78637 11.17124,0.25105 22.09143,8.28428 30.75228,9.665 8.53532,1.2552 15.06234,0.37656 20.33416,-2.38488 -41.17041,-16.94512 -75.3117,-30.12467 -106.69158,-41.17038 -24.46237,-8.12679 -53.228065,-23.51678 -74.684105,-23.0956 z m 76.692415,85.35326 c -16.06649,0.25104 -30.50123,-11.67331 -44.684945,-11.79883 -14.30922,-0.25105 -30.12468,8.78636 -39.9152,10.79468 -9.66499,1.75728 -15.68993,2.00831 -17.94928,0.50207 v 33.26267 c 2.25935,1.38072 8.4098,1.2552 17.94928,-0.50208 9.66499,-2.0083 25.60598,-11.04571 39.9152,-10.79466 14.183715,0.12563 28.618455,12.04987 44.684945,11.79882 15.94099,-0.6276 33.63922,-13.55612 49.95677,-13.80715 15.81545,-0.6276 29.99915,11.04573 45.94013,11.29676 16.19201,0.12564 32.63507,-10.54364 49.95675,-10.2926 17.07067,0.25103 34.51787,11.92436 51.46301,11.79883 17.19616,-0.37655 33.38819,-12.80299 51.33747,-12.9285 17.9493,-0.1255 37.65586,12.04987 55.22858,12.42642 17.32169,0 35.14547,-11.42226 47.69742,-11.79883 12.42642,-0.50208 19.20448,7.53118 26.35909,9.16293 7.40565,1.63175 12.92851,1.75726 17.32168,0.50207 V 324.8751 c -4.26766,1.38072 -9.91603,1.12967 -17.32168,-0.50209 -7.40565,-1.75726 -14.30922,-9.66499 -26.35909,-9.1629 -12.55196,0.50207 -30.62676,11.79882 -47.69742,11.79882 -17.57272,-0.37657 -37.27928,-12.30091 -55.22858,-12.30091 -17.82376,0.12564 -33.89027,12.55196 -51.33747,12.9285 -17.44721,0.1255 -34.89443,-11.54778 -51.46301,-11.79883 -17.32168,-0.50207 -33.76474,10.29261 -49.95675,10.16708 -15.4389,-0.25104 -29.24604,-11.04571 -44.43391,-11.29675 -20.60337,-0.45348 -34.28978,12.68633 -51.46299,13.80714 z m 0,55.22858 c -16.06649,0.25103 -30.50123,-11.67331 -44.684945,-11.79882 -14.30922,-0.25105 -30.12468,8.78636 -39.9152,10.79468 -9.66499,2.00831 -15.68993,1.88278 -17.94928,0.50206 v 33.26268 c 2.25935,1.3807 8.4098,1.3807 17.94928,-0.50209 9.66499,-2.00831 25.60598,-11.04571 39.9152,-10.79467 14.183715,0.12564 28.618455,12.04987 44.684945,11.79883 15.94099,-0.75312 33.63922,-13.30506 49.95677,-13.80715 15.81545,-0.50207 29.99915,10.9202 45.94013,11.29677 16.19201,0.1255 32.63507,-10.66917 49.95675,-10.16709 17.07067,0.25104 34.51787,11.92435 51.46301,11.79884 17.19616,-0.37657 33.38819,-12.80299 51.33747,-12.92852 17.9493,0 37.65586,11.92436 55.22858,12.30092 17.32169,0 35.14547,-11.42227 47.69742,-11.79883 12.42642,-0.50209 19.20448,7.53117 26.35909,9.16292 7.40565,1.63176 12.92851,1.75727 17.32168,0.50207 v -33.26267 c -4.26766,1.12968 -9.91603,1.00416 -17.32168,-0.50207 -7.40565,-1.63175 -14.30922,-9.66499 -26.35909,-9.16292 -12.55196,0.50207 -30.62676,11.79883 -47.69742,11.79883 -17.57272,-0.37656 -37.27928,-12.3009 -55.22858,-12.3009 -17.82376,0.1255 -33.89027,12.55194 -51.33747,12.9285 -17.44721,0.1255 -34.89443,-11.5478 -51.46301,-11.79884 -17.32168,-0.50207 -33.76474,10.29261 -49.95675,10.16708 -15.4389,-0.25104 -29.24604,-11.04571 -44.43391,-11.29674 -20.60335,-0.45349 -34.28978,12.68632 -51.46299,13.80713 z m -1.75726,54.72651 c -16.06651,0.25103 -30.50126,-11.67332 -44.684955,-11.79883 -14.30923,-0.25105 -30.12469,8.78636 -39.9152,10.79468 -9.66502,2.00831 -15.68994,1.88278 -17.94929,0.50206 v 33.26268 c 2.25935,1.3807 8.4098,1.3807 17.94929,-0.50209 9.665,-2.00831 25.60597,-11.04571 39.9152,-10.79467 14.183695,0.1255 28.618445,12.04988 44.684955,11.79883 15.94097,-0.75311 33.63922,-13.30506 49.95675,-13.80715 15.81545,-0.50206 29.99916,10.9202 45.94013,11.29677 16.19203,0.12564 32.63508,-10.66917 49.95677,-10.16708 17.07065,0.25103 34.51786,11.92435 51.46299,11.79883 17.19618,-0.37657 33.38819,-12.80299 51.33747,-12.92852 17.94929,0 37.65586,11.92436 55.22859,12.30092 17.32168,0 35.14546,-11.42227 47.69741,-11.79883 12.42643,-0.50209 19.20448,7.53117 26.35908,9.16292 7.40567,1.63176 12.92852,1.75728 17.32171,0.50209 v -33.26268 c -4.26767,1.12967 -9.91604,1.00416 -17.32171,-0.50208 -7.40564,-1.63176 -14.30921,-9.66499 -26.35908,-9.16292 -12.55195,0.50208 -30.62676,11.79883 -47.69741,11.79883 -17.57273,-0.37656 -37.2793,-12.3009 -55.22859,-12.3009 -17.82376,0.1255 -33.89025,12.55195 -51.33747,12.9285 -17.44721,0.12551 -34.89442,-11.54779 -51.46299,-11.79884 -17.32169,-0.50207 -33.76474,10.29261 -49.95677,10.16708 -15.43889,-0.25104 -29.24604,-11.04571 -44.43389,-11.29674 -20.60336,-0.45349 -34.2898,12.68632 -51.46299,13.80714 z" id="path113" fill="#39ac39" vector-effect="none" stroke-width="1.29"/>
</svg>
