<?xml version="1.0" encoding="UTF-8" standalone="no"?>
<svg xmlns="http://www.w3.org/2000/svg" version="1.0" width="580" height="580">
 <metadata id="metadata2975"/>
 <path id="path829" d="M 318.14739,508.0772 V 70.711259 H 283.49734 V 508.0772 Z" opacity="0.8" fill="none" stroke="#ffffff" vector-effect="none" stroke-width="64"/>
 <path id="path831" d="m 109.27789,150.6729 c -10.903867,0 -20.596186,3.87692 -29.440424,11.75194 -6.542316,6.05769 -10.903862,12.84233 -13.084631,20.35387 L 36.585489,283.33653 c -4.096944,12.02666 4.513049,20.78306 13.690403,20.95964 7.026933,0 11.630779,-3.87693 13.811557,-11.75193 L 91.589409,200.4672 H 106.6125 L 61.785516,364.02509 h 43.615444 v 127.2117 c 0,11.38848 5.45193,16.96156 16.3558,16.96156 10.90385,0 16.35579,-5.69423 16.35579,-16.96156 v -127.2117 h 16.35578 v 128.42324 c 0,10.90387 5.45193,16.35579 16.35579,16.35579 10.90387,0 16.35579,-5.45192 16.35579,-16.35579 V 365.23664 h 43.61544 l -45.79621,-163.5579 h 15.75002 l 27.50196,92.07703 c 2.18077,7.87502 6.78462,11.75195 13.6904,11.75195 12.32138,-2.19646 18.35661,-10.76573 13.69041,-20.95965 L 225.46458,183.99025 c -2.18078,-7.02693 -7.14809,-13.81156 -15.0231,-20.35387 -9.57117,-7.87501 -20.11156,-11.75194 -31.25774,-12.35771 z" opacity="0.8" fill="none" stroke="#ffffff" vector-effect="none" stroke-width="64"/>
 <path id="path833" d="m 181.60683,109.48054 c -1.57969,-21.347792 -16.59355,-35.606859 -35.98274,-35.861584 -20.94141,1.616563 -35.12016,16.942374 -35.37697,35.861584 1.60805,20.5251 16.68499,35.001 35.37697,35.25581 20.79222,-1.4768 35.71451,-16.21244 35.98274,-35.25581 z" opacity="0.8" fill="none" stroke="#ffffff" vector-effect="none" stroke-width="64"/>
 <path id="path835" d="m 487.39952,108.75362 c -1.49926,-20.901345 -16.22225,-35.118113 -35.25581,-35.376973 -21.03998,1.60514 -35.00861,16.346163 -35.25582,35.376973 1.55991,20.46084 16.62162,35.11448 35.25582,35.37696 20.5251,-1.60805 35.00099,-16.68497 35.25581,-35.37696 z" opacity="0.8" fill="none" stroke="#ffffff" vector-effect="none" stroke-width="64"/>
 <path id="path837" d="m 404.89365,151.27867 c -12.60002,0 -23.50388,4.4827 -32.46927,13.32693 -8.9654,8.96541 -13.32694,19.99042 -13.32694,33.07505 v 109.0386 c 0,10.41924 4.84615,15.75003 14.41732,15.75003 9.20771,0 13.81156,-5.20963 13.81156,-15.75003 V 201.31528 h 16.96156 v 288.34651 c 0,13.08463 6.54231,19.62695 19.62694,19.62695 13.08463,0 19.62696,-6.54232 19.62696,-19.62695 V 322.46928 h 16.96155 v 167.19251 c 0,13.08463 6.54232,19.62695 19.62696,19.62695 13.56924,0 20.35387,-6.54232 20.35387,-19.62695 V 201.31528 h 16.35579 v 106.61551 c 0,10.90387 4.60384,16.35579 13.81155,16.35579 9.20771,0 13.81155,-5.45192 13.81155,-16.35579 V 200.10373 c 0,-12.60001 -4.24038,-23.62503 -12.72117,-33.07504 -8.48077,-9.45002 -19.38463,-14.05386 -33.31735,-14.90194 z" opacity="0.8" fill="none" stroke="#ffffff" vector-effect="none" stroke-width="64"/>
 <path d="M 318.14739,508.0772 V 70.711259 H 283.49734 V 508.0772 Z" id="path4143" stroke-width="1.21"/>
 <path d="m 109.27789,150.6729 c -10.903867,0 -20.596186,3.87692 -29.440424,11.75194 -6.542316,6.05769 -10.903862,12.84233 -13.084631,20.35387 L 36.585489,283.33653 c -4.096944,12.02666 4.513049,20.78306 13.690403,20.95964 7.026933,0 11.630779,-3.87693 13.811557,-11.75193 L 91.589409,200.4672 H 106.6125 L 61.785516,364.02509 h 43.615444 v 127.2117 c 0,11.38848 5.45193,16.96156 16.3558,16.96156 10.90385,0 16.35579,-5.69423 16.35579,-16.96156 v -127.2117 h 16.35578 v 128.42324 c 0,10.90387 5.45193,16.35579 16.35579,16.35579 10.90387,0 16.35579,-5.45192 16.35579,-16.35579 V 365.23664 h 43.61544 l -45.79621,-163.5579 h 15.75002 l 27.50196,92.07703 c 2.18077,7.87502 6.78462,11.75195 13.6904,11.75195 12.32138,-2.19646 18.35661,-10.76573 13.69041,-20.95965 L 225.46458,183.99025 c -2.18078,-7.02693 -7.14809,-13.81156 -15.0231,-20.35387 -9.57117,-7.87501 -20.11156,-11.75194 -31.25774,-12.35771 z" id="path4141" stroke-width="1.21"/>
 <path d="m 181.60683,109.48054 c -1.57969,-21.347792 -16.59355,-35.606859 -35.98274,-35.861584 -20.94141,1.616563 -35.12016,16.942374 -35.37697,35.861584 1.60805,20.5251 16.68499,35.001 35.37697,35.25581 20.79222,-1.4768 35.71451,-16.21244 35.98274,-35.25581 z" id="path4139" stroke-width="1.21"/>
 <path d="m 487.39952,108.75362 c -1.49926,-20.901345 -16.22225,-35.118113 -35.25581,-35.376973 -21.03998,1.60514 -35.00861,16.346163 -35.25582,35.376973 1.55991,20.46084 16.62162,35.11448 35.25582,35.37696 20.5251,-1.60805 35.00099,-16.68497 35.25581,-35.37696 z" id="path4137" stroke-width="1.21"/>
 <path d="m 404.89365,151.27867 c -12.60002,0 -23.50388,4.4827 -32.46927,13.32693 -8.9654,8.96541 -13.32694,19.99042 -13.32694,33.07505 v 109.0386 c 0,10.41924 4.84615,15.75003 14.41732,15.75003 9.20771,0 13.81156,-5.20963 13.81156,-15.75003 V 201.31528 h 16.96156 v 288.34651 c 0,13.08463 6.54231,19.62695 19.62694,19.62695 13.08463,0 19.62696,-6.54232 19.62696,-19.62695 V 322.46928 h 16.96155 v 167.19251 c 0,13.08463 6.54232,19.62695 19.62696,19.62695 13.56924,0 20.35387,-6.54232 20.35387,-19.62695 V 201.31528 h 16.35579 v 106.61551 c 0,10.90387 4.60384,16.35579 13.81155,16.35579 9.20771,0 13.81155,-5.45192 13.81155,-16.35579 V 200.10373 c 0,-12.60001 -4.24038,-23.62503 -12.72117,-33.07504 -8.48077,-9.45002 -19.38463,-14.05386 -33.31735,-14.90194 z" id="flowRoot3192" stroke-width="1.21"/>
</svg>
