<?xml version="1.0" encoding="UTF-8" standalone="no"?>
<svg xmlns="http://www.w3.org/2000/svg" version="1.0" width="580" height="580">
 <metadata id="metadata10"/>
 <path id="path4161" d="m 425,38.7 c 35.7,28.5 54.8,70 51.7,113 -3.1,42.8 -27.9,82 -67,106 -2.9,1.8 0.1,5.6 3,3.9 C 453,237 479,196 482,152 485,108 466,65 429,35 c -2.8,-1.8 -5.8,2 -3.8,3.7" mix-blend-mode="normal" solid-color="#256f25" opacity="0.8" white-space="normal" color-interpolation-filters="linearRGB" filter-gaussianBlur-deviation="0" color="#256f25" image-rendering="auto" color-rendering="auto" stroke-width="64" isolation="auto" color-interpolation="sRGB" solid-opacity="1" fill="none" stroke-linejoin="round" filter-blend-mode="normal" stroke="#ffffff" shape-rendering="auto"/>
 <path id="path4163" d="m 124,152 c 3.2,44 28.8,85 70,110 2.9,1.9 5.9,-2.1 3,-3.9 C 157,234 132,195 129,152 126,109 145,67 181,39 182,35.5 179.8,34.1 177.1,35.25 140.1,64.5 120,108 124,152 Z" mix-blend-mode="normal" solid-color="#256f25" opacity="0.8" white-space="normal" color-interpolation-filters="linearRGB" filter-gaussianBlur-deviation="0" color="#256f25" image-rendering="auto" color-rendering="auto" stroke-width="64" isolation="auto" color-interpolation="sRGB" solid-opacity="1" fill="none" stroke-linejoin="round" filter-blend-mode="normal" stroke="#ffffff" shape-rendering="auto"/>
 <path id="path4165" d="m 382.2,74.2 c 25.3,17.9 39,45.8 37,75 -2,28.8 -19.7,54.9 -47,69.8 -3,1.6 -0.3,5.6 2.7,4 29,-15.7 47.6,-43 49.8,-74 2.1,-30.4 -12.5,-59.7 -39,-79 -2.8,-1.3 -5.8,2.5 -3.5,4.2" mix-blend-mode="normal" solid-color="#256f25" opacity="0.8" white-space="normal" color-interpolation-filters="linearRGB" filter-gaussianBlur-deviation="0" color="#256f25" image-rendering="auto" color-rendering="auto" stroke-width="64" isolation="auto" color-interpolation="sRGB" solid-opacity="1" fill="none" stroke-linejoin="round" filter-blend-mode="normal" stroke="#ffffff" shape-rendering="auto"/>
 <path id="path4167" d="m 180.2,149.7 c 2.1,30.4 20.7,57.8 49.8,74 3,1.7 5.8,-2.4 2.7,-4 -27.6,-14.9 -45,-41 -47,-69.8 -2,-28.8 11.8,-56.7 37,-75 1.7,-3.1 -0.7,-5.3 -3.5,-4.2 -26.6,18.9 -41,48 -39,79 z" mix-blend-mode="normal" solid-color="#256f25" opacity="0.8" white-space="normal" color-interpolation-filters="linearRGB" filter-gaussianBlur-deviation="0" color="#256f25" image-rendering="auto" color-rendering="auto" stroke-width="64" isolation="auto" color-interpolation="sRGB" solid-opacity="1" fill="none" stroke-linejoin="round" filter-blend-mode="normal" stroke="#ffffff" shape-rendering="auto"/>
 <path id="path4169" d="m 369.4,143.6 c -1,13 -9.7,24.9 -23,31.7 -3.1,1.5 -0.3,5.4 2.7,3.7 15,-7.5 24.6,-20.7 25.7,-35 1.1,-14.5 -6.4,-28.6 -20,-37.6 -2.6,-1.7 -6,1.6 -3.6,3.3 12.4,8.1 19,20.8 18.2,33.9 z" mix-blend-mode="normal" solid-color="#256f25" opacity="0.8" white-space="normal" color-interpolation-filters="linearRGB" filter-gaussianBlur-deviation="0" color="#256f25" image-rendering="auto" color-rendering="auto" stroke-width="64" isolation="auto" color-interpolation="sRGB" solid-opacity="1" fill="none" stroke-linejoin="round" filter-blend-mode="normal" stroke="#ffffff" shape-rendering="auto"/>
 <path id="path4171" d="m 232,144.6 c 1.1,14.5 10.7,27.7 25.7,35 3,1.6 5.8,-2.2 2.7,-3.7 -13.5,-6.8 -22,-18.6 -23,-31.7 -1,-13 5.8,-25.8 18.2,-33.9 1.7,-3.3 -0.9,-4.4 -3.6,-3.3 -13.7,9 -21.3,23 -20,37.6 z" mix-blend-mode="normal" solid-color="#256f25" opacity="0.8" white-space="normal" color-interpolation-filters="linearRGB" filter-gaussianBlur-deviation="0" color="#256f25" image-rendering="auto" color-rendering="auto" stroke-width="64" isolation="auto" color-interpolation="sRGB" solid-opacity="1" fill="none" stroke-linejoin="round" filter-blend-mode="normal" stroke="#ffffff" shape-rendering="auto"/>
 <path id="path4173" d="M 303.5625 120.58984 C 303.19096 120.58418 302.81953 120.58711 302.44922 120.59961 C 288.49922 120.49961 276.90078 129.99961 276.80078 141.59961 C 276.70078 150.29961 282.90078 157.79922 291.80078 161.19922 C 284.00078 290.19922 242.00078 436.19922 173.80078 530.19922 C 166.60078 543.39922 183.09922 550.59961 189.69922 542.09961 C 203.99922 523.09961 216.69922 502.49961 227.69922 481.09961 L 301.69922 413.09961 L 375.69922 481.09961 C 386.69922 501.99961 399.39961 522.09961 413.59961 541.09961 C 424.19961 551.69961 435.6 537.89922 429.5 529.19922 C 359 416.99922 313 285 310 161 C 319.5 157.9 326.3 150.30078 326.5 141.30078 L 326.5 141.19922 L 326.5 141.09961 C 326.98438 129.57148 315.08036 120.76534 303.5625 120.58984 z M 301.30078 251.40039 C 305.50078 275.40039 314.5 314.59961 314.5 314.59961 L 301.5 326.59961 L 288.30078 314.40039 C 293.30078 293.40039 298.00078 270.40039 301.30078 251.40039 z M 317.59961 327.69922 L 322.90039 347.09961 L 310 334 L 317.59961 327.69922 z M 285 329.19922 L 292.5 336.09961 L 280.09961 347.59961 C 281.79961 341.39961 283.5 335.29922 285 329.19922 z M 301 343 L 327 367 L 300 391 L 274 367 L 301 343 z M 267.80078 381.59961 L 288.90039 401.40039 L 244.19922 442.40039 C 253.19922 422.10039 260.90078 401.69961 267.80078 381.59961 z M 333.30078 381.90039 C 340.10078 402.30039 347.90039 422.90039 356.90039 442.90039 L 356.90039 443 L 312 401.5 L 333.30078 381.90039 z " mix-blend-mode="normal" solid-color="#256f25" opacity="0.8" white-space="normal" color-interpolation-filters="linearRGB" filter-gaussianBlur-deviation="0" color="#256f25" image-rendering="auto" color-rendering="auto" stroke-width="64" isolation="auto" color-interpolation="sRGB" solid-opacity="1" fill="none" stroke-linejoin="round" filter-blend-mode="normal" stroke="#ffffff" shape-rendering="auto"/>
 <path d="m 425,38.7 c 35.7,28.5 54.8,70 51.7,113 -3.1,42.8 -27.9,82 -67,106 -2.9,1.8 0.1,5.6 3,3.9 C 453,237 479,196 482,152 485,108 466,65 429,35 c -2.8,-1.8 -5.8,2 -3.8,3.7" id="path4158" fill="#256f25" isolation="auto" color-rendering="auto" white-space="normal" solid-opacity="1" mix-blend-mode="normal" color-interpolation-filters="linearRGB" shape-rendering="auto" image-rendering="auto" color-interpolation="sRGB" color="#256f25" solid-color="#256f25"/>
 <path d="m 124,152 c 3.2,44 28.8,85 70,110 2.9,1.9 5.9,-2.1 3,-3.9 C 157,234 132,195 129,152 126,109 145,67 181,39 182,35.5 179.8,34.1 177.1,35.25 140.1,64.5 120,108 124,152 Z" id="path4156" fill="#256f25" isolation="auto" color-rendering="auto" white-space="normal" solid-opacity="1" mix-blend-mode="normal" color-interpolation-filters="linearRGB" shape-rendering="auto" image-rendering="auto" color-interpolation="sRGB" color="#256f25" solid-color="#256f25"/>
 <path d="m 382.2,74.2 c 25.3,17.9 39,45.8 37,75 -2,28.8 -19.7,54.9 -47,69.8 -3,1.6 -0.3,5.6 2.7,4 29,-15.7 47.6,-43 49.8,-74 2.1,-30.4 -12.5,-59.7 -39,-79 -2.8,-1.3 -5.8,2.5 -3.5,4.2" id="path4154" fill="#256f25" isolation="auto" color-rendering="auto" white-space="normal" solid-opacity="1" mix-blend-mode="normal" color-interpolation-filters="linearRGB" shape-rendering="auto" image-rendering="auto" color-interpolation="sRGB" color="#256f25" solid-color="#256f25"/>
 <path d="m 180.2,149.7 c 2.1,30.4 20.7,57.8 49.8,74 3,1.7 5.8,-2.4 2.7,-4 -27.6,-14.9 -45,-41 -47,-69.8 -2,-28.8 11.8,-56.7 37,-75 1.7,-3.1 -0.7,-5.3 -3.5,-4.2 -26.6,18.9 -41,48 -39,79 z" id="path4152" fill="#256f25" isolation="auto" color-rendering="auto" white-space="normal" solid-opacity="1" mix-blend-mode="normal" color-interpolation-filters="linearRGB" shape-rendering="auto" image-rendering="auto" color-interpolation="sRGB" color="#256f25" solid-color="#256f25"/>
 <path d="m 369.4,143.6 c -1,13 -9.7,24.9 -23,31.7 -3.1,1.5 -0.3,5.4 2.7,3.7 15,-7.5 24.6,-20.7 25.7,-35 1.1,-14.5 -6.4,-28.6 -20,-37.6 -2.6,-1.7 -6,1.6 -3.6,3.3 12.4,8.1 19,20.8 18.2,33.9 z" id="path4150" fill="#256f25" isolation="auto" color-rendering="auto" white-space="normal" solid-opacity="1" mix-blend-mode="normal" color-interpolation-filters="linearRGB" shape-rendering="auto" image-rendering="auto" color-interpolation="sRGB" color="#256f25" solid-color="#256f25"/>
 <path d="m 232,144.6 c 1.1,14.5 10.7,27.7 25.7,35 3,1.6 5.8,-2.2 2.7,-3.7 -13.5,-6.8 -22,-18.6 -23,-31.7 -1,-13 5.8,-25.8 18.2,-33.9 1.7,-3.3 -0.9,-4.4 -3.6,-3.3 -13.7,9 -21.3,23 -20,37.6 z" id="path4148" fill="#256f25" isolation="auto" color-rendering="auto" white-space="normal" solid-opacity="1" mix-blend-mode="normal" color-interpolation-filters="linearRGB" shape-rendering="auto" image-rendering="auto" color-interpolation="sRGB" color="#256f25" solid-color="#256f25"/>
 <path d="M 303.5625 120.58984 C 303.19096 120.58418 302.81953 120.58711 302.44922 120.59961 C 288.49922 120.49961 276.90078 129.99961 276.80078 141.59961 C 276.70078 150.29961 282.90078 157.79922 291.80078 161.19922 C 284.00078 290.19922 242.00078 436.19922 173.80078 530.19922 C 166.60078 543.39922 183.09922 550.59961 189.69922 542.09961 C 203.99922 523.09961 216.69922 502.49961 227.69922 481.09961 L 301.69922 413.09961 L 375.69922 481.09961 C 386.69922 501.99961 399.39961 522.09961 413.59961 541.09961 C 424.19961 551.69961 435.6 537.89922 429.5 529.19922 C 359 416.99922 313 285 310 161 C 319.5 157.9 326.3 150.30078 326.5 141.30078 L 326.5 141.19922 L 326.5 141.09961 C 326.98438 129.57148 315.08036 120.76534 303.5625 120.58984 z M 301.30078 251.40039 C 305.50078 275.40039 314.5 314.59961 314.5 314.59961 L 301.5 326.59961 L 288.30078 314.40039 C 293.30078 293.40039 298.00078 270.40039 301.30078 251.40039 z M 317.59961 327.69922 L 322.90039 347.09961 L 310 334 L 317.59961 327.69922 z M 285 329.19922 L 292.5 336.09961 L 280.09961 347.59961 C 281.79961 341.39961 283.5 335.29922 285 329.19922 z M 301 343 L 327 367 L 300 391 L 274 367 L 301 343 z M 267.80078 381.59961 L 288.90039 401.40039 L 244.19922 442.40039 C 253.19922 422.10039 260.90078 401.69961 267.80078 381.59961 z M 333.30078 381.90039 C 340.10078 402.30039 347.90039 422.90039 356.90039 442.90039 L 356.90039 443 L 312 401.5 L 333.30078 381.90039 z " id="path4146" fill="#256f25" isolation="auto" color-rendering="auto" white-space="normal" solid-opacity="1" mix-blend-mode="normal" color-interpolation-filters="linearRGB" shape-rendering="auto" image-rendering="auto" color-interpolation="sRGB" color="#256f25" solid-color="#256f25"/>
</svg>
