<?xml version="1.0" encoding="UTF-8" standalone="no"?>
<svg xmlns="http://www.w3.org/2000/svg" version="1.0" width="580" height="580">
 <metadata id="metadata2975"/>
 <path d="M 312.99529,547.57154 V 248.01538 h -28.3077 v 299.55616 z" id="path5159" opacity="0.8" fill="none" stroke="#ffffff" vector-effect="none" stroke-width="64"/>
 <path d="m 142.35729,255.58659 c -8.90802,0 -16.82626,3.16729 -24.05164,9.60086 -5.34481,4.9489 -8.90801,10.49168 -10.68961,16.6283 l -24.645509,82.1517 c -3.34704,9.8253 3.68698,16.97893 11.18451,17.1232 5.740722,0 9.501879,-3.1673 11.283489,-9.60087 l 22.46798,-75.22325 h 12.27326 L 103.55794,429.88676 H 139.19 V 533.8136 c 0,9.30393 4.45401,13.85691 13.36202,13.85691 8.90801,0 13.36203,-4.65196 13.36203,-13.85691 V 429.88676 h 13.36201 v 104.91663 c 0,8.90803 4.45401,13.36203 13.36202,13.36203 8.90803,0 13.36203,-4.454 13.36203,-13.36203 V 430.87655 h 35.63206 L 204.21851,297.25631 h 12.86713 l 22.468,75.22325 c 1.7816,6.43357 5.54276,9.60087 11.1845,9.60087 10.06608,-1.79442 14.99662,-8.79517 11.18452,-17.1232 l -24.64552,-82.1517 c -1.78161,-5.74072 -5.83969,-11.28349 -12.27326,-16.62829 -7.81927,-6.43356 -16.43034,-9.60087 -25.53633,-10.09575 z" id="path5161" opacity="0.8" fill="none" stroke="#ffffff" vector-effect="none" stroke-width="64"/>
 <path d="m 201.44713,221.9341 c -1.29053,-17.4403 -13.55626,-29.08938 -29.39645,-29.29748 -17.10829,1.32066 -28.69176,13.84123 -28.90156,29.29748 1.31372,16.76817 13.63096,28.5944 28.90156,28.80257 16.98641,-1.20649 29.17732,-13.24491 29.39645,-28.80257 z" id="path5163" opacity="0.8" fill="none" stroke="#ffffff" vector-effect="none" stroke-width="64"/>
 <path d="m 451.26747,221.34022 c -1.22484,-17.07555 -13.25293,-28.69008 -28.80258,-28.90156 -17.18881,1.31133 -28.60062,13.35417 -28.80258,28.90156 1.27437,16.71569 13.57919,28.68712 28.80258,28.90157 16.76819,-1.31372 28.59441,-13.63096 28.80258,-28.90157 z" id="path5165" opacity="0.8" fill="none" stroke="#ffffff" vector-effect="none" stroke-width="64"/>
 <path d="m 383.86349,256.08149 c -10.2937,0 -19.20173,3.66218 -26.52609,10.88756 -7.32437,7.32437 -10.88757,16.33137 -10.88757,27.02099 v 89.08015 c 0,8.51209 3.95911,12.86714 11.77837,12.86714 7.52233,0 11.28348,-4.25607 11.28348,-12.86714 v -86.1108 h 13.85692 v 235.5675 c 0,10.68962 5.34481,16.03443 16.03442,16.03443 10.68962,0 16.03444,-5.34481 16.03444,-16.03443 V 395.93733 h 13.85691 v 136.58956 c 0,10.68962 5.34481,16.03444 16.03443,16.03444 11.08552,0 16.62829,-5.34482 16.62829,-16.03444 v -235.5675 h 13.36203 v 87.10059 c 0,8.90801 3.76115,13.36202 11.28348,13.36202 7.52233,0 11.28348,-4.454 11.28348,-13.36202 v -88.09037 c 0,-10.29371 -3.46422,-19.30071 -10.39268,-27.02099 -6.92845,-7.72028 -15.83647,-11.48144 -27.21894,-12.17428 z" id="path5167" opacity="0.8" fill="none" stroke="#ffffff" vector-effect="none" stroke-width="64"/>
 <path id="path5169" d="m 298.84144,33.009766 c -53.17771,0 -96.29102,43.113314 -96.29102,96.291014 0,53.17771 43.11331,96.29102 96.29102,96.29102 53.17771,0 96.29102,-43.11331 96.29102,-96.29102 0,-53.1777 -43.11331,-96.291014 -96.29102,-96.291014 z m -4.03711,17.470703 h 1.61133 2.70117 1.08984 c 8.81304,0 8.81199,0.380519 8.85938,9.904297 0.0473,7.012532 0.0465,7.011777 7.01172,8.101562 5.35415,0.852876 10.42576,2.416133 15.35351,4.595703 2.70076,1.18455 3.74156,3.080404 2.88868,5.970703 -1.23193,4.264379 -2.41549,8.575973 -3.74219,12.792969 -0.85287,2.558626 -1.6576,3.742188 -3.17383,3.742188 -0.85287,0 -1.89598,-0.330795 -3.22266,-0.994141 -6.82301,-3.31674 -13.97849,-4.927734 -21.46484,-4.927734 -0.94764,0 -1.943,0.04638 -2.89062,0.09375 -2.22697,0.142145 -4.40543,0.427868 -6.49024,1.328125 -7.39159,3.221974 -8.57719,11.372029 -2.27539,16.394529 3.17459,2.55863 6.82323,4.35827 10.56641,5.92188 6.53871,2.70077 13.07811,5.30724 19.28515,8.71875 19.52137,10.89786 24.82822,35.67888 10.94531,52.54687 -5.02249,6.11227 -11.56095,10.23355 -19.18945,12.31836 -3.31673,0.90026 -4.83406,2.65438 -4.64453,6.11328 0.14215,3.4115 4.3e-4,6.77405 -0.0469,10.18555 0,3.03244 -1.56377,4.64351 -4.54883,4.73828 -1.94266,0.0473 -3.88547,0.0957 -5.82813,0.0957 -1.70576,0 -3.41142,5.3e-4 -5.11719,-0.0469 -3.22196,-0.0473 -4.73828,-1.89623 -4.73828,-5.02344 -0.0473,-2.46386 -0.0469,-4.97559 -0.0469,-7.43945 -0.0473,-5.49632 -0.2367,-5.68618 -5.49609,-6.53906 -6.72823,-1.08979 -13.36183,-2.60478 -19.52149,-5.58985 -4.83297,-2.3691 -5.35455,-3.55461 -3.98047,-8.67187 1.04239,-3.79055 2.08498,-7.58104 3.26953,-11.32422 0.85287,-2.74815 1.65812,-3.97852 3.12696,-3.97852 0.85288,0 1.94326,0.42549 3.41211,1.1836 6.823,3.55365 14.07268,5.54454 21.70117,6.49218 1.27931,0.14214 2.55857,0.23633 3.83789,0.23633 3.55365,0 7.01283,-0.66398 10.37695,-2.13281 8.48137,-3.69581 9.80701,-13.50355 2.65235,-19.37891 -2.4165,-1.99005 -5.21127,-3.45897 -8.10157,-4.73828 -7.43897,-3.26936 -15.16324,-5.73222 -22.17578,-9.94922 -11.37167,-6.823 -18.57357,-16.15861 -17.7207,-29.99414 0.94764,-15.636049 9.80927,-25.395401 24.16601,-30.607419 5.92274,-2.132189 5.96875,-2.086437 5.96875,-8.246094 0,-2.084807 -0.0459,-4.168592 0.0488,-6.300781 0.14215,-4.643433 0.89954,-5.449651 5.54297,-5.591797 z" opacity="0.8" fill="none" stroke="#ffffff" vector-effect="none" stroke-width="64"/>
 <path id="path856" d="M 312.99529,547.57154 V 248.01538 h -28.3077 v 299.55616 z" stroke-width="0.91"/>
 <path id="path858" d="m 142.35729,255.58659 c -8.90802,0 -16.82626,3.16729 -24.05164,9.60086 -5.34481,4.9489 -8.90801,10.49168 -10.68961,16.6283 l -24.645509,82.1517 c -3.34704,9.8253 3.68698,16.97893 11.18451,17.1232 5.740722,0 9.501879,-3.1673 11.283489,-9.60087 l 22.46798,-75.22325 h 12.27326 L 103.55794,429.88676 H 139.19 V 533.8136 c 0,9.30393 4.45401,13.85691 13.36202,13.85691 8.90801,0 13.36203,-4.65196 13.36203,-13.85691 V 429.88676 h 13.36201 v 104.91663 c 0,8.90803 4.45401,13.36203 13.36202,13.36203 8.90803,0 13.36203,-4.454 13.36203,-13.36203 V 430.87655 h 35.63206 L 204.21851,297.25631 h 12.86713 l 22.468,75.22325 c 1.7816,6.43357 5.54276,9.60087 11.1845,9.60087 10.06608,-1.79442 14.99662,-8.79517 11.18452,-17.1232 l -24.64552,-82.1517 c -1.78161,-5.74072 -5.83969,-11.28349 -12.27326,-16.62829 -7.81927,-6.43356 -16.43034,-9.60087 -25.53633,-10.09575 z" stroke-width="0.99"/>
 <path id="path860" d="m 201.44713,221.9341 c -1.29053,-17.4403 -13.55626,-29.08938 -29.39645,-29.29748 -17.10829,1.32066 -28.69176,13.84123 -28.90156,29.29748 1.31372,16.76817 13.63096,28.5944 28.90156,28.80257 16.98641,-1.20649 29.17732,-13.24491 29.39645,-28.80257 z" stroke-width="0.99"/>
 <path id="path862" d="m 451.26747,221.34022 c -1.22484,-17.07555 -13.25293,-28.69008 -28.80258,-28.90156 -17.18881,1.31133 -28.60062,13.35417 -28.80258,28.90156 1.27437,16.71569 13.57919,28.68712 28.80258,28.90157 16.76819,-1.31372 28.59441,-13.63096 28.80258,-28.90157 z" stroke-width="0.99"/>
 <path id="path864" d="m 383.86349,256.08149 c -10.2937,0 -19.20173,3.66218 -26.52609,10.88756 -7.32437,7.32437 -10.88757,16.33137 -10.88757,27.02099 v 89.08015 c 0,8.51209 3.95911,12.86714 11.77837,12.86714 7.52233,0 11.28348,-4.25607 11.28348,-12.86714 v -86.1108 h 13.85692 v 235.5675 c 0,10.68962 5.34481,16.03443 16.03442,16.03443 10.68962,0 16.03444,-5.34481 16.03444,-16.03443 V 395.93733 h 13.85691 v 136.58956 c 0,10.68962 5.34481,16.03444 16.03443,16.03444 11.08552,0 16.62829,-5.34482 16.62829,-16.03444 v -235.5675 h 13.36203 v 87.10059 c 0,8.90801 3.76115,13.36202 11.28348,13.36202 7.52233,0 11.28348,-4.454 11.28348,-13.36202 v -88.09037 c 0,-10.29371 -3.46422,-19.30071 -10.39268,-27.02099 -6.92845,-7.72028 -15.83647,-11.48144 -27.21894,-12.17428 z" stroke-width="0.99"/>
 <path d="m 298.84144,33.009766 c -53.17771,0 -96.29102,43.113314 -96.29102,96.291014 0,53.17771 43.11331,96.29102 96.29102,96.29102 53.17771,0 96.29102,-43.11331 96.29102,-96.29102 0,-53.1777 -43.11331,-96.291014 -96.29102,-96.291014 z m -4.03711,17.470703 h 1.61133 2.70117 1.08984 c 8.81304,0 8.81199,0.380519 8.85938,9.904297 0.0473,7.012532 0.0465,7.011777 7.01172,8.101562 5.35415,0.852876 10.42576,2.416133 15.35351,4.595703 2.70076,1.18455 3.74156,3.080404 2.88868,5.970703 -1.23193,4.264379 -2.41549,8.575973 -3.74219,12.792969 -0.85287,2.558626 -1.6576,3.742188 -3.17383,3.742188 -0.85287,0 -1.89598,-0.330795 -3.22266,-0.994141 -6.82301,-3.31674 -13.97849,-4.927734 -21.46484,-4.927734 -0.94764,0 -1.943,0.04638 -2.89062,0.09375 -2.22697,0.142145 -4.40543,0.427868 -6.49024,1.328125 -7.39159,3.221974 -8.57719,11.372029 -2.27539,16.394529 3.17459,2.55863 6.82323,4.35827 10.56641,5.92188 6.53871,2.70077 13.07811,5.30724 19.28515,8.71875 19.52137,10.89786 24.82822,35.67888 10.94531,52.54687 -5.02249,6.11227 -11.56095,10.23355 -19.18945,12.31836 -3.31673,0.90026 -4.83406,2.65438 -4.64453,6.11328 0.14215,3.4115 4.3e-4,6.77405 -0.0469,10.18555 0,3.03244 -1.56377,4.64351 -4.54883,4.73828 -1.94266,0.0473 -3.88547,0.0957 -5.82813,0.0957 -1.70576,0 -3.41142,5.3e-4 -5.11719,-0.0469 -3.22196,-0.0473 -4.73828,-1.89623 -4.73828,-5.02344 -0.0473,-2.46386 -0.0469,-4.97559 -0.0469,-7.43945 -0.0473,-5.49632 -0.2367,-5.68618 -5.49609,-6.53906 -6.72823,-1.08979 -13.36183,-2.60478 -19.52149,-5.58985 -4.83297,-2.3691 -5.35455,-3.55461 -3.98047,-8.67187 1.04239,-3.79055 2.08498,-7.58104 3.26953,-11.32422 0.85287,-2.74815 1.65812,-3.97852 3.12696,-3.97852 0.85288,0 1.94326,0.42549 3.41211,1.1836 6.823,3.55365 14.07268,5.54454 21.70117,6.49218 1.27931,0.14214 2.55857,0.23633 3.83789,0.23633 3.55365,0 7.01283,-0.66398 10.37695,-2.13281 8.48137,-3.69581 9.80701,-13.50355 2.65235,-19.37891 -2.4165,-1.99005 -5.21127,-3.45897 -8.10157,-4.73828 -7.43897,-3.26936 -15.16324,-5.73222 -22.17578,-9.94922 -11.37167,-6.823 -18.57357,-16.15861 -17.7207,-29.99414 0.94764,-15.636049 9.80927,-25.395401 24.16601,-30.607419 5.92274,-2.132189 5.96875,-2.086437 5.96875,-8.246094 0,-2.084807 -0.0459,-4.168592 0.0488,-6.300781 0.14215,-4.643433 0.89954,-5.449651 5.54297,-5.591797 z" id="path5108" vector-effect="none"/>
</svg>
