<?xml version="1.0" encoding="UTF-8" standalone="no"?>
<svg xmlns="http://www.w3.org/2000/svg" version="1.0" width="580" height="580">
 <metadata id="metadata2975"/>
 <path id="path4145" d="M 298 37.900391 L 176 93 L 176.5 212.09961 L 218.40039 212.5 L 145.40039 540.5 L 187.40039 540.59961 L 194 511 L 298 384 L 403.5 511 L 410.09961 540.5 L 452.09961 540.40039 L 379.09961 212.40039 L 421 212 L 421 93 L 298 37.900391 z M 222 110 L 375 110 L 375 170 L 222 170 L 222 110 z M 260.19922 213.30078 L 337.19922 213.30078 L 348.69922 267.59961 L 298.40039 329.09961 L 248.40039 267.09961 L 260.19922 213.30078 z M 238 311.09961 L 275 356 L 211 434.05078 L 238 311.09961 z M 358.19922 312.55078 L 385.19922 435.5 L 321.19922 357.5 L 358.19922 312.55078 z " mix-blend-mode="normal" solid-color="#256f25" opacity="0.8" color-interpolation-filters="linearRGB" filter-gaussianBlur-deviation="0" color="#256f25" image-rendering="auto" color-rendering="auto" stroke-width="64" isolation="auto" color-interpolation="sRGB" solid-opacity="1" fill="none" stroke-linejoin="round" filter-blend-mode="normal" stroke="#ffffff" shape-rendering="auto"/>
 <path d="M 298 37.900391 L 176 93 L 176.5 212.09961 L 218.40039 212.5 L 145.40039 540.5 L 187.40039 540.59961 L 194 511 L 298 384 L 403.5 511 L 410.09961 540.5 L 452.09961 540.40039 L 379.09961 212.40039 L 421 212 L 421 93 L 298 37.900391 z M 222 110 L 375 110 L 375 170 L 222 170 L 222 110 z M 260.19922 213.30078 L 337.19922 213.30078 L 348.69922 267.59961 L 298.40039 329.09961 L 248.40039 267.09961 L 260.19922 213.30078 z M 238 311.09961 L 275 356 L 211 434.05078 L 238 311.09961 z M 358.19922 312.55078 L 385.19922 435.5 L 321.19922 357.5 L 358.19922 312.55078 z " id="path4142" fill="#256f25"/>
</svg>
