<?xml version="1.0" encoding="UTF-8" standalone="no"?>
<svg xmlns="http://www.w3.org/2000/svg" version="1.0" width="580" height="580">
 <metadata id="metadata2975"/>
 <path id="path4136" d="m 167.59128,231.71781 c 4.57773,5.16631 11.77131,8.50151 15.82588,8.50151 l 88.41562,0 76.51351,125.56064 c 2.35427,3.92378 6.53962,6.27803 11.11735,6.27803 l 34.46378,0 c 8.89389,0 15.23731,-8.69769 12.42527,-17.19918 l -37.92977,-116.40519 47.7392,0 20.53441,26.02768 c 1.83109,2.35426 4.70852,3.72757 7.71674,3.72757 l 27.2702,0 c 6.53962,0 11.31354,-6.40882 9.35165,-12.68684 l -12.94845,-42.57291 13.73322,-43.81544 c 1.96188,-6.27802 -2.74665,-12.68686 -9.35166,-12.68686 l -27.27021,0 c -3.00823,0 -5.88566,1.37332 -7.71675,3.79298 l -20.5344,26.15847 -47.7392,0 37.92978,-116.405204 c 2.81204,-8.436098 -3.53138,-17.003001 -12.42526,-17.199186 l -34.46379,0 c -4.57773,0 -8.82848,2.419658 -11.11734,6.343426 l -76.51353,127.522544 -83.70708,0 c -8.10914,0 -15.43351,3.26981 -20.14203,8.43611 -4.70853,5.16629 -6.8666,11.64051 -7.32438,18.27823 -0.45777,6.63771 1.56952,13.17733 6.14724,18.34362 z" mix-blend-mode="normal" solid-color="#000000" white-space="normal" color-interpolation-filters="linearRGB" opacity="0.8" filter-gaussianBlur-deviation="0" color="#000000" image-rendering="auto" color-rendering="auto" stroke-width="64" isolation="auto" color-interpolation="sRGB" solid-opacity="1" fill="none" stroke-linejoin="round" filter-blend-mode="normal" stroke="#ffffff" shape-rendering="auto"/>
 <path id="path4138" d="M 133.08984 310.76953 C 127.33242 310.76953 124.49322 315.48028 122.13672 320.30859 C 112.52618 343.4097 102.83765 360.3031 99.316406 391.7207 C 98.589554 413.84856 97.490066 435.79087 97.777344 458.42578 C 97.777459 471.8113 113.38443 492.35939 126.4668 492.35938 L 375.92578 492.35938 L 375.92578 467.33789 C 375.42596 467.21601 374.93756 467.08413 374.44141 466.94531 L 374.44141 444.35742 L 375.92578 444.64453 L 375.92578 437.64648 C 324.30298 421.20228 280.76307 387.77773 256.74609 328.66602 C 252.58892 318.01006 244.40607 311.50205 233.58594 310.76953 L 133.08984 310.76953 z M 132.28516 325.62305 L 229.39844 325.62305 C 235.71914 325.62306 241.28458 349.46023 245.8457 361.65234 C 247.29741 365.61452 246.15779 371.96094 243.08984 371.96094 L 116.75 371.96094 C 113.84327 371.96099 112.64722 366.76933 113.86719 361.95703 C 120.00887 349.84944 127.02213 325.62305 132.28516 325.62305 z M 267.57422 378.00977 C 274.68038 384.89876 282.31965 394.36079 288.9082 398.68164 L 288.9082 440.65234 L 269.68555 431.84766 C 267.85822 414.13067 267.68328 396.07048 267.57422 378.00977 z M 299.89648 408.47266 C 307.84338 415.22151 311.10576 416.5526 317.97461 421.57422 L 318.25977 453.87891 L 299.89648 446.18359 C 299.47053 428.46658 300.00554 426.53337 299.89648 408.47266 z M 128.0293 420.92188 C 134.55989 420.76779 139.73047 425.92195 139.73047 432.29492 C 139.73056 438.66794 134.55851 443.83789 128.18555 443.83789 C 121.81269 443.83794 116.64258 438.6679 116.64258 432.29492 C 116.64266 426.12114 121.49871 421.07595 128.0293 420.92188 z M 223.31641 420.92188 C 229.84702 420.76779 235.01758 425.92195 235.01758 432.29492 C 235.0177 438.66794 229.84562 443.83789 223.47266 443.83789 C 217.09983 443.83794 211.92969 438.6679 211.92969 432.29492 C 211.9298 426.12114 216.7858 421.07595 223.31641 420.92188 z M 327.45898 427.31836 L 345.41016 434.63867 L 345.41016 461.19922 C 338.82711 460.48025 332.72258 458.96483 327.45898 456.13477 L 327.45898 427.31836 z M 352.83789 438.21875 L 367.10352 441.88672 L 367.10352 465.96094 C 362.23965 465.74316 357.43944 465.19223 352.83789 463.40039 L 352.83789 438.21875 z M 210.76562 498.26562 L 210.76562 510.16797 L 157.86133 510.16797 L 157.86133 498.30078 L 121.75977 498.30078 L 121.75977 510.31055 L 97.794922 510.31055 L 97.759766 527.20703 L 266.41016 527.20703 C 290.14205 516.51802 331.60293 503.04009 375.92578 501.17578 L 375.92578 498.26562 L 210.76562 498.26562 z " mix-blend-mode="normal" solid-color="#000000" white-space="normal" color-interpolation-filters="linearRGB" opacity="0.8" filter-gaussianBlur-deviation="0" color="#000000" image-rendering="auto" color-rendering="auto" stroke-width="64" isolation="auto" color-interpolation="sRGB" solid-opacity="1" fill="none" stroke-linejoin="round" filter-blend-mode="normal" stroke="#ffffff" shape-rendering="auto"/>
 <path d="m 167.59128,231.71781 c 4.57773,5.16631 11.77131,8.50151 15.82588,8.50151 l 88.41562,0 76.51351,125.56064 c 2.35427,3.92378 6.53962,6.27803 11.11735,6.27803 l 34.46378,0 c 8.89389,0 15.23731,-8.69769 12.42527,-17.19918 l -37.92977,-116.40519 47.7392,0 20.53441,26.02768 c 1.83109,2.35426 4.70852,3.72757 7.71674,3.72757 l 27.2702,0 c 6.53962,0 11.31354,-6.40882 9.35165,-12.68684 l -12.94845,-42.57291 13.73322,-43.81544 c 1.96188,-6.27802 -2.74665,-12.68686 -9.35166,-12.68686 l -27.27021,0 c -3.00823,0 -5.88566,1.37332 -7.71675,3.79298 l -20.5344,26.15847 -47.7392,0 37.92978,-116.405204 c 2.81204,-8.436098 -3.53138,-17.003001 -12.42526,-17.199186 l -34.46379,0 c -4.57773,0 -8.82848,2.419658 -11.11734,6.343426 l -76.51353,127.522544 -83.70708,0 c -8.10914,0 -15.43351,3.26981 -20.14203,8.43611 -4.70853,5.16629 -6.8666,11.64051 -7.32438,18.27823 -0.45777,6.63771 1.56952,13.17733 6.14724,18.34362 z" id="path4173" fill="#ac39ac" isolation="auto" color-rendering="auto" white-space="normal" solid-opacity="1" mix-blend-mode="normal" color-interpolation-filters="linearRGB" shape-rendering="auto" image-rendering="auto" color-interpolation="sRGB" color="#000000" solid-color="#000000"/>
 <path d="M 133.08984 310.76953 C 127.33242 310.76953 124.49322 315.48028 122.13672 320.30859 C 112.52618 343.4097 102.83765 360.3031 99.316406 391.7207 C 98.589554 413.84856 97.490066 435.79087 97.777344 458.42578 C 97.777459 471.8113 113.38443 492.35939 126.4668 492.35938 L 375.92578 492.35938 L 375.92578 467.33789 C 375.42596 467.21601 374.93756 467.08413 374.44141 466.94531 L 374.44141 444.35742 L 375.92578 444.64453 L 375.92578 437.64648 C 324.30298 421.20228 280.76307 387.77773 256.74609 328.66602 C 252.58892 318.01006 244.40607 311.50205 233.58594 310.76953 L 133.08984 310.76953 z M 132.28516 325.62305 L 229.39844 325.62305 C 235.71914 325.62306 241.28458 349.46023 245.8457 361.65234 C 247.29741 365.61452 246.15779 371.96094 243.08984 371.96094 L 116.75 371.96094 C 113.84327 371.96099 112.64722 366.76933 113.86719 361.95703 C 120.00887 349.84944 127.02213 325.62305 132.28516 325.62305 z M 267.57422 378.00977 C 274.68038 384.89876 282.31965 394.36079 288.9082 398.68164 L 288.9082 440.65234 L 269.68555 431.84766 C 267.85822 414.13067 267.68328 396.07048 267.57422 378.00977 z M 299.89648 408.47266 C 307.84338 415.22151 311.10576 416.5526 317.97461 421.57422 L 318.25977 453.87891 L 299.89648 446.18359 C 299.47053 428.46658 300.00554 426.53337 299.89648 408.47266 z M 128.0293 420.92188 C 134.55989 420.76779 139.73047 425.92195 139.73047 432.29492 C 139.73056 438.66794 134.55851 443.83789 128.18555 443.83789 C 121.81269 443.83794 116.64258 438.6679 116.64258 432.29492 C 116.64266 426.12114 121.49871 421.07595 128.0293 420.92188 z M 223.31641 420.92188 C 229.84702 420.76779 235.01758 425.92195 235.01758 432.29492 C 235.0177 438.66794 229.84562 443.83789 223.47266 443.83789 C 217.09983 443.83794 211.92969 438.6679 211.92969 432.29492 C 211.9298 426.12114 216.7858 421.07595 223.31641 420.92188 z M 327.45898 427.31836 L 345.41016 434.63867 L 345.41016 461.19922 C 338.82711 460.48025 332.72258 458.96483 327.45898 456.13477 L 327.45898 427.31836 z M 352.83789 438.21875 L 367.10352 441.88672 L 367.10352 465.96094 C 362.23965 465.74316 357.43944 465.19223 352.83789 463.40039 L 352.83789 438.21875 z M 210.76562 498.26562 L 210.76562 510.16797 L 157.86133 510.16797 L 157.86133 498.30078 L 121.75977 498.30078 L 121.75977 510.31055 L 97.794922 510.31055 L 97.759766 527.20703 L 266.41016 527.20703 C 290.14205 516.51802 331.60293 503.04009 375.92578 501.17578 L 375.92578 498.26562 L 210.76562 498.26562 z " id="path4171" fill="#ac39ac" isolation="auto" color-rendering="auto" white-space="normal" solid-opacity="1" mix-blend-mode="normal" color-interpolation-filters="linearRGB" shape-rendering="auto" image-rendering="auto" color-interpolation="sRGB" color="#000000" solid-color="#000000"/>
</svg>
