<?xml version="1.0" encoding="UTF-8" standalone="no"?>
<svg xmlns="http://www.w3.org/2000/svg" version="1.1" width="580" height="580" viewBox="0 0 580 580" enable-background="new 0 0 580 580">
 <metadata id="metadata15"/>
 <path id="path4134" d="m 283.4416,108.13592 c -17.67238,0.002 -31.99823,14.32762 -32,32 l 0,45.00032 -96.51172,-48.03906 c -8.15271,-3.85494 -17.98959,0.59141 -21.45312,7.19336 l -8.87891,17.83789 c -3.93792,7.91107 -0.71742,17.51658 7.19336,21.45508 l 99.94531,49.74609 -125.94531,62.68945 c -7.911517,3.93778 -11.132947,13.54349 -7.195309,21.45508 l 8.880859,17.83789 c 3.93847,7.90965 13.54253,11.12995 21.45312,7.19336 l 122.51172,-60.98047 0,158.33917 c 0.002,17.67238 14.32762,31.99824 32,32 l 13.61524,0 c 17.67238,-0.002 31.99823,-14.32762 32,-32 l 0,-158.09307 122.01562,60.73242 c 7.91059,3.9366 17.51466,0.7163 21.45313,-7.19336 l 8.8789,-17.83789 c 3.9366,-7.91059 0.7163,-17.51466 -7.19336,-21.45313 L 348.26777,233.3296 448.21113,183.58351 c 7.90966,-3.93847 11.12996,-13.54254 7.19336,-21.45313 l -8.8789,-17.83789 c -3.93776,-7.91039 -13.54202,-11.13163 -21.45313,-7.19531 l -96.01562,47.79101 0,-44.75227 c -0.002,-17.67238 -14.32762,-31.99823 -32,-32 z" shape-rendering="auto" mix-blend-mode="normal" filter-blend-mode="normal" color-interpolation-filters="linearRGB" isolation="auto" white-space="normal" opacity="0.8" fill="none" solid-opacity="1" image-rendering="auto" solid-color="#000000" stroke="#ffffff" color="#000000" stroke-linejoin="round" stroke-width="64" color-rendering="auto" filter-gaussianBlur-deviation="0" color-interpolation="sRGB"/>
 <path d="m 283.4416,108.13592 c -17.67238,0.002 -31.99823,14.32762 -32,32 l 0,45.00032 -96.51172,-48.03906 c -8.15271,-3.85494 -17.98959,0.59141 -21.45312,7.19336 l -8.87891,17.83789 c -3.93792,7.91107 -0.71742,17.51658 7.19336,21.45508 l 99.94531,49.74609 -125.94531,62.68945 c -7.911517,3.93778 -11.132947,13.54349 -7.195309,21.45508 l 8.880859,17.83789 c 3.93847,7.90965 13.54253,11.12995 21.45312,7.19336 l 122.51172,-60.98047 0,158.33917 c 0.002,17.67238 14.32762,31.99824 32,32 l 13.61524,0 c 17.67238,-0.002 31.99823,-14.32762 32,-32 l 0,-158.09307 122.01562,60.73242 c 7.91059,3.9366 17.51466,0.7163 21.45313,-7.19336 l 8.8789,-17.83789 c 3.9366,-7.91059 0.7163,-17.51466 -7.19336,-21.45313 L 348.26777,233.3296 448.21113,183.58351 c 7.90966,-3.93847 11.12996,-13.54254 7.19336,-21.45313 l -8.8789,-17.83789 c -3.93776,-7.91039 -13.54202,-11.13163 -21.45313,-7.19531 l -96.01562,47.79101 0,-44.75227 c -0.002,-17.67238 -14.32762,-31.99823 -32,-32 z" id="rect4143" shape-rendering="auto" mix-blend-mode="normal" color-interpolation-filters="linearRGB" isolation="auto" white-space="normal" fill="#666666" solid-opacity="1" image-rendering="auto" solid-color="#000000" color="#000000" color-rendering="auto" color-interpolation="sRGB"/>
</svg>
