<?xml version="1.0" encoding="UTF-8" standalone="no"?>
<svg xmlns="http://www.w3.org/2000/svg" width="580" height="580" version="1.0">
 <metadata id="metadata7"/>
 <path id="path4143" d="M 545.36465,289.66122 A 255.36465,255.36465 0 0 1 290,545.02588 255.36465,255.36465 0 0 1 34.635345,289.66122 255.36465,255.36465 0 0 1 290,34.29657 255.36465,255.36465 0 0 1 545.36465,289.66122 Z" mix-blend-mode="normal" solid-color="#000000" opacity="0.8" color-interpolation-filters="linearRGB" filter-gaussianBlur-deviation="0" color="#000000" image-rendering="auto" color-rendering="auto" stroke-width="64" isolation="auto" color-interpolation="sRGB" solid-opacity="1" fill="none" stroke-linejoin="round" filter-blend-mode="normal" stroke="#ffffff" shape-rendering="auto"/>
 <path d="M 545.36465,289.66122 A 255.36465,255.36465 0 0 1 290,545.02588 255.36465,255.36465 0 0 1 34.635345,289.66122 255.36465,255.36465 0 0 1 290,34.29657 255.36465,255.36465 0 0 1 545.36465,289.66122 Z" id="path3267" fill="#39ac39"/>
 <path d="m 166.52698,212.02288 c 14.40519,8.88631 21.51424,10.75712 43.02848,0 0,-43.96388 24.60106,-65.29104 54.25329,-74.83214 35.45173,-12.16022 101.95878,-17.58555 107.57119,32.27136 10.75712,97.28177 -64.54271,247.88144 -74.83213,269.39568 -43.02848,32.27136 -82.31535,1.68372 -82.31535,-30.58763 -32.27135,-10.75712 -39.28686,-19.64344 -43.02847,-21.51424 0,118.79601 107.57119,140.31025 158.08288,84.18615 C 354.35563,440.35442 419.08543,289.47413 415.34382,159.4533 408.14123,107.35143 387.28177,89.298179 318.99745,84.621171 230.71886,75.582125 157.50528,150.95556 166.52698,212.02288 Z m 12.72146,164.91131 c 10.19588,10.28942 20.29822,20.85946 40.68998,20.85946 40.68997,-93.54017 30.49409,-72.96133 71.09052,-156.21208 -11.31836,-23.94628 -21.60778,-23.94628 -41.43829,-22.40287 -80.63163,178.33433 10.9442,-19.31604 -70.34221,157.75549 z" id="path3805" fill="#ffffff"/>
</svg>
