<?xml version="1.0" encoding="UTF-8" standalone="no"?>
<svg xmlns="http://www.w3.org/2000/svg" version="1.0" width="580" height="580">
 <metadata id="metadata10"/>
 <path id="path4169" d="m 289.52621,36.037314 a 9.5890912,9.5890912 0 0 0 -5.33527,1.947589 L 42.513819,221.98716 a 9.5890912,9.5890912 0 0 0 5.807187,17.21744 l 38.747666,0 0,295.18153 a 9.5890912,9.5890912 0 0 0 9.58813,9.58813 l 145.007398,0 99.98624,0 141.69275,0 a 9.5890912,9.5890912 0 0 0 9.58813,-9.58813 l 0,-295.18153 38.74767,0 a 9.5890912,9.5890912 0 0 0 5.80719,-17.21744 L 295.80718,37.984903 a 9.5890912,9.5890912 0 0 0 -6.28097,-1.947589 z" shape-rendering="auto" mix-blend-mode="normal" filter-blend-mode="normal" isolation="auto" color-interpolation-filters="linearRGB" white-space="normal" paint-order="stroke fill markers" opacity="0.8" fill="none" solid-opacity="1" image-rendering="auto" solid-color="#256f25" stroke="#ffffff" color="#256f25" fill-rule="evenodd" stroke-width="61.4" color-rendering="auto" vector-effect="none" filter-gaussianBlur-deviation="0" shape-padding="0" color-interpolation="sRGB"/>
 <path d="m 289.52621,36.037314 a 9.5890912,9.5890912 0 0 0 -5.33527,1.947589 L 42.513819,221.98716 a 9.5890912,9.5890912 0 0 0 5.807187,17.21744 l 38.747666,0 0,295.18153 a 9.5890912,9.5890912 0 0 0 9.58813,9.58813 l 145.007398,0 99.98624,0 141.69275,0 a 9.5890912,9.5890912 0 0 0 9.58813,-9.58813 l 0,-295.18153 38.74767,0 a 9.5890912,9.5890912 0 0 0 5.80719,-17.21744 L 295.80718,37.984903 a 9.5890912,9.5890912 0 0 0 -6.28097,-1.947589 z" id="path4167" shape-rendering="auto" mix-blend-mode="normal" isolation="auto" color-interpolation-filters="linearRGB" white-space="normal" fill="#256f25" solid-opacity="1" image-rendering="auto" solid-color="#256f25" color="#256f25" fill-rule="evenodd" color-rendering="auto" vector-effect="none" shape-padding="0" color-interpolation="sRGB"/>
 <path d="m 197.38838,279.49349 c 15.14777,0.21497 28.82833,10.92028 44.18968,11.2211 16.0969,0.12749 32.42813,-10.55295 49.66166,-10.11623 16.99343,0.24957 34.29194,11.79719 51.64481,11.73611 17.05312,-0.37571 33.21182,-12.70174 50.98378,-12.82787 13.12779,0 27.23601,6.44048 40.73458,9.98513 l 0,33.19517 c -13.49857,-3.57084 -27.60678,-10.0946 -40.73458,-10.05069 -17.77197,0.12479 -33.93065,12.45218 -50.98378,12.82788 -17.35288,0.0597 -34.65137,-11.5216 -51.64481,-11.76982 -17.23355,-0.31196 -33.56477,10.31113 -49.66166,10.18364 -15.85821,-0.24957 -29.92225,-11.86562 -45.65974,-11.2417 -16.1566,0.4381 -33.86449,13.26335 -49.66166,13.88595 -0.28748,0.005 -0.57304,-0.029 -0.85956,-0.0318 l 0,-33.09778 c 0.28642,0.003 0.57218,0.004 0.85956,0 15.79717,-0.75007 33.50506,-13.25797 49.66166,-13.88593 0.4918,-0.0156 0.98142,-0.02 1.47006,-0.0132 z" id="path4165" shape-rendering="auto" mix-blend-mode="normal" isolation="auto" color-interpolation-filters="linearRGB" white-space="normal" fill="#ffffff" solid-opacity="1" image-rendering="auto" solid-color="#256f25" color="#256f25" fill-rule="evenodd" color-rendering="auto" vector-effect="none" shape-padding="0" color-interpolation="sRGB"/>
 <path d="m 197.38838,341.29012 c 15.14777,0.21498 28.82833,10.92028 44.18968,11.22112 16.0969,0.12749 32.42813,-10.55484 49.66166,-10.11811 16.99343,0.24956 34.29194,11.79905 51.64481,11.73797 17.05312,-0.37571 33.21182,-12.70361 50.98378,-12.82974 13.12779,0 27.23601,6.44049 40.73458,9.98514 l 0,33.19517 c -13.49857,-3.57084 -27.60678,-10.09462 -40.73458,-10.05069 -17.77197,0.12478 -33.93065,12.45405 -50.98378,12.82974 -17.35288,0.0597 -34.65137,-11.52347 -51.64481,-11.77168 -17.23355,-0.31196 -33.56477,10.31112 -49.66166,10.18364 -15.85821,-0.24958 -29.92225,-11.86563 -45.65974,-11.2417 -16.1566,0.43811 -33.86449,13.26524 -49.66166,13.88781 -0.28748,0.005 -0.57304,-0.0308 -0.85956,-0.0337 l 0,-33.09591 c 0.28642,0.003 0.57218,0.004 0.85956,0 15.79717,-0.75007 33.50506,-13.25984 49.66166,-13.8878 0.4918,-0.0157 0.98142,-0.0181 1.47006,-0.0112 z" id="path4163" shape-rendering="auto" mix-blend-mode="normal" isolation="auto" color-interpolation-filters="linearRGB" white-space="normal" fill="#ffffff" solid-opacity="1" image-rendering="auto" solid-color="#256f25" color="#256f25" fill-rule="evenodd" color-rendering="auto" vector-effect="none" shape-padding="0" color-interpolation="sRGB"/>
 <path d="m 197.40518,403.06429 c 15.14757,0.21243 28.81149,10.90579 44.17284,11.208 16.0969,0.12478 32.42813,-10.55433 49.66166,-10.11623 16.99343,0.25093 34.29193,11.79976 51.64481,11.73609 17.05312,-0.37297 33.21182,-12.66804 50.98378,-12.79416 13.12842,0 27.23542,6.44122 40.73458,9.98514 l 0,33.09591 c -13.49857,-3.54403 -27.60678,-9.98514 -40.73458,-9.98514 -17.77197,0.12208 -33.93065,12.45488 -50.98378,12.82788 -17.35289,0.0637 -34.65137,-11.48704 -51.64481,-11.73797 -17.23355,-0.43809 -33.56477,10.24288 -49.66166,10.11809 -15.85821,-0.31196 -29.92225,-11.70847 -45.65974,-11.208 -16.15661,0.62391 -33.8645,13.13317 -49.66166,13.88594 -0.28738,0.004 -0.57315,0.003 -0.85956,0 l 0,-33.12962 c 0.28641,0.003 0.57218,0.004 0.85956,0 15.79716,-0.75276 33.50505,-13.22834 49.66166,-13.85223 0.49178,-0.0155 0.99828,-0.0404 1.4869,-0.0337 z" id="path1484" shape-rendering="auto" mix-blend-mode="normal" isolation="auto" color-interpolation-filters="linearRGB" white-space="normal" fill="#ffffff" solid-opacity="1" image-rendering="auto" solid-color="#256f25" color="#256f25" fill-rule="evenodd" color-rendering="auto" vector-effect="none" shape-padding="0" color-interpolation="sRGB"/>
</svg>
