<?xml version="1.0" encoding="UTF-8" standalone="no"?>
<svg xmlns="http://www.w3.org/2000/svg" width="580" height="580" version="1.0">
 <metadata id="metadata32"/>
 <path mix-blend-mode="normal" isolation="auto" id="path4148" d="m 133,359 322,0 0,131 -322,0 z" solid-color="#000000" opacity="0.8" color-interpolation-filters="linearRGB" filter-gaussianBlur-deviation="0" color="#000000" image-rendering="auto" color-rendering="auto" stroke-width="64" color-interpolation="sRGB" solid-opacity="1" fill="none" stroke-linejoin="round" filter-blend-mode="normal" stroke="#ffffff" shape-rendering="auto"/>
 <path id="path4150" d="m 261,171 -57,0 0,56 57,1 0,111 61,0 0,-111 57,-1 0,-56 -57,0 0,-63 -61,0 z" mix-blend-mode="normal" solid-color="#000000" opacity="0.8" color-interpolation-filters="linearRGB" filter-gaussianBlur-deviation="0" color="#000000" image-rendering="auto" color-rendering="auto" stroke-width="64" isolation="auto" color-interpolation="sRGB" solid-opacity="1" fill="none" stroke-linejoin="round" filter-blend-mode="normal" stroke="#ffffff" shape-rendering="auto"/>
 <path d="m 133,359 322,0 0,131 -322,0 z" id="rect4204" isolation="auto" mix-blend-mode="normal" fill="#c9820d" color-rendering="auto" solid-opacity="1" color-interpolation-filters="linearRGB" shape-rendering="auto" fill-rule="evenodd" image-rendering="auto" color-interpolation="sRGB" color="#000000" solid-color="#000000"/>
 <path d="M 133 379 L 133 472 L 455 472 L 455 379 L 133 379 z M 220 414 L 258 414 L 258 433.5 L 220 433.5 L 220 414 z M 141 414.09961 L 180 414.09961 L 180 433.40039 L 141 433.40039 L 141 414.09961 z M 297 414.5 L 336 414.5 L 336 433.5 L 297 433.5 L 297 414.5 z M 375 414.5 L 411.59961 414.5 L 411.59961 433.5 L 375 433.5 L 375 414.5 z " id="path4145" opacity="0.8" fill="#ffffff" isolation="auto" color-rendering="auto" solid-opacity="1" mix-blend-mode="normal" color-interpolation-filters="linearRGB" shape-rendering="auto" fill-rule="evenodd" image-rendering="auto" color-interpolation="sRGB" color="#000000" solid-color="#000000"/>
 <path d="m 261,171 -57,0 0,56 57,1 0,111 61,0 0,-111 57,-1 0,-56 -57,0 0,-63 -61,0 z" id="path24" fill="#c9820d"/>
</svg>
