<?xml version="1.0" encoding="UTF-8" standalone="no"?>
<svg xmlns="http://www.w3.org/2000/svg" version="1.0" width="580" height="580">
 <metadata id="metadata15"/>
 <path id="path4141" d="M 135.5 102.09961 L 135.5 141 L 96 141 L 96 164.30078 L 135 164.30078 L 135 308.30078 L 100.5 308.30078 L 100.5 354.90039 L 123.80078 354.90039 L 123.80078 489.90039 L 370.80078 489.90039 L 370.80078 354.90039 L 398.69922 354.90039 L 398.69922 308.30078 L 366 309 L 366 165 L 404.59961 165 L 404.59961 260 L 427.90039 260 L 427.90039 253.59961 L 500.69922 253.59961 L 500.34961 230.15039 L 428 230 L 428 141 L 366.09961 141 L 366.09961 104 L 334.40039 104 L 334.40039 141 L 290 141 L 290 124.40039 L 219.19922 124.40039 L 219.19922 141 L 167.19922 141 L 167.19922 102.09961 L 135.5 102.09961 z M 218.69922 164.30078 L 218.69922 173.80078 L 226.40039 173.80078 L 226.40039 308.80078 L 166.40039 308.80078 L 166.55078 164.55078 L 218.69922 164.30078 z M 288.40039 164.30078 L 332.40039 164.30078 L 332.90039 308.55078 L 237.40039 308.80078 L 237.40039 173.80078 L 288.40039 173.80078 L 288.40039 164.30078 z " mix-blend-mode="normal" solid-color="#000000" opacity="0.8" color-interpolation-filters="linearRGB" filter-gaussianBlur-deviation="0" color="#000000" image-rendering="auto" color-rendering="auto" stroke-width="64" isolation="auto" color-interpolation="sRGB" solid-opacity="1" fill="none" stroke-linejoin="round" filter-blend-mode="normal" stroke="#ffffff" shape-rendering="auto"/>
 <path d="M 135.5 102.09961 L 135.5 141 L 96 141 L 96 164.30078 L 135 164.30078 L 135 308.30078 L 100.5 308.30078 L 100.5 354.90039 L 123.80078 354.90039 L 123.80078 489.90039 L 370.80078 489.90039 L 370.80078 354.90039 L 398.69922 354.90039 L 398.69922 308.30078 L 366 309 L 366 165 L 404.59961 165 L 404.59961 260 L 427.90039 260 L 427.90039 253.59961 L 500.69922 253.59961 L 500.34961 230.15039 L 428 230 L 428 141 L 366.09961 141 L 366.09961 104 L 334.40039 104 L 334.40039 141 L 290 141 L 290 124.40039 L 219.19922 124.40039 L 219.19922 141 L 167.19922 141 L 167.19922 102.09961 L 135.5 102.09961 z M 218.69922 164.30078 L 218.69922 173.80078 L 226.40039 173.80078 L 226.40039 308.80078 L 166.40039 308.80078 L 166.55078 164.55078 L 218.69922 164.30078 z M 288.40039 164.30078 L 332.40039 164.30078 L 332.90039 308.55078 L 237.40039 308.80078 L 237.40039 173.80078 L 288.40039 173.80078 L 288.40039 164.30078 z " id="path4138" fill="#c9820d"/>
</svg>
