<?xml version="1.0" encoding="UTF-8" standalone="no"?>
<svg xmlns="http://www.w3.org/2000/svg" version="1.0" width="580" height="580">
 <metadata id="metadata10"/>
 <path id="path1034" d="m 207.79026,158.53946 h -76.45347 l 31.11657,18.04302 -19.11337,32.87499 c -3.23774,6.15792 -2.94389,13.22789 0,18.80756 l 30.27557,52.75289 c 1.37617,-3.82267 2.75233,-7.11017 4.1285,-9.86249 l 37.46219,-64.98546 30.61962,18.46352 z" opacity="0.8" paint-order="stroke fill markers" fill="none" stroke="#ffffff" vector-effect="none" stroke-linejoin="round" stroke-width="66.6"/>
 <path id="path1036" d="m 192.65247,305.17722 c 4.51077,4.35785 9.86251,6.575 16.05524,6.575 h 75.68894 v -61.16278 h -79.51161 c -5.1851,9.14292 -9.72475,16.88365 -15.59651,27.06453 -5.49253,9.43387 -3.41906,20.78259 3.36394,27.52325 z" opacity="0.8" paint-order="stroke fill markers" fill="none" stroke="#ffffff" vector-effect="none" stroke-linejoin="round" stroke-width="66.6"/>
 <path id="path1038" d="m 291.04809,126.19964 h 76.45348 l 38.22674,-66.514521 -31.11657,18.04302 -19.11337,-32.874993 c -4.12848,-5.581103 -9.48023,-8.639243 -16.36103,-8.639243 h -60.39825 c 2.44651,2.752326 4.51075,5.428197 6.11628,8.180523 l 37.23284,64.985444 z" opacity="0.8" paint-order="stroke fill markers" fill="none" stroke="#ffffff" vector-effect="none" stroke-linejoin="round" stroke-width="66.6"/>
 <path id="path1040" d="m 233.8609,50.740063 -38.07383,65.749987 c 14.44971,8.40989 32.03401,18.57819 52.7529,30.27557 12.23255,-21.0247 25.53545,-43.57848 39.67935,-68.80812 L 273.38735,50.740063 c -4.35785,-7.645347 -10.93285,-11.46802 -19.76323,-11.46802 -8.83037,0 -15.40538,3.822673 -19.76322,11.46802 z" opacity="0.8" paint-order="stroke fill markers" fill="none" stroke="#ffffff" vector-effect="none" stroke-linejoin="round" stroke-width="66.6"/>
 <path id="path1042" d="m 351.59925,214.73276 -38.07383,66.51452 38.07383,65.74999 v -35.62732 h 38.07382 c 7.33954,0 12.92064,-3.13459 16.74332,-9.40378 l 30.27557,-52.75289 c -4.12848,1.07035 -7.49244,1.60552 -10.24476,1.60552 l -74.88618,-0.45872 c 0.0714,-11.8756 0.0382,-23.75155 0.0382,-35.62732 z" opacity="0.8" paint-order="stroke fill markers" fill="none" stroke="#ffffff" vector-effect="none" stroke-linejoin="round" stroke-width="66.6"/>
 <path id="path1044" d="m 355.26901,168.3255 c 16.81977,29.05233 30.27558,51.98837 40.52035,69.57266 h 30.58139 c 9.0215,0 15.67296,-3.82267 19.87789,-11.46802 4.12849,-7.33953 3.97558,-14.83197 -0.38226,-22.47732 l -37.65333,-65.82643 c -1.5673,0.76453 -19.1516,10.85638 -52.94404,30.19911 z" opacity="0.8" paint-order="stroke fill markers" fill="none" stroke="#ffffff" vector-effect="none" stroke-linejoin="round" stroke-width="66.6"/>
 <path id="path1046" d="m 137.1532,363.52527 c -26.24829,1.02014 -55.015984,21.3418 -80.680346,22.5604 -0.466875,0 -0.931274,0 -1.396591,0 v 53.76901 c 0.465473,0 0.929545,0.0608 1.396591,0.053 25.664362,-1.01142 54.432056,-21.84869 80.680346,-22.56041 25.56741,-1.01374 48.41726,17.8577 74.18079,18.26317 26.15131,0.20702 52.68243,-17.05111 80.68034,-16.5444 27.60786,0.4033 55.71143,19.2196 83.90324,19.12272 27.70482,-0.61032 53.95628,-20.63881 82.82896,-20.84149 21.32766,-0.0716 44.2472,10.52823 66.17721,16.32944 v -53.93009 c -21.93001,-5.75883 -44.84956,-16.22209 -66.17721,-16.22209 -28.87267,0.205 -55.12416,20.23115 -82.82896,20.84147 -28.1918,0.0996 -56.29539,-18.6635 -83.90324,-19.06881 -27.99787,-0.70953 -54.52902,16.64393 -80.68034,16.43676 -25.76135,-0.50439 -48.61338,-19.02021 -74.18079,-18.20926 z" opacity="0.8" paint-order="stroke fill markers" fill="none" fill-rule="evenodd" stroke="#ffffff" vector-effect="none" stroke-width="66.6"/>
 <path id="path1048" d="m 139.57038,463.86529 c -0.79383,-0.0156 -1.61822,0.028 -2.41718,0.053 -26.24829,1.01359 -55.015984,21.28386 -80.680346,22.50681 -0.466875,0 -0.931274,0 -1.396591,0 v 53.82257 c 0.465301,0 0.929716,0 1.396591,0 25.664362,-1.22295 54.432056,-21.5468 80.680346,-22.56039 25.56741,-0.81314 48.41726,17.70268 74.18079,18.20955 26.15131,0.20267 52.68243,-17.14861 80.68034,-16.43689 27.60786,0.40765 55.71143,19.17238 83.90324,19.06896 27.70482,-0.60611 53.95628,-20.64333 82.82896,-20.84162 21.32766,0 44.2472,10.46434 66.17721,16.22209 v -53.76902 c -21.93098,-5.75743 -44.84856,-16.22195 -66.17721,-16.22195 -28.87267,0.20484 -55.12416,20.18179 -82.82896,20.78774 -28.1918,0.10276 -56.29539,-18.66115 -83.90324,-19.06881 -27.99787,-0.71186 -54.52902,16.63957 -80.68034,16.43675 -24.95631,-0.49083 -47.1546,-17.86422 -71.76361,-18.20941 z" opacity="0.8" paint-order="stroke fill markers" fill="none" fill-rule="evenodd" stroke="#ffffff" vector-effect="none" stroke-width="66.6"/>
 <path d="m 207.79026,158.53946 h -76.45347 l 31.11657,18.04302 -19.11337,32.87499 c -3.23774,6.15792 -2.94389,13.22789 0,18.80756 l 30.27557,52.75289 c 1.37617,-3.82267 2.75233,-7.11017 4.1285,-9.86249 l 37.46219,-64.98546 30.61962,18.46352 z" id="path4144" fill="#256f25" stroke-width="0.76"/>
 <path d="m 192.65247,305.17722 c 4.51077,4.35785 9.86251,6.575 16.05524,6.575 h 75.68894 v -61.16278 h -79.51161 c -5.1851,9.14292 -9.72475,16.88365 -15.59651,27.06453 -5.49253,9.43387 -3.41906,20.78259 3.36394,27.52325 z" id="path4142" fill="#256f25" stroke-width="0.76"/>
 <path d="m 291.04809,126.19964 h 76.45348 l 38.22674,-66.514521 -31.11657,18.04302 -19.11337,-32.874993 c -4.12848,-5.581103 -9.48023,-8.639243 -16.36103,-8.639243 h -60.39825 c 2.44651,2.752326 4.51075,5.428197 6.11628,8.180523 l 37.23284,64.985444 z" id="path4140" fill="#256f25" stroke-width="0.76"/>
 <path d="m 233.8609,50.740063 -38.07383,65.749987 c 14.44971,8.40989 32.03401,18.57819 52.7529,30.27557 12.23255,-21.0247 25.53545,-43.57848 39.67935,-68.80812 L 273.38735,50.740063 c -4.35785,-7.645347 -10.93285,-11.46802 -19.76323,-11.46802 -8.83037,0 -15.40538,3.822673 -19.76322,11.46802 z" id="path4138" fill="#256f25" stroke-width="0.76"/>
 <path d="m 351.59925,214.73276 -38.07383,66.51452 38.07383,65.74999 v -35.62732 h 38.07382 c 7.33954,0 12.92064,-3.13459 16.74332,-9.40378 l 30.27557,-52.75289 c -4.12848,1.07035 -7.49244,1.60552 -10.24476,1.60552 l -74.88618,-0.45872 c 0.0714,-11.8756 0.0382,-23.75155 0.0382,-35.62732 z" id="path4136" fill="#256f25" stroke-width="0.76"/>
 <path d="m 355.26901,168.3255 c 16.81977,29.05233 30.27558,51.98837 40.52035,69.57266 h 30.58139 c 9.0215,0 15.67296,-3.82267 19.87789,-11.46802 4.12849,-7.33953 3.97558,-14.83197 -0.38226,-22.47732 l -37.65333,-65.82643 c -1.5673,0.76453 -19.1516,10.85638 -52.94404,30.19911 z" id="flowRoot3192" fill="#256f25" stroke-width="0.76"/>
 <path d="m 137.1532,363.52527 c -26.24829,1.02014 -55.015984,21.3418 -80.680346,22.5604 -0.466875,0 -0.931274,0 -1.396591,0 v 53.76901 c 0.465473,0 0.929545,0.0608 1.396591,0.053 25.664362,-1.01142 54.432056,-21.84869 80.680346,-22.56041 25.56741,-1.01374 48.41726,17.8577 74.18079,18.26317 26.15131,0.20702 52.68243,-17.05111 80.68034,-16.5444 27.60786,0.4033 55.71143,19.2196 83.90324,19.12272 27.70482,-0.61032 53.95628,-20.63881 82.82896,-20.84149 21.32766,-0.0716 44.2472,10.52823 66.17721,16.32944 v -53.93009 c -21.93001,-5.75883 -44.84956,-16.22209 -66.17721,-16.22209 -28.87267,0.205 -55.12416,20.23115 -82.82896,20.84147 -28.1918,0.0996 -56.29539,-18.6635 -83.90324,-19.06881 -27.99787,-0.70953 -54.52902,16.64393 -80.68034,16.43676 -25.76135,-0.50439 -48.61338,-19.02021 -74.18079,-18.20926 z" id="path113-0" fill="#256f25" fill-rule="evenodd" stroke-width="1.72"/>
 <path d="m 139.57038,463.86529 c -0.79383,-0.0156 -1.61822,0.028 -2.41718,0.053 -26.24829,1.01359 -55.015984,21.28386 -80.680346,22.50681 -0.466875,0 -0.931274,0 -1.396591,0 v 53.82257 c 0.465301,0 0.929716,0 1.396591,0 25.664362,-1.22295 54.432056,-21.5468 80.680346,-22.56039 25.56741,-0.81314 48.41726,17.70268 74.18079,18.20955 26.15131,0.20267 52.68243,-17.14861 80.68034,-16.43689 27.60786,0.40765 55.71143,19.17238 83.90324,19.06896 27.70482,-0.60611 53.95628,-20.64333 82.82896,-20.84162 21.32766,0 44.2472,10.46434 66.17721,16.22209 v -53.76902 c -21.93098,-5.75743 -44.84856,-16.22195 -66.17721,-16.22195 -28.87267,0.20484 -55.12416,20.18179 -82.82896,20.78774 -28.1918,0.10276 -56.29539,-18.66115 -83.90324,-19.06881 -27.99787,-0.71186 -54.52902,16.63957 -80.68034,16.43675 -24.95631,-0.49083 -47.1546,-17.86422 -71.76361,-18.20941 z" id="path121-6" fill="#256f25" fill-rule="evenodd" stroke-width="1.72"/>
</svg>
