<?xml version="1.0" encoding="UTF-8" standalone="no"?>
<svg xmlns="http://www.w3.org/2000/svg" version="1.0" width="580" height="580">
 <metadata id="metadata1976"/>
 <path id="path826" d="m 151.16213,458.1012 c -15.2412,0.23815 -28.93448,-11.07369 -42.3896,-11.19275 -13.574205,-0.23815 -28.577249,8.33503 -37.864881,10.24018 -9.168515,1.667 -14.883976,1.90513 -17.027244,0.47628 v 31.55405 c 2.143268,1.30981 7.977784,1.19074 17.027244,-0.47628 9.168567,-1.90515 24.290676,-10.47832 37.864881,-10.24018 13.45512,0.1191 27.1484,11.43091 42.3896,11.19277 15.12212,-0.59538 31.91127,-12.85977 47.39061,-13.09792 15.00306,-0.59538 28.45819,10.47834 43.58034,10.71647 15.36026,0.1191 30.95869,-10.00204 47.39062,-9.7639 16.19377,0.23814 32.74476,11.31183 48.81947,11.19276 16.31287,-0.35722 31.67314,-12.14533 48.70043,-12.2644 17.02729,-0.11895 35.72158,11.4309 52.39164,11.78811 16.43191,0 33.34011,-10.83553 45.24732,-11.19276 11.78814,-0.47628 18.21799,7.14433 25.00512,8.69226 7.02521,1.54793 12.2644,1.66699 16.43191,0.47628 v -31.55406 c -4.04845,1.30981 -9.4067,1.07167 -16.43191,-0.47629 -7.02526,-1.667 -13.57421,-9.16852 -25.00512,-8.69222 -11.90719,0.47627 -29.05355,11.19274 -45.24732,11.19274 -16.67006,-0.35721 -35.36438,-11.66904 -52.39164,-11.66904 -16.9082,0.11909 -32.14942,11.90719 -48.70043,12.2644 -16.55099,0.11896 -33.102,-10.95461 -48.81947,-11.19275 -16.43191,-0.47629 -32.03035,9.76389 -47.39062,9.64483 -14.64583,-0.23816 -27.74375,-10.47834 -42.15146,-10.71648 -19.54503,-0.43019 -32.52839,12.03466 -48.81949,13.0979 z" opacity="0.8" fill="none" stroke="#ffffff" vector-effect="none" stroke-linejoin="round" stroke-width="64"/>
 <path id="path828" d="m 151.16214,510.49285 c -15.24119,0.23812 -28.93447,-11.07371 -42.38959,-11.19275 -13.574205,-0.23816 -28.577258,8.33502 -37.86487,10.24018 -9.168526,1.90515 -14.884007,1.78607 -17.027275,0.47628 v 31.55405 c 2.143268,1.30978 7.977794,1.30978 17.027275,-0.47629 9.168536,-1.90515 24.290675,-10.47832 37.86487,-10.24018 13.45511,0.11909 27.1484,11.4309 42.38959,11.19275 15.12214,-0.71443 31.91128,-12.6216 47.39063,-13.0979 15.00306,-0.47629 28.45818,10.35926 43.58031,10.71648 15.36029,0.11894 30.95868,-10.12111 47.39062,-9.64483 16.1938,0.23814 32.74476,11.31182 48.81947,11.19276 16.31287,-0.35722 31.67314,-12.14533 48.70043,-12.26441 17.02729,0 35.72158,11.31183 52.39164,11.66905 16.43191,0 33.34014,-10.83556 45.24732,-11.19275 11.78814,-0.4763 18.21801,7.1443 25.00512,8.69223 7.02524,1.54795 12.2644,1.66703 16.43191,0.47629 v -31.55405 c -4.04844,1.07164 -9.40668,0.95257 -16.43191,-0.47628 -7.02526,-1.54793 -13.57419,-9.16855 -25.00512,-8.69226 -11.90719,0.47629 -29.05353,11.19276 -45.24732,11.19276 -16.67006,-0.3572 -35.36438,-11.66905 -52.39164,-11.66905 -16.9082,0.11895 -32.14942,11.90719 -48.70043,12.26442 -16.55096,0.11894 -33.10197,-10.95463 -48.81947,-11.19277 -16.43191,-0.47629 -32.03033,9.76389 -47.39062,9.64482 -14.64585,-0.23815 -27.74375,-10.47834 -42.15146,-10.71647 -19.545,-0.43018 -32.5284,12.03468 -48.81948,13.09792 z" opacity="0.8" fill="none" stroke="#ffffff" vector-effect="none" stroke-linejoin="round" stroke-width="64"/>
 <path id="path830" d="M 97.746855,229.75321 C 97.746735,123.57448 183.82162,37.499588 290.00039,37.49969 396.17884,37.499995 482.25326,123.57477 482.25312,229.75321 482.25287,335.93137 396.17855,422.00569 290.00039,422.006 183.82193,422.00612 97.747145,335.93167 97.746855,229.75321 Z m 34.476005,-59.80374 29.997,-8.16515 c 0,0 2.77587,-11.98985 16.18846,-27.84012 13.41262,-15.85026 21.87389,-20.31983 21.87389,-20.31983 l -4.87573,-25.303293 c 0,0 -24.09918,12.709993 -40.60777,34.971473 -16.50858,22.26149 -22.57585,46.65692 -22.57585,46.65692 z m 10.68374,137.68561 c 0,0 22.94166,43.89863 65.35796,61.91807 50.56547,21.48137 93.93818,19.96438 93.93818,19.96438 0,0 -21.79449,-46.51544 -37.44827,-79.3675 -16.33941,-34.29099 -42.72301,-105.64272 -42.72301,-105.64272 0,0 -10.6126,10.87503 -28.45504,12.01966 -7.65234,0.49093 -20.48192,-4.25162 -20.48192,-4.25162 0,0 -12.47436,32.06018 -20.97298,61.36565 -8.49864,29.3055 -9.21491,33.99408 -9.21492,33.99408 z M 253.10282,110.517 c 0,0 3.40591,10.27701 4.6607,15.53605 3.05985,12.8246 1.55404,24.07962 1.55404,24.07962 0,0 63.62088,2.55476 94.76734,8.54506 35.55741,6.83863 92.18631,27.82524 92.18631,27.82524 0,0 -12.61515,-44.18947 -52.28474,-81.20855 -39.48879,-36.85041 -68.70021,-38.137963 -68.70021,-38.137963 0,0 -8.62023,2.44393 -33.34404,16.1736 C 267.21841,97.059725 253.10284,110.517 253.10282,110.517 Z" mix-blend-mode="normal" solid-color="#000000" opacity="0.8" color-interpolation-filters="linearRGB" vector-effect="none" color="#000000" image-rendering="auto" color-rendering="auto" fill-rule="evenodd" stroke-width="64" isolation="auto" color-interpolation="sRGB" solid-opacity="1" fill="none" stroke-linejoin="round" stroke="#ffffff" shape-rendering="auto"/>
 <path d="m 151.16213,458.1012 c -15.2412,0.23815 -28.93448,-11.07369 -42.3896,-11.19275 -13.574205,-0.23815 -28.577249,8.33503 -37.864881,10.24018 -9.168515,1.667 -14.883976,1.90513 -17.027244,0.47628 v 31.55405 c 2.143268,1.30981 7.977784,1.19074 17.027244,-0.47628 9.168567,-1.90515 24.290676,-10.47832 37.864881,-10.24018 13.45512,0.1191 27.1484,11.43091 42.3896,11.19277 15.12212,-0.59538 31.91127,-12.85977 47.39061,-13.09792 15.00306,-0.59538 28.45819,10.47834 43.58034,10.71647 15.36026,0.1191 30.95869,-10.00204 47.39062,-9.7639 16.19377,0.23814 32.74476,11.31183 48.81947,11.19276 16.31287,-0.35722 31.67314,-12.14533 48.70043,-12.2644 17.02729,-0.11895 35.72158,11.4309 52.39164,11.78811 16.43191,0 33.34011,-10.83553 45.24732,-11.19276 11.78814,-0.47628 18.21799,7.14433 25.00512,8.69226 7.02521,1.54793 12.2644,1.66699 16.43191,0.47628 v -31.55406 c -4.04845,1.30981 -9.4067,1.07167 -16.43191,-0.47629 -7.02526,-1.667 -13.57421,-9.16852 -25.00512,-8.69222 -11.90719,0.47627 -29.05355,11.19274 -45.24732,11.19274 -16.67006,-0.35721 -35.36438,-11.66904 -52.39164,-11.66904 -16.9082,0.11909 -32.14942,11.90719 -48.70043,12.2644 -16.55099,0.11896 -33.102,-10.95461 -48.81947,-11.19275 -16.43191,-0.47629 -32.03035,9.76389 -47.39062,9.64483 -14.64583,-0.23816 -27.74375,-10.47834 -42.15146,-10.71648 -19.54503,-0.43019 -32.52839,12.03466 -48.81949,13.0979 z" id="path4151" fill="#39ac39" vector-effect="none" stroke-width="1.34"/>
 <path d="m 151.16214,510.49285 c -15.24119,0.23812 -28.93447,-11.07371 -42.38959,-11.19275 -13.574205,-0.23816 -28.577258,8.33502 -37.86487,10.24018 -9.168526,1.90515 -14.884007,1.78607 -17.027275,0.47628 v 31.55405 c 2.143268,1.30978 7.977794,1.30978 17.027275,-0.47629 9.168536,-1.90515 24.290675,-10.47832 37.86487,-10.24018 13.45511,0.11909 27.1484,11.4309 42.38959,11.19275 15.12214,-0.71443 31.91128,-12.6216 47.39063,-13.0979 15.00306,-0.47629 28.45818,10.35926 43.58031,10.71648 15.36029,0.11894 30.95868,-10.12111 47.39062,-9.64483 16.1938,0.23814 32.74476,11.31182 48.81947,11.19276 16.31287,-0.35722 31.67314,-12.14533 48.70043,-12.26441 17.02729,0 35.72158,11.31183 52.39164,11.66905 16.43191,0 33.34014,-10.83556 45.24732,-11.19275 11.78814,-0.4763 18.21801,7.1443 25.00512,8.69223 7.02524,1.54795 12.2644,1.66703 16.43191,0.47629 v -31.55405 c -4.04844,1.07164 -9.40668,0.95257 -16.43191,-0.47628 -7.02526,-1.54793 -13.57419,-9.16855 -25.00512,-8.69226 -11.90719,0.47629 -29.05353,11.19276 -45.24732,11.19276 -16.67006,-0.3572 -35.36438,-11.66905 -52.39164,-11.66905 -16.9082,0.11895 -32.14942,11.90719 -48.70043,12.26442 -16.55096,0.11894 -33.10197,-10.95463 -48.81947,-11.19277 -16.43191,-0.47629 -32.03033,9.76389 -47.39062,9.64482 -14.64585,-0.23815 -27.74375,-10.47834 -42.15146,-10.71647 -19.545,-0.43018 -32.5284,12.03468 -48.81948,13.09792 z" id="path4149" fill="#39ac39" vector-effect="none" stroke-width="1.34"/>
 <path d="M 97.746855,229.75321 C 97.746735,123.57448 183.82162,37.499588 290.00039,37.49969 396.17884,37.499995 482.25326,123.57477 482.25312,229.75321 482.25287,335.93137 396.17855,422.00569 290.00039,422.006 183.82193,422.00612 97.747145,335.93167 97.746855,229.75321 Z m 34.476005,-59.80374 29.997,-8.16515 c 0,0 2.77587,-11.98985 16.18846,-27.84012 13.41262,-15.85026 21.87389,-20.31983 21.87389,-20.31983 l -4.87573,-25.303293 c 0,0 -24.09918,12.709993 -40.60777,34.971473 -16.50858,22.26149 -22.57585,46.65692 -22.57585,46.65692 z m 10.68374,137.68561 c 0,0 22.94166,43.89863 65.35796,61.91807 50.56547,21.48137 93.93818,19.96438 93.93818,19.96438 0,0 -21.79449,-46.51544 -37.44827,-79.3675 -16.33941,-34.29099 -42.72301,-105.64272 -42.72301,-105.64272 0,0 -10.6126,10.87503 -28.45504,12.01966 -7.65234,0.49093 -20.48192,-4.25162 -20.48192,-4.25162 0,0 -12.47436,32.06018 -20.97298,61.36565 -8.49864,29.3055 -9.21491,33.99408 -9.21492,33.99408 z M 253.10282,110.517 c 0,0 3.40591,10.27701 4.6607,15.53605 3.05985,12.8246 1.55404,24.07962 1.55404,24.07962 0,0 63.62088,2.55476 94.76734,8.54506 35.55741,6.83863 92.18631,27.82524 92.18631,27.82524 0,0 -12.61515,-44.18947 -52.28474,-81.20855 -39.48879,-36.85041 -68.70021,-38.137963 -68.70021,-38.137963 0,0 -8.62023,2.44393 -33.34404,16.1736 C 267.21841,97.059725 253.10284,110.517 253.10282,110.517 Z" id="path4857" mix-blend-mode="normal" solid-color="#000000" color-interpolation-filters="linearRGB" vector-effect="none" color="#000000" image-rendering="auto" color-rendering="auto" fill-rule="evenodd" isolation="auto" color-interpolation="sRGB" solid-opacity="1" fill="#39ac39" shape-rendering="auto"/>
</svg>
