<?xml version="1.0" encoding="UTF-8" standalone="no"?>
<svg xmlns="http://www.w3.org/2000/svg" version="1.0" width="580" height="580">
 <metadata id="metadata2975"/>
 <path id="path988" d="M 75.734004,451.30924 C 122.92594,425.23746 179.819,406.84574 225.29303,419.98269 c 46.38352,14.14747 84.88489,48.10141 132.37997,57.60043 54.36673,13.13695 111.15878,-1.61686 159.66441,-26.27388 -6.0632,-17.38119 -15.46116,-35.3687 -17.78539,-43.04874 -43.3519,16.87591 -98.02183,30.316 -138.44319,18.89697 -66.69525,-24.35386 -107.11663,-56.69095 -169.76973,-62.75415 -48.50565,0.70737 -97.011272,19.70541 -137.432629,45.47402 2.223174,7.88217 17.58329,36.37923 21.827533,41.4319 z" mix-blend-mode="normal" solid-color="#256f25" opacity="0.8" white-space="normal" color-interpolation-filters="linearRGB" vector-effect="none" color="#256f25" image-rendering="auto" color-rendering="auto" stroke-width="64" isolation="auto" color-interpolation="sRGB" solid-opacity="1" fill="none" stroke-linejoin="round" stroke="#ffffff" shape-rendering="auto"/>
 <path id="path990" d="M 206.64555,97.509428 52.580053,220.29496 H 83.39384 v 141.50122 c 0.749195,-0.37658 1.464533,-0.80046 2.217327,-1.17145 5.494777,-2.70791 11.084479,-5.26585 16.752943,-7.64968 5.66846,-2.38384 11.41715,-4.59423 17.22771,-6.60898 5.81057,-2.01475 11.68334,-3.83341 17.60445,-5.43409 5.92109,-1.60067 11.88993,-2.98342 17.88999,-4.12502 6.00004,-1.14159 12.03178,-2.04255 18.0792,-2.68005 6.04742,-0.6375 12.11062,-1.01079 18.17383,-1.0992 3.91581,0.37894 7.74378,0.8605 11.49775,1.43636 3.75398,0.57585 7.43297,1.24455 11.04879,2.00057 3.61582,0.75603 7.169,1.5989 10.67035,2.51837 3.50134,0.91947 6.95188,1.91662 10.36243,2.98281 6.82111,2.13238 13.48491,4.54053 20.08496,7.15943 0.2789,0.11068 0.55388,0.24467 0.83257,0.35608 -11.41499,-21.28525 -17.70896,-45.33797 -17.72313,-70.26981 0.008,-44.05978 19.52445,-85.85489 53.30357,-114.1433 z" opacity="0.8" fill="none" fill-rule="evenodd" stroke="#ffffff" vector-effect="none" stroke-linejoin="round" stroke-width="64"/>
 <path id="path992" d="m 400.60744,153.22298 a 126.81147,126.81147 0 0 0 -126.81079,126.81251 126.81147,126.81147 0 0 0 48.31502,99.57156 c 4.96836,2.25317 9.88741,4.51433 15.12392,6.73454 7.61059,3.22681 15.53591,6.39618 23.87282,9.44041 2.52634,0.71369 5.10945,1.32966 7.74086,1.85437 2.63141,0.52471 5.31102,0.95771 8.03502,1.30391 2.72399,0.34618 5.49237,0.60455 8.29648,0.78268 2.80411,0.17813 5.64493,0.27535 8.51666,0.29588 5.74347,0.041 11.60861,-0.2217 17.54768,-0.74829 5.93906,-0.52658 11.95153,-1.31689 17.98631,-2.32742 6.03479,-1.01053 12.0933,-2.24117 18.12394,-3.65196 6.03064,-1.4108 12.03389,-3.00143 17.96052,-4.72881 0.4159,-0.12122 0.81308,-0.2662 1.22822,-0.38876 A 126.81147,126.81147 0 0 0 527.41995,280.03549 126.81147,126.81147 0 0 0 400.60744,153.22298 Z m 0,45.21179 a 81.600436,81.600436 0 0 1 51.55585,18.41809 l -46.32991,31.1131 -34.06322,-44.22611 a 81.600436,81.600436 0 0 1 28.83728,-5.30508 z m -66.38563,34.26105 32.16587,41.76281 -43.74963,29.38259 a 81.600436,81.600436 0 0 1 -3.63133,-23.80573 81.600436,81.600436 0 0 1 15.21509,-47.33967 z m 144.35503,23.53394 a 81.600436,81.600436 0 0 1 3.63132,23.80573 81.600436,81.600436 0 0 1 -15.2151,47.33967 l -32.16413,-41.76281 z m -83.19362,55.87526 34.06322,44.22611 a 81.600436,81.600436 0 0 1 -28.839,5.30336 81.600436,81.600436 0 0 1 -51.55413,-18.41637 z" opacity="0.8" fill="none" stroke="#ffffff" vector-effect="none" stroke-linejoin="round" stroke-width="64"/>
 <path d="M 75.734004,451.30924 C 122.92594,425.23746 179.819,406.84574 225.29303,419.98269 c 46.38352,14.14747 84.88489,48.10141 132.37997,57.60043 54.36673,13.13695 111.15878,-1.61686 159.66441,-26.27388 -6.0632,-17.38119 -15.46116,-35.3687 -17.78539,-43.04874 -43.3519,16.87591 -98.02183,30.316 -138.44319,18.89697 -66.69525,-24.35386 -107.11663,-56.69095 -169.76973,-62.75415 -48.50565,0.70737 -97.011272,19.70541 -137.432629,45.47402 2.223174,7.88217 17.58329,36.37923 21.827533,41.4319 z" id="path3236" fill="#256f25" isolation="auto" color-rendering="auto" white-space="normal" solid-opacity="1" mix-blend-mode="normal" color-interpolation-filters="linearRGB" shape-rendering="auto" image-rendering="auto" color-interpolation="sRGB" color="#256f25" solid-color="#256f25"/>
 <path d="M 206.64555,97.509428 52.580053,220.29496 H 83.39384 v 141.50122 c 0.749195,-0.37658 1.464533,-0.80046 2.217327,-1.17145 5.494777,-2.70791 11.084479,-5.26585 16.752943,-7.64968 5.66846,-2.38384 11.41715,-4.59423 17.22771,-6.60898 5.81057,-2.01475 11.68334,-3.83341 17.60445,-5.43409 5.92109,-1.60067 11.88993,-2.98342 17.88999,-4.12502 6.00004,-1.14159 12.03178,-2.04255 18.0792,-2.68005 6.04742,-0.6375 12.11062,-1.01079 18.17383,-1.0992 3.91581,0.37894 7.74378,0.8605 11.49775,1.43636 3.75398,0.57585 7.43297,1.24455 11.04879,2.00057 3.61582,0.75603 7.169,1.5989 10.67035,2.51837 3.50134,0.91947 6.95188,1.91662 10.36243,2.98281 6.82111,2.13238 13.48491,4.54053 20.08496,7.15943 0.2789,0.11068 0.55388,0.24467 0.83257,0.35608 -11.41499,-21.28525 -17.70896,-45.33797 -17.72313,-70.26981 0.008,-44.05978 19.52445,-85.85489 53.30357,-114.1433 z" id="path645-1" fill="#256f25" fill-rule="evenodd" stroke-width="0.87"/>
 <path d="m 400.60744,153.22298 a 126.81147,126.81147 0 0 0 -126.81079,126.81251 126.81147,126.81147 0 0 0 48.31502,99.57156 c 4.96836,2.25317 9.88741,4.51433 15.12392,6.73454 7.61059,3.22681 15.53591,6.39618 23.87282,9.44041 2.52634,0.71369 5.10945,1.32966 7.74086,1.85437 2.63141,0.52471 5.31102,0.95771 8.03502,1.30391 2.72399,0.34618 5.49237,0.60455 8.29648,0.78268 2.80411,0.17813 5.64493,0.27535 8.51666,0.29588 5.74347,0.041 11.60861,-0.2217 17.54768,-0.74829 5.93906,-0.52658 11.95153,-1.31689 17.98631,-2.32742 6.03479,-1.01053 12.0933,-2.24117 18.12394,-3.65196 6.03064,-1.4108 12.03389,-3.00143 17.96052,-4.72881 0.4159,-0.12122 0.81308,-0.2662 1.22822,-0.38876 A 126.81147,126.81147 0 0 0 527.41995,280.03549 126.81147,126.81147 0 0 0 400.60744,153.22298 Z m 0,45.21179 a 81.600436,81.600436 0 0 1 51.55585,18.41809 l -46.32991,31.1131 -34.06322,-44.22611 a 81.600436,81.600436 0 0 1 28.83728,-5.30508 z m -66.38563,34.26105 32.16587,41.76281 -43.74963,29.38259 a 81.600436,81.600436 0 0 1 -3.63133,-23.80573 81.600436,81.600436 0 0 1 15.21509,-47.33967 z m 144.35503,23.53394 a 81.600436,81.600436 0 0 1 3.63132,23.80573 81.600436,81.600436 0 0 1 -15.2151,47.33967 l -32.16413,-41.76281 z m -83.19362,55.87526 34.06322,44.22611 a 81.600436,81.600436 0 0 1 -28.839,5.30336 81.600436,81.600436 0 0 1 -51.55413,-18.41637 z" id="path837" fill="#256f25" vector-effect="none"/>
</svg>
