<?xml version="1.0" encoding="UTF-8" standalone="no"?>
<svg xmlns="http://www.w3.org/2000/svg" width="580" height="580" version="1.0">
 <metadata id="metadata7"/>
 <path d="m 282.59961,35.300781 c -57.25297,0 -114.15158,2.378427 -142.50391,7.136719 -10.21074,-2.519652 -16.39648,-3.537109 -16.39648,-3.537109 -6.6,-1.2 -12.9,3.198828 -14,9.798828 -1.1,6.6 3.4,12.800781 10,13.800781 0,0 36,6.200391 79,26.400391 -18.5,78.999999 -30.99844,176.999999 -38.89844,244.999999 -52.8,7.6 -87.999999,22.79922 -107.999999,44.69922 C 31.900781,400.59961 31.8,430.6 47.5,455.5 c 31.8,49 119,88 241,89 123,0.9 211,-37 241,-88 15.3,-25 13.40078,-56.00039 -8.19922,-77.90039 -21.3,-21.9 -58.7,-37.00039 -114,-44.90039 -7.6,-68 -20.40039,-166 -38.90039,-245.000001 43,-20 71.55485,-24.201702 79,-26.398438 14.67131,-4.328854 13.00554,-24.557654 -3.10156,-23.080078 -0.23491,0.02155 -5.90855,1.069873 -15.34961,3.519531 -29.16292,-4.957148 -87.91255,-7.439453 -146.34961,-7.439453 z" id="path4137" mix-blend-mode="normal" solid-color="#000000" opacity="0.8" color-interpolation-filters="linearRGB" filter-gaussianBlur-deviation="0" color="#000000" image-rendering="auto" color-rendering="auto" stroke-width="64" isolation="auto" color-interpolation="sRGB" solid-opacity="1" fill="none" stroke-linejoin="round" filter-blend-mode="normal" stroke="#ffffff" shape-rendering="auto"/>
 <path id="path3854-8" d="m 213,82.8 c -7.7,22.5 -29,208 -48,264 -210,29 -114,185 125,187 241,1.8 337,-158 115,-187 -14.6,-56 -43,-236 -48,-264 48,-24 90,-31 90,-31 21,-22 -351.4,-22 -324,0 0,0 42,7 90,31 z" fill="#ffffff" stroke-linejoin="round" stroke-linecap="round"/>
 <path white-space="normal" isolation="auto" mix-blend-mode="normal" d="m 364,65.6 -1.9,-6 c -2,-6.2 -8.6,-9.7 -14.8,-7.8 -6.2,1.8 -9.9,8.3 -8.2,14.6 35.5,130 54,353 54,353 0.6,5.5 6.1,10.2 11,11 7.1,0.5 12.7,-6.3 13,-12 l 0,-58 c 45.9,7.7 75,21.6 89,36 15.3,15.8 16,30.5 4.9,48.7 -22,36.4 -103,77 -221,76 -117,-0.7 -198,-40.7 -221,-78 -12,-18 -12,-32 2,-48 12,-13 39,-27 81,-35 l 0,57.9 c 0.4,6.5 5.6,11.4 11.3,12 6.9,0.5 12,-5.1 12.6,-8.3 0.3,-4.2 18.4,-226 53.7,-356 1.7,-6.3 -2,-12.8 -8.2,-14.6 -6.2,-1.8 -12.8,1.6 -14.8,7.8 l -1.9,6 c -44,-20 -81,-26 -81,-26 -6.6,-1.2 -12.9,3.2 -14,9.8 -1.1,6.6 3.4,12.8 10,13.8 0,0 36,6.2 79,26.4 -18.5,79 -31,177 -38.9,245 -52.8,7.6 -88,22.8 -108,44.7 -19.9,22 -20,52 -4.3,76.9 31.8,49 119,88 241,89 123,0.9 211,-37 241,-88 15.3,-25 13.4,-56 -8.2,-77.9 -21.3,-21.9 -58.7,-37 -114,-44.9 -7.6,-68 -20.4,-166 -38.9,-245 43,-20 71.55485,-24.203264 79,-26.4 14.67131,-4.328854 13.00679,-24.5577 -3.10031,-23.080124 C 443.70381,39.274538 408.5,45.8 364,65.6 Z m -66.8,18.7 c 23.9,131 23.8,191 35.8,347 0.4,6.7 6.2,11.7 12.9,11.2 6.7,-0.5 11.6,-6.4 11,-13 -12.4,-156 -12.4,-217 -36,-350 -1,-5.6 -5.8,-9.8 -11.7,-9.75 -7.8,0.25 -13.5,7.15 -12,14.55 z M 250,79.5 c -24,133 -24,194 -36,349 -0.6,6.7 4.4,12.5 11,13 6.7,0.5 12.5,-4.5 12.9,-11.2 12,-156 12,-215 35.8,-347 1.2,-7.5 -4.8,-14 -12.3,-13.85 -5.7,0.25 -10.5,4.45 -11.4,10.05 z m 35.4,209.9 c -6.6,0.1 -11.9,5.5 -11.8,12.2 l 0,140 c -0.1,6.7 5.3,12.2 12,12.2 6.7,0 12,-5.5 12,-12.2 l 0,-140 c 0.1,-6.8 -5.4,-12.3 -12.2,-12.2 z m -182,147.9 c 5.8,16.5 21,27 40,35 37.8,16.3 95,23.5 151,23.5 57,0 112,-7 147,-23.6 17.6,-8.3 32,-19.9 34.6,-37 2.7,-17.3 -7.7,-34 -27,-50 -5.1,-4.3 -12.7,-3.7 -17,1.4 -4.3,5.1 -3.5,12.8 1.6,17 16.5,13.7 19.6,23 18.8,28 -0.8,5.2 -6.9,12.4 -21,19 -28.5,13.4 -83,21.4 -137,21.4 -54,0 -110,-7.8 -142,-21.5 -15.9,-6.9 -24.8,-15 -27,-21 -2.1,-6 -1,-13.6 12.3,-26.9 7,-13.4 -1.2,-26 -16.3,-17.2 -16.7,16.7 -23.8,35.4 -18,51.9 z" id="path3854" fill="#666666" color-rendering="auto" solid-opacity="1" color-interpolation-filters="linearRGB" shape-rendering="auto" image-rendering="auto" color-interpolation="sRGB" color="#000000" solid-color="#000000"/>
</svg>
