<?xml version="1.0" encoding="UTF-8" standalone="no"?>
<svg xmlns="http://www.w3.org/2000/svg" width="580" height="580" version="1.0">
 <metadata id="metadata48"/>
 <path mix-blend-mode="normal" isolation="auto" id="path4138" d="m 129,383 322,0 0,131 -322,0 z" solid-color="#000000" opacity="0.8" color-interpolation-filters="linearRGB" filter-gaussianBlur-deviation="0" color="#000000" image-rendering="auto" color-rendering="auto" fill-rule="evenodd" stroke-width="64" color-interpolation="sRGB" solid-opacity="1" fill="none" stroke-linejoin="round" filter-blend-mode="normal" stroke="#ffffff" shape-rendering="auto"/>
 <path mix-blend-mode="normal" white-space="normal" isolation="auto" id="path4140" d="m 266,108.9 c 7.6,20.5 37,26 51.9,9.8 15.8,-15 9.4,-44.6 -11.2,-51.7 -3.6,-1.4 -7.6,-2.2 -11.6,-2.15 C 273.1,64 256.5,89.3 266,108.9 Z M 236,180 c 8.5,9.1 21.3,4.4 32,4.5 l 16.3,-1.1 c 6.2,25.8 11.8,51.8 18.3,78 -16.3,16.3 -33,32 -49,48.7 -7.7,11 -4.6,26.7 2,37 8.7,11.2 23.4,7.6 35.6,8 26.5,-0.4 53,-0.5 80,-1 16.8,-0.9 26.5,-22.8 16,-35.9 -7.2,-11 -20.9,-9.3 -32,-9.2 l -23.6,0.3 c 14.4,-12 29.5,-23.6 43.5,-36 8.2,-11 7.5,-26.5 4.5,-39 -6,-25.6 -11.7,-51 -18,-77 -7.3,-25.8 -42,-36.9 -62.9,-19.9 -4.9,7.2 -10.8,10.5 -19.3,9.7 l -21.4,1.5 c -12.4,-15.8 -24,-32 -36.8,-47.6 -3.1,-2.8 -7.3,-4.5 -11.3,-4.3 -14.6,-0.9 -24.3,18.6 -14.7,29.5 C 208.8,144 222,162 236,180 Z" solid-color="#000000" opacity="0.8" color-interpolation-filters="linearRGB" filter-gaussianBlur-deviation="0" color="#000000" image-rendering="auto" color-rendering="auto" fill-rule="evenodd" stroke-width="64" color-interpolation="sRGB" solid-opacity="1" fill="none" stroke-linejoin="round" filter-blend-mode="normal" stroke="#ffffff" shape-rendering="auto"/>
 <path d="m 129,383 322,0 0,131 -322,0 z" id="rect4204" isolation="auto" mix-blend-mode="normal" fill="#c9820d" color-rendering="auto" solid-opacity="1" color-interpolation-filters="linearRGB" shape-rendering="auto" fill-rule="evenodd" image-rendering="auto" color-interpolation="sRGB" color="#000000" solid-color="#000000"/>
 <path d="m 266,108.9 c 7.6,20.5 37,26 51.9,9.8 15.8,-15 9.4,-44.6 -11.2,-51.7 -3.6,-1.4 -7.6,-2.2 -11.6,-2.15 C 273.1,64 256.5,89.3 266,108.9 Z M 236,180 c 8.5,9.1 21.3,4.4 32,4.5 l 16.3,-1.1 c 6.2,25.8 11.8,51.8 18.3,78 -16.3,16.3 -33,32 -49,48.7 -7.7,11 -4.6,26.7 2,37 8.7,11.2 23.4,7.6 35.6,8 26.5,-0.4 53,-0.5 80,-1 16.8,-0.9 26.5,-22.8 16,-35.9 -7.2,-11 -20.9,-9.3 -32,-9.2 l -23.6,0.3 c 14.4,-12 29.5,-23.6 43.5,-36 8.2,-11 7.5,-26.5 4.5,-39 -6,-25.6 -11.7,-51 -18,-77 -7.3,-25.8 -42,-36.9 -62.9,-19.9 -4.9,7.2 -10.8,10.5 -19.3,9.7 l -21.4,1.5 c -12.4,-15.8 -24,-32 -36.8,-47.6 -3.1,-2.8 -7.3,-4.5 -11.3,-4.3 -14.6,-0.9 -24.3,18.6 -14.7,29.5 C 208.8,144 222,162 236,180 Z" id="path4059" isolation="auto" white-space="normal" mix-blend-mode="normal" fill="#c9820d" color-rendering="auto" solid-opacity="1" color-interpolation-filters="linearRGB" shape-rendering="auto" image-rendering="auto" color-interpolation="sRGB" color="#000000" solid-color="#000000"/>
 <path d="M 129 403 L 129 496 L 451 496 L 451 403 L 129 403 z M 137 438 L 176 438 L 176 457 L 137 457 L 137 438 z M 216 438 L 254 438 L 254 458 L 216 458 L 216 438 z M 293 439 L 332 439 L 332 458 L 293 458 L 293 439 z M 371 439 L 408 439 L 408 458 L 371 458 L 371 439 z " id="path4145" opacity="0.8" fill="#ffffff" isolation="auto" color-rendering="auto" solid-opacity="1" mix-blend-mode="normal" color-interpolation-filters="linearRGB" shape-rendering="auto" fill-rule="evenodd" image-rendering="auto" color-interpolation="sRGB" color="#000000" solid-color="#000000"/>
</svg>
