<?xml version="1.0" encoding="UTF-8" standalone="no"?>
<svg xmlns="http://www.w3.org/2000/svg" version="1.0" width="580" height="580">
 <metadata id="metadata2975"/>
 <path color="#000000" color-interpolation="sRGB" color-interpolation-filters="linearRGB" solid-color="#000000" solid-opacity="1" fill="none" color-rendering="auto" image-rendering="auto" shape-rendering="auto" mix-blend-mode="normal" white-space="normal" isolation="auto" id="path4138" d="m286 326c-8.9 5.5-17.3 16.8-11.6 27.5 4.1 9.5 14 20.3 6.6 30.7-3.3 5.4-13.2 11.2-2 9.5 4.4-.6 9.9 1.7 13-2.5 8.3-5.9 13.4-17.4 7.5-26.8-4.5-8.8-13-19-5.9-28.9 3.3-5.4 13.2-11.2 2-9.5l-9.8 0m-54.7 25.4c8.6 6.3 15.6 18 8.4 28-4.8 8.5-12 18.8-5.8 28.4 4 5.7 9.2 12.8 17 11.2 2.4-.7 12 1.4 9-1.3-9-6.5-13.6-19-6.1-28.7 4.7-7.9 10.5-17.9 4.7-26.8-3.9-5.8-9.3-12.6-17-11l-10.4 0m82 0c8.6 6.3 15.6 18 8.4 28-4.8 8.5-12 18.8-5.8 28.4 4 5.7 9.2 12.8 17 11.2 2.4-.7 12 1.4 9-1.3-9-6.5-13.6-19-6.1-28.7 4.7-7.9 10.5-17.9 4.7-26.8-3.9-5.8-9.3-12.6-17-11l-10.4 0m-102 83c-3.3 4.4 1.8 15.6-3.9 16-9.5-.5-22.6 1.9-24.8 12.7-.5 11.6 13 16.9 22.9 15.8 5.4-1.7 4.5 2.9 4.4 6.7-.6 13.6.8 27.9 9.7 38.9 10.2 14.3 28 20.9 45 19.6 19.8-.2 39.6.5 59-.4 25-2.5 44-26.7 42.6-52l0-13.3c9.7.4 21.9.1 26.7-10 4.3-11-8.9-19.3-18.6-18.5-3-.7-9.5 2.2-8-3-.4-5.4 2.7-13.7-6.9-13l-149 0" opacity="0.8" filter-gaussianBlur-deviation="0" stroke-width="64" stroke-linejoin="round" filter-blend-mode="normal" stroke="#ffffff"/>
 <path id="path4140" d="m 161,113.5 c 6.5,30 37,54.9 69,50 19.9,-1.9 38.6,-13.7 49,-30.7 9.4,-4.4 21,2.7 29.8,-4.4 6.8,-4.3 11.5,-17.8 20,-15.3 4.8,3.2 8,11.9 14.8,10.5 6.9,-3.2 12.7,-18.2 19.4,-6.4 3.4,4.2 10.2,10.5 15,4.2 5.7,-9.3 13.7,-12 19.8,-1.5 4.4,5.6 10.3,4.4 15.7,-1 6.9,-7.2 15,-14.2 19,-23.3 C 432,86.2 425.6,82.2 418.3,75.7 406,63.9 396,67 384,67 349,66 311,67.9 279,66 264,45 247,34 222,34.5 c -38.7,-0.6 -71,41 -61,79 z m 45.9,1.2 c -11,7 -28,-2.3 -25.5,-16 2.3,-10.5 10.2,-15.3 21.4,-14.35 11.2,0.95 17.2,23.05 4.1,30.35 z" mix-blend-mode="normal" solid-color="#000000" opacity="0.8" color-interpolation-filters="linearRGB" filter-gaussianBlur-deviation="0" color="#000000" image-rendering="auto" color-rendering="auto" stroke-width="64" isolation="auto" color-interpolation="sRGB" solid-opacity="1" fill="none" stroke-linejoin="round" filter-blend-mode="normal" stroke="#ffffff" shape-rendering="auto"/>
 <path d="m 75,276 c -5.8,3.1 -6.9,10.9 -2.3,15.3 15.6,21.8 18.9,18.3 40,9.6 l 0,233 c 0,5.4 4.3,9.8 9.8,9.8 l 26,0 c 5.4,0 9.8,-4.4 9.8,-9.8 0,-89 -0.1,-150 -0.1,-251 l 6.9,-2.7 123,-14.6 123,14.7 4.9,2 c -0.5,84 -0.2,168 -0.2,252 0,5.4 4.3,9.8 9.8,9.8 l 26,0 c 5.4,0 9.6,-4.4 9.8,-9.8 l 0,-233 c 27.5,11.6 22.7,11.4 42.6,-9 4.5,-4.6 3.4,-12.3 -2.3,-15.3 L 292,166 c -2.9,-1.4 -6.3,-1.5 -8.95,0.05 z" id="path4142" mix-blend-mode="normal" solid-color="#000000" opacity="0.8" color-interpolation-filters="linearRGB" filter-gaussianBlur-deviation="0" color="#000000" image-rendering="auto" color-rendering="auto" stroke-width="64" isolation="auto" color-interpolation="sRGB" solid-opacity="1" fill="none" stroke-linejoin="round" filter-blend-mode="normal" stroke="#ffffff" shape-rendering="auto"/>
 <path d="m 286,326 c -8.9,5.5 -17.3,16.8 -11.6,27.5 4.1,9.5 14,20.3 6.6,30.7 -3.3,5.4 -13.2,11.2 -2,9.5 4.4,-0.6 9.9,1.7 13,-2.5 8.3,-5.9 13.4,-17.4 7.5,-26.8 -4.5,-8.8 -13,-19 -5.9,-28.9 3.3,-5.4 13.2,-11.2 2,-9.5 h -9.8" id="path823" fill="#0092da" isolation="auto" color-rendering="auto" white-space="normal" solid-opacity="1" mix-blend-mode="normal" color-interpolation-filters="linearRGB" shape-rendering="auto" fill-rule="evenodd" image-rendering="auto" color-interpolation="sRGB" color="#000000" solid-color="#000000"/>
 <path d="m 231.1,351.4 c 8.6,6.3 15.6,18 8.4,28 -4.8,8.5 -12,18.8 -5.8,28.4 4,5.7 9.2,12.8 17,11.2 2.4,-0.7 12,1.4 9,-1.3 -9,-6.5 -13.6,-19 -6.1,-28.7 4.7,-7.9 10.5,-17.9 4.7,-26.8 -3.9,-5.8 -9.3,-12.6 -17,-11 h -10.4" id="path821" fill="#0092da" isolation="auto" color-rendering="auto" white-space="normal" solid-opacity="1" mix-blend-mode="normal" color-interpolation-filters="linearRGB" shape-rendering="auto" fill-rule="evenodd" image-rendering="auto" color-interpolation="sRGB" color="#000000" solid-color="#000000"/>
 <path d="m 312.9,351.2 c 8.6,6.3 15.6,18 8.4,28 -4.8,8.5 -12,18.8 -5.8,28.4 4,5.7 9.2,12.8 17,11.2 2.4,-0.7 12,1.4 9,-1.3 -9,-6.5 -13.6,-19 -6.1,-28.7 4.7,-7.9 10.5,-17.9 4.7,-26.8 -3.9,-5.8 -9.3,-12.6 -17,-11 h -10.4" id="path819" fill="#0092da" isolation="auto" color-rendering="auto" white-space="normal" solid-opacity="1" mix-blend-mode="normal" color-interpolation-filters="linearRGB" shape-rendering="auto" fill-rule="evenodd" image-rendering="auto" color-interpolation="sRGB" color="#000000" solid-color="#000000"/>
 <path d="m 210.7,434 c -3.3,4.4 1.8,15.6 -3.9,16 -9.5,-0.5 -22.6,1.9 -24.8,12.7 -0.5,11.6 13,16.9 22.9,15.8 5.4,-1.7 4.5,2.9 4.4,6.7 -0.6,13.6 0.8,27.9 9.7,38.9 10.2,14.3 28,20.9 45,19.6 19.8,-0.2 39.6,0.5 59,-0.4 25,-2.5 44,-26.7 42.6,-52 V 478 c 9.7,0.4 21.9,0.1 26.7,-10 4.3,-11 -8.9,-19.3 -18.6,-18.5 -3,-0.7 -9.5,2.2 -8,-3 -0.4,-5.4 2.7,-13.7 -6.9,-13 h -149" id="path7057-2" fill="#0092da" isolation="auto" color-rendering="auto" white-space="normal" solid-opacity="1" mix-blend-mode="normal" color-interpolation-filters="linearRGB" shape-rendering="auto" fill-rule="evenodd" image-rendering="auto" color-interpolation="sRGB" color="#000000" solid-color="#000000"/>
 <path d="m 161,113.5 c 6.5,30 37,54.9 69,50 19.9,-1.9 38.6,-13.7 49,-30.7 9.4,-4.4 21,2.7 29.8,-4.4 6.8,-4.3 11.5,-17.8 20,-15.3 4.8,3.2 8,11.9 14.8,10.5 6.9,-3.2 12.7,-18.2 19.4,-6.4 3.4,4.2 10.2,10.5 15,4.2 5.7,-9.3 13.7,-12 19.8,-1.5 4.4,5.6 10.3,4.4 15.7,-1 6.9,-7.2 15,-14.2 19,-23.3 C 432,86.2 425.6,82.2 418.3,75.7 406,63.9 396,67 384,67 349,66 311,67.9 279,66 264,45 247,34 222,34.5 c -38.7,-0.6 -71,41 -61,79 z m 45.9,1.2 c -11,7 -28,-2.3 -25.5,-16 2.3,-10.5 10.2,-15.3 21.4,-14.35 11.2,0.95 17.2,23.05 4.1,30.35 z" id="path2307-7" fill="#0092da"/>
 <path id="path4153" d="m 75,276 c -5.8,3.1 -6.9,10.9 -2.3,15.3 15.6,21.8 18.9,18.3 40,9.6 l 0,233 c 0,5.4 4.3,9.8 9.8,9.8 l 26,0 c 5.4,0 9.8,-4.4 9.8,-9.8 0,-89 -0.1,-150 -0.1,-251 l 6.9,-2.7 123,-14.6 123,14.7 4.9,2 c -0.5,84 -0.2,168 -0.2,252 0,5.4 4.3,9.8 9.8,9.8 l 26,0 c 5.4,0 9.6,-4.4 9.8,-9.8 l 0,-233 c 27.5,11.6 22.7,11.4 42.6,-9 4.5,-4.6 3.4,-12.3 -2.3,-15.3 L 292,166 c -2.9,-1.4 -6.3,-1.5 -8.95,0.05 z" fill="#0092da" fill-rule="evenodd"/>
</svg>
