<?xml version="1.0" encoding="UTF-8" standalone="no"?>
<svg xmlns="http://www.w3.org/2000/svg" version="1.0" width="580" height="580">
 <metadata id="metadata2975"/>
 <path mix-blend-mode="normal" white-space="normal" isolation="auto" id="path4145" d="m 274.4,289 c 4.8,11 16.5,23.7 7.7,36 -3.9,6.3 -15.4,13 -2.3,11 5.2,-0.7 11.6,2 15.3,-3 9.7,-6.9 15.7,-20.4 8.8,-31 -5.2,-10.2 -15.3,-22.4 -6.9,-33.8 3.9,-6.3 15.4,-13 2.3,-11 l -11.4,-0.1 c -10.3,6.4 -19.9,19.6 -13.5,31.9 z m -40.7,30.8 c -5.6,9.9 -14,22 -6.8,33 4.6,6.6 10.8,15 19.9,13 2.8,-0.8 14,1.7 10.5,-1.5 -10.6,-7.6 -15.9,-22.4 -7.1,-33.5 5.5,-9.2 12.3,-21 5.5,-31 -4.5,-6.7 -10.9,-14.7 -19.9,-12.9 l -12.1,0 c 10.1,7.3 18.3,21 10,32.9 z m 95.8,0 c -5.6,9.9 -14,22 -6.8,33 4.6,6.6 10.8,15 19.9,13 2.8,-0.8 14,1.7 10.5,-1.5 -10.6,-7.6 -15.9,-22.4 -7.1,-33.5 5.5,-9.2 12.3,-21 5.5,-31 -4.5,-6.7 -10.9,-14.7 -19.9,-12.9 l -12.1,0 c 10.1,7.3 18.3,21 10,32.9 z m -134.1,83.1 c -11,-0.6 -26.4,2.2 -29,14.9 -0.6,13.6 15.2,19.8 26.7,18.5 6.4,-2 5.2,3.4 5.1,7.8 -0.7,15.9 0.9,32.7 11.3,45.5 11.9,16.7 32.9,24.4 52.9,22.9 23,-0.3 46,0.6 70,-0.5 29,-3 52,-31 49.8,-60 l 0,-15.5 c 11.3,0.4 25.6,0.1 31,-11.7 5.1,-12.9 -10.5,-22.6 -21.8,-21.7 -3.5,-0.9 -11.2,2.5 -9.4,-3.6 -0.5,-6.4 3.1,-16 -8.1,-15.3 l -173.95,-0.1 c -3.85,5 2.15,18.1 -4.55,18.8 z" solid-color="#000000" color-interpolation-filters="linearRGB" opacity="0.8" filter-gaussianBlur-deviation="0" color="#000000" image-rendering="auto" color-rendering="auto" stroke-width="64" color-interpolation="sRGB" solid-opacity="1" fill="none" stroke-linejoin="round" filter-blend-mode="normal" stroke="#ffffff" shape-rendering="auto"/>
 <path d="m 40.7,198 c -6.8,3.6 -8,12.7 -2.7,18 18.3,25.5 22,21.5 47,11.3 l 0,273 c 0,6.3 5,11.4 11.4,11.4 l 30.4,0 c 6.3,0 11.4,-5.1 11.4,-11.4 0,-104 -0.1,-176 -0.1,-294 l 8,-3.2 144,-17 144,17.2 5.8,2.3 c -0.6,98 -0.3,197 -0.3,295 0,6.3 5,11.4 11.4,11.4 l 30.4,0 c 6.3,0 11.3,-5.1 11.4,-11.4 l 0,-273 c 32,13.5 26.6,13.3 49.9,-10.5 5.3,-5.4 4,-14.4 -2.7,-18 L 295,68.8 c -3.4,-1.6 -7.4,-1.8 -10.7,0.1 z" id="path4147" mix-blend-mode="normal" solid-color="#000000" opacity="0.8" color-interpolation-filters="linearRGB" filter-gaussianBlur-deviation="0" color="#000000" image-rendering="auto" color-rendering="auto" stroke-width="64" isolation="auto" color-interpolation="sRGB" solid-opacity="1" fill="none" stroke-linejoin="round" filter-blend-mode="normal" stroke="#ffffff" shape-rendering="auto"/>
 <path solid-color="#000000" color="#000000" color-interpolation="sRGB" image-rendering="auto" shape-rendering="auto" color-interpolation-filters="linearRGB" mix-blend-mode="normal" solid-opacity="1" white-space="normal" color-rendering="auto" isolation="auto" fill="none" id="path4146" d="m288 257c-10.4 6.5-20 19.7-13.6 32 4.8 11 16.5 23.7 7.7 36-3.9 6.3-15.4 13-2.3 11 5.2-.7 11.6 2 15.3-3 9.7-6.9 15.7-20.4 8.8-31-5.2-10.2-15.3-22.4-6.9-33.8 3.9-6.3 15.4-13 2.3-11l-11.5 0m-64 29.7c10 7.3 18.2 21 9.9 32.9-5.6 9.9-14 22-6.8 33 4.6 6.6 10.8 15 19.9 13 2.8-.8 14 1.7 10.5-1.5-10.6-7.6-15.9-22.4-7.1-33.5 5.5-9.2 12.3-21 5.5-31-4.5-6.7-10.9-14.7-19.9-12.9l-12.2 0m96 0c10 7.3 18.2 21 9.9 32.9-5.6 9.9-14 22-6.8 33 4.6 6.6 10.8 15 19.9 13 2.8-.8 14 1.7 10.5-1.5-10.6-7.6-15.9-22.4-7.1-33.5 5.5-9.2 12.3-21 5.5-31-4.5-6.7-10.9-14.7-19.9-12.9l-12.2 0M200 384c-3.9 5.1 2.1 18.2-4.6 18.9-11-.6-26.4 2.2-29 14.9-.6 13.6 15.2 19.8 26.7 18.5 6.4-2 5.2 3.4 5.1 7.8-.7 15.9.9 32.7 11.3 45.5 11.9 16.7 32.9 24.4 52.9 22.9 23-.3 46 .6 70-.5 29-3 52-31 49.8-60l0-15.5c11.3.4 25.6.1 31-11.7 5.1-12.9-10.5-22.6-21.8-21.7-3.5-.9-11.2 2.5-9.4-3.6-.5-6.4 3.1-16-8.1-15.3l-174 0" opacity="0.8" filter-gaussianBlur-deviation="0" stroke-width="64" stroke-linejoin="round" filter-blend-mode="normal" stroke="#ffffff"/>
 <path d="m 274.4,289 c 4.8,11 16.5,23.7 7.7,36 -3.9,6.3 -15.4,13 -2.3,11 5.2,-0.7 11.6,2 15.3,-3 9.7,-6.9 15.7,-20.4 8.8,-31 -5.2,-10.2 -15.3,-22.4 -6.9,-33.8 3.9,-6.3 15.4,-13 2.3,-11 l -11.4,-0.1 c -10.3,6.4 -19.9,19.6 -13.5,31.9 z m -40.7,30.8 c -5.6,9.9 -14,22 -6.8,33 4.6,6.6 10.8,15 19.9,13 2.8,-0.8 14,1.7 10.5,-1.5 -10.6,-7.6 -15.9,-22.4 -7.1,-33.5 5.5,-9.2 12.3,-21 5.5,-31 -4.5,-6.7 -10.9,-14.7 -19.9,-12.9 l -12.1,0 c 10.1,7.3 18.3,21 10,32.9 z m 95.8,0 c -5.6,9.9 -14,22 -6.8,33 4.6,6.6 10.8,15 19.9,13 2.8,-0.8 14,1.7 10.5,-1.5 -10.6,-7.6 -15.9,-22.4 -7.1,-33.5 5.5,-9.2 12.3,-21 5.5,-31 -4.5,-6.7 -10.9,-14.7 -19.9,-12.9 l -12.1,0 c 10.1,7.3 18.3,21 10,32.9 z m -134.1,83.1 c -11,-0.6 -26.4,2.2 -29,14.9 -0.6,13.6 15.2,19.8 26.7,18.5 6.4,-2 5.2,3.4 5.1,7.8 -0.7,15.9 0.9,32.7 11.3,45.5 11.9,16.7 32.9,24.4 52.9,22.9 23,-0.3 46,0.6 70,-0.5 29,-3 52,-31 49.8,-60 l 0,-15.5 c 11.3,0.4 25.6,0.1 31,-11.7 5.1,-12.9 -10.5,-22.6 -21.8,-21.7 -3.5,-0.9 -11.2,2.5 -9.4,-3.6 -0.5,-6.4 3.1,-16 -8.1,-15.3 l -173.95,-0.1 c -3.85,5 2.15,18.1 -4.55,18.8 z" id="path7057-2" isolation="auto" white-space="normal" mix-blend-mode="normal" fill="#0092da" color-rendering="auto" solid-opacity="1" color-interpolation-filters="linearRGB" shape-rendering="auto" fill-rule="evenodd" image-rendering="auto" color-interpolation="sRGB" color="#000000" solid-color="#000000"/>
 <path id="path4153" d="m 40.7,198 c -6.8,3.6 -8,12.7 -2.7,18 18.3,25.5 22,21.5 47,11.3 l 0,273 c 0,6.3 5,11.4 11.4,11.4 l 30.4,0 c 6.3,0 11.4,-5.1 11.4,-11.4 0,-104 -0.1,-176 -0.1,-294 l 8,-3.2 144,-17 144,17.2 5.8,2.3 c -0.6,98 -0.3,197 -0.3,295 0,6.3 5,11.4 11.4,11.4 l 30.4,0 c 6.3,0 11.3,-5.1 11.4,-11.4 l 0,-273 c 32,13.5 26.6,13.3 49.9,-10.5 5.3,-5.4 4,-14.4 -2.7,-18 L 295,68.8 c -3.4,-1.6 -7.4,-1.8 -10.7,0.1 z" fill="#0092da" fill-rule="evenodd"/>
</svg>
