<?xml version="1.0" encoding="UTF-8" standalone="no"?>
<svg xmlns="http://www.w3.org/2000/svg" version="1.0" width="580" height="580">
 <metadata id="metadata2975"/>
 <path id="path4158" d="m 230.13357,194.24219 c -1.03322,0.0117 -3.75814,0.0583 -6.53582,0.10374 -1.6218,9.6e-4 -1.94121,0.01 -4.00826,0.008 -2.72124,16.25552 -47.60692,268.28209 -57.83775,338.19512 44.55233,0 53.44828,0.0334 73.65764,0.0245 20.20935,0.009 29.10719,-0.0245 73.65951,-0.0245 -10.23082,-69.91303 -55.11839,-321.9396 -57.83963,-338.19512 -2.06732,0.002 -2.3863,-0.007 -4.00825,-0.008 -9.15113,-0.14973 -7.58674,-0.10182 -11.81163,-0.0434 -2.94029,-0.0407 -2.90488,-0.0872 -5.27581,-0.0604 z" fill="#ffffff" fill-rule="evenodd" stroke-width="0.97"/>
 <path id="path4821" d="m 77.231125,173.3912 v 64.42584 L 202.05293,215.59959 v -0.86435 -18.26225 -0.86434 z" opacity="0.8" fill="none" stroke="#ffffff" vector-effect="none" stroke-linejoin="round" stroke-width="64"/>
 <path d="M 502.76887,155.59021 474.2873,252.05783 268.76771,215.59959 v -0.86435 -18.26225 -0.86434 z" id="path4823" opacity="0.8" fill="none" stroke="#ffffff" vector-effect="none" stroke-linejoin="round" stroke-width="64"/>
 <g transform="matrix(0,0.82559966,-0.82559966,0,379.89672,-34.354599)" id="g4829" opacity="0.8" fill="none" stroke="#ffffff" vector-effect="none" stroke-linejoin="round" stroke-width="77.5">
  <path id="path4825" d="m 99.054688,135.99023 v 78.0352 L 250.24395,187.11476 v -1.04694 -22.11998 -1.04693 z" opacity="1" vector-effect="none" stroke-width="77.5"/>
  <path d="m 482.24089,135.99023 v 78.0352 L 331.05163,187.11476 v -1.04694 -22.11998 -1.04693 z" id="path4827" opacity="1" vector-effect="none" stroke-width="77.5"/>
 </g>
 <g transform="matrix(0.58378712,-0.58378712,0.58378712,0.58378712,-36.433427,273.11324)" id="g4841" opacity="0.8" fill="none" stroke="#ffffff" vector-effect="none" stroke-linejoin="round" stroke-width="77.5">
  <path id="path4831" d="m 99.054688,135.99023 v 78.0352 L 250.24395,187.11476 v -1.04694 -22.11998 -1.04693 z" opacity="1" vector-effect="none" stroke-width="77.5"/>
  <path d="m 482.24089,135.99023 v 78.0352 L 331.05163,187.11476 v -1.04694 -22.11998 -1.04693 z" id="path4833" opacity="1" vector-effect="none" stroke-width="77.5"/>
  <g transform="rotate(90,290.64779,175.00783)" id="g4839" vector-effect="none" stroke-width="77.5">
   <path id="path4835" d="m 99.054688,135.99023 v 78.0352 L 250.24395,187.11476 v -1.04694 -22.11998 -1.04693 z" opacity="1" vector-effect="none" stroke-width="77.5"/>
   <path d="m 482.24089,135.99023 v 78.0352 L 331.05163,187.11476 v -1.04694 -22.11998 -1.04693 z" id="path4837" opacity="1" vector-effect="none" stroke-width="77.5"/>
  </g>
 </g>
 <path id="path4843" d="m 230.13357,194.24219 c -1.03322,0.0117 -3.75814,0.0583 -6.53582,0.10374 -1.6218,9.6e-4 -1.94121,0.01 -4.00826,0.008 -2.72124,16.25552 -47.60692,268.28209 -57.83775,338.19512 44.55233,0 53.44828,0.0334 73.65764,0.0245 20.20935,0.009 29.10719,-0.0245 73.65951,-0.0245 -10.23082,-69.91303 -55.11839,-321.9396 -57.83963,-338.19512 -2.06732,0.002 -2.3863,-0.007 -4.00825,-0.008 -9.15113,-0.14973 -7.58674,-0.10182 -11.81163,-0.0434 -2.94029,-0.0407 -2.90488,-0.0872 -5.27581,-0.0604 z" opacity="0.8" fill="none" fill-rule="evenodd" stroke="#ffffff" vector-effect="none" stroke-linejoin="round" stroke-width="64"/>
 <path d="m 77.231125,173.3912 v 64.42584 L 202.05293,215.59959 v -0.86435 -18.26225 -0.86434 z" id="path999" opacity="1" fill="#256f25" stroke="none" vector-effect="none"/>
 <path id="path1027" d="M 502.76887,155.59021 474.2873,252.05783 268.76771,215.59959 v -0.86435 -18.26225 -0.86434 z" opacity="1" fill="#256f25" stroke="none" vector-effect="none"/>
 <g id="g1035" transform="matrix(0,0.82559966,-0.82559966,0,379.89672,-34.354599)">
  <path d="m 99.054688,135.99023 v 78.0352 L 250.24395,187.11476 v -1.04694 -22.11998 -1.04693 z" id="path1029" fill="#256f25" vector-effect="none"/>
  <path id="path1031" d="m 482.24089,135.99023 v 78.0352 L 331.05163,187.11476 v -1.04694 -22.11998 -1.04693 z" fill="#256f25" vector-effect="none"/>
 </g>
 <g id="g1054" transform="matrix(0.58378712,-0.58378712,0.58378712,0.58378712,-36.433427,273.11324)">
  <path d="m 99.054688,135.99023 v 78.0352 L 250.24395,187.11476 v -1.04694 -22.11998 -1.04693 z" id="path1044" fill="#256f25" vector-effect="none"/>
  <path id="path1046" d="m 482.24089,135.99023 v 78.0352 L 331.05163,187.11476 v -1.04694 -22.11998 -1.04693 z" fill="#256f25" vector-effect="none"/>
  <g id="g1052" transform="rotate(90,290.64779,175.00783)">
   <path d="m 99.054688,135.99023 v 78.0352 L 250.24395,187.11476 v -1.04694 -22.11998 -1.04693 z" id="path1048" fill="#256f25" vector-effect="none"/>
   <path id="path1050" d="m 482.24089,135.99023 v 78.0352 L 331.05163,187.11476 v -1.04694 -22.11998 -1.04693 z" fill="#256f25" vector-effect="none"/>
  </g>
 </g>
 <path d="m 230.13357,194.24219 c -1.03322,0.0117 -3.75814,0.0583 -6.53582,0.10374 -1.6218,9.6e-4 -1.94121,0.01 -4.00826,0.008 -2.72124,16.25552 -47.60692,268.28209 -57.83775,338.19512 44.55233,0 53.44828,0.0334 73.65764,0.0245 20.20935,0.009 29.10719,-0.0245 73.65951,-0.0245 -10.23082,-69.91303 -55.11839,-321.9396 -57.83963,-338.19512 -2.06732,0.002 -2.3863,-0.007 -4.00825,-0.008 -9.15113,-0.14973 -7.58674,-0.10182 -11.81163,-0.0434 -2.94029,-0.0407 -2.90488,-0.0872 -5.27581,-0.0604 z" id="path4162" opacity="0.5" fill="#256f25" fill-rule="evenodd" stroke-width="0.97"/>
</svg>
