<?xml version="1.0" encoding="UTF-8" standalone="no"?>
<svg xmlns="http://www.w3.org/2000/svg" version="1.1" width="24" height="24" viewBox="0 0 24 24" enable-background="new 0 0 24 24">
 <metadata id="metadata12"/>
 <path d="M 12.000001,24 C 5.3824,24 1.4999999e-8,18.616533 1.4999999e-8,12.000001 1.4999999e-8,5.3824 5.3824,0 12.000001,0 18.6176,0 24,5.3834667 24,12.000001 24,18.616533 18.616533,24 12.000001,24 l 0,0 z" id="path4"/>
 <path d="M 12,0.5 C 5.6672999,0.5 0.5,5.6672999 0.5,12 0.5,18.3327 5.6672999,23.5 12,23.5 18.3327,23.5 23.5,18.3327 23.5,12 23.5,5.6672999 18.3327,0.5 12,0.5 Z m 0,3.1363636 c 4.637683,0 8.363636,3.7259531 8.363636,8.3636364 0,4.637683 -3.725953,8.363636 -8.363636,8.363636 C 7.3623167,20.363636 3.6363636,16.637683 3.6363636,12 3.6363636,7.3623167 7.3623167,3.6363636 12,3.6363636 Z" id="path4148" shape-rendering="auto" mix-blend-mode="normal" color-interpolation-filters="linearRGB" isolation="auto" white-space="normal" fill="#ffd800" solid-opacity="1" image-rendering="auto" solid-color="#000000" color="#000000" color-rendering="auto" color-interpolation="sRGB"/>
</svg>
