<?xml version="1.0" encoding="iso-8859-1"?>
<!DOCTYPE svg PUBLIC "-//W3C//DTD SVG 1.1//EN" "http://www.w3.org/Graphics/SVG/1.1/DTD/svg11.dtd">
<svg version="1.1" xmlns="http://www.w3.org/2000/svg" width="24" height="24" viewBox="0 0 24 24" enable-background="new 0 0 24 24">
 <path d="M12,23.25C5.797,23.25,0.75,18.203,0.75,12S5.797,0.75,12,0.75S23.25,5.797,23.25,12
			S18.203,23.25,12,23.25L12,23.25z" fill="#eb8d00"/>
 <path d="M12,1.5c5.79,0,10.5,4.71,10.5,10.5c0,5.79-4.71,10.5-10.5,10.5C6.21,22.5,1.5,17.79,1.5,12
			C1.5,6.21,6.21,1.5,12,1.5 M12,0C5.373,0,0,5.373,0,12c0,6.627,5.373,12,12,12c6.627,0,12-5.373,12-12C24,5.373,18.627,0,12,0
			L12,0z" fill="#eb8d00"/>
</svg>
