<?xml version="1.0" encoding="UTF-8" standalone="no"?>
<svg xmlns="http://www.w3.org/2000/svg" version="1.1" width="24" height="24" viewBox="0 0 24 24" enable-background="new 0 0 24 24">
 <metadata id="metadata12"/>
 <path d="M12,23.25C5.797,23.25,0.75,18.203,0.75,12S5.797,0.75,12,0.75S23.25,5.797,23.25,12    S18.203,23.25,12,23.25L12,23.25z" fill="#ffffff" id="path4"/>
 <path id="path4177" d="M 12.000002,24 C 5.400006,24 0,18.600055 0,11.999999 0,5.4000026 5.400006,6.373815e-7 12.000002,6.373815e-7 18.600058,6.373815e-7 24,5.4000026 24,11.999999 24,18.600055 18.600058,24 12.000002,24 l 0,0 z" fill="#ffffff"/>
 <path id="path4179" d="M 12.000004,5.5e-7 C 5.3877672,5.5e-7 1.1e-7,5.3877671 1.1e-7,12.000004 1.1e-7,18.612306 5.3877672,23.999999 12.000004,23.999999 18.612306,23.999999 24,18.612306 24,12.000004 24,5.3877671 18.612306,5.5e-7 12.000004,5.5e-7 Z m 0,3.26531235 c 4.816367,0 8.734768,3.9183661 8.734768,8.7346911 0,4.81637 -3.918401,8.734772 -8.734768,8.734772 -4.8163248,0 -8.7346952,-3.918402 -8.7346952,-8.734772 0,-4.8163249 3.9183704,-8.7346911 8.7346952,-8.7346911 z"/>
</svg>
