<?xml version="1.0" encoding="UTF-8" standalone="no"?>
<svg xmlns="http://www.w3.org/2000/svg" version="1.1" width="24" height="24" viewBox="0 0 24 24" enable-background="new 0 0 24 24">
 <metadata id="metadata12"/>
 <path id="path4145" d="M 11.999998,24 C 5.400006,24 0,18.600054 0,11.999998 0,5.400006 5.400006,0 11.999998,0 18.600054,0 24,5.400006 24,11.999998 24,18.600054 18.600054,24 11.999998,24 l 0,0 z" fill="#ffffff"/>
 <path id="path4147" d="M 12.000002,0 C 5.3877643,0 0,5.3877669 0,12.000003 0,18.612306 5.3877643,24 12.000002,24 18.612305,24 24,18.612306 24,12.000003 24,5.3877669 18.612305,0 12.000002,0 Z m 0,3.2653127 c 4.816371,0 8.734773,3.9183666 8.734773,8.7346903 0,4.816371 -3.918402,8.734772 -8.734773,8.734772 -4.8163249,0 -8.7346921,-3.918401 -8.7346921,-8.734772 0,-4.8163237 3.9183672,-8.7346903 8.7346921,-8.7346903 z" fill="#ff0000"/>
</svg>
