<?xml version="1.0" encoding="UTF-8" standalone="no"?>
<svg xmlns="http://www.w3.org/2000/svg" version="1.1" width="24" height="24" viewBox="0 0 24 24" enable-background="new 0 0 24 24">
 <metadata id="metadata12"/>
 <path id="path4145" d="M 11.999998,24 C 5.400006,24 0,18.600054 0,11.999998 0,5.4000059 5.400006,0 11.999998,0 18.600054,0 24,5.4000059 24,11.999998 24,18.600054 18.600054,24 11.999998,24 l 0,0 z" fill="#ffffff"/>
 <path id="path4147" d="M 12.000002,-1.82e-6 C 5.3877643,-1.82e-6 0,5.387766 0,12.000004 0,18.612307 5.3877643,24.000002 12.000002,24.000002 18.612305,24.000002 24,18.612307 24,12.000004 24,5.387766 18.612305,-1.82e-6 12.000002,-1.82e-6 Z m 0,3.26531302 c 4.816371,0 8.734773,3.9183672 8.734773,8.7346928 0,4.816371 -3.918402,8.734773 -8.734773,8.734773 -4.8163249,0 -8.7346921,-3.918402 -8.7346921,-8.734773 0,-4.8163256 3.9183672,-8.7346928 8.7346921,-8.7346928 z" fill="#0026ff"/>
</svg>
