<?xml version="1.0" encoding="iso-8859-1"?>
<!DOCTYPE svg PUBLIC "-//W3C//DTD SVG 1.1//EN" "http://www.w3.org/Graphics/SVG/1.1/DTD/svg11.dtd">
<svg version="1.1" xmlns="http://www.w3.org/2000/svg" width="24" height="24" viewBox="0 0 24 24" enable-background="new 0 0 24 24">
 <path d="M13.427,16.991c0.293-0.061,0.789-0.242,1.375-0.365c0.463,0.412,0.898,0.984,0.985,1.398
		c0.1,0.473,0.479,0.83,0.474,1.369c-0.007,0.506,0.116,0.875,0.14,1.371l1.475-0.92l2.243-8.591
		c-0.192-0.231-0.387-0.465-0.582-0.695c-0.229-0.27-0.828-0.934-1.407-1.37c-0.38-0.287-0.982-0.706-1.42-0.923
		c-0.909-0.452-1.832-0.882-2.72-1.37c-0.456-0.25-1.348-0.589-1.445-0.741c-0.106-0.165-0.279-0.605-0.418-0.815
		c-0.242-0.368-0.572-1.529-0.72-1.609c-0.138-0.074-0.385,0.735-0.478,0.568c-0.137-0.251-0.397-1.657-0.676-0.593
		c-0.17,0.65-0.411,1.087-0.701,1.616C9.196,5.972,8.908,6.3,8.594,6.874C8.346,7.328,8.043,7.775,7.706,8.161
		C7.383,8.53,7.164,9.05,6.812,9.452C6.472,9.84,6.21,10.213,5.923,10.74c-0.224,0.41-0.614,0.787-0.89,1.291
		c-0.292,0.533-0.514,0.94-0.794,1.456c-0.255,0.465-0.557,1.107-0.18,1.75c0.25,0.428,0.493,0.674,0.96,1.082
		c0.437,0.381,0.51,1.021,1.23,0.602c0.623-0.367,0.991-0.299,1.819-0.082c0.585,0.152,1.132,0.377,1.944,0.508
		c0.428,0.068,1.387,0.195,1.913,0.084C12.477,17.313,12.823,17.12,13.427,16.991z M10.429,16.278
		c-0.623-0.066-1.154-0.092-1.864-0.277c-0.441-0.117-0.45-0.166-0.647-0.258c0.405-0.281,0.75-0.572,0.883-0.648
		c0.499-0.293,0.756-0.555,1.177-0.801c0.409-0.24,0.674-0.725,1.083-0.965c0.21-0.123,0.511-0.105,0.81-0.033
		c0.297,0.076,0.591,0.209,0.778,0.313c0.131,0.07,0.62,0.869,0.729,1.055c0.208,0.357,0.533,0.648,0.687,1.078
		c-0.429,0.076-1.084,0.396-1.962,0.488C11.351,16.312,11.116,16.351,10.429,16.278z" fill="#267f00"/>
</svg>
