<?xml version="1.0" encoding="iso-8859-1"?>
<!DOCTYPE svg PUBLIC "-//W3C//DTD SVG 1.1//EN" "http://www.w3.org/Graphics/SVG/1.1/DTD/svg11.dtd">
<svg version="1.1" xmlns="http://www.w3.org/2000/svg" width="24" height="24" viewBox="0 0 24 24" enable-background="new 0 0 24 24">
 <path id="path2030_2_" d="M9.889,3.408c0,0,1.767-1.116,2.288-1.098
		c0.521,0.019,2.347,1.173,2.347,1.173l2.038,0.027l-0.028,0.886l-0.456,0.036l3.79,2.458l-0.448,0.895l-4.161-2.682l5.948,6.647
		L20.658,12.4l-6.098-6.571l5.641,10.762L19.438,17L13.703,6.256l3.353,13.873l-0.819,0.203L12.689,6.573L12.53,21.691h-0.875
		l0.112-15.043l-3.836,13.76l-0.818-0.196l3.621-14.058l-6.152,10.92l-0.783-0.502L9.842,5.717l-6.416,6.46l-0.633-0.596l6.33-6.553
		L4.785,7.401L4.328,6.61l3.873-2.271L7.818,4.32V3.343L9.889,3.408z" fill="#f2db0a" stroke="#f2db0a" stroke-width="2"/>
</svg>
