<?xml version="1.0" encoding="iso-8859-1"?>
<!DOCTYPE svg PUBLIC "-//W3C//DTD SVG 1.1//EN" "http://www.w3.org/Graphics/SVG/1.1/DTD/svg11.dtd">
<svg version="1.1" xmlns="http://www.w3.org/2000/svg" width="24" height="24" viewBox="0 0 24 24" enable-background="new 0 0 24 24">
 <path id="path2030_1_" d="M3.407,14.111c0,0-1.116-1.767-1.098-2.288
		c0.019-0.521,1.173-2.347,1.173-2.347l0.027-2.038l0.886,0.028l0.036,0.456l2.458-3.79l0.895,0.448L5.102,8.742l6.647-5.948
		l0.651,0.548L5.828,9.439L16.59,3.798l0.409,0.763L6.256,10.296l13.872-3.352l0.203,0.819L6.573,11.311L21.69,11.47v0.875
		L6.647,12.232l13.76,3.836l-0.196,0.818L6.153,13.266l10.92,6.152l-0.502,0.783L5.717,14.158l6.46,6.416l-0.596,0.633l-6.553-6.33
		L7.4,19.215L6.61,19.672l-2.271-3.873L4.32,16.182H3.343L3.407,14.111z" fill="#e9bf1e" stroke="#e9bf1e" stroke-width="0.75"/>
</svg>
