<?xml version="1.0" encoding="iso-8859-1"?>
<!DOCTYPE svg PUBLIC "-//W3C//DTD SVG 1.1//EN" "http://www.w3.org/Graphics/SVG/1.1/DTD/svg11.dtd">
<svg version="1.1" xmlns="http://www.w3.org/2000/svg" width="24" height="24" viewBox="0 0 24 24" enable-background="new 0 0 24 24">
 <g id="layer1" transform="translate(-376.7706,213.0283)">
  <path id="path10412" d="M379.257-201.029
			c0-5.254,4.259-9.513,9.513-9.513c5.254,0,9.513,4.259,9.513,9.513c0,5.256-4.259,9.514-9.513,9.514
			C383.516-191.515,379.257-195.772,379.257-201.029" fill="#176fc1" stroke="#ffffff" stroke-width="0.25"/>
  <path id="path10414" d="M394.709-198.884
			c0.186,0.117,0.465,0.488,0.465,0.488c-0.048-0.396-0.325-0.721-0.325-0.721c-0.373-0.277-0.232-0.348-0.535-1.185
			c-0.301-0.836,0.162-1.138-0.789-1.742c-0.394-0.249-0.805-0.291-1.04-0.291c-0.01-0.012-0.019-0.024-0.029-0.035
			c-0.577-0.647-1.89-0.529-2.831-0.465c-0.122-0.259-0.357-0.76-0.458-0.988c-0.14-0.314,0-0.72,0.046-0.917
			c0.046-0.198,0.104-0.232,0.127-0.883c0.022-0.618-0.564-0.869-0.622-0.892l0.042-0.014l-0.117-0.187l-0.143,0.066
			c0.068-0.174,0.079-0.385,0.05-0.507c-0.086-0.371-0.279-0.639-0.655-0.553c-0.191,0.043-0.327,0.207-0.378,0.415l0-0.002v-0.034
			c0,0-0.022,0.267-0.197,0.348c0,0-0.093,0.14,0,0.152l0.194-0.11c0.002,0.012,0.004,0.023,0.008,0.036
			c0.06,0.241,0.216,0.425,0.4,0.505l-0.137,0.056l0.051,0.103c-0.007,0-0.026,0.011-0.063,0.048
			c-0.081,0.082-0.418,0.651-0.511,0.825c-0.093,0.174-0.035,0.14-0.198,0.314c-0.135,0.144-0.855,0.778-1.095,0.989
			c-1.12-1.045-1.308-1.005-1.763-1.163c-0.387-0.136-0.677-0.013-0.763,0.032c-0.264-0.117-0.353-0.241-0.353-0.241
			s-0.044,0.156-0.049,0.287c-0.037-0.02-0.071-0.042-0.103-0.066c-0.174-0.139-0.348-0.127-0.348-0.127s-0.081,0-0.011,0.081
			c0.069,0.081,0.098,0.175,0.244,0.245c0.165,0.078,0.176,0.151,0.166,0.252c-0.136,0.16-0.259,0.342-0.282,0.502
			c0,0-0.023,0.964-0.058,1.22c0,0-0.104,0.628-0.163,0.767c0,0-0.116,0.105,0.035,0.221c0,0,0.151,0.082,0.313,0.255
			c0,0,0.059,0.035,0.175-0.046c0,0-0.059,0.081,0.116,0.07c0.175-0.012,0.302-0.046,0.326-0.245
			c0.006-0.046,0.018-0.102,0.035-0.161c0.231-0.147,0.499-0.234,0.766-0.315c0.029-0.009,0.057-0.016,0.085-0.023
			c0.072,0.232,0.172,0.467,0.287,0.686c0.255,0.488,0.232,0.767,0.279,1.162c0.041,0.35,0.028,1.115,0.539,1.402
			c-0.154,0.32-0.523,1.055-0.856,1.471c0,0-0.17,0.078-0.093,0.402c0,0,0,0-0.046,0.156c-0.096,0.314-0.491,1.189-0.629,1.359
			c0,0-0.119,0.117,0.005,0.193l-0.042,0.137c0,0-0.225,0.236-0.067,0.643l0.469-0.207l0.04-0.021c0,0-0.042-0.207-0.059-0.318
			c-0.016-0.096,0.097-0.051-0.042-0.129c-0.068-0.037,0-0.123,0-0.123c0.134-0.055,0.077-0.201,0.077-0.201
			c0.232-0.619,0.434-1.303,0.62-1.41c0.187-0.109,0.187-0.23,0.187-0.23s-0.031-0.01,0.014-0.08
			c0.044-0.07,0.554-0.566,0.711-0.709c0,0.002,0.113-0.107,0.192-0.252c0.083-0.146,0.133-0.326,0.134-0.322
			c0.001,0.008,0.064,0.055,0.064,0.055c-0.035,0.057-0.047,0.205-0.12,0.314c-0.1,0.15-0.26,0.26-0.259,0.262
			c0.057,0.26,0.178,0.609,0.404,1.082c0,0-0.034,0.152,0.067,0.221c0,0,0.65,0.9,0.774,1.146c0.124,0.248,0.046,0.217,0.171,0.232
			l0.186,0.186l0.042,0.055l0.104,0.051c0,0,0.033,0.324,0.444,0.471l0.149-0.49l0.011-0.045c0,0-0.185-0.102-0.28-0.16
			c-0.083-0.053,0.025-0.109-0.125-0.055c-0.072,0.027-0.128,0.051-0.128,0.051l-0.1-0.08c0,0,0.255-0.09-0.256-0.523
			c-0.511-0.434-0.526-0.869-0.526-0.869c0.092-0.168-0.078-0.262-0.078-0.262c0.063-0.291-0.031-1.006-0.079-1.1
			c-0.046-0.094,0-0.125,0.031-0.201c0.083-0.207,0.081-0.408,0.049-0.572c0.525,0.018,1.009,0,1.42-0.047
			c0.099,0.057,0.219,0.121,0.343,0.17c0.302,0.117,0.163-0.188,0.163-0.188s0.349,0.07,0.581,0.094
			c0.134,0.014,0.121-0.18,0.087-0.346c0.304-0.072,0.378-0.025,0.378-0.025c-0.022,0.141,0.101,0.268,0.092,0.389
			c-0.067,0.855,0.179,1.152,0.232,1.314c0.063,0.188,0.048,0.65,0.048,0.65c-0.202,0.48-0.635,1.225-0.697,1.408
			c-0.062,0.188,0.015,0.234,0.015,0.234l-0.093,0.109c-0.263,0.107-0.418,0.604-0.418,0.604l0.682-0.094
			c0.232-0.51-0.031-0.463-0.031-0.463l0.093-0.109c0.247-0.016,0.263-0.186,0.263-0.186c0.108-0.898,0.837-1.736,0.883-1.891
			c0.047-0.156-0.03-0.156-0.063-0.234c-0.03-0.076-0.03-0.322-0.03-0.322c-0.124-0.992,0.496-1.287,0.62-1.395
			c0.123-0.109,0.031-0.217,0.031-0.217c-0.155-0.232-0.202-0.636-0.202-0.636l0.108-0.117c0,0,0.255,1.254,1.046,1.813
			c0,0,0.837,0.951,1.139,1.51c0.303,0.557,0.116,0.256,0.185,0.557c0.07,0.305,0.253,0.939,0.397,1.256
			c0.146,0.324,0.611,0.697,0.611,0.697l0.262-0.543c0,0-0.061-0.17-0.34-0.105l0.03-0.143c0,0-0.076,0.078-0.232-0.107
			c0,0-0.062,0.156-0.021-0.061c0.039-0.213-0.117-0.311-0.117-0.311c-0.295-0.496-0.34-1.084-0.34-1.084
			c0.029-0.049,0.029-0.156,0.029-0.156c-0.034-0.24-0.062-0.543-0.279-0.896c-0.298-0.488-0.464-1.031-0.464-1.031
			c0.043-0.539,0.157-2.093-0.345-3.017c0.738,0.057,0.895,0.634,0.787,0.785c-0.117,0.164-0.14,0.558,0,0.697
			c0.14,0.139,0.021,0.302,0.186,0.696c0.163,0.396,0.601,0.91,0.601,0.91c-0.043-0.029,0.153,0.16,0.073,0.02
			c-0.279-0.488-0.582-1.277-0.582-1.277c0.281,0.348,0.485,0.941,0.605,1.197c0.151,0.324,0.22,0.418,0.405,0.58
			c0.187,0.162,0.339,0.385,0.339,0.385c0.022-0.188-0.093-0.373-0.211-0.488C394.756-198.675,394.709-198.884,394.709-198.884z
			 M383.273-205.057c-0.003-0.001-0.008-0.002-0.011-0.003l0.023-0.007C383.28-205.063,383.277-205.06,383.273-205.057z
			 M384.031-202.647c-0.163,0.058-0.325,0.127-0.453,0.244c-0.008,0.006-0.017,0.01-0.025,0.016c0.088-0.242,0.2-0.48,0.2-0.48
			s0.333-0.151,0.449-0.504c0.042-0.127,0.073-0.402,0.027,0.039c-0.02,0.186,0.002,0.394,0.052,0.608
			C384.197-202.704,384.114-202.678,384.031-202.647z M387.211-203.166c-0.118-0.056-0.238-0.121-0.363-0.198
			c0.499-0.252,0.82-0.573,0.82-0.573C387.566-203.708,387.384-203.418,387.211-203.166" fill="#ffffff" stroke="#ffffff" stroke-width="0.25"/>
 </g>
</svg>
