<?xml version="1.0" encoding="iso-8859-1"?>
<!DOCTYPE svg PUBLIC "-//W3C//DTD SVG 1.1//EN" "http://www.w3.org/Graphics/SVG/1.1/DTD/svg11.dtd">
<svg version="1.1" xmlns="http://www.w3.org/2000/svg" width="24" height="24" viewBox="0 0 24 24" enable-background="new 0 0 24 24">
 <g id="layer1_1_" transform="translate(0,-1036.3622)">
  <g id="use3768">
   <polygon points="15.853,1040.628 13.846,1042.636 15.794,1044.584 11.956,1048.422 7.94,1044.407 
				9.657,1042.633 7.708,1040.625 3.794,1044.537 2.773,1049.597 6.582,1045.706 10.657,1049.78 5.637,1054.74 6.937,1056.099 
				11.956,1051.079 16.975,1056.099 18.274,1054.74 13.255,1049.78 17.151,1045.883 19.22,1047.95 21.227,1045.942 			" fill="#ffffff"/>
   <polygon points="15.853,1040.628 13.846,1042.636 15.794,1044.584 
				11.956,1048.422 7.94,1044.407 9.657,1042.633 7.708,1040.625 3.794,1044.537 2.773,1049.597 6.582,1045.706 10.657,1049.78 
				5.637,1054.74 6.937,1056.099 11.956,1051.079 16.975,1056.099 18.274,1054.74 13.255,1049.78 17.151,1045.883 19.22,1047.95 
				21.227,1045.942 			" fill="none" stroke="#ffffff" stroke-width="0.25"/>
  </g>
  <path id="path3002" d="M15.853,1040.628
			l-2.007,2.008l1.948,1.948l-3.838,3.838l-4.015-4.016l1.716-1.774l-1.949-2.008l-3.914,3.913l-1.021,5.061l3.809-3.893
			l4.075,4.074l-5.02,4.96l1.299,1.359l5.019-5.021l5.019,5.021l1.3-1.359l-5.02-4.96l3.896-3.897l2.068,2.066l2.007-2.008
			L15.853,1040.628z"/>
 </g>
</svg>
