<?xml version="1.0" encoding="iso-8859-1"?>
<!DOCTYPE svg PUBLIC "-//W3C//DTD SVG 1.1//EN" "http://www.w3.org/Graphics/SVG/1.1/DTD/svg11.dtd">
<svg version="1.1" xmlns="http://www.w3.org/2000/svg" width="24" height="24" viewBox="0 0 24 24" enable-background="new 0 0 24 24">
 <path d="M16.055,5.917l-1.301-0.082
					c-0.51,0-0.516,0.858-0.516,1.366l0.103,1.926c-0.298-1.212-0.88-2.28-1.61-2.282c0.539-0.32,1.125-1.333,1.125-2.006
					c0-0.174-0.027-0.356-0.065-0.537l0.122-0.003l-0.385-2.164c0,0-1.564,0.006-2.102,0.006c-0.508,0-0.594,0.922-1.273,0.922
					c-1.479,0-2.111,0.109-2.111,0.109l0.07,1.265l1.692-0.041C9.778,4.555,9.762,4.722,9.762,4.906c0,0.919,0.557,1.62,1.097,1.939
					C9.951,7.108,9.816,9.03,9.713,10.322l-3.025,0.42l0.166,1.701l3.203-0.306c0.001,0.015,0.002,0.022,0.004,0.038l2.848-2.014
					l0.318,0.242l-3.061,2.527c0.054,0.189,0.131,0.309,0.281,0.652l-3.656,8.229h2.24l3.034-6.174l0.946,6.227l2.467-0.053
					l-1.424-7.77c0.248-0.541,0.378-1.186,0.445-1.936l0.065,1.221c0,0.508,0.412,0.92,0.92,0.92h0.488
					c0.51,0,1.34-0.494,1.34-1.004V7.077C17.313,6.569,16.564,5.917,16.055,5.917z" fill-rule="evenodd"/>
</svg>
