<?xml version="1.0" encoding="iso-8859-1"?>
<!DOCTYPE svg PUBLIC "-//W3C//DTD SVG 1.1//EN" "http://www.w3.org/Graphics/SVG/1.1/DTD/svg11.dtd">
<svg version="1.1" xmlns="http://www.w3.org/2000/svg" width="24" height="24" viewBox="0 0 24 24" enable-background="new 0 0 24 24">
 <path d="M16.275,5.917l-1.301-0.082c-0.51,0-0.516,0.858-0.516,1.366
				l0.104,1.925c-0.299-1.211-0.881-2.279-1.612-2.28c0.54-0.32,1.125-1.333,1.125-2.006c0-0.174-0.027-0.356-0.066-0.537
				l0.123-0.003l-0.385-2.164c0,0-1.565,0.006-2.101,0.006c-0.509,0-0.595,0.922-1.274,0.922c-1.479,0-2.11,0.109-2.11,0.109
				l0.07,1.265l1.691-0.041C9.998,4.555,9.982,4.723,9.982,4.906c0,0.919,0.557,1.62,1.097,1.939
				c-0.907,0.263-1.042,2.185-1.146,3.478l-3.026,0.419l0.167,1.701l3.203-0.305c0.001,0.014,0.002,0.023,0.003,0.038l2.848-2.013
				l0.318,0.242l-3.06,2.527c0.053,0.189,0.13,0.308,0.28,0.652l-3.656,8.229h2.24l3.035-6.174l0.946,6.227l2.467-0.053l-1.424-7.77
				c0.248-0.539,0.379-1.182,0.445-1.93l0.064,1.215c0,0.508,0.412,0.92,0.92,0.92h0.488c0.51,0,1.34-0.494,1.34-1.004V7.077
				C17.533,6.57,16.785,5.917,16.275,5.917z" fill="#191919" fill-rule="evenodd"/>
</svg>
