<?xml version="1.0" encoding="UTF-8" standalone="no"?>
<svg xmlns="http://www.w3.org/2000/svg" version="1.1" width="24" height="24" viewBox="0 0 24 24" enable-background="new 0 0 24 24">
 <metadata id="metadata21"/>
 <path d="m 16.055998,5.916 -1.301,-0.082 c -0.51,0 -0.516,0.858 -0.516,1.366 l 0.104,1.925 c -0.299,-1.211 -0.881,-2.279 -1.612,-2.28 0.54,-0.32 1.125,-1.333 1.125,-2.006 0,-0.174 -0.027,-0.356 -0.066,-0.537 l 0.123,-0.003 -0.385,-2.164 c 0,0 -1.565,0.006 -2.101,0.006 -0.509,0 -0.595,0.922 -1.274,0.922 -1.479,0 -2.11,0.109 -2.11,0.109 l 0.07,1.265 1.691,-0.041 c -0.025,0.158 -0.041,0.326 -0.041,0.509 0,0.919 0.557,1.62 1.097,1.939 -0.907,0.263 -1.042,2.185 -1.146,3.478 l -3.026,0.419 0.167,1.701 3.203,-0.305 c 0.001,0.014 0.002,0.023 0.003,0.038 l 2.848,-2.013 0.318,0.242 -3.06,2.527 c 0.053,0.189 0.13,0.308 0.28,0.652 l -3.656,8.229 2.24,0 3.035,-6.174 0.946,6.227 2.467,-0.053 -1.424,-7.77 c 0.248,-0.539 0.379,-1.182 0.445,-1.93 l 0.064,1.215 c 0,0.508 0.412,0.92 0.92,0.92 l 0.488,0 c 0.51,0 1.34,-0.494 1.34,-1.004 l 0,-6.167 c 0.002,-0.507 -0.746,-1.16 -1.256,-1.16 z" id="path4" fill="#267f00" fill-rule="evenodd"/>
</svg>
