<?xml version="1.0" encoding="iso-8859-1"?>
<!DOCTYPE svg PUBLIC "-//W3C//DTD SVG 1.1//EN" "http://www.w3.org/Graphics/SVG/1.1/DTD/svg11.dtd">
<svg version="1.1" xmlns="http://www.w3.org/2000/svg" width="24" height="24" viewBox="0 0 24 24" enable-background="new 0 0 24 24">
 <path d="M2.983,13.488c1.981-6.124,3.435-9.396,9.559-9.396
		c4.899,0,8.475,3.278,8.475,8.398c0,4.094-3.178,7.417-7.096,7.417c-3.135,0-5.678-2.658-5.678-5.934
		c0-2.622,2.033-4.747,4.541-4.747c2.007,0,3.632,1.7,3.632,3.798c0,1.678-1.301,3.037-2.905,3.037c-1.285,0-2.324-1.09-2.324-2.43
		c0-1.073,0.834-1.944,1.859-1.944c0.821,0,1.488,0.696,1.488,1.555" stroke="#f7f7f7" stroke-width="1.3"/>
</svg>
